<?xml version="1.0" encoding="UTF-8"?><svg xmlns="http://www.w3.org/2000/svg" viewBox="0 0 400 356"><defs><style>.c{fill:#fff;}.d{fill:#557cbd;}.e{fill:#040000;}.f{fill:#093974;}</style></defs><g id="a"/><g id="b"><g><rect class="c" x="-8.1" y="-5.28" width="416.21" height="370.43"/><g><g><g><path d="M166.89,185.4c-5.6-.32-11.22-.33-16.83-.33-.86,0-1.93,.45-2.55,1.06-3.52,3.46-3.8,9.84-.71,13.77,0-1.96-.56-4.17,.16-5.82,.68-1.56,2.69-2.55,3.88-3.58,1.24-.09,2.32-.06,3.35-.27,2.75-.56,5.47-1.27,8.22-1.85,2.11-.45,4.06-.08,5.69,1.3-1.69,0-3.41-.66-4.93-.35-4.54,.94-9.04,2.17-13.48,3.53-.92,.28-1.96,1.54-2.17,2.51-1.16,5.33,2.81,10.28,8.16,10.34,.72,0,1.44-.4,2.16-.62-.39-.73-.6-1.71-1.2-2.14-1.45-1.06-3.09-1.88-4.88-2.93l1.74-.52-1.01-1.57,.15-.71c2.58,2.73,5.04,1.78,7.55,.2-1.3,7.73-1.58,15.3,.1,22.88-2.34-4.23-1.88-8.92-2.22-13.48-1.58-.09-2.95-.05-4.27-.29-1.39-.25-3.03-.43-4.03-1.27-2.63-2.22-4.83-4.86-5.6-8.4-.17-.77-.31-1.76-.84-2.21-2.96-2.53-2.24-5.57-1.42-8.65,.49-1.82,1.05-3.62,1.58-5.43-11.73-3.1-21.82-9.31-22.56-14.03,1.31,1.14,2.39,2.52,3.67,3.67,4.97,4.46,10.45,8.05,17.27,8.85,.98,.12,2.23-.44,3.08-1.06,2.49-1.83,2.43-4.99,3.05-7.53,1.08-4.43,3.54-6.17,7.82-6.67,3.55-.42,7.01-1.54,10.99-2.46,3.13-8.06,3.7-17.21,3.84-26.48,.52,.6,.7,1.17,.74,1.75,.45,8.34-.53,16.49-3.16,24.44-.36,1.09-.82,2.44-.5,3.42,1.47,4.48,2.99,8.97,4.9,13.29,1.72,3.89,2.62,7.83,2.84,12.07,.28,5.44,.97,10.86,1.56,16.27,.07,.63,.46,1.62,.92,1.76,4.64,1.49,9.33,2.83,14,4.22l.38-.7c-4.6-6.71-3.39-13.44-.25-20.17,.85-1.82,1.62-3.68,2.58-5.43,4.11-7.51,3.9-15.07,.27-22.64-1.52-3.18-3.12-6.34-4.93-9.37-7.34-12.3-10.93-25.94-14.68-39.58-2.03-7.39-4.42-14.76-7.49-21.77-2.36-5.38-6.52-9.57-13.01-10.26-.15-.02-.27-.32-.43-.51,2.56-.81,5.64,.17,8.68,2.76,4.14,3.54,6.92,8.05,8.6,13.14,1.94,5.86,3.73,11.78,5.23,17.77,3.66,14.62,8.3,28.82,16.34,41.73,1.35,2.17,2.38,4.55,3.37,6.91,3.05,7.26,3.21,14.46-.51,21.61-1.44,2.77-2.89,5.59-3.86,8.55-.91,2.78-1.51,5.74-1.68,8.65-.2,3.32,1.2,6.45,3.59,8.65,1.3,1.2,3.55,1.47,5.43,1.93,6.85,1.69,13.83,2.92,20.54,5.03,6.12,1.92,9.98,6.44,11.47,12.85,2.04,8.76,.99,17.39-.96,25.98-2.78,12.28-6.15,24.46-8.31,36.84-2.36,13.5-3.57,27.19-5.41,40.79-.77,5.66-2,11.26-5.28,16.1-1.05,1.55-2.54,2.82-3.83,4.21l-.56-.51c.25-.34,.53-.66,.76-1.01,1.72-2.58,4.03-4.95,5.01-7.79,1.58-4.58,2.8-9.42,3.28-14.24,2.09-21.19,5.14-42.2,10.5-62.83,.17-.64,.17-1.32,.26-2.08-13.47,2.95-30.82,2.59-33.61-.62,.06-.05,.14-.15,.19-.14,.78,.15,1.56,.31,2.35,.47,8.32,1.73,16.67,2.22,25.11,.83,4.29-.7,7.74-2.07,7.86-7.22,0-.39,.21-.77,.3-1.16,1.93-7.75,3.09-15.58,2.16-23.6-.61-5.28-2.17-10.26-6.76-13.29-2.94-1.95-6.41-3.42-9.84-4.24-8.65-2.06-17.44-3.57-26.14-5.41-3.72-.79-7.38-1.88-11.25-2.88,.04,.71-.03,1.27,.11,1.79,1.51,5.89,3.03,11.78,4.58,17.65,.64,2.4,1.5,4.74,2.04,7.16,3.15,14,6.05,28.07,9.41,42.02,2.85,11.8,7.11,23.14,12.4,34.09,3.37,6.97,6.05,14.17,6.53,22.01,.06,.93-.09,1.87-.18,3.25-.47-.61-.63-.72-.64-.84-.19-9.82-4.02-18.55-8.09-27.23-5.46-11.67-9.34-23.87-12.3-36.41-3.98-16.84-6.37-34.07-12.43-50.4-.3-.82-.52-1.7-.63-2.57-1.4-10.64-2.76-21.29-4.16-31.93-.25-1.9-.35-3.88-.98-5.66-2.07-5.8-4.38-11.52-6.55-17.29-.81-2.15-2.14-2.71-4.34-2.04-2.82,.86-5.74,1.4-8.57,2.22-1.11,.32-2.65,.8-3.04,1.65-1.31,2.84-2.19,5.88-3.27,8.94,5.48,.62,8.43-2.24,7.61-6.5,1.16,.34,2.52,1.16,3.7,.96,1.17-.2,2.16-1.42,2.73-1.82,.3,2.12,.85,4.77,1.02,7.46,.17,2.66,1.24,3.97,4,4.17,1.14,.08,2.22,1.04,3.33,1.59l-.4,.6c-1.02-.43-2-.99-3.06-1.26-5.04-1.31-10.09-2.57-15.16-3.79-3.05-.73-5.26,.34-6.38,3.26-.97,2.54-1.79,5.17-2.35,7.82-.29,1.4,.13,2.96,.23,4.44l.7-.03c.75-1.9,1.27-3.92,2.3-5.65,.96-1.61,2.46-2.9,3.46-4.04,1.45,.27,2.89,.72,4.35,.79,4.33,.23,8.66,.28,12.99,.47,2.11,.09,3.85,.84,4.53,3.33-1.54-.88-2.77-2.15-4.08-2.22Zm-6.49-13.25c-2.73-1.85-3.49-1.38-7.17,4.46,2.24,.49,5.58-1.67,7.17-4.46Zm.51,1.77l-4.96,3.79c2.18,.52,3.89,.93,6.18,1.47-.48-2.06-.81-3.5-1.22-5.26Zm-2.51,28.92l.29-3.24-3.1,.46-.14,.6c.85,.63,1.71,1.26,2.95,2.17Z"/><path class="e" d="M207.85,355.5l-.87-.8,.1-.22c.08-.11,.17-.22,.25-.33,.17-.22,.35-.44,.5-.68,.53-.8,1.13-1.59,1.71-2.35,1.28-1.7,2.61-3.46,3.28-5.38,1.73-5.02,2.83-9.79,3.27-14.18,2.43-24.67,5.77-44.64,10.51-62.87,.11-.41,.14-.85,.18-1.31,.01-.13,.02-.26,.04-.39-13.52,2.89-30.66,2.51-33.52-.78l-.17-.2,.21-.16c.11-.11,.23-.22,.39-.19,.79,.15,1.57,.31,2.35,.47,8.91,1.86,17.1,2.13,25.02,.83,4.51-.74,7.54-2.21,7.65-6.98,0-.29,.1-.57,.19-.83,.04-.13,.09-.26,.12-.38,2.27-9.11,2.96-16.58,2.16-23.51-.75-6.53-2.81-10.57-6.65-13.11-2.87-1.9-6.33-3.39-9.76-4.2-5.34-1.27-10.82-2.35-16.12-3.39-3.29-.65-6.69-1.31-10.02-2.02-2.55-.54-5.03-1.21-7.66-1.92-1.08-.29-2.17-.59-3.28-.88,0,.12,0,.23,0,.34,0,.4,0,.75,.08,1.06,1.33,5.21,2.92,11.39,4.58,17.65,.26,1,.57,2,.87,2.98,.42,1.36,.85,2.77,1.17,4.19,1.12,4.97,2.22,10.03,3.29,14.93,1.94,8.89,3.95,18.09,6.12,27.09,2.72,11.29,6.77,22.43,12.38,34.04,2.78,5.75,6.03,13.45,6.55,22.1,.04,.63-.02,1.27-.08,2.01-.03,.39-.07,.8-.1,1.27l-.04,.67-.41-.53c-.19-.25-.33-.41-.43-.53-.17-.2-.26-.31-.26-.46-.19-9.55-3.76-17.94-8.06-27.13-5.04-10.78-9.07-22.7-12.31-36.45-1.2-5.08-2.27-10.28-3.31-15.31-2.4-11.64-4.89-23.67-9.11-35.06-.31-.83-.53-1.71-.65-2.62-.71-5.39-1.41-10.79-2.11-16.18-.68-5.25-1.36-10.5-2.05-15.75-.06-.43-.1-.86-.15-1.29-.16-1.46-.33-2.96-.81-4.31-1.32-3.7-2.76-7.43-4.15-11.04-.8-2.08-1.61-4.17-2.39-6.25-.75-1.99-1.92-2.54-4.04-1.89-1.5,.46-3.05,.83-4.56,1.19-1.32,.32-2.69,.65-4.02,1.03-.88,.26-2.52,.74-2.88,1.51-.94,2.04-1.64,4.14-2.39,6.37-.25,.75-.5,1.5-.76,2.25,2.62,.23,4.74-.36,5.97-1.7,1.04-1.13,1.41-2.7,1.05-4.54l-.08-.4,.39,.11c.36,.1,.72,.25,1.1,.4,.85,.33,1.72,.68,2.49,.55,.79-.13,1.53-.81,2.07-1.31,.21-.19,.39-.36,.55-.47l.34-.24,.06,.41c.09,.61,.19,1.26,.31,1.95,.28,1.69,.59,3.6,.71,5.53,.17,2.65,1.23,3.75,3.77,3.94,.85,.06,1.64,.55,2.41,1.03,.33,.21,.68,.42,1.01,.59l.25,.13-.68,1-.19-.08c-.33-.14-.65-.29-.97-.44-.67-.31-1.36-.63-2.06-.81-5.15-1.34-10.25-2.61-15.15-3.79-2.98-.71-5.02,.33-6.08,3.11-1.06,2.78-1.82,5.33-2.34,7.78-.19,.93-.06,1.96,.07,2.96,.05,.38,.1,.78,.14,1.17h.3c.2-.54,.39-1.07,.58-1.61,.47-1.34,.96-2.72,1.69-3.94,.7-1.17,1.67-2.17,2.52-3.05,.35-.36,.68-.7,.97-1.03l.09-.11,.14,.03c.46,.09,.91,.19,1.37,.29,.97,.22,1.96,.44,2.95,.5,2.41,.13,4.87,.2,7.24,.27,1.91,.06,3.83,.12,5.74,.2,2.62,.12,4.14,1.23,4.76,3.51l.16,.58-.52-.3c-.52-.29-.99-.63-1.45-.95-.92-.64-1.71-1.2-2.52-1.24h0c-5.46-.31-10.85-.34-16.81-.33-.78,0-1.8,.42-2.38,.99-3.19,3.13-3.66,8.9-1.16,12.77-.02-.33-.05-.66-.08-.99-.12-1.43-.24-2.9,.28-4.11,.51-1.17,1.7-2.02,2.76-2.77,.44-.31,.85-.6,1.19-.9l.06-.05h.08c.4-.04,.79-.05,1.17-.07,.76-.03,1.48-.06,2.16-.2,1.45-.3,2.92-.64,4.34-.97,1.27-.3,2.58-.6,3.88-.88,2.28-.48,4.27-.03,5.91,1.35l.52,.44h-.69c-.71,0-1.42-.11-2.11-.22-.98-.16-1.9-.31-2.75-.13-4.11,.85-8.51,2-13.46,3.52-.81,.25-1.8,1.4-2,2.33-.54,2.46,.04,5,1.6,6.95,1.54,1.94,3.85,3.06,6.33,3.09,.44,.01,.9-.17,1.38-.36,.14-.05,.28-.11,.42-.16-.07-.16-.14-.33-.21-.49-.22-.54-.43-1.04-.78-1.31-1.01-.74-2.13-1.37-3.31-2.03-.5-.28-1.02-.57-1.55-.88l-.5-.29,1.97-.59-.88-1.37,.27-1.28,.33,.35c2.32,2.46,4.49,1.89,7.23,.16l.47-.3-.09,.55c-1.46,8.67-1.43,15.91,.1,22.79l.37,1.69-.84-1.51c-1.85-3.34-1.98-6.99-2.1-10.53-.03-.93-.07-1.9-.13-2.84-.42-.02-.82-.04-1.22-.05-1-.03-1.94-.06-2.86-.23-.19-.04-.39-.07-.59-.1-1.24-.21-2.64-.45-3.55-1.22-3.2-2.69-5-5.41-5.68-8.54l-.06-.29c-.14-.68-.3-1.44-.7-1.78-3.16-2.7-2.28-6-1.5-8.91,.34-1.26,.72-2.52,1.08-3.75,.14-.48,.29-.96,.43-1.44-11.89-3.19-21.74-9.39-22.49-14.17l-.11-.68,.52,.45c.69,.6,1.33,1.28,1.94,1.93,.55,.59,1.13,1.2,1.73,1.74,6.01,5.39,11.3,8.1,17.13,8.79,.91,.1,2.11-.43,2.9-1.01,1.86-1.37,2.24-3.53,2.61-5.62,.1-.59,.21-1.2,.35-1.77,1.06-4.33,3.38-6.31,8.03-6.86,2.41-.28,4.8-.9,7.33-1.55,1.13-.29,2.29-.59,3.5-.87,2.92-7.59,3.62-15.99,3.78-26.27v-.65l.44,.49c.51,.58,.76,1.18,.8,1.9,.46,8.51-.6,16.76-3.17,24.53l-.03,.08c-.34,1.02-.76,2.3-.47,3.18,1.4,4.29,2.94,8.84,4.89,13.26,1.7,3.85,2.64,7.83,2.86,12.16,.22,4.32,.72,8.71,1.19,12.95,.12,1.1,.25,2.2,.37,3.31,.07,.65,.46,1.46,.75,1.55,3.64,1.17,7.37,2.27,10.98,3.33l2.82,.83,.21-.39c-3.94-5.84-4-12.1-.19-20.29,.24-.51,.47-1.03,.71-1.55,.58-1.29,1.19-2.63,1.88-3.9,3.89-7.11,3.98-14.65,.26-22.41-1.26-2.63-2.96-6.07-4.91-9.35-7.07-11.84-10.73-25.15-14.26-38.02l-.44-1.62c-2.36-8.58-4.74-15.49-7.48-21.74-1.84-4.19-5.55-9.34-12.8-10.11-.22-.02-.35-.22-.47-.42-.04-.06-.08-.13-.13-.19l-.23-.28,.35-.11c2.64-.84,5.81,.16,8.92,2.81,3.97,3.39,6.89,7.85,8.68,13.25,2.15,6.48,3.86,12.29,5.23,17.78,3.01,12.04,7.59,27.66,16.31,41.66,1.33,2.13,2.36,4.5,3.39,6.95,3.26,7.75,3.09,14.88-.52,21.82-1.61,3.1-2.92,5.69-3.84,8.51-.92,2.81-1.5,5.78-1.67,8.59-.19,3.14,1.09,6.22,3.51,8.45,1,.92,2.61,1.27,4.17,1.61,.39,.08,.77,.17,1.14,.26,2.36,.58,4.77,1.12,7.1,1.64,4.45,.99,9.04,2.01,13.45,3.39,6.07,1.9,10.1,6.41,11.64,13.04,2.23,9.57,.66,18.97-.96,26.09-.91,4-1.89,8.06-2.85,11.99-1.97,8.11-4.01,16.5-5.46,24.84-1.52,8.72-2.58,17.67-3.61,26.32-.56,4.74-1.14,9.65-1.8,14.46-.7,5.16-1.88,11.12-5.32,16.21-.74,1.09-1.69,2.04-2.61,2.96-.42,.42-.84,.84-1.24,1.28l-.17,.18Zm-.23-.9l.21,.19c.35-.38,.72-.74,1.09-1.11,.9-.91,1.83-1.84,2.54-2.89,3.38-5,4.55-10.89,5.24-15.99,.65-4.81,1.23-9.71,1.79-14.45,1.03-8.66,2.09-17.62,3.62-26.35,1.46-8.36,3.5-16.76,5.47-24.88,.95-3.92,1.94-7.98,2.84-11.98,1.6-7.07,3.16-16.4,.96-25.87-1.5-6.44-5.41-10.82-11.3-12.67-4.39-1.38-8.98-2.39-13.41-3.38-2.34-.52-4.75-1.06-7.11-1.64-.37-.09-.74-.17-1.13-.26-1.63-.36-3.31-.72-4.41-1.74-2.53-2.34-3.87-5.56-3.67-8.85,.17-2.85,.76-5.87,1.7-8.71,.94-2.85,2.25-5.46,3.87-8.58,3.53-6.8,3.7-13.8,.5-21.4-1.06-2.52-2.04-4.77-3.35-6.88-8.75-14.05-13.34-29.72-16.37-41.8-1.37-5.48-3.08-11.28-5.22-17.75-1.76-5.32-4.63-9.7-8.53-13.03-2.84-2.43-5.71-3.42-8.12-2.81,.04,.06,.08,.11,.1,.13,7.45,.79,11.27,6.09,13.16,10.4,2.75,6.27,5.13,13.2,7.5,21.8l.44,1.62c3.53,12.84,7.17,26.12,14.21,37.9,1.97,3.29,3.67,6.75,4.94,9.39,3.79,7.91,3.7,15.6-.28,22.86-.68,1.25-1.28,2.58-1.87,3.87-.23,.52-.47,1.04-.71,1.55-3.76,8.06-3.68,14.21,.23,19.92l.09,.13-.55,1.01-3.2-.95c-3.61-1.06-7.35-2.16-10.99-3.33-.64-.21-1.03-1.39-1.09-1.97-.12-1.1-.24-2.2-.37-3.3-.48-4.25-.97-8.65-1.2-12.99-.22-4.27-1.14-8.19-2.82-11.98-1.96-4.44-3.5-9.01-4.91-13.31-.34-1.04,.11-2.4,.47-3.49l.03-.08c2.55-7.71,3.61-15.9,3.15-24.34-.02-.36-.1-.67-.25-.98-.19,10.03-.94,18.29-3.85,25.78l-.05,.12-.13,.03c-1.25,.29-2.46,.6-3.62,.9-2.55,.66-4.95,1.28-7.4,1.56-4.4,.52-6.61,2.4-7.61,6.49-.14,.55-.24,1.13-.34,1.74-.38,2.19-.78,4.45-2.8,5.94-.81,.59-2.15,1.23-3.26,1.11-1.51-.18-2.98-.49-4.43-.94,1.96,.74,4.03,1.4,6.14,1.96l.25,.07-.07,.25c-.16,.56-.33,1.13-.5,1.69-.37,1.22-.74,2.48-1.08,3.73-.78,2.91-1.58,5.91,1.34,8.4,.53,.45,.71,1.31,.86,2.06l.06,.28c.66,3.02,2.41,5.65,5.52,8.26,.81,.68,2.08,.9,3.31,1.11,.2,.03,.4,.07,.6,.1,.88,.16,1.81,.19,2.79,.23,.47,.01,.95,.03,1.45,.06h.22l.02,.23c.08,1.02,.11,2.07,.15,3.08,.1,2.78,.2,5.63,1.15,8.31-1.07-6.16-.99-12.67,.24-20.27-2.12,1.27-4.53,2.2-7.06-.2l-.03,.16,1.13,1.76-1.51,.45c.35,.2,.7,.4,1.04,.59,1.2,.67,2.33,1.31,3.36,2.06,.47,.34,.71,.94,.95,1.52,.1,.25,.2,.49,.32,.71l.14,.27-.29,.09c-.22,.07-.44,.15-.67,.24-.51,.19-1.03,.4-1.57,.39-2.63-.03-5.08-1.22-6.71-3.28-1.65-2.07-2.26-4.75-1.69-7.36,.24-1.09,1.38-2.4,2.34-2.7,4.96-1.52,9.38-2.68,13.5-3.54,.94-.19,1.95-.03,2.93,.12,.4,.06,.81,.13,1.22,.17-1.38-.89-3-1.14-4.82-.76-1.29,.27-2.6,.58-3.87,.88-1.42,.33-2.9,.68-4.35,.98-.72,.15-1.45,.18-2.23,.21-.34,.01-.7,.03-1.07,.06-.34,.29-.74,.58-1.16,.88-1.05,.75-2.14,1.52-2.59,2.56-.47,1.09-.36,2.51-.24,3.87,.05,.61,.1,1.24,.1,1.85v.72l-.45-.57c-3.22-4.09-2.88-10.55,.73-14.1,.67-.66,1.81-1.13,2.73-1.13,5.97,0,11.38,.02,16.84,.33h0c.95,.05,1.83,.67,2.77,1.33,.27,.19,.55,.38,.84,.57-.65-1.63-1.94-2.41-4.09-2.51-1.91-.08-3.82-.14-5.73-.2-2.38-.07-4.84-.15-7.26-.27-1.02-.05-2.04-.29-3.03-.51-.41-.09-.81-.18-1.22-.26-.27,.3-.57,.61-.89,.94-.84,.86-1.78,1.84-2.45,2.96-.7,1.18-1.18,2.54-1.64,3.85-.21,.59-.42,1.18-.64,1.76l-.06,.15-1.11,.05-.02-.24c-.03-.45-.09-.93-.15-1.38-.14-1.04-.28-2.12-.07-3.13,.52-2.48,1.29-5.05,2.36-7.86,1.15-3.01,3.45-4.19,6.67-3.42,4.91,1.18,10.01,2.45,15.16,3.79,.75,.19,1.46,.53,2.14,.85,.25,.12,.51,.24,.76,.35l.13-.19c-.27-.15-.54-.32-.8-.48-.75-.46-1.46-.9-2.18-.96-2.78-.2-4.04-1.52-4.23-4.4-.12-1.9-.43-3.8-.71-5.48-.09-.53-.17-1.04-.24-1.52-.06,.05-.11,.1-.17,.16-.59,.54-1.39,1.28-2.33,1.43-.9,.15-1.84-.22-2.75-.58-.23-.09-.46-.18-.68-.26,.26,1.83-.17,3.4-1.25,4.56-1.4,1.51-3.78,2.16-6.71,1.82l-.31-.04,.1-.3c.3-.85,.58-1.7,.87-2.54,.75-2.24,1.46-4.36,2.41-6.42,.42-.91,1.87-1.4,3.19-1.78,1.34-.39,2.71-.72,4.04-1.04,1.49-.36,3.04-.73,4.53-1.18,2.37-.72,3.81-.05,4.65,2.19,.79,2.09,1.59,4.17,2.39,6.25,1.39,3.61,2.83,7.34,4.16,11.05,.5,1.4,.67,2.94,.84,4.42,.05,.43,.1,.86,.15,1.29,.69,5.25,1.37,10.5,2.05,15.75,.27,2.07,.54,4.14,.8,6.21,0-.16,0-.33-.01-.5l-.02-.34,.33,.08c1.22,.32,2.42,.64,3.61,.96,2.62,.71,5.09,1.38,7.63,1.92,3.33,.71,6.73,1.37,10.01,2.02,5.3,1.04,10.79,2.12,16.14,3.39,3.48,.83,7.01,2.35,9.92,4.27,5.1,3.37,6.35,8.97,6.87,13.47,.81,6.99,.12,14.52-2.17,23.68-.04,.14-.08,.28-.13,.43-.08,.24-.16,.47-.17,.68-.12,5.41-3.95,6.78-8.07,7.46-.36,.06-.73,.12-1.09,.17,2.38-.31,4.74-.71,6.97-1.19l.34-.08-.04,.35c-.03,.25-.05,.49-.07,.72-.04,.49-.08,.95-.2,1.39-4.73,18.2-8.06,38.15-10.49,62.79-.44,4.43-1.54,9.24-3.29,14.3-.69,2-2.04,3.79-3.35,5.52-.57,.76-1.16,1.54-1.69,2.32-.16,.24-.34,.48-.52,.71-.04,.05-.07,.09-.11,.14Zm4.35-18.07s.08,.08,.14,.15l.04,.04c.02-.23,.04-.44,.05-.65,.06-.75,.11-1.34,.08-1.93-.52-8.56-3.75-16.21-6.5-21.92-5.63-11.64-9.69-22.81-12.42-34.14-2.17-9-4.18-18.2-6.12-27.1-1.07-4.89-2.17-9.96-3.29-14.93-.31-1.4-.75-2.8-1.16-4.15-.3-.98-.61-1.99-.88-3-1.6-6.04-3.13-11.99-4.43-17.08,.35,2.69,.7,5.37,1.05,8.06,.11,.87,.32,1.72,.62,2.51,4.24,11.42,6.72,23.47,9.13,35.13,1.04,5.03,2.11,10.22,3.31,15.3,3.24,13.72,7.26,25.61,12.28,36.36,4.32,9.25,7.92,17.69,8.11,27.33h0Zm-17.91-70.29c2.55,1.94,11.28,2.62,20.61,1.93-5.97,.33-12.14-.18-18.7-1.54-.64-.13-1.27-.26-1.91-.39Zm-72.64-98.94c1.06,2.85,5.34,6.19,11.15,8.99-2.63-1.43-5.29-3.38-8.11-5.9-.62-.56-1.2-1.17-1.76-1.77-.41-.44-.84-.89-1.28-1.32Zm37.22,36l-3.44-2.54,.22-.93,3.58-.53-.36,4Zm-2.87-2.74l2.46,1.81,.23-2.48-2.61,.39-.07,.28Zm6.73-21.04l-7.08-1.68,5.68-4.35,1.4,6.03Zm-5.94-1.93l5.27,1.25-1.04-4.49-4.23,3.24Zm-2.65-.66c-.24,0-.48-.02-.7-.07l-.35-.08,.19-.3c2.3-3.65,3.47-5.23,4.76-5.5,.85-.18,1.69,.24,2.77,.97l.19,.13-.11,.2c-1.51,2.65-4.49,4.65-6.74,4.65Zm-.23-.51c2.03,.17,4.9-1.68,6.42-4.19-.87-.57-1.56-.89-2.19-.76-1.07,.22-2.19,1.71-4.23,4.95Z"/></g><g><path d="M73.04,221.84c-3.43,1.68-6.87,3.37-10.47,5.13-.71-2.63-.21-5.21,1.22-7.27,2.12-3.07,4.56-5.99,7.22-8.61,4.81-4.76,6.91-10.34,5.99-17-.43-3.09-1.08-6.16-1.74-9.21-1.04-4.78-2.29-9.51-3.24-14.31-1.36-6.94,.37-13.2,4.58-18.82,.53-.71,1-1.47,1.6-2.11,7.74-8.15,11.21-18.12,12.69-29.03,1.22-9,3.02-17.88,7.3-26.05,8.01-15.27,25.43-23.63,41.19-19.33,3.21,.88,6.07,3.08,9.07,4.72,.65,.36,1.17,.96,1.75,1.45l.56-.47c-.5-.66-.9-1.42-1.51-1.95-4.32-3.84-9.49-5.63-15.18-5.91-17.76-.88-32.15,8.53-39.02,25.28-3.14,7.65-4.44,15.73-5.68,23.81-1.46,9.56-4.57,18.27-11.22,25.59-3.5,3.86-6.33,8.28-7.32,13.62-.88,4.77-.23,9.42,.86,14.06,1.3,5.54,2.7,11.07,3.83,16.64,1.49,7.31-.26,13.66-6.03,18.72-1.56,1.37-2.98,2.92-4.35,4.49-2.86,3.29-4.24,7.1-3.99,11.52,.05,.83-.27,2-.86,2.5-5.85,4.94-8.41,11.53-8.99,18.84-.75,9.43-.89,18.91-1.44,28.35-1.19,20.58-2.39,41.17-3.76,61.74-.54,8.14-.22,16.19,.97,24.24,.07,.47,.26,.91,.54,1.89,.25-.85,.51-1.26,.44-1.61-2.64-13.95-.36-27.83,.46-41.75,.91-15.62,1.59-31.25,2.38-46.87,.05-.94,.09-1.88,.15-3.1,9.9,3.17,19.78,3.27,30.13,2.31-.09,1.86-.11,3.5-.27,5.13-.91,9.02-2.21,18.01-2.64,27.05-.25,5.13,1.17,10.31,1.34,15.49,.15,4.46-.37,8.95-.65,13.42-.54,8.56-1.14,17.12-1.66,25.69-.07,1.07,.13,2.15,.46,3.2,.94-12.63,1.89-25.26,2.83-37.89h.79c5.77,12.1,3.95,24.99,3.9,37.8,.16-.47,.42-.93,.47-1.42,.97-9.13,1.12-18.27-.35-27.35-.44-2.74-1.34-5.5-2.55-7.99-4.21-8.68-4.26-17.83-3.38-27.1,.86-9.1,1.88-18.19,2.74-27.28,.19-2.01,.03-4.05,.03-6.08h-.9c0,1.48,.15,2.99-.06,4.45-.11,.72-.82,1.88-1.35,1.94-8.83,.94-17.61,.81-26.26-1.58-2.12-.58-2.75-1.6-2.57-3.74,.59-7.03,.71-14.11,1.55-21.1,1.25-10.36,7.5-17.06,16.79-21.2,1.24-.55,2.48-1.14,3.7-1.73,.11-.05,.15-.26,.22-.39l-.31-.8Z"/><path class="e" d="M47.63,365.25l-.24-.83c-.1-.35-.2-.64-.27-.88-.14-.42-.23-.73-.28-1.04-1.19-8.02-1.52-16.19-.98-24.29,1.42-21.29,2.66-42.77,3.76-61.73,.22-3.78,.38-7.63,.53-11.35,.23-5.58,.46-11.35,.91-17.01,.64-8.06,3.7-14.46,9.08-19.01,.52-.43,.81-1.54,.77-2.29-.25-4.38,1.11-8.32,4.05-11.7,1.32-1.51,2.76-3.11,4.37-4.52,5.47-4.79,7.47-11.01,5.95-18.48-.82-4.01-1.79-8.06-2.73-11.98-.37-1.55-.74-3.1-1.11-4.65-.96-4.1-1.81-8.99-.86-14.16,.88-4.75,3.29-9.24,7.38-13.74,5.96-6.57,9.51-14.66,11.16-25.46,1.14-7.46,2.44-15.92,5.7-23.87,6.89-16.8,21.57-26.32,39.26-25.43,6.05,.3,11.21,2.31,15.33,5.98,.44,.39,.77,.88,1.09,1.36,.15,.21,.29,.43,.45,.63l.14,.19-.91,.75-.16-.14c-.19-.16-.37-.33-.55-.5-.38-.36-.74-.7-1.16-.93-.88-.48-1.75-1.02-2.6-1.54-2.05-1.25-4.16-2.55-6.41-3.16-15.63-4.27-32.83,3.81-40.9,19.21-4.47,8.53-6.19,17.91-7.28,25.97-1.69,12.53-5.75,21.8-12.76,29.17-.4,.42-.75,.92-1.09,1.41-.16,.23-.32,.46-.49,.68-4.31,5.75-5.84,12.02-4.54,18.62,.55,2.82,1.23,5.66,1.88,8.41,.46,1.93,.93,3.92,1.36,5.9,.67,3.1,1.31,6.14,1.74,9.23,.92,6.65-1.06,12.28-6.06,17.21-2.62,2.58-5.03,5.47-7.19,8.58-1.38,1.99-1.82,4.38-1.26,6.76l10.43-5.12,.44,1.17-.05,.1s-.03,.07-.05,.11c-.05,.13-.12,.3-.28,.38-1.09,.53-2.39,1.14-3.71,1.73-9.9,4.41-15.5,11.48-16.64,21-.51,4.21-.75,8.53-.99,12.71-.16,2.75-.32,5.59-.55,8.38-.17,2.06,.43,2.94,2.38,3.48,7.77,2.14,16.08,2.65,26.17,1.58,.37-.04,1.04-1.06,1.13-1.73,.15-1.01,.12-2.07,.09-3.1-.01-.44-.03-.88-.03-1.31v-.25h1.4v.26c0,.64,.02,1.28,.03,1.91,.04,1.38,.07,2.8-.06,4.19-.43,4.48-.9,9.03-1.35,13.43-.47,4.54-.95,9.23-1.39,13.85-.82,8.71-.99,18.01,3.36,26.96,1.25,2.57,2.13,5.35,2.57,8.06,1.33,8.2,1.44,17.17,.35,27.42-.04,.37-.18,.71-.31,1.04-.06,.14-.12,.29-.17,.43l-.49,1.45v-1.53c.02-2.42,.09-4.88,.16-7.26,.3-10.11,.62-20.56-3.96-30.27h-.39l-2.91,38.96-.39-1.26c-.38-1.21-.53-2.29-.47-3.29,.29-4.63,.59-9.26,.9-13.89,.26-3.93,.52-7.86,.77-11.8,.07-1.17,.16-2.33,.25-3.5,.25-3.25,.51-6.61,.4-9.89-.07-2.21-.38-4.45-.68-6.63-.4-2.91-.81-5.93-.67-8.88,.3-6.22,1.02-12.52,1.71-18.61,.32-2.77,.64-5.63,.93-8.45,.11-1.09,.15-2.2,.2-3.37,.02-.47,.04-.96,.06-1.46-8.17,.75-18.85,1.13-29.63-2.25l-.13,2.77c-.24,4.71-.46,9.42-.69,14.13-.52,10.73-1.05,21.83-1.69,32.75-.19,3.2-.46,6.46-.72,9.6-.87,10.51-1.77,21.38,.25,32.08,.05,.29-.05,.57-.19,.96-.08,.21-.17,.46-.26,.77l-.24,.83ZM131.85,73.26c-16.48,0-30.05,9.29-36.57,25.18-3.24,7.9-4.53,16.32-5.66,23.76-1.67,10.91-5.25,19.08-11.29,25.72-4.02,4.43-6.4,8.85-7.26,13.5-.94,5.08-.1,9.91,.85,13.96,.36,1.55,.73,3.1,1.11,4.65,.94,3.92,1.91,7.98,2.73,12,1.56,7.66-.5,14.03-6.11,18.95-1.59,1.39-3.02,2.97-4.32,4.47-2.85,3.28-4.17,7.09-3.93,11.34,.05,.89-.29,2.15-.95,2.71-5.35,4.53-8.27,10.63-8.9,18.66-.45,5.65-.68,11.42-.91,16.99-.15,3.72-.31,7.58-.53,11.36-1.1,18.96-2.34,40.45-3.76,61.74-.54,8.06-.21,16.2,.97,24.18,.04,.28,.13,.55,.26,.96l.05,.14,.02-.05c.12-.33,.2-.54,.17-.69-2.04-10.78-1.13-21.68-.26-32.22,.26-3.14,.53-6.39,.72-9.59,.64-10.91,1.17-22.01,1.69-32.74,.23-4.71,.45-9.42,.69-14.13l.16-3.42,.31,.1c10.93,3.5,21.79,3.07,30.03,2.3l.29-.03v.29c-.04,.6-.07,1.18-.09,1.74-.04,1.18-.09,2.29-.2,3.4-.28,2.82-.61,5.69-.93,8.46-.69,6.08-1.41,12.37-1.71,18.58-.1,2.15,.09,4.34,.36,6.51-.31-4.3-.07-8.57,.32-12.71,.44-4.62,.92-9.32,1.39-13.86,.45-4.4,.92-8.95,1.35-13.43,.13-1.36,.09-2.77,.06-4.13-.01-.56-.03-1.12-.03-1.68h-.4c0,.34,.01,.69,.02,1.04,.03,1.05,.06,2.14-.09,3.19-.11,.78-.88,2.08-1.58,2.15-10.15,1.07-18.53,.57-26.35-1.59-2.2-.61-2.95-1.69-2.75-4.01,.23-2.78,.4-5.62,.55-8.37,.24-4.18,.49-8.51,.99-12.74,1.17-9.71,6.87-16.91,16.94-21.4,1.32-.59,2.61-1.2,3.7-1.72,0,0,.02-.07,.04-.12l.02-.06-.17-.45-10.49,5.15-.08-.29c-.71-2.63-.26-5.28,1.25-7.47,2.17-3.13,4.61-6.04,7.24-8.65,4.88-4.82,6.81-10.31,5.92-16.79-.43-3.07-1.06-6.1-1.73-9.19-.43-1.97-.9-3.96-1.35-5.89-.65-2.76-1.33-5.6-1.88-8.43-1.33-6.75,.23-13.15,4.63-19.02,.16-.22,.32-.44,.48-.67,.35-.5,.71-1.01,1.14-1.46,6.93-7.3,10.94-16.48,12.62-28.9,1.1-8.1,2.82-17.54,7.33-26.13,8.18-15.6,25.62-23.78,41.47-19.46,2.31,.63,4.46,1.95,6.54,3.22,.84,.52,1.72,1.05,2.58,1.53,.47,.26,.87,.64,1.26,1,.12,.12,.24,.23,.37,.34l.22-.18c-.11-.15-.21-.31-.32-.46-.32-.47-.62-.92-1.01-1.27-4.03-3.59-9.09-5.56-15.02-5.85-.74-.04-1.48-.05-2.21-.05Zm-52.28,244.1c.14,1.21,.25,2.43,.29,3.64,.11,3.31-.15,6.68-.4,9.95-.09,1.17-.18,2.33-.25,3.5-.25,3.93-.51,7.87-.77,11.8-.31,4.63-.61,9.26-.9,13.89-.03,.49,0,1.01,.08,1.56l2.73-36.52,1.18,.02,.07,.14c4.7,9.86,4.38,20.43,4.08,30.64-.05,1.75-.11,3.53-.14,5.32,1.03-10,.9-18.77-.4-26.8-.43-2.66-1.31-5.4-2.53-7.92-1.48-3.04-2.44-6.12-3.04-9.2Z"/></g><g><path d="M151.74,208.99c.3,1.73,.29,3.6,.98,5.17,1.65,3.73,3.61,7.32,5.49,10.94,1.22,2.35,2.48,4.67,3.77,6.98,.84,1.5,.49,2.66-.65,3.87-4.76,4.99-10.52,8.53-17.3,9.19-17.6,1.74-32-4.16-42.03-19.25-.43-.65-.75-1.37-.9-1.65,3.54-1.65,7.3-2.78,10.32-4.94,8.05-5.75,10.57-13.95,8.42-23.39-1.92-8.43-4.6-16.69-6.62-25.11-2.36-9.88-3.37-19.93-2.23-30.09,.15-1.37,.45-2.71,.68-4.07l-.81-.22c-.32,1.05-.78,2.09-.93,3.16-1.24,9.25-.62,18.46,1.3,27.52,1.54,7.29,3.98,14.38,5.65,21.64,1.1,4.81,2.21,9.78,2.15,14.67-.12,11.26-11.22,20.22-22.37,18.63-2.45-.35-4.89-.79-7.72-1.25,.94-1.07,1.71-1.82,2.34-2.69,2.8-3.9,3.08-8.21,1.67-12.63-.92-2.9-2.05-5.75-3.32-8.51-3.43-7.45-4.76-15.11-2.81-23.19,.13-.55,.07-1.15,.1-1.73l-.64-.19c-.34,.8-.78,1.57-.99,2.41-1.88,7.48-.56,14.63,2.29,21.63,1.48,3.63,3.02,7.26,4.21,10.99,.95,2.97,.72,6.06-.79,8.89-1.55,2.9-3.69,4.66-7.33,4.25-2.19-.25-4.47,.14-6.69,.35-.69,.07-1.35,.5-2.69,1.01,1.05,.3,1.36,.5,1.58,.43,4.97-1.52,9.85-.48,14.75,.45,2.28,.43,4.58,.88,6.9,1.02,1.5,.09,2.23,.71,2.96,1.92,9.21,15.35,26.59,23.61,44.3,20.83,6.31-.99,11.79-4.07,16.43-8.5,.56-.53,.89-1.31,1.32-1.97l.83,.41c.25,1.53,.67,3.06,.72,4.6,.51,13.79,.94,27.59,1.41,41.38,.45,13.39,.6,26.8,1.48,40.16,.57,8.7,1.91,17.4,5.15,25.62,2.84,7.21,8.03,12.37,14.95,15.61,7.47,3.5,16.52-.12,18.67-7.58-.4,.46-.83,.89-1.2,1.37-5.71,7.47-12.73,8.64-20.58,3.44-7.39-4.89-11.37-11.95-13.23-20.45-2.32-10.62-3.52-21.36-3.8-32.22-.51-20.38-1.13-40.75-1.45-61.13-.13-8.45-2.2-16.1-6.91-23.14-2.9-4.33-5.49-8.9-5.82-14.33,0-.15-.3-.29-.47-.44l-.53,.12Z"/><path class="e" d="M193.1,364.95c-2.1,0-4.2-.46-6.15-1.37-7.22-3.38-12.29-8.68-15.08-15.75-2.85-7.22-4.49-15.39-5.17-25.7-.62-9.46-.88-19.09-1.14-28.41-.11-3.92-.21-7.84-.35-11.76-.13-3.98-.27-7.96-.4-11.94-.32-9.65-.65-19.63-1.01-29.44-.04-1.03-.25-2.09-.45-3.11-.09-.45-.18-.89-.25-1.34l-.52-.25c-.09,.15-.18,.3-.27,.45-.28,.48-.57,.99-.97,1.38-4.95,4.73-10.53,7.61-16.56,8.56-17.76,2.79-35.25-5.43-44.56-20.94-.66-1.1-1.29-1.71-2.76-1.8-2.23-.13-4.47-.56-6.64-.97l-.93-.18c-4.57-.87-9.29-1.78-13.99-.34-.21,.06-.42,0-.79-.14-.22-.08-.52-.18-.93-.3l-.72-.2,.69-.27c.47-.18,.86-.35,1.19-.5,.62-.28,1.08-.48,1.56-.53,.47-.04,.95-.1,1.43-.15,1.75-.2,3.57-.4,5.32-.2,3.18,.35,5.37-.91,7.08-4.12,1.45-2.72,1.72-5.73,.77-8.7-1.02-3.21-2.33-6.39-3.59-9.47l-.61-1.5c-3.28-8.04-4.01-14.97-2.3-21.78,.15-.59,.41-1.15,.67-1.7,.12-.25,.23-.49,.34-.74l.09-.21,1.04,.3v.2c-.02,.18-.02,.36-.02,.54,0,.41,0,.83-.1,1.24-1.8,7.5-.89,15.03,2.79,23.03,1.32,2.87,2.44,5.74,3.33,8.54,1.54,4.81,.96,9.14-1.7,12.85-.42,.59-.91,1.12-1.47,1.73-.19,.2-.38,.42-.58,.64,.76,.12,1.49,.25,2.2,.37,1.76,.3,3.42,.58,5.07,.81,5.43,.77,11.06-.95,15.45-4.72,4.17-3.58,6.58-8.56,6.64-13.67,.05-5.02-1.17-10.34-2.15-14.61-.77-3.36-1.72-6.73-2.64-10-1.07-3.8-2.18-7.72-3.01-11.64-2.03-9.6-2.47-18.89-1.3-27.6,.1-.76,.36-1.5,.61-2.21,.11-.33,.23-.66,.33-.99l.07-.23,1.26,.34-.04,.22c-.07,.43-.15,.86-.23,1.29-.17,.91-.34,1.84-.44,2.77-1.06,9.5-.33,19.31,2.23,30.01,.94,3.94,2.05,7.92,3.12,11.76,1.22,4.36,2.47,8.87,3.49,13.35,2.25,9.88-.69,18.06-8.51,23.65-2.09,1.5-4.47,2.47-6.99,3.51-1.03,.43-2.1,.87-3.14,1.34l.03,.06c.17,.34,.43,.86,.74,1.33,9.63,14.49,23.7,20.93,41.8,19.14,6.19-.61,11.96-3.68,17.15-9.12,1.17-1.23,1.35-2.26,.62-3.57-1.41-2.52-2.65-4.81-3.78-6.98-.39-.75-.79-1.51-1.18-2.26-1.48-2.82-3-5.73-4.31-8.69-.49-1.11-.63-2.37-.77-3.59-.06-.54-.13-1.1-.22-1.64l-.04-.23,.84-.19,.15,.07s.1,.08,.16,.12c.18,.12,.38,.26,.39,.49,.31,5.09,2.53,9.36,5.77,14.21,4.54,6.78,6.81,14.39,6.95,23.27,.23,15.2,.64,30.65,1.04,45.59,.14,5.18,.27,10.36,.41,15.54,.28,11.12,1.56,21.94,3.79,32.17,2,9.14,6.29,15.78,13.12,20.3,7.79,5.15,14.6,4.01,20.25-3.39,.26-.33,.54-.65,.82-.95,.13-.14,.26-.29,.39-.43l.74-.84-.31,1.07c-.98,3.42-3.51,6.28-6.94,7.83-1.88,.86-3.9,1.28-5.93,1.28Zm-30.68-129.71l1.15,.56,.02,.13c.08,.48,.17,.96,.27,1.45,.21,1.04,.42,2.11,.46,3.19,.36,9.81,.69,19.79,1.01,29.45,.13,3.98,.26,7.96,.4,11.94,.13,3.92,.24,7.84,.35,11.77,.25,9.31,.51,18.94,1.13,28.39,.67,10.25,2.3,18.37,5.13,25.55,2.74,6.94,7.73,12.15,14.83,15.48,3.71,1.74,7.96,1.77,11.66,.09,2.95-1.34,5.14-3.57,6.27-6.36-.12,.14-.25,.29-.36,.44-5.76,7.54-12.99,8.75-20.92,3.5-6.95-4.6-11.31-11.34-13.34-20.61-2.24-10.26-3.52-21.11-3.8-32.27-.13-5.18-.27-10.36-.41-15.54-.4-14.94-.81-30.39-1.04-45.6-.14-8.78-2.38-16.31-6.87-23-2.85-4.25-5.53-8.94-5.86-14.45,0,.02-.11-.07-.18-.11-.03-.02-.07-.05-.1-.07l-.19,.04c.08,.48,.13,.96,.19,1.43,.14,1.18,.28,2.4,.73,3.44,1.3,2.94,2.83,5.85,4.3,8.66,.4,.75,.79,1.51,1.18,2.26,1.13,2.17,2.36,4.45,3.77,6.97,.84,1.5,.62,2.78-.69,4.16-5.27,5.53-11.14,8.65-17.46,9.27-18.3,1.8-32.52-4.71-42.26-19.36-.33-.5-.6-1.03-.77-1.39-.06-.12-.1-.21-.14-.28l-.13-.23,.24-.11c1.12-.52,2.28-1,3.4-1.46,2.49-1.03,4.84-1.99,6.88-3.45,7.65-5.47,10.52-13.46,8.32-23.13-1.02-4.47-2.27-8.98-3.49-13.33-1.07-3.85-2.18-7.83-3.13-11.78-2.57-10.75-3.3-20.63-2.24-30.18,.1-.94,.28-1.89,.45-2.8,.07-.35,.13-.71,.19-1.06l-.36-.1c-.08,.26-.17,.52-.26,.77-.24,.69-.49,1.41-.58,2.12-1.16,8.66-.73,17.89,1.29,27.43,.83,3.9,1.93,7.82,3,11.61,.92,3.27,1.88,6.66,2.65,10.03,.99,4.3,2.21,9.64,2.16,14.73-.05,5.25-2.54,10.38-6.81,14.05-4.5,3.86-10.27,5.63-15.85,4.83-1.66-.23-3.32-.51-5.08-.81-.85-.14-1.73-.29-2.65-.44l-.44-.07,.3-.34c.31-.36,.61-.68,.89-.99,.55-.6,1.03-1.12,1.43-1.68,2.57-3.58,3.12-7.75,1.63-12.41-.89-2.78-2-5.63-3.31-8.48-3.73-8.11-4.66-15.75-2.83-23.35,.08-.35,.08-.72,.09-1.12,0-.12,0-.25,0-.37l-.24-.07c-.08,.19-.17,.37-.26,.56-.25,.55-.5,1.06-.63,1.61-1.68,6.71-.96,13.53,2.28,21.47l.61,1.5c1.27,3.09,2.58,6.28,3.6,9.51,.99,3.1,.71,6.24-.81,9.09-1.8,3.37-4.2,4.77-7.58,4.38-1.7-.19-3.48,0-5.21,.2-.48,.05-.96,.11-1.43,.15-.41,.04-.83,.23-1.41,.48-.17,.08-.36,.16-.56,.25,.11,.04,.2,.07,.28,.1,.23,.08,.43,.15,.48,.13,4.81-1.47,9.6-.56,14.23,.32l.93,.18c2.15,.41,4.38,.83,6.58,.96,1.67,.1,2.44,.85,3.16,2.04,9.21,15.34,26.5,23.47,44.05,20.71,5.93-.93,11.41-3.77,16.29-8.43,.36-.34,.61-.79,.89-1.26,.13-.23,.26-.45,.4-.66l.12-.19Z"/></g><g><path d="M149.73,90c-.85-1.01-1.25-1.73-1.85-2.17-3.76-2.76-8.98-1.69-11.96,2.66-1.67,2.44-2.93,5.15-4.31,7.78-3.56,6.82-6.79,13.83-10.73,20.42-2.57,4.3-6.21,7.95-9.3,11.95-1.37,1.77-2.64,3.64-3.82,5.55-4.67,7.6-6.25,15.7-3.9,24.45,.74,2.78,1.5,5.64,1.65,8.49,.2,3.74-.2,7.51-.35,11.72,.54-.93,1.19-1.71,1.47-2.6,1.29-4.13,.64-8.27-.13-12.38-.52-2.76-1.09-5.51-1.7-8.25-1.57-7.15-.01-13.81,3.78-19.83,3.19-5.07,6.86-9.87,10.58-14.59,4.62-5.85,8.03-12.35,11.14-19.06,1.86-4,3.69-8.03,5.91-11.82,3.15-5.41,6.95-6.07,12.17-2.55,.17,.11,.43,.08,1.35,.23Z"/><path class="e" d="M104.86,181.84l.04-1c.05-1.3,.12-2.55,.19-3.78,.15-2.75,.3-5.35,.16-7.92-.15-2.87-.94-5.83-1.64-8.44-2.26-8.44-.93-16.73,3.93-24.65,1.21-1.97,2.5-3.84,3.83-5.57,1.06-1.38,2.21-2.73,3.32-4.05,2.11-2.49,4.29-5.07,5.97-7.88,2.68-4.47,5.07-9.23,7.38-13.83,1.08-2.16,2.21-4.4,3.35-6.58,.3-.57,.59-1.15,.89-1.72,1.04-2.05,2.12-4.16,3.43-6.08,1.56-2.28,3.76-3.76,6.21-4.18,2.16-.37,4.33,.15,6.11,1.45,.42,.31,.74,.73,1.15,1.26,.21,.28,.45,.6,.75,.95l.43,.51-.66-.11c-.37-.06-.63-.09-.82-.11-.32-.04-.49-.06-.64-.16-2.65-1.79-4.88-2.45-6.8-2.01-1.86,.43-3.5,1.89-5.01,4.47-2.06,3.54-3.82,7.33-5.53,11.01l-.37,.8c-2.76,5.95-6.25,12.87-11.17,19.11-4.16,5.27-7.54,9.76-10.57,14.56-3.96,6.3-5.22,12.9-3.74,19.64,.72,3.29,1.25,5.84,1.7,8.26,.82,4.42,1.4,8.41,.12,12.5-.2,.64-.57,1.2-.96,1.79-.18,.27-.36,.56-.54,.85l-.5,.87Zm38.41-95.29c-.42,0-.85,.04-1.28,.11-2.31,.39-4.4,1.8-5.88,3.97-1.29,1.89-2.37,3.99-3.4,6.02-.29,.58-.59,1.15-.89,1.73-1.14,2.18-2.26,4.41-3.34,6.57-2.31,4.61-4.71,9.37-7.4,13.86-1.7,2.84-3.89,5.43-6.01,7.94-1.1,1.31-2.25,2.66-3.31,4.03-1.32,1.71-2.6,3.57-3.8,5.52-4.86,7.91-6.12,15.84-3.87,24.26,.7,2.63,1.5,5.62,1.66,8.54,.14,2.6,0,5.21-.16,7.98-.05,.92-.1,1.87-.15,2.83l.05-.07c.37-.57,.72-1.1,.9-1.67,1.25-3.98,.67-7.91-.14-12.26-.45-2.42-.97-4.96-1.69-8.24-1.51-6.87-.23-13.61,3.81-20.02,3.04-4.82,6.43-9.33,10.6-14.61,4.89-6.2,8.36-13.09,11.11-19.01l.37-.8c1.71-3.68,3.47-7.49,5.55-11.05,1.58-2.71,3.33-4.25,5.33-4.71,2.07-.47,4.42,.21,7.19,2.08,.05,.03,.19,.05,.41,.08,.06,0,.13,.02,.21,.02-.13-.17-.25-.32-.36-.47-.4-.52-.68-.9-1.05-1.16-1.32-.97-2.86-1.47-4.45-1.47Z"/></g><g><path d="M162.03,96.96c3.95,7.29,5.08,15.38,6.59,23.81,1.94-3.91-3.12-21.85-6.59-23.81Z"/><path class="e" d="M168.51,121.55l-.13-.75c-.14-.79-.28-1.59-.42-2.37-1.33-7.6-2.59-14.79-6.14-21.36l-.41-.76,.76,.43c3.68,2.08,8.68,20.12,6.69,24.13l-.34,.68Zm-5.59-23.43c3.09,6.28,4.28,13.07,5.53,20.22,.08,.45,.16,.9,.24,1.35,.82-4.63-2.72-17.67-5.77-21.57Z"/></g><g><path d="M149.32,123.35c-2.01,3.23-1.71,6.48-.36,9.71,.35,.85,.93,1.62,1.47,2.37,3.85,5.4,3.8,5.99-1.05,10.02,3.16,.43,5.83-3.07,4.81-6.39-.21-.68-.53-1.39-.99-1.92-3.41-3.99-5.2-8.4-3.89-13.8Z"/><path class="e" d="M149.92,145.75c-.19,0-.38-.01-.57-.04l-.56-.08,.44-.36c4.73-3.94,4.77-4.39,1-9.69l-.15-.21c-.5-.7-1.01-1.41-1.34-2.21-1.57-3.76-1.44-7.02,.38-9.94l.82-1.32-.37,1.51c-1.18,4.83,.04,9.15,3.83,13.58,.54,.63,.86,1.44,1.03,2.01,.53,1.72,.12,3.67-1.07,5.06-.93,1.09-2.16,1.68-3.44,1.68Zm-1.17-20.75c-.97,2.39-.82,4.96,.43,7.97,.31,.74,.81,1.44,1.29,2.11l.15,.21c3.78,5.3,3.83,6.2-.6,9.95,1.1-.03,2.15-.56,2.95-1.51,1.08-1.27,1.45-3.03,.97-4.59-.23-.76-.56-1.39-.94-1.83-3.46-4.04-4.83-7.99-4.26-12.31Z"/></g><g><path d="M159.46,88.39c-2.04-1.89-4.34-1.46-6.98,1.75,2.59-.65,4.71-1.18,6.98-1.75Z"/><path class="e" d="M151.81,90.58l.48-.59c1.56-1.9,3-2.86,4.42-2.96,1.01-.08,2,.33,2.92,1.18l.34,.31-8.16,2.05Zm5.13-3.05c-.07,0-.13,0-.2,0-1.1,.08-2.3,.81-3.56,2.19l5.74-1.44c-.65-.5-1.3-.75-1.99-.75Z"/></g><g><path d="M162.31,92.97c-1.27-2.42-4.3-3.1-6.76-1.56,2.33,.54,4.43,1.02,6.76,1.56Z"/><path class="e" d="M162.79,93.34l-7.88-1.82,.51-.32c1.29-.81,2.82-1.06,4.19-.69,1.27,.34,2.3,1.17,2.92,2.35l.25,.48Zm-6.54-2.02l5.54,1.28c-.56-.79-1.36-1.35-2.3-1.6-1.04-.28-2.19-.16-3.23,.32Z"/></g><g><path d="M132.21,124.82c.76,0,1.42,.65,1.79,1.62l-1.11,1.8,1.3,1.17c-.3,1.32-1.07,2.26-1.98,2.26-1.17,0-2.1-1.21-2.1-3.01,0-1.89,.27-3.84,2.1-3.84Z"/><path class="e" d="M132.21,131.92c-1.36,0-2.35-1.37-2.35-3.26s.27-4.09,2.35-4.09c.84,0,1.6,.67,2.03,1.78l.04,.12-1.07,1.73,1.25,1.12-.03,.14c-.33,1.49-1.21,2.46-2.23,2.46Zm0-6.85c-1.3,0-1.85,1.07-1.85,3.59,0,1.6,.78,2.76,1.85,2.76,.73,0,1.41-.77,1.7-1.92l-1.34-1.2,1.15-1.87c-.36-.85-.92-1.35-1.51-1.35Z"/></g><g><path d="M158.77,124.82c.76,0,1.42,.65,1.79,1.62l-1.11,1.8,1.3,1.17c-.3,1.32-1.07,2.26-1.98,2.26-1.17,0-2.1-1.21-2.1-3.01,0-1.89,.27-3.84,2.1-3.84Z"/><path class="e" d="M158.77,131.92c-1.36,0-2.35-1.37-2.35-3.26s.27-4.09,2.35-4.09c.84,0,1.6,.67,2.03,1.78l.04,.12-1.07,1.73,1.25,1.12-.03,.14c-.33,1.49-1.21,2.46-2.23,2.46Zm0-6.85c-1.3,0-1.85,1.07-1.85,3.59,0,1.6,.78,2.76,1.85,2.76,.73,0,1.41-.77,1.7-1.92l-1.34-1.2,1.15-1.87c-.36-.85-.92-1.35-1.51-1.35Z"/></g><path d="M144.59,155.62l-.34-.94,.47-.17c.21-.07,5.08-1.82,7.76-1.82h.5v1h-.5c-2.5,0-7.37,1.74-7.42,1.76l-.47,.17Z"/><path d="M127.02,116.3c2.86-1.65,5.84-2.56,8.94-3.64-2.37,2.27-5.71,3.31-8.94,3.64h0Z"/><path d="M154.41,113.49c2.38-1.52,6.67-1.3,7.62,1.79-2.03-2-4.99-1.82-7.62-1.79h0Z"/></g><rect x="72.31" y="220.83" width="5.54" height="2" transform="translate(-71.09 38.85) rotate(-19.92)"/><path class="d" d="M193.66,265.91c.78,.15,1.56,.31,2.35,.47,8.32,1.73,16.67,2.22,25.11,.83,4.29-.7,7.74-2.07,7.86-7.22,0-.39,.21-.77,.3-1.16,1.93-7.75,3.09-15.58,2.16-23.6-.61-5.28-2.17-10.26-6.76-13.29-2.94-1.95-6.41-3.42-9.84-4.24-8.65-2.06-17.44-3.57-26.14-5.41-3.72-.79-7.38-1.88-11.25-2.88,.04,.71-.03,1.27,.11,1.79,1.51,5.89,3.03,11.78,4.58,17.65,.64,2.4,1.5,4.74,2.04,7.16,2.17,9.66,4.23,19.34,6.4,29,.63,.55,1.93,1,3.21,1.34-.12-.1-.22-.19-.31-.29,.06-.05,.14-.15,.19-.14Z"/><g><path class="d" d="M187.05,363.35c-6.93-3.24-12.11-8.4-14.95-15.61-3.24-8.22-4.58-16.92-5.15-25.62-.88-13.36-1.03-26.77-1.48-40.16-.47-13.79-.9-27.59-1.41-41.38-.06-1.54-.47-3.07-.72-4.6l-.83-.41c-.43,.66-.76,1.44-1.32,1.97-4.64,4.43-10.11,7.5-16.43,8.5-17.72,2.79-35.09-5.47-44.3-20.83-.72-1.2-1.46-1.83-2.96-1.92-2.31-.13-4.61-.58-6.9-1.02-2.86-.54-5.72-1.12-8.59-1.21-2.3,.21-4.42,.46-6.16,.76-.81,.14-1.68,.36-2.58,.63l.07,.2c-.07,.13-.11,.34-.22,.39-1.23,.59-2.46,1.17-3.7,1.73-9.29,4.14-15.54,10.84-16.79,21.2-.84,6.99-.96,14.07-1.55,21.1-.18,2.15,.45,3.16,2.57,3.74,8.66,2.39,17.43,2.52,26.26,1.58,.53-.06,1.25-1.22,1.35-1.94,.21-1.46,.06-2.97,.06-4.45h.9c0,2.03,.16,4.08-.03,6.08-.86,9.1-1.88,18.18-2.74,27.28-.88,9.27-.83,18.41,3.38,27.1,1.21,2.5,2.11,5.26,2.55,7.99,1.46,9.04,1.32,18.14,.36,27.23,16.2,1.26,33.81,2.33,49.77,2.65,20.24,.4,38.4-.02,52.4-.62-.29-.11-.57-.23-.86-.36Z"/><path class="d" d="M75.85,221.81c1.74-.3,3.86-.55,6.16-.76-2.04-.06-4.09,.12-6.16,.76Z"/></g></g><g><path class="f" d="M249.94,88.75c0-.37,.07-.61,.22-.74,.15-.12,.39-.18,.74-.18h31.05c.34,0,.59,.06,.74,.18,.15,.12,.22,.37,.22,.74v4.3c0,.37-.07,.61-.22,.74-.15,.12-.39,.18-.74,.18h-31.05c-.34,0-.59-.06-.74-.18-.15-.12-.22-.37-.22-.74v-4.3Zm23.25-20.94c0-.59-.12-.99-.35-1.21s-.57-.33-1.01-.33h-18.32c-.34,0-.59-.06-.74-.18-.15-.12-.22-.37-.22-.74v-4.3c0-.37,.07-.61,.22-.74,.15-.12,.39-.18,.74-.18h22.78c1.33,0,2.32,.34,2.98,1.03,.66,.69,.99,1.8,.99,3.35,0,1.67-.03,3.38-.09,5.15s-.15,3.53-.28,5.28c-.12,1.75-.27,3.46-.44,5.13s-.37,3.24-.59,4.71c-.05,.37-.15,.62-.29,.75-.15,.13-.43,.18-.85,.13l-4.97-.55c-.34-.05-.6-.16-.77-.33-.17-.17-.22-.47-.15-.88,.2-1.13,.37-2.35,.53-3.68,.16-1.32,.3-2.69,.42-4.08,.12-1.4,.22-2.8,.29-4.21,.07-1.41,.11-2.78,.11-4.1Z"/><path class="f" d="M314.55,60.13c.34,0,.59,.06,.74,.18,.15,.12,.22,.37,.22,.74v3.42c0,.37-.07,.61-.22,.74-.15,.12-.39,.18-.74,.18h-20.27v1.4c0,.49,.1,.79,.29,.9,.2,.11,.65,.15,1.36,.13,1.47-.02,2.99-.06,4.56-.09,1.57-.04,3.15-.09,4.73-.15,1.58-.06,3.15-.13,4.71-.22,1.56-.09,3.06-.19,4.51-.31,.34-.05,.58,0,.7,.15,.12,.15,.21,.4,.26,.77l.33,3.39c.05,.37-.01,.61-.18,.72s-.43,.18-.77,.2c-1.57,.12-3.18,.24-4.82,.35-1.64,.11-3.32,.2-5.04,.28v1.73h12c.34,0,.59,.06,.74,.18,.15,.12,.22,.37,.22,.74v4.3c0,.37-.07,.61-.22,.74-.15,.12-.39,.18-.74,.18h-31.05c-.34,0-.59-.06-.74-.18-.15-.12-.22-.37-.22-.74v-4.3c0-.37,.07-.61,.22-.74,.15-.12,.39-.18,.74-.18h12v-1.47c-.86,.02-1.72,.04-2.58,.04h-2.58c-1.96,0-3.37-.4-4.21-1.2-.85-.8-1.27-2.16-1.27-4.1v-6.84c0-.37,.07-.61,.22-.74,.15-.12,.39-.18,.74-.18h26.38Zm-13.17,36.13c-4.78,0-8.37-.61-10.74-1.84-2.38-1.23-3.57-3.04-3.57-5.45s1.21-4.21,3.62-5.43c2.42-1.21,5.98-1.82,10.69-1.82s8.27,.61,10.69,1.82c2.42,1.21,3.62,3.02,3.62,5.43s-1.19,4.22-3.57,5.45c-2.38,1.23-5.96,1.84-10.74,1.84Zm0-5.59c1.47,0,2.67-.03,3.61-.09,.93-.06,1.67-.16,2.21-.29,.54-.13,.91-.31,1.12-.53,.21-.22,.31-.49,.31-.81,0-.29-.1-.55-.31-.77-.21-.22-.58-.4-1.12-.53-.54-.13-1.28-.24-2.21-.31-.93-.07-2.13-.11-3.61-.11s-2.67,.04-3.61,.11c-.93,.07-1.67,.18-2.21,.31-.54,.13-.91,.31-1.12,.53-.21,.22-.31,.48-.31,.77,0,.32,.1,.59,.31,.81,.21,.22,.58,.4,1.12,.53,.54,.13,1.28,.23,2.21,.29,.93,.06,2.13,.09,3.61,.09Z"/><path class="f" d="M330.7,59.94c2.13,0,3.89,.33,5.28,.98s2.49,1.47,3.31,2.46c.82,.99,1.39,2.09,1.71,3.29,.32,1.2,.48,2.35,.48,3.46s-.16,2.26-.48,3.48c-.32,1.21-.88,2.32-1.69,3.31-.81,.99-1.91,1.82-3.29,2.46-1.39,.65-3.16,.98-5.32,.98s-3.93-.32-5.32-.98c-1.39-.65-2.48-1.47-3.29-2.46-.81-.99-1.37-2.1-1.69-3.31-.32-1.21-.48-2.37-.48-3.48s.16-2.26,.48-3.46c.32-1.2,.89-2.3,1.71-3.29,.82-.99,1.92-1.81,3.31-2.46,1.38-.65,3.15-.98,5.28-.98Zm21.19,33.11c.05,.37-.01,.6-.18,.7-.17,.1-.43,.17-.77,.22-1.69,.17-3.45,.33-5.28,.46-1.83,.13-3.66,.25-5.48,.35-1.83,.1-3.63,.17-5.41,.22-1.78,.05-3.45,.07-5.02,.07-2.36,0-4.04-.63-5.06-1.9-1.02-1.26-1.53-3.28-1.53-6.05v-4.05c0-.37,.07-.61,.22-.74,.15-.12,.39-.18,.74-.18h5.15c.34,0,.59,.06,.74,.18,.15,.12,.22,.37,.22,.74v3.35c0,.88,.18,1.53,.55,1.95,.37,.42,1.04,.61,2.02,.59,1.32-.02,2.73-.07,4.21-.13,1.48-.06,2.99-.13,4.51-.22,1.52-.09,3.05-.2,4.58-.33,1.53-.13,3.02-.28,4.47-.42,.34-.05,.58,0,.7,.15,.12,.15,.21,.4,.26,.77l.37,4.27Zm-21.19-18.69c1.25,0,2.23-.39,2.93-1.18,.7-.78,1.05-1.81,1.05-3.09s-.35-2.27-1.05-3.05c-.7-.78-1.67-1.18-2.93-1.18s-2.23,.39-2.92,1.18c-.7,.79-1.05,1.8-1.05,3.05s.35,2.31,1.05,3.09c.7,.79,1.67,1.18,2.92,1.18Zm24.65-.74c0,.37-.07,.61-.22,.74-.15,.12-.39,.18-.74,.18h-3.38v8.94c0,.37-.07,.61-.22,.74s-.39,.18-.74,.18h-5.15c-.34,0-.59-.06-.74-.18s-.22-.37-.22-.74v-22.44c0-.37,.07-.61,.22-.74,.15-.12,.39-.18,.74-.18h5.15c.34,0,.59,.06,.74,.18,.15,.12,.22,.37,.22,.74v7.4h3.38c.34,0,.59,.06,.74,.18,.15,.12,.22,.37,.22,.74v4.27Z"/><path class="f" d="M284.89,135.25c0-.37,.07-.61,.22-.74,.15-.12,.39-.18,.74-.18h4.12v-4.67c-.93-.44-1.71-1.05-2.34-1.84-.62-.79-1.12-1.69-1.49-2.7-.37-1.02-.63-2.1-.77-3.26-.15-1.15-.22-2.32-.22-3.5,0-1.5,.12-2.97,.37-4.43,.25-1.46,.68-2.75,1.31-3.88,.62-1.13,1.47-2.04,2.54-2.74,1.07-.7,2.42-1.05,4.07-1.05s3,.35,4.07,1.05c1.07,.7,1.91,1.61,2.54,2.74,.62,1.13,1.06,2.42,1.31,3.88,.25,1.46,.37,2.94,.37,4.43,0,1.15-.07,2.3-.22,3.44s-.4,2.21-.75,3.22-.83,1.9-1.43,2.69c-.6,.79-1.36,1.41-2.26,1.88v4.75h3.83c.34,0,.59,.06,.74,.18,.15,.12,.22,.37,.22,.74v4.3c0,.37-.07,.61-.22,.74-.15,.12-.39,.18-.74,.18h-15.01c-.34,0-.59-.06-.74-.18-.15-.12-.22-.37-.22-.74v-4.3Zm8.54-10.89c.59,0,1.01-.45,1.27-1.34,.26-.9,.39-2.47,.39-4.73s-.13-3.87-.39-4.76c-.26-.9-.68-1.34-1.27-1.34s-1.01,.45-1.27,1.34c-.26,.9-.39,2.48-.39,4.76s.13,3.83,.39,4.73c.26,.9,.68,1.34,1.27,1.34Zm10.45,16.48c-.34,0-.59-.06-.74-.18-.15-.12-.22-.37-.22-.74v-32.38c0-.37,.07-.61,.22-.74,.15-.12,.39-.18,.74-.18h4.6c.34,0,.59,.06,.74,.18,.15,.12,.22,.37,.22,.74v12.36h1.62v-12.36c0-.37,.07-.61,.22-.74,.15-.12,.39-.18,.74-.18h4.6c.34,0,.59,.06,.74,.18,.15,.12,.22,.37,.22,.74v32.38c0,.37-.07,.61-.22,.74-.15,.12-.39,.18-.74,.18h-4.6c-.34,0-.59-.06-.74-.18-.15-.12-.22-.37-.22-.74v-14.42h-1.62v14.42c0,.37-.07,.61-.22,.74-.15,.12-.39,.18-.74,.18h-4.6Z"/><path class="f" d="M229.66,171.15c-2.16,0-3.93-.28-5.32-.85-1.39-.56-2.48-1.29-3.29-2.17-.81-.88-1.37-1.86-1.69-2.94-.32-1.08-.48-2.13-.48-3.16s.16-2.08,.48-3.15c.32-1.07,.89-2.04,1.71-2.93,.82-.88,1.92-1.61,3.31-2.17,1.38-.56,3.15-.85,5.28-.85,1.59,0,2.98,.16,4.16,.48,1.18,.32,2.18,.75,3,1.31,.82,.55,1.48,1.18,1.99,1.89,.5,.71,.89,1.46,1.16,2.24h3.79v-4.82c0-.37,.07-.61,.22-.74,.15-.12,.39-.18,.74-.18h5.15c.34,0,.59,.06,.74,.18,.15,.12,.22,.37,.22,.74v16.19c0,.37-.07,.61-.22,.74-.15,.12-.39,.18-.74,.18h-5.15c-.34,0-.59-.06-.74-.18-.15-.12-.22-.37-.22-.74v-5.26h-3.75c-.25,.81-.61,1.59-1.1,2.34-.49,.75-1.15,1.4-1.97,1.97-.82,.56-1.83,1.02-3.02,1.36-1.19,.34-2.61,.52-4.25,.52Zm6.7,12.55c0,1.54-.33,2.66-.99,3.35-.66,.69-1.66,1.03-2.98,1.03h-7.47c-1.32,0-2.32-.34-2.98-1.03-.66-.69-.99-1.8-.99-3.35v-10.15c0-.37,.07-.61,.22-.74,.15-.12,.39-.18,.74-.18h4.23c.34,0,.59,.06,.74,.18,.15,.12,.22,.37,.22,.74v1.84h3.13v-1.84c0-.37,.07-.61,.22-.74,.15-.12,.39-.18,.74-.18h4.23c.34,0,.59,.06,.74,.18,.15,.12,.22,.37,.22,.74v10.15Zm-6.7-18.54c.44,0,.9-.04,1.36-.13s.9-.25,1.29-.5c.39-.24,.71-.57,.96-.97,.24-.4,.37-.93,.37-1.56s-.12-1.12-.37-1.53c-.25-.4-.57-.73-.96-.98-.39-.25-.82-.41-1.29-.5s-.92-.13-1.36-.13-.9,.04-1.36,.13-.9,.25-1.29,.5c-.39,.25-.71,.57-.96,.98s-.37,.91-.37,1.53,.12,1.16,.37,1.56c.25,.4,.56,.73,.96,.97,.39,.25,.82,.41,1.29,.5s.92,.13,1.36,.13Zm-.51,17.88c.42,0,.7-.08,.85-.24,.15-.16,.22-.47,.22-.94v-1.62h-3.13v1.62c0,.47,.07,.78,.22,.94,.15,.16,.43,.24,.85,.24h.99Zm18.62-10.41c.37,0,.61,.09,.72,.26,.11,.17,.17,.39,.17,.66,0,1.5,.07,2.76,.22,3.79,.15,1.03,.37,1.88,.66,2.54,.29,.66,.68,1.17,1.16,1.51,.48,.34,1.07,.58,1.78,.7,.07,.03,.17,.04,.29,.06s.24,.06,.35,.13,.2,.18,.28,.33c.07,.15,.11,.36,.11,.62v3.79c0,.27-.04,.48-.13,.62s-.2,.26-.33,.33c-.13,.07-.27,.11-.4,.11h-.35c-.76-.05-1.5-.19-2.21-.42-.71-.23-1.37-.53-1.97-.9-.6-.37-1.13-.8-1.6-1.29-.47-.49-.82-1.02-1.07-1.58-.27,.56-.63,1.09-1.09,1.58-.45,.49-.98,.92-1.58,1.29-.6,.37-1.26,.67-1.97,.9-.71,.23-1.45,.38-2.21,.42h-.35c-.14,0-.27-.04-.41-.11-.13-.07-.25-.18-.33-.33s-.13-.36-.13-.62v-3.79c0-.27,.04-.48,.11-.62,.07-.15,.17-.26,.28-.33s.23-.12,.35-.13c.12-.01,.22-.03,.29-.06,.69-.12,1.28-.36,1.77-.7,.49-.34,.88-.85,1.18-1.51,.29-.66,.51-1.51,.66-2.54,.15-1.03,.22-2.29,.22-3.79,0-.27,.05-.49,.17-.66,.11-.17,.35-.26,.72-.26h4.64Z"/><path class="f" d="M266.46,152.94c1.55,0,2.89,.17,4.05,.5,1.15,.33,2.13,.77,2.94,1.31,.81,.54,1.47,1.17,1.99,1.9,.52,.72,.92,1.47,1.21,2.23h3.9v-4.82c0-.37,.07-.61,.22-.74,.15-.12,.39-.18,.74-.18h5.15c.34,0,.59,.06,.74,.18,.15,.12,.22,.37,.22,.74v17.07c0,.37-.07,.61-.22,.74-.15,.12-.39,.18-.74,.18h-5.15c-.34,0-.59-.06-.74-.18-.15-.12-.22-.37-.22-.74v-6.14h-3.61c-.22,.88-.56,1.74-1.03,2.56s-1.12,1.56-1.95,2.21c-.83,.65-1.86,1.17-3.09,1.56-1.23,.39-2.7,.59-4.42,.59-2.16,0-3.93-.3-5.32-.9-1.39-.6-2.48-1.37-3.29-2.3-.81-.93-1.37-1.96-1.69-3.07-.32-1.12-.48-2.19-.48-3.22s.16-2.1,.48-3.2c.32-1.1,.89-2.12,1.71-3.05,.82-.93,1.92-1.7,3.31-2.3,1.38-.6,3.15-.9,5.28-.9Zm13.39,30.94c-1.74,2.33-3.95,3.66-6.62,3.97-2.7-.32-4.91-1.64-6.62-3.97-.71,1.13-1.71,2.08-3,2.85-1.29,.77-2.88,1.22-4.76,1.34h-.35c-.13,0-.27-.04-.4-.11-.14-.07-.25-.18-.33-.33-.09-.15-.13-.36-.13-.62v-3.79c0-.27,.04-.48,.11-.62,.07-.15,.17-.26,.28-.33s.23-.12,.35-.15,.22-.04,.29-.04c1.77-.25,2.99-1,3.68-2.28,.69-1.27,1.04-3.04,1.07-5.3,0-.27,.06-.49,.17-.66,.11-.17,.35-.26,.72-.26h4.67c.37,0,.61,.09,.72,.26,.11,.17,.17,.39,.17,.66,.02,2.16,.3,3.88,.83,5.15s1.38,2,2.56,2.17c1.18-.17,2.04-.9,2.58-2.17,.54-1.28,.82-2.99,.85-5.15,0-.27,.05-.49,.17-.66,.11-.17,.35-.26,.72-.26h4.67c.37,0,.61,.09,.72,.26,.11,.17,.17,.39,.17,.66,.02,2.26,.38,4.02,1.07,5.3,.69,1.28,1.91,2.04,3.68,2.28,.07,0,.17,.01,.29,.04,.12,.02,.24,.07,.35,.15s.2,.18,.28,.33c.07,.15,.11,.36,.11,.62v3.79c0,.27-.04,.48-.13,.62-.09,.15-.2,.26-.33,.33-.14,.07-.27,.11-.41,.11h-.35c-1.91-.12-3.51-.57-4.8-1.34-1.29-.77-2.29-1.72-3-2.85Zm-13.39-17.99c.44,0,.9-.07,1.36-.2,.47-.13,.9-.34,1.29-.63,.39-.28,.71-.64,.96-1.09,.24-.44,.37-.98,.37-1.62s-.12-1.15-.37-1.6c-.25-.45-.57-.82-.96-1.09-.39-.27-.82-.47-1.29-.61-.47-.13-.92-.2-1.36-.2s-.9,.07-1.36,.2c-.47,.14-.9,.34-1.29,.61s-.71,.63-.96,1.09c-.25,.45-.37,.99-.37,1.6s.12,1.18,.37,1.62,.56,.8,.96,1.09c.39,.28,.82,.49,1.29,.63,.47,.14,.92,.2,1.36,.2Z"/><path class="f" d="M292.4,166.96c0-.37,.07-.61,.22-.74,.15-.12,.39-.18,.74-.18h31.05c.34,0,.59,.06,.74,.18,.15,.12,.22,.37,.22,.74v3.24c0,.37-.07,.61-.22,.74-.15,.12-.39,.18-.74,.18h-31.05c-.34,0-.59-.06-.74-.18-.15-.12-.22-.37-.22-.74v-3.24Zm16.48-2.06c-2.65,0-4.89-.12-6.71-.37-1.83-.24-3.3-.61-4.42-1.1-1.12-.49-1.93-1.12-2.43-1.9-.5-.77-.75-1.67-.75-2.7s.25-1.96,.75-2.72c.5-.76,1.32-1.39,2.46-1.88,1.14-.49,2.62-.86,4.43-1.1s4.04-.37,6.66-.37,4.84,.12,6.66,.37,3.29,.61,4.43,1.1c1.14,.49,1.96,1.12,2.47,1.88,.5,.76,.75,1.67,.75,2.72s-.25,1.93-.75,2.7c-.5,.77-1.31,1.4-2.43,1.9s-2.59,.86-4.42,1.1c-1.83,.25-4.07,.37-6.71,.37Zm14.57,21.64c.05,.29-.01,.48-.18,.55-.17,.07-.43,.13-.77,.19-1.69,.17-3.34,.3-4.93,.4-1.59,.1-3.23,.18-4.89,.24-1.67,.06-3.43,.1-5.28,.13-1.85,.03-3.89,.04-6.13,.04-1.13,0-2.11-.1-2.94-.29-.83-.2-1.52-.51-2.06-.96-.54-.44-.94-1.02-1.2-1.73s-.39-1.59-.39-2.65v-3.75c0-.34,.07-.58,.22-.7,.15-.12,.39-.18,.74-.18h21.01v-1.07h-21.01c-.64,0-.96-.36-.96-1.07v-2.24c0-.37,.07-.61,.22-.74,.15-.12,.39-.18,.74-.18h26.42c.34,0,.59,.06,.74,.18,.15,.12,.22,.37,.22,.74v7.69c0,.37-.07,.61-.22,.74-.15,.12-.39,.18-.74,.18h-21.01v.59c0,.39,.15,.63,.44,.72,.29,.09,.75,.13,1.36,.13,2.06,0,3.96-.01,5.68-.04,1.73-.02,3.37-.06,4.91-.11,1.54-.05,3.02-.11,4.43-.18,1.41-.07,2.84-.17,4.29-.29,.34-.03,.58,.02,.7,.13,.12,.11,.21,.3,.26,.57l.33,2.98Zm-14.57-26.75c1.57,0,2.83-.02,3.79-.06,.96-.04,1.7-.1,2.24-.18,.54-.09,.9-.19,1.08-.31,.18-.12,.28-.26,.28-.4s-.09-.28-.28-.4c-.18-.12-.55-.23-1.08-.31-.54-.09-1.29-.15-2.24-.18-.96-.04-2.22-.06-3.79-.06s-2.84,.02-3.81,.06c-.97,.04-1.72,.1-2.24,.18-.53,.09-.88,.19-1.07,.31-.18,.12-.28,.26-.28,.4s.09,.28,.28,.4c.18,.12,.54,.23,1.07,.31,.53,.09,1.28,.15,2.24,.18,.97,.04,2.24,.06,3.81,.06Z"/><path class="f" d="M326.54,154.05c0-.37,.07-.61,.22-.74,.15-.12,.39-.18,.74-.18h4.93c.93,0,1.73,.11,2.39,.33s1.2,.58,1.62,1.09c.42,.5,.72,1.15,.9,1.95,.18,.8,.28,1.77,.28,2.92,0,1.84-.05,3.79-.17,5.85-.11,2.06-.29,4.18-.53,6.35-.25,2.17-.55,4.37-.92,6.59-.37,2.22-.81,4.41-1.33,6.57-.1,.37-.2,.61-.29,.73-.1,.12-.32,.18-.66,.18l-4.86-1.07c-.17-.02-.33-.05-.46-.09s-.25-.1-.35-.2c-.1-.1-.15-.23-.17-.39-.01-.16,.02-.39,.09-.68,.52-1.86,.95-3.79,1.31-5.79,.35-2,.64-3.96,.86-5.87,.22-1.91,.38-3.74,.48-5.48,.1-1.74,.15-3.3,.15-4.67,0-.93-.16-1.53-.48-1.8-.32-.27-.8-.4-1.44-.4h-1.36c-.34,0-.59-.06-.74-.18-.15-.12-.22-.37-.22-.74v-4.27Zm11.92,0c0-.37,.07-.61,.22-.74,.15-.12,.39-.18,.74-.18h4.93c.93,0,1.73,.11,2.39,.33s1.21,.58,1.64,1.09c.43,.5,.74,1.15,.92,1.95,.18,.8,.26,1.77,.24,2.92-.03,1.67-.1,3.56-.22,5.67-.12,2.11-.3,4.32-.53,6.62-.23,2.31-.53,4.64-.88,7.01-.36,2.37-.79,4.63-1.31,6.79-.1,.37-.2,.61-.29,.74s-.32,.18-.66,.18l-4.86-1.07c-.17-.03-.33-.05-.46-.09-.14-.04-.25-.11-.35-.2-.1-.1-.15-.23-.17-.39-.01-.16,.02-.39,.09-.68,.52-1.87,.95-3.83,1.31-5.91,.36-2.07,.64-4.11,.86-6.11,.22-2,.38-3.91,.48-5.74,.1-1.83,.15-3.43,.15-4.8,0-.93-.14-1.53-.41-1.8-.27-.27-.72-.4-1.36-.4h-1.51c-.34,0-.59-.06-.74-.18-.15-.12-.22-.37-.22-.74v-4.27Zm24.39,16.78c0,.37-.07,.61-.22,.74-.15,.12-.39,.18-.74,.18h-3.02v14.68c0,.37-.07,.61-.22,.74-.15,.12-.39,.18-.74,.18h-5.15c-.34,0-.59-.06-.74-.18-.15-.12-.22-.37-.22-.74v-32.38c0-.37,.07-.61,.22-.74,.15-.12,.39-.18,.74-.18h5.15c.34,0,.59,.06,.74,.18,.15,.12,.22,.37,.22,.74v11.59h3.02c.34,0,.59,.06,.74,.18,.15,.12,.22,.37,.22,.74v4.27Z"/><path class="f" d="M368.82,175.17c0-1.08,.2-2.01,.61-2.78,.41-.77,.91-1.45,1.53-2.02,.61-.58,1.28-1.1,2-1.58,.72-.48,1.39-.98,2.01-1.49,.61-.52,1.12-1.08,1.53-1.69,.41-.61,.61-1.36,.61-2.24,0-.59-.04-1.1-.11-1.55-.07-.44-.24-.81-.5-1.12-.26-.31-.66-.53-1.2-.68-.54-.15-1.26-.22-2.17-.22-.39,0-.84,.02-1.34,.06-.5,.04-1.01,.09-1.53,.15-.52,.06-1.02,.13-1.51,.2-.49,.07-.93,.15-1.32,.22-.42,.07-.77,.07-1.07-.02-.29-.09-.48-.45-.55-1.09l-.44-3.72c-.05-.29-.04-.54,.04-.74,.07-.2,.17-.35,.29-.46,.12-.11,.26-.19,.4-.24,.15-.05,.27-.09,.37-.11,1.33-.29,2.69-.53,4.08-.72,1.4-.18,2.75-.25,4.07-.2,1.31,.05,2.54,.24,3.7,.57,1.15,.33,2.17,.86,3.04,1.6,.87,.74,1.56,1.69,2.06,2.85,.5,1.17,.75,2.61,.75,4.32,0,1.45-.21,2.69-.63,3.73-.42,1.04-.94,1.95-1.56,2.72-.62,.77-1.31,1.44-2.04,1.99-.74,.55-1.42,1.06-2.04,1.53-.63,.47-1.15,.92-1.56,1.36-.42,.44-.63,.94-.63,1.51v2.98c0,.37-.07,.61-.22,.74s-.39,.18-.74,.18h-4.97c-.34,0-.59-.06-.74-.18-.15-.12-.22-.37-.22-.74v-3.13Zm.96,12.91c-.34,0-.59-.06-.74-.18-.15-.12-.22-.37-.22-.74v-4.64c0-.37,.07-.61,.22-.74,.15-.12,.39-.18,.74-.18h4.97c.34,0,.59,.06,.74,.18,.15,.12,.22,.37,.22,.74v4.64c0,.37-.07,.61-.22,.74-.15,.12-.39,.18-.74,.18h-4.97Z"/></g></g></g></svg>