<?xml version="1.0" encoding="UTF-8"?><svg xmlns="http://www.w3.org/2000/svg" xmlns:xlink="http://www.w3.org/1999/xlink" viewBox="0 0 400 356"><defs><style>.e{fill:#fff;}.f{opacity:.5;}.g{fill:#557cbd;}.h{fill:#322e2f;}.i{clip-path:url(#c);}.j{fill:#fbfbfb;}.k{clip-path:url(#d);}.l{fill:none;}.m{fill:#093974;}</style><clipPath id="c"><circle class="l" cx="200.49" cy="135.02" r="121.81"/></clipPath><clipPath id="d"><rect class="l" x="31.64" y="-26.69" width="337.69" height="300.55"/></clipPath></defs><g id="a"/><g id="b"><g><rect class="e" x="-7.62" y="-8.65" width="416.21" height="370.43"/><g><g class="i"><g class="f"><ellipse class="e" cx="234.85" cy="146.05" rx="203.35" ry="149.15"/></g><g class="k"><g><path class="g" d="M64.43,129.47c.25-13.91,2.94-27.29,8.57-40.07,2.11-4.78,4.34-9.5,6.89-14.06,16.22,11.53,33.26,21.66,51.33,30.02,3.03,1.4,5.96,3.02,8.42,5.36,.86,.81,1.25,1.41-.05,2.36-4.55,3.35-7.44,7.98-9.62,13.1-.22,.51-1.14,1.28-.35,1.67,1.01,.49,1-.82,1.23-1.34,2.09-4.78,4.85-9.05,8.96-12.36,.77-.62,1.42-1.29,2.68-.66,4.43,2.23,8.8,4.57,13.48,6.27,.61,.22,1.25,.56,1.57,1.49-1.71,.29-2.72,1.56-3.65,2.84-4.05,5.5-7.01,11.54-8.73,18.16-.93,3.61-1.28,7.27-.51,10.95,.43,2.01,1.02,4,3.51,4.74-1.85,1.5-3.64,.85-5.3,.39-5.72-1.59-10.96-4.35-16.32-6.83-1.2-.56-1.25-1.48-1.27-2.53-.13-5.4,1.12-10.52,2.89-15.57,.34-.97,1.23-1.95,.49-3.15-1.97,2.72-4.56,12.46-4.29,18.19,.14,3.02-.93,4.15-3.99,4.58-1.92,.27-3.8,.02-5.54-.73-4.63-1.99-9.52-3.48-13.84-6.1-11.55-7.01-24.24-11.46-36.57-16.73Z"/><path class="j" d="M317.57,73.04c2.45,2.45,3.8,5.61,5.44,8.56,6.25,11.24,9.5,23.52,12.34,35.93,.4,1.74,1.07,3.43,1.01,5.26-.69,.33-1.4,.65-2.08,1-16.08,8.17-32.29,16.08-48.83,23.31-2.12,.92-4.23,1.88-6.54,2.19-2.69,.36-4.8-.92-4.67-2.92,.49-8.04-1.53-15.6-4.13-23.09-2.21-6.34-4.85-12.4-9.39-17.51-1.01-1.14-3.67-1.48-2.81-3.57,.63-1.51,2.71-1.96,4.25-2.69,.39-.18,.78-.34,1.18-.51,8.51-3.57,17.06-7.04,25.52-10.75,9.95-4.36,19.93-8.68,28.73-15.22Z"/><path class="h" d="M317.57,73.04c-8.8,6.53-18.78,10.86-28.73,15.22-8.45,3.7-17.01,7.17-25.52,10.75-.39,.17-.79,.32-1.18,.51-1.54,.74-3.62,1.18-4.25,2.69-.86,2.09,1.8,2.43,2.81,3.57,4.54,5.11,7.18,11.17,9.39,17.51,2.6,7.49,4.62,15.05,4.13,23.09-.12,2.01,1.98,3.28,4.67,2.92,2.31-.31,4.43-1.26,6.54-2.19,16.54-7.22,32.74-15.14,48.83-23.31,.69-.35,1.39-.67,2.08-1,.77,1.4-.63,1.32-1.2,1.61-14.34,7.29-28.71,14.52-43.47,20.94-2.67,1.16-5.26,2.52-7.97,3.55-3.21,1.22-6.51,2.42-9.74-.09-.85-.66-1.44,.17-2.05,.49-4.46,2.37-8.89,4.8-13.59,6.69-1.75,.7-3.55,1.25-5.4,1.6-1.98,.37-3.68-.04-4.41-2.1-.53-1.5-1.4-1.25-2.34-.7-2.84,1.66-5.38,3.54-7.68,6.06-2.24,2.45-4.41,4.76-6.12,7.67-1.23,2.1-4.59,1.82-6.11,3.17-1.45,1.29-1.85,4.02-3.94,5.31-1.69,1.05-3.39,2.07-5.46,1.99-.86-.03-1.45,.27-2,.89-3.66,4.19-8.21,4.93-13.32,3.33-1.41-.44-2.61-.34-4.07,.32-2.3,1.04-4.81,1.89-7.47,1.36-.75-.15-1.8-.27-2.12-.78-1.55-2.46-3.92-2.29-6.32-2.43-1.9-.12-3.72-.78-4.99-2.33-.54-.65-1.09-.55-1.8-.53-3.4,.1-6.63-.26-7.87-4.19-.26-.82-.8-.64-1.39-.72-3.77-.48-5.98-4.07-4.81-7.73,.19-.58,.86-1.05-.03-1.74-2.98-2.31-5.88-4.72-8.81-7.09-1.09-.88-1.91-1.22-2.62,.54-.96,2.36-3.07,2.16-5.06,1.73-6-1.32-11.42-4.11-16.88-6.77-1.47-.71-2.48-.81-3.94,.13-2.64,1.71-5.56,1.43-8.4,.32-6.46-2.51-12.89-5.11-18.86-8.69-9.31-5.57-19.64-8.88-29.48-13.26-.82-.36-2.44-.17-2.16-1.91,12.33,5.27,25.03,9.72,36.58,16.73,4.32,2.62,9.21,4.11,13.84,6.1,1.74,.75,3.62,1,5.54,.73,3.06-.43,4.13-1.56,3.99-4.58-.27-5.73,2.32-15.48,4.29-18.19,.74,1.2-.15,2.18-.49,3.15-1.77,5.05-3.02,10.17-2.89,15.57,.03,1.05,.07,1.97,1.27,2.53,5.36,2.48,10.6,5.24,16.32,6.83,1.66,.46,3.45,1.11,5.3-.39-2.49-.74-3.08-2.73-3.51-4.74-.78-3.68-.43-7.34,.51-10.95,1.72-6.62,4.68-12.66,8.73-18.16,.94-1.28,1.94-2.54,3.65-2.84-.31-.92-.96-1.26-1.57-1.49-4.68-1.7-9.05-4.05-13.48-6.27-1.26-.64-1.91,.04-2.68,.66-4.11,3.3-6.87,7.58-8.96,12.36-.23,.53-.23,1.83-1.23,1.34-.78-.38,.13-1.15,.35-1.67,2.18-5.11,5.07-9.75,9.62-13.1,1.3-.96,.91-1.55,.05-2.36-2.46-2.34-5.39-3.96-8.42-5.36-18.08-8.36-35.11-18.5-51.33-30.02q1.07-.52,2.33,.38c12.32,8.76,25.19,16.6,38.64,23.49,3.96,2.03,8.04,3.84,11.99,5.9,3.33,1.74,6.79,3.35,8.91,6.74,.32,.51,1.11,.75,1.72,1.04,4.09,1.96,8.05,4.19,12.34,5.72,1.66,.6,3.14,1.53,2.87,3.72-.13,1.06,.49,1.51,1.42,1.79,2.46,.75,4.88,.85,7.28-.19,2.14-.93,4.12-2.13,5.97-3.52,4.62-3.46,9.87-5.2,15.55-5.4,2.96-.1,5.56-.9,7.97-2.43,2.65-1.68,5.19-1.57,8.05-.45,5.57,2.18,11.05,4.68,17.05,5.58,5.4,.8,10.57-.42,15.69-1.93,.76-.23,1.14-.73,1.05-1.54-.25-2.25,1.23-3.28,2.97-3.96,3.85-1.51,7.67-3.26,10.92-5.68,13.47-10,29.95-13.5,44.53-21.09,6.46-3.36,13.11-6.36,19.04-10.66,.45-.33,1.14-1.44,1.36,.2Zm-122.69,98.97c.83,1.24,1.24,2.6,1.3,4.1,.06,1.56-1.4,3.47-.17,4.53,1.17,1,3.2,1,4.85,1.43,.83,.21,1.65,.43,2.49,.61,4.3,.92,7.96-.06,10.85-3.73-3.75-1.2-6.97-3.29-10.29-5.21-2.64-1.53-5.43-2.46-8.52-2.28,.95-1.8,2.54-.98,3.79-.74,2.89,.57,5.37,2.17,7.89,3.64,2.51,1.47,4.98,3.02,7.9,3.59,3.19,.63,8.08-1.66,9.36-4.53,.36-.81,1.14-1.92-.57-2.43-2.85-.85-5.08-2.77-7.46-4.45-4.28-3.02-8.7-5.8-13.94-6.9-.37-.08-.52-.38-.41-.84,.21-.05,.46-.17,.68-.14,.5,.08,1,.22,1.49,.36,4.95,1.39,9.21,4.08,13.31,7.06,1.87,1.36,3.69,2.81,5.86,3.66,3.41,1.33,7.45,.08,9.26-2.92,.69-1.15,1.5-2.55-.17-3.56-2.02-1.22-3.52-2.99-5.19-4.59-4.78-4.58-9.61-9.09-16.34-10.71-.07-.02-.08-.3-.12-.47,.96-.43,1.83-.04,2.73,.24,3.26,.99,5.99,2.91,8.63,4.97,3.19,2.49,5.9,5.49,8.88,8.21,3.05,2.79,6.36,1.76,7.57-2.24,.19-.65,.32-1.33,.35-2.01,.18-3.62-1.06-6.69-3.61-9.28-8.01-8.16-16.92-14.95-27.8-18.93-2.61-.95-5.02-1.97-7.73-.43-.99,.56-2.17,.5-3.28,.46-2.1-.07-3.34,.71-4.29,2.8-2.09,4.6-5.72,7.72-10.81,8.56-4.67,.77-6.13-1.07-4.56-5.53,.96-2.74,2.5-5.3,3.24-8.09,1.12-4.21,3.61-7.09,7.32-9.11,.4-.22,1.06-.22,.92-1.05-.76,.08-1.52,.17-2.29,.25-5.21,.57-9.57,3.06-13.68,6.07-4.74,3.47-9.73,4.55-15.13,1.67-1.37-.73-2-.08-2.71,.91-3.67,5.12-6.43,10.68-8.19,16.74-.95,3.27-1.1,6.58-.93,9.93,.11,2.21,.66,4.03,3.54,3.34,.85-.2,1.46,.38,2.1,.74,2.58,1.42,4.68,3.46,6.85,5.4q3.35,2.99,7.22,.94c.6-.32,1.22-.65,1.87-.82,2.13-.54,4.3-1.05,5.5,1.59,.24,.53,.54,.54,1,.38,3.18-1.12,5.45,.09,7.09,2.82,2.92-2.04,4.11-2.08,5.84-.14,1.57,1.76,1.97,4.02,2.47,6.46,2.05-1.64,4.02-1.87,6.01-.31Zm44.98-14.05c2.88-2.57,5.4-4.09,8.29-5.02,4.32-1.39,4.3-1.45,4.57-5.95,.03-.43,.02-.86,0-1.29-.24-10.36-4.27-19.43-9.53-28.1-1.07-1.77-2.13-2.06-4.11-1.31-9.11,3.46-18.22,3.51-27.26-.42-2.66-1.16-5.42-2.1-8.13-3.15-1.47-.57-2.95-.93-4.47-.19-3.92,1.9-7.88,3.72-11.74,5.74-2.29,1.2-4.46,2.82-5.34,5.36-1.29,3.72-2.9,7.31-4.33,10.97-.46,1.19-1.11,2.61-.14,3.64,1.07,1.14,2.69,.97,4.13,.53,4.51-1.36,7.88-4.1,9.73-8.46,.72-1.7,1.7-2.63,3.58-2.73,2.57-.14,5.12-.43,7.46-1.66,.52-.27,1.03-.4,1.69-.11,7.36,3.21,14.94,6.08,21.15,11.36,3.07,2.61,6.48,2.67,10.11,2.28,.48-.05,.93-.52,1.63,.13-2.07,1.77-4.57,1.01-7.23,1.13,5.03,4.79,10.77,8.71,9.95,17.24Zm9.45-2.79c1.8,2.45,3.89,1.47,5.75,.9,5.68-1.73,10.78-4.75,16.03-7.42,1.83-.93,2.35-2.09,2.34-4.01-.06-9.9-3.23-19.01-6.98-27.96-1.87-4.46-4.52-8.45-8.17-11.71-1.05-.94-1.89-1.21-3.3-.42-4.26,2.36-8.47,4.85-12.99,6.71-.93,.38-1.88,.85-2.26,2.09,1.65,.3,2.65,1.43,3.56,2.73,4.77,6.84,8.04,14.34,9.67,22.49,.96,4.8,1.29,9.68-.5,14.45-.53,1.4-1.23,2.46-3.15,2.16Zm-65.94,25.63c.56-.46,2.15,.77,2.57-1.16,.47-2.16,1.12-4.29,1.56-6.45,.49-2.42-.35-4.56-1.76-6.48-1.05-1.42-2.35-1.67-3.72-.42-2.82,2.54-4.67,5.64-5.4,9.39-.36,1.85,.38,3.16,1.96,4.05,1.37,.77,2.84,1.18,4.8,1.07Zm-10.05-3.01c.76-.14,2.12,.58,2.19-1.12,.12-3.21,1.58-5.87,3.25-8.47,1.07-1.66,.52-2.93-1.08-3.81-1.74-.95-3.47-.76-5.03,.42-1.79,1.35-3.22,3.03-4.17,5.09-2.05,4.44-.13,7.66,4.85,7.88Zm24.03,4.55c-2.91-.11-3.09-1.72-2.59-3.87,.23-.99,.36-2.03,.32-3.04-.06-1.55-.71-2.87-2.32-3.33-1.53-.43-2.68,.41-3.56,1.51-1.49,1.87-1.96,4.13-2.24,6.45-.28,2.39,.97,3.51,3.13,3.82,2.51,.35,4.86-.33,7.25-1.54Zm-28.2-20.45c-2.73,.13-4.89,1.49-6.65,3.42-2.1,2.29-1.05,6.28,1.86,7.46,1,.41,2.12,.68,2.39-.84,.49-2.75,2.03-4.86,3.89-6.78,.67-.69,1.01-1.45,.71-2.3-.35-.97-1.31-.96-2.2-.96Z"/><path class="j" d="M194.88,172.02c-1.98-1.56-3.95-1.32-6.01,.31-.5-2.44-.9-4.7-2.47-6.46-1.73-1.94-2.92-1.9-5.84,.14-1.64-2.73-3.91-3.95-7.09-2.82-.45,.16-.76,.16-1-.38-1.21-2.64-3.38-2.13-5.5-1.59-.65,.17-1.27,.5-1.87,.82q-3.87,2.05-7.22-.94c-2.17-1.94-4.27-3.98-6.85-5.4-.65-.36-1.25-.95-2.1-.74-2.88,.69-3.43-1.12-3.54-3.34-.17-3.35-.02-6.66,.93-9.93,1.77-6.07,4.52-11.62,8.19-16.74,.71-.99,1.33-1.65,2.71-.91,5.39,2.88,10.39,1.8,15.13-1.67,4.12-3.01,8.48-5.5,13.68-6.07,.76-.08,1.53-.17,2.29-.25,.14,.83-.52,.84-.92,1.05-3.71,2.02-6.19,4.9-7.32,9.11-.74,2.79-2.28,5.35-3.24,8.09-1.57,4.47-.11,6.3,4.56,5.53,5.09-.84,8.72-3.96,10.81-8.56,.95-2.09,2.19-2.87,4.29-2.8,1.12,.04,2.29,.1,3.28-.46,2.7-1.54,5.12-.52,7.73,.43,10.88,3.98,19.79,10.77,27.8,18.93,2.55,2.6,3.79,5.66,3.61,9.28-.03,.67-.16,1.36-.35,2.01-1.2,4-4.51,5.03-7.57,2.24-2.98-2.71-5.69-5.72-8.88-8.21-2.64-2.06-5.37-3.98-8.63-4.97-.9-.27-1.77-.66-2.73-.24,.04,.17,.05,.45,.12,.47,6.73,1.62,11.56,6.13,16.34,10.71,1.67,1.6,3.16,3.37,5.19,4.59,1.67,1.01,.86,2.41,.17,3.56-1.82,3.01-5.85,4.25-9.26,2.92-2.18-.85-3.99-2.3-5.86-3.66-4.1-2.98-8.37-5.67-13.31-7.06-.49-.14-.99-.28-1.49-.36-.22-.03-.47,.09-.68,.14-.11,.45,.03,.76,.41,.84,5.24,1.11,9.66,3.88,13.94,6.9,2.38,1.68,4.61,3.59,7.46,4.45,1.71,.51,.93,1.63,.57,2.43-1.28,2.87-6.17,5.15-9.36,4.53-2.92-.57-5.39-2.13-7.9-3.59-2.52-1.47-4.99-3.08-7.89-3.64-1.25-.25-2.84-1.06-3.79,.74l-.51,.57Z"/><path class="j" d="M239.86,157.97c.82-8.53-4.92-12.44-9.95-17.24,2.65-.12,5.15,.64,7.23-1.13-.7-.64-1.15-.18-1.63-.13-3.62,.39-7.03,.33-10.11-2.28-6.22-5.28-13.79-8.15-21.15-11.36-.66-.29-1.17-.17-1.69,.11-2.34,1.23-4.89,1.52-7.46,1.66-1.88,.1-2.85,1.03-3.58,2.73-1.85,4.36-5.22,7.11-9.73,8.46-1.44,.43-3.06,.6-4.13-.53-.97-1.03-.32-2.46,.14-3.64,1.43-3.66,3.04-7.24,4.33-10.97,.88-2.54,3.04-4.16,5.34-5.36,3.86-2.02,7.82-3.84,11.74-5.74,1.52-.74,3-.37,4.47,.19,2.71,1.04,5.47,1.99,8.13,3.15,9.04,3.93,18.15,3.88,27.26,.42,1.98-.75,3.04-.46,4.11,1.31,5.26,8.67,9.28,17.74,9.53,28.1,.01,.43,.02,.86,0,1.29-.27,4.5-.25,4.56-4.57,5.95-2.89,.93-5.41,2.45-8.29,5.02Z"/><path class="j" d="M249.32,155.17c1.93,.3,2.63-.76,3.15-2.16,1.79-4.77,1.46-9.65,.5-14.45-1.63-8.15-4.91-15.65-9.67-22.49-.9-1.3-1.91-2.42-3.56-2.73,.38-1.23,1.33-1.7,2.26-2.09,4.52-1.87,8.73-4.36,12.99-6.71,1.42-.78,2.25-.51,3.3,.42,3.66,3.26,6.3,7.25,8.17,11.71,3.76,8.95,6.93,18.06,6.98,27.96,.01,1.92-.51,3.08-2.34,4.01-5.26,2.67-10.36,5.69-16.03,7.42-1.86,.57-3.95,1.55-5.75-.9Z"/><path class="j" d="M195.39,171.45c3.09-.18,5.88,.75,8.52,2.28,3.31,1.92,6.54,4.01,10.29,5.21-2.89,3.67-6.55,4.65-10.85,3.73-.84-.18-1.66-.39-2.49-.61-1.65-.43-3.68-.43-4.85-1.43-1.23-1.06,.23-2.96,.17-4.53-.06-1.5-.47-2.86-1.3-4.1l.51-.57Z"/><path class="j" d="M183.37,180.8c-1.96,.11-3.43-.3-4.8-1.07-1.58-.89-2.32-2.2-1.96-4.05,.73-3.75,2.58-6.85,5.4-9.39,1.38-1.24,2.67-1,3.72,.42,1.41,1.92,2.25,4.06,1.76,6.48-.44,2.17-1.09,4.29-1.56,6.45-.41,1.93-2.01,.7-2.57,1.16Z"/><path class="j" d="M173.33,177.79c-4.98-.22-6.9-3.44-4.85-7.88,.95-2.06,2.38-3.73,4.17-5.09,1.57-1.18,3.29-1.38,5.03-.42,1.61,.88,2.15,2.15,1.08,3.81-1.67,2.6-3.13,5.26-3.25,8.47-.06,1.7-1.43,.98-2.19,1.12Z"/><path class="j" d="M197.35,182.34c-2.39,1.21-4.74,1.89-7.25,1.54-2.16-.3-3.41-1.43-3.13-3.82,.27-2.32,.75-4.58,2.24-6.45,.88-1.1,2.03-1.94,3.56-1.51,1.62,.46,2.26,1.78,2.32,3.33,.04,1.01-.09,2.05-.32,3.04-.51,2.15-.32,3.77,2.59,3.87Z"/><path class="j" d="M169.15,161.89c.89,0,1.85,0,2.2,.96,.3,.85-.03,1.61-.71,2.3-1.86,1.92-3.4,4.03-3.89,6.78-.27,1.51-1.4,1.24-2.39,.84-2.9-1.18-3.95-5.17-1.86-7.46,1.76-1.93,3.92-3.28,6.65-3.42Z"/></g></g></g><g><path class="m" d="M86.06,192.61c0-.22,.04-.36,.13-.43,.09-.07,.23-.11,.43-.11h18.2c.2,0,.34,.04,.43,.11,.09,.07,.13,.22,.13,.43v2.52c0,.22-.04,.36-.13,.43-.09,.07-.23,.11-.43,.11h-7.03v4.18c0,.22-.04,.36-.13,.43-.09,.07-.23,.11-.43,.11h-3.02c-.2,0-.34-.04-.43-.11-.09-.07-.13-.22-.13-.43v-4.18h-7.03c-.2,0-.34-.04-.43-.11-.09-.07-.13-.22-.13-.43v-2.52Zm2.03-1.88h-.21c-.08,0-.16-.02-.24-.06s-.14-.11-.19-.19c-.05-.09-.08-.21-.08-.37v-2.52c0-.27,.03-.45,.09-.52,.06-.07,.19-.12,.39-.15,.95-.1,1.79-.29,2.51-.58,.73-.29,1.33-.64,1.82-1.07,.49-.42,.86-.91,1.1-1.45s.37-1.11,.37-1.71v-1.75c0-.22,.04-.36,.13-.43s.23-.11,.43-.11h3.02c.2,0,.34,.04,.43,.11,.09,.07,.13,.22,.13,.43v1.75c0,.6,.12,1.17,.37,1.71s.61,1.02,1.1,1.45,1.1,.78,1.82,1.07c.73,.29,1.56,.48,2.51,.58,.2,.03,.33,.08,.39,.15,.06,.07,.09,.25,.09,.52v2.52c0,.16-.03,.28-.08,.37-.05,.09-.12,.15-.19,.19s-.16,.06-.24,.06h-.21c-.91-.09-1.76-.24-2.57-.46-.81-.22-1.54-.49-2.19-.8-.65-.31-1.23-.65-1.71-1.03-.49-.38-.88-.77-1.16-1.15-.29,.39-.68,.77-1.16,1.15-.49,.38-1.06,.73-1.73,1.03-.66,.31-1.39,.58-2.19,.8-.8,.22-1.65,.38-2.55,.46Z"/><path class="m" d="M124.61,186.96c0,.92-.15,1.8-.44,2.63-.29,.83-.75,1.58-1.37,2.24v4.33h2.5c.2,0,.34,.04,.43,.11,.09,.07,.13,.21,.13,.43v2.52c0,.21-.04,.36-.13,.43-.09,.07-.23,.11-.43,.11h-18.2c-.2,0-.34-.04-.43-.11-.09-.07-.13-.22-.13-.43v-2.52c0-.22,.04-.36,.13-.43,.09-.07,.23-.11,.43-.11h2.5v-4.33c-.62-.66-1.08-1.41-1.37-2.24-.29-.83-.44-1.71-.44-2.63s.17-1.89,.5-2.77c.33-.88,.84-1.66,1.53-2.32,.69-.66,1.56-1.19,2.62-1.58,1.06-.39,2.31-.59,3.76-.59s2.71,.2,3.76,.59c1.06,.4,1.93,.92,2.62,1.58,.69,.66,1.2,1.43,1.53,2.32,.33,.88,.5,1.81,.5,2.77Zm-12.68,0c0,.53,.09,1.02,.28,1.48,.19,.45,.46,.85,.82,1.19s.8,.6,1.34,.79,1.14,.28,1.83,.28,1.3-.09,1.83-.28c.53-.19,.98-.45,1.34-.79s.63-.73,.82-1.19c.19-.45,.28-.95,.28-1.48s-.09-1.02-.28-1.48c-.19-.45-.46-.85-.82-1.19s-.81-.6-1.34-.79c-.53-.19-1.14-.28-1.83-.28s-1.3,.09-1.83,.28c-.53,.19-.98,.45-1.34,.79s-.63,.73-.82,1.19c-.19,.45-.28,.95-.28,1.48Zm4.27,7.27c-.93,0-1.75-.07-2.46-.22v2.16h4.92v-2.16c-.72,.14-1.54,.22-2.46,.22Z"/></g><g><path class="m" d="M274.31,188.75c0-.22,.04-.36,.13-.43,.09-.07,.23-.11,.43-.11h5.74v-2.46c0-.22,.04-.36,.13-.43s.23-.11,.43-.11h3.02c.2,0,.34,.04,.43,.11,.09,.07,.13,.22,.13,.43v2.46h8.32c.2,0,.34,.04,.43,.11,.09,.07,.13,.22,.13,.43v2.52c0,.22-.04,.36-.13,.43-.09,.07-.23,.11-.43,.11h-18.2c-.2,0-.34-.04-.43-.11-.09-.07-.13-.22-.13-.43v-2.52Zm9.66,12.36c-2.8,0-4.9-.36-6.3-1.08-1.39-.72-2.09-1.78-2.09-3.19s.71-2.47,2.12-3.18c1.42-.71,3.5-1.07,6.26-1.07s4.85,.36,6.26,1.07,2.12,1.77,2.12,3.18-.7,2.47-2.09,3.19c-1.39,.72-3.49,1.08-6.3,1.08Zm3.86-14.53c.07-.4,.13-.77,.17-1.09,.04-.32,.08-.67,.11-1.05,.03-.35-.03-.58-.18-.71-.15-.13-.36-.19-.62-.19h-11.08c-.2,0-.34-.04-.43-.11-.09-.07-.13-.22-.13-.43v-2.52c0-.22,.04-.36,.13-.43,.09-.07,.23-.11,.43-.11h13.69c.78,0,1.36,.2,1.75,.6,.39,.4,.58,1.06,.58,1.96,0,.75-.03,1.49-.1,2.23-.06,.74-.15,1.53-.27,2.36-.03,.21-.09,.36-.17,.44-.09,.08-.25,.1-.5,.08l-2.85-.32c-.2-.03-.35-.09-.45-.19-.1-.1-.13-.27-.09-.52Zm-3.86,11.25c.86,0,1.57-.02,2.11-.05,.55-.04,.98-.09,1.29-.17,.32-.08,.54-.18,.66-.31,.12-.13,.18-.29,.18-.47,0-.17-.06-.32-.18-.45-.12-.13-.34-.23-.66-.31-.32-.08-.75-.14-1.29-.18-.55-.04-1.25-.06-2.11-.06s-1.57,.02-2.11,.06-.98,.1-1.29,.18-.54,.18-.66,.31c-.12,.13-.18,.28-.18,.45,0,.19,.06,.34,.18,.47,.12,.13,.34,.23,.66,.31,.32,.08,.75,.14,1.29,.17s1.25,.05,2.11,.05Z"/><path class="m" d="M294.8,188.58c0-.22,.04-.36,.13-.43,.09-.07,.23-.11,.43-.11h18.2c.2,0,.34,.04,.43,.11,.09,.07,.13,.22,.13,.43v2.11c0,.22-.04,.36-.13,.43-.09,.07-.23,.11-.43,.11h-18.2c-.2,0-.34-.04-.43-.11-.09-.07-.13-.22-.13-.43v-2.11Zm13.5-2.31c.06-.3,.12-.61,.17-.92,.06-.31,.1-.61,.13-.92,.04-.35-.01-.58-.17-.71-.16-.13-.37-.19-.63-.19h-11.08c-.2,0-.34-.04-.43-.11-.09-.07-.13-.22-.13-.43v-2.52c0-.22,.04-.36,.13-.43,.09-.07,.23-.11,.43-.11h13.69c.78,0,1.35,.2,1.74,.6,.38,.4,.58,1.06,.59,1.96,.01,1.48-.13,2.9-.43,4.27-.04,.22-.1,.36-.18,.44-.08,.08-.24,.1-.49,.08l-2.8-.3c-.2-.03-.35-.09-.45-.19-.1-.1-.13-.27-.09-.52Zm4.44,11.58c0,.91-.19,1.56-.58,1.96-.39,.4-.97,.6-1.75,.6h-11.92c-.78,0-1.36-.2-1.75-.6-.39-.4-.58-1.06-.58-1.96v-5.3c0-.22,.04-.36,.13-.43,.09-.07,.23-.11,.43-.11h3.02c.2,0,.35,.04,.43,.11,.09,.07,.13,.22,.13,.43v.67h8.3v-.67c0-.22,.04-.36,.13-.43,.09-.07,.23-.11,.43-.11h3.02c.2,0,.34,.04,.43,.11,.09,.07,.13,.22,.13,.43v5.3Zm-4.77-.6c.24,0,.41-.05,.5-.14,.09-.09,.13-.28,.13-.55v-.5h-8.3v.5c0,.27,.04,.46,.13,.55,.09,.09,.25,.14,.5,.14h7.05Z"/></g></g><g><g><path class="m" d="M166.17,265.29c-.29,0-.5-.05-.63-.16-.13-.1-.19-.31-.19-.63v-12.56h-2.9c-.08,1.91-.31,3.61-.69,5.1s-.93,2.75-1.67,3.78c-.74,1.03-1.66,1.81-2.77,2.35s-2.46,.8-4.03,.8c-1.7,0-3.14-.31-4.31-.94s-2.12-1.54-2.85-2.74-1.25-2.66-1.57-4.39c-.33-1.73-.49-3.7-.49-5.9s.16-4.17,.49-5.9c.33-1.73,.85-3.2,1.57-4.39s1.67-2.11,2.85-2.74,2.61-.94,4.31-.94c1.47,0,2.74,.24,3.83,.71,1.08,.47,1.99,1.17,2.72,2.08,.73,.91,1.31,2.04,1.72,3.37s.69,2.85,.83,4.55h2.96v-9.92c0-.32,.06-.52,.19-.63s.33-.16,.63-.16h4.41c.29,0,.5,.05,.63,.16s.19,.31,.19,.63v27.71c0,.31-.06,.52-.19,.63-.13,.11-.34,.16-.63,.16h-4.41Zm-9.54-15.3c0-1.93-.11-3.47-.33-4.63-.22-1.15-.5-2.04-.83-2.66-.34-.62-.7-1.02-1.09-1.21-.39-.19-.75-.28-1.09-.28s-.7,.09-1.09,.28c-.39,.19-.75,.59-1.09,1.21-.34,.62-.61,1.51-.83,2.66s-.33,2.7-.33,4.63,.11,3.47,.33,4.63c.22,1.16,.5,2.04,.83,2.66,.33,.62,.7,1.02,1.09,1.21,.39,.19,.75,.28,1.09,.28s.7-.09,1.09-.28c.39-.19,.75-.59,1.09-1.21s.61-1.51,.83-2.66c.22-1.15,.33-2.7,.33-4.63Z"/><path class="m" d="M182.38,241.07c-.11,2.46-.17,4.92-.19,7.38-.02,2.47-.01,5.08,.03,7.86,.02,.76,.18,1.31,.49,1.67,.3,.36,.88,.53,1.72,.5,1.55-.04,3.04-.1,4.47-.17s2.93-.18,4.5-.33c.29-.04,.49,0,.6,.11,.1,.12,.18,.33,.22,.65l.32,3.65c.04,.32-.01,.51-.16,.6-.15,.08-.37,.15-.66,.19-2.08,.17-4.08,.3-6,.39-1.92,.09-3.89,.14-5.9,.14s-3.46-.54-4.33-1.62-1.31-2.81-1.31-5.18c0-1.85,0-3.63,.03-5.35,.02-1.72,.05-3.4,.08-5.04,.03-1.64,.07-3.26,.13-4.87,.05-1.61,.12-3.23,.2-4.86,.02-.32,.09-.52,.21-.63s.32-.16,.61-.16h14.99c.29,0,.5,.05,.63,.16s.19,.31,.19,.63v3.5c0,.31-.06,.52-.19,.63-.13,.1-.34,.16-.63,.16h-10.04Zm15.27,24.21c-.29,0-.5-.05-.63-.16-.13-.1-.19-.31-.19-.63v-27.71c0-.32,.06-.52,.19-.63s.33-.16,.63-.16h4.41c.29,0,.5,.05,.63,.16s.19,.31,.19,.63v27.71c0,.31-.06,.52-.19,.63-.13,.11-.34,.16-.63,.16h-4.41Z"/><path class="m" d="M217.93,236c.29,0,.5,.05,.63,.16s.19,.31,.19,.63v15.9c0,.61,.07,1.2,.22,1.78,.15,.58,.42,1.11,.82,1.61,.4,.49,.93,.93,1.61,1.32s1.53,.69,2.58,.9c.08,.02,.18,.04,.3,.06,.12,.02,.23,.07,.33,.14,.1,.07,.19,.18,.27,.32,.07,.14,.11,.33,.11,.58v3.5c0,.38-.1,.6-.3,.68s-.37,.1-.52,.08c-.73-.06-1.49-.17-2.25-.33-.77-.16-1.52-.38-2.25-.66-.74-.28-1.44-.65-2.11-1.09s-1.27-.97-1.79-1.57c-.55,.61-1.15,1.13-1.81,1.57-.66,.44-1.36,.8-2.09,1.09-.73,.28-1.49,.5-2.25,.66-.77,.16-1.52,.27-2.25,.33-.15,.02-.32,0-.52-.08-.2-.07-.3-.3-.3-.68v-3.5c0-.25,.04-.45,.11-.58,.07-.14,.16-.24,.27-.32,.1-.07,.21-.12,.33-.14,.12-.02,.21-.04,.3-.06,1.05-.21,1.91-.51,2.58-.9s1.21-.83,1.61-1.32,.67-1.03,.82-1.61c.15-.58,.22-1.17,.22-1.78v-15.9c0-.32,.06-.52,.19-.63s.33-.16,.63-.16h4.34Zm4.69,10.23c0-.32,.06-.52,.19-.63s.33-.16,.63-.16h4.88v-8.66c0-.32,.06-.52,.19-.63s.33-.16,.63-.16h4.41c.29,0,.5,.05,.63,.16s.19,.31,.19,.63v27.71c0,.31-.06,.52-.19,.63-.13,.11-.34,.16-.63,.16h-4.41c-.29,0-.5-.05-.63-.16-.13-.1-.19-.31-.19-.63v-13.82h-4.88c-.29,0-.5-.05-.63-.16-.13-.11-.19-.32-.19-.63v-3.65Z"/><path class="m" d="M242.46,254.86c0-.92,.17-1.72,.52-2.38,.35-.66,.78-1.24,1.31-1.73,.52-.49,1.1-.94,1.72-1.35s1.19-.83,1.72-1.28c.52-.44,.96-.92,1.31-1.45,.35-.52,.52-1.17,.52-1.92,0-.5-.03-.94-.09-1.32-.06-.38-.2-.7-.42-.96s-.56-.46-1.02-.58-1.08-.19-1.86-.19c-.34,0-.72,.02-1.15,.05-.43,.03-.87,.07-1.31,.13-.44,.05-.87,.11-1.29,.17-.42,.06-.8,.13-1.13,.19-.36,.06-.66,.06-.91-.02s-.41-.38-.47-.93l-.38-3.18c-.04-.25-.03-.46,.03-.63,.06-.17,.15-.3,.25-.39,.1-.09,.22-.16,.35-.21,.13-.04,.23-.07,.32-.09,1.13-.25,2.3-.46,3.5-.61s2.36-.21,3.48-.17c1.12,.04,2.18,.2,3.16,.49,.99,.28,1.85,.74,2.6,1.37s1.33,1.44,1.76,2.44c.43,1,.65,2.23,.65,3.7,0,1.24-.18,2.3-.54,3.2-.36,.89-.8,1.67-1.34,2.33s-1.12,1.23-1.75,1.7-1.21,.91-1.75,1.31c-.54,.4-.98,.79-1.34,1.17-.36,.38-.54,.81-.54,1.29v2.55c0,.31-.06,.52-.19,.63s-.34,.16-.63,.16h-4.25c-.29,0-.5-.05-.63-.16s-.19-.32-.19-.63v-2.68Zm.82,11.05c-.29,0-.5-.05-.63-.16-.13-.1-.19-.31-.19-.63v-3.97c0-.32,.06-.53,.19-.63,.13-.11,.33-.16,.63-.16h4.25c.29,0,.5,.05,.63,.16,.13,.1,.19,.31,.19,.63v3.97c0,.32-.06,.53-.19,.63-.13,.11-.34,.16-.63,.16h-4.25Z"/><path class="m" d="M86.47,294.75c0-.38,.08-.63,.23-.76,.15-.13,.4-.19,.76-.19h20.81c-.03-.58-.16-.99-.4-1.21-.24-.23-.58-.34-1.01-.34h-18.98c-.35,0-.61-.06-.76-.19-.15-.13-.23-.38-.23-.76v-3.38c0-.38,.08-.63,.23-.76,.15-.13,.41-.19,.76-.19h23.5c1.37,0,2.39,.35,3.08,1.06,.68,.71,1.03,1.86,1.03,3.46,0,1.21-.02,2.61-.06,4.2-.04,1.58-.11,3.25-.21,4.99h2.01c.35,0,.61,.06,.76,.19,.15,.13,.23,.38,.23,.76v3.34c0,.38-.08,.63-.23,.76-.15,.13-.41,.19-.76,.19h-12.38v1.63h9.95c.35,0,.61,.06,.76,.19,.15,.13,.23,.38,.23,.76v7.56c0,.38-.08,.63-.23,.76-.15,.13-.41,.19-.76,.19h-21.68v.61c0,.4,.15,.65,.46,.74s.77,.13,1.4,.13c2.13,0,4.09-.01,5.89-.04,1.8-.03,3.5-.06,5.11-.11,1.61-.05,3.15-.11,4.63-.19,1.48-.08,2.97-.18,4.46-.3,.35-.03,.57,.02,.65,.13,.08,.11,.14,.31,.19,.59l.34,2.89c.05,.3-.01,.49-.19,.57s-.44,.14-.8,.19c-1.75,.18-3.44,.32-5.09,.42-1.65,.1-3.33,.18-5.05,.25-1.72,.06-3.54,.11-5.45,.13-1.91,.02-4.02,.04-6.32,.04-1.17,0-2.18-.1-3.04-.3-.86-.2-1.57-.53-2.13-.99s-.97-1.05-1.23-1.78c-.27-.73-.4-1.65-.4-2.73v-3.46c0-.35,.08-.59,.23-.72,.15-.13,.4-.19,.76-.19h21.68v-1.14h-21.68c-.66,0-.99-.37-.99-1.1v-2.13c0-.38,.08-.63,.23-.76,.15-.13,.4-.19,.76-.19h10.02v-1.63h-12.38c-.36,0-.61-.06-.76-.19-.15-.13-.23-.38-.23-.76v-3.34c0-.38,.08-.63,.23-.76,.15-.13,.4-.19,.76-.19h22.86c.02-.28,.04-.54,.06-.8s.02-.52,.02-.8h-20.66c-.35,0-.61-.06-.76-.19-.15-.13-.23-.38-.23-.76v-3.38Z"/><path class="m" d="M128.39,311.45c0,.91,.19,1.58,.57,2.01,.38,.43,1.08,.63,2.09,.61,1.87-.05,3.7-.12,5.49-.21,1.79-.09,3.63-.22,5.52-.4,.35-.05,.59,0,.72,.13,.13,.14,.21,.4,.27,.78l.38,4.4c.05,.38-.01,.62-.19,.72-.18,.1-.44,.18-.8,.23-2.51,.2-4.95,.36-7.33,.47-2.38,.11-4.78,.17-7.21,.17s-4.17-.65-5.22-1.96c-1.05-1.3-1.58-3.38-1.58-6.25v-10.93c0-.38,.08-.63,.23-.76,.15-.13,.41-.19,.76-.19h11.5c.35,0,.61-.06,.76-.19,.15-.13,.23-.38,.23-.76v-3.95c0-.96-.17-1.58-.49-1.86-.33-.28-.82-.42-1.48-.42h-10.52c-.35,0-.61-.06-.76-.19-.15-.13-.23-.38-.23-.76v-4.25c0-.38,.08-.63,.23-.76,.15-.13,.41-.19,.76-.19h14.47c.96,0,1.78,.11,2.47,.34,.68,.23,1.23,.6,1.65,1.12,.42,.52,.72,1.19,.91,2.01,.19,.82,.29,1.83,.29,3.02v12.04c0,.38-.08,.63-.23,.76-.15,.13-.41,.19-.76,.19h-11.5c-.36,0-.61,.06-.76,.19-.15,.13-.23,.38-.23,.76v4.06Zm18.6,10.82c-.36,0-.61-.06-.76-.19-.15-.13-.23-.38-.23-.76v-33.41c0-.38,.08-.63,.23-.76,.15-.13,.4-.19,.76-.19h5.32c.35,0,.61,.06,.76,.19,.15,.13,.23,.38,.23,.76v33.41c0,.38-.08,.63-.23,.76-.15,.13-.41,.19-.76,.19h-5.32Z"/><path class="m" d="M166.39,287.91c-.08,1.62-.11,3.11-.11,4.46s.03,2.84,.08,4.46c.02,.91,.22,1.58,.59,2.01s1.06,.63,2.07,.61c1.49-.05,3.2-.13,5.11-.23,1.91-.1,3.82-.24,5.71-.42,.35-.05,.59,0,.72,.13,.13,.14,.21,.4,.27,.78l.38,4.44c.05,.38-.01,.62-.19,.72s-.44,.18-.8,.23c-2.51,.2-5.01,.35-7.52,.46-2.51,.1-4.78,.15-6.83,.15-2.43,0-4.17-.65-5.22-1.96-1.05-1.3-1.58-3.39-1.58-6.25,0-1.72,0-3.32,.02-4.8,.01-1.48,.06-3.08,.13-4.8,.02-.38,.11-.63,.25-.76,.14-.13,.39-.19,.74-.19h5.2c.35,0,.61,.06,.78,.19,.16,.13,.23,.38,.21,.76Zm-5.09,21.26c0-.38,.08-.63,.23-.76,.15-.13,.41-.19,.76-.19h27.98c.35,0,.61,.06,.76,.19,.15,.13,.23,.38,.23,.76v12.91c0,.38-.08,.63-.23,.76-.15,.13-.41,.19-.76,.19h-5.32c-.36,0-.61-.06-.76-.19-.15-.13-.23-.38-.23-.76v-7.56h-21.68c-.35,0-.61-.06-.76-.19-.15-.13-.23-.38-.23-.76v-4.4Zm23.65-2.7c-.36,0-.61-.06-.76-.19-.15-.13-.23-.38-.23-.76v-17.62c0-.38,.08-.63,.23-.76,.15-.13,.4-.19,.76-.19h5.32c.35,0,.61,.06,.76,.19,.15,.13,.23,.38,.23,.76v17.62c0,.38-.08,.63-.23,.76-.15,.13-.41,.19-.76,.19h-5.32Z"/><path class="m" d="M220.42,286.96c.35,0,.61,.06,.76,.19,.15,.13,.23,.38,.23,.76v19.17c0,.73,.09,1.45,.27,2.14,.18,.7,.51,1.34,.99,1.94s1.13,1.13,1.94,1.59c.81,.47,1.85,.83,3.11,1.08,.1,.03,.22,.05,.36,.08,.14,.03,.27,.08,.4,.17,.13,.09,.23,.21,.32,.38,.09,.16,.13,.4,.13,.7v4.21c0,.46-.12,.73-.36,.82-.24,.09-.45,.12-.63,.1-.89-.08-1.79-.21-2.71-.4-.92-.19-1.83-.46-2.71-.8-.89-.34-1.73-.78-2.54-1.31-.81-.53-1.53-1.17-2.16-1.9-.66,.73-1.39,1.37-2.18,1.9-.8,.53-1.64,.97-2.52,1.31-.89,.34-1.79,.61-2.71,.8-.92,.19-1.83,.32-2.71,.4-.18,.02-.39,0-.63-.1-.24-.09-.36-.36-.36-.82v-4.21c0-.3,.04-.54,.13-.7,.09-.17,.2-.29,.32-.38,.13-.09,.26-.15,.4-.17,.14-.03,.26-.05,.36-.08,1.27-.25,2.3-.61,3.11-1.08,.81-.47,1.46-1,1.94-1.59s.81-1.24,.99-1.94c.18-.7,.27-1.41,.27-2.14v-19.17c0-.38,.08-.63,.23-.76,.15-.13,.4-.19,.76-.19h5.24Zm13.14,35.31c-.36,0-.61-.06-.76-.19-.15-.13-.23-.38-.23-.76v-33.41c0-.38,.08-.63,.23-.76,.15-.13,.4-.19,.76-.19h5.32c.35,0,.61,.06,.76,.19,.15,.13,.23,.38,.23,.76v33.41c0,.38-.08,.63-.23,.76-.15,.13-.41,.19-.76,.19h-5.32Z"/><path class="m" d="M244.8,316.5c0-.38,.08-.63,.23-.76,.15-.13,.4-.19,.76-.19h32.04c.35,0,.61,.06,.76,.19,.15,.13,.23,.38,.23,.76v4.44c0,.38-.08,.63-.23,.76-.15,.13-.41,.19-.76,.19h-32.04c-.36,0-.61-.06-.76-.19-.15-.13-.23-.38-.23-.76v-4.44Zm3.57-5.96h-.36c-.14,0-.28-.04-.42-.11-.14-.08-.25-.19-.34-.34-.09-.15-.13-.37-.13-.65v-4.44c0-.48,.05-.78,.15-.91,.1-.13,.33-.21,.68-.27,1.67-.18,3.14-.52,4.42-1.03,1.28-.51,2.35-1.13,3.21-1.88,.86-.75,1.51-1.59,1.94-2.54s.65-1.96,.65-3.02v-7.44c0-.38,.08-.63,.23-.76,.15-.13,.41-.19,.76-.19h5.32c.35,0,.61,.06,.76,.19,.15,.13,.23,.38,.23,.76v7.44c0,1.06,.21,2.07,.65,3.02,.43,.95,1.08,1.8,1.94,2.54,.86,.75,1.93,1.37,3.21,1.88,1.28,.51,2.75,.85,4.42,1.03,.35,.05,.58,.14,.68,.27,.1,.13,.15,.43,.15,.91v4.44c0,.28-.04,.49-.13,.65-.09,.15-.2,.27-.34,.34-.14,.08-.28,.11-.42,.11h-.36c-1.59-.15-3.1-.42-4.52-.82-1.42-.39-2.7-.86-3.85-1.41-1.15-.54-2.16-1.15-3.02-1.82-.86-.67-1.54-1.35-2.05-2.03-.51,.68-1.19,1.36-2.05,2.03-.86,.67-1.87,1.28-3.04,1.82-1.17,.54-2.45,1.01-3.85,1.41-1.41,.39-2.91,.66-4.5,.82Z"/><path class="m" d="M295.83,298.7c0,.38-.08,.63-.23,.76-.15,.13-.41,.19-.76,.19h-6.26c0,.1,0,.2,.02,.29,.01,.09,.02,.16,.02,.21,.03,.73,.21,1.24,.57,1.52s.92,.39,1.71,.34c.81-.05,1.69-.1,2.64-.15,.95-.05,1.9-.15,2.87-.3,.35-.05,.59,0,.72,.13,.13,.14,.21,.4,.27,.78l.38,3.49c.05,.38-.01,.62-.19,.72-.18,.1-.44,.18-.8,.23-1.49,.2-2.95,.36-4.37,.46-1.42,.1-2.85,.15-4.29,.15-2.43,0-4.17-.65-5.22-1.96-1.05-1.3-1.58-3.38-1.58-6.25,0-1.75,0-3.64,.02-5.69,.01-2.05,.06-3.95,.13-5.7,.02-.38,.11-.63,.25-.76,.14-.13,.38-.19,.74-.19h13.9c.35,0,.61,.06,.76,.19,.15,.13,.23,.38,.23,.76v3.49c0,.38-.08,.63-.23,.76-.15,.13-.41,.19-.76,.19h-7.82v1.9h6.3c.35,0,.61,.06,.76,.19,.15,.13,.23,.38,.23,.76v3.49Zm18.79,19.82c0,1.59-.34,2.75-1.02,3.46-.68,.71-1.71,1.06-3.08,1.06h-22.86c-1.37,0-2.39-.35-3.08-1.06s-1.03-1.86-1.03-3.46v-8.2c0-.38,.08-.63,.23-.76,.15-.13,.41-.19,.76-.19h29.08c.35,0,.61,.06,.76,.19s.23,.38,.23,.76v8.2Zm-8.09-1.25c.43,0,.72-.08,.87-.25,.15-.17,.23-.49,.23-.97v-1.1h-17.16v1.1c0,.48,.08,.8,.23,.97,.15,.16,.44,.25,.87,.25h14.96Zm-9.83-22.33c0-.38,.08-.63,.23-.76,.15-.13,.4-.19,.76-.19h1.97v-6.07c0-.38,.08-.63,.23-.76,.15-.13,.4-.19,.76-.19h4.75c.35,0,.61,.06,.76,.19,.15,.13,.23,.38,.23,.76v18.76c0,.38-.08,.63-.23,.76-.15,.13-.41,.19-.76,.19h-4.75c-.36,0-.61-.06-.76-.19-.15-.13-.23-.38-.23-.76v-6.91h-1.97c-.35,0-.61-.06-.76-.19-.15-.13-.23-.38-.23-.76v-3.87Zm12.15,12.68c-.36,0-.61-.06-.76-.19-.15-.13-.23-.38-.23-.76v-18.76c0-.38,.08-.63,.23-.76,.15-.13,.4-.19,.76-.19h4.75c.35,0,.61,.06,.76,.19,.15,.13,.23,.38,.23,.76v18.76c0,.38-.08,.63-.23,.76-.15,.13-.41,.19-.76,.19h-4.75Z"/></g><rect class="m" x="167.67" y="271.4" width="9.19" height="9.19" rx="2" ry="2"/><rect class="m" x="222.48" y="271.4" width="9.19" height="9.19" rx="2" ry="2"/><rect class="m" x="258.23" y="271.4" width="9.19" height="9.19" rx="2" ry="2"/><rect class="m" x="293.97" y="271.4" width="9.19" height="9.19" rx="2" ry="2"/><rect class="m" x="96.18" y="271.4" width="9.19" height="9.19" rx="2" ry="2"/><rect class="m" x="131.93" y="271.4" width="9.19" height="9.19" rx="2" ry="2"/></g></g></g></svg>