<?xml version="1.0" encoding="UTF-8"?><svg xmlns="http://www.w3.org/2000/svg" xmlns:xlink="http://www.w3.org/1999/xlink" viewBox="0 0 400 356"><defs><style>.e{fill:#fff;}.f{opacity:.5;}.g{fill:#557cbd;}.h{fill:#23264a;}.i{clip-path:url(#c);}.j{fill:#f8f6f5;}.k{clip-path:url(#d);}.l{fill:none;}.m{fill:#093974;}</style><clipPath id="c"><circle class="l" cx="-219.26" cy="135.02" r="121.81"/></clipPath><clipPath id="d"><rect class="l" x="-8.4" y="-7.21" width="416.21" height="370.43"/></clipPath></defs><g id="a"/><g id="b"><g class="i"><g class="f"><ellipse class="e" cx="-184.89" cy="146.05" rx="203.35" ry="149.15"/></g></g><rect class="e" x="-8.4" y="-7.21" width="416.21" height="370.43"/><g class="k"><g><g><path class="g" d="M234.93,360c-.98,1.41-2.48,.96-3.79,.96-19.99,.03-39.98,.3-59.95-.16-6.15-.14-12.47,.08-18.57-1.46,.03-7.38,.2-14.76,.07-22.14-.39-21.53-.86-43.05-1.38-64.57-.09-3.53,.7-6.5,3-9.31,2.02-2.47,4.33-4.91,5.72-8.57-2.43,.71-3.04,2.34-3.94,3.57-8.2,11.14-16.38,22.3-24.49,33.5-3.04,4.2-6.51,7.8-11.04,10.51-6.07,3.63-12.48,4.67-18.52,1.28-6.03-3.38-6.81-9.78-6.27-16.19,.97-11.66,4.21-22.84,7.46-34,2.26-7.76,4.74-15.45,7.34-23.87,6.71,8.09,13.96,10.14,23.13,3.5-4.8,19.4-.25,38.93-9.33,56.96,2.04-.35,2.26-1.11,2.57-1.77,2.45-5.14,3.51-10.65,4.4-16.23,1.52-9.55,.53-19.27,2.15-28.8,.85-5.03,1.79-10.03,3-15.01,.94-3.88,.93-8.01,2.77-11.74,4.91-9.9,12.47-15.83,23.86-16.1,5.64-.13,11.32-.25,16.8-1.53,4-.94,5.93,.08,8.24,3.57,9.64,14.6,29.11,17.51,42.3,6.6,1.49-1.23,2.39-.68,3.59-.07,6.05,3.05,11.79,6.57,17.03,10.9,4.31,3.56,7.76,7.65,9.82,12.98,3.52,9.09,7.47,18.01,11.05,27.08,5.72,14.5,13,28.46,15.63,44.05,.13,.76,.4,1.47,1.36,1.52,0,.48,0,.95,0,1.43-2.06-.13-1.57,1.6-1.83,2.65-1.8,7.47-3.52,14.95-5.48,23.33-3.87-8.63-10.16-10.08-17.74-8.22-2.45,.6-2.77-.18-2.2-2.41,1.02-3.99,1.78-8.05,2.65-12.08,1.59-7.4,3.77-9.5,11.26-10.86,.12-.02,.18-.39,.26-.6-3.69-1.36-6.91-.33-10.18,3.74-1.48,1.84-2.03,1.57-3-.28-1.85-3.54-3.5-7.29-5.9-10.43-5.31-6.93-6.54-14.4-4.79-22.79,.83-3.97,.74-8.13,1.12-12.93-1.68,2.22-2.14,4.45-2.53,9.67-1.42,19.34-3,38.67-1.66,58.09,.14,1.99-.41,2.87-2.46,3.3-3.16,.67-6.27,1.68-9.34,2.7-1.39,.46-3,1.08-2.46,3.13,.47,1.8,1.96,2.07,3.54,2.15,2.45,.12,4.61-1.09,6.93-1.47,1.9-.32,3.99-.15,4.48,2.21,.44,2.14,.85,4.21-2.5,5.08-4.62,1.2-8.63,3.88-12.26,7.03-1.44,1.24-2.47,2.84-1.45,4.6,1.14,1.98,2.89,.66,4.29,.08,4.16-1.71,4.14-1.75,5.96-1.44-3.16,2.76-8.25,3.58-8.69,8.89Zm-77.53-152.2c6.43,10.04,6.65,21.02,4.86,32.32,4.04-6.89,2.38-28.19-4.86-32.32Z"/><path d="M195.5,164.89c.29,.38,.82,.75,.83,1.13,.22,7.98-.87,20.6-4.41,27.82-.37,.75-.99,1.68-1.7,1.91-4.06,1.33-2.58,3.31-1,5.69,10.6,16.01,28.36,13.76,38.1,8.14,2.26-1.3,3.2-2.41,.32-4.41-3.74-2.59-4.04-6.64-3.23-10.79-12.7-.76-24.45-10.69-25.39-21.35,.64-2.25,1.74,1.34,2.1,2.65,1.7,6.14,5.82,9.92,10.61,13.39,7.29,5.29,14.67,4.63,20.84-1.9,4.99-5.27,8.22-11.58,10.82-18.27,.43-1.11,.33-2.58,1.81-3.09,.23,.99,.33,1.95-.06,2.94-3.74,9.37-7.84,18.44-17.06,23.93-2.94,1.76-3.31,6.52-.94,9.66,1.56,2.06,3.76,3.23,6.02,4.34,8.47,4.12,16.51,8.88,23.14,15.72,2.37,2.45,4.2,5.2,5.5,8.4,7.33,18.04,14.9,35.99,22.09,54.09,2.6,6.56,4.95,13.31,5.04,20.54-.96-.05-1.23-.76-1.36-1.52-2.64-15.6-9.91-29.55-15.63-44.05-3.58-9.07-7.53-17.99-11.05-27.08-2.07-5.33-5.51-9.41-9.82-12.98-5.24-4.33-10.98-7.84-17.03-10.9-1.2-.6-2.1-1.16-3.59,.07-13.2,10.91-32.66,8-42.3-6.6-2.31-3.49-4.24-4.51-8.24-3.57-5.47,1.28-11.16,1.4-16.8,1.53-11.39,.27-18.95,6.2-23.86,16.1-1.85,3.73-1.84,7.86-2.77,11.74-1.21,4.98-2.14,9.98-3,15.01-1.62,9.53-.63,19.26-2.15,28.8-.89,5.58-1.95,11.08-4.4,16.23-.31,.66-.53,1.42-2.57,1.77,9.08-18.04,4.53-37.56,9.33-56.96-9.17,6.64-16.42,4.59-23.13-3.5-2.6,8.42-5.08,16.11-7.34,23.87-3.25,11.16-6.49,22.34-7.46,34-.54,6.4,.24,12.81,6.27,16.19,6.04,3.39,12.46,2.36,18.52-1.28,4.53-2.71,8-6.32,11.04-10.51,8.12-11.2,16.29-22.36,24.49-33.5,.91-1.23,1.51-2.86,3.94-3.57-1.38,3.66-3.69,6.1-5.72,8.57-2.3,2.82-3.08,5.79-3,9.31,.52,21.52,1,43.05,1.38,64.57,.13,7.38-.04,14.76-.07,22.14-.69,.59-1.44,.79-1.53-.37-.12-1.49,.03-3,.06-4.5,.48-27.18-1.17-54.33-1.42-81.5,0-.57,.15-1.26-.99-1.76-4.05,5.53-8.18,11.1-12.25,16.71-4.63,6.38-9.03,12.91-16.43,16.62-5.71,2.86-11.59,3.55-17.41,1.28-6.27-2.44-8.22-8.19-8.49-14.3-.41-9.49,2.19-18.58,4.49-27.67,3.24-12.82,7.25-25.41,11.58-37.9,.56-1.63,1.35-3.27,2.86-3.75,3.34-1.08,3.86-3.77,4.7-6.54,4.02-13.3,2.3-26.8,1.58-40.28-.29-5.5-.54-11-.63-16.51-.03-2.06-.17-4.66,3.38-3.73,1.37,.36,1.24-.92,1.52-1.64,1.09-2.79,2.04-5.64,3.19-8.41,.54-1.3,.89-3.26,2.9-2.83,1.98,.42,1.47,2.31,1.59,3.75,.05,.59,.11,1.18,.2,2.12,2.61-1.58,3.54-4.16,5.3-5.96,.91-.93,1.41-2.71,3.16-2.01,1.65,.66,1.77,2.36,1.66,3.86-.3,3.96-2.04,7.44-3.86,10.88-.64,1.21-1.32,2.4-1.98,3.59-.25,.35-.66,.66-.3,1.15,.34,.46,.75,.33,1.16,.09,6.68-2.86,11.99,1.23,17.64,3.51,1.72,.7,2.92,2.23,4.68,3.03,1.91,.87,1.69,2.88,1.32,4.63-.74,3.46-2.16,6.69-4.19,9.54-5,6.99-6.64,15.58-11.12,22.8-.25,.41-.56,.97-.04,1.31,.36,.23,.99,.32,1.38,.16,.68-.27,1.28-.75,1.88-1.18,4.49-3.27,9.49-4.79,15.05-4.85,7.12-.07,14.19-.7,21.19-2.22,4.28-.93,6.75-3.29,7.93-7.42,1.59-5.55,2.47-16.07,2.49-21.86,0-.82-.46-1.78,.65-2.28Zm-74.49-8.79c-1.32,2.88-.92,5.02-.82,7.08,.35,7.19,.69,14.38,1.32,21.55,1.32,15.1-.19,29.73-6.59,43.66-.42,.92-1.29,2-.22,3.11,2.76,2.85,6.03,4.56,10.08,3.89,3.4-.56,6.46-1.62,7.71-5.5,1.38-4.27,2.89-8.53,4.74-12.62,5.96-13.19,11.08-26.78,18.45-39.32,1.31-2.24,2.14-4.78,3-7.25,.34-.99,.61-2.39-.61-3.06-.98-.53-1.9,.3-2.68,.85-2.84,2.03-4.51,4.97-6.05,8.01-1.85,3.65-4.15,6.87-8.21,8.34-3.86,1.4-7.92,.16-8.95-3.05-1.46-4.54-.06-8.66,2.78-12.28,2.61-3.34,5.99-4.86,10.27-3.65,2.29,.65,4.58,1.28,6.85,1.97,1.35,.41,2.39-.39,2.88-1.23,.74-1.29-.88-1.53-1.57-2.03-2.38-1.71-5.27-2.26-7.95-3.27-6.87-2.58-12.27,.65-13.53,7.95-.23,1.32-.06,2.85-1.08,3.97-1.01-.57-.82-1.21-.76-1.81,.54-5.83,2.42-11.16,5.55-16.15,2.48-3.94,4.68-8.1,3.89-13.17-3.97,4.49-8.59,8.75-9.95,14.58-1.3,5.55-.97,11.49-1.35,17.26-2.02-10-.04-19.73,1.35-29.53-2.59,3.44-3.41,7.5-4.95,11.26-.46,1.11-1.59,2.05-1.22,3.44,2.38,9.02,2.56,18.63,7.44,26.99,1.82,3.13,3.06,6.58,3.9,10.12,.38,1.58,.96,3.3-.72,5.6-.47-5.48-1.87-9.97-4.14-14.06-3.03-5.45-4.54-11.32-5.79-17.34-.93-4.46-1.14-9.1-3.06-14.3Zm30.61,13.22c-2.22-.64-3.99-1.19-5.78-1.67-4.76-1.26-7.89-.05-10.53,4.04-2.8,4.34-2.88,9.4-.18,11.28,2.95,2.06,7.83,.41,10.82-3.98,2.02-2.96,3.65-6.19,5.68-9.67Zm-39.14,59.5c1.79-1.8,2.24-3.73,2.85-6.22-2.6,1.54-4.54,2.75-2.85,6.22Z"/><path d="M234.93,360c.44-5.31,5.53-6.13,8.69-8.89-1.82-.31-1.81-.27-5.96,1.44-1.41,.58-3.15,1.9-4.29-.08-1.01-1.76,.02-3.35,1.45-4.6,3.63-3.15,7.65-5.82,12.26-7.03,3.35-.87,2.94-2.95,2.5-5.08-.49-2.36-2.58-2.52-4.48-2.21-2.33,.39-4.49,1.6-6.93,1.47-1.57-.08-3.07-.35-3.54-2.15-.53-2.05,1.08-2.67,2.46-3.13,3.08-1.02,6.18-2.03,9.34-2.7,2.04-.43,2.59-1.32,2.46-3.3-1.34-19.41,.24-38.75,1.66-58.09,.38-5.22,.85-7.46,2.53-9.67-.38,4.8-.29,8.96-1.12,12.93-1.75,8.39-.52,15.86,4.79,22.79,2.41,3.14,4.05,6.89,5.9,10.43,.97,1.85,1.52,2.12,3,.28,3.27-4.07,6.48-5.09,10.18-3.74-.09,.21-.14,.58-.26,.6-7.48,1.36-9.67,3.46-11.26,10.86-.87,4.03-1.63,8.09-2.65,12.08-.57,2.23-.24,3.01,2.2,2.41,7.59-1.85,13.87-.4,17.74,8.22,1.96-8.38,3.69-15.87,5.48-23.33,.25-1.05-.23-2.78,1.83-2.65-1.32,9.26-4,18.21-5.98,27.33-.76,3.51-1.01,7.44-5.61,8.59-.52,.13-.71,1.51-1.1,2.29-1.89,3.8-3.73,7.61-5.71,11.37-2.13,4.05-4.75,7.18-10.15,6.63-2.75-.28-5.23,1.47-7.55,2.98-1.04,.68-2.04,1.45-3.15,2.02-1.95,1-4.22,1.84-5.81-.2-1.54-1.98,.36-3.66,1.36-5.33,.73-1.22,3.21-2.02,2.35-3.33-1.3-1.99-3.09,.21-4.64,.6-2.69,.69-5.28,2.68-8.02,.17Zm-.16-7.78c4.14-2.07,7.88-4.13,12.06-4.81,4.07-.66,8.16-2,12.37-.55-8.37,2.64-16.51,5.33-22.96,12.35,3.05,.8,4.92-.38,6.77-1.31,4.21-2.1,8.69-3.13,13.33-3.5,.85-.07,2.18-.87,2.54,.56,.24,.96-.99,1.26-1.68,1.74-2.98,2.08-6.65,3-9.33,5.51-1.36,1.27-3.72,2.96-2.26,4.77,1.35,1.67,3.41-.28,4.89-1.3,3.23-2.21,6.51-4.51,10.6-4.17,3.11,.25,4.98-1.08,6.51-3.43,4.88-7.48,8.14-15.72,11.29-24.02,.52-1.37,.22-2.67-.58-3.92-2.47-3.9-9.62-6.09-13.78-4.13-.42,.2-1.01,.59-1.04,.93-.36,4.13-3.47,7.98-.54,12.49,2.13,3.28,3.67,7.05,4.02,11.12-2.34-3.81-4.1-7.86-6.08-11.8-5.29-10.55-8.84-12.08-19.94-8.64-1.64,.51-4.81,.69-4.24,2.44,.71,2.19,3.48,.69,5.29,.19,6.38-1.77,8.74-.51,11.37,5.56,.85,1.97,.39,2.25-1.38,2.66-5.56,1.26-10.64,3.61-15.05,7.27-1.01,.84-2.4,1.49-2.18,3.99Zm23.41-21.2c1.24-5.64,2.04-10.98,3.64-16.07,1.78-5.69,1.01-10.56-2.3-15.47-2.99-4.45-5.43-9.27-8.1-13.93-1.62,13.01-1.7,25.74-1.03,38.47,.06,1.17-.22,2.6,1.56,2.97,2.44,.51,4.04,2.39,6.24,4.04Z"/><path d="M157.41,207.79c7.23,4.13,8.89,25.43,4.86,32.32,1.8-11.3,1.57-22.28-4.86-32.32Z"/><path d="M214.83,173.92c-.15-1.5,.01-2.49,2-1.76,4.57,1.68,9.26,2.99,14.09,3.68,2.03,.29,1.73,1.12,.99,2.47-2.32,4.26-6.28,6.5-10.02,5.58-3.97-.98-6.92-5.16-7.06-9.97Zm1.68,0c.89,5.42,3.45,8.77,6.79,8.69,3.38-.08,5.53-2.11,6.92-5.38-4.81-.51-9-2.09-13.72-3.31Z"/><path d="M231.77,157.57c-2.85,3.02-3.14,6.22-2.06,10.04,.58,2.05-1.01,3.29-4.22,3.14,3.17-1.94,2.78-3.95,2.05-6.39-1.02-3.41,1.53-5.23,4.23-6.79Z"/><path class="j" d="M216.51,173.92c4.72,1.22,8.91,2.8,13.72,3.31-1.39,3.26-3.54,5.3-6.92,5.38-3.35,.08-5.9-3.26-6.79-8.69Z"/><g><path d="M204.63,123.36c1.41-4.76,4.48-7.9,9.23-9.35,3.96-1.21,7.98-1.74,12.14-1.12,3.85,.58,7.72,.96,12.3,1.52-1.82,.37-3.16,.96-4.45,.85-3.13-.26-6.22-.95-9.34-1.28-4.52-.49-8.85,.35-12.93,2.37-2.43,1.21-4.02,3.18-5.18,5.61-.28,.59-1.19,.88-1.81,1.31l.04,.09Z"/><path d="M248.43,155.26c.16-.6,.26-1.23,.51-1.79,1.41-3.18,2.78-6.38,4.29-9.51,2.35-4.88,1.74-9.53-.83-14.08-.75-1.33-1.6-2.6-2.41-3.9l.43-.44c.4,.28,.91,.48,1.18,.85,4.07,5.51,5.84,11.39,2.8,18.01-1.54,3.35-3.04,6.71-4.59,10.05-.19,.4-.55,.72-.84,1.07l-.55-.25Z"/><path d="M201.86,149.17c.33-.35,.61-.77,.99-1.05,2.97-2.24,4.96-5.16,6.41-8.58,1.48-3.46,3.23-6.83,6.51-9,.74-.49,1.72-.63,2.59-.93l.28,.72c-1.03,.72-2.11,1.37-3.08,2.16-3.09,2.51-4.26,6.24-6.19,9.52-1.52,2.59-3.78,4.74-5.76,7.05-.3,.35-.89,.44-1.34,.65l-.41-.53Z"/><path d="M246.7,148.37c-.35,.12-.76,.44-1.02,.34-2.52-.95-5.14-2.03-6.02-4.8-.95-2.99-2.91-4.84-5.48-6.32-1.43-.82-2.8-1.74-4.2-2.62l.2-.51c.34-.02,.78-.18,1.02-.03,3.92,2.4,8.26,4.2,9.9,9.26,.48,1.49,2.75,2.41,4.24,3.54,.39,.3,.93,.4,1.4,.59l-.04,.54Z"/><path d="M202.25,126.65c-4.5,6.4-2.74,13.35-2.89,20.55-3.26-4.4-1.15-19.57,2.89-20.55Z"/><path d="M197.18,162.31c-2.48-.22-4.09-1.59-5.14-3.56-1.5-2.8-1.54-5.8-.57-8.74,.92-2.79,4.14-3.52,6.3-1.27-.65-.03-1.07,.02-1.46-.07-2.47-.58-3.74,.25-4.2,2.76-.85,4.63,.43,7.5,4.51,10.19,.24,.16,.38,.45,.57,.69Z"/><path d="M251.59,122.98c-1.72,1.22-3.11,1.25-4.1-.04-2.73-3.55-6.05-5.63-10.7-5.05-.21,.03-.45-.23-.78-.92,.73-.19,1.47-.57,2.2-.55,3.66,.13,6.71,1.62,9.11,4.4,1.66,1.92,1.64,1.94,4.27,2.15Z"/><path d="M231.14,131.75c-4.32-.32-8.42,.08-12.01,3.7,1.28-4.4,8.21-6.45,12.01-3.7Z"/><path d="M217.11,157.4l1.29-1.2c-.09-.86-.47-1.53-1.08-1.7-1.47-.4-2.11,1.1-2.53,2.62-.4,1.45,.08,2.63,1.02,2.88,.73,.2,1.56-.39,2.09-1.38l-.79-1.22Z"/><path d="M245.59,149.21c1.52,2.6,1.46,10.54-.03,12.14-.26-2.41,.28-7.98-.57-12.07l.6-.07Z"/><path d="M209.75,131.65c-1.8,.08-4.3-2.72-3.98-4.15,.05-.21,.29-.49,.49-.54,.2-.04,.55,.1,.67,.28,.92,1.39,1.81,2.81,2.82,4.41Z"/><path d="M194.75,153.36c2.04,.54,3.03,2.38,2.6,3.88-.69-1.04-1.6-2.38-2.6-3.88Z"/><path d="M237.04,161.82l1.19-1.11c-.08-.8-.44-1.42-1-1.57-1.36-.37-1.96,1.02-2.34,2.43s.08,2.43,.95,2.67c.68,.19,1.45-.36,1.94-1.28l-.73-1.13Z"/><path d="M212.81,148.07s5.01-1.44,7.05-.88,3.92,3.7,3.92,3.7c0,0-3.2-1.99-4.65-2.17s-6.31-.65-6.31-.65Z"/><path d="M234.76,152.62s3.27-.63,4.68,0,2.92,2.68,2.92,2.68c0,0-1.64-1.51-2-1.48s-2.12-.46-2.12-.46l-3.48-.75Z"/></g></g><g><path class="h" d="M175.74,258.28c0-.21,.04-.34,.12-.41,.08-.07,.22-.1,.41-.1h10.75c.19,0,.33,.03,.41,.1,.08,.07,.12,.21,.12,.41v2.41c0,.21-.04,.34-.12,.41s-.22,.1-.41,.1h-3.41v.8c0,.4,.05,.79,.14,1.16s.27,.73,.54,1.05c.26,.32,.61,.61,1.05,.86,.44,.25,1,.45,1.69,.59,.05,.01,.12,.03,.2,.04,.08,.01,.15,.04,.22,.09,.07,.05,.13,.12,.17,.21,.05,.09,.07,.22,.07,.38v2.28c0,.25-.06,.39-.2,.44-.13,.05-.24,.07-.34,.05-.48-.04-.97-.11-1.47-.22-.5-.1-.99-.25-1.47-.43-.48-.18-.94-.42-1.38-.71s-.83-.63-1.17-1.03c-.36,.4-.75,.74-1.18,1.03-.43,.29-.89,.52-1.37,.71-.48,.19-.97,.33-1.47,.43-.5,.1-.99,.17-1.47,.22-.1,.01-.21,0-.34-.05-.13-.05-.2-.2-.2-.44v-2.28c0-.16,.02-.29,.07-.38s.11-.16,.17-.21c.07-.05,.14-.08,.22-.09s.14-.03,.2-.04c.69-.14,1.25-.33,1.69-.59,.44-.25,.79-.54,1.05-.86,.26-.32,.44-.67,.54-1.05,.1-.38,.14-.76,.14-1.16v-.8h-3.43c-.19,0-.33-.03-.41-.1s-.12-.21-.12-.41v-2.41Zm18.3,17.89c.03,.21,0,.34-.1,.39s-.24,.1-.43,.12c-.95,.1-1.94,.18-2.98,.26-1.04,.08-2.09,.14-3.14,.2-1.05,.05-2.08,.1-3.09,.12-1.01,.03-1.96,.04-2.84,.04-1.32,0-2.26-.35-2.83-1.06-.57-.71-.85-1.83-.85-3.38v-2.26c0-.21,.04-.34,.12-.41,.08-.07,.22-.1,.41-.1h2.88c.19,0,.33,.03,.41,.1s.12,.21,.12,.41v1.87c0,.49,.1,.86,.31,1.09,.21,.23,.58,.34,1.13,.33,.74-.01,1.54-.04,2.38-.07s1.71-.08,2.59-.12c.88-.05,1.75-.11,2.63-.18s1.72-.15,2.53-.24c.19-.03,.32,0,.39,.08,.07,.08,.12,.23,.14,.43l.21,2.38Zm-3.64-4.83c-.19,0-.33-.03-.41-.1-.08-.07-.12-.21-.12-.41v-5.67h-2.08c-.19,0-.33-.03-.41-.1-.08-.07-.12-.21-.12-.41v-2.38c0-.21,.04-.34,.12-.41,.08-.07,.22-.1,.41-.1h2.08v-3.45c0-.21,.04-.34,.12-.41,.08-.07,.22-.1,.41-.1h2.88c.19,0,.33,.03,.41,.1,.08,.07,.12,.21,.12,.41v12.54c0,.21-.04,.34-.12,.41s-.22,.1-.41,.1h-2.88Z"/><path class="h" d="M196.48,266.92c0-.21,.04-.34,.12-.41s.22-.1,.41-.1h17.35c.19,0,.33,.04,.41,.1s.12,.21,.12,.41v2.41c0,.21-.04,.34-.12,.41s-.22,.1-.41,.1h-6.5v2.49c0,.21-.04,.34-.12,.41-.08,.07-.22,.1-.41,.1h-2.88c-.19,0-.33-.03-.41-.1-.08-.07-.12-.21-.12-.41v-2.49h-6.91c-.19,0-.33-.03-.41-.1s-.12-.21-.12-.41v-2.41Zm17.11-3.78c0,.86-.18,1.49-.55,1.87s-.93,.58-1.67,.58h-11.37c-.74,0-1.29-.19-1.67-.58s-.55-1.01-.55-1.87v-4.85c0-.21,.04-.34,.12-.41,.08-.07,.22-.1,.41-.1h14.74c.19,0,.33,.03,.41,.1,.08,.07,.12,.21,.12,.41v4.85Zm.43,13.28c.03,.21,0,.35-.09,.42-.09,.07-.24,.13-.46,.15-1.96,.19-3.93,.3-5.9,.33s-3.98,.02-6.02-.02c-1.32-.03-2.26-.39-2.83-1.08-.57-.69-.85-1.81-.85-3.36v-1.6c0-.21,.04-.34,.12-.41s.22-.1,.41-.1h2.88c.19,0,.33,.04,.41,.1s.12,.21,.12,.41v1.21c0,.49,.1,.85,.31,1.07,.21,.22,.58,.33,1.13,.35,1.67,.03,3.32,.02,4.95-.02,1.63-.04,3.3-.14,5-.29,.19-.03,.34,0,.43,.06s.16,.22,.19,.45l.21,2.32Zm-4.77-13.96c.23,0,.39-.04,.47-.13,.08-.09,.12-.26,.12-.52v-1.01h-8.33v1.01c0,.26,.04,.43,.12,.52,.08,.09,.24,.13,.47,.13h7.13Z"/><path class="h" d="M216.26,258.28c0-.21,.04-.34,.12-.41,.08-.07,.22-.1,.41-.1h7.09c.52,0,.97,.06,1.34,.19,.37,.12,.67,.33,.92,.61,.24,.28,.41,.64,.51,1.09s.15,.99,.13,1.63c-.01,.93-.09,1.99-.22,3.17-.13,1.18-.3,2.41-.5,3.7-.21,1.29-.44,2.59-.71,3.92-.27,1.32-.54,2.59-.83,3.79-.05,.21-.11,.35-.16,.44s-.18,.11-.37,.07l-2.86-.6c-.1-.01-.18-.03-.26-.05s-.14-.06-.2-.11-.08-.13-.09-.22c0-.09,0-.22,.05-.38,.29-1.04,.56-2.14,.82-3.3,.26-1.16,.49-2.29,.69-3.41,.2-1.12,.36-2.18,.48-3.2,.12-1.01,.19-1.91,.19-2.67,0-.52-.08-.86-.23-1.01-.15-.15-.4-.23-.76-.23h-5.04c-.19,0-.33-.03-.41-.1-.08-.07-.12-.21-.12-.41v-2.41Zm19.59,9.38c0,.21-.04,.34-.12,.41s-.22,.1-.41,.1h-1.89v8.2c0,.21-.04,.34-.12,.41-.08,.07-.22,.1-.41,.1h-2.88c-.19,0-.33-.03-.41-.1-.08-.07-.12-.21-.12-.41v-18.09c0-.21,.04-.34,.12-.41,.08-.07,.22-.1,.41-.1h2.88c.19,0,.33,.03,.41,.1,.08,.07,.12,.21,.12,.41v6.48h1.89c.19,0,.33,.03,.41,.1,.08,.07,.12,.21,.12,.41v2.39Z"/></g></g></g><g><path class="m" d="M45.3,54.12c0-.3,.06-.51,.18-.61,.12-.1,.32-.15,.61-.15h15.92c.28,0,.49,.05,.61,.15,.12,.1,.18,.3,.18,.61v3.56c0,.3-.06,.51-.18,.61-.12,.1-.33,.15-.61,.15h-5.05v1.19c0,.59,.07,1.16,.21,1.72,.14,.56,.41,1.08,.79,1.55,.39,.48,.9,.9,1.55,1.28s1.48,.67,2.5,.87c.08,.02,.18,.04,.29,.06,.11,.02,.22,.07,.32,.14,.1,.07,.19,.17,.26,.3,.07,.13,.11,.32,.11,.56v3.38c0,.37-.1,.58-.29,.65-.19,.07-.36,.1-.5,.08-.71-.06-1.44-.17-2.18-.32-.74-.15-1.47-.37-2.18-.64-.71-.27-1.39-.62-2.04-1.05-.65-.43-1.23-.93-1.74-1.52-.53,.59-1.11,1.1-1.75,1.52-.64,.43-1.31,.78-2.02,1.05-.71,.27-1.44,.49-2.18,.64-.74,.15-1.47,.26-2.18,.32-.14,.02-.31,0-.5-.08-.19-.07-.29-.29-.29-.65v-3.38c0-.24,.04-.43,.11-.56,.07-.13,.16-.23,.26-.3,.1-.07,.21-.12,.32-.14,.11-.02,.21-.04,.29-.06,1.01-.2,1.85-.49,2.5-.87s1.17-.8,1.55-1.28c.38-.48,.65-.99,.79-1.55,.14-.56,.21-1.13,.21-1.72v-1.19h-5.08c-.29,0-.49-.05-.61-.15s-.18-.3-.18-.61v-3.56Zm27.09,26.49c.04,.3,0,.5-.15,.58-.14,.08-.35,.14-.64,.18-1.4,.14-2.87,.27-4.41,.38-1.54,.11-3.09,.21-4.64,.29-1.55,.08-3.08,.14-4.58,.18-1.5,.04-2.9,.06-4.2,.06-1.95,0-3.34-.52-4.19-1.57-.84-1.05-1.26-2.71-1.26-5.01v-3.35c0-.3,.06-.51,.18-.61,.12-.1,.32-.15,.61-.15h4.26c.28,0,.49,.05,.61,.15,.12,.1,.18,.3,.18,.61v2.77c0,.73,.15,1.27,.46,1.61,.3,.34,.86,.51,1.67,.49,1.1-.02,2.27-.06,3.53-.11,1.26-.05,2.54-.11,3.84-.18,1.3-.07,2.6-.16,3.9-.27,1.3-.11,2.55-.23,3.74-.35,.28-.04,.48,0,.58,.12s.17,.33,.21,.64l.3,3.53Zm-5.39-7.15c-.29,0-.49-.05-.61-.15-.12-.1-.18-.3-.18-.61v-8.4h-3.07c-.29,0-.49-.05-.61-.15-.12-.1-.18-.3-.18-.61v-3.53c0-.3,.06-.51,.18-.61,.12-.1,.32-.15,.61-.15h3.07v-5.11c0-.3,.06-.51,.18-.61,.12-.1,.32-.15,.61-.15h4.26c.28,0,.49,.05,.61,.15,.12,.1,.18,.3,.18,.61v18.57c0,.3-.06,.51-.18,.61-.12,.1-.32,.15-.61,.15h-4.26Z"/><path class="m" d="M76.02,66.91c0-.3,.06-.51,.18-.61,.12-.1,.32-.15,.61-.15h25.69c.28,0,.49,.05,.61,.15s.18,.3,.18,.61v3.56c0,.3-.06,.51-.18,.61-.12,.1-.33,.15-.61,.15h-9.62v3.68c0,.3-.06,.51-.18,.61-.12,.1-.33,.15-.61,.15h-4.26c-.28,0-.49-.05-.61-.15-.12-.1-.18-.3-.18-.61v-3.68h-10.23c-.28,0-.49-.05-.61-.15-.12-.1-.18-.3-.18-.61v-3.56Zm25.33-5.6c0,1.28-.27,2.2-.82,2.77-.55,.57-1.37,.85-2.47,.85h-16.83c-1.1,0-1.92-.28-2.47-.85-.55-.57-.82-1.49-.82-2.77v-7.18c0-.3,.06-.51,.18-.61,.12-.1,.32-.15,.61-.15h21.83c.28,0,.49,.05,.61,.15,.12,.1,.18,.3,.18,.61v7.18Zm.64,19.67c.04,.3,0,.51-.14,.62-.13,.11-.36,.19-.68,.23-2.9,.28-5.81,.45-8.74,.49-2.92,.04-5.9,.03-8.92-.03-1.95-.04-3.34-.57-4.19-1.6-.84-1.02-1.26-2.68-1.26-4.98v-2.37c0-.3,.06-.51,.18-.61,.12-.1,.33-.15,.61-.15h4.26c.28,0,.49,.05,.61,.15,.12,.1,.18,.3,.18,.61v1.8c0,.73,.15,1.26,.46,1.58,.3,.32,.86,.5,1.67,.52,2.48,.04,4.92,.03,7.34-.03,2.42-.06,4.88-.2,7.4-.43,.28-.04,.5-.01,.64,.09,.14,.1,.23,.32,.27,.67l.3,3.44Zm-7.06-20.67c.34,0,.58-.07,.7-.2,.12-.13,.18-.39,.18-.78v-1.49h-12.33v1.49c0,.39,.06,.64,.18,.78,.12,.13,.36,.2,.7,.2h10.56Z"/><path class="m" d="M105.3,54.12c0-.3,.06-.51,.18-.61,.12-.1,.32-.15,.61-.15h10.5c.77,0,1.43,.09,1.98,.27,.55,.18,1,.48,1.36,.9,.35,.42,.61,.95,.76,1.61,.15,.66,.22,1.47,.2,2.42-.02,1.38-.13,2.94-.32,4.69-.19,1.75-.44,3.57-.75,5.48-.3,1.91-.65,3.84-1.05,5.8-.4,1.96-.81,3.83-1.23,5.62-.08,.3-.16,.52-.24,.65-.08,.13-.26,.17-.55,.11l-4.23-.88c-.14-.02-.27-.05-.38-.08s-.21-.09-.29-.17-.13-.19-.14-.32c-.01-.13,.01-.32,.08-.56,.43-1.54,.83-3.17,1.22-4.89,.38-1.71,.72-3.4,1.02-5.05,.29-1.65,.53-3.23,.71-4.73,.18-1.5,.27-2.82,.27-3.96,0-.77-.11-1.27-.33-1.49-.22-.22-.6-.33-1.13-.33h-7.46c-.28,0-.49-.05-.61-.15-.12-.1-.18-.3-.18-.61v-3.56Zm29.01,13.88c0,.3-.06,.51-.18,.61-.12,.1-.33,.15-.61,.15h-2.8v12.15c0,.3-.06,.51-.18,.61-.12,.1-.32,.15-.61,.15h-4.26c-.29,0-.49-.05-.61-.15-.12-.1-.18-.3-.18-.61v-26.79c0-.3,.06-.51,.18-.61,.12-.1,.32-.15,.61-.15h4.26c.28,0,.49,.05,.61,.15,.12,.1,.18,.3,.18,.61v9.59h2.8c.28,0,.49,.05,.61,.15,.12,.1,.18,.3,.18,.61v3.53Z"/><path class="m" d="M135.74,54.12c0-.3,.06-.51,.18-.61,.12-.1,.32-.15,.61-.15h10.5c.77,0,1.43,.09,1.98,.27,.55,.18,1,.48,1.36,.9,.35,.42,.61,.95,.76,1.61,.15,.66,.22,1.47,.2,2.42-.02,1.38-.13,2.94-.32,4.69-.19,1.75-.44,3.57-.75,5.48-.3,1.91-.65,3.84-1.05,5.8-.4,1.96-.81,3.83-1.23,5.62-.08,.3-.16,.52-.24,.65-.08,.13-.26,.17-.55,.11l-4.23-.88c-.14-.02-.27-.05-.38-.08s-.21-.09-.29-.17-.13-.19-.14-.32c-.01-.13,.01-.32,.08-.56,.43-1.54,.83-3.17,1.22-4.89,.38-1.71,.72-3.4,1.02-5.05,.29-1.65,.53-3.23,.71-4.73,.18-1.5,.27-2.82,.27-3.96,0-.77-.11-1.27-.33-1.49-.22-.22-.6-.33-1.13-.33h-7.46c-.28,0-.49-.05-.61-.15-.12-.1-.18-.3-.18-.61v-3.56Zm29.01,13.88c0,.3-.06,.51-.18,.61-.12,.1-.33,.15-.61,.15h-2.8v12.15c0,.3-.06,.51-.18,.61-.12,.1-.32,.15-.61,.15h-4.26c-.29,0-.49-.05-.61-.15-.12-.1-.18-.3-.18-.61v-26.79c0-.3,.06-.51,.18-.61,.12-.1,.32-.15,.61-.15h4.26c.28,0,.49,.05,.61,.15,.12,.1,.18,.3,.18,.61v9.59h2.8c.28,0,.49,.05,.61,.15,.12,.1,.18,.3,.18,.61v3.53Z"/><path class="m" d="M174.01,57.08c0-.3,.06-.51,.18-.61s.32-.15,.61-.15h3.56v-2.92c0-.3,.06-.51,.18-.61,.12-.1,.32-.15,.61-.15h4.26c.28,0,.49,.05,.61,.15,.12,.1,.18,.3,.18,.61v2.92h3.5c.28,0,.49,.05,.61,.15,.12,.1,.18,.3,.18,.61v3.26c0,.3-.06,.51-.18,.61-.12,.1-.32,.15-.61,.15h-12.91c-.28,0-.49-.05-.61-.15s-.18-.3-.18-.61v-3.26Zm7.21,23.41c-1.4,0-2.54-.26-3.41-.79-.87-.53-1.55-1.21-2.04-2.05s-.82-1.79-.99-2.85c-.17-1.05-.26-2.11-.26-3.17s.09-2.08,.26-3.14c.17-1.06,.5-2,.99-2.85,.49-.84,1.17-1.53,2.04-2.05,.87-.53,2.01-.79,3.41-.79s2.54,.26,3.41,.79c.87,.53,1.55,1.21,2.04,2.05,.49,.84,.82,1.79,.99,2.85,.17,1.06,.26,2.1,.26,3.14s-.09,2.11-.26,3.17c-.17,1.06-.5,2-.99,2.85s-1.17,1.53-2.04,2.05-2.01,.79-3.41,.79Zm0-4.87c.2,0,.4-.06,.59-.17,.19-.11,.37-.31,.52-.61,.15-.29,.27-.7,.35-1.22s.12-1.19,.12-2.02-.04-1.48-.12-2.01c-.08-.53-.2-.93-.35-1.22-.15-.28-.33-.48-.52-.59-.19-.11-.39-.17-.59-.17-.22,0-.43,.06-.61,.17s-.35,.31-.5,.59c-.15,.28-.27,.69-.35,1.22-.08,.53-.12,1.2-.12,2.01s.04,1.51,.12,2.02c.08,.52,.2,.92,.35,1.22,.15,.29,.32,.5,.5,.61,.18,.11,.39,.17,.61,.17Zm8.83,6.06c-.28,0-.49-.05-.61-.15-.12-.1-.18-.3-.18-.61v-26.79c0-.3,.06-.51,.18-.61,.12-.1,.32-.15,.61-.15h3.81c.28,0,.49,.05,.61,.15,.12,.1,.18,.3,.18,.61v9.59h1.34v-9.59c0-.3,.06-.51,.18-.61,.12-.1,.32-.15,.61-.15h3.81c.28,0,.49,.05,.61,.15,.12,.1,.18,.3,.18,.61v26.79c0,.3-.06,.51-.18,.61-.12,.1-.32,.15-.61,.15h-3.81c-.28,0-.49-.05-.61-.15-.12-.1-.18-.3-.18-.61v-12.15h-1.34v12.15c0,.3-.06,.51-.18,.61-.12,.1-.32,.15-.61,.15h-3.81Z"/><path class="m" d="M215.2,59.72c0-.49-.1-.82-.29-1-.19-.18-.47-.27-.84-.27h-7.82c-.28,0-.49-.05-.61-.15-.12-.1-.18-.3-.18-.61v-3.56c0-.3,.06-.51,.18-.61,.12-.1,.32-.15,.61-.15h11.51c1.36,0,2.29,.45,2.8,1.34h4.87v-.58c0-.3,.06-.51,.18-.61,.12-.1,.32-.15,.61-.15h4.26c.28,0,.49,.05,.61,.15,.12,.1,.18,.3,.18,.61v11.87c0,.3-.06,.51-.18,.61-.12,.1-.32,.15-.61,.15h-4.26c-.29,0-.49-.05-.61-.15-.12-.1-.18-.3-.18-.61v-.94h-5.08c-.04,.18-.07,.37-.08,.55,0,.18-.04,.37-.08,.55-.04,.3-.11,.52-.21,.64-.1,.12-.29,.16-.58,.12l-4.14-.46c-.28-.04-.5-.13-.64-.27-.14-.14-.18-.39-.12-.73,.26-1.34,.45-2.48,.55-3.42s.15-1.71,.15-2.3Zm16.44,21.28c.04,.24,0,.4-.15,.46-.14,.06-.36,.11-.64,.15-1.4,.14-2.79,.25-4.16,.33-1.37,.08-2.79,.15-4.25,.2-1.46,.05-2.99,.09-4.58,.11-1.59,.02-3.31,.03-5.16,.03s-3.27-.39-4.14-1.17c-.87-.78-1.31-2.04-1.31-3.79v-3.56c0-.28,.06-.48,.18-.58,.12-.1,.32-.15,.61-.15h17.96v-1.16h-17.96c-.28,0-.49-.05-.61-.15-.12-.1-.18-.29-.18-.58v-2.34c0-.3,.06-.51,.18-.61,.12-.1,.32-.15,.61-.15h22.44c.28,0,.49,.05,.61,.15,.12,.1,.18,.3,.18,.61v7.28c0,.3-.06,.51-.18,.61-.12,.1-.32,.15-.61,.15h-17.96v.33c0,.47,.12,.75,.37,.85,.24,.1,.62,.15,1.13,.15,1.71,0,3.3-.01,4.79-.03,1.49-.02,2.91-.05,4.26-.09s2.64-.09,3.87-.15c1.23-.06,2.44-.14,3.64-.24,.51-.02,.77,.17,.79,.58l.27,2.77Zm-10.65-21.95c-.04,.53-.07,1.08-.09,1.64h4.54v-1.64h-4.44Z"/><path class="m" d="M234.9,57.08c0-.3,.06-.51,.18-.61s.32-.15,.61-.15h3.56v-2.92c0-.3,.06-.51,.18-.61,.12-.1,.32-.15,.61-.15h4.26c.28,0,.49,.05,.61,.15,.12,.1,.18,.3,.18,.61v2.92h3.5c.28,0,.49,.05,.61,.15,.12,.1,.18,.3,.18,.61v3.26c0,.3-.06,.51-.18,.61-.12,.1-.32,.15-.61,.15h-12.91c-.28,0-.49-.05-.61-.15s-.18-.3-.18-.61v-3.26Zm7.21,23.41c-1.4,0-2.54-.26-3.41-.79-.87-.53-1.55-1.21-2.04-2.05s-.82-1.79-.99-2.85c-.17-1.05-.26-2.11-.26-3.17s.09-2.08,.26-3.14c.17-1.06,.5-2,.99-2.85,.49-.84,1.17-1.53,2.04-2.05,.87-.53,2.01-.79,3.41-.79s2.54,.26,3.41,.79c.87,.53,1.55,1.21,2.04,2.05,.49,.84,.82,1.79,.99,2.85,.17,1.06,.26,2.1,.26,3.14s-.09,2.11-.26,3.17c-.17,1.06-.5,2-.99,2.85s-1.17,1.53-2.04,2.05-2.01,.79-3.41,.79Zm0-4.87c.2,0,.4-.06,.59-.17,.19-.11,.37-.31,.52-.61,.15-.29,.27-.7,.35-1.22s.12-1.19,.12-2.02-.04-1.48-.12-2.01c-.08-.53-.2-.93-.35-1.22-.15-.28-.33-.48-.52-.59-.19-.11-.39-.17-.59-.17-.22,0-.43,.06-.61,.17s-.35,.31-.5,.59c-.15,.28-.27,.69-.35,1.22-.08,.53-.12,1.2-.12,2.01s.04,1.51,.12,2.02c.08,.52,.2,.92,.35,1.22,.15,.29,.32,.5,.5,.61,.18,.11,.39,.17,.61,.17Zm8.83,6.06c-.28,0-.49-.05-.61-.15-.12-.1-.18-.3-.18-.61v-26.79c0-.3,.06-.51,.18-.61,.12-.1,.32-.15,.61-.15h3.81c.28,0,.49,.05,.61,.15,.12,.1,.18,.3,.18,.61v9.59h1.34v-9.59c0-.3,.06-.51,.18-.61,.12-.1,.32-.15,.61-.15h3.81c.28,0,.49,.05,.61,.15,.12,.1,.18,.3,.18,.61v26.79c0,.3-.06,.51-.18,.61-.12,.1-.32,.15-.61,.15h-3.81c-.28,0-.49-.05-.61-.15-.12-.1-.18-.3-.18-.61v-12.15h-1.34v12.15c0,.3-.06,.51-.18,.61-.12,.1-.32,.15-.61,.15h-3.81Z"/><path class="m" d="M265.67,65.54c0-.3,.06-.51,.18-.61,.12-.1,.32-.15,.61-.15h25.69c.28,0,.49,.05,.61,.15,.12,.1,.18,.3,.18,.61v2.98c0,.3-.06,.51-.18,.61s-.33,.15-.61,.15h-9.92v1.37c0,.3-.06,.51-.18,.61-.12,.1-.33,.15-.61,.15h-4.26c-.28,0-.49-.05-.61-.15-.12-.1-.18-.3-.18-.61v-1.37h-9.92c-.28,0-.49-.05-.61-.15-.12-.1-.18-.3-.18-.61v-2.98Zm1.74-11.42c0-.3,.06-.51,.18-.61,.12-.1,.32-.15,.61-.15h22.16c.28,0,.49,.05,.61,.15,.12,.1,.18,.3,.18,.61v3.07c0,.3-.06,.51-.18,.61-.12,.1-.33,.15-.61,.15h-6.42c.77,.35,1.7,.61,2.8,.79,1.1,.18,2.32,.32,3.68,.43,.06,0,.14,.01,.24,.03,.1,.02,.2,.06,.29,.12,.09,.06,.17,.15,.23,.27,.06,.12,.09,.29,.09,.52v2.86c0,.22-.04,.4-.11,.52-.07,.12-.16,.21-.27,.26-.11,.05-.22,.08-.33,.09-.11,.01-.21,.02-.29,.02-2.82-.1-5.17-.43-7.05-.97s-3.2-1.27-3.97-2.16c-.77,.89-2.09,1.61-3.96,2.16s-4.21,.87-7.03,.97c-.08,0-.18,0-.29-.02s-.22-.04-.33-.09c-.11-.05-.2-.14-.27-.26-.07-.12-.11-.29-.11-.52v-2.86c0-.22,.03-.4,.09-.52,.06-.12,.14-.21,.23-.27,.09-.06,.19-.1,.29-.12,.1-.02,.18-.03,.24-.03,1.36-.1,2.59-.24,3.68-.43,1.1-.18,2.02-.45,2.77-.79h-6.36c-.28,0-.49-.05-.61-.15-.12-.1-.18-.3-.18-.61v-3.07Zm23.59,24.54c0,1.28-.27,2.2-.82,2.77-.55,.57-1.37,.85-2.47,.85h-16.83c-1.1,0-1.92-.28-2.47-.85-.55-.57-.82-1.49-.82-2.77v-7.49c0-.3,.06-.51,.18-.61,.12-.1,.32-.15,.61-.15h4.26c.28,0,.49,.05,.61,.15,.12,.1,.18,.3,.18,.61v1h11.72v-1c0-.3,.06-.51,.18-.61,.12-.1,.32-.15,.61-.15h4.26c.28,0,.49,.05,.61,.15,.12,.1,.18,.3,.18,.61v7.49Zm-6.73-.85c.34,0,.58-.07,.7-.2,.12-.13,.18-.39,.18-.78v-.64h-11.72v.64c0,.39,.06,.64,.18,.78s.35,.2,.7,.2h9.96Z"/><path class="m" d="M303.24,75.1c1.5-.04,2.94-.1,4.32-.17,1.38-.07,2.83-.18,4.35-.32,.28-.04,.48,0,.58,.11,.1,.11,.17,.32,.21,.62l.3,3.53c.04,.3,0,.5-.15,.58-.14,.08-.36,.14-.64,.18-2.01,.16-3.94,.29-5.8,.38-1.86,.09-3.76,.14-5.71,.14s-3.34-.52-4.19-1.57c-.84-1.05-1.26-2.71-1.26-5.01,0-1.79,.01-3.51,.03-5.18,.02-1.66,.04-3.29,.08-4.87,.03-1.58,.07-3.15,.12-4.7,.05-1.55,.12-3.12,.2-4.7,.02-.3,.09-.51,.2-.61,.11-.1,.31-.15,.59-.15h4.17c.28,0,.49,.05,.62,.15,.13,.1,.19,.3,.17,.61-.06,1.54-.12,3.07-.18,4.58-.06,1.51-.11,3.04-.14,4.58-.03,1.54-.05,3.12-.06,4.72-.01,1.6,0,3.27,.05,4.99,.02,.73,.18,1.27,.47,1.61,.29,.35,.85,.51,1.66,.49Zm12.79,6.58c-.29,0-.49-.05-.61-.15-.12-.1-.18-.3-.18-.61v-26.79c0-.3,.06-.51,.18-.61,.12-.1,.32-.15,.61-.15h4.26c.28,0,.49,.05,.61,.15,.12,.1,.18,.3,.18,.61v26.79c0,.3-.06,.51-.18,.61-.12,.1-.32,.15-.61,.15h-4.26Z"/><path class="m" d="M331.4,58.26c-.1,2.37-.16,4.75-.18,7.14-.02,2.38-.01,4.92,.03,7.6,.02,.73,.18,1.27,.47,1.61,.29,.35,.85,.51,1.66,.49,1.5-.04,2.94-.1,4.32-.17,1.38-.07,2.83-.18,4.35-.32,.28-.04,.48,0,.58,.11s.17,.32,.21,.62l.3,3.53c.04,.3-.01,.5-.15,.58-.14,.08-.36,.14-.64,.18-2.01,.16-3.94,.29-5.8,.38-1.86,.09-3.76,.14-5.71,.14s-3.34-.52-4.19-1.57c-.84-1.05-1.26-2.71-1.26-5.01,0-1.79,0-3.51,.03-5.18,.02-1.66,.05-3.29,.08-4.87s.07-3.15,.12-4.7c.05-1.55,.12-3.12,.2-4.7,.02-.3,.09-.51,.2-.61,.11-.1,.31-.15,.59-.15h14.49c.28,0,.49,.05,.61,.15,.12,.1,.18,.3,.18,.61v3.38c0,.3-.06,.51-.18,.61-.12,.1-.33,.15-.61,.15h-9.71Zm23.01,9.74c0,.3-.06,.51-.18,.61-.12,.1-.33,.15-.61,.15h-2.8v12.15c0,.3-.06,.51-.18,.61-.12,.1-.32,.15-.61,.15h-4.26c-.29,0-.49-.05-.61-.15-.12-.1-.18-.3-.18-.61v-26.79c0-.3,.06-.51,.18-.61,.12-.1,.32-.15,.61-.15h4.26c.28,0,.49,.05,.61,.15,.12,.1,.18,.3,.18,.61v9.59h2.8c.28,0,.49,.05,.61,.15,.12,.1,.18,.3,.18,.61v3.53Z"/></g><g><path d="M262.14,199.15c-.76-.43-1.34-1.03-1.76-1.81-.42-.78-.63-1.68-.63-2.71v-3.97c0-1.03,.21-1.93,.63-2.71,.42-.78,1-1.38,1.76-1.81,.76-.43,1.63-.64,2.63-.64s1.87,.21,2.63,.64c.76,.43,1.34,1.03,1.76,1.81,.42,.78,.63,1.68,.63,2.71v3.97c0,1.03-.21,1.93-.63,2.71-.42,.78-1,1.38-1.76,1.81-.76,.43-1.63,.64-2.63,.64s-1.87-.21-2.63-.64Zm4.02-1.99c.4-.23,.71-.56,.93-.99,.22-.43,.33-.92,.33-1.48v-4.1c0-.56-.11-1.05-.33-1.48-.22-.43-.53-.76-.93-.99-.4-.23-.87-.35-1.39-.35s-.99,.12-1.39,.35c-.4,.23-.71,.56-.93,.99-.22,.43-.33,.92-.33,1.48v4.1c0,.56,.11,1.05,.33,1.48,.22,.43,.53,.76,.93,.99,.4,.23,.86,.35,1.39,.35s.99-.12,1.39-.35Z"/><path d="M272.58,185.65h2.3v14h-2.3v-14Zm1.57,8.19l5.89-8.19h2.87l-8.74,11.38-.02-3.19Zm2.33-1.47l1.91-1.43,5.11,8.71h-2.76l-4.25-7.28Z"/></g></g></svg>