<?xml version="1.0" encoding="UTF-8"?><svg xmlns="http://www.w3.org/2000/svg" xmlns:xlink="http://www.w3.org/1999/xlink" viewBox="0 0 400 356"><defs><style>.d{fill:#fff;}.e{fill:#557cbd;}.f{clip-path:url(#c);}.g{fill:none;}.h{fill:#093974;}.i{fill:#b5b5b5;}</style><clipPath id="c"><rect class="g" y="0" width="400" height="356"/></clipPath></defs><g id="a"/><g id="b"><g class="f"><g><rect class="d" y="0" width="400" height="356"/><g><path class="h" d="M110.87,38.13c0-.38,.08-.63,.23-.76,.15-.13,.4-.19,.76-.19h13.07c.96,0,1.78,.11,2.46,.34s1.24,.6,1.69,1.12c.44,.52,.76,1.19,.95,2.01,.19,.82,.27,1.83,.25,3.01-.03,1.72-.16,3.66-.4,5.83-.24,2.17-.55,4.45-.93,6.82s-.82,4.78-1.31,7.22-1,4.77-1.53,6.99c-.1,.38-.2,.65-.3,.81-.1,.16-.33,.21-.68,.13l-5.27-1.1c-.18-.03-.33-.06-.47-.09-.14-.04-.26-.11-.36-.21-.1-.1-.16-.23-.17-.4-.01-.17,.02-.4,.09-.7,.53-1.92,1.04-3.95,1.52-6.08,.48-2.13,.9-4.23,1.27-6.29,.37-2.06,.66-4.02,.89-5.89,.23-1.87,.34-3.51,.34-4.93,0-.96-.14-1.58-.42-1.86-.28-.28-.75-.42-1.4-.42h-9.28c-.35,0-.61-.06-.76-.19-.15-.13-.23-.38-.23-.76v-4.43Zm36.11,17.28c0,.38-.08,.63-.23,.76-.15,.13-.4,.19-.76,.19h-3.49v15.12c0,.38-.08,.63-.23,.76-.15,.13-.4,.19-.76,.19h-5.3c-.35,0-.61-.06-.76-.19-.15-.13-.23-.38-.23-.76V38.13c0-.38,.08-.63,.23-.76,.15-.13,.4-.19,.76-.19h5.3c.35,0,.61,.06,.76,.19,.15,.13,.23,.38,.23,.76v11.93h3.49c.35,0,.61,.06,.76,.19,.15,.13,.23,.38,.23,.76v4.39Z"/><path class="h" d="M146.79,53.25c0-.38,.08-.63,.23-.76,.15-.13,.4-.19,.76-.19h31.98c.35,0,.61,.06,.76,.19,.15,.13,.23,.38,.23,.76v4.43c0,.38-.08,.63-.23,.76-.15,.13-.4,.19-.76,.19h-31.98c-.35,0-.61-.06-.76-.19-.15-.13-.23-.38-.23-.76v-4.43Zm16.97,21.14c-4.93,0-8.61-.57-11.06-1.71-2.45-1.14-3.67-2.94-3.67-5.42s1.24-4.27,3.73-5.4c2.49-1.12,6.16-1.69,11.01-1.69s8.52,.56,11.01,1.69c2.49,1.12,3.73,2.92,3.73,5.4s-1.23,4.28-3.67,5.42c-2.45,1.14-6.14,1.71-11.06,1.71Zm14.66-25.73c.05,.38-.01,.62-.19,.72-.18,.1-.44,.18-.8,.23-1.74,.18-3.54,.33-5.4,.46-1.86,.13-3.7,.23-5.53,.32-1.83,.09-3.64,.15-5.44,.19-1.79,.04-3.5,.06-5.11,.06-2.42,0-4.16-.65-5.21-1.95-1.05-1.3-1.57-3.38-1.57-6.23v-4.32c0-.38,.08-.63,.23-.76,.15-.13,.4-.19,.76-.19h5.3c.35,0,.61,.06,.76,.19,.15,.13,.23,.38,.23,.76v3.6c0,.91,.19,1.58,.57,2.01s1.07,.63,2.08,.61c2.75-.05,5.69-.15,8.81-.3,3.12-.15,6.17-.39,9.15-.72,.35-.05,.59,0,.72,.15,.13,.15,.21,.42,.27,.8l.38,4.4Zm-14.66,20.08c1.52,0,2.75-.03,3.71-.08,.96-.05,1.72-.14,2.27-.27,.56-.13,.94-.28,1.16-.47s.32-.42,.32-.7c0-.25-.11-.47-.32-.66s-.6-.35-1.16-.47c-.56-.13-1.31-.22-2.27-.28-.96-.06-2.2-.09-3.71-.09s-2.75,.03-3.71,.09c-.96,.06-1.72,.16-2.27,.28-.56,.13-.94,.28-1.16,.47-.22,.19-.32,.41-.32,.66,0,.28,.11,.51,.32,.7,.21,.19,.6,.35,1.16,.47,.55,.13,1.31,.21,2.27,.27,.96,.05,2.2,.08,3.71,.08Z"/><path class="h" d="M181.04,39.53c0-.38,.08-.63,.23-.76,.15-.13,.4-.19,.76-.19h6.52v-1.36c0-.38,.08-.63,.23-.76,.15-.13,.4-.19,.76-.19h5.3c.35,0,.61,.06,.76,.19s.23,.38,.23,.76v1.36h6.44c.35,0,.61,.06,.76,.19,.15,.13,.23,.38,.23,.76v3.68c0,.38-.08,.63-.23,.76-.15,.13-.4,.19-.76,.19h-20.23c-.35,0-.61-.06-.76-.19-.15-.13-.23-.38-.23-.76v-3.68Zm11.14,17.16c-2.07,0-3.78-.14-5.11-.42-1.34-.28-2.39-.67-3.16-1.17-.77-.5-1.3-1.11-1.59-1.82-.29-.71-.44-1.48-.44-2.31s.15-1.63,.46-2.33c.3-.69,.85-1.29,1.63-1.8,.78-.5,1.84-.9,3.16-1.17,1.33-.28,3.01-.42,5.06-.42s3.73,.14,5.06,.42c1.33,.28,2.38,.67,3.16,1.17,.78,.51,1.33,1.11,1.63,1.8,.3,.7,.45,1.47,.45,2.33s-.15,1.6-.44,2.31c-.29,.71-.82,1.31-1.59,1.82-.77,.51-1.83,.9-3.16,1.17-1.34,.28-3.04,.42-5.12,.42Zm21.18,11.97c0,1.59-.34,2.74-1.02,3.45-.68,.71-1.71,1.06-3.07,1.06h-21.71c-1.36,0-2.39-.35-3.07-1.06-.68-.71-1.02-1.86-1.02-3.45v-9.7c0-.38,.08-.63,.23-.76,.15-.13,.4-.19,.76-.19h5.3c.35,0,.61,.06,.76,.19,.15,.13,.23,.38,.23,.76v1.44h15.34v-1.44c0-.38,.08-.63,.23-.76,.15-.13,.4-.19,.76-.19h5.3c.35,0,.61,.06,.76,.19,.15,.13,.23,.38,.23,.76v9.7Zm-21.18-16.48c.99,0,1.75-.09,2.29-.27,.54-.18,.81-.5,.81-.99s-.24-.81-.72-.98c-.48-.18-1.28-.27-2.39-.27s-1.91,.09-2.39,.27c-.48,.18-.72,.5-.72,.98s.27,.81,.81,.99c.54,.18,1.31,.27,2.29,.27Zm12.81,15.57c.43,0,.72-.08,.87-.25s.23-.49,.23-.97v-.91h-15.34v.91c0,.48,.08,.8,.23,.97s.44,.25,.87,.25h13.15Zm2.08-11.25c-.35,0-.61-.06-.76-.19s-.23-.38-.23-.76v-17.43c0-.38,.08-.63,.23-.76,.15-.13,.4-.19,.76-.19h5.3c.35,0,.61,.06,.76,.19,.15,.13,.23,.38,.23,.76v5.34h3.49c.35,0,.61,.06,.76,.19,.15,.13,.23,.38,.23,.76v4.4c0,.38-.08,.63-.23,.76-.15,.13-.4,.19-.76,.19h-3.49v5.8c0,.38-.08,.63-.23,.76-.15,.13-.4,.19-.76,.19h-5.3Z"/><path class="h" d="M228.4,64.23c1.87-.05,3.66-.12,5.38-.21,1.72-.09,3.52-.22,5.42-.4,.35-.05,.59,0,.72,.13,.13,.14,.21,.4,.26,.78l.38,4.39c.05,.38-.01,.62-.19,.72s-.44,.18-.8,.23c-2.5,.2-4.91,.36-7.22,.47-2.31,.11-4.68,.17-7.1,.17s-4.16-.65-5.21-1.95c-1.05-1.3-1.57-3.38-1.57-6.23,0-2.22,.01-4.37,.04-6.44,.02-2.07,.06-4.09,.09-6.06,.04-1.97,.09-3.92,.15-5.85,.06-1.93,.15-3.88,.25-5.85,.03-.38,.11-.63,.25-.76,.14-.13,.38-.19,.74-.19h5.19c.35,0,.61,.06,.78,.19,.16,.13,.23,.38,.21,.76-.08,1.92-.15,3.82-.23,5.7-.08,1.88-.13,3.78-.17,5.7-.04,1.92-.06,3.88-.08,5.87-.01,2,0,4.07,.06,6.21,.03,.91,.22,1.58,.59,2.01,.37,.43,1.05,.63,2.06,.61Zm15.91,8.18c-.35,0-.61-.06-.76-.19-.15-.13-.23-.38-.23-.76V38.13c0-.38,.08-.63,.23-.76,.15-.13,.4-.19,.76-.19h5.3c.35,0,.61,.06,.76,.19,.15,.13,.23,.38,.23,.76v33.34c0,.38-.08,.63-.23,.76-.15,.13-.4,.19-.76,.19h-5.3Z"/><path class="h" d="M261.93,43.28c-.13,2.96-.2,5.92-.23,8.88-.03,2.97-.01,6.12,.04,9.45,.03,.91,.22,1.58,.59,2.01,.37,.43,1.05,.63,2.06,.61,1.87-.05,3.66-.12,5.38-.21,1.72-.09,3.52-.22,5.42-.4,.35-.05,.59,0,.72,.13,.13,.14,.21,.4,.26,.78l.38,4.39c.05,.38-.01,.62-.19,.72s-.44,.18-.8,.23c-2.5,.2-4.91,.36-7.22,.47-2.31,.11-4.68,.17-7.1,.17s-4.16-.65-5.21-1.95c-1.05-1.3-1.57-3.38-1.57-6.23,0-2.22,.01-4.37,.04-6.44,.02-2.07,.06-4.09,.09-6.06,.04-1.97,.09-3.92,.15-5.85,.06-1.93,.15-3.88,.25-5.85,.03-.38,.11-.63,.25-.76,.14-.13,.38-.19,.74-.19h18.04c.35,0,.61,.06,.76,.19,.15,.13,.23,.38,.23,.76v4.21c0,.38-.08,.63-.23,.76-.15,.13-.4,.19-.76,.19h-12.09Zm28.64,12.12c0,.38-.08,.63-.23,.76-.15,.13-.4,.19-.76,.19h-3.49v15.12c0,.38-.08,.63-.23,.76-.15,.13-.4,.19-.76,.19h-5.3c-.35,0-.61-.06-.76-.19-.15-.13-.23-.38-.23-.76V38.13c0-.38,.08-.63,.23-.76,.15-.13,.4-.19,.76-.19h5.3c.35,0,.61,.06,.76,.19,.15,.13,.23,.38,.23,.76v11.93h3.49c.35,0,.61,.06,.76,.19,.15,.13,.23,.38,.23,.76v4.39Z"/></g><g><g><path d="M218.59,104.98c4.1,4.39,4.84,9.91,5.17,15.53,.23,3.86-.22,7.7-.66,11.54-.09,.75-.3,1.37,.45,2.11,4,3.93,3.45,11.35-1.21,14.93-1.4,1.08-1.92,2.14-2.07,3.84-.51,5.78-1.1,11.5-3.12,17.1-1.12,3.1-.96,6.86,1.25,9.95,.41,.58,.72,1.25,1.22,1.73,3.74,3.6,4.02,7.72,2.53,12.51-1.63,5.25-2.91,10.61-4.78,15.79-.34,.93-.42,2.17-1.68,2.34-1.32,.18-1.83-1-2.48-1.87-1.17-1.58-2.31-3.18-3.53-4.72-.69-.87-1.57-1.55-2.59-2-2.26-1.01-3.24-.52-3.83,1.91-1.12,4.65-2.12,9.28-4.09,13.74-1.08,2.46-.5,5.64,.78,8.37,.51,1.1,.94,.8,1.48,.16,2.04-2.42,4.63-3.33,7.78-3.27,5.82,.11,11.65,.02,17.48,.02,1.36,0,2.65-.17,3.34-1.57,.73-1.48,.15-2.81-.72-3.96-8.78-11.62-2.32-23.45,8.87-25.47,.14-.03,.27-.15,.69-.41-4.11-1.38-8.03-2.66-11.92-4.01-.63-.22-1.88-.17-1.48-1.31,.34-.98,1.26-.26,1.84-.07,3.74,1.21,7.46,2.47,11.19,3.73,2.6,.87,5.38,1.32,7.89,2.26,8.58,3.21,17.32,6.07,25.43,10.45,2.08,1.12,3.95,2.57,5.71,4.15,4.67,4.18,7.01,9.58,8.18,15.59,.12,.6-.01,1.25,0,1.87,0,.33,0,.66-.4,.72-.52,.08-.61-.28-.69-.71-.23-1.24-.5-2.46-.78-3.69-1.64-7.15-5.75-12.48-12-16.21-4.68-2.79-9.69-4.85-14.89-6.44-.17-.05-.35-.1-.52-.15l.07,.52c3.49,6.08,3.12,12-.72,17.78-.52,.79-1.11,1.53-1.59,2.34-.62,1.06-1.67,2.12-.97,3.44,.69,1.31,2.11,1.16,3.37,1.17,3.86,0,7.72,0,11.58,0,3.07,0,6.14,.02,9.22,0,2.58-.03,4.77,.82,6.54,2.73,.24,.26,.42,.95,.8,.7,2.76-1.81,1.45,.98,1.95,1.7,.08,.11,.05,.31,.07,.46,.31,2.1,.04,4.59,1.1,6.2,1.08,1.64,3.76,.61,5.71,1.08,3.36,.81,5.09,2.81,3.72,5.96-1.92,4.38-2.48,8.64-1.67,13.28,.21,1.19,.05,2.47,.4,3.7,.9,3.17,.42,6.26-.88,9.22-.51,1.16-.5,2.23-.21,3.42,1.76,7.34,3.48,14.7,5.2,22.05,.13,.54,.23,1.08,.3,1.62,.04,.31,0,.64-.39,.75-.47,.14-.77-.09-.91-.5-.15-.45-.21-.92-.32-1.38-1.63-6.94-3.25-13.89-5.05-21.53-1.75,4.61-2.77,8.69-3.1,12.83-.22,2.75,1.27,5.33,3.07,7.5,1.9,2.29,3.87,4.52,5.83,6.79,.74-.51-.38-1.83,.8-1.87,1.15-.04,.91,1.12,1,1.81,.68,5.27,2.23,10.5,.4,15.86-1.9,5.55-4.78,10.43-9.28,14.26-4.14,3.51-8.12,3.81-12.8,1.01-3.97-2.38-6.9-5.73-8.61-10.03-.51-1.28-1.13-1.64-2.41-1.59-2.28,.09-4.58,.15-6.85,0-1.66-.12-1.95,.6-2,2.02-.3,8.51-.16,17,.7,25.48,.49,4.86,.65,9.74,.16,14.62-.07,.65,.07,1.76-.8,1.71-1.2-.06-.66-1.18-.62-1.88,.24-4.14,.09-8.21-.29-12.37-.84-9.27-1.17-18.62-.45-27.95,.14-1.82-.83-1.63-1.98-1.63-15.6,0-31.19-.05-46.79,.04-3.8,.02-6.97-.86-8.99-4.45-.97,.79-.61,1.71-.62,2.48-.18,10.81,.75,21.55,1.76,32.29,.51,5.41,.87,10.83,.67,16.28-.01,.39,0,.79-.07,1.18-.11,.57,0,1.44-.94,1.27-.73-.13-.55-.86-.49-1.38,.36-3.31,.2-6.61-.05-9.91-.57-7.46-.95-14.94-1.89-22.35-.63-4.95-.1-9.86-.38-14.78-.09-1.63-.08-2.73-2.11-1.53-1.11,.66-2.43,.59-3.69,.59-5.36,0-10.71-.05-16.07,.01-1.9,.02-4.24-.6-5.38,1.47-1.12,2.03,.46,3.74,1.48,5.39,1.34,2.15,2.55,4.36,3.01,6.87,1.17,6.36-1.56,12.28-7.27,15.32-6.04,3.21-12.32,3.22-18.4,.26-7.45-3.62-9.88-12.91-5.61-20.51,1-1.78,2.25-3.42,3.27-5.19,1.14-1.99,.59-3.23-1.66-3.47-2.1-.22-4.24-.12-6.37-.15-1.63-.02-1.14,1.2-1.09,2.03,.53,8.12,.23,16.21-.51,24.3-.4,4.31-.73,8.63-.5,12.97,.06,1.18,.2,2.35,.3,3.52,.05,.54,.23,1.26-.48,1.38-.92,.16-.88-.67-.95-1.27-.42-3.69-.5-7.38-.2-11.08,.7-8.55,1.44-17.11,1.11-25.71,0-.08,0-.16,0-.24-.5-7.55,.83-5.59-6.09-5.91-1.39-.07-1.86,.57-2.29,1.77-1.69,4.68-4.68,8.34-9,10.86-4.97,2.9-8.7,2.66-12.94-1.21-8.1-7.41-11.4-16.39-9.19-27.43,2.23-11.11,4.93-22.11,7.54-33.13,.42-1.77,.88-3.47,.28-5.3-.21-.65-.3-1.44-.15-2.1,.99-4.22,.31-8.63,1.54-12.81,.27-.92,.06-1.63-.41-2.43-.7-1.22-1.39-2.49-1.82-3.82-1.41-4.38-.05-6.76,4.48-7.2,2.29-.22,2.97-.96,3.18-3.19,.34-3.67,1.03-7.32,1.76-10.95,1.72-8.49,6.61-14.62,14.15-18.77,4.36-2.4,8.98-4.19,13.67-5.78,9.38-3.19,18.78-6.33,28.18-9.46,.68-.23,1.72-.94,2.03,.1,.3,.98-.95,1.01-1.64,1.24-10.95,3.7-22,7.1-32.8,11.22-.81,.31-1.6,.66-2.41,.95-12.77,4.6-19.87,13.58-21,27.19-.15,1.8-.48,3.59-.69,5.39-.08,.7-.61,1.67,.7,1.81,1.44,.15,1.12-1,1.15-1.78,.05-1.18,0-2.36,.02-3.54,.09-4.03,2.77-6.96,6.8-7.45,.7-.08,1.41-.1,2.12-.1,22.61,0,45.21,0,67.82,0,1.02,0,2.17-.12,3.03,.29,1.94,.93,2.22,.33,2.03-1.54-.54-5.23-.33-10.54-1.49-15.71-.88-3.92-3.12-4.7-6.34-2.22-2.02,1.56-3.39,3.7-4.92,5.7-1.91,2.5-3.05,2.37-4.29-.47-2.76-6.37-4.92-12.93-6.38-19.72-.19-.89-.15-1.69,.21-2.51,.8-1.8,1.44-3.67,2.36-5.4,1.93-3.62,1.42-6.85-1.05-10.01-2.7-3.45-4.31-7.48-5.76-11.57-.55-1.55-1.21-2.73-2.99-3.2-1.51-.4-2.79-1.42-3.86-2.62-3.85-4.3-3.95-8.88-.28-13.43h2.21c.31,1.03-.36,1.29-1.14,1.63-1.99,.87-2.76,2.72-2.48,4.6,.56,3.89,2.41,7.06,6.37,8.52,.11,.07,.23,.13,.34,.2l.07-.55c-.5-1.81-1-3.63-1.52-5.44-.14-.5-.21-.99,.33-1.2,.73-.28,.92,.3,1.08,.85,.13,.45,.27,.9,.4,1.36,1.41,4.99,3.04,9.92,5.25,14.62,3.78,8.07,10.2,13.22,18.42,16.23,4.49,1.64,8.84,1.11,12.84-1.56,6.78-4.52,11.26-10.62,12.7-18.77,.85-4.81,1.17-9.67,1.38-14.55,.05-1.02,.11-2.04,.18-3.06,.02-.33,.2-.6,.56-.65,.49-.06,.74,.25,.75,.69,.03,1.05,0,2.1,0,3.34,3.66-2.3,5.27-7.69,3.6-11.15-.58-1.21-1.45-2.06-2.79-2.3-.8-.14-1.6-.19-1.62-1.28,1.11-.4,1.73-1.04,1.76-2.38,.03-1.79,.48-3.58,.56-5.37,.3-6.64,.16-13.21-3.91-18.94-.6-.85-.43-1.43,.4-1.93ZM108.46,254.62c1.69-2.3,3.93-2.61,6.48-1.77,1.12,.37,2.25,.72,3.32,1.19,3.83,1.68,7.36,3.89,10.72,6.35,.66,.48,1.22,1.04,2.06,.37,.76-.6,.66-1.38,.4-2.14-.18-.51-.41-1.05-.76-1.45-4.54-5.3-10-9.28-16.69-11.43-1.56-.5-2.73,.02-3.56,1.46-1.28,2.21-2.04,4.58-2.28,7.12-.03,.19-.14,.49-.07,.55,.25,.18,.29-.09,.37-.25Zm168.6-5.06c-3.36-1.99-3.62-4.13-.82-6.88,1.41-1.39,2.95-2.74,4.8-3.37,2.79-.95,3.45-2.68,3.32-5.48-.26-5.4-2.4-7.68-7.89-7.69-6.85-.01-13.71,.07-20.56-.05-4.2-.07-5.47-2.53-3.35-6.13,1.16-1.97,2.56-3.8,3.55-5.85,3.77-7.8-.31-16.44-8.67-18.61-2.7-.7-5.44-.9-8.2-.5-8.81,1.26-14.2,8.7-12.08,16.65,.68,2.55,2.24,4.67,3.52,6.92,2.6,4.58,.89,7.53-4.38,7.56-5.75,.04-11.5,0-17.25,.02-5.23,.01-7.52,2.29-7.53,7.47-.01,7.56,.01,15.12,0,22.69,0,1.02-.02,2.06-.24,3.05-.61,2.83-2.52,3.91-5.29,3.01-2.18-.71-4.16-1.88-6.16-2.97-2.03-1.1-4.14-1.92-6.48-2-7.16-.26-12.75,5.1-13.24,13.15-.35,5.75,1.1,11.06,6.24,14.47,4.74,3.15,9.55,2.36,14.28-.31,1.29-.73,2.69-1.35,4.12-1.75,3.95-1.11,6.27,.54,6.69,4.63,.09,.86,.07,1.73,.07,2.6,0,7.25,0,14.49,.01,21.74,.01,5.03,2.36,7.35,7.39,7.35,22.61,0,45.22,0,67.83,0,5.15,0,7.54-2.37,7.55-7.49,.01-12.68-.03-25.37,.04-38.05,0-1.88-.34-2.53-2.34-1.92-2.56,.78-5.2,1.32-7.89,1.45-3.37,.16-4.84-1.75-3.77-4.79,.17-.49,.28-.84-.03-1.29-.88-1.26-.63-2.52,.03-3.78,.21-.39,.47-.74,.19-1.29-1.82-3.59-1.7-4.78,1.12-7.66,1.7-1.73,3.6-3.27,5.42-4.9Zm-152.07,.18c2.3,2.06,4.91,3.73,6.7,6.28,.83,1.19,1.99,2.71,1.3,3.85-1.29,2.15-1.22,4.12-.58,6.31,.25,.86-.96,1.3-.66,2.35,.97,3.44-.29,5.01-3.87,4.84-2.84-.13-5.63-.75-8.34-1.58-1.92-.59-2.4-.08-2.39,1.89,.08,12.6,.04,25.21,.04,37.81,0,5.16,2.35,7.54,7.47,7.54,6.85,0,13.71-.06,20.56,.02,4.59,.06,5.93,2.63,3.49,6.5-1.3,2.06-2.79,4.01-3.72,6.29-2.94,7.27,.59,15.06,8.01,17.56,2.64,.89,5.38,1.16,8.15,.97,11.38-.81,16.97-11.38,11.2-21.16-.4-.68-.82-1.34-1.24-2.01-1.16-1.86-2.1-3.81-1.01-5.98,1.12-2.22,3.34-2.12,5.38-2.14,5.75-.05,11.5-.02,17.25-.03,4.32-.01,7.19-2.85,7.2-7.13,.01-3.31,0-6.62,0-9.93,0-4.17,.01-8.35-.02-12.52-.04-5.14-1.94-6.34-6.69-4.27-1.59,.69-3.13,1.48-4.72,2.16-6.12,2.59-12.92,.76-16.65-4.48-2.95-4.13-3.78-8.76-3.16-13.7,1.43-11.47,12.46-16.45,21.5-11.29,1.71,.97,3.46,1.89,5.26,2.67,2.92,1.26,4.04,.56,4.42-2.61,.08-.7,.08-1.41,.08-2.12,0-7.56,0-15.12,0-22.69,0-4.81-2.46-7.2-7.32-7.2-21.9,0-43.8,0-65.7,0-8.29,0-9.8,1.51-9.73,9.77,0,.16,.02,.32,0,.47-.16,1.13,.37,1.65,1.42,2.05,2.67,1.02,5.09,2.52,7.17,4.48,2.92,2.77,2.67,5.03-.79,7.04Zm-12.51,39.97c-2.9,4.84-6.85,8.27-10,12.37-2.35,3.06-4.16,6.47-3.78,10.42,.77,8.01,4.62,14.44,10.93,19.36,2.6,2.03,5.48,2.16,8.44,.71,3.81-1.86,6.64-4.73,8.68-8.4,2.03-3.67,1.99-3.72-2.05-3.74-.39,0-.79,.01-1.18,0-4.77-.23-7.69-3.27-7.7-8.04-.01-4.02,0-8.03-.01-12.05,0-.78,.15-1.58-.32-2.3-1.54-2.4-2.38-5.07-3.01-8.32Zm173.38,5.83c.96-.32,1.24-1.1,1.68-1.71,.28-.39,.68-.49,1.02-.3,.4,.22,.34,.71,.13,1.04-.42,.65-.8,1.44-1.41,1.85-1.43,.97-1.62,2.26-1.59,3.85,.09,4.17,.07,8.35,.02,12.52-.05,4.53-3.15,7.71-7.67,7.91-1.42,.06-2.84,.11-4.25,0-1.83-.15-1.73,.62-1.1,1.88,1.98,4.01,4.9,7.06,8.88,9.15,3.21,1.69,6.13,1.38,8.98-.77,4.35-3.28,7.19-7.64,9.2-12.61,2.84-7.01,1.49-13.23-3.53-18.77-2-2.21-4.14-4.33-5.48-7.06-.14-.29-.34-.93-.73-.53-2.43,2.47-1.04-.87-1.68-1.09-1.99,.87-3.31,2.11-2.47,4.65Zm-106.57-118.53c.34,2.7,.86,5.11,.9,7.53,.04,2.41,1.1,4.16,2.56,5.87,3.12,3.68,6.55,7.06,10.42,9.91,2.85,2.09,4.14,4.84,4.6,8.15,.35,2.48,.65,4.97,1.04,7.98,1.69-3.84,2.24-7.43,2.98-10.94,.44-2.11,1.37-3.79,2.92-5.25,2.35-2.21,4.49-4.64,6.73-6.95,5.59-5.77,4.81-12.58,3.7-19.63-13.12,16.94-24.07,12.74-35.86,3.32Zm106.47,113.62c2.22-1.44,3.2-3.25,3.59-5.37,.67-3.56,1.51-7.07,2.53-10.54,1.22-4.14-.3-7.54-2.89-10.64-.91-1.09-2.09-1.38-3.41-.93-4.31,1.48-8.54,3.17-12.65,5.15-.89,.43-2.02,.97-1.56,2.26,.4,1.1,1.53,1.25,2.58,1.25,.55,0,1.1-.1,1.64-.18,3.9-.56,7.69-1.58,11.46-2.73,.55-.17,1.3-.67,1.57,.25,.24,.84-.54,1.04-1.16,1.13-1.48,.23-1.76,1.1-1.74,2.47,.07,5.81,.03,11.63,.03,17.87Zm-67.37-107.58c-2.17,7.67-7.14,13.35-13.12,18.76,5.54,.94,7.16,5.71,10.25,9.17,2.32-6.27,3.91-12.35,5.57-18.41,1.02-3.72,.71-6.8-2.71-9.51Zm-25.23,19.37c-6.02-5.21-12.03-10.11-15.61-17.29-2.06,3.43-2.23,4.07-1.47,7.44,1.32,5.83,3.35,11.43,5.6,16.97,.83,2.03,1.37,1.72,2.46,.21,2.28-3.17,4.49-6.5,9.03-7.33Zm-77.39,86.12c0-5.7,0-11.32,0-16.93,0-.55-.3-.79-.76-1.04-.59-.33-1.95-.22-1.46-1.33,.52-1.17,1.54-.15,2.25,.05,4.01,1.13,8.01,2.27,12.18,2.64,1.22,.11,2.57-.02,2.88-1.43,.27-1.19-.88-1.77-1.81-2.16-4.05-1.7-8.12-3.35-12.21-4.97-1.14-.45-2.33-.49-3.29,.49-2.73,2.79-4.48,6.14-3.49,10,1.16,4.54,2.96,8.93,4.51,13.37,.17,.48,.31,1.05,1.19,1.3Zm177.83-19.25c2.41-4.98,1.31-9.36-1.14-13.64-.94-1.65-2.24-2.21-4.16-1.68-5.82,1.6-10.73,4.79-15.35,8.52-.42,.34-.77,.8-1.05,1.26-.49,.79-1.15,1.62-.32,2.56,.81,.91,1.61,.13,2.36-.16,3.51-1.38,6.98-2.89,10.52-4.17,3-1.09,4.38-.56,6.39,1.93,1.24,1.53,1.91,3.35,2.75,5.38Zm-184.99,0c.23-.56,.44-1.05,.63-1.54,2.52-6.23,4.86-7.23,11.1-4.7,2.84,1.15,5.67,2.35,8.5,3.53,.58,.24,1.17,.6,1.75,.08,.64-.58,.48-1.29,.15-1.95-.24-.49-.49-1.03-.89-1.38-4.86-4.37-10.26-7.77-16.7-9.32-1.2-.29-2.1,.09-2.91,1.03-3.09,3.56-3.88,9.89-1.64,14.26Zm-8.08,32.76c1.84-2.09,3.66-4.2,5.52-6.28,2.15-2.4,4.27-4.83,5.67-7.77,.39-.82,.92-1.61,.63-2.66-1.33-4.76-3.18-9.34-4.82-13.99-.02-.06-.26-.03-.47-.05-2.33,10.18-5.14,20.26-6.53,30.75Zm193.44-47.09c-.11-2.55-.69-4.79-1.74-6.9-1.31-2.64-2.27-3.12-5.06-2.13-6.05,2.14-11.04,5.86-15.33,10.57-.42,.46-.76,1.01-1.01,1.58-.38,.87-.69,1.8,.24,2.57,.96,.79,1.55-.05,2.23-.52,3.99-2.79,8.06-5.45,12.71-7.05,2.95-1.01,5.88-1.68,7.95,1.88Zm-.02-7.19c1.2-1.81,1.98-3.59,2.11-5.6,.08-1.26-.22-2.26-1.59-2.81-5.47-2.21-14.9,.61-18.06,5.47-.52,.81-1.01,1.63-.1,2.53,.81,.81,1.52,1.4,2.81,.68,2.05-1.14,4.17-2.18,6.35-3.05,4.65-1.86,5.7-1.48,8.48,2.78Zm-185.75-.04c3.26-4.27,4.08-4.49,9.23-2.31,1.15,.49,2.28,1.05,3.37,1.68,.91,.53,1.86,.85,2.89,.88,.95,.03,2,.07,2.49-.93,.49-1-.12-1.85-.79-2.53-3.55-3.59-7.66-5.96-12.91-5.77-6.79,.25-8.14,2.81-4.58,8.69,.07,.12,.21,.2,.31,.29Zm7.38,46.94c.47-1.81,.49-3.5-1.46-4.72-.04,1.86,.55,3.33,1.46,4.72Zm-15.31,7.85l-.12-.16c-.05,.05-.14,.1-.15,.15,0,.05,.08,.11,.12,.17l.14-.16Z"/><path d="M213.92,100c-1.88-.64-3.43-1.83-5.05-2.91-2.36-1.56-4.65-3.28-7.15-4.58-6.62-3.43-13.15-2.99-19.58,.75-.8,.47-1.89,2.59-3.13,.3,4.41-3.41,9.34-4.87,14.97-4.71,4.89,.14,8.85,2.18,12.71,4.75,3.17,2.11,6.05,4.67,9.94,5.73-.9,1.03-1.78,.98-2.71,.66Z"/><path d="M174.49,97.67c.21,.88-.14,1.33-1.04,1.44-10.2,1.18-14,8.12-15.47,17.17-.07,.46-.28,.89-.43,1.34l-.43-.18-.5-.48c-.67-10.24,8.31-19.93,17.86-19.28Z"/><path d="M157.56,120.33c1.39-.34,1.4,.59,1.33,1.5-.43,5.73,1.39,10.98,3.45,16.18,.37,.93,1.02,1.87-.1,2.75-2.92-4.17-3.93-9.01-4.79-13.88-.38-2.17-.56-4.38,.11-6.55Z"/><path class="i" d="M156.62,116.95l.5,.48c-.32,0-.5-.14-.5-.48Z"/><path class="d" d="M277.06,249.55c-1.82,1.63-3.72,3.16-5.42,4.9-2.82,2.88-2.95,4.07-1.12,7.66,.28,.55,.02,.9-.19,1.29-.67,1.26-.91,2.53-.03,3.78,.32,.45,.21,.8,.03,1.29-1.07,3.04,.4,4.95,3.77,4.79,2.68-.13,5.33-.67,7.89-1.45,2-.61,2.35,.03,2.34,1.92-.07,12.68-.02,25.37-.04,38.05,0,5.12-2.39,7.49-7.55,7.49-22.61,0-45.22,0-67.83,0-5.04,0-7.38-2.33-7.39-7.35-.02-7.25,0-14.49-.01-21.74,0-.87,.02-1.74-.07-2.6-.42-4.09-2.74-5.73-6.69-4.63-1.43,.4-2.83,1.02-4.12,1.75-4.73,2.67-9.54,3.46-14.28,.31-5.14-3.42-6.59-8.72-6.24-14.47,.49-8.05,6.07-13.41,13.24-13.15,2.34,.08,4.46,.9,6.48,2,2.01,1.09,3.98,2.26,6.16,2.97,2.77,.9,4.68-.18,5.29-3.01,.21-.99,.23-2.03,.24-3.05,.02-7.56,0-15.12,0-22.69,0-5.18,2.3-7.45,7.53-7.47,5.75-.02,11.5,.02,17.25-.02,5.27-.04,6.98-2.99,4.38-7.56-1.28-2.26-2.84-4.37-3.52-6.92-2.12-7.95,3.27-15.38,12.08-16.65,2.76-.4,5.5-.2,8.2,.5,8.36,2.17,12.44,10.81,8.67,18.61-.99,2.04-2.39,3.88-3.55,5.85-2.12,3.6-.84,6.06,3.35,6.13,6.85,.12,13.71,.04,20.56,.05,5.5,0,7.64,2.29,7.89,7.69,.13,2.8-.53,4.54-3.32,5.48-1.86,.63-3.39,1.99-4.8,3.37-2.8,2.74-2.54,4.89,.82,6.88Z"/><path class="e" d="M124.99,249.73c3.46-2.01,3.72-4.27,.79-7.04-2.07-1.97-4.5-3.46-7.17-4.48-1.05-.4-1.58-.92-1.42-2.05,.02-.15,0-.31,0-.47-.07-8.26,1.44-9.77,9.73-9.77,21.9,0,43.8,0,65.7,0,4.85,0,7.31,2.4,7.32,7.2,.01,7.56,0,15.12,0,22.69,0,.71,0,1.42-.08,2.12-.38,3.17-1.49,3.87-4.42,2.61-1.8-.78-3.55-1.7-5.26-2.67-9.04-5.16-20.07-.18-21.5,11.29-.62,4.95,.22,9.58,3.16,13.7,3.74,5.23,10.54,7.06,16.65,4.48,1.59-.67,3.14-1.47,4.72-2.16,4.76-2.07,6.65-.86,6.69,4.27,.03,4.17,.02,8.35,.02,12.52,0,3.31,0,6.62,0,9.93-.02,4.27-2.89,7.11-7.2,7.13-5.75,.02-11.5-.02-17.25,.03-2.03,.02-4.26-.09-5.38,2.14-1.09,2.17-.15,4.12,1.01,5.98,.42,.67,.84,1.33,1.24,2.01,5.77,9.78,.18,20.35-11.2,21.16-2.78,.2-5.51-.08-8.15-.97-7.41-2.5-10.95-10.28-8.01-17.56,.92-2.28,2.41-4.23,3.72-6.29,2.44-3.87,1.09-6.44-3.49-6.5-6.85-.08-13.71-.02-20.56-.02-5.12,0-7.47-2.38-7.47-7.54,0-12.6,.03-25.21-.04-37.81-.01-1.97,.48-2.47,2.39-1.89,2.71,.83,5.49,1.46,8.34,1.58,3.58,.16,4.84-1.4,3.87-4.84-.3-1.05,.91-1.49,.66-2.35-.65-2.19-.72-4.16,.58-6.31,.68-1.14-.47-2.66-1.3-3.85-1.79-2.55-4.41-4.22-6.7-6.28Z"/><path class="i" d="M115.58,294.65c-.91-1.4-1.5-2.87-1.46-4.72,1.95,1.23,1.93,2.92,1.46,4.72Z"/><path d="M208.61,123.88c-.66-.41-1.38-.29-2.07-.19-5.67,.84-10.35-1.21-14.41-4.98-1.73-1.61-3.35-3.33-5.05-4.97-1.66-1.61-3.37-3.03-5.71-.98-.23,.2-.76,.07-1.15,.09,.67-2.33,2.66-3.38,4.84-2.46,1.47,.62,2.68,1.64,3.79,2.76,1.55,1.57,3.09,3.15,4.69,4.66,3.79,3.57,8.27,5.15,13.43,4.18,2-.38,2.29,.21,1.61,1.88Z"/><path d="M178.02,115.14c-4,2.98-3.8,7.56-4.45,11.8-.78,5.04-2.51,9.58-6.54,12.97-.43-.68-1.31-1.27-.25-2.16,3.94-3.29,4.69-7.95,5.41-12.62,.38-2.47,.59-4.99,1.52-7.33,.96-2.41,2.35-3.21,4.32-2.68Z"/><path d="M217.11,132.32c-1.85-1.33-3.77-2.56-5.51-4.01-1.13-.95-2.03-2.2-2.32-3.74,1.05-.79,1.53-.03,2.01,.74,1.24,1.99,2.91,3.52,5.14,4.26,1.84,.61,2.3,1.38,.68,2.75Z"/><path d="M177.82,101.93c.9,.1,1.07,.68,.87,1.35-.76,2.45-1.04,4.9-.31,7.41,.13,.46,0,.97-.57,1.12-.44,.12-.7-.17-.94-.51-.94-1.37-.65-7.78,.43-8.95,.15-.16,.35-.28,.52-.41Z"/><path d="M182.54,135.19c-2.53-.07-5.11,.5-7.56,1.71-.46,.23-1.02,.67-1.39-.1-.35-.72,.25-.98,.73-1.23,3.03-1.54,6.24-2.09,9.62-1.72,.65,.07,1.45,.13,1.31,.95-.14,.83-.96,.58-1.57,.5-.31-.04-.63-.06-1.14-.11Z"/><path d="M206.72,131.56c-2.69-.19-5.07,.2-7.27,1.41-.48,.26-1.1,.64-1.48,.05-.5-.79,.31-1.11,.82-1.38,2.87-1.57,5.96-1.92,9.15-1.44,.65,.1,1.72,.11,1.63,.97-.14,1.26-1.21,.47-1.89,.49-.39,.01-.78-.08-.97-.1Z"/><g><path d="M197.76,172.32c3.61-.52,5.6-3.89,6.92-7.88,.29-.89,1.05-2.04,.32-2.78-.65-.66-1.72,.21-2.61,.35-.26,.04-.52,.09-.78,.15-4.79,1.13-9.64,1.49-14.54,1.21-.76-.04-1.69-.26-1.3,1.18,1.25,4.56,6.39,8.31,11.99,7.77Zm5.85-9.46c-.23,3.82-3.27,7.7-6.49,8.39-3.64,.78-7.57-1.77-9.97-6.69,5.7,.23,11.11-.28,16.46-1.7Z"/><path d="M195.05,152.7c1.36,.8,1.55,1.82,.73,3.1-.25,.39-.52,.77-.68,1.19-.07,.19,.02,.56,.18,.71,.3,.29,.6,.1,.81-.19,.74-1.02,1.43-2.06,1.35-3.41-.08-1.09-.73-1.8-1.63-2.31-1.86-1.06-2.52-2.74-2.53-4.8-.01-2.13,.42-4.17,1.09-6.18,.13-.38,.25-.82-.22-1.03-.64-.28-.77,.25-.92,.69-.62,1.82-1.01,3.68-1.13,5.6-.18,2.72,.4,5.13,2.95,6.63Z"/><path d="M206.48,142.94l1.06-2.2c-.54-1.07-1.38-1.73-2.24-1.64-2.09,.22-2.17,2.48-1.95,4.64,.21,2.06,1.42,3.34,2.76,3.2,1.05-.11,1.82-1.28,2-2.82l-1.63-1.18Z"/><path d="M182.57,145.43l1.06-2.2c-.54-1.07-1.38-1.73-2.24-1.64-2.09,.22-2.17,2.48-1.95,4.64s1.42,3.34,2.76,3.2c1.05-.11,1.82-1.28,2-2.82l-1.63-1.18Z"/></g><path d="M220.6,143.08s-.06,0-.09,0c-.25-.05-.42-.29-.37-.55,.67-3.48,.06-4.66,.05-4.67-.12-.22-.04-.51,.18-.63,.22-.12,.5-.06,.63,.16,.08,.14,.8,1.47,.06,5.32-.04,.23-.24,.38-.46,.38Z"/><path d="M166.27,148.8c-.22,0-.41-.15-.46-.38l-.56-2.82c-.05-.25,.11-.5,.37-.55,.25-.05,.5,.11,.55,.37l.56,2.82c.05,.25-.11,.5-.37,.55-.03,0-.06,0-.09,0Z"/></g><g><path d="M152.82,246.72c.23,0,.39,.04,.49,.12s.15,.25,.15,.49v4.45c0,.48,.06,.94,.17,1.39,.12,.45,.33,.87,.64,1.25,.31,.39,.73,.73,1.25,1.03,.52,.3,1.2,.54,2.02,.7,.07,.02,.14,.03,.23,.05,.09,.02,.18,.05,.26,.11,.08,.06,.15,.14,.21,.25,.06,.11,.09,.26,.09,.46v2.73c0,.29-.08,.47-.23,.53-.16,.06-.29,.08-.41,.06-.57-.05-1.16-.14-1.76-.26s-1.18-.29-1.76-.52-1.12-.5-1.65-.85c-.53-.34-.99-.75-1.4-1.23-.43,.48-.9,.89-1.41,1.23-.52,.34-1.06,.63-1.64,.85s-1.16,.39-1.76,.52-1.18,.21-1.76,.26c-.11,.02-.25,0-.41-.06-.16-.06-.23-.23-.23-.53v-2.73c0-.2,.03-.35,.09-.46,.06-.11,.13-.19,.21-.25,.08-.06,.17-.09,.26-.11,.09-.02,.17-.03,.23-.05,.82-.16,1.49-.4,2.02-.7,.52-.3,.94-.65,1.25-1.03,.31-.38,.52-.8,.64-1.25,.11-.45,.17-.91,.17-1.39v-4.45c0-.25,.05-.41,.15-.49,.1-.08,.26-.12,.49-.12h3.39Zm12.86,22.01c.03,.25,0,.4-.12,.47-.11,.07-.29,.11-.52,.15-1.13,.11-2.32,.22-3.57,.31s-2.5,.17-3.75,.23-2.49,.12-3.7,.15c-1.21,.03-2.34,.05-3.39,.05-1.57,0-2.7-.42-3.38-1.27-.68-.84-1.02-2.19-1.02-4.05v-2.71c0-.25,.05-.41,.15-.49s.26-.12,.49-.12h3.44c.23,0,.39,.04,.49,.12s.15,.25,.15,.49v2.24c0,.59,.12,1.02,.37,1.3,.25,.28,.7,.41,1.35,.39,.89-.02,1.84-.05,2.85-.09,1.02-.04,2.05-.09,3.1-.15,1.05-.06,2.1-.13,3.15-.22,1.05-.09,2.06-.18,3.03-.28,.23-.03,.39,0,.47,.1s.14,.27,.17,.52l.25,2.85Zm-4.35-5.78c-.23,0-.39-.04-.49-.12-.1-.08-.15-.25-.15-.49v-15c0-.25,.05-.41,.15-.49,.1-.08,.26-.12,.49-.12h3.44c.23,0,.39,.04,.49,.12s.15,.25,.15,.49v15c0,.25-.05,.41-.15,.49s-.26,.12-.49,.12h-3.44Z"/><path d="M144.63,289.27c0-.25,.05-.41,.15-.49s.26-.12,.49-.12h20.76c.23,0,.39,.04,.49,.12s.15,.25,.15,.49v2.88c0,.25-.05,.41-.15,.49s-.26,.12-.49,.12h-3.59v5.76c0,.25-.05,.41-.15,.49-.1,.08-.26,.12-.49,.12h-3.44c-.23,0-.39-.04-.49-.12-.1-.08-.15-.25-.15-.49v-5.76h-4.13v5.76c0,.25-.05,.41-.15,.49-.1,.08-.26,.12-.49,.12h-3.44c-.23,0-.39-.04-.49-.12-.1-.08-.15-.25-.15-.49v-5.76h-3.59c-.23,0-.39-.04-.49-.12s-.15-.25-.15-.49v-2.88Zm14.93-3.25c.15-.85,.28-1.7,.41-2.55s.23-1.69,.31-2.55c.03-.39-.02-.66-.15-.81s-.39-.22-.76-.22h-12.54c-.23,0-.39-.04-.49-.12s-.15-.25-.15-.49v-2.88c0-.25,.05-.41,.15-.49s.26-.12,.49-.12h15.62c.89,0,1.55,.23,1.99,.69s.66,1.21,.66,2.24c0,2.64-.3,5.27-.91,7.9-.07,.25-.14,.41-.22,.5-.08,.09-.26,.12-.54,.09l-3.25-.37c-.23-.03-.4-.11-.52-.22-.12-.11-.15-.31-.1-.59Z"/></g><g><path d="M231.39,247.33c0-.25,.05-.41,.15-.49,.1-.08,.26-.12,.49-.12h8.49c.62,0,1.16,.07,1.6,.22,.44,.15,.81,.39,1.09,.73,.29,.34,.49,.77,.61,1.3,.12,.53,.18,1.19,.16,1.96-.02,1.12-.1,2.38-.26,3.79-.16,1.41-.36,2.89-.6,4.43-.25,1.54-.53,3.1-.85,4.69-.32,1.58-.65,3.09-1,4.54-.07,.25-.13,.42-.2,.53s-.21,.14-.44,.09l-3.42-.71c-.12-.02-.22-.04-.31-.06-.09-.02-.17-.07-.23-.14s-.1-.15-.11-.26c0-.11,.01-.26,.06-.46,.34-1.25,.67-2.56,.98-3.95,.31-1.38,.59-2.75,.82-4.08,.24-1.34,.43-2.61,.58-3.82,.15-1.21,.22-2.28,.22-3.2,0-.62-.09-1.02-.27-1.21-.18-.18-.48-.27-.91-.27h-6.03c-.23,0-.39-.04-.49-.12-.1-.08-.15-.25-.15-.49v-2.88Zm16.78,22.26c-.23,0-.39-.04-.49-.12-.1-.08-.15-.25-.15-.49v-21.65c0-.25,.05-.41,.15-.49,.1-.08,.26-.12,.49-.12h3.44c.23,0,.39,.04,.49,.12s.15,.25,.15,.49v21.65c0,.25-.05,.41-.15,.49s-.26,.12-.49,.12h-3.44Z"/><path d="M231.47,287.97c0-.25,.05-.41,.15-.49s.26-.12,.49-.12h8.02v-1.97c0-.25,.05-.41,.15-.49s.26-.12,.49-.12h3.44c.23,0,.39,.04,.49,.12s.15,.25,.15,.49v1.97h8.02c.23,0,.39,.04,.49,.12s.15,.25,.15,.49v2.88c0,.25-.05,.41-.15,.49s-.26,.12-.49,.12h-15.03v1.92c0,.59,.12,1.02,.37,1.3,.25,.28,.7,.41,1.35,.39,.88-.02,1.83-.05,2.83-.09,1-.04,2.02-.09,3.06-.15,1.04-.06,2.08-.13,3.11-.22s2.03-.18,3-.28c.23-.03,.39,0,.47,.1s.14,.27,.17,.52l.25,2.85c.03,.25,0,.4-.12,.47-.12,.07-.29,.11-.52,.15-1.13,.11-2.32,.22-3.55,.31s-2.48,.17-3.71,.23-2.46,.12-3.65,.15c-1.2,.03-2.32,.05-3.37,.05-1.57,0-2.7-.42-3.38-1.27-.68-.84-1.02-2.19-1.02-4.05v-2.39h-1.01c-.23,0-.39-.04-.49-.12s-.15-.25-.15-.49v-2.88Zm1.4-11.56c0-.25,.05-.41,.15-.49s.26-.12,.49-.12h17.91c.23,0,.39,.04,.49,.12s.15,.25,.15,.49v2.61c0,.25-.05,.41-.15,.49s-.26,.12-.49,.12h-5.61c.57,.56,1.34,1.03,2.29,1.41,.95,.39,2.04,.62,3.27,.7,.05,0,.11,0,.2,.02,.08,.02,.16,.05,.23,.1,.07,.05,.14,.12,.18,.22,.05,.1,.07,.24,.07,.42v2.53c0,.18-.03,.32-.09,.42-.06,.1-.13,.17-.22,.21-.09,.04-.18,.07-.27,.07-.09,0-.17,.01-.23,.01-1.1-.03-2.11-.15-3.04-.36-.93-.2-1.76-.47-2.5-.79-.74-.32-1.38-.68-1.92-1.08-.54-.4-.98-.81-1.3-1.22-.33,.41-.76,.82-1.3,1.22-.54,.4-1.18,.76-1.92,1.08-.74,.32-1.57,.58-2.5,.79-.93,.21-1.94,.32-3.04,.36-.07,0-.14,0-.23-.01-.09,0-.18-.03-.27-.07-.09-.04-.16-.11-.22-.21-.06-.1-.09-.24-.09-.42v-2.53c0-.18,.02-.32,.07-.42,.05-.1,.11-.17,.18-.22,.07-.05,.15-.08,.23-.1,.08-.02,.15-.02,.2-.02,1.23-.08,2.32-.32,3.27-.7,.95-.38,1.71-.86,2.29-1.41h-5.66c-.23,0-.39-.04-.49-.12s-.15-.25-.15-.49v-2.61Z"/></g></g></g></g></g></svg>