<?xml version="1.0" encoding="UTF-8"?><svg xmlns="http://www.w3.org/2000/svg" xmlns:xlink="http://www.w3.org/1999/xlink" viewBox="0 0 400 356"><defs><style>.e{fill:#fff;}.f{fill:#557cbd;}.g{fill:#040000;}.h{clip-path:url(#c);}.i{clip-path:url(#d);}.j{fill:none;}.k{fill:#093974;}</style><clipPath id="c"><rect class="j" y="-363.21" width="400" height="356"/></clipPath><clipPath id="d"><rect class="j" y="0" width="400" height="356"/></clipPath></defs><g id="a"/><g id="b"><rect class="e" y="0" width="400" height="356"/><g class="h"><path class="e" d="M269.98-6.95c-5.27,2.24-10.92,3.18-16.46,4.42-6.62,1.49-13.34,2.49-20.1,3.28-5.53,.65-11.06,.73-16.61,.81-9.67,.14-19.15-1.29-28.64-2.79-8.05-1.28-15.82-3.62-23.72-5.48,.5-6.27,1.59-12.45,2.96-18.58,.91-4.06,1.89-8.12,3.44-12.02,.32,.1,.5,.1,.58,.19,9.94,10.9,22.63,16.84,37.08,19.64,2.41,.47,4.83,.8,7.3,.67,1.97-.1,3.26-.91,3.99-2.84,2.45-6.38,4.43-12.9,6.17-19.5,.18-.69,.43-1.37,.7-2.21,.72,.72,.57,1.33,.65,1.88,.86,6.32,1.7,12.64,3.37,18.82,.99,3.67,1.5,4.02,5.28,3.28,5.9-1.15,11.27-3.59,16.41-6.56,4.6-2.66,8.7-5.96,12.61-9.92,2.47,9.03,4.13,17.89,4.99,26.89Z"/></g><g><path class="k" d="M137.07,40.46c.35,0,.61,.06,.76,.19,.15,.13,.23,.38,.23,.76v1.89h6.29c.35,0,.61,.06,.76,.19s.23,.38,.23,.76v4.43c0,.38-.08,.63-.23,.76-.15,.13-.4,.19-.76,.19h-6.29c0,.73,.1,1.43,.3,2.1,.2,.67,.54,1.29,1,1.88s1.11,1.09,1.91,1.53c.81,.44,1.83,.79,3.07,1.04,.1,.03,.22,.05,.36,.08,.14,.03,.27,.08,.4,.17,.13,.09,.23,.21,.32,.38,.09,.17,.13,.4,.13,.7v4.21c0,.46-.12,.73-.36,.82-.24,.09-.45,.12-.62,.09-.88-.08-1.79-.21-2.71-.4-.92-.19-1.83-.45-2.71-.8-.88-.34-1.73-.78-2.54-1.31s-1.53-1.16-2.16-1.89c-.66,.73-1.38,1.36-2.18,1.89s-1.64,.97-2.52,1.31c-.88,.34-1.79,.61-2.71,.8s-1.83,.32-2.71,.4c-.18,.03-.39,0-.62-.09-.24-.09-.36-.36-.36-.82v-4.21c0-.3,.04-.54,.13-.7,.09-.16,.2-.29,.32-.38,.13-.09,.26-.14,.4-.17s.26-.05,.36-.08c1.24-.25,2.25-.6,3.05-1.04,.8-.44,1.43-.95,1.91-1.53s.81-1.21,1-1.88c.19-.67,.3-1.37,.32-2.1h-6.33c-.35,0-.61-.06-.76-.19-.15-.13-.23-.38-.23-.76v-4.43c0-.38,.08-.63,.23-.76s.4-.19,.76-.19h6.33v-1.89c0-.38,.08-.63,.23-.76,.15-.13,.4-.19,.76-.19h5.23Zm19.44,34.86c.05,.38-.01,.62-.19,.72-.18,.1-.44,.18-.79,.23-1.74,.18-3.58,.33-5.49,.47-1.92,.14-3.85,.26-5.78,.36-1.93,.1-3.83,.18-5.7,.23s-3.61,.08-5.23,.08c-2.42,0-4.16-.65-5.21-1.95-1.05-1.3-1.57-3.38-1.57-6.23v-3.79c0-.38,.08-.63,.23-.76,.15-.13,.4-.19,.76-.19h5.3c.35,0,.61,.06,.76,.19,.15,.13,.23,.38,.23,.76v3.07c0,.91,.19,1.58,.57,2.01,.38,.43,1.07,.63,2.08,.61,1.36-.03,2.83-.07,4.4-.13,1.57-.06,3.16-.14,4.77-.23,1.62-.09,3.23-.2,4.85-.34,1.62-.14,3.17-.28,4.66-.44,.35-.05,.59,0,.72,.15,.13,.15,.21,.42,.26,.8l.38,4.4Zm-6.71-8.9c-.35,0-.61-.06-.76-.19-.15-.13-.23-.38-.23-.76v-23.11c0-.38,.08-.63,.23-.76,.15-.13,.4-.19,.76-.19h5.3c.35,0,.61,.06,.76,.19,.15,.13,.23,.38,.23,.76v23.11c0,.38-.08,.63-.23,.76-.15,.13-.4,.19-.76,.19h-5.3Z"/><path class="k" d="M159.16,42.35c0-.38,.08-.63,.23-.76,.15-.13,.4-.19,.76-.19h19.82c.35,0,.61,.06,.76,.19,.15,.13,.23,.38,.23,.76v2.99c.15-.08,.35-.11,.61-.11h3.64v-2.88c0-.38,.08-.63,.23-.76,.15-.13,.4-.19,.76-.19h5.3c.35,0,.61,.06,.76,.19,.15,.13,.23,.38,.23,.76v14.78c0,.38-.08,.63-.23,.76-.15,.13-.4,.19-.76,.19h-5.3c-.35,0-.61-.06-.76-.19-.15-.13-.23-.38-.23-.76v-5.61h-3.64c-.35,0-.61-.06-.76-.19-.15-.13-.23-.38-.23-.76v-2.92c-.08,.05-.17,.08-.27,.08h-6.33c.33,.91,.95,1.71,1.86,2.39,.91,.68,2.29,1.2,4.13,1.55,.1,.03,.22,.05,.36,.08,.14,.03,.27,.08,.4,.17,.13,.09,.23,.21,.32,.38,.09,.17,.13,.4,.13,.7v4.17c0,.45-.12,.73-.36,.81s-.45,.12-.62,.09c-.88-.08-1.79-.21-2.71-.4s-1.83-.45-2.71-.79c-.88-.34-1.73-.78-2.54-1.31-.81-.53-1.53-1.16-2.16-1.89-.66,.73-1.38,1.36-2.18,1.89s-1.64,.97-2.52,1.31c-.88,.34-1.79,.61-2.71,.79s-1.83,.32-2.71,.4c-.18,.03-.39,0-.62-.09-.24-.09-.36-.36-.36-.81v-4.17c0-.3,.04-.54,.13-.7,.09-.16,.2-.29,.32-.38,.13-.09,.26-.14,.4-.17s.26-.05,.36-.08c1.82-.35,3.18-.87,4.09-1.55,.91-.68,1.53-1.48,1.86-2.39h-5.99c-.35,0-.61-.06-.76-.19-.15-.13-.23-.38-.23-.76v-4.43Zm33.76,33.46c.05,.3-.01,.49-.19,.57s-.44,.14-.8,.19c-1.74,.18-3.47,.32-5.17,.42-1.7,.1-3.47,.18-5.29,.25-1.82,.06-3.72,.11-5.7,.13-1.98,.02-4.12,.04-6.42,.04s-4.07-.49-5.15-1.46c-1.09-.97-1.63-2.54-1.63-4.72v-4.43c0-.35,.08-.59,.23-.72,.15-.13,.4-.19,.76-.19h22.35v-1.44h-22.35c-.35,0-.61-.06-.76-.19-.15-.13-.23-.37-.23-.72v-2.92c0-.38,.08-.63,.23-.76,.15-.13,.4-.19,.76-.19h27.92c.35,0,.61,.06,.76,.19,.15,.13,.23,.38,.23,.76v9.06c0,.38-.08,.63-.23,.76-.15,.13-.4,.19-.76,.19h-22.35v.42c0,.58,.15,.93,.46,1.06,.3,.13,.77,.19,1.4,.19,2.12,0,4.11-.01,5.97-.04s3.62-.06,5.3-.11c1.68-.05,3.28-.11,4.81-.19,1.53-.08,3.04-.18,4.53-.3,.63-.03,.96,.21,.99,.72l.34,3.45Z"/><path class="k" d="M218.15,41.41c.35,0,.61,.06,.76,.19,.15,.13,.23,.38,.23,.76v5.34c0,.73,.09,1.45,.26,2.14,.18,.7,.51,1.34,.99,1.93,.48,.59,1.12,1.12,1.93,1.59,.81,.47,1.84,.83,3.11,1.08,.1,.03,.22,.05,.36,.08,.14,.03,.27,.08,.4,.17,.13,.09,.23,.21,.32,.38,.09,.17,.13,.4,.13,.7v4.21c0,.45-.12,.73-.36,.81s-.45,.12-.62,.09c-.88-.08-1.79-.21-2.71-.4s-1.83-.45-2.71-.79c-.88-.34-1.73-.78-2.54-1.31-.81-.53-1.53-1.16-2.16-1.89-.66,.73-1.38,1.36-2.18,1.89s-1.64,.97-2.52,1.31c-.88,.34-1.79,.61-2.71,.79s-1.83,.32-2.71,.4c-.18,.03-.39,0-.62-.09-.24-.09-.36-.36-.36-.81v-4.21c0-.3,.04-.54,.13-.7,.09-.16,.2-.29,.32-.38,.13-.09,.26-.14,.4-.17s.26-.05,.36-.08c1.26-.25,2.3-.61,3.11-1.08,.81-.47,1.45-1,1.93-1.59,.48-.59,.81-1.24,.99-1.93,.18-.69,.26-1.41,.26-2.14v-5.34c0-.38,.08-.63,.23-.76,.15-.13,.4-.19,.76-.19h5.23Zm5.95,37.21c-2.2,0-4.07-.21-5.63-.64-1.55-.43-2.82-1.02-3.79-1.78s-1.68-1.64-2.12-2.63c-.44-1-.66-2.07-.66-3.2s.23-2.2,.68-3.2c.45-1,1.17-1.87,2.16-2.61,.99-.75,2.25-1.33,3.79-1.76,1.54-.43,3.4-.64,5.57-.64s4.03,.21,5.57,.64c1.54,.43,2.8,1.02,3.79,1.76,.99,.75,1.71,1.62,2.16,2.61,.45,1,.68,2.06,.68,3.2s-.22,2.2-.66,3.2c-.44,1-1.15,1.88-2.12,2.63-.97,.76-2.24,1.35-3.79,1.78-1.55,.43-3.43,.64-5.63,.64Zm0-5.95c.66,0,1.29-.04,1.89-.11,.61-.08,1.14-.2,1.61-.38,.47-.18,.84-.42,1.12-.72,.28-.3,.42-.68,.42-1.14s-.14-.83-.42-1.12c-.28-.29-.65-.53-1.12-.72-.47-.19-1-.32-1.61-.4-.61-.08-1.24-.11-1.89-.11s-1.29,.04-1.89,.11c-.61,.08-1.14,.21-1.61,.4-.47,.19-.84,.43-1.12,.72-.28,.29-.42,.66-.42,1.12s.14,.83,.42,1.14c.28,.3,.65,.54,1.12,.72,.47,.18,1,.3,1.61,.38,.61,.08,1.24,.11,1.89,.11Zm17.43-20c0,.38-.08,.63-.23,.76-.15,.13-.4,.19-.76,.19h-3.49v6.71c0,.38-.08,.63-.23,.76-.15,.13-.4,.19-.76,.19h-5.3c-.35,0-.61-.06-.76-.19-.15-.13-.23-.38-.23-.76v-17.96c0-.38,.08-.63,.23-.76,.15-.13,.4-.19,.76-.19h5.3c.35,0,.61,.06,.76,.19,.15,.13,.23,.38,.23,.76v4.96h3.49c.35,0,.61,.06,.76,.19,.15,.13,.23,.38,.23,.76v4.4Z"/><path class="k" d="M249.18,47.51c-.05,.68-.09,1.31-.11,1.88s-.03,1.22,0,1.95c.03,.91,.22,1.58,.59,2.01,.37,.43,1.05,.63,2.06,.61,1.49-.05,3.03-.1,4.62-.15,1.59-.05,3.33-.16,5.23-.34,.35-.05,.59,0,.72,.13,.13,.14,.21,.4,.26,.78l.38,4.28c.05,.38-.01,.62-.19,.72-.18,.1-.44,.18-.8,.23-2.5,.2-4.84,.34-7.03,.42-2.18,.08-4.3,.11-6.35,.11-2.42,0-4.16-.65-5.21-1.95s-1.57-3.38-1.57-6.23c0-1.74,.04-3.36,.11-4.85,.08-1.49,.21-3.07,.42-4.74,.05-.38,.14-.63,.27-.76s.37-.19,.72-.19h17.66c.35,0,.61,.06,.76,.19,.15,.13,.23,.38,.23,.76v4.21c0,.38-.08,.63-.23,.76-.15,.13-.4,.19-.76,.19h-11.78Zm24.25,25.39c0,1.59-.34,2.74-1.02,3.45-.68,.71-1.71,1.06-3.07,1.06h-21.71c-1.36,0-2.39-.35-3.07-1.06-.68-.71-1.02-1.86-1.02-3.45v-9.32c0-.38,.08-.63,.23-.76,.15-.13,.4-.19,.76-.19h27.92c.35,0,.61,.06,.76,.19,.15,.13,.23,.38,.23,.76v9.32Zm-8.07-1.44c.43,0,.72-.08,.87-.25,.15-.16,.23-.49,.23-.97v-1.86h-16.03v1.86c0,.48,.08,.8,.23,.97s.44,.25,.87,.25h13.83Zm12.54-18.79c0,.38-.08,.63-.23,.76-.15,.13-.4,.19-.76,.19h-3.49v6.33c0,.38-.08,.63-.23,.76-.15,.13-.4,.19-.76,.19h-5.3c-.35,0-.61-.06-.76-.19-.15-.13-.23-.38-.23-.76v-17.58c0-.38,.08-.63,.23-.76,.15-.13,.4-.19,.76-.19h5.3c.35,0,.61,.06,.76,.19,.15,.13,.23,.38,.23,.76v4.96h3.49c.35,0,.61,.06,.76,.19,.15,.13,.23,.38,.23,.76v4.4Z"/></g><g><g class="i"><g><path class="j" d="M164.66,253.4c-.4,.18-.73,.38-.79,.64-.17,.72-.36,1.44-.54,2.17,.18-.73,.36-1.45,.54-2.17,.06-.26,.39-.46,.79-.64Z"/><path class="j" d="M156.71,280.3c-.02-.63,0-1.3,.06-1.97-.05,.67-.08,1.34-.06,1.97,.2,6.31,.72,12.83,2.5,18.83,3.08,10.39,4.56,20.98,5.57,31.65-1-10.67-2.48-21.26-5.57-31.65-1.78-6-2.3-12.52-2.5-18.83Z"/><path class="j" d="M108.3,144.89c.13,.29,.22,.63,.29,.99-.07-.36-.16-.69-.29-.99Z"/><path class="j" d="M108.61,145.96c.07,.36,.11,.75,.12,1.17-.01-.41-.05-.8-.12-1.17Z"/><path class="j" d="M165.87,252.87h0c.13,.15,.26,.29,.39,.44-.13-.15-.26-.29-.39-.44Z"/><path class="j" d="M224.54,328.17c-.72-.61-1.45-1.21-2.18-1.81-.98-.81-1.94-1.66-2.91-2.48,.97,.83,1.92,1.68,2.91,2.48,.73,.6,1.45,1.2,2.18,1.81Z"/><path class="j" d="M197.32,293.01c.75,1.21,1.13,2.66,1.18,4.32-.05-1.67-.43-3.12-1.18-4.32Z"/><path class="j" d="M165.74,265.93c-.21-1.49-.48-2.96-.94-4.37-.26-.78-.43-1.52-.51-2.22,.08,.71,.25,1.44,.51,2.22,.46,1.4,.73,2.87,.94,4.37Z"/><path class="j" d="M221.92,180.36c2.15-.96,3.9-3.26,4.67-6.32h0c-.77,3.06-2.52,5.36-4.67,6.32Z"/><path class="f" d="M224.54,328.17c-.72-.61-1.45-1.21-2.18-1.81-.98-.81-1.94-1.66-2.91-2.48-2.91-2.49-5.77-5.03-8.57-7.64-1.87-1.75-3.72-3.51-5.55-5.29-1.84-1.78-3.66-3.57-5.48-5.37-1.32-1.31-1.63-4.36-1.42-6.5,.06-.6,.08-1.18,.07-1.74-.05-1.67-.43-3.12-1.18-4.32-.25-.4-.54-.78-.87-1.12-.99-1.04-2.35-1.82-4.11-2.31-4.07-1.14-8.37-1.74-12.19-3.46-1.09-.49-2.15-1.03-3.2-1.61-1.58-.87-3.12-1.82-4.63-2.81s-3.01-2.03-4.48-3.07c-2.35-1.66-3.6-4.17-1.9-7.22,.04-.08,.09-.16,.14-.24,.14-.25,.28-.52,.24-.74-.11-.74-.2-1.49-.29-2.24-.09-.75-.18-1.5-.28-2.25-.21-1.49-.48-2.96-.94-4.37-.26-.78-.43-1.52-.51-2.22-.23-2.12,.41-3.93,2.36-5.59-.13-.15-.26-.29-.39-.44-.13-.15-.26-.29-.39-.44-.35,.19-.82,.35-1.22,.53s-.73,.38-.79,.64c-.17,.72-.36,1.44-.54,2.17-.54,2.18-1.02,4.38-.98,6.56,.06,3.1-.71,5.04-2.79,7.52-1.66,1.98-2.56,5.12-2.78,8.04-.05,.67-.08,1.34-.06,1.97,.2,6.31,.72,12.83,2.5,18.83,3.08,10.39,4.56,20.98,5.57,31.65,.33,3.56,.62,7.12,.89,10.69,.28,3.67,.54,7.34,.81,11.01,.18,2.45,.36,4.89,.54,7.34h95.39c-.25-1.72-.49-3.43-.74-5.14s-.49-3.44-.74-5.14c-14.84-2.63-25.51-12.28-36.38-21.36Z"/><path d="M190.77,153.3c1.63-4.38,3.53-8.66,5.04-13.08,.68-1.99,.73-4.22,1.06-6.34-.34-.07-.68-.14-1.02-.2-.88,3.25-1.57,6.58-2.7,9.74-1.9,5.3-4.28,10.43-6.1,15.76-1.53,4.47-2.23,9.21-.45,13.79,.75,1.92,2.28,3.52,3.46,5.27,.49-.24,.98-.49,1.47-.73-4.73-4.37-5.1-9.72-3.7-15.32,.75-3.02,1.85-5.96,2.94-8.88Z"/><path d="M220.04,182.06c4.32-.17,7.78-4.05,8.41-9.46h-18.26c1.34,6.19,4.99,9.65,9.85,9.46Zm6.55-8.02c-.77,3.06-2.52,5.36-4.67,6.32-.72,.32-1.48,.49-2.26,.49-3.39,0-6.37-2.74-7.39-6.81,4.77,0,9.54,0,14.31,0h0Z"/><path d="M206.22,144.41l.11-.41c-1.19,.3-2.34,.96-3.45,1.99,1.05-.07,2.09-.13,3.13-.2,.21-.7,.35-1.26,.21-1.38Z"/><path d="M212.19,145.41c-1.45-1.04-2.89-1.54-4.3-1.57-.18,.6-.35,1.23-.49,1.87,1.54-.1,3.11-.2,4.78-.3Z"/><path d="M225.84,145.99c3.07-.19,5.98-.38,9.32-.59-3.22-2.32-6.43-2.1-9.32,.59Z"/><path class="e" d="M219.66,180.85c.78,0,1.54-.17,2.26-.49,2.15-.96,3.9-3.26,4.67-6.32h-14.31c1.02,4.07,3.99,6.81,7.39,6.81Z"/><path class="e" d="M212.28,174.04h0Z"/><path d="M209.53,150.14c-1.83,0-2.11,1.95-2.11,3.85s.93,3.02,2.11,3.02c.92,0,1.69-.95,1.99-2.27l-1.3-1.17,1.11-1.81c-.37-.97-1.04-1.63-1.8-1.63Z"/><path d="M230.56,149.52c-1.84,0-2.11,1.95-2.11,3.85s.93,3.02,2.11,3.02c.92,0,1.69-.95,1.99-2.27l-1.3-1.17,1.11-1.81c-.37-.97-1.04-1.63-1.8-1.63Z"/><path d="M220.58,155.78c.27-.74,.55-1.47,.83-2.2-2.61,1.52-3.45,5.12-2.21,7.31,.66,1.16,1.91,2.2,2.23,3.39,.3,1.11-.29,2.35-.49,3.54,.9-.38,1.9-.99,1.85-1.55-.12-1.41-.26-3.02-1.22-4.16-1.76-2.09-1.8-4.12-.99-6.33Z"/><path class="j" d="M78.63,221.6h0c-.57-.4-1.14-.84-1.71-1.3,.57,.46,1.14,.91,1.71,1.3Z"/><path class="j" d="M59.53,219.59h0c-.13-.06-.27-.13-.4-.19,.13,.06,.27,.13,.4,.19Z"/><path class="j" d="M67.82,211.06c.33-.17,.63-.26,.91-.25-.28,0-.58,.08-.91,.25Z"/><path class="j" d="M68.81,215.62c.2,0,.39,0,.59,.03,1.22,.14,2.39,.72,3.54,1.49-1.15-.78-2.32-1.35-3.54-1.49-.19-.02-.39-.03-.59-.03Z"/><path class="j" d="M66.97,211.61c.32-.23,.6-.42,.86-.55-.25,.13-.54,.32-.86,.55Z"/><path class="j" d="M72.16,213.49c-.59-.6-1.07-1.1-1.49-1.49,.41,.4,.9,.89,1.49,1.49Z"/><path class="j" d="M74.3,215.62c.44,.43,.87,.87,1.28,1.33-.41-.46-.83-.91-1.28-1.33-.85-.82-1.55-1.52-2.14-2.12,.59,.6,1.29,1.31,2.14,2.12Z"/><path class="e" d="M58.72,219.21c.13,.06,.27,.13,.4,.19,.13,.06,.27,.13,.4,.19,1.86-.81,3.77-2.07,5.63-2.95,1.24-.59,2.47-1.01,3.65-1.02,.2,0,.39,0,.59,.03,1.22,.14,2.39,.72,3.54,1.49,.58,.39,1.15,.83,1.71,1.28,.38,.31,.76,.62,1.13,.94s.75,.63,1.13,.94c.57,.46,1.14,.91,1.71,1.3-.78-1.72-1.83-3.26-3.06-4.65-.41-.46-.83-.91-1.28-1.33-.85-.82-1.55-1.52-2.14-2.12-.59-.6-1.07-1.1-1.49-1.49s-.76-.69-1.07-.89-.59-.3-.88-.31c-.28,0-.58,.08-.91,.25-.25,.13-.54,.32-.86,.55-.32,.23-.66,.49-1.07,.81-.83,.64-1.88,1.47-3.28,2.47-1.54,1.09-2.6,2.87-3.89,4.33Z"/><path class="j" d="M81.18,155.13c-1.56,.2-3.13,.38-4.7,.57,1.57-.19,3.13-.37,4.7-.57h0Z"/><path class="j" d="M63.81,161.09c.17-1.35,.96-2.1,3.21-2.18,.72-.03,1.45-.08,2.17-.14-.72,.06-1.45,.12-2.17,.14-2.25,.08-3.04,.83-3.21,2.18Z"/><path class="j" d="M68.89,207.34c-.05,.49-.18,.91-.41,1.25,.23-.34,.36-.76,.41-1.25Z"/><path class="j" d="M65.56,209.78c-1.83-16.22-3.7-32.25-5.33-48.3-.02-.15,0-.33,.02-.51-.03,.19-.03,.36-.02,.51,1.63,16.05,3.5,32.08,5.33,48.3h0Z"/><path class="j" d="M67.11,156.9c-1.56,.23-3.11,.47-4.67,.75-.12,.02-.25,.08-.38,.16,.13-.08,.26-.14,.38-.16,1.55-.28,3.11-.52,4.67-.75Z"/><path class="j" d="M75.7,157.99c.96-.14,1.92-.29,2.88-.43,.38-.06,.75-.2,1.12-.36-.37,.16-.74,.3-1.12,.36-.96,.14-1.92,.29-2.88,.43Z"/><path class="e" d="M65.56,209.78c1.16-.08,1.96-.32,2.48-.73,.17-.14,.32-.29,.43-.46,.23-.34,.36-.76,.41-1.25,.05-.49,.02-1.05-.06-1.68-.43-3.53-.85-7.06-1.26-10.59-.41-3.53-.81-7.06-1.22-10.59-.81-7.06-1.61-14.13-2.46-21.18-.08-.68-.13-1.29-.11-1.82,0-.13,.02-.26,.03-.38,.17-1.35,.96-2.1,3.21-2.18,.72-.03,1.45-.08,2.17-.14,2.17-.17,4.34-.46,6.51-.78,.96-.14,1.92-.29,2.88-.43,.38-.06,.75-.2,1.12-.36,.61-.27,1.21-.62,1.83-.89-.12-.39-.23-.78-.35-1.17-1.56,.2-3.13,.38-4.7,.57-3.13,.37-6.26,.75-9.38,1.2-1.56,.23-3.11,.47-4.67,.75-.12,.02-.25,.08-.38,.16-.78,.51-1.65,2.04-1.81,3.15-.03,.19-.03,.36-.02,.51,1.63,16.05,3.5,32.08,5.33,48.3Z"/><path class="j" d="M154.03,234.99c.51,1.48,1.56,2.29,3.64,2.45h0c-2.08-.16-3.13-.97-3.64-2.45Z"/><path class="j" d="M126.36,151.65c2.9-.31,5.79-.61,8.72-.92-2.92,.31-5.82,.61-8.72,.92h0Z"/><path class="j" d="M126.17,150.43c.2-.07,.39-.15,.59-.24-.2,.08-.39,.16-.59,.24l.06,.41-.06-.41Z"/><path class="j" d="M152.05,186.99c-1.33-11.56-2.66-23.12-4.02-34.68-.22-1.89-.52-3.07-1.12-3.77,.6,.7,.9,1.88,1.12,3.77,1.37,11.56,2.7,23.12,4.02,34.68Z"/><path class="j" d="M157.6,236.06c-.05-.91-.1-1.8-.2-2.66-.55-4.84-1.12-9.69-1.68-14.53,.56,4.84,1.13,9.69,1.68,14.53,.1,.86,.15,1.75,.2,2.66Z"/><path class="j" d="M144.52,147.7c-.56,0-1.22,.04-1.99,.13-3.9,.45-7.78,.94-11.67,1.46,3.89-.52,7.78-1.02,11.67-1.46,.77-.09,1.43-.14,1.99-.13Z"/><path class="e" d="M126.23,150.84l.13,.81c2.9-.31,5.79-.61,8.72-.92,2.92-.31,5.87-.62,8.86-.93,.12,.68,.24,1.28,.35,1.84,.11,.56,.2,1.09,.26,1.61,3.07,26.67,6.16,53.34,9.14,80.03,.07,.65,.18,1.22,.36,1.71,.51,1.48,1.56,2.29,3.64,2.45-.03-.48-.05-.93-.08-1.39-.05-.91-.1-1.8-.2-2.66-.55-4.84-1.12-9.69-1.68-14.53s-1.12-9.69-1.68-14.53c-.67-5.78-1.33-11.56-1.99-17.34-1.33-11.56-2.66-23.12-4.02-34.68-.22-1.89-.52-3.07-1.12-3.77-.09-.1-.18-.19-.28-.27-.5-.4-1.17-.57-2.11-.58-.56,0-1.22,.04-1.99,.13-3.9,.45-7.78,.94-11.67,1.46-.78,.1-1.56,.2-2.33,.31-.61,.08-1.19,.35-1.77,.6-.2,.08-.39,.16-.59,.24l.06,.41Z"/><path class="j" d="M198.21,162.85c-.6,.81-1,1.59-1.23,2.38l1.23-2.38Z"/><path class="j" d="M206.6,227.82c16.47,1.99,29.77-5.37,41.59-14.68-3.87-3.67-8.71-6.54-10.92-10.82-2.24-4.34-1.88-10.08-2.74-15.7-8.83,8.35-17.54,16.76-30.49,5.9,.6,8.35-3.55,12.65-9.51,15.74-.63,.33-1.11,1.49-1.19,2.32-.94,9.14,4.3,16.16,13.26,17.24Z"/><path class="j" d="M154.93,257.7c-.27-2.32-.52-4.59-.68-6.86-.03-.38-.06-.74-.11-1.1,.05,.36,.08,.72,.11,1.1,.17,2.27,.41,4.54,.68,6.86Z"/><path class="j" d="M78.24,274.23h0c26-3.13,51.64-6.22,77.54-9.33-.14-1.25-.29-2.47-.43-3.67,.14,1.2,.29,2.42,.43,3.67-25.91,3.12-51.54,6.2-77.54,9.33Z"/><path class="j" d="M150.75,243.47c.32,.25,.61,.51,.88,.77-.27-.26-.56-.52-.88-.77-1.63-1.29-2.65-3.89-3.01-6.06,.36,2.17,1.38,4.77,3.01,6.06Z"/><path class="j" d="M67.32,160.46c-.63,.11-1.25,.21-1.88,.29,0,.41-.01,.78-.02,1.13,0-.35,.02-.72,.02-1.13,.63-.08,1.25-.18,1.88-.29Z"/><path class="j" d="M87.42,159.62c-2.4-.01-4.81-.17-7.25-.55-.59-.09-1.18-.14-1.77-.16,.6,.02,1.19,.07,1.77,.16,2.43,.37,4.85,.54,7.25,.55Z"/><path class="j" d="M150.39,235.38c-1.43,.81-2.74,1.54-2.66,2.03-.08-.49,1.23-1.22,2.66-2.03Z"/><path class="j" d="M139.58,151.75c-.22,.03-.43,.06-.64,.11-3.03,.63-6.04,1.4-9.06,2.12,3.02-.72,6.03-1.5,9.06-2.12,.21-.04,.43-.07,.64-.11Z"/><path class="j" d="M79.46,219.91c-.35-.7-.75-1.38-1.19-2.03,.44,.66,.84,1.33,1.19,2.03Z"/><path class="j" d="M80.38,233.6c.31-.74,.23-1.78,.24-2.78-.01,1,.07,2.05-.24,2.78Z"/><path class="j" d="M76,238.41c.38-.28,.42-1.03,.44-1.85-.02,.82-.06,1.57-.44,1.85-.79,.59-1.2,1.24-1.39,1.93,.19-.69,.6-1.34,1.39-1.93Z"/><path class="j" d="M142.79,151.42c-.39,.04-.75,.08-1.1,.11,.35-.03,.71-.06,1.1-.11h0Z"/><path class="j" d="M151.18,234.93c-.26,.15-.52,.3-.78,.45,.26-.15,.52-.3,.78-.45Z"/><path class="e" d="M150.39,235.38c.26-.15,.52-.3,.78-.45s.52-.31,.76-.46c.12-.08,.24-.15,.36-.23-.78-6.76-1.56-13.56-2.34-20.39-.78-6.83-1.57-13.7-2.36-20.6-1.58-13.8-3.18-27.74-4.8-41.82-.39,.04-.75,.08-1.1,.11-.78,.07-1.46,.12-2.11,.22-.22,.03-.43,.06-.64,.11-3.03,.63-6.04,1.4-9.06,2.12-3.88,.93-7.77,1.77-11.69,2.09-3.16,.25-6.31,.69-9.45,1.18-.79,.12-1.57,.25-2.36,.37-1.57,.25-3.14,.5-4.71,.74-4.72,.71-9.45,1.29-14.25,1.27-2.4-.01-4.81-.17-7.25-.55-.59-.09-1.18-.14-1.77-.16-2.38-.08-4.84,.35-7.33,.83-1.24,.24-2.5,.5-3.75,.72-.63,.11-1.25,.21-1.88,.29,0,.41-.01,.78-.02,1.13-.02,.58-.03,1.11,.03,1.62,1.67,14.71,3.3,29.43,5.15,44.13,.21,1.71,1.3,3.69,2.59,4.79,.66,.57,1.3,1.15,1.9,1.74,1.21,1.18,2.28,2.41,3.17,3.73,.44,.66,.84,1.33,1.19,2.03,.69,1.4,1.18,2.89,1.41,4.51s.19,3.35-.15,5.24c-.07,.37-.09,.76-.09,1.16-.01,1,.07,2.05-.24,2.78-.06,.15-.14,.28-.23,.4-.73,.91-2.63,.83-3.64,1.09-.04,.3-.05,.63-.06,.97,0,.17,0,.33,0,.5-.02,.82-.06,1.57-.44,1.85-.79,.59-1.2,1.24-1.39,1.93-.13,.46-.16,.93-.14,1.42,.02,.72,.14,1.47,.2,2.2,.12,1.68,.41,3.34,.61,5.02,.98,8.33,1.96,16.67,2.97,25.26,26-3.13,51.64-6.22,77.54-9.33-.14-1.25-.29-2.47-.43-3.67-.14-1.2-.29-2.37-.42-3.53-.27-2.32-.52-4.59-.68-6.86-.03-.38-.06-.74-.11-1.1-.05-.36-.1-.7-.17-1.04-.28-1.35-.76-2.55-1.63-3.65-.22-.27-.46-.54-.72-.81-.27-.26-.56-.52-.88-.77-1.63-1.29-2.65-3.89-3.01-6.06-.08-.49,1.23-1.22,2.66-2.03Z"/><path class="j" d="M66.92,222.69c-2.69,.76-5.49,2.5-8.66,3.75h0c3.17-1.24,5.97-2.99,8.66-3.75Z"/><path class="j" d="M69.58,222.32c2.13,.06,4.23,1.18,6.38,2.43-2.14-1.25-4.25-2.37-6.38-2.43h0Z"/><path class="j" d="M79.87,226.94h0c-1.33-.64-2.63-1.44-3.92-2.19,1.29,.75,2.59,1.55,3.92,2.19Z"/><path class="j" d="M72.13,219.09c-.85-.72-1.71-1.43-2.59-2.13-.21-.17-.57-.24-.98-.23,.4,0,.76,.06,.98,.23,.87,.7,1.73,1.41,2.59,2.13Z"/><path class="j" d="M67.31,216.95c.26-.09,.55-.16,.84-.19-.28,.04-.57,.1-.84,.19Z"/><path class="j" d="M61.05,221.37c-.59,.49-1.17,.99-1.74,1.51-.56,.52-.68,1.55-.85,2.56,.17-1.02,.28-2.05,.85-2.56,.56-.52,1.14-1.02,1.74-1.51Z"/><path class="e" d="M69.58,222.32h0c2.13,.06,4.23,1.18,6.38,2.43,1.29,.75,2.59,1.55,3.92,2.19-.05-.31,.05-.94-.2-1.17-.83-.75-1.66-1.5-2.5-2.25-1.67-1.5-3.34-2.98-5.05-4.43-.85-.72-1.71-1.43-2.59-2.13-.21-.17-.57-.24-.98-.23-.13,0-.27,.01-.42,.03-.28,.04-.57,.1-.84,.19-.13,.04-.26,.09-.38,.15-.12,.05-.22,.11-.32,.18-1.27,.85-2.54,1.73-3.76,2.66-.61,.46-1.22,.94-1.81,1.43-.59,.49-1.17,.99-1.74,1.51-.56,.52-.68,1.55-.85,2.56-.06,.34-.12,.68-.2,.99,3.17-1.24,5.97-2.99,8.66-3.75,.9-.25,1.78-.39,2.66-.37Z"/><path class="j" d="M155.43,247.84c.14,1.29,.28,2.56,.42,3.83-.14-1.27-.27-2.55-.42-3.83h0Z"/><path class="j" d="M76.35,272.17c.26,2.57,.97,3.53,3.15,3.48-2.18,.05-2.89-.91-3.15-3.48-.98-9.82-2.26-19.61-3.28-29.43-.13-1.21-.4-2.09-1-2.59,.6,.5,.87,1.37,1,2.59,1.02,9.82,2.3,19.61,3.28,29.43Z"/><path class="j" d="M70.08,239.69c-.3,.02-.63,.08-1,.15,.67,5.8,1.33,11.53,1.98,17.24-.66-5.7-1.31-11.44-1.98-17.24,.36-.08,.69-.13,1-.15Z"/><path class="j" d="M73.98,277.25c.55,.79,1.38,1.12,2.64,1.15-1.27-.03-2.09-.36-2.64-1.15Z"/><path class="j" d="M105.16,272.56c-8.21,1-16.43,1.99-24.63,3.01-.37,.05-.72,.07-1.03,.08,.31,0,.65-.04,1.03-.08,8.21-1.03,16.42-2.02,24.63-3.01Z"/><path class="j" d="M112.14,274.21c-6.73,.81-13.45,1.63-20.18,2.44,6.73-.82,13.45-1.64,20.18-2.44,14.6-1.76,29.2-3.47,43.79-5.26,1.78-.22,2.98-.48,3.75-.97-.77,.5-1.97,.76-3.75,.97-14.59,1.78-29.2,3.5-43.79,5.26Z"/><path class="j" d="M159.27,250.56c-.46-1.37-1.44-2.29-3.32-2.63,1.89,.34,2.87,1.25,3.32,2.63Z"/><path class="e" d="M160.71,262.64c-.41-3.47-.81-6.94-1.12-10.41-.05-.61-.15-1.17-.32-1.67-.46-1.37-1.44-2.29-3.32-2.63-.17-.03-.33-.07-.51-.09,.14,1.29,.28,2.56,.42,3.83,.14,1.27,.27,2.53,.41,3.79,.28,2.51,.56,5,.9,7.48,.04,.29,.07,.57,.08,.82,.07,1.28-.22,2.09-1.22,2.55-.4,.18-.92,.31-1.57,.38-16.43,1.91-32.86,3.87-49.29,5.86-8.21,1-16.43,1.99-24.63,3.01-.37,.05-.72,.07-1.03,.08-2.18,.05-2.89-.91-3.15-3.48-.98-9.82-2.26-19.61-3.28-29.43-.13-1.21-.4-2.09-1-2.59-.45-.37-1.09-.53-1.99-.46-.3,.02-.63,.08-1,.15,.67,5.8,1.33,11.53,1.98,17.24,.66,5.7,1.32,11.38,2,17.05,.11,.96,.27,1.73,.51,2.33,.12,.3,.25,.57,.41,.79,.55,.79,1.38,1.12,2.64,1.15,.54,.01,1.17-.03,1.89-.12,4.48-.55,8.97-1.09,13.45-1.63,6.73-.82,13.45-1.64,20.18-2.44,14.6-1.76,29.2-3.47,43.79-5.26,1.78-.22,2.98-.48,3.75-.97,1.28-.83,1.38-2.31,1.02-5.34Z"/><path class="j" d="M168.71,270.72c-.33-.38-.66-.75-.98-1.13,.31,.38,.64,.75,.98,1.13-.68,.48-1.18,.95-1.53,1.41,.35-.46,.85-.93,1.53-1.41Z"/><path class="j" d="M184.21,252.34c-10.24-4.87-20.44-9.8-30.73-14.55-.65-.3-1.4-.37-2.18-.37,.78,0,1.53,.07,2.18,.37,10.29,4.75,20.49,9.68,30.73,14.55Z"/><path class="j" d="M150.53,241.33c.11,.15,.23,.29,.36,.41,.49,.46,1,.9,1.54,1.32-.53-.42-1.05-.85-1.54-1.32-.13-.12-.25-.26-.36-.41Z"/><path class="j" d="M188.55,254.31c-.72-.33-1.45-.65-2.18-.97,.73,.32,1.45,.65,2.18,.97h0Z"/><path class="j" d="M149.53,237.43c-.19,0-.39,0-.58-.02h0c.19,.01,.38,.02,.58,.02Z"/><path class="j" d="M187.19,286.97c-2.58-.57-5.09-1.31-7.49-2.28,2.4,.97,4.9,1.71,7.49,2.28,4.59,1.01,9.33,1.61,12.01,6.12h0c-2.68-4.51-7.42-5.11-12.01-6.12Z"/><path class="j" d="M187.23,252.26c.61,.32,1.22,.64,1.83,.95l-.4,.87,.4-.87c-.6-.32-1.22-.63-1.83-.95Z"/><path class="j" d="M187.64,249.79c-1.2,0-2.58,.18-4.18,.51,.33,.17,.63,.33,.95,.5-.32-.17-.62-.33-.95-.5,1.6-.33,2.98-.51,4.18-.51Z"/><path class="e" d="M209.48,277.66c-.46-.33-.91-.67-1.34-1.03-6.51-5.29-9.96-12.9-13.12-20.82-1.73-4.32-3.76-6.01-7.37-6.02-1.2,0-2.58,.18-4.18,.51,.33,.17,.63,.33,.95,.5,.96,.5,1.9,.99,2.82,1.47,.61,.32,1.22,.64,1.83,.95l-.4,.87c-.03,.07-.07,.15-.1,.22h0c-.72-.33-1.45-.65-2.18-.97-.73-.32-1.45-.65-2.17-.99-10.24-4.87-20.44-9.8-30.73-14.55-.65-.3-1.4-.37-2.18-.37-.58,0-1.18,.03-1.77,.02-.19,0-.39,0-.58-.02,.46,1.1,.73,2.42,1.28,3.44,.09,.17,.19,.33,.3,.48,.11,.15,.23,.29,.36,.41,.49,.46,1,.9,1.54,1.32,1.06,.84,2.2,1.59,3.35,2.33,.57,.37,1.15,.73,1.72,1.09,3.91,2.47,7.9,4.82,12.57,7.66-2.99,1.02-4.36,2.39-4.51,4.12-.08,.86,.15,1.81,.64,2.85,.1,.21,.2,.42,.32,.63,.15,.28,.32,.78,.19,.97-1.82,2.74-.67,4.85,1.01,6.89,.31,.38,.64,.75,.98,1.13-.68,.48-1.18,.95-1.53,1.41-.23,.31-.4,.61-.51,.91-.6,1.65,.55,3.18,2.08,4.64,1.96,1.88,4.07,3.44,6.31,4.74,1.49,.87,3.05,1.61,4.64,2.26,2.4,.97,4.9,1.71,7.49,2.28,4.59,1.01,9.33,1.61,12.01,6.12,1.74-2.61,3.43-5.14,5.12-7.69,1.69-2.54,3.4-5.1,5.16-7.74Z"/><path class="j" d="M75.95,232.77c.16,.12,.32,.22,.49,.25,.47,.06,.95,.08,1.42,.08-.48,0-.95-.01-1.42-.08-.17-.02-.33-.12-.49-.25Z"/><path class="j" d="M69.42,223.83c1.81-.07,3.53,.34,5.08,1.21-1.55-.87-3.27-1.28-5.08-1.21Z"/><path class="j" d="M79.38,230.59c-.03-.17-.08-.33-.15-.48-.62-1.17-1.34-2.18-2.14-3.03,.79,.85,1.51,1.86,2.14,3.03,.08,.14,.12,.31,.15,.48Z"/><path class="j" d="M63.14,235.3c-3.71-3.43-4.53-5.58-2.42-7.68-2.1,2.1-1.29,4.25,2.42,7.68h0Z"/><path class="e" d="M63.14,235.3c1.71-2.99,3.43-4.68,5.37-5.17,.73-.18,1.49-.19,2.3-.04,1.35,.26,2.82,.97,4.47,2.13,.23,.16,.44,.37,.67,.54,.16,.12,.32,.22,.49,.25,.47,.06,.95,.08,1.42,.08,.48,0,.96-.02,1.44-.01,0-.81,.22-1.75,.08-2.49-.03-.17-.08-.33-.15-.48-.62-1.17-1.34-2.18-2.14-3.03s-1.67-1.53-2.6-2.06c-1.55-.87-3.27-1.28-5.08-1.21s-3.71,.62-5.63,1.66c-.34,.18-.65,.37-.95,.55-.89,.54-1.6,1.06-2.12,1.59-2.1,2.1-1.29,4.25,2.42,7.68Z"/><path class="j" d="M207.55,229.32c-6.34-.72-11.16-3.2-13.63-8.29,2.47,5.09,7.29,7.57,13.63,8.29Z"/><path class="j" d="M246.86,301.66c.44-.21,.89-.42,1.33-.63,.94-7.46,1.93-14.92,2.8-22.4-.87,7.47-1.86,14.93-2.8,22.4-.44,.21-.89,.42-1.33,.63Z"/><path class="j" d="M227.01,227.03c-5.15,1.74-10.6,2.66-16.35,2.51h0c5.76,.15,11.2-.77,16.35-2.51Z"/><path class="j" d="M164.99,241.22c.83-.02,1.63-.25,2.28-.72h0c-.65,.48-1.44,.7-2.28,.72Z"/><path class="j" d="M180.61,247.95c-.25,.02-.5,.02-.75,0,.25,0,.5,0,.75,0,.65-.04,1.27-.06,1.88-.06-.61,0-1.23,.02-1.88,.06Z"/><path class="j" d="M246.29,216.13c-.26,.18-.52,.38-.78,.59-.64,.5-1.28,.98-1.92,1.46,.65-.47,1.29-.96,1.92-1.46,.27-.21,.53-.4,.78-.59Z"/><path class="j" d="M217.93,320.19c4.89,4.46,9.81,8.88,14.99,12.94,2.4,1.88,4.86,3.76,7.38,5.54-2.53-1.77-4.98-3.66-7.38-5.54-5.18-4.06-10.1-8.48-14.99-12.94Z"/><path class="j" d="M192.76,250.8c3,2.25,5,5.81,6.2,10.72,.21,.86,.49,1.78,.92,2.57-.43-.78-.71-1.7-.92-2.57-1.2-4.91-3.21-8.47-6.2-10.72Z"/><path class="j" d="M157.97,226.2c-.02,.78,.09,1.65,.36,2.62,.58,2.14,.65,4.42,.84,6.68-.19-2.25-.26-4.54-.84-6.68-.26-.97-.38-1.84-.36-2.62Z"/><path class="j" d="M219.14,283.18c-2.29-2.03-4.36-4.32-7.09-6.03,2.73,1.71,4.81,4,7.09,6.03Z"/><path class="j" d="M246.86,301.66c-5.51-3.61-11.03-7.22-16.54-10.83,5.52,3.61,11.03,7.22,16.54,10.83Z"/><path class="j" d="M256.53,250.87c-4.52,8.69-4.44,18.35-5.54,27.76,1.09-9.42,1.01-19.07,5.54-27.76Z"/><path class="j" d="M251.26,214.01c.23-.02,.46-.02,.68-.01-.23,0-.46,0-.68,.01Z"/><path class="j" d="M191.79,208.35c-2.54,1.1-5.06,2.18-7.56,3.27,2.5-1.08,5.02-2.17,7.56-3.27h0Z"/><path class="j" d="M191.9,209.07c.08,.44,.14,.81,.18,1.15-.03-.34-.1-.71-.18-1.15Z"/><path class="j" d="M261.72,347.94c4.74-.12,7.09-3.39,9.16-9.08,1.13-3.1,2.34-6.18,3.45-9.3-1.1,3.11-2.32,6.2-3.45,9.3-2.08,5.7-4.42,8.96-9.16,9.08Z"/><path class="j" d="M262.15,319.73h0c-2.11-4.89-4.86-9.2-8.79-12.48,3.93,3.28,6.68,7.59,8.79,12.48Z"/><path class="j" d="M245.45,342.04c2.62,1.58,5.32,2.97,8.1,4.05,2.01,.79,3.77,1.31,5.32,1.6-1.55-.28-3.31-.81-5.32-1.6-2.78-1.09-5.48-2.48-8.1-4.05Z"/><path class="j" d="M284.84,278.98c-2.08,12.03-4.19,24.05-6.66,36,2.47-11.95,4.58-23.97,6.66-36,1.54-8.88,2.68-17.79,2.18-26.8,.51,9.01-.64,17.92-2.18,26.8Z"/><path class="j" d="M252.91,305.28c-.69-.36-1.26-.75-1.72-1.16,.46,.41,1.03,.8,1.72,1.16,1.06,.56,2,1.44,2.86,2.38-.86-.94-1.8-1.82-2.86-2.38Z"/><path class="j" d="M200.6,295.09c.57-1.65,1.26-3.23,2.04-4.74-.78,1.52-1.47,3.09-2.04,4.74-1.69,4.88-1.87,6.84,.29,9.39-2.17-2.55-1.99-4.5-.29-9.39Z"/><path class="j" d="M257.76,251.17c.14-.54,.29-1.08-.08-1.97h0c.37,.89,.22,1.42,.08,1.97-1.53,6.14-3.47,12.2-4.48,18.43-1.01,6.2-1.55,12.48-2.3,18.71,.75-6.24,1.29-12.52,2.3-18.71,1.02-6.22,2.95-12.29,4.48-18.43Z"/><path class="j" d="M212.04,277.86h0c.83,.81,1.62,1.64,2.4,2.45-.78-.81-1.56-1.64-2.4-2.45Z"/><path class="j" d="M253.36,307.25c-.56-.47-1.15-.91-1.76-1.34-.49-.34-.99-.65-1.48-.97,.49,.32,1,.64,1.48,.97,.61,.42,1.2,.87,1.76,1.34Z"/><path class="f" d="M287.02,252.18c-.04-.69-.09-1.39-.15-2.08-.12-1.39-.28-2.78-.48-4.17-1.61-10.89-6.24-19.26-16.67-23.6-4.34-1.81-8.74-3.73-12.63-6.35-1.9-1.27-3.54-1.93-5.14-1.98-.23,0-.46,0-.68,.01-1.59,.12-3.18,.83-4.97,2.12-.26,.18-.52,.38-.78,.59-.64,.5-1.28,.98-1.92,1.46-1.29,.95-2.61,1.85-3.94,2.7-2,1.28-4.06,2.44-6.16,3.48-2.1,1.03-4.26,1.93-6.47,2.68-5.15,1.74-10.6,2.66-16.35,2.51h0c-1.07-.03-2.1-.11-3.1-.22-6.34-.72-11.16-3.2-13.63-8.29-.78-1.61-1.32-3.47-1.61-5.62-.19-1.43-.26-2.99-.21-4.69,0-.16,0-.33-.02-.5-.03-.34-.1-.71-.18-1.15-.04-.22-.08-.46-.11-.72-2.54,1.1-5.06,2.18-7.56,3.27-2.5,1.08-4.99,2.16-7.47,3.23-4.95,2.14-9.87,4.26-14.79,6.36-2.15,.92-3.45,2.15-3.86,3.9-.08,.35-.13,.72-.14,1.11-.02,.78,.09,1.65,.36,2.62,.58,2.14,.65,4.42,.84,6.68,.04,.52,.09,1.04,.16,1.55,.3,2.45,3.16,4.23,5.66,4.17,.83-.02,1.63-.25,2.28-.72h0c.34,.91,.44,2.38,1.06,2.67,3.79,1.73,7.76,4.64,11.53,4.79,.25,0,.5,0,.75,0,.65-.04,1.27-.06,1.88-.06,1.83,0,3.49,.17,5,.53,2.02,.47,3.76,1.27,5.26,2.4,3,2.25,5,5.81,6.2,10.72,.21,.86,.49,1.78,.92,2.57,.14,.26,.3,.51,.48,.73,2.19,2.74,4.11,6.16,6.45,8.67,.42,.46,.86,.88,1.32,1.27,.46,.39,.93,.73,1.43,1.03,.25,.15,.5,.29,.76,.41,.61,.29,1.18,.61,1.73,.95,2.73,1.71,4.81,4,7.09,6.03,.91,.81,1.86,1.58,2.9,2.25,2.77,1.79,5.52,3.6,8.28,5.4,5.52,3.61,11.03,7.22,16.54,10.83,.44-.21,.89-.42,1.33-.63,.94-7.46,1.93-14.92,2.8-22.4,1.09-9.42,1.01-19.07,5.54-27.76,.15-.3,.35-.57,.55-.85s.41-.54,.6-.82h0c.37,.89,.22,1.42,.08,1.97-1.53,6.14-3.47,12.2-4.48,18.43-1.01,6.2-1.55,12.48-2.3,18.71-.34,2.84-.72,5.67-1.22,8.47-.57,3.23-.55,5.54,1.45,7.33,.46,.41,1.03,.8,1.72,1.16,1.06,.56,2,1.44,2.86,2.38,.29,.31,.56,.63,.83,.94,2.77,3.22,5.26,6.64,5.54,11.13h0c-2.11-4.89-4.86-9.2-8.79-12.48-.56-.47-1.15-.91-1.76-1.34-.49-.34-.99-.65-1.48-.97-3.46-2.27-7.09-4.28-10.54-6.56-5.32-3.52-10.62-7.06-15.87-10.69-1.75-1.21-3.49-2.43-5.22-3.66-1.46-1.04-2.75-2.35-4.05-3.71-.78-.81-1.57-1.64-2.4-2.45-2.53,2.62-4.82,5.27-6.76,8.1-.97,1.41-1.86,2.87-2.64,4.38-.78,1.52-1.47,3.09-2.04,4.74-1.69,4.88-1.87,6.84,.29,9.39,.18,.21,.38,.43,.59,.65,.64,.67,1.43,1.39,2.39,2.22,.9,.78,1.77,1.59,2.63,2.41,.87,.82,1.73,1.64,2.62,2.43,1.97,1.76,3.93,3.54,5.88,5.33,.98,.89,1.95,1.79,2.93,2.68,4.89,4.46,9.81,8.88,14.99,12.94,2.4,1.88,4.86,3.76,7.38,5.54,1.68,1.18,3.4,2.32,5.15,3.37,2.62,1.58,5.32,2.97,8.1,4.05,2.01,.79,3.77,1.31,5.32,1.6,1.03,.19,1.98,.27,2.84,.25,4.74-.12,7.09-3.39,9.16-9.08,1.13-3.1,2.34-6.18,3.45-9.3,.55-1.56,1.08-3.12,1.55-4.7,.47-1.58,.9-3.16,1.24-4.77,.37-1.7,.71-3.41,1.06-5.12,2.47-11.95,4.58-23.97,6.66-36,1.54-8.88,2.68-17.79,2.18-26.8Z"/><path class="j" d="M75.73,238.14h0c-2.16-3.23-3.96-4.77-5.98-4.73,2.02-.04,3.82,1.5,5.98,4.73Z"/><path class="j" d="M62.81,241.36c-.13-.33-.16-.75-.13-1.21-.03,.46,0,.88,.13,1.21,.51,1.35,2.9,1.97,4.47,2.9h0c-1.57-.94-3.96-1.55-4.47-2.9Z"/><path class="e" d="M68.86,238.01c.6-.31,1.32-.39,2.13-.36,.27,.01,.55,.03,.84,.06,.87,.09,1.83,.25,2.85,.35,.34,.03,.69,.06,1.05,.08-2.16-3.23-3.96-4.77-5.98-4.73-1.12,.02-2.31,.53-3.66,1.49-.54,.39-1.11,.85-1.71,1.38-.15,.13-.29,.29-.42,.46-.54,.71-.98,1.73-1.17,2.69-.05,.24-.08,.48-.1,.71-.03,.46,0,.88,.13,1.21,.51,1.35,2.9,1.97,4.47,2.9,.24-.29,.49-.59,.73-.88-1.71-1.4-1.65-2.71-1.03-3.72,.07-.11,.14-.22,.22-.32,.49-.62,1.16-1.09,1.65-1.34Z"/><path class="j" d="M132.66,273.4c-6.47,.79-11.99,1.47-18.51,2.27,3.34,4.71,6.16,8.67,9.26,13.04,3.22-5.33,5.99-9.9,9.25-15.31Z"/><path class="j" d="M125,289.22c.06-.53,.3-1.1,.75-1.76-.45,.66-.69,1.23-.75,1.76Z"/><path class="j" d="M135.57,273.22c-1.41,.66-2.48,1.77-3.36,3.48-1.44,2.79-3.04,5.49-4.74,8.13,1.7-2.64,3.3-5.35,4.74-8.13,.88-1.71,1.96-2.83,3.36-3.48Z"/><path class="j" d="M130.09,297.54c.4,.66,.77,1.34,1.09,2.03,1.1,2.34,1.81,4.87,2.56,7.38-.74-2.52-1.45-5.05-2.56-7.38-.33-.69-.7-1.37-1.09-2.03Z"/><path class="j" d="M125,289.22c-.05,.44,.03,.87,.21,1.3-.18-.43-.26-.85-.21-1.3Z"/><path class="j" d="M117.71,283.16c.31,.74,.72,1.45,1.19,2.12-.47-.68-.87-1.38-1.19-2.12-2.18-5.17-5.31-7.14-9.53-7.14,4.22,0,7.35,1.97,9.53,7.14Z"/><path class="j" d="M121.3,288.19c.43,.47,.86,.94,1.29,1.41-.43-.47-.86-.94-1.29-1.41Z"/><path class="j" d="M133.17,310.01c-.68-5.65-3.04-10.37-6.09-14.72,3.05,4.35,5.41,9.08,6.09,14.72h0Z"/><path class="j" d="M93.96,296.68c.34,.81,.7,1.61,1.07,2.4,.5,1.06,1,2.13,1.5,3.2-.5-1.07-1-2.13-1.5-3.2-.37-.79-.73-1.59-1.07-2.4Z"/><path class="j" d="M157.03,296.63c.24,1.11,.03,2.77-.65,3.58-7.22,8.68-14.18,17.65-22.02,25.72-3.57,3.67-7.69,5.59-11.75,5.78,4.07-.19,8.18-2.11,11.75-5.78,7.84-8.07,14.8-17.04,22.02-25.72,.68-.82,.89-2.47,.65-3.58-1.87-8.56-2.79-17.08,.33-26.23h0c-3.12,9.15-2.19,17.68-.33,26.23Z"/><path class="f" d="M156.38,300.21c.68-.82,.89-2.47,.65-3.58-1.87-8.56-2.79-17.08,.33-26.23-6.77,.77-12.8,1.58-18.86,2.1-1.11,.1-2.08,.33-2.92,.72-1.41,.66-2.48,1.77-3.36,3.48-1.44,2.79-3.04,5.49-4.74,8.13-.57,.88-1.14,1.75-1.73,2.62-.45,.66-.69,1.23-.75,1.76-.05,.44,.03,.87,.21,1.3,.18,.43,.45,.87,.82,1.35,1.42,1.83,2.88,3.69,4.07,5.68,.4,.66,.77,1.34,1.09,2.03,1.1,2.34,1.81,4.87,2.56,7.38,.25,.84,.5,1.68,.77,2.5-.45,.18-.89,.36-1.34,.55h0c-.68-5.65-3.04-10.37-6.09-14.72-1.02-1.45-2.11-2.86-3.25-4.25-.4-.48-.82-.96-1.24-1.43s-.86-.94-1.29-1.41c-.86-.94-1.7-1.9-2.4-2.91-.47-.68-.87-1.38-1.19-2.12-2.18-5.17-5.31-7.14-9.53-7.14-1.41,0-2.93,.22-4.58,.61-5.09,1.21-10.41,1.44-16.09,2.17,1.93,5.31,3.52,10.49,5.45,15.43,.32,.82,.65,1.64,1,2.45,.34,.81,.7,1.61,1.07,2.4,.5,1.06,1,2.13,1.5,3.2,3.53,7.46,7.23,14.92,11.9,21.61,3.79,5.44,8.94,8.06,14.17,7.82,4.07-.19,8.18-2.11,11.75-5.78,7.84-8.07,14.8-17.04,22.02-25.72Z"/><path d="M288.03,247.96c-1.49-12.62-6.24-22.6-18.68-27.34-3.62-1.38-6.98-3.49-10.52-5.11-1.83-.84-2.33-1.89-1.85-3.94,.66-2.79,1.07-5.68,1.31-8.55,1.53-18.08,.63-36.14-.77-54.18-.78-10.06-2.91-19.76-7.67-28.71-2.3-4.33-5.1-8.17-9.96-9.69-1.39-.44-2.91-.45-4.37-.66l-.37,1.14c5.58,.47,9.94,3.14,12.18,8.05,2.78,6.07,5.83,12.29,7,18.78,3.74,20.85,3.71,41.98,2.7,63.09-.19,4.03-1.01,8.03-1.58,12.37-3.39-1.52-6.2-2.66-8.91-4.02-7.78-3.9-12.44-14.98-9.94-23.54,.19-.65,.8-1.16,1.13-1.78,2.01-3.78,3.92-7.62,6.05-11.32,.81-1.41,1.88-2.92,3.22-3.69,3.96-2.27,6.58-6.36,5.56-10.68-.46-1.93-2.1-4.21-3.8-5.02-1.63-.78-4.02,.14-6.08,.31v.04l.03,1.35c3.29-.64,6.8-1.87,8.34,2.58,1.09,3.15-.61,7.61-3.74,9.31-.83,.45-2.14-.03-3.57-.1-.14,.63-.41,1.79-.67,2.96-2.41,10.6-8.71,17.8-18.64,21.34-2.57,.92-5.88,.98-8.49,.19-10.54-3.19-16.64-10.72-18.97-21.67-.34-1.58-.39-2.92,0-4.24l-2.9,5.61,2.9-5.61c.24-.79,.64-1.57,1.23-2.38,2.74-3.74,5.18-7.74,7.45-11.8,.56-1,.99-2.08,1.39-3.17,.06-.71,.19-1.45,.36-2.17-.47,.03-.94,.06-1.4,.09-.28,.92-.7,2.08-.86,2.86-3.15,5.28-4.35,7.16-7.4,12.5-2.06,3.6-4.35,7.17-5.67,11.07-1.37,4.05,.98,8.38,4.65,10.3,.55,.28,1.29,.16,2.65,.3-6.66-5.58-7.67-9.18-4.29-13.42,1.52,3.74,2.41,7.97,4.71,11.12,3.58,4.91,3.13,10.09,2.77,15.46-.35,5.21-3.61,8.3-7.84,10.28-2.7,1.26-5.74,1.79-9.56,2.93-.81-5.78-2.37-11.45-2.25-17.08,.31-15.28,1.01-30.58,2.2-45.81,.65-8.37,2.06-16.77,6.19-24.32,4.56-8.33,11.34-13.98,20.45-15.88,7.47-1.56,15.36-3.03,21.04,5.57-.6-4.49-2.78-6.48-7.48-7.48-17.82-3.8-35.14,8.18-39.16,27.72-1.98,9.64-3.27,19.48-4.07,29.3-1.33,16.3-2.49,32.69,2.23,48.79-8.84,3.8-17.65,7.58-26.59,11.42-.11-.59-.29-1.27-.37-1.97-2.61-22.74-5.2-45.48-7.82-68.21-.47-4.06-2.09-5.46-6.14-5.12-3.28,.28-6.53,.88-9.81,1.2-7.44,.72-14.88,1.36-22.25,2.02-1.91-7.63-3.68-9.68-8.21-9.15-1.89,.22-4.52,.7-5.35,2.02-1.59,2.54-2.13,5.76-3.31,9.3-9.44,1.27-19.68,2.7-29.93,4.01-5.09,.65-6.39,2.01-5.82,7.27,1.62,15.21,3.28,30.42,5.12,45.6,.33,2.7-.39,4.21-2.5,5.62-2.64,1.77-5.22,9-4.24,12,1.06,3.23,2.57,6.3,3.76,9.49,.3,.79,.27,1.79,.15,2.66-.55,3.94,.57,5.97,4.41,6.86,2.05,.48,2.95,1.37,3.15,3.52,.66,6.95,1.55,13.89,2.24,20.84,1.09,11.01,1.66,11.57,12.41,9.91,2.35-.36,3.26,.22,4.06,2.49,2.79,7.93,5.39,15.98,8.92,23.56,3.27,7.01,6.99,14.02,11.69,20.07,7.36,9.47,18.61,10.02,27.24,1.82,5.41-5.14,10.22-10.94,15.16-16.59,2.62-2.99,4.91-6.28,7.69-9.86,.49,1.65,.77,2.67,1.09,3.67,3.57,10.87,3.93,22.23,4.97,33.5,.68,7.3,1.5,14.58,2.26,21.88h.71c-.18-2.45-.36-4.89-.54-7.34-.27-3.67-.53-7.34-.81-11.01-.27-3.57-.55-7.13-.89-10.69-1-10.67-2.48-21.26-5.57-31.65-1.78-6-2.3-12.52-2.5-18.83-.02-.63,0-1.3,.06-1.97,.23-2.92,1.13-6.07,2.78-8.04,2.08-2.48,2.85-4.42,2.79-7.52-.04-2.18,.45-4.38,.98-6.56,.18-.73,.36-1.45,.54-2.17,.06-.26,.39-.46,.79-.64s.87-.34,1.22-.53h0c.13,.15,.26,.29,.39,.44,.13,.15,.26,.29,.39,.44-1.95,1.67-2.59,3.48-2.36,5.59,.08,.71,.25,1.44,.51,2.22,.46,1.4,.73,2.87,.94,4.37,.1,.75,.19,1.5,.28,2.25,.09,.75,.18,1.5,.29,2.24,.03,.23-.1,.49-.24,.74-.05,.08-.1,.16-.14,.24-1.7,3.05-.45,5.57,1.9,7.22,1.48,1.04,2.97,2.08,4.48,3.07s3.06,1.95,4.63,2.81c1.05,.58,2.12,1.12,3.2,1.61,3.82,1.72,8.12,2.32,12.19,3.46,1.76,.49,3.12,1.27,4.11,2.31,.33,.35,.62,.72,.87,1.12,.75,1.21,1.13,2.66,1.18,4.32,.02,.56,0,1.13-.07,1.74-.21,2.14,.09,5.19,1.42,6.5,1.82,1.8,3.64,3.59,5.48,5.37,1.84,1.78,3.68,3.55,5.55,5.29,2.8,2.62,5.67,5.16,8.57,7.64,.97,.83,1.92,1.68,2.91,2.48,.73,.6,1.45,1.2,2.18,1.81,10.87,9.09,21.54,18.73,36.38,21.36,.25,1.7,.49,3.43,.74,5.14s.49,3.42,.74,5.14h1.41c-.5-3.53-.99-7.06-1.52-10.82,5.34-.54,7.86-4.14,9.39-8.5,2.73-7.81,5.77-15.58,7.63-23.62,2.67-11.59,4.56-23.38,6.47-35.13,1.81-11.16,3.62-22.33,2.27-33.78Zm-94.69-37.39c.09-.83,.56-1.99,1.19-2.32,5.96-3.09,10.11-7.39,9.51-15.74,12.95,10.85,21.66,2.44,30.49-5.9,.86,5.62,.5,11.36,2.74,15.7,2.21,4.29,7.05,7.15,10.92,10.82-11.82,9.31-25.12,16.67-41.59,14.68-8.96-1.08-14.2-8.1-13.26-17.24Zm-66.59-60.38c.58-.25,1.17-.52,1.77-.6,.78-.11,1.56-.2,2.33-.31,3.89-.52,7.78-1.02,11.67-1.46,.77-.09,1.43-.14,1.99-.13,.94,.01,1.61,.18,2.11,.58,.1,.08,.19,.17,.28,.27,.6,.7,.9,1.88,1.12,3.77,1.37,11.56,2.7,23.12,4.02,34.68,.66,5.78,1.33,11.56,1.99,17.34,.56,4.84,1.12,9.69,1.68,14.53s1.13,9.69,1.68,14.53c.1,.86,.15,1.75,.2,2.66,.02,.46,.05,.91,.08,1.39h0c-2.08-.16-3.13-.97-3.64-2.45-.17-.49-.28-1.06-.36-1.71-2.98-26.68-6.07-53.35-9.14-80.03-.06-.53-.15-1.05-.26-1.61-.11-.56-.23-1.16-.35-1.84-3,.32-5.94,.63-8.86,.93-2.92,.31-5.82,.61-8.72,.92h0l-.13-.81-.06-.41c.2-.07,.39-.15,.59-.24Zm23.99,93.27c.32,.25,.61,.51,.88,.77,.27,.26,.51,.53,.72,.81,.86,1.1,1.35,2.3,1.63,3.65,.07,.34,.13,.68,.17,1.04,.05,.36,.08,.72,.11,1.1,.17,2.27,.41,4.54,.68,6.86,.14,1.16,.28,2.34,.42,3.53,.14,1.2,.29,2.42,.43,3.67-25.91,3.12-51.54,6.2-77.54,9.33h0c-1.01-8.59-1.99-16.93-2.97-25.26-.2-1.67-.49-3.34-.61-5.02-.05-.73-.18-1.48-.2-2.2-.01-.48,.02-.96,.14-1.42,.19-.69,.6-1.34,1.39-1.93,.38-.28,.42-1.03,.44-1.85,0-.16,0-.33,0-.5,0-.33,.02-.66,.06-.97,1.01-.26,2.92-.18,3.64-1.09,.1-.12,.17-.25,.23-.4,.31-.74,.23-1.78,.24-2.78,0-.4,.03-.8,.09-1.16,.34-1.89,.38-3.62,.15-5.24s-.71-3.11-1.41-4.51c-.35-.7-.75-1.38-1.19-2.03-.89-1.31-1.96-2.55-3.17-3.73-.6-.59-1.24-1.17-1.9-1.74-1.29-1.11-2.38-3.09-2.59-4.79-1.85-14.69-3.48-29.41-5.15-44.13-.06-.51-.05-1.03-.03-1.62,0-.35,.02-.72,.02-1.13,.63-.08,1.25-.18,1.88-.29,1.25-.22,2.51-.47,3.75-.72,2.49-.49,4.95-.91,7.33-.83,.6,.02,1.19,.07,1.77,.16,2.44,.37,4.85,.54,7.25,.55,4.8,.02,9.53-.56,14.25-1.27,1.57-.24,3.14-.49,4.71-.74,.79-.12,1.57-.25,2.36-.37,3.14-.48,6.29-.92,9.45-1.18,3.93-.31,7.81-1.16,11.69-2.09,3.02-.72,6.03-1.5,9.06-2.12,.21-.04,.43-.07,.64-.11,.65-.1,1.33-.15,2.11-.22,.35-.03,.71-.06,1.1-.11h0c1.62,14.08,3.22,28.02,4.8,41.82,.79,6.9,1.58,13.77,2.36,20.6,.78,6.83,1.56,13.63,2.34,20.39-.12,.08-.24,.16-.36,.23-.25,.15-.5,.31-.76,.46s-.52,.3-.78,.45c-1.43,.81-2.74,1.54-2.66,2.03,.36,2.17,1.38,4.77,3.01,6.06Zm-64.12-88.87c2.36-.64,4.86-.86,7.31-1.02,3.13-.21,4.27-1.48,3.66-4.84-.75-4.12,1.48-7.01,5.17-7.59,3.3-.52,4.85,1.45,5.53,3.74h0c.13,.3,.22,.63,.29,.99,0,.03,.01,.05,.02,.08,.07,.36,.11,.75,.12,1.17,.32,3.15,1.51,4.95,5.09,4.01,2.14-.56,4.42-.8,6.63-.75,1.37,.04,2.71,.91,4.06,1.4-.06,.56-.12,1.11-.18,1.67-13.36,1.64-26.72,3.28-40.08,4.92l-.72-1.27c1.03-.87,1.93-2.19,3.1-2.5Zm-26.39,6.87c-.02-.15,0-.33,.02-.51,.16-1.11,1.04-2.64,1.81-3.15,.13-.08,.26-.14,.38-.16,1.55-.28,3.11-.52,4.67-.75,3.12-.45,6.25-.83,9.38-1.2,1.57-.19,3.13-.37,4.7-.57h0c.12,.39,.23,.78,.35,1.17-.61,.27-1.21,.62-1.83,.89-.37,.16-.74,.3-1.12,.36-.96,.14-1.92,.29-2.88,.43-2.17,.32-4.34,.61-6.51,.78-.72,.06-1.45,.12-2.17,.14-2.25,.08-3.04,.83-3.21,2.18-.02,.12-.03,.25-.03,.38-.02,.53,.03,1.14,.11,1.82,.86,7.06,1.66,14.12,2.46,21.18,.4,3.53,.81,7.06,1.22,10.59,.41,3.53,.83,7.06,1.26,10.59,.08,.63,.11,1.19,.06,1.68-.05,.49-.18,.91-.41,1.25-.12,.17-.26,.33-.43,.46-.52,.41-1.32,.65-2.48,.73h0c-1.83-16.22-3.7-32.25-5.33-48.3Zm2.38,53.41c1.41-1,2.46-1.82,3.28-2.47,.41-.32,.76-.58,1.07-.81,.32-.23,.6-.42,.86-.55,.33-.17,.63-.26,.91-.25,.29,0,.56,.11,.88,.31,.31,.2,.66,.49,1.07,.89s.9,.89,1.49,1.49c.59,.6,1.29,1.31,2.14,2.12,.44,.43,.87,.87,1.28,1.33,1.22,1.39,2.27,2.93,3.06,4.65h0c-.57-.4-1.14-.84-1.71-1.3-.38-.31-.76-.62-1.13-.94s-.75-.63-1.13-.94c-.57-.46-1.14-.9-1.71-1.28-1.15-.78-2.32-1.35-3.54-1.49-.19-.02-.39-.03-.59-.03-1.18,0-2.41,.43-3.65,1.02-1.87,.88-3.77,2.14-5.63,2.95h0c-.13-.06-.27-.13-.4-.19-.13-.06-.27-.13-.4-.19,1.28-1.46,2.35-3.24,3.89-4.33Zm-4.34,11.56c.09-.32,.15-.65,.2-.99,.17-1.02,.28-2.05,.85-2.56,.56-.52,1.14-1.02,1.74-1.51,.59-.49,1.2-.97,1.81-1.43,1.23-.93,2.49-1.81,3.76-2.66,.09-.06,.2-.12,.32-.18,.12-.05,.24-.11,.38-.15,.26-.09,.55-.16,.84-.19,.14-.02,.28-.03,.42-.03,.4,0,.76,.06,.98,.23,.87,.7,1.73,1.41,2.59,2.13,1.71,1.44,3.38,2.93,5.05,4.43,.83,.75,1.66,1.5,2.5,2.25,.25,.23,.16,.86,.2,1.17h0c-1.33-.64-2.63-1.44-3.92-2.19-2.14-1.25-4.25-2.37-6.38-2.43-.88-.02-1.76,.12-2.66,.37-2.69,.76-5.49,2.5-8.66,3.75h0Zm2.45,1.18c.53-.53,1.23-1.05,2.12-1.59,.3-.18,.61-.36,.95-.55,1.92-1.04,3.82-1.59,5.63-1.66s3.53,.34,5.08,1.21c.93,.52,1.8,1.21,2.6,2.06s1.51,1.86,2.14,3.03c.08,.14,.12,.31,.15,.48,.14,.74-.09,1.68-.08,2.49-.48,0-.96,.01-1.44,.01-.48,0-.95-.01-1.42-.08-.17-.02-.33-.12-.49-.25-.22-.17-.44-.39-.67-.54-1.65-1.16-3.12-1.87-4.47-2.13-.81-.15-1.57-.14-2.3,.04-1.95,.49-3.66,2.18-5.37,5.17h0c-3.71-3.43-4.53-5.58-2.42-7.68Zm6.49,11.73c-.08,.1-.16,.21-.22,.32-.62,1-.68,2.31,1.03,3.72-.24,.29-.49,.59-.73,.88h0c-1.57-.94-3.96-1.55-4.47-2.9-.13-.33-.16-.75-.13-1.21,.02-.23,.05-.47,.1-.71,.19-.97,.63-1.99,1.17-2.69,.14-.18,.28-.33,.42-.46,.6-.53,1.17-1,1.71-1.38,1.35-.97,2.54-1.47,3.66-1.49,2.02-.04,3.82,1.5,5.98,4.73h0c-.36-.02-.7-.05-1.05-.08-1.02-.1-1.98-.26-2.85-.35-.29-.03-.57-.05-.84-.06-.81-.03-1.52,.05-2.13,.36-.5,.26-1.17,.72-1.65,1.34Zm89.82,57.28c.24,1.11,.03,2.77-.65,3.58-7.22,8.68-14.18,17.65-22.02,25.72-3.57,3.67-7.69,5.59-11.75,5.78-5.23,.24-10.38-2.38-14.17-7.82-4.66-6.69-8.37-14.14-11.9-21.61-.5-1.07-1-2.13-1.5-3.2-.37-.79-.73-1.59-1.07-2.4-.34-.81-.67-1.62-1-2.45-1.93-4.94-3.51-10.12-5.45-15.43,5.68-.73,10.99-.96,16.09-2.17,1.65-.39,3.18-.61,4.58-.61,4.22,0,7.35,1.97,9.53,7.14,.31,.74,.72,1.45,1.19,2.12,.7,1.01,1.54,1.97,2.4,2.91,.43,.47,.86,.94,1.29,1.41s.85,.95,1.24,1.43c1.13,1.39,2.23,2.8,3.25,4.25,3.05,4.35,5.41,9.08,6.09,14.72l1.34-.55c-.27-.83-.52-1.66-.77-2.5-.74-2.52-1.45-5.05-2.56-7.38-.33-.69-.7-1.37-1.09-2.03-1.19-1.99-2.65-3.85-4.07-5.68-.37-.48-.64-.92-.82-1.35-.18-.43-.26-.85-.21-1.3,.06-.53,.3-1.1,.75-1.76,.58-.86,1.16-1.74,1.73-2.62,1.7-2.64,3.3-5.35,4.74-8.13,.88-1.71,1.96-2.83,3.36-3.48,.84-.39,1.81-.62,2.92-.72,6.06-.52,12.1-1.33,18.86-2.1h0c-3.12,9.15-2.19,17.68-.33,26.23Zm-42.88-20.97c6.52-.8,12.04-1.47,18.51-2.27-3.27,5.4-6.03,9.98-9.25,15.31-3.11-4.37-5.92-8.34-9.26-13.04Zm45.53-7.69c-.77,.5-1.97,.76-3.75,.97-14.59,1.78-29.2,3.5-43.79,5.26-6.73,.81-13.45,1.63-20.18,2.44-4.48,.54-8.97,1.08-13.45,1.63-.72,.09-1.34,.13-1.89,.12-1.27-.03-2.09-.36-2.64-1.15-.16-.23-.29-.49-.41-.79-.23-.61-.39-1.37-.51-2.33-.68-5.67-1.34-11.34-2-17.05-.66-5.7-1.31-11.44-1.98-17.24,.36-.08,.69-.13,1-.15,.9-.07,1.54,.08,1.99,.46,.6,.5,.87,1.37,1,2.59,1.02,9.82,2.3,19.61,3.28,29.43,.26,2.57,.97,3.53,3.15,3.48,.31,0,.65-.04,1.03-.08,8.21-1.03,16.42-2.02,24.63-3.01,16.42-1.99,32.85-3.96,49.29-5.86,.65-.08,1.17-.2,1.57-.38,1-.46,1.29-1.27,1.22-2.55-.01-.26-.04-.53-.08-.82-.34-2.48-.63-4.97-.9-7.48-.14-1.26-.27-2.52-.41-3.79-.14-1.27-.27-2.55-.42-3.83h0c.19,.02,.34,.06,.51,.09,1.89,.34,2.87,1.25,3.32,2.63,.17,.5,.27,1.06,.32,1.67,.31,3.48,.71,6.95,1.12,10.41,.36,3.03,.26,4.51-1.02,5.34Zm39.51,25.11c-2.68-4.51-7.42-5.11-12.01-6.12-2.58-.57-5.09-1.31-7.49-2.28-1.6-.65-3.15-1.4-4.64-2.26-2.24-1.3-4.36-2.86-6.31-4.74-1.52-1.46-2.68-2.99-2.08-4.64,.11-.3,.28-.6,.51-.91,.35-.46,.85-.93,1.53-1.41-.33-.38-.66-.75-.98-1.13-1.69-2.03-2.84-4.14-1.01-6.89,.13-.19-.04-.69-.19-.97-.12-.21-.22-.43-.32-.63-.49-1.04-.72-1.99-.64-2.85,.15-1.72,1.52-3.1,4.51-4.12-4.67-2.84-8.66-5.18-12.57-7.66-.57-.36-1.15-.72-1.72-1.09-1.15-.73-2.28-1.49-3.35-2.33-.53-.42-1.05-.85-1.54-1.32-.13-.12-.25-.26-.36-.41-.11-.15-.21-.31-.3-.48-.55-1.01-.81-2.33-1.28-3.44h0c.19,.01,.38,.02,.58,.02,.58,0,1.18-.02,1.77-.02,.78,0,1.53,.07,2.18,.37,10.29,4.75,20.49,9.68,30.73,14.55,.72,.34,1.44,.67,2.17,.99,.73,.32,1.45,.65,2.18,.97,.03-.07,.07-.15,.1-.22l.4-.87c-.6-.32-1.22-.63-1.83-.95-.92-.48-1.86-.97-2.82-1.47-.32-.17-.62-.33-.95-.5,1.6-.33,2.98-.51,4.18-.51,3.61,.01,5.64,1.7,7.37,6.02,3.16,7.92,6.62,15.53,13.12,20.82,.43,.35,.88,.7,1.34,1.03-1.76,2.65-3.47,5.2-5.16,7.74-1.69,2.54-3.38,5.08-5.12,7.69h0Zm85.65-14.11c-2.08,12.03-4.19,24.05-6.66,36-.35,1.71-.69,3.42-1.06,5.12-.35,1.6-.77,3.19-1.24,4.77-.47,1.58-1,3.14-1.55,4.7-1.1,3.11-2.32,6.2-3.45,9.3-2.08,5.7-4.42,8.96-9.16,9.08-.86,.02-1.8-.06-2.84-.25-1.55-.28-3.31-.81-5.32-1.6-2.78-1.09-5.48-2.48-8.1-4.05-1.75-1.05-3.46-2.19-5.15-3.37-2.53-1.77-4.98-3.66-7.38-5.54-5.18-4.06-10.1-8.48-14.99-12.94-.98-.89-1.95-1.79-2.93-2.68-1.95-1.79-3.91-3.57-5.88-5.33-.89-.79-1.75-1.61-2.62-2.43-.87-.82-1.73-1.63-2.63-2.41-.96-.83-1.75-1.55-2.39-2.22-.21-.22-.41-.44-.59-.65-2.17-2.55-1.99-4.5-.29-9.39,.57-1.65,1.26-3.23,2.04-4.74,.79-1.52,1.67-2.97,2.64-4.38,1.94-2.83,4.23-5.48,6.76-8.1h0c.83,.81,1.62,1.64,2.4,2.45,1.3,1.36,2.59,2.67,4.05,3.71,1.73,1.23,3.47,2.45,5.22,3.66,5.24,3.63,10.55,7.17,15.87,10.69,3.45,2.29,7.08,4.29,10.54,6.56,.49,.32,1,.64,1.48,.97,.61,.42,1.2,.87,1.76,1.34,3.93,3.28,6.68,7.59,8.79,12.48-.29-4.49-2.77-7.91-5.54-11.13-.27-.31-.55-.63-.83-.94-.86-.94-1.8-1.82-2.86-2.38-.69-.36-1.26-.75-1.72-1.16-2-1.79-2.02-4.1-1.45-7.33,.5-2.81,.88-5.64,1.22-8.47,.75-6.24,1.29-12.52,2.3-18.71,1.02-6.22,2.95-12.29,4.48-18.43,.14-.54,.29-1.08-.08-1.97-.19,.28-.4,.54-.6,.82-.2,.27-.39,.55-.55,.85-4.52,8.69-4.44,18.35-5.54,27.76-.87,7.47-1.86,14.93-2.8,22.4-.44,.21-.89,.42-1.33,.63-5.51-3.61-11.03-7.22-16.54-10.83-2.76-1.8-5.51-3.61-8.28-5.4-1.04-.67-1.99-1.44-2.9-2.25-2.29-2.03-4.36-4.32-7.09-6.03-.55-.34-1.12-.66-1.73-.95-.26-.12-.51-.26-.76-.41-.5-.3-.97-.65-1.43-1.03-.46-.39-.89-.81-1.32-1.27-2.34-2.51-4.26-5.92-6.45-8.67-.18-.22-.34-.47-.48-.73-.43-.78-.71-1.7-.92-2.57-1.2-4.91-3.21-8.47-6.2-10.72-1.5-1.12-3.24-1.92-5.26-2.4-1.51-.36-3.18-.53-5-.53-.61,0-1.23,.02-1.88,.06-.25,.02-.5,.02-.75,0-3.78-.15-7.75-3.06-11.53-4.79-.62-.28-.72-1.76-1.06-2.67-.65,.48-1.44,.7-2.28,.72-2.5,.06-5.36-1.72-5.66-4.17-.06-.52-.11-1.03-.16-1.55-.19-2.25-.26-4.54-.84-6.68-.26-.97-.38-1.84-.36-2.62,.01-.39,.06-.76,.14-1.11,.41-1.74,1.71-2.97,3.86-3.9,4.92-2.1,9.83-4.22,14.79-6.36,2.48-1.07,4.96-2.14,7.47-3.23,2.5-1.08,5.02-2.17,7.56-3.27h0c.04,.26,.08,.5,.11,.72,.08,.44,.14,.81,.18,1.15,.02,.17,.03,.34,.02,.5-.05,1.69,.03,3.25,.21,4.69,.28,2.15,.83,4.02,1.61,5.62,2.47,5.09,7.29,7.57,13.63,8.29,1,.11,2.03,.2,3.1,.22,5.76,.15,11.2-.77,16.35-2.51,2.21-.75,4.36-1.65,6.47-2.68s4.16-2.2,6.16-3.48c1.34-.85,2.65-1.76,3.94-2.7,.65-.47,1.29-.96,1.92-1.46,.27-.21,.53-.4,.78-.59,1.79-1.29,3.38-2,4.97-2.12,.23-.02,.46-.02,.68-.01,1.6,.05,3.24,.7,5.14,1.98,3.9,2.61,8.29,4.54,12.63,6.35,10.43,4.34,15.07,12.72,16.67,23.6,.21,1.39,.37,2.79,.48,4.17,.06,.69,.11,1.39,.15,2.08,.51,9.01-.64,17.92-2.18,26.8Z"/><path d="M207.89,143.84c.34-1.15,.73-2.2,1.03-2.96,.32-1.51,.62-2.98,.99-4.4,.39-1.51,.82-3.03,1.38-4.47,2.02-5.15,3.86-5.93,8.95-3.99,.49,.19,1.04,.21,1.89,.36-3.5-4.14-7.89-4.25-10.44-.3-1.27,1.97-2.04,4.32-2.8,6.59l-2.56,9.34c.52-.13,1.04-.17,1.57-.16Z"/><path d="M192.35,289.58c1.76,.49,3.12,1.27,4.11,2.31-.99-1.04-2.35-1.82-4.11-2.31-4.07-1.14-8.37-1.74-12.19-3.46-1.09-.49-2.15-1.03-3.2-1.61,1.05,.58,2.12,1.12,3.2,1.61,3.82,1.72,8.12,2.32,12.19,3.46Z"/><path d="M224.54,328.17c10.87,9.09,21.54,18.73,36.38,21.36,.25,1.7,.49,3.43,.74,5.14-.25-1.71-.49-3.44-.74-5.14-14.84-2.63-25.51-12.28-36.38-21.36Z"/><path d="M164.78,330.77c.33,3.56,.62,7.12,.89,10.69,.28,3.67,.54,7.34,.81,11.01-.27-3.67-.53-7.34-.81-11.01-.27-3.57-.55-7.13-.89-10.69Z"/><path d="M199.85,305.57c1.82,1.8,3.64,3.59,5.48,5.37-1.84-1.78-3.66-3.57-5.48-5.37-1.32-1.31-1.63-4.36-1.42-6.5,.06-.6,.08-1.18,.07-1.74,.02,.56,0,1.13-.07,1.74-.21,2.14,.09,5.19,1.42,6.5Z"/><path d="M165.74,265.93c.1,.75,.19,1.5,.28,2.25-.09-.75-.18-1.5-.28-2.25Z"/><path d="M210.88,316.23c2.8,2.62,5.67,5.16,8.57,7.64-2.91-2.49-5.77-5.03-8.57-7.64Z"/><path d="M162.34,262.76c-.04-2.18,.45-4.38,.98-6.56-.54,2.18-1.02,4.38-.98,6.56,.06,3.1-.71,5.04-2.79,7.52-1.66,1.98-2.56,5.12-2.78,8.04,.23-2.92,1.13-6.07,2.78-8.04,2.08-2.48,2.85-4.42,2.79-7.52Z"/><path d="M167.83,278.62c1.48,1.04,2.97,2.08,4.48,3.07-1.52-1-3.01-2.03-4.48-3.07-2.35-1.66-3.6-4.17-1.9-7.22-1.7,3.05-.45,5.57,1.9,7.22Z"/><path d="M166.07,271.16c.14-.25,.28-.52,.24-.74-.11-.74-.2-1.49-.29-2.24,.09,.75,.18,1.5,.29,2.24,.03,.23-.1,.49-.24,.74Z"/><path d="M165.87,252.87c-.35,.19-.82,.35-1.22,.53,.4-.18,.87-.34,1.22-.53h0Z"/><path d="M164.29,259.34c-.23-2.12,.41-3.93,2.36-5.59-.13-.15-.26-.29-.39-.44,.13,.15,.26,.29,.39,.44-1.95,1.67-2.59,3.48-2.36,5.59Z"/><path d="M207.89,143.84c-.53,0-1.05,.03-1.57,.16l-.11,.41c.14,.13,0,.69-.21,1.38,.47-.03,.93-.06,1.4-.09,.14-.64,.31-1.27,.49-1.87Z"/><path d="M206.81,273.49c.42,.46,.86,.88,1.32,1.27-.46-.39-.89-.81-1.32-1.27Z"/><path d="M219.14,283.18c.91,.81,1.86,1.58,2.9,2.25,2.77,1.79,5.52,3.6,8.28,5.4-2.76-1.8-5.51-3.61-8.28-5.4-1.04-.67-1.99-1.44-2.9-2.25Z"/><path d="M256.6,308.6c-.27-.31-.55-.63-.83-.94,.29,.31,.56,.63,.83,.94,2.77,3.22,5.26,6.64,5.54,11.13h0c-.29-4.49-2.77-7.91-5.54-11.13Z"/><path d="M182.49,247.88c1.83,0,3.49,.17,5,.53-1.51-.36-3.18-.53-5-.53Z"/><path d="M199.88,264.09c.14,.26,.3,.51,.48,.73,2.19,2.74,4.11,6.16,6.45,8.67-2.34-2.51-4.26-5.92-6.45-8.67-.18-.22-.34-.47-.48-.73Z"/><path d="M209.56,275.79c.25,.15,.5,.29,.76,.41,.61,.29,1.18,.61,1.73,.95-.55-.34-1.12-.66-1.73-.95-.26-.12-.51-.26-.76-.41Z"/><path d="M257.07,250.02c.2-.27,.41-.54,.6-.82h0c-.19,.28-.4,.54-.6,.82Z"/><path d="M249.75,296.79c.5-2.81,.88-5.64,1.22-8.47-.34,2.84-.72,5.67-1.22,8.47-.57,3.23-.55,5.54,1.45,7.33-2-1.79-2.02-4.1-1.45-7.33Z"/><path d="M275.88,324.86c.47-1.58,.9-3.16,1.24-4.77,.37-1.7,.71-3.41,1.06-5.12-.35,1.71-.69,3.42-1.06,5.12-.35,1.6-.77,3.19-1.24,4.77Z"/><path d="M250.12,304.94c-3.46-2.27-7.09-4.28-10.54-6.56-5.31-3.52-10.62-7.06-15.87-10.69,5.25,3.63,10.55,7.17,15.87,10.69,3.45,2.29,7.08,4.29,10.54,6.56Z"/><path d="M167.26,240.49h0c.34,.91,.44,2.38,1.06,2.67-.62-.28-.72-1.76-1.06-2.67Z"/><path d="M218.49,284.02c1.73,1.23,3.47,2.45,5.22,3.66-1.75-1.21-3.49-2.43-5.22-3.66-1.46-1.04-2.75-2.35-4.05-3.71,1.3,1.36,2.59,2.67,4.05,3.71Z"/><path d="M191.79,208.35h0c.04,.26,.08,.5,.11,.72-.04-.22-.08-.46-.11-.72Z"/><path d="M212.04,277.86c-2.53,2.62-4.82,5.27-6.76,8.1,1.94-2.83,4.23-5.48,6.76-8.1h0Z"/><path d="M201.48,305.12c.64,.67,1.43,1.39,2.39,2.22,.9,.78,1.77,1.59,2.63,2.41-.87-.82-1.73-1.63-2.63-2.41-.96-.83-1.75-1.55-2.39-2.22Z"/><path d="M233.48,224.35c2.1-1.03,4.16-2.2,6.16-3.48-2,1.28-4.06,2.44-6.16,3.48Z"/><path d="M269.72,222.32c10.43,4.34,15.07,12.72,16.67,23.6,.21,1.39,.37,2.79,.48,4.17-.12-1.39-.28-2.78-.48-4.17-1.61-10.89-6.24-19.26-16.67-23.6-4.34-1.81-8.74-3.73-12.63-6.35-1.9-1.27-3.54-1.93-5.14-1.98,1.6,.05,3.24,.7,5.14,1.98,3.9,2.61,8.29,4.54,12.63,6.35Z"/><path d="M209.56,275.79c-.5-.3-.97-.65-1.43-1.03,.46,.39,.93,.73,1.43,1.03Z"/><path d="M179.86,247.95c-3.78-.15-7.75-3.06-11.53-4.79,3.79,1.73,7.76,4.64,11.53,4.79Z"/><path d="M206.5,309.76c.87,.82,1.73,1.64,2.62,2.43,1.97,1.76,3.93,3.54,5.88,5.33-1.95-1.79-3.91-3.57-5.88-5.33-.89-.79-1.75-1.61-2.62-2.43Z"/><path d="M192.32,215.41c-.19-1.43-.26-2.99-.21-4.69,0-.16,0-.33-.02-.5,.02,.17,.03,.34,.02,.5-.05,1.69,.03,3.25,.21,4.69Z"/><path d="M159.33,237.05c-.06-.52-.11-1.03-.16-1.55,.04,.52,.09,1.04,.16,1.55,.3,2.45,3.16,4.23,5.66,4.17-2.5,.06-5.36-1.72-5.66-4.17Z"/><path d="M161.98,221.2c4.92-2.1,9.83-4.22,14.79-6.36-4.95,2.14-9.87,4.26-14.79,6.36-2.15,.92-3.45,2.15-3.86,3.9,.41-1.74,1.71-2.97,3.86-3.9Z"/><path d="M210.65,229.54c-1.07-.03-2.1-.11-3.1-.22,1,.11,2.03,.2,3.1,.22h0Z"/><path d="M261.72,347.94c-.86,.02-1.8-.06-2.84-.25,1.03,.19,1.98,.27,2.84,.25Z"/><path d="M139.58,151.75c.65-.1,1.33-.15,2.11-.22-.78,.07-1.46,.12-2.11,.22Z"/><path d="M142.79,151.42h0c1.62,14.08,3.22,28.02,4.8,41.82-1.58-13.8-3.18-27.74-4.8-41.82Z"/><path d="M151.94,234.47c.12-.08,.24-.15,.36-.23-.78-6.76-1.56-13.56-2.34-20.39,.78,6.83,1.56,13.63,2.34,20.39-.12,.08-.24,.16-.36,.23Z"/><path d="M101.67,158.35c-4.72,.71-9.45,1.29-14.25,1.27,4.8,.02,9.53-.56,14.25-1.27Z"/><path d="M151.94,234.47c-.25,.15-.5,.31-.76,.46,.26-.15,.52-.31,.76-.46Z"/><path d="M101.67,158.35c1.57-.24,3.14-.49,4.71-.74-1.57,.25-3.14,.5-4.71,.74Z"/><path d="M129.88,153.98c-3.88,.93-7.77,1.77-11.69,2.09-3.16,.25-6.31,.69-9.45,1.18,3.14-.48,6.29-.92,9.45-1.18,3.93-.31,7.81-1.16,11.69-2.09Z"/><path d="M70.6,207.62c-1.85-14.69-3.48-29.41-5.15-44.13-.06-.51-.05-1.03-.03-1.62-.02,.58-.03,1.11,.03,1.62,1.67,14.71,3.3,29.43,5.15,44.13,.21,1.71,1.3,3.69,2.59,4.79-1.29-1.11-2.38-3.09-2.59-4.79Z"/><path d="M80.86,224.42c.23,1.62,.19,3.35-.15,5.24-.07,.37-.09,.76-.09,1.16,0-.4,.03-.8,.09-1.16,.34-1.89,.38-3.62,.15-5.24Z"/><path d="M80.15,234.01c.1-.12,.17-.25,.23-.4-.06,.15-.14,.28-.23,.4-.73,.91-2.63,.83-3.64,1.09-.04,.3-.05,.63-.06,.97,0-.33,.02-.66,.06-.97,1.01-.26,2.92-.18,3.64-1.09Z"/><path d="M74.66,243.95c-.05-.73-.18-1.48-.2-2.2,.02,.72,.14,1.47,.2,2.2,.12,1.68,.41,3.34,.61,5.02,.98,8.33,1.96,16.67,2.97,25.26h0c-1.01-8.59-1.99-16.93-2.97-25.26-.2-1.67-.49-3.34-.61-5.02Z"/><path d="M71.07,159.75c2.49-.49,4.95-.91,7.33-.83-2.38-.08-4.84,.35-7.33,.83Z"/><path d="M152.35,245.05c.86,1.1,1.35,2.3,1.63,3.65-.28-1.35-.76-2.55-1.63-3.65Z"/><path d="M75.09,214.15c-.6-.59-1.24-1.17-1.9-1.74,.66,.57,1.3,1.15,1.9,1.74Z"/><path d="M127.08,295.28c-1.02-1.45-2.11-2.86-3.25-4.25-.4-.48-.82-.96-1.24-1.43,.43,.47,.85,.95,1.24,1.43,1.13,1.39,2.23,2.8,3.25,4.25Z"/><path d="M134.51,309.46c-.27-.83-.52-1.66-.77-2.5,.25,.84,.5,1.68,.77,2.5l-1.34,.55h0c.44-.18,.89-.36,1.34-.55Z"/><path d="M125.21,290.51c.18,.43,.45,.87,.82,1.35,1.42,1.83,2.87,3.69,4.07,5.68-1.19-1.99-2.65-3.85-4.07-5.68-.37-.48-.64-.92-.82-1.35Z"/><path d="M157.36,270.4h0c-6.77,.77-12.8,1.58-18.86,2.1-1.11,.1-2.08,.33-2.92,.72,.84-.39,1.81-.62,2.92-.72,6.06-.52,12.1-1.33,18.86-2.1Z"/><path d="M103.61,276.63c1.65-.39,3.18-.61,4.58-.61-1.41,0-2.93,.22-4.58,.61-5.09,1.21-10.41,1.44-16.09,2.17,1.93,5.31,3.52,10.49,5.45,15.43-1.93-4.94-3.51-10.12-5.45-15.43,5.68-.73,10.99-.96,16.09-2.17Z"/><path d="M108.44,323.89c-4.66-6.69-8.37-14.14-11.9-21.61,3.53,7.46,7.23,14.92,11.9,21.61,3.79,5.44,8.94,8.06,14.17,7.82-5.23,.24-10.37-2.38-14.17-7.82Z"/><path d="M188.66,254.09c-.03,.07-.07,.15-.1,.22h0c.03-.07,.07-.15,.1-.22Z"/><path d="M187.23,252.26c-.92-.48-1.86-.97-2.82-1.47,.96,.5,1.9,.99,2.82,1.47Z"/><path d="M148.95,237.41c.46,1.1,.73,2.42,1.28,3.44-.55-1.01-.81-2.33-1.28-3.44h0Z"/><path d="M195.01,255.81c3.16,7.92,6.62,15.53,13.12,20.82-6.51-5.29-9.96-12.9-13.12-20.82-1.73-4.32-3.76-6.01-7.37-6.02,3.61,.01,5.64,1.7,7.37,6.02Z"/><path d="M166.72,262.7c.13-.19-.04-.69-.19-.97-.12-.21-.22-.43-.32-.63,.1,.21,.2,.42,.32,.63,.15,.28,.32,.78,.19,.97-1.82,2.74-.67,4.85,1.01,6.89-1.69-2.03-2.84-4.14-1.01-6.89Z"/><path d="M204.32,285.4c-1.69,2.54-3.38,5.08-5.12,7.69h0c1.74-2.61,3.43-5.14,5.12-7.69Z"/><path d="M166.66,273.04c-.6,1.65,.55,3.18,2.08,4.64,1.96,1.88,4.07,3.44,6.31,4.74-2.24-1.3-4.36-2.86-6.31-4.74-1.52-1.46-2.68-2.99-2.08-4.64Z"/><path d="M170.07,254.13c-4.67-2.84-8.66-5.18-12.57-7.66-.57-.36-1.15-.72-1.72-1.09,.57,.37,1.15,.73,1.72,1.09,3.91,2.47,7.9,4.82,12.57,7.66-2.99,1.02-4.36,2.39-4.51,4.12,.15-1.72,1.52-3.1,4.51-4.12Z"/><path d="M151.3,237.42c-.58,0-1.18,.03-1.77,.02,.58,0,1.18-.02,1.77-.02Z"/><path d="M71.07,257.08c.66,5.7,1.32,11.38,2,17.05,.11,.96,.27,1.73,.51,2.33-.23-.61-.39-1.37-.51-2.33-.68-5.67-1.34-11.34-2-17.05Z"/><path d="M155.43,247.84h0c.19,.02,.34,.06,.51,.09-.17-.03-.33-.07-.51-.09Z"/><path d="M156.26,255.46c.28,2.51,.56,5,.9,7.48,.04,.29,.07,.57,.08,.82-.01-.26-.04-.53-.08-.82-.34-2.48-.63-4.97-.9-7.48Z"/><path d="M70.08,239.69c.9-.07,1.54,.08,1.99,.46-.45-.37-1.09-.53-1.99-.46Z"/><path d="M156.02,266.31c-.4,.18-.92,.31-1.57,.38-16.43,1.91-32.86,3.87-49.29,5.86,16.42-1.99,32.85-3.96,49.29-5.86,.65-.08,1.17-.2,1.57-.38Z"/><path d="M159.59,252.23c-.05-.61-.15-1.17-.32-1.67,.17,.5,.27,1.06,.32,1.67,.31,3.48,.71,6.95,1.12,10.41,.36,3.03,.26,4.51-1.02,5.34,1.28-.83,1.38-2.31,1.02-5.34-.41-3.47-.81-6.94-1.12-10.41Z"/><path d="M76.62,278.4c.54,.01,1.17-.03,1.89-.12,4.48-.55,8.97-1.09,13.45-1.63-4.48,.54-8.97,1.08-13.45,1.63-.72,.09-1.34,.13-1.89,.12Z"/><path d="M143.94,149.79c-3,.32-5.94,.63-8.86,.93,2.92-.31,5.87-.62,8.86-.93Z"/><path d="M155.72,218.86c-.56-4.84-1.12-9.69-1.68-14.53-.67-5.78-1.33-11.56-1.99-17.34,.66,5.78,1.33,11.56,1.99,17.34,.56,4.84,1.12,9.69,1.68,14.53Z"/><path d="M144.54,153.25c-.06-.53-.15-1.05-.26-1.61,.11,.56,.2,1.09,.26,1.61,3.07,26.67,6.16,53.34,9.14,80.03,.07,.65,.18,1.22,.36,1.71-.17-.49-.28-1.06-.36-1.71-2.98-26.68-6.07-53.35-9.14-80.03Z"/><path d="M126.36,151.65h0l-.13-.81,.13,.81Z"/><path d="M157.68,237.44c-.03-.48-.05-.93-.08-1.39,.02,.46,.05,.91,.08,1.39h0Z"/><path d="M144.52,147.7c.94,.01,1.61,.18,2.11,.58-.5-.4-1.17-.57-2.11-.58Z"/><path d="M130.86,149.29c-.78,.1-1.56,.2-2.33,.31-.61,.08-1.19,.35-1.77,.6,.59-.25,1.17-.52,1.77-.6,.78-.11,1.56-.2,2.33-.31Z"/><path d="M81.18,155.13h0c.12,.39,.23,.78,.35,1.17-.12-.39-.23-.78-.35-1.17Z"/><path d="M65.56,209.78c1.16-.08,1.96-.32,2.48-.73-.52,.41-1.32,.65-2.48,.73h0Z"/><path d="M81.53,156.3c-.61,.27-1.21,.62-1.83,.89,.61-.27,1.21-.62,1.83-.89Z"/><path d="M68.89,207.34c.05-.49,.02-1.05-.06-1.68-.43-3.53-.85-7.06-1.26-10.59,.41,3.53,.83,7.06,1.26,10.59,.08,.63,.11,1.19,.06,1.68Z"/><path d="M63.89,163.29c.86,7.06,1.66,14.12,2.46,21.18-.81-7.06-1.61-14.13-2.46-21.18-.08-.68-.13-1.29-.11-1.82-.02,.53,.03,1.14,.11,1.82Z"/><path d="M75.7,157.99c-2.17,.32-4.34,.61-6.51,.78,2.17-.17,4.34-.46,6.51-.78Z"/><path d="M70.81,230.09c1.35,.26,2.82,.97,4.47,2.13,.23,.16,.44,.37,.67,.54-.22-.17-.44-.39-.67-.54-1.65-1.16-3.12-1.87-4.47-2.13Z"/><path d="M63.14,235.3h0c1.71-2.99,3.43-4.68,5.37-5.17-1.95,.49-3.66,2.18-5.37,5.17Z"/><path d="M69.42,223.83c-1.81,.07-3.71,.62-5.63,1.66-.34,.18-.65,.37-.95,.55,.3-.18,.61-.36,.95-.55,1.92-1.04,3.82-1.59,5.63-1.66Z"/><path d="M79.3,233.08c-.48,0-.96,.01-1.44,.01,.48,0,.96-.02,1.44-.01,0-.81,.22-1.75,.08-2.49,.14,.74-.09,1.68-.08,2.49Z"/><path d="M68.15,216.76c.14-.02,.28-.03,.42-.03-.13,0-.27,.01-.42,.03Z"/><path d="M66.92,222.69c.9-.25,1.78-.39,2.66-.37h0c-.88-.02-1.76,.12-2.66,.37Z"/><path d="M58.26,226.44h0c.09-.32,.15-.65,.2-.99-.06,.34-.12,.68-.2,.99Z"/><path d="M66.94,217.1c-.12,.05-.22,.11-.32,.18-1.27,.85-2.54,1.73-3.76,2.66,1.23-.93,2.49-1.81,3.76-2.66,.09-.06,.2-.12,.32-.18Z"/><path d="M79.87,226.94h0c-.05-.31,.05-.94-.2-1.17-.83-.75-1.66-1.5-2.5-2.25,.83,.75,1.66,1.5,2.5,2.25,.25,.23,.16,.86,.2,1.17Z"/><path d="M75.73,238.14h0c-.36-.02-.7-.05-1.05-.08,.34,.03,.69,.06,1.05,.08Z"/><path d="M68.01,243.39c-.24,.29-.49,.59-.73,.88h0c.24-.29,.49-.59,.73-.88-1.71-1.4-1.65-2.71-1.03-3.72-.62,1-.68,2.31,1.03,3.72Z"/><path d="M68.86,238.01c-.5,.26-1.17,.72-1.65,1.34,.49-.62,1.16-1.09,1.65-1.34,.6-.31,1.32-.39,2.13-.36-.81-.03-1.53,.05-2.13,.36Z"/><path d="M74.68,238.06c-1.02-.1-1.98-.26-2.85-.35,.87,.09,1.83,.25,2.85,.35Z"/><path d="M66.08,234.91c1.35-.97,2.54-1.47,3.66-1.49-1.12,.02-2.31,.52-3.66,1.49Z"/><path d="M62.78,239.45c.19-.97,.63-1.99,1.17-2.69-.54,.71-.98,1.73-1.17,2.69Z"/><path d="M75.79,219.36c-.38-.32-.75-.63-1.13-.94,.38,.31,.76,.62,1.13,.94Z"/><path d="M58.72,219.21c1.28-1.46,2.35-3.24,3.89-4.33,1.41-1,2.46-1.82,3.28-2.47-.83,.64-1.88,1.47-3.28,2.47-1.54,1.09-2.6,2.87-3.89,4.33,.13,.06,.27,.13,.4,.19-.13-.06-.27-.13-.4-.19Z"/><path d="M59.53,219.59c1.86-.81,3.77-2.07,5.63-2.95-1.87,.88-3.77,2.14-5.63,2.95h0Z"/><path d="M68.73,210.81c.29,0,.56,.11,.88,.31-.31-.2-.59-.3-.88-.31Z"/><path d="M65.89,212.42c.41-.32,.76-.58,1.07-.81-.32,.23-.66,.49-1.07,.81Z"/><path d="M69.61,211.11c.31,.2,.66,.49,1.07,.89-.41-.4-.76-.69-1.07-.89Z"/><path d="M65.16,216.64c1.24-.59,2.47-1.01,3.65-1.02-1.18,0-2.41,.43-3.65,1.02Z"/><path d="M78.63,221.6c-.78-1.72-1.83-3.26-3.06-4.65,1.22,1.39,2.27,2.93,3.06,4.65h0Z"/><path d="M242.68,153.46c.86-5.73-.41-11.61-2.66-16.88-1.06-2.41-2.12-4.82-4.1-6.71-2.78-2.37-6.8-3.07-10.1-1.96l.03,.18c5.76,.3,11.73,3.02,13.6,8.7,1.36,5.7,1.74,11.58,1.7,17.43,0,1.68-.03,3.51,.61,5.16l.17-.04c-.06-1.7,.35-3.3,.61-5,.05-.28,.08-.56,.12-.84v-.04h0Z"/><path d="M242.68,153.46v0h0Z"/><path d="M235.95,121.69c1.82,.7,2.83,2.36,4.39,3.42-.44-3.49-6.86-6.42-9.84-4.72,1.8,.6,3.74,.4,5.45,1.3Z"/><path class="j" d="M108.73,147.13c-.01-.41-.05-.8-.12-1.17,0-.03,0-.05-.02-.08-.07-.36-.16-.69-.29-.99h0c.22,.73,.35,1.5,.43,2.23Z"/><polygon points="108.3 144.89 108.3 144.89 108.3 144.89 108.3 144.89"/><path d="M108.59,145.88s.01,.05,.02,.08c0-.03,0-.05-.02-.08Z"/><path class="e" d="M113.81,151.14c-3.58,.94-4.77-.87-5.09-4.01,.11,3.71,1.51,4.95,5.09,4.01Z"/><path class="e" d="M108.3,144.89c-.07-.16-.15-.31-.24-.45,.09,.14,.17,.29,.24,.45Z"/><path class="e" d="M107.34,143.72c.13,.08,.25,.17,.36,.28-.11-.11-.23-.2-.36-.28Z"/><path class="e" d="M104.95,143.65c-.22,.07-.45,.16-.7,.27,.25-.11,.47-.19,.7-.27Z"/><path class="e" d="M105.76,143.45c.19-.03,.38-.03,.55-.03-.17,0-.36,0-.55,.03Z"/><path class="e" d="M107.32,143.71c-.12-.07-.25-.13-.39-.17,.14,.05,.27,.1,.39,.17Z"/><path class="e" d="M106.81,143.51c-.13-.03-.26-.06-.41-.07,.14,.01,.28,.03,.41,.07Z"/><path class="e" d="M105.63,143.48c-.16,.03-.32,.06-.49,.11,.17-.05,.33-.09,.49-.11Z"/><path class="e" d="M108.01,144.37c-.08-.11-.16-.21-.25-.31,.09,.09,.17,.2,.25,.31Z"/><path class="e" d="M103.33,142.25c.39,.07,.63,1.01,.93,1.66,.25-.11,.47-.19,.7-.27,.06-.02,.12-.04,.18-.05,.17-.05,.33-.09,.49-.11,.05,0,.09-.02,.14-.02,.19-.03,.38-.03,.55-.03,.03,0,.06,0,.09,0,.14,.01,.28,.03,.41,.07,.04,.01,.08,.02,.12,.03,.14,.05,.27,.1,.39,.17h.02c.13,.09,.25,.18,.36,.29,.02,.02,.04,.04,.06,.07,.09,.09,.17,.2,.25,.31,.02,.02,.03,.05,.05,.07,.09,.14,.17,.29,.24,.45h0c-.69-2.3-2.23-4.27-5.53-3.74-3.69,.59-5.91,3.47-5.17,7.59-.75-4.12,2.04-7.11,5.72-6.49Z"/><path class="e" d="M124.32,153.46c.06-.56,.12-1.11,.18-1.67-1.35-.5-2.7-1.37-4.06-1.4-2.21-.06-4.49,.18-6.63,.75-3.58,.94-4.98-.31-5.09-4.01-.07-.73-.21-1.5-.43-2.23h0c-.07-.16-.15-.31-.24-.45-.02-.02-.03-.05-.05-.07-.08-.11-.16-.21-.25-.31-.02-.02-.04-.05-.06-.07-.11-.11-.23-.2-.36-.28h-.02c-.12-.08-.25-.14-.39-.18-.04-.01-.08-.02-.12-.03-.13-.03-.26-.06-.41-.07-.03,0-.06,0-.09,0-.17,0-.36,0-.55,.03-.04,0-.09,.02-.14,.02-.16,.03-.32,.06-.49,.11-.06,.02-.12,.03-.18,.05-.22,.07-.45,.16-.7,.27,.03,.06,.05,.12,.08,.18l-.15-.15s.05-.02,.07-.03c-.29-.65-.54-1.6-.93-1.66-3.68-.62-6.47,2.36-5.72,6.49,.61,3.36-.54,4.64-3.66,4.84-2.45,.16-4.95,.38-7.31,1.02-1.17,.32-2.08,1.64-3.1,2.5l.72,1.27c13.36-1.64,26.72-3.28,40.08-4.92Zm-20.98-9.52c1.57,0,2.85,1.28,2.85,2.85s-1.28,2.85-2.85,2.85-2.85-1.28-2.85-2.85,1.28-2.85,2.85-2.85Z"/><path class="e" d="M106.92,143.54s-.08-.02-.12-.03c.04,.01,.08,.02,.12,.03Z"/><path class="e" d="M107.34,143.72h0Z"/><path class="e" d="M105.76,143.45s-.09,.02-.14,.02c.05,0,.09-.02,.14-.02Z"/><polygon class="e" points="108.3 144.89 108.3 144.89 108.3 144.89 108.3 144.89"/><path class="e" d="M107.7,144s.04,.04,.06,.07c-.02-.02-.04-.05-.06-.07Z"/><path class="e" d="M106.31,143.43s.06,0,.09,0c-.03,0-.06,0-.09,0Z"/><path class="e" d="M108.06,144.44s-.03-.05-.05-.07c.02,.02,.03,.05,.05,.07Z"/><path class="e" d="M105.13,143.59c-.06,.02-.12,.03-.18,.05,.06-.02,.12-.04,.18-.05Z"/><path class="e" d="M104.34,144.09c-.03-.05-.06-.12-.08-.18-.02,.01-.05,.02-.07,.03l.15,.15Z"/><path class="g" d="M103.35,149.64c1.57,0,2.85-1.28,2.85-2.85s-1.28-2.85-2.85-2.85-2.85,1.28-2.85,2.85,1.28,2.85,2.85,2.85Zm0-5.11c1.25,0,2.26,1.01,2.26,2.26s-1.01,2.26-2.26,2.26-2.26-1.01-2.26-2.26,1.01-2.26,2.26-2.26Z"/><path class="g" d="M103.35,149.05c1.25,0,2.26-1.01,2.26-2.26s-1.01-2.26-2.26-2.26-2.26,1.01-2.26,2.26,1.01,2.26,2.26,2.26Zm0-3.92c.92,0,1.66,.75,1.66,1.66s-.75,1.66-1.66,1.66-1.66-.74-1.66-1.66,.74-1.66,1.66-1.66Z"/></g></g><g><path d="M96.31,205.87l-7.05,.95-.22,3.14c-.04,.34-.11,.56-.21,.66-.1,.1-.33,.18-.69,.23l-2.9,.39c-.34,.05-.58,.02-.7-.09-.12-.11-.17-.34-.13-.69l1.65-20.42c.01-.15,.03-.3,.06-.44,.03-.14,.09-.28,.17-.41,.08-.13,.21-.24,.39-.33,.18-.09,.41-.16,.71-.19l5.93-.8c.29-.04,.54-.04,.73,0,.2,.04,.35,.11,.46,.21,.11,.1,.2,.22,.27,.35,.07,.13,.13,.27,.18,.41l6.99,19.26c.13,.33,.15,.56,.06,.7-.09,.14-.3,.23-.65,.27l-2.9,.39c-.36,.05-.6,.03-.73-.04-.13-.07-.25-.27-.38-.58l-1.04-2.96Zm-6.75-3.24l5.34-.72-3.42-9.7-1.2,.16-.73,10.26Z"/><path d="M107.12,208.29c-.68,.09-1.23,.09-1.64,0-.41-.09-.73-.26-.97-.5-.24-.24-.41-.55-.52-.92-.11-.38-.19-.79-.25-1.25l-2.12-15.77c-.07-.55-.09-1.03-.04-1.44,.04-.4,.17-.74,.36-1.02,.2-.27,.47-.49,.83-.65,.36-.16,.82-.27,1.39-.35l4.25-.57c1.87-.25,3.43-.25,4.69,0,1.25,.25,2.27,.77,3.07,1.55,.79,.78,1.4,1.82,1.83,3.11,.43,1.29,.77,2.84,1.01,4.65,.25,1.86,.36,3.51,.32,4.95-.04,1.45-.33,2.69-.87,3.73s-1.37,1.89-2.5,2.54c-1.13,.65-2.66,1.1-4.6,1.36l-4.22,.57Zm7.24-12.53c-.15-1.11-.32-2.06-.52-2.85-.2-.79-.49-1.43-.88-1.91-.39-.48-.91-.8-1.56-.97-.65-.17-1.51-.18-2.56-.04l-2.64,.35,1.83,13.59,2.64-.35c1.06-.14,1.87-.42,2.45-.83,.58-.41,.98-.95,1.21-1.62,.23-.67,.34-1.45,.31-2.35-.03-.9-.12-1.91-.27-3.03Z"/><path d="M133.52,186.33c0,.3-.04,.49-.13,.59-.1,.1-.31,.15-.64,.16-.33,0-.74,.02-1.22,.04-.49,.01-1,.04-1.53,.07-.54,.03-1.05,.06-1.55,.1-.5,.03-.92,.07-1.26,.12-1.17,.16-2,.44-2.48,.86-.48,.41-.69,.9-.61,1.45,.05,.39,.15,.71,.3,.95,.15,.25,.4,.45,.74,.61,.34,.16,.81,.31,1.4,.43,.59,.13,1.36,.28,2.31,.45,1.22,.22,2.25,.46,3.08,.73,.83,.27,1.52,.62,2.06,1.05,.54,.43,.95,.97,1.24,1.62,.29,.65,.49,1.44,.62,2.39,.3,2.25-.13,4-1.29,5.28-1.16,1.27-3,2.08-5.5,2.42-.47,.06-1.01,.1-1.61,.12-.6,.02-1.2,.02-1.77,.01-.58,0-1.12-.02-1.62-.04-.5-.03-.88-.04-1.13-.06s-.42-.06-.51-.13c-.09-.07-.14-.24-.14-.5l-.04-2.88c0-.18,.04-.31,.1-.39,.05-.07,.2-.11,.43-.11,.28,0,.65-.01,1.12-.03,.46-.01,.96-.03,1.48-.05,.53-.02,1.07-.05,1.62-.08,.55-.03,1.04-.08,1.48-.14,1.17-.16,1.98-.45,2.43-.87,.45-.42,.62-1.04,.51-1.86-.04-.33-.13-.61-.26-.85s-.35-.45-.66-.63c-.31-.18-.72-.34-1.23-.48-.51-.14-1.18-.27-1.99-.39-1.27-.19-2.35-.42-3.25-.68-.9-.26-1.64-.6-2.24-1.03-.6-.42-1.06-.95-1.39-1.59-.33-.63-.56-1.42-.69-2.37-.14-1.04-.08-1.99,.16-2.84,.25-.85,.68-1.6,1.28-2.23,.6-.64,1.37-1.16,2.3-1.56,.93-.41,2-.69,3.2-.85,.46-.06,.96-.1,1.51-.12,.55-.02,1.11-.02,1.66-.02s1.08,0,1.58,.02c.5,.02,.92,.03,1.27,.05,.27,.01,.46,.06,.59,.14,.13,.08,.19,.26,.2,.55l.1,2.57Z"/><path d="M88.09,217.63c-.03-.24,0-.41,.08-.51,.09-.09,.24-.16,.47-.19l12.76-1.72c.23-.03,.4-.01,.51,.06,.11,.07,.18,.23,.21,.47l.26,1.93c.09-.06,.22-.1,.38-.13l2.34-.32-.25-1.85c-.03-.24,0-.41,.08-.51,.09-.09,.25-.16,.47-.19l3.42-.46c.23-.03,.39-.01,.5,.06,.11,.07,.18,.23,.21,.47l1.28,9.52c.03,.24,0,.41-.08,.51-.09,.1-.25,.16-.47,.19l-3.42,.46c-.23,.03-.4,.01-.5-.06-.11-.07-.18-.22-.21-.47l-.49-3.61-2.34,.32c-.23,.03-.4,.01-.51-.06-.11-.07-.18-.22-.21-.47l-.25-1.88s-.1,.06-.17,.07c-.06,0-.14,.02-.22,.03l-3.86,.52c.29,.56,.76,1.02,1.4,1.38,.65,.36,1.58,.57,2.79,.64,.07,0,.15,.01,.24,.02,.09,0,.18,.03,.27,.08,.09,.05,.17,.12,.24,.22,.07,.1,.12,.24,.15,.44l.36,2.69c.04,.29-.01,.48-.16,.56-.15,.08-.28,.12-.39,.11-.58,.03-1.17,.02-1.78-.02s-1.21-.13-1.81-.28c-.6-.14-1.18-.35-1.75-.62-.57-.27-1.09-.62-1.55-1.03-.36,.53-.77,1-1.24,1.41-.47,.41-.97,.76-1.51,1.06-.54,.3-1.1,.55-1.68,.75-.58,.2-1.15,.37-1.71,.49-.11,.03-.25,.03-.41,0s-.26-.2-.3-.49l-.36-2.69c-.03-.2-.02-.35,.02-.46s.1-.21,.17-.27c.07-.07,.16-.12,.24-.14,.09-.03,.16-.06,.23-.08,1.14-.39,1.97-.84,2.5-1.35,.53-.52,.86-1.08,.99-1.7l-3.86,.52c-.23,.03-.4,.01-.5-.06-.11-.07-.18-.22-.21-.47l-.38-2.86Zm24.65,18.63c.06,.19,.03,.32-.07,.38-.11,.06-.27,.13-.5,.19-1.11,.27-2.21,.5-3.29,.72-1.09,.21-2.22,.42-3.38,.62-1.17,.2-2.38,.39-3.66,.58-1.28,.19-2.65,.38-4.13,.58-1.51,.2-2.66,.04-3.44-.49-.78-.53-1.27-1.5-1.46-2.9l-.38-2.86c-.03-.23,0-.39,.08-.48,.09-.09,.24-.16,.47-.19l14.4-1.94-.12-.93-14.4,1.94c-.23,.03-.4,.01-.5-.06-.11-.07-.18-.22-.21-.45l-.25-1.88c-.03-.25,0-.41,.08-.51,.09-.1,.24-.16,.47-.19l17.99-2.42c.23-.03,.39-.01,.5,.06,.11,.07,.18,.22,.21,.47l.79,5.83c.03,.24,0,.41-.08,.51-.09,.09-.24,.16-.47,.19l-14.4,1.94,.04,.27c.05,.37,.18,.59,.38,.64,.21,.05,.51,.06,.92,0,1.37-.18,2.65-.37,3.84-.54,1.19-.18,2.33-.35,3.41-.53,1.08-.18,2.1-.36,3.08-.54,.98-.18,1.94-.38,2.89-.59,.4-.07,.64,.05,.7,.38l.52,2.19Z"/><path d="M111.75,216.19c-.03-.24,0-.41,.08-.51,.09-.09,.24-.16,.47-.19l4.08-.55-.23-1.71c-.03-.24,0-.41,.08-.51s.25-.16,.47-.19l3.37-.45c.23-.03,.4-.01,.5,.06,.11,.07,.18,.22,.21,.47l.23,1.71,4.05-.54c.23-.03,.4-.01,.51,.06,.11,.07,.18,.22,.21,.47l.38,2.86c.03,.24,0,.41-.08,.51-.09,.09-.24,.16-.47,.19l-4.05,.54,.96,7.15c.06,.47,.18,.92,.36,1.35,.17,.43,.44,.82,.8,1.16,.36,.34,.82,.63,1.38,.86,.56,.23,1.26,.37,2.09,.43,.07,0,.15,.01,.24,.02,.09,0,.18,.03,.27,.08,.09,.04,.17,.12,.24,.22,.07,.1,.12,.24,.15,.44l.36,2.71c.04,.29-.01,.48-.16,.56-.15,.08-.28,.12-.39,.12-.58,.03-1.17,.02-1.78-.02s-1.21-.13-1.81-.28c-.6-.14-1.18-.35-1.75-.62-.57-.27-1.08-.62-1.56-1.03-.36,.53-.77,1-1.24,1.41-.47,.41-.97,.76-1.51,1.06-.54,.3-1.1,.54-1.68,.75s-1.15,.37-1.71,.49c-.11,.03-.25,.03-.41,0-.16-.04-.26-.2-.3-.49l-.36-2.71c-.03-.2-.02-.35,.02-.46,.04-.11,.1-.2,.17-.27,.07-.07,.16-.12,.24-.14s.16-.06,.23-.08c.79-.27,1.43-.59,1.91-.96,.48-.37,.85-.77,1.11-1.19,.26-.42,.41-.87,.47-1.33,.05-.46,.05-.93-.01-1.4l-.96-7.15-4.08,.55c-.23,.03-.4,.01-.5-.06-.11-.07-.18-.22-.21-.47l-.38-2.86Zm25.04,6.22c.03,.24,0,.41-.08,.51-.09,.1-.24,.16-.47,.19l-2.25,.3,1.31,9.74c.03,.24,0,.41-.08,.51-.09,.09-.24,.16-.47,.19l-3.42,.46c-.23,.03-.4,.01-.5-.06-.11-.07-.18-.23-.21-.47l-2.89-21.48c-.03-.24,0-.41,.08-.51,.09-.09,.25-.16,.47-.19l3.42-.46c.23-.03,.4-.01,.5,.06,.11,.07,.18,.23,.21,.47l1.03,7.69,2.25-.3c.23-.03,.4-.01,.5,.06,.11,.07,.18,.22,.21,.47l.38,2.83Z"/></g></g></g></svg>