<?xml version="1.0" encoding="UTF-8"?><svg xmlns="http://www.w3.org/2000/svg" viewBox="0 0 400 356"><defs><style>.c{fill:#fff;}.d{fill:none;stroke:#fff;stroke-linecap:round;stroke-miterlimit:10;stroke-width:8px;}.d,.e{opacity:.8;}.f{fill:#557cbd;}.g{fill:#093974;}.h{opacity:.6;}</style></defs><g id="a"/><g id="b"><rect class="c" y="0" width="400" height="356"/><g><g><g><path class="f" d="M188.8,285.7s-4.89-1.66-6.06,1.53-2.67,3.81-2.95,5.78,1.51,5.65,5.36,4.12,6.2-3.39,6.16-6.71-1.92-4.55-2.51-4.71Z"/><path d="M188.79,285.74c-1.45-.45-3.13-.52-4.43,.12-1.42,.73-1.41,2.52-2.33,3.69-.84,1.34-2.14,2.37-2.12,3.93,.01,1.48,.93,3.01,2.28,3.53,1.45,.55,2.85-.22,4.17-.84,1.35-.68,2.64-1.5,3.51-2.63,1.63-2.13,1.67-6.48-1.08-7.79h0Zm.03-.08c2.24,.97,3.13,3.83,2.78,6.14-.63,3.39-4.16,5.04-7.13,5.9-2.58,.68-4.8-1.8-4.82-4.21,0-2.41,2.09-4.12,2.74-6.34,.97-2.64,4.31-2.16,6.44-1.49h0Z"/></g><g><path class="f" d="M177.13,300.64s-1.51-2.76-2.78-2.15-2.03,.17-2.64,.75-.85,2.68,1.06,3.85,3.31,1.55,4.15,.34,.41-2.47,.21-2.79Z"/><path d="M177.1,300.66c-.51-.84-1.57-2.07-2.58-1.82-.28,.13-.61,.24-.91,.29-.85,.13-1.66-.2-2.01,.52-.34,.65-.2,1.5,.19,2.09,.8,1.09,2.43,1.78,3.68,1.98,1.33,.12,2.27-1.87,1.63-3.05h0Zm.07-.04c.85,1.42,.32,4.13-1.74,4-.94-.06-1.67-.48-2.35-.89-.67-.37-1.42-.99-1.71-1.79-.43-1.1-.4-2.89,.96-3.25,.42-.1,.78-.15,1.12-.26,.25-.07,.5-.18,.74-.29,1.62-.55,2.32,1.47,2.98,2.47h0Z"/></g><g><g><path class="f" d="M140.86,269.34c-21.33,0-38.62,6.66-38.62,14.88l.27,1.74c2.23,7.4,31.5,19.84,51.14,17.31s21.9-14.11,24.95-18.13c1.18-1.56,4.01-4.01,4.5-6.21,1.78-8.02-20.91-9.58-42.24-9.58Z"/><path d="M140.86,269.43c-10.85,.1-22.14,1.91-31.72,7.16-2.84,1.55-6.15,4.56-6.18,7.52l.25,1.74c.19,.76,1.33,2.31,2.34,3.18,12.78,10.86,37.86,17.16,54.06,12.27,5.55-1.53,10.71-4.63,13.94-9.45,1.81-2.45,2.72-5.16,4.64-7.66,1.6-2.01,4.44-4.06,4.08-6.68-.68-2.47-3.98-3.59-6.3-4.38-11.34-3.21-23.37-3.55-35.11-3.71h0Zm0-.17c11.86,.17,23.94-.5,35.56,2.37,3.63,.91,9.11,3.57,7.32,8.2-.88,2.19-2.76,3.85-4.15,5.53-1.69,2.22-2.81,5.22-4.56,7.54-1.77,2.5-4.05,4.68-6.65,6.31-10.46,6.43-23.57,5.68-35.04,2.93-8.66-2.11-17.21-5.04-24.93-9.56-2.58-1.72-5.34-3.34-6.59-6.45v-.07l-.3-1.73c-.1-4.17,3.59-7.19,6.87-9.04,9.94-5.24,21.46-5.86,32.46-6.04h0Z"/></g><g><path class="f" d="M140.86,202.23c-19.8,0-36.11-5.74-38.35-13.14l14.55,93.46c1.38-5.26,11.9-9.35,24.68-9.35,13.72,0,24.84,4.71,24.84,10.52l12.69-94.83c-2,7.49-18.44,13.34-38.41,13.34Z"/><path d="M140.86,202.31c-10.39,.08-34.53-2.09-38.88-13.07l1.07-.24c2.67,15.54,5.11,31.11,7.36,46.72,2.03,13.77,4.7,33.24,6.91,46.79l-.53-.03c2.85-7.95,18.17-9.72,25.55-9.73,7.08-.09,24.2,1.96,24.97,10.98l-1.45-.1c1.76-14.04,4.33-33.62,6.18-47.44,1.81-13.94,4.59-33.66,6.66-47.37l1.14,.23c-4.04,11.16-28.61,13.38-38.97,13.27h0Zm0-.17c11.39-.22,26.14-1.77,35.14-9.28,1.26-1.15,2.3-2.56,2.71-4.12l1.14,.23c-.9,7.92-1.94,15.83-2.9,23.74-2.88,22.09-6.54,49.04-9.64,71.1l-1.45-.1c-.01-2.16-1.75-3.88-3.48-5.05-9.41-5.77-23.42-6.04-33.96-3.48-4.2,1.26-9.42,2.96-11.08,7.43l-.34,1.21-.19-1.23c-3.43-22.47-7.93-47.56-11.4-70.02-1.14-7.8-2.36-15.59-3.42-23.4l1.07-.24c.46,1.55,1.53,2.94,2.8,4.07,9.1,7.41,23.6,8.94,35.02,9.15h0Z"/></g><g><path class="f" d="M141.74,273.2c-12.78,0-23.3,4.09-24.68,9.35-.1,.39-.16,.78-.16,1.17,0,5.81,11.12,10.52,24.84,10.52s24.84-4.71,24.84-10.52-11.12-10.52-24.84-10.52Z"/><path d="M141.74,273.28c-7.6,.15-15.73,1.7-21.81,6.41-6.55,5.61,2.32,10.87,7.61,12.36,9.13,2.7,19.2,2.1,28.26-.51,3.71-1.26,9.47-3.43,9.87-7.83-.3-4.39-6.18-6.65-9.8-8.06-4.49-1.56-9.31-2.36-14.12-2.37h0Zm0-.17c7.2,.12,14.91,.43,21.33,4.22,5.82,3.48,5.85,9.29,.04,12.83-6.4,3.85-14.09,4.71-21.36,4.55-7.38-.36-18.82-1.65-24.05-7.3-1.59-1.71-2.03-4.59-.68-6.63,4.76-7.13,16.99-7.48,24.72-7.67h0Z"/></g><g><path class="f" d="M102.51,189.08l-.27-1.74c0,.59,.1,1.17,.27,1.74Z"/><path d="M101.7,189.33c-.2-.68-.31-1.34-.31-1.98l1.7-.13,.27,1.74-1.66,.38Z"/></g><g><path class="f" d="M140.86,172.46c-21.33,0-38.62,6.66-38.62,14.88l.27,1.74c2.23,7.4,18.55,13.14,38.35,13.14s36.41-5.84,38.41-13.34l.21-1.54c0-8.22-17.29-14.88-38.62-14.88Z"/><path d="M140.86,172.55c-10.85,.11-22.13,1.94-31.72,7.17-9.06,5.24-7.6,11.51,1.02,16.15,9.38,4.9,20.35,6.01,30.8,5.89,10.43-.37,21.19-1.65,30.57-6.37,5.07-2.62,9.75-7.29,5.12-12.38-7.94-7.87-24.9-10.4-35.79-10.46h0Zm0-.17c11.01,.16,22.53,.78,32.5,5.97,3.78,2.05,7.97,5.81,6.82,10.66-2.16,7.02-11.66,9.87-17.99,11.56-13.9,3.22-28.49,2.69-42.33-.46-6.25-1.67-15.54-4.21-18.02-10.93l-.3-1.73c-.07-2.12,.98-4.11,2.32-5.55,8.51-8.55,25.53-9.34,37-9.53h0Z"/></g><g><path class="f" d="M140.86,174.44c-19.97,0-36.16,5.78-36.16,12.9l.25,1.51c2.09,6.41,17.37,11.39,35.91,11.39s34.09-5.07,35.97-11.56l.19-1.34c0-7.12-16.19-12.9-36.16-12.9Z"/><path d="M140.86,174.53c-10.03,.09-20.4,1.71-29.44,6.17-14.56,7.76,.76,15.3,10.09,17.26,12.7,2.81,26.13,2.27,38.75-.55,6.04-1.36,21.07-6.5,13.94-13.88-7.85-6.79-23.16-8.92-33.35-9h0Zm0-.17c10.19,.14,20.76,.55,30.16,4.94,3.53,1.71,7.85,5.03,6.72,9.52-2.09,6.33-11.35,8.75-17.11,10.15-12.93,2.72-26.37,2.18-39.23-.47-5.69-1.4-14.71-3.5-17.12-9.53l-.28-1.5c-.1-1.98,1.03-3.79,2.37-5.11,8.39-7.39,23.77-7.8,34.49-8h0Z"/></g><g><line class="f" x1="106.15" y1="197.36" x2="119.68" y2="283.72"/><path d="M119.68,284.36c-.31,0-.58-.23-.63-.54l-13.53-86.35c-.05-.35,.18-.68,.53-.73,.35-.05,.68,.18,.73,.53l13.53,86.35c.05,.35-.18,.68-.53,.73-.03,0-.07,0-.1,0Z"/></g><g><line class="f" x1="175.56" y1="197.36" x2="163.91" y2="283.72"/><path d="M163.91,284.36s-.06,0-.09,0c-.35-.05-.6-.37-.55-.72l11.65-86.35c.05-.35,.36-.6,.72-.55,.35,.05,.6,.37,.55,.72l-11.65,86.35c-.04,.32-.32,.56-.63,.56Z"/></g><g><path class="f" d="M121.46,286.59s6.5,5.48,19.43,5.48,21.86-5.48,21.86-5.48"/><path d="M140.89,292.71c-13.01,0-19.57-5.4-19.84-5.63-.27-.23-.3-.63-.08-.9,.23-.27,.63-.31,.9-.08,.06,.05,6.51,5.33,19.02,5.33s21.44-5.33,21.52-5.39c.3-.18,.7-.09,.88,.21,.18,.3,.09,.7-.21,.88-.37,.23-9.24,5.57-22.2,5.57Z"/></g><g class="e"><path class="c" d="M161.88,297.74c-.62,0-1.22-.34-1.53-.94-.43-.84-.09-1.87,.75-2.3,.1-.05,9.74-5.01,11.97-11.36,.31-.89,1.29-1.36,2.18-1.05,.89,.31,1.36,1.29,1.05,2.18-2.68,7.65-13.2,13.05-13.65,13.28-.25,.13-.51,.18-.77,.18Z"/></g><g class="h"><path class="c" d="M157.72,277.91c-.09,0-.18,0-.28-.01-1.88-.15-3.29-1.8-3.14-3.68l5.04-63.08c.15-1.88,1.79-3.3,3.68-3.14,1.88,.15,3.29,1.8,3.14,3.68l-5.04,63.08c-.14,1.79-1.64,3.15-3.41,3.15Z"/></g><path d="M111.53,279.34c-2.85,3.31-.91,7.18,2.1,9.54,3.05,2.31,6.77,3.55,10.37,4.71,2.4,.87,5.07,1.15,7.31,2.41l-.05,.07c-1.18-.46-2.5-.5-3.74-.76-5.15-.78-9.94-3.06-14.06-6.21-2.13-1.42-4.45-3.61-3.99-6.47,.19-1.37,.97-2.57,2.01-3.36l.06,.06h0Z"/></g></g><g><path class="f" d="M194.36,242.95c-1.26,0-2.31-.17-3.14-.52-.84-.35-1.52-.87-2.03-1.55-.51-.69-.88-1.55-1.1-2.58s-.32-2.22-.32-3.58,.11-2.56,.32-3.61,.58-1.94,1.1-2.66c.52-.72,1.19-1.26,2.03-1.64,.84-.37,1.89-.56,3.14-.56s2.29,.19,3.13,.56c.84,.37,1.52,.92,2.03,1.64,.51,.72,.87,1.61,1.09,2.66s.32,2.26,.32,3.61-.11,2.55-.32,3.58-.58,1.89-1.09,2.58c-.51,.69-1.19,1.21-2.03,1.55-.84,.35-1.89,.52-3.13,.52Zm0-3.11c.65,0,1.18-.1,1.61-.31,.43-.2,.76-.52,1.01-.94,.25-.42,.42-.96,.51-1.6s.14-1.4,.14-2.27-.05-1.64-.14-2.31-.27-1.22-.51-1.67c-.25-.45-.58-.79-1.01-1.02-.42-.23-.96-.35-1.61-.35s-1.2,.12-1.62,.35c-.42,.23-.75,.58-1,1.02-.25,.45-.42,1.01-.51,1.67s-.14,1.43-.14,2.31,.05,1.63,.14,2.27,.27,1.17,.51,1.6c.25,.43,.58,.74,1,.94,.42,.2,.96,.31,1.62,.31Z"/><path class="f" d="M209.81,237.43h-3.04v4.76c0,.18-.04,.3-.11,.36-.07,.06-.19,.09-.36,.09h-2.34c-.17,0-.29-.03-.36-.09-.07-.06-.11-.18-.11-.36v-13.41c0-.33,.02-.64,.06-.92s.14-.52,.29-.72c.15-.2,.37-.35,.66-.46,.29-.11,.68-.16,1.19-.16h3.97c1.9,0,3.31,.42,4.23,1.25,.92,.83,1.37,2.2,1.37,4.11,0,1.19-.21,2.14-.62,2.85-.41,.71-.99,1.3-1.72,1.75l2.01,5.48c.1,.25,.09,.43-.02,.53-.11,.1-.31,.15-.59,.15h-2.03c-.28,0-.47-.04-.58-.13-.11-.09-.21-.27-.3-.55l-1.62-4.53Zm2.17-5.52c0-1.56-.77-2.34-2.32-2.34h-2.05c-.32,0-.54,.06-.67,.19s-.18,.36-.18,.71v3.9h2.95c.8,0,1.38-.23,1.73-.68,.35-.46,.53-1.05,.53-1.78Z"/></g><g><g><g><path class="c" d="M258.99,202.23c-19.8,0-36.11-5.74-38.35-13.14l14.55,93.46c1.38-5.26,11.9-9.35,24.68-9.35,13.72,0,24.84,4.71,24.84,10.52l12.69-94.83c-2,7.49-18.44,13.34-38.41,13.34Z"/><path d="M258.99,202.31c-10.39,.08-34.53-2.09-38.88-13.07l1.07-.24c2.67,15.54,5.11,31.11,7.36,46.72,2.03,13.77,4.7,33.24,6.91,46.79l-.53-.03c2.85-7.95,18.17-9.72,25.55-9.73,7.08-.09,24.2,1.96,24.97,10.98l-1.45-.1c1.76-14.04,4.33-33.62,6.18-47.44,1.81-13.94,4.59-33.66,6.66-47.37l1.14,.23c-4.04,11.16-28.61,13.38-38.97,13.27h0Zm0-.17c11.39-.22,26.14-1.77,35.14-9.28,1.26-1.15,2.3-2.56,2.71-4.12l1.14,.23c-.9,7.92-1.94,15.83-2.9,23.74-2.88,22.09-6.54,49.04-9.64,71.1l-1.45-.1c-.01-2.16-1.75-3.88-3.48-5.05-9.41-5.77-23.42-6.04-33.96-3.48-4.2,1.26-9.42,2.96-11.08,7.43l-.34,1.21-.19-1.23c-3.43-22.47-7.93-47.56-11.4-70.02-1.14-7.8-2.36-15.59-3.42-23.4l1.07-.24c.46,1.55,1.53,2.94,2.8,4.07,9.1,7.41,23.6,8.94,35.02,9.15h0Z"/></g><g><path class="f" d="M259.87,273.2c-12.78,0-23.3,4.09-24.68,9.35-.1,.39-.16,.78-.16,1.17,0,5.81,11.12,10.52,24.84,10.52s24.84-4.71,24.84-10.52-11.12-10.52-24.84-10.52Z"/><path d="M259.87,273.28c-7.6,.15-15.73,1.7-21.81,6.41-6.55,5.61,2.32,10.87,7.61,12.36,9.13,2.7,19.2,2.1,28.26-.51,3.71-1.26,9.47-3.43,9.87-7.83-.3-4.39-6.18-6.65-9.8-8.06-4.49-1.56-9.31-2.36-14.12-2.37h0Zm0-.17c7.2,.12,14.91,.43,21.33,4.22,5.82,3.48,5.85,9.29,.04,12.83-6.4,3.85-14.09,4.71-21.36,4.55-7.38-.36-18.82-1.65-24.05-7.3-1.59-1.71-2.03-4.6-.68-6.63,4.76-7.13,16.99-7.48,24.72-7.67h0Z"/></g><g><path class="f" d="M220.64,189.08l-.27-1.74c0,.59,.1,1.17,.27,1.74Z"/><path d="M219.82,189.33c-.2-.68-.31-1.34-.31-1.98l1.7-.13,.27,1.74-1.66,.38Z"/></g><g><path class="f" d="M258.99,172.46c-21.33,0-38.62,6.66-38.62,14.88l.27,1.74c2.23,7.4,18.55,13.14,38.35,13.14s36.41-5.84,38.41-13.34l.21-1.54c0-8.22-17.29-14.88-38.62-14.88Z"/><path d="M258.99,172.55c-10.85,.11-22.13,1.94-31.72,7.17-9.06,5.24-7.6,11.51,1.02,16.15,9.38,4.9,20.35,6.01,30.8,5.89,10.43-.37,21.19-1.65,30.57-6.37,5.07-2.62,9.75-7.29,5.12-12.38-7.94-7.87-24.9-10.4-35.79-10.46h0Zm0-.17c11.01,.16,22.53,.78,32.5,5.97,3.78,2.05,7.97,5.81,6.82,10.66-2.16,7.02-11.66,9.87-17.99,11.56-13.9,3.22-28.49,2.69-42.33-.46-6.25-1.67-15.54-4.21-18.02-10.93l-.3-1.73c-.07-2.12,.98-4.11,2.32-5.55,8.51-8.55,25.53-9.34,37-9.53h0Z"/></g><g><path class="c" d="M258.99,174.44c-19.97,0-36.16,5.78-36.16,12.9l.25,1.51c2.09,6.41,17.37,11.39,35.91,11.39s34.09-5.07,35.97-11.56l.19-1.34c0-7.12-16.19-12.9-36.16-12.9Z"/><path d="M258.99,174.53c-10.03,.09-20.4,1.71-29.44,6.17-14.56,7.76,.76,15.3,10.09,17.26,12.7,2.81,26.13,2.27,38.75-.55,6.04-1.36,21.07-6.5,13.94-13.88-7.85-6.79-23.16-8.92-33.35-9h0Zm0-.17c10.19,.14,20.76,.55,30.16,4.94,3.53,1.71,7.85,5.03,6.72,9.52-2.09,6.33-11.35,8.75-17.11,10.15-12.93,2.72-26.37,2.18-39.23-.47-5.69-1.4-14.71-3.5-17.12-9.53l-.28-1.5c-.1-1.98,1.03-3.79,2.37-5.11,8.39-7.39,23.77-7.8,34.49-8h0Z"/></g><g><path class="f" d="M239.59,286.59s6.5,5.48,19.43,5.48,21.86-5.48,21.86-5.48"/><path d="M259.02,292.71c-13.01,0-19.57-5.4-19.84-5.63-.27-.23-.3-.63-.08-.9,.23-.27,.63-.31,.9-.08,.06,.05,6.51,5.33,19.02,5.33s21.44-5.33,21.52-5.39c.3-.18,.7-.09,.88,.21,.18,.3,.09,.7-.21,.88-.37,.23-9.24,5.57-22.19,5.57Z"/></g><path class="f" d="M234.67,260.59l3.61,24.71s6.01,2.71,8.93,3.58,9.64,1.98,14.21,1.47,12.33-1.77,15.61-3.5,4.84-2.49,4.84-2.49l3.49-23.41-15.72-2.9-20.01-.57-14.96,3.12Z"/><g><path class="f" d="M259.87,251.48c-13.83,0-25.03,4-25.03,8.93l.18,1.04c1.45,4.44,12.02,7.89,24.86,7.89s23.6-3.51,24.9-8l.13-.93c0-4.93-11.21-8.93-25.03-8.93Z"/><path d="M259.87,269.98c-13.18,0-23.9-3.5-25.47-8.33l-.02-.09-.18-1.15c0-5.37,11.28-9.57,25.68-9.57s25.68,4.2,25.68,9.57v.09l-.16,1.01c-1.42,4.91-12.15,8.47-25.52,8.47Zm-24.24-8.68c1.42,4.15,12.04,7.4,24.24,7.4,13.79,0,23.15-3.81,24.27-7.5l.12-.83c-.07-3.99-9.85-8.25-24.39-8.25s-24.31,4.25-24.39,8.24l.16,.94Z"/></g><g><line class="f" x1="293.62" y1="197.38" x2="282.41" y2="283.72"/><path d="M282.41,284.36s-.06,0-.08,0c-.35-.05-.6-.37-.55-.72l11.21-86.33c.05-.35,.37-.6,.72-.55,.35,.05,.6,.37,.55,.72l-11.21,86.33c-.04,.32-.32,.56-.64,.56Z"/></g><g><line class="f" x1="237.8" y1="283.72" x2="224.04" y2="195.85"/><path d="M237.8,284.36c-.31,0-.58-.23-.63-.54l-13.76-87.86c-.05-.35,.18-.68,.53-.73,.34-.05,.68,.18,.73,.53l13.76,87.86c.05,.35-.18,.68-.53,.73-.03,0-.07,0-.1,0Z"/></g><g><path class="f" d="M281.47,282.38c-1.52-4.47-10.61-7.91-21.6-7.91s-20.07,3.44-21.6,7.91"/><path d="M281.39,282.41c-2.15-3.4-6.23-4.47-9.81-5.75-1.86-.62-3.77-1.26-5.74-1.56-3.94-.6-7.96,.02-11.87,.52-3.84,.66-7.7,1.51-11.23,3.15-1.72,.84-3.41,1.88-4.38,3.64l-.16-.06c.21-1.02,.79-1.94,1.47-2.74,2.12-2.31,5.13-3.64,8.07-4.52,3.95-1.09,8.08-1.41,12.14-1.09l6.03,.55c4.31,.27,8.79,.88,12.42,3.48,1.45,1.07,2.87,2.5,3.23,4.32l-.16,.06h0Z"/></g></g><line class="d" x1="282.41" y1="211.41" x2="277.37" y2="274.49"/></g></g><g><path class="g" d="M132.35,68.98c0,1.45-.31,2.5-.93,3.15-.62,.65-1.56,.97-2.8,.97h-6.23v4.6h11.28c.32,0,.55,.06,.69,.17,.14,.12,.21,.35,.21,.69v4.05c0,.35-.07,.58-.21,.69-.14,.12-.37,.17-.69,.17h-29.2c-.32,0-.55-.06-.69-.17-.14-.12-.21-.35-.21-.69v-4.05c0-.35,.07-.58,.21-.69s.37-.17,.69-.17h11.28v-4.6h-6.26c-1.25,0-2.18-.32-2.8-.97s-.93-1.7-.93-3.15v-16.47c0-.35,.07-.58,.21-.69,.14-.12,.37-.17,.69-.17h24.81c.32,0,.55,.06,.69,.17,.14,.12,.21,.35,.21,.69v16.47Zm-7.3-1.31c.39,0,.66-.08,.79-.22,.14-.15,.21-.44,.21-.88v-9.65h-14.01v9.65c0,.44,.07,.73,.21,.88,.14,.15,.4,.22,.8,.22h12Z"/><path class="g" d="M133.35,52.51c0-.35,.07-.58,.21-.69,.14-.12,.37-.17,.69-.17h18.09c.32,0,.55,.06,.69,.17,.14,.12,.21,.35,.21,.69v4.05c0,.35-.07,.58-.21,.69-.14,.12-.37,.17-.69,.17h-5.74v12.56c0,.67,.08,1.32,.24,1.96,.16,.63,.46,1.22,.9,1.76s1.03,1.03,1.76,1.45,1.68,.76,2.84,.99c.09,.02,.2,.05,.33,.07,.13,.02,.25,.08,.36,.16,.12,.08,.21,.2,.29,.35,.08,.15,.12,.36,.12,.64v3.84c0,.42-.11,.66-.33,.74-.22,.08-.41,.11-.57,.09-.81-.07-1.63-.19-2.47-.36-.84-.17-1.67-.42-2.47-.73-.81-.31-1.58-.71-2.32-1.19s-1.4-1.06-1.97-1.73c-.6,.67-1.26,1.25-1.99,1.73s-1.49,.88-2.3,1.19c-.81,.31-1.63,.55-2.47,.73-.84,.17-1.67,.29-2.47,.36-.16,.02-.35,0-.57-.09-.22-.08-.33-.33-.33-.74v-3.84c0-.28,.04-.49,.12-.64,.08-.15,.18-.26,.29-.35,.12-.08,.24-.13,.36-.16,.13-.02,.24-.05,.33-.07,1.15-.23,2.1-.56,2.84-.99s1.33-.91,1.76-1.45c.44-.54,.74-1.13,.9-1.76,.16-.63,.24-1.29,.24-1.96v-12.56h-5.78c-.32,0-.55-.06-.69-.17-.14-.12-.21-.35-.21-.69v-4.05Zm33.7,15.78c0,.35-.07,.58-.21,.69s-.37,.17-.69,.17h-3.18v13.8c0,.35-.07,.58-.21,.69-.14,.12-.37,.17-.69,.17h-4.84c-.32,0-.55-.06-.69-.17-.14-.12-.21-.35-.21-.69v-30.45c0-.35,.07-.58,.21-.69,.14-.12,.37-.17,.69-.17h4.84c.32,0,.55,.06,.69,.17,.14,.12,.21,.35,.21,.69v10.9h3.18c.32,0,.55,.06,.69,.17,.14,.12,.21,.35,.21,.69v4.01Z"/><path class="g" d="M181.3,51.65c1.25,0,2.12,.3,2.61,.9,.5,.6,.74,1.53,.74,2.8v5.5c0,.35-.07,.58-.21,.69-.14,.12-.37,.17-.69,.17h-10.62c-.25,0-.42,.04-.48,.1-.07,.07-.1,.21-.1,.42v.45c0,.3,.07,.5,.22,.59,.15,.09,.49,.14,1.02,.14,1.13,0,2.18-.02,3.15-.05,.97-.03,1.89-.07,2.77-.12,.88-.05,1.72-.11,2.54-.19,.82-.08,1.65-.16,2.51-.22,.32-.05,.54,0,.66,.12s.2,.36,.24,.71l.24,2.98c.05,.35-.01,.57-.17,.66-.16,.09-.4,.16-.73,.21-2.28,.18-4.51,.33-6.68,.43-2.17,.1-4.36,.16-6.57,.16-1.11,0-2.03-.07-2.77-.22-.74-.15-1.34-.41-1.8-.78-.46-.37-.79-.88-.99-1.52-.2-.65-.29-1.48-.29-2.49v-4.64c0-.35,.07-.58,.21-.69,.14-.12,.37-.17,.69-.17h10.59c.25,0,.42-.03,.5-.09s.12-.18,.12-.36v-.45c0-.18-.03-.31-.1-.36s-.22-.09-.45-.09h-10.66c-.32,0-.55-.06-.69-.17-.14-.12-.21-.35-.21-.69v-2.84c0-.35,.07-.58,.21-.69,.14-.12,.37-.17,.69-.17h14.5Zm13.91,31.41c.05,.28-.01,.45-.17,.52s-.4,.13-.73,.17c-1.59,.16-3.17,.29-4.72,.38-1.56,.09-3.17,.17-4.83,.22-1.66,.06-3.4,.1-5.21,.12-1.81,.02-3.77,.04-5.86,.04s-3.71-.44-4.71-1.33c-.99-.89-1.49-2.32-1.49-4.31v-3.36c0-.32,.07-.54,.21-.66s.37-.17,.69-.17h20.41v-1.31h-20.41c-.32,0-.55-.06-.69-.17-.14-.12-.21-.33-.21-.66v-2.32c0-.35,.07-.58,.21-.69s.37-.17,.69-.17h25.5c.32,0,.55,.06,.69,.17,.14,.12,.21,.35,.21,.69v7.58c0,.35-.07,.58-.21,.69-.14,.12-.37,.17-.69,.17h-20.41v.38c0,.53,.14,.85,.42,.97,.28,.12,.7,.17,1.28,.17,1.94,0,3.75-.01,5.45-.03,1.7-.02,3.31-.06,4.84-.1,1.53-.05,3-.1,4.41-.17,1.41-.07,2.79-.16,4.15-.28,.58-.02,.88,.2,.9,.66l.28,2.8Zm-6.16-14.98c-.32,0-.55-.06-.69-.17-.14-.12-.21-.35-.21-.69v-14.7c0-.35,.07-.58,.21-.69,.14-.12,.37-.17,.69-.17h4.84c.32,0,.55,.06,.69,.17,.14,.12,.21,.35,.21,.69v4.01h3.18c.32,0,.55,.06,.69,.17,.14,.12,.21,.35,.21,.69v4.01c0,.35-.07,.58-.21,.69-.14,.12-.37,.17-.69,.17h-3.18v4.95c0,.35-.07,.58-.21,.69-.14,.12-.37,.17-.69,.17h-4.84Z"/><path class="g" d="M210.98,61.58h6.09v-9.06c0-.35,.07-.58,.21-.69,.14-.12,.37-.17,.69-.17h4.53c.32,0,.55,.06,.69,.17,.14,.12,.21,.35,.21,.69v25.46c0,1.45-.31,2.5-.93,3.15-.62,.65-1.56,.97-2.8,.97h-11.28c-1.25,0-2.18-.32-2.8-.97-.62-.65-.93-1.7-.93-3.15v-25.46c0-.35,.07-.58,.21-.69,.14-.12,.37-.17,.69-.17h4.53c.32,0,.55,.06,.69,.17,.14,.12,.21,.35,.21,.69v9.06Zm6.09,5.74h-6.09v8.23c0,.44,.07,.73,.21,.88,.14,.15,.4,.22,.8,.22h4.08c.39,0,.66-.08,.79-.22,.14-.15,.21-.44,.21-.88v-8.23Zm20.55,.97c0,.35-.07,.58-.21,.69s-.37,.17-.69,.17h-3.18v13.8c0,.35-.07,.58-.21,.69-.14,.12-.37,.17-.69,.17h-4.84c-.32,0-.55-.06-.69-.17-.14-.12-.21-.35-.21-.69v-30.45c0-.35,.07-.58,.21-.69,.14-.12,.37-.17,.69-.17h4.84c.32,0,.55,.06,.69,.17,.14,.12,.21,.35,.21,.69v10.9h3.18c.32,0,.55,.06,.69,.17,.14,.12,.21,.35,.21,.69v4.01Z"/><path class="g" d="M243.85,51.65c1.38,0,2.54,.27,3.48,.8,.93,.53,1.7,1.3,2.28,2.3,.59,1,1.02,2.23,1.3,3.68,.28,1.45,.46,3.11,.55,4.98h1.73v-10.9c0-.35,.07-.58,.21-.69,.14-.12,.37-.17,.69-.17h4.32c.32,0,.55,.06,.69,.17,.14,.12,.21,.35,.21,.69v30.45c0,.35-.07,.58-.21,.69s-.37,.17-.69,.17h-4.32c-.32,0-.55-.06-.69-.17-.14-.12-.21-.35-.21-.69v-13.8h-1.66c-.05,2.12-.19,4.01-.43,5.66-.24,1.65-.65,3.04-1.21,4.17-.57,1.13-1.33,2-2.3,2.59s-2.21,.9-3.74,.9c-1.64,0-2.96-.35-3.96-1.04-1-.69-1.78-1.7-2.33-3.03s-.93-2.95-1.12-4.86c-.2-1.91-.29-4.08-.29-6.5s.1-4.59,.29-6.5c.2-1.91,.58-3.53,1.14-4.84,.56-1.31,1.35-2.32,2.35-3.01,1-.69,2.31-1.04,3.93-1.04Zm0,25.05c.32,0,.6-.1,.83-.31,.23-.21,.42-.65,.55-1.33,.14-.68,.24-1.66,.31-2.94,.07-1.28,.1-2.98,.1-5.1s-.04-3.82-.1-5.09c-.07-1.27-.17-2.24-.31-2.92-.14-.68-.32-1.12-.55-1.33-.23-.21-.51-.31-.83-.31s-.6,.1-.83,.31c-.23,.21-.42,.65-.55,1.33-.14,.68-.24,1.66-.31,2.92s-.1,2.96-.1,5.09,.04,3.82,.1,5.1,.17,2.26,.31,2.94c.14,.68,.32,1.12,.55,1.33,.23,.21,.51,.31,.83,.31Zm17.71,7.13c-.32,0-.55-.06-.69-.17-.14-.12-.21-.35-.21-.69v-30.45c0-.35,.07-.58,.21-.69,.14-.12,.37-.17,.69-.17h4.33c.32,0,.55,.06,.69,.17,.14,.12,.21,.35,.21,.69v30.45c0,.35-.07,.58-.21,.69s-.37,.17-.69,.17h-4.33Z"/><path class="g" d="M267.9,68.43c0-.35,.07-.58,.21-.69s.37-.17,.69-.17h29.2c.32,0,.55,.06,.69,.17,.14,.12,.21,.35,.21,.69v4.05c0,.35-.07,.58-.21,.69-.14,.12-.37,.17-.69,.17h-21.14v3.04c0,.83,.17,1.44,.52,1.83,.35,.39,.98,.58,1.9,.55,1.25-.02,2.57-.06,3.98-.12,1.41-.06,2.84-.13,4.31-.21,1.46-.08,2.92-.18,4.38-.31,1.45-.13,2.86-.26,4.22-.4,.32-.05,.54,0,.66,.14,.12,.14,.2,.38,.24,.73l.35,4.01c.05,.35-.01,.57-.17,.66-.16,.09-.4,.16-.73,.21-1.59,.16-3.26,.31-5,.43-1.74,.13-3.48,.24-5.22,.33-1.74,.09-3.45,.16-5.14,.21-1.68,.05-3.26,.07-4.74,.07-2.21,0-3.8-.59-4.76-1.78s-1.44-3.08-1.44-5.69v-3.7h-1.42c-.32,0-.55-.06-.69-.17s-.21-.35-.21-.69v-4.05Zm28.89-5.09c.05,.35-.01,.57-.17,.66-.16,.09-.4,.16-.73,.21-1.59,.16-3.24,.3-4.93,.42-1.7,.12-3.38,.21-5.05,.29-1.67,.08-3.33,.14-4.96,.17-1.64,.04-3.19,.05-4.67,.05-2.21,0-3.8-.59-4.76-1.78-.96-1.19-1.44-3.08-1.44-5.69v-5.15c0-.35,.07-.58,.21-.69,.14-.12,.37-.17,.69-.17h4.84c.32,0,.55,.06,.69,.17,.14,.12,.21,.35,.21,.69v4.5c0,.83,.17,1.44,.52,1.83,.35,.39,.98,.58,1.9,.55,2.51-.05,5.2-.14,8.04-.28,2.85-.14,5.63-.36,8.36-.66,.32-.05,.54,0,.66,.14,.12,.14,.2,.38,.24,.73l.35,4.01Z"/><path class="g" d="M143.31,122.08c0-.35,.07-.58,.21-.69s.37-.17,.69-.17h3.67v-12.18c0-.35,.07-.58,.21-.69,.14-.12,.37-.17,.69-.17h4.5c.32,0,.55,.06,.69,.17s.21,.35,.21,.69v12.18h9.51c.32,0,.55,.06,.69,.17,.14,.12,.21,.35,.21,.69v4.05c0,.35-.07,.58-.21,.69-.14,.12-.37,.17-.69,.17h-19.48c-.32,0-.55-.06-.69-.17-.14-.12-.21-.35-.21-.69v-4.05Zm12.52-4.81c.21-1.04,.39-2.18,.54-3.42,.15-1.25,.27-2.53,.36-3.84,.09-1.31,.17-2.62,.22-3.93,.06-1.3,.09-2.53,.09-3.68,0-.55-.09-.93-.28-1.14-.19-.21-.52-.31-1-.31h-9.69c-.32,0-.55-.06-.69-.17-.14-.12-.21-.35-.21-.69v-4.05c0-.35,.07-.58,.21-.69,.14-.12,.37-.17,.69-.17h13.77c1.25,0,2.18,.32,2.8,.97,.62,.65,.93,1.7,.93,3.15s-.02,2.91-.05,4.51c-.04,1.6-.1,3.22-.21,4.86s-.25,3.26-.43,4.86c-.18,1.6-.43,3.12-.73,4.55-.07,.35-.17,.58-.29,.71s-.39,.17-.78,.12l-4.39-.48c-.32-.05-.57-.14-.74-.28-.17-.14-.21-.43-.12-.87Zm11.04,10.07c-.32,0-.55-.06-.69-.17-.14-.12-.21-.35-.21-.69v-30.45c0-.35,.07-.58,.21-.69,.14-.12,.37-.17,.69-.17h4.84c.32,0,.55,.06,.69,.17,.14,.12,.21,.35,.21,.69v10.9h3.18c.32,0,.55,.06,.69,.17,.14,.12,.21,.35,.21,.69v4.01c0,.35-.07,.58-.21,.69s-.37,.17-.69,.17h-3.18v13.8c0,.35-.07,.58-.21,.69-.14,.12-.37,.17-.69,.17h-4.84Z"/><path class="g" d="M174.93,99.39c0-.35,.07-.58,.21-.69,.14-.12,.37-.17,.69-.17h5.95v-3.32c0-.35,.07-.58,.21-.69s.37-.17,.69-.17h4.84c.32,0,.55,.06,.69,.17s.21,.35,.21,.69v3.32h5.88c.32,0,.55,.06,.69,.17,.14,.12,.21,.35,.21,.69v3.7c0,.35-.07,.58-.21,.69-.14,.12-.37,.17-.69,.17h-18.47c-.32,0-.55-.06-.69-.17-.14-.11-.21-.35-.21-.69v-3.7Zm19.58,16.61c0,1.18-.18,2.36-.54,3.56s-.92,2.27-1.68,3.22c-.76,.95-1.75,1.72-2.96,2.32s-2.66,.9-4.34,.9c-1.78,0-3.26-.3-4.45-.9-1.19-.6-2.15-1.38-2.87-2.33s-1.24-2.04-1.54-3.23-.45-2.4-.45-3.6,.16-2.36,.47-3.56c.31-1.2,.83-2.28,1.56-3.23s1.68-1.74,2.87-2.33,2.66-.9,4.41-.9,3.13,.3,4.34,.9,2.2,1.38,2.96,2.33c.76,.96,1.32,2.04,1.68,3.25s.54,2.42,.54,3.62Zm-6.19-.07c0-.92-.11-1.68-.33-2.27-.22-.59-.5-1.06-.83-1.4s-.69-.58-1.07-.71-.73-.19-1.05-.19c-.28,0-.6,.06-.97,.19-.37,.13-.72,.35-1.06,.67s-.61,.78-.83,1.38c-.22,.6-.33,1.36-.33,2.28s.11,1.71,.33,2.3c.22,.59,.5,1.05,.83,1.38s.69,.57,1.06,.69c.37,.13,.69,.19,.97,.19,.32,0,.67-.06,1.05-.19,.38-.13,.74-.36,1.07-.69s.61-.8,.83-1.38c.22-.59,.33-1.34,.33-2.27Zm10.38,11.42c-.32,0-.55-.06-.69-.17-.14-.12-.21-.35-.21-.69v-30.45c0-.35,.07-.58,.21-.69,.14-.12,.37-.17,.69-.17h4.84c.32,0,.55,.06,.69,.17,.14,.12,.21,.35,.21,.69v10.9h3.18c.32,0,.55,.06,.69,.17,.14,.12,.21,.35,.21,.69v4.01c0,.35-.07,.58-.21,.69s-.37,.17-.69,.17h-3.18v13.8c0,.35-.07,.58-.21,.69-.14,.12-.37,.17-.69,.17h-4.84Z"/><path class="g" d="M207.39,96.03c0-.35,.07-.58,.21-.69,.14-.12,.37-.17,.69-.17h8.82c.88,0,1.63,.1,2.25,.31,.62,.21,1.14,.55,1.54,1.02,.4,.47,.69,1.08,.87,1.83,.17,.75,.25,1.67,.22,2.75-.02,.85-.06,1.77-.1,2.75-.05,.98-.13,2.01-.24,3.1h2.46v-10.9c0-.35,.07-.58,.21-.69,.14-.12,.37-.17,.69-.17h4.32c.32,0,.55,.06,.69,.17,.14,.12,.21,.35,.21,.69v30.45c0,.35-.07,.58-.21,.69s-.37,.17-.69,.17h-4.32c-.32,0-.55-.06-.69-.17-.14-.12-.21-.35-.21-.69v-13.8h-3.04c-.28,2.17-.6,4.36-.97,6.57-.37,2.21-.77,4.34-1.21,6.37-.07,.35-.16,.59-.26,.74-.1,.15-.32,.19-.64,.12l-4.46-.93c-.32-.07-.58-.16-.76-.28-.18-.12-.21-.45-.07-1,.44-1.75,.84-3.6,1.19-5.55,.36-1.95,.67-3.87,.93-5.76,.26-1.89,.47-3.7,.62-5.42,.15-1.72,.23-3.22,.23-4.51,0-.88-.13-1.44-.38-1.7-.25-.25-.68-.38-1.28-.38h-5.71c-.32,0-.55-.06-.69-.17-.14-.12-.21-.35-.21-.69v-4.05Zm25.08,31.31c-.32,0-.55-.06-.69-.17-.14-.12-.21-.35-.21-.69v-30.45c0-.35,.07-.58,.21-.69,.14-.12,.37-.17,.69-.17h4.33c.32,0,.55,.06,.69,.17,.14,.12,.21,.35,.21,.69v30.45c0,.35-.07,.58-.21,.69s-.37,.17-.69,.17h-4.33Z"/><path class="g" d="M243.19,115.89c0-1.01,.19-1.89,.57-2.61,.38-.73,.86-1.36,1.44-1.9,.58-.54,1.2-1.04,1.88-1.49,.68-.45,1.31-.92,1.89-1.4,.58-.48,1.06-1.01,1.44-1.59,.38-.58,.57-1.28,.57-2.11,0-.55-.04-1.04-.1-1.45-.07-.42-.23-.77-.47-1.06-.24-.29-.62-.5-1.12-.64-.51-.14-1.19-.21-2.04-.21-.37,0-.79,.02-1.26,.05-.47,.03-.95,.08-1.44,.14-.48,.06-.96,.12-1.42,.19-.46,.07-.88,.14-1.25,.21-.39,.07-.73,.06-1-.02-.28-.08-.45-.42-.52-1.02l-.42-3.49c-.05-.28-.04-.51,.03-.69,.07-.18,.16-.33,.28-.43,.12-.1,.24-.18,.38-.22,.14-.05,.25-.08,.35-.1,1.25-.28,2.53-.5,3.84-.67s2.59-.24,3.82-.19c1.23,.05,2.39,.22,3.48,.54,1.08,.31,2.04,.81,2.85,1.5,.82,.69,1.46,1.59,1.94,2.68,.47,1.1,.71,2.45,.71,4.07,0,1.36-.2,2.53-.59,3.51-.39,.98-.88,1.83-1.47,2.56s-1.23,1.35-1.92,1.87c-.69,.52-1.33,1-1.92,1.44-.59,.44-1.08,.87-1.47,1.28-.39,.42-.59,.89-.59,1.42v2.8c0,.35-.07,.58-.21,.69s-.37,.17-.69,.17h-4.67c-.32,0-.55-.06-.69-.17-.14-.12-.21-.35-.21-.69v-2.94Zm.9,12.14c-.32,0-.55-.06-.69-.17-.14-.12-.21-.35-.21-.69v-4.36c0-.35,.07-.58,.21-.69,.14-.12,.37-.17,.69-.17h4.67c.32,0,.55,.06,.69,.17,.14,.12,.21,.35,.21,.69v4.36c0,.35-.07,.58-.21,.69-.14,.11-.37,.17-.69,.17h-4.67Z"/></g></g></svg>