<?xml version="1.0" encoding="UTF-8"?><svg xmlns="http://www.w3.org/2000/svg" xmlns:xlink="http://www.w3.org/1999/xlink" viewBox="0 0 400 356"><defs><style>.d{fill:#fff;}.e{fill:#557cbd;}.f{fill:#dedede;}.g{fill:#b8b8b8;}.h{clip-path:url(#c);}.i{fill:#fdfdfd;}.j{fill:none;}.k{fill:#093974;}</style><clipPath id="c"><rect class="j" y="0" width="400" height="356"/></clipPath></defs><g id="a"/><g id="b"><rect class="d" y="0" width="400" height="356"/><g class="h"><g><path class="e" d="M163.16,238.88c-.75-1.32-1.04-3.03-2.97-3.35,.89-1.24-.14-1.24-.95-1.41-3.71-.8-7.48-1.14-11.27-1.26-11.69-.4-23.31,.6-34.93,1.64-10.71,.96-21.4,2.49-32.2,1.82-3.93-.24-7.85-.66-11.56-2.08-5.18-1.99-6.8-4.87-5.76-10.22,1.76-9.04,6.23-16.4,14.43-21.23,10.16-5.99,20.27-12.06,29.62-19.24l.5,.53c1.07,7.82,2.16,15.64,11.94,18.29-2.23,1.73-4.33,3.43-6.5,5.05-8.77,6.54-15.4,15.29-23.96,22.04-.32,.25-.83,.55-.37,1.03,.42,.44,.82,.05,1.16-.2,2.38-1.74,4.59-3.68,6.62-5.8,6.26-6.5,12.71-12.79,19.95-18.28,.71-.54,1.43-1.01,2.31-1.24,15.48-4.09,30.99-8,46.99-9.73,8.04-.87,16.04-2.11,23.73-4.69,.76-.25,1.91-.17,1.82-1.47l.73-.55c.19,.29,.45,.56,.57,.88,3.63,9.52,8.24,18.59,13.32,27.44,1.43,2.49,2.16,2.53,3.89,.21,1.35-1.81,2.57-3.72,3.91-5.54,.98-1.33,2.09-2.36,4.07-2.07,1.93,.28,2.15,1.78,2.7,3.07,.92,2.13,1.71,4.32,2.69,6.43,1.61,3.45,2.69,7.01,3.12,10.78,.32,2.8,.77,5.6,1.15,8.39,1.78,13.22,3.57,26.44,2.5,39.84-.45,5.63-1.14,11.26-1.35,16.9-.62,16.22-4.04,31.85-9.79,47.04-1.3,3.43-2,3.84-5.8,3.44-7.37-.78-14.41-2.8-21.17-5.69-7.52-3.21-13.9-7.99-19.53-13.79-1.9-1.95-2.67-3.95-1.56-6.65,1.44-3.49,2.53-7.11,3.81-10.66,3.4-9.43,4.48-18.93,1.95-28.81-3.48-13.57-8.64-26.63-12.56-40.06-.17-.6-.39-1.13-1.21-.8Z"/><path class="d" d="M269.98,356.27c-5.27,2.24-10.92,3.18-16.46,4.42-6.62,1.49-13.34,2.49-20.1,3.28-5.53,.65-11.06,.73-16.61,.81-9.67,.14-19.15-1.29-28.64-2.79-8.05-1.28-15.82-3.62-23.72-5.48,.5-6.27,1.59-12.45,2.96-18.58,.91-4.06,1.89-8.12,3.44-12.02,.32,.1,.5,.1,.58,.19,9.94,10.9,22.63,16.84,37.08,19.64,2.41,.47,4.83,.8,7.3,.67,1.97-.1,3.26-.91,3.99-2.84,2.45-6.38,4.43-12.9,6.17-19.5,.18-.69,.43-1.37,.7-2.21,.72,.72,.57,1.33,.65,1.88,.86,6.32,1.7,12.64,3.37,18.82,.99,3.67,1.5,4.02,5.28,3.28,5.9-1.15,11.27-3.59,16.41-6.56,4.6-2.66,8.7-5.96,12.61-9.92,2.47,9.03,4.13,17.89,4.99,26.89Z"/><path d="M239.67,189.63c.37-.27,.74-.45,1.23-.23,4.7,2.11,9.79,2.9,14.72,4.21,4.3,1.15,8.6,2.33,12.52,4.48,1.09,.6,1.49,.44,1.82-.74,.53-1.88,0-3.54-1.14-4.9-2.71-3.25-2.28-6.41-.37-9.85,2.47-4.45,1.91-8.75-1.17-12.82-2.09-2.76-4.73-5.01-7.13-7.47-4.23-4.32-5.69-9.56-5.89-15.28-.09-2.68,.1-5.36,.02-8.04-.38-13.35-10.12-26.79-22.87-31.65-3.83-1.46-7.74-1.94-11.8-1.08-.69,.15-1.64,.75-2-.52,6.37-2.23,12.4-.94,17.96,2.22,12.8,7.29,19.45,18.29,19.97,32.76,.13,3.54-.35,7.09,.29,10.62,.69,3.82,2.29,7.15,5.01,9.99,2.23,2.33,4.67,4.46,6.75,6.93,4.01,4.76,4.79,9.87,1.72,15.31-1.6,2.83-1.81,5.35,.39,8,1.63,1.96,2.03,4.32,1.19,6.77-.23,.67-.3,1.11,.32,1.71,8.5,8.12,14.75,17.92,21.23,27.53,2.45,3.63,4.53,7.47,6.77,11.22,3.44,5.76,3.11,11.53,.26,17.25-6.89,13.83-16.33,25.99-26.26,37.82-.23,.28-.49,.65-.81,.73-3.18,.81-3.42,3.5-3.92,5.93-.55,2.67-1,5.36-1.91,7.93-.31,.87-.77,1.82-1.45,2.41-1.92,1.63-1.67,3.3-.81,5.37,.94,2.27,1.51,4.69,2.1,7.08,.37,1.47,.63,2.99-.21,4.45-.45,.79,.02,1.56,.21,2.31,2.07,8.09,3.61,16.27,4.59,24.56,.18,1.56,.17,1.56-.99,1.66-.86-9-2.52-17.85-4.99-26.89-3.91,3.96-8.01,7.25-12.61,9.92-5.13,2.97-10.51,5.41-16.41,6.56-3.78,.74-4.29,.39-5.28-3.28-1.66-6.18-2.51-12.5-3.37-18.82-.07-.55,.07-1.16-.65-1.88-.27,.84-.51,1.51-.7,2.21-1.74,6.59-3.73,13.11-6.17,19.5-.74,1.92-2.03,2.73-3.99,2.84-2.47,.13-4.89-.21-7.3-.67-14.45-2.79-27.15-8.74-37.08-19.64-.08-.09-.26-.09-.58-.19-1.55,3.9-2.53,7.95-3.44,12.02-1.37,6.13-2.46,12.31-2.96,18.58-1.75-.04-.98-1.4-.91-2.03,.85-7.54,2.14-15.01,4.17-22.35,.46-1.68,1-3.33,1.48-5,.43-1.48,1.26-2.86,.3-4.54-.54-.94,.18-2.11,.5-3.14,1.84-6.03,4.33-11.85,5.98-17.95,2.32-8.57,1.19-16.92-1.13-25.28-3.12-11.25-7.24-22.19-10.7-33.34-.4-1.3-.98-2.58-.98-3.98,.82-.33,1.04,.21,1.21,.8,3.92,13.43,9.08,26.49,12.56,40.06,2.53,9.88,1.45,19.38-1.95,28.81-1.28,3.55-2.37,7.17-3.81,10.66-1.11,2.7-.34,4.69,1.56,6.65,5.63,5.79,12.01,10.58,19.53,13.79,6.76,2.88,13.8,4.91,21.17,5.69,3.8,.4,4.5,0,5.8-3.44,5.75-15.19,9.16-30.82,9.79-47.04,.22-5.64,.9-11.26,1.35-16.9,1.07-13.39-.71-26.61-2.5-39.84-.38-2.8-.83-5.59-1.15-8.39-.43-3.77-1.51-7.33-3.12-10.78-.98-2.1-1.77-4.3-2.69-6.43-.56-1.29-.78-2.78-2.7-3.07-1.97-.29-3.09,.74-4.07,2.07-1.34,1.82-2.56,3.73-3.91,5.54-1.73,2.32-2.46,2.28-3.89-.21-5.08-8.85-9.69-17.92-13.32-27.44-.12-.32-.38-.58-.57-.88,.76-1.41,1.94-2.49,2.99-3.69,2.2-2.48,4.22-5.07,3.3-8.72-.64-2.52-1.18-5.07-1.77-7.6,1.38,.25,1.49,1.53,1.72,2.42,1.02,3.81,1.92,7.7,1.46,11.66-.37,3.21,.86,5.66,2.75,8.1,4.32,5.57,9.48,10.34,14.62,15.14,2.23,2.08,3.88,4.47,4.87,7.38,.98,2.87,2.33,5.63,3.61,8.64,1.29-2.41,1.52-4.78,1.68-7.13,.25-3.53,1.33-6.65,3.71-9.39,2.02-2.32,2.64-5.13,2.13-8.15-.26-1.55-.58-3.1-.87-4.65,1.16-.21,1.11,.75,1.3,1.36,1.44,4.69,1.19,9.13-2.67,13.34,2.74-.04,4.17,1.28,5.39,2.99,1.17,1.65,2.4,3.29,4.3,4.89-.25-8.75-1.44-16.81-4.2-24.6-.29-.8-.39-1.54-.26-2.34,.37,.32,.74,.63,1.1,.95,0,.29-.1,.62,0,.86,3.22,7.84,4.09,16.09,4.43,24.42,.03,.69,.28,1.58-.55,1.96-.97,.44-1.52-.43-2-.99-1.64-1.87-3.26-3.76-4.74-5.75-1.13-1.52-2.71-1-4.08-.98-1.24,.02-.9,1.43-1.24,2.22-.25,.59-.26,1.27-.35,1.92-.44,3.08-.59,6.22-1.67,9.17-.38,1.04-.59,2.02-.41,3.08,.33,2,.72,3.99,1,6,1.72,12.41,3.66,24.81,3.77,37.37,.12,12.34-1.94,24.55-2.43,36.85-.18,4.56-1.85,8.98-1.44,13.58,.64,7.15,1.64,14.25,3.29,21.25,1.51,6.37,.56,5.8,7.05,4.02,10.08-2.76,18.66-8.07,25.81-15.56,.99-1.03,1.75-2.13,1.48-3.68-.63-3.64-1.73-7.13-3.24-10.78-1.68,1.61-3.19,3.12-5.2,3.95-1.16,.48-2.48,1.23-3.47,.02-1.06-1.3,.17-2.25,1-3.15,1.93-2.09,4.23-3.88,5.31-6.62,.27-.22,.43-.47,.22-.82l-.59,.44c-3.12,2.67-5.77,6.39-9.73,7.41-3.5,.9-4.77,3.32-6.74,5.44-.3,.32-.53,.71-.85,1-.34,.3-.61,1.01-1.22,.55-.65-.49,0-.88,.28-1.23,.45-.57,.98-1.09,1.43-1.67,7.37-9.44,12.88-19.93,17.98-30.63,6.86-14.41,10.21-29.21,5.87-45.1-1.77-6.47-1.66-13.21-.51-19.85,.11-.64-.06-1.84,.85-1.72,1.11,.14,.34,1.16,.25,1.76-.71,4.39-.91,8.79-.49,13.21,.09,.96-.04,2.01,.88,2.81,3,2.61,5.52,5.66,8.16,8.6,.45,.5,1.31,.84,.98,1.77-1.2,.38-1.49-.7-2.03-1.28-2.32-2.47-4.6-4.98-6.89-7.47,.79,7.89,2.87,15.42,1.8,23.28,2.83-4.14,4.42-8.78,7.22-12.77,1.09,.33,.58,.95,.28,1.52-2.58,4.89-5.16,9.77-7.74,14.66-.37,.7-.78,1.37-.96,2.18-1.18,5.24-3,10.29-5.02,15.27-1.31,3.22-1.21,3.8,1.42,6.12,1,.88,2.11,1.57,3.37,2.06,1.71,.66,3.14,.45,4.37-1.01,9.23-10.9,17.7-22.3,24.69-34.71,3.99-7.08,4.34-13.83-.2-21.04-6.65-10.55-13.59-20.87-21.31-30.71-4.06-5.18-9.17-8.54-15.53-10.25-5.36-1.44-10.74-2.82-16.08-4.32-1.59-.45-3.37-.66-4.44-2.18Zm-42-5.32c-.68,.72-1.15,1.4-1.79,1.85-2,1.4-1.92,2.97-1.02,5.04,3.14,7.19,6.46,14.28,10.27,21.16,.94,1.71,1.76,4.68,3.07,4.69,1.74,.02,2.54-2.79,3.71-4.4,1.53-2.11,2.79-4.51,6.42-4.45-7.76-7.5-15.85-14.21-20.66-23.9Zm56.36,132.95c.71,.4,1.16,.43,1.57,.24,4.58-2.03,7.87-5.43,9.94-9.78,1.75-3.67,1.4-7.96,3.13-11.69,.22-.47,.19-.83-.39-1-2.86-.82-4.89-2.76-6.68-5.05-2.8,5.38-5.5,10.55-8.19,15.72l.55,.33c.94-1.18,1.83-2.39,2.82-3.52,.41-.47,.63-1.74,1.5-1.08,.76,.57-.3,1.26-.68,1.78-2.38,3.24-4.94,6.34-7.97,9.03-.8,.71-1.51,1.47-1.8,2.73,1.47-.1,2.43-.78,3.33-1.48,2.08-1.63,4.1-3.33,6.13-5.03,.84-.71,1.61-1.5,2.47-2.18,.5-.4,1.11-.96,1.77-.45,.63,.48,.31,1.24,.07,1.82-.74,1.83-1.74,3.51-3.13,4.96-1.45,1.52-2.91,3.03-4.46,4.65Zm-.32-11.06l-.21-.39-.57,.32c.06,.11,.15,.31,.19,.3,.2-.05,.39-.15,.59-.23Z"/><path d="M209.31,106.76l1.42,.38c-3.1,.53-5.69,.98-8.11,2.04-6.1,2.67-10.25,7.32-13.53,12.78-4.78,7.98-7.04,16.68-7.28,25.89-.07,2.53,.15,2.47,2.66,2.01,2.66-.48,3.48-1.65,3.79-4.39,1.36-12.1,11.91-20.59,23.21-19.89,1.18,.07,2.17,.12,2.99-1.2,3.03-4.88,6.31-5.9,12.25-4.41-.52,1.07-1.43,.51-2.15,.42-4-.48-6.86,1.14-9.03,4.31-.67,.98-.47,1.3,.62,1.58,13.3,3.32,20.72,18.51,14.86,31.67-.45,1.02-.43,1.81,.06,2.83,1,2.06,.48,3.79-1.22,4.6,.14-1.52,1.53-3.11-.24-4.52-.2,.24-.35,.4-.47,.58-7.59,11.17-22.01,12.74-31.41,5.98-.28-.2-.68-.95-1.2-.19l.08,.06c.68-.63-.12-.83-.4-1.06-2.35-2.01-4.22-4.36-5.66-7.07-.8-1.5-1.77-1.52-3.2-.13-3.2-.1-4,.4-3.7,2.4,.8,5.34,.28,10.53-1.65,15.59-.59,1.56-1.11,3.16-1.47,4.78-.58,2.61-.41,5.16,.83,7.62,.72,1.44,1.53,2.01,3.31,1.53,2.35-.63,4.58-1.69,7.05-1.88,.09,1.3-1.06,1.22-1.82,1.47-7.7,2.59-15.69,3.82-23.73,4.69-16,1.73-31.51,5.64-46.99,9.73-.88,.23-1.6,.7-2.31,1.24-7.24,5.48-13.69,11.78-19.95,18.28-2.04,2.11-4.24,4.05-6.62,5.8-.33,.24-.74,.64-1.16,.2-.46-.49,.05-.78,.37-1.03,8.57-6.75,15.2-15.5,23.96-22.04,2.17-1.62,4.27-3.32,6.5-5.05-9.77-2.66-10.87-10.47-11.94-18.29,.06-.38,.31-.94-.5-.53-9.35,7.18-19.45,13.25-29.62,19.24-8.19,4.83-12.66,12.19-14.43,21.23-1.04,5.35,.58,8.23,5.76,10.22,3.71,1.43,7.62,1.84,11.56,2.08,10.81,.67,21.49-.86,32.2-1.82,11.62-1.04,23.24-2.04,34.93-1.64,3.79,.13,7.56,.47,11.27,1.26,.81,.17,1.84,.17,.95,1.41-3.57-1.13-7.28-1.35-10.97-1.52-13.03-.62-25.97,.61-38.91,1.85-11.31,1.08-22.6,2.48-33.99,1.15-3.33-.39-6.59-1.07-9.58-2.66-3.08-1.63-4.84-4.1-4.55-7.58,.85-10.35,5.43-18.63,14.42-24.47,6.79-4.41,14.16-7.93,20.68-12.76,3.13-2.32,6.28-4.62,9.47-6.86,1.17-.82,2.25-1.84,3.96-1.7,.82,.07,1.32-.86,1.85-1.45,2.39-2.69,3.7-5.89,4.64-9.28,1.35-4.87,3.37-9.34,6.83-13.25,2.87-3.24,6.34-4.02,10.37-3.71,.64,.05,1.18,.19,1.77-.44,2.34-2.5,4.28-2.87,7.47-1.3,1.38,.68,2.17,.8,3.19-.6,2.5-3.44,6.12-2.75,9.52-1.85,1.59,.42,2.8,.5,4.31-.31,3.32-1.77,5.25-1.27,7.51,2.44,1.4,2.3,2.76,2.64,5.1,1.74,1.85-.71,3.82-1.21,5.77-1.6,1.47-.3,1.8-.96,1.78-2.37-.21-11.5,3.03-22.02,9.83-31.42,3.64-5.04,8.37-8.77,14.57-10.51,1.37-.38,2.7-.63,4.11-.3Zm-60.35,61.17c4.23-1.17,8.59-1.79,12.22-4.72,2.55-2.06,5.73-3.09,9.11-1.29,.65,.34,1.3-.15,1.92-.31,4.28-1.13,8.55-2.28,12.82-3.46,1.35-.37,3.08-.46,3.9-1.34,1.01-1.09-.55-2.61-.51-4.01,0-.07-.02-.14-.03-.21q-.45-2.54-3.11-1.8c-5.63,1.55-11.25,3.17-16.91,4.61-2.17,.55-3.92,1.54-5.48,3.06-1.78,1.74-3.57,3.49-5.76,4.75-2.58,1.48-4.68,1.12-6.42-1.08-1.11,1.7-1.58,3.58-2.12,5.45l.05,.49,.34-.14Zm21.25-4.51c-1.55-1.54-3.38-1.54-5.3-.88-2.88,.99-5.2,2.74-7.09,5.06-2.48,3.02-5.59,5.19-9.4,6.29-4.33,1.25-8.87,1.87-12.78,4.32-.3,.19-.76,.37-1,0-.35-.52,.16-.76,.52-.98,1.58-.96,3.25-1.75,5.04-2.26,2.99-.85,6.03-1.56,8.98-2.53,2.88-.94,5.28-2.62,7.01-5.18-3.34,1.38-7.37,.88-10.08,3.91-.85,.95-2.39,1.06-3.57,.5-1.25-.6-1.62-.05-2.22,.82-1.67,2.41-3.58,2.7-5.73,.83-.61-.53-1.01-.49-1.71-.38-2.97,.47-4.09-.24-5.54-2.83-1.8-3.22-1.5-6.57-.87-9.95,.13-.73-.28-2.17,.91-2,.94,.13,.23,1.39,.11,2.08-.7,4.2-.83,8.21,2.5,11.62,.64,.66,1.21,1.27,1.95,.81,.77-.48,1.55-1.16,.86-2.45-.83-1.56-.82-3.34-.62-5.11,.38-3.19,1.37-6.22,2.45-9.23,.17-.46,.81-1,.01-1.48-.82-.49-6.4,.02-7.11,.69-3.51,3.29-6.55,6.89-8.04,11.52-.73,2.28-1.43,4.57-2.21,6.83-1.13,3.27-2.79,6.22-5.76,8.27-2.03,1.4-2.81,3.16-2.01,5.54,.34,1.03,.42,2.14,.73,3.17,1.06,3.52,2.56,6.8,5.65,9.14,1.03,.78,1.85,1.06,3.07,.01,4.06-3.5,8.77-5.86,14.02-7.3,4.56-1.25,9.33-2.31,13.19-5.08,5.86-4.2,11.41-8.85,16.01-14.39,2.43-2.93,4.82-5.86,7.6-8.48,1.64,.17,.6,.92,.24,1.33-1.73,1.97-3.68,3.74-5.37,5.78-8.52,10.27-18.01,19.24-31.97,22.09-3.21,.66-6.14,2.14-8.89,3.89-.52,.33-1.35,.55-1.19,1.39,.29,1.59-.53,2.84-1.78,4.71,20.13-6.11,40.24-8.88,60.79-11.55-2.63-3.75-3.1-7.37-2.06-11.17,.52-1.88,1.17-3.73,1.84-5.56,1.65-4.55,1.76-9.21,1.17-13.93-.09-.7-.14-1.45-1.33-1.09-3.65,1.1-7.33,2.12-11,3.16Zm61.69-15.33c.03-1.46-.21-3.32-.67-5.16-2.47-9.77-12.23-17.04-21.66-16.37-10.77,.78-20.41,9.43-20.44,21.99-.02,9.32,5.78,17.53,14.32,20.61,13.83,4.99,28.46-5.62,28.46-21.07Zm-74.67,2.47c-5.71-2.16-8.25-1.37-11.44,3.57-1.23,1.9-2.26,3.89-3.26,5.91-1.43,2.86-1.36,5.81-.83,8.8,.34,1.97,1.8,2.56,3.61,1.6,1.07-.56,1.64-1.48,1.91-2.55,1.68-6.63,5.92-11.83,10.01-17.33Zm-24.14,16.03c-.04,1.42,.42,2.7,.97,3.98,.63,1.47,1.43,2.91,3.21,2.81,1.82-.1,2.41-1.72,2.92-3.19,.16-.47,.31-1.02,.24-1.49-.77-5.26,1.12-9.83,3.8-14.2,.23-.38,.75-.69,.22-1.31-1.81-2.1-6.24-1.88-7.53,.55-2.15,4.02-3.39,8.33-3.82,12.84Zm20.87-3.56c1.34-.02,2.35-.49,3.21-1.19,1.98-1.63,3.88-3.35,5.84-5.01,1.31-1.11,2.45-2.55,4.53-2.32,.29,.03,1.1,.04,1-.8-.4-3.13-4.75-5.4-7.61-3.92-4.56,2.35-6.88,6.41-8.61,10.89-.63,1.63,.22,2.28,1.65,2.34Z"/><path d="M151.32,108.97c.57,.06,.75,.5,1.02,.83,4.76,6,9.51,12,14.25,18.01,.28,.36,.91,.81,.33,1.27-.57,.46-.91-.2-1.21-.57-4.8-6.06-9.59-12.12-14.37-18.19-.35-.45-.84-.91-.02-1.35Z"/><path d="M176.74,127.8c-.6-.14-.76-.47-.9-.8-2.54-5.92-5.09-11.85-7.64-17.77-.19-.45-.64-1,0-1.31,.72-.33,.82,.45,.99,.85,2.57,5.91,5.12,11.84,7.66,17.76,.17,.4,.27,.81-.13,1.27Z"/><path d="M147.79,129.05c.32,.16,.59,.28,.84,.43,4.66,2.8,9.31,5.59,13.96,8.41,.4,.24,1.19,.46,.84,1.04-.43,.72-1.02,.11-1.49-.17-4.6-2.75-9.2-5.5-13.79-8.25-.42-.25-1-.45-.81-1.11,.04-.15,.31-.24,.45-.35Z"/><path class="e" d="M259.97,308.32c-1.08,2.73-3.39,4.53-5.31,6.62-.83,.9-2.07,1.86-1,3.15,.99,1.21,2.31,.46,3.47-.02,2.01-.83,3.51-2.34,5.2-3.95,1.51,3.65,2.6,7.15,3.24,10.78,.27,1.55-.5,2.64-1.48,3.68-7.14,7.49-15.73,12.8-25.81,15.56-6.49,1.77-5.55,2.35-7.05-4.02-1.65-6.99-2.65-14.1-3.29-21.25-.41-4.6,1.26-9.01,1.44-13.58,.49-12.3,2.54-24.51,2.43-36.85-.12-12.57-2.05-24.96-3.77-37.37-.28-2.01-.67-4-1-6-.17-1.06,.03-2.04,.41-3.08,1.08-2.95,1.23-6.09,1.67-9.17,.09-.64,.1-1.33,.35-1.92,.34-.79,0-2.2,1.24-2.22,1.37-.02,2.95-.54,4.08,.98,1.48,1.99,3.11,3.88,4.74,5.75,.49,.56,1.04,1.43,2,.99,.84-.38,.58-1.27,.55-1.96-.35-8.33-1.21-16.58-4.43-24.42-.1-.25,0-.57,0-.86l2.02,.47c1.07,1.51,2.86,1.73,4.44,2.18,5.34,1.51,10.72,2.88,16.08,4.32,6.36,1.71,11.47,5.07,15.53,10.25,7.72,9.84,14.66,20.16,21.31,30.71,4.55,7.21,4.19,13.96,.2,21.04-6.99,12.41-15.46,23.82-24.69,34.71-1.23,1.45-2.65,1.67-4.37,1.01-1.26-.49-2.37-1.18-3.37-2.06-2.62-2.31-2.73-2.9-1.42-6.12,2.02-4.98,3.85-10.03,5.02-15.27,.18-.8,.59-1.47,.96-2.18,2.58-4.89,5.16-9.77,7.74-14.66,.3-.57,.8-1.19-.28-1.52l-.09-1.77c.32-.93-.53-1.27-.98-1.77-2.64-2.94-5.16-5.99-8.16-8.6-.92-.8-.78-1.84-.88-2.81-.42-4.42-.22-8.82,.49-13.21,.1-.6,.86-1.62-.25-1.76-.91-.11-.74,1.08-.85,1.72-1.16,6.65-1.26,13.38,.51,19.85,4.35,15.89,1,30.69-5.87,45.1-5.1,10.7-10.61,21.19-17.98,30.63-.45,.58-.97,1.09-1.43,1.67-.29,.36-.93,.75-.28,1.23,.61,.46,.89-.25,1.22-.55,.32-.29,.55-.68,.85-1,1.96-2.11,3.24-4.54,6.74-5.44,3.96-1.02,6.61-4.74,9.73-7.41l.38,.38Zm-10.76-5.71c-.1-.19-.14-.45-.28-.53-.52-.28-.82,.13-1.09,.45-3.99,4.77-8.27,9.23-13.38,12.89-.06,.04-.11,.09-.17,.14-.27,.21-.34,.5-.17,.75,.17,.26,.51,.32,.79,.15,.5-.31,.99-.64,1.45-.99,4.5-3.45,8.41-7.48,12.03-11.78,.28-.33,.53-.69,.83-1.07Zm36.6-54.87c-1.83,.25-3.69,.6-5.31,1.69-.31,.21-.65,.47-.41,.85,.22,.34,.62,.32,.97,.1,1.51-.98,3.22-1.32,4.97-1.57,.4-.06,1.04,.05,1.03-.51,0-.74-.69-.53-1.24-.55Z"/><path class="i" d="M232.69,192.57l-1.18-.9c-.17-2.93,2.28-3.6,4.26-4.69,.12,.49,.13,1.06,.78,1.23-.13,.8-.02,1.53,.26,2.34,2.76,7.79,3.95,15.85,4.2,24.6-1.91-1.6-3.13-3.24-4.3-4.89-1.22-1.71-2.65-3.03-5.39-2.99,3.86-4.21,4.11-8.65,2.67-13.34-.19-.61-.14-1.57-1.3-1.36Z"/><path d="M235.77,186.98c-1.98,1.08-4.42,1.76-4.26,4.69-.81,2.37-.57,4.93-1.39,7.33-.89-1.64-.34-3.32-.2-4.96,.11-1.36,.99-3.01,.46-3.99-.62-1.16-2.35,.15-3.66-.03-9.46-1.29-17.57-4.95-23.62-12.39-.28-.34-.57-.67-.79-1.04-.27-.45-1.04-1-.36-1.46,.69-.47,.95,.42,1.26,.85,4.94,6.76,11.98,10.57,19.95,12.46,5.79,1.37,10.97-.39,14.5-5.58,6.02-8.85,9.5-18.36,8.45-29.15-.13-1.36,.02-2.74,.05-4.11,.75,.33,.74,1.04,.81,1.67,.67,5.94,.45,11.75-1.3,17.59-2.03,6.77-5.23,12.8-9.89,18.15Z"/><path d="M245.14,138.46c-1.28,.05-1.1-.93-1.17-1.66-.26-2.7-.64-5.38-1.54-7.96-1.53-4.4-3.83-8.01-9.33-8.02-.64,0-.95-.27-1.03-.86,3.51-.83,6.23,.56,8.48,3,2.44,2.65,3.24,6,3.86,9.38,.37,2.02,.91,4.04,.74,6.13Z"/><path d="M218.12,109.3c2.37,.13,6.89,3.37,7.47,5.34,.08,.28,.19,.58-.09,.78-.28,.2-.61,.09-.77-.16-1.6-2.54-4.2-3.94-6.61-5.58-.07-.04,0-.26,0-.4Z"/><path class="i" d="M197.66,184.31c4.81,9.69,12.9,16.4,20.66,23.9-3.63-.07-4.89,2.34-6.42,4.45-1.17,1.61-1.98,4.42-3.71,4.4-1.31-.01-2.13-2.99-3.07-4.69-3.81-6.88-7.13-13.97-10.27-21.16-.9-2.07-.98-3.64,1.02-5.04,.64-.45,1.11-1.14,1.79-1.85Z"/><path class="f" d="M253.7,306.2c-.2,.08-.39,.18-.59,.23-.04,0-.12-.2-.19-.3l.57-.32,.21,.39Z"/><path class="i" d="M259.6,307.95l.59-.44c.21,.35,.05,.6-.22,.82l-.38-.38Z"/><path class="e" d="M231.91,148.07c0,15.45-14.62,26.06-28.46,21.07-8.54-3.08-14.34-11.29-14.32-20.61,.03-12.55,9.67-21.21,20.44-21.99,9.43-.68,19.19,6.59,21.66,16.37,.47,1.84,.7,3.7,.67,5.16Zm-2.59,.14c-.22-10.74-8.62-19.02-19.14-18.86-10.42,.16-19.07,9.05-18.54,19.64,.6,11.83,9.64,18.87,19.17,18.66,10.62-.23,18.63-8.87,18.5-19.45Z"/><path class="e" d="M148.57,167.57c.53-1.87,1.01-3.76,2.12-5.45,1.74,2.21,3.84,2.56,6.42,1.08,2.19-1.26,3.98-3.01,5.76-4.75,1.56-1.52,3.31-2.51,5.48-3.06,5.66-1.44,11.28-3.06,16.91-4.61q2.67-.74,3.11,1.8c.01,.07,.03,.14,.03,.21-.04,1.4,1.52,2.92,.51,4.01-.81,.88-2.55,.97-3.9,1.34-4.27,1.18-8.54,2.33-12.82,3.46-.62,.16-1.27,.65-1.92,.31-3.38-1.79-6.56-.76-9.11,1.29-3.63,2.93-7.99,3.55-12.22,4.72l-.39-.35Z"/><path class="f" d="M187.69,159.38c-.11-.11-.21-.23-.32-.34,1.43-1.39,2.4-1.37,3.2,.13,1.43,2.71,3.31,5.06,5.66,7.07,.27,.23,1.07,.43,.4,1.06-.6-.15-1.2-.3-1.81-.46-.07-.38-.28-.69-.67-.75-3.3-.52-4.77-2.77-5.57-5.63-.14-.51-.27-.97-.89-1.08Z"/><path class="g" d="M148.96,167.92l-.34,.14c-.02-.16-.03-.33-.05-.49,.13,.12,.26,.23,.39,.35Z"/><path class="i" d="M107.55,183.55c.81-.41,.56,.15,.5,.53l-.5-.53Z"/><path d="M187.69,159.38c.62,.11,.75,.58,.89,1.08,.8,2.86,2.27,5.11,5.57,5.63,.4,.06,.6,.37,.67,.75-1.9,.87-3.35-.15-4.54-1.3-1.7-1.65-3.32-3.48-2.59-6.17Z"/><path d="M249.21,302.62c-.3,.39-.55,.74-.83,1.07-3.62,4.3-7.53,8.33-12.03,11.78-.46,.36-.95,.69-1.45,.99-.28,.17-.61,.11-.79-.15-.17-.25-.09-.55,.17-.75,.06-.04,.11-.1,.17-.14,5.11-3.66,9.4-8.12,13.38-12.89,.27-.33,.57-.74,1.09-.45,.14,.08,.18,.33,.28,.53Z"/><path d="M285.82,247.74c.55,.02,1.24-.19,1.24,.55,0,.56-.63,.46-1.03,.51-1.75,.25-3.46,.59-4.97,1.57-.34,.22-.75,.25-.97-.1-.24-.38,.1-.65,.41-.85,1.62-1.08,3.48-1.44,5.31-1.69Z"/><path d="M223.86,171.13c4.19,.03,8.03-.37,11.83-.95,1.92-.29,1.98,.36,1.54,1.82-.48,1.61-1.07,3.15-1.97,4.58-3.44,5.46-10.83,5.44-14.23-.05-.95-1.54-2.39-3.49-1.6-4.94,.72-1.32,3.12-.15,4.43-.45Zm12.35,.13c-5.08,.63-9.87,1.1-14.7,.91-.57-.02-1.12,.03-.89,.79,.81,2.66,2.17,4.93,4.93,6.07,2.59,1.08,5.43,.54,7.4-1.4,1.72-1.69,2.69-3.77,3.26-6.37Z"/><path d="M229.32,148.21c.13,10.58-7.88,19.22-18.5,19.45-9.53,.2-18.58-6.83-19.17-18.66-.53-10.59,8.12-19.48,18.54-19.64,10.52-.16,18.92,8.12,19.14,18.86Zm-1.09,.42c.04-10.8-8.87-19.07-19.54-18.18-1.47,.12-2.38,.57-2.91,2.09-1.21,3.41-2.64,6.75-4.38,9.95-1.7,3.14-3.49,6.32-6.6,8.31-1.67,1.07-1.55,2.1-1.03,3.59,2.92,8.42,11.04,13.36,19.75,11.97,8.23-1.31,14.68-9.09,14.71-17.73Zm-23.28-16.82c-.86-.28-1.31,.01-1.76,.23-6.48,3.2-9.63,8.61-10.61,15.39-.14,.98-.65,2.59,.39,2.97,1.08,.4,2-.99,2.79-1.81,4.59-4.77,6.73-10.81,9.19-16.79Z"/><path class="i" d="M236.22,171.26c-.57,2.61-1.54,4.68-3.26,6.37-1.97,1.94-4.81,2.48-7.4,1.4-2.76-1.15-4.12-3.41-4.93-6.07-.23-.76,.32-.81,.89-.79,4.83,.19,9.62-.29,14.7-.91Z"/><path d="M220.08,140.18c-.21,.52-.58,.51-1.07,.33-4.12-.55-6.94-.26-10.06,1.69-.4,.25-.86,.91-1.3,.36-.55-.68,.29-.98,.72-1.26,3.21-2.09,6.66-3.04,10.49-1.93,.81,.23,1.21,.56,1.21,.81Z"/><path d="M217.52,150.48l1.5-2.37c-.5-1.28-1.39-2.13-2.41-2.13-2.46,0-2.83,2.55-2.83,5.04,0,2.37,1.25,3.96,2.83,3.96,1.23,0,2.27-1.24,2.67-2.97l-1.75-1.53Z"/><path d="M238.98,151.25l1.12-1.77c-.38-.95-1.04-1.59-1.8-1.59-1.84,0-2.11,1.91-2.11,3.76s.94,2.95,2.11,2.95c.92,0,1.69-.93,1.99-2.21l-1.31-1.14Z"/><path d="M235.18,141.7c.13,.35,.35,.34,.63,.22,2.45-.37,4.13-.17,5.98,1.14,.24,.17,.51,.61,.77,.25,.33-.46-.17-.66-.43-.85-1.91-1.42-3.96-2.06-6.24-1.31-.48,.16-.72,.38-.72,.55Z"/></g></g><g><path class="k" d="M43.1,51.35c0-.32,.06-.53,.19-.63s.34-.16,.63-.16h16.52c.29,0,.5,.05,.63,.16,.13,.11,.19,.32,.19,.63v3.69c0,.32-.06,.53-.19,.63-.13,.11-.34,.16-.63,.16h-5.24c0,.61,.07,1.21,.22,1.78,.15,.58,.42,1.12,.82,1.61,.4,.49,.94,.93,1.61,1.31s1.54,.67,2.59,.88c.08,.02,.18,.04,.3,.06,.12,.02,.23,.07,.33,.14,.1,.07,.19,.18,.27,.32,.07,.14,.11,.33,.11,.58v3.51c0,.38-.1,.61-.3,.68-.2,.07-.37,.1-.52,.08-.74-.06-1.49-.17-2.26-.33-.77-.16-1.52-.38-2.26-.66s-1.44-.65-2.12-1.09c-.67-.44-1.27-.97-1.8-1.58-.55,.61-1.15,1.14-1.82,1.58-.66,.44-1.36,.8-2.1,1.09-.74,.28-1.49,.51-2.26,.66-.77,.16-1.52,.27-2.26,.33-.15,.02-.32,0-.52-.08-.2-.07-.3-.3-.3-.68v-3.51c0-.25,.04-.45,.11-.58,.07-.14,.16-.24,.27-.32,.11-.07,.22-.12,.33-.14,.12-.02,.22-.04,.3-.06,1.03-.21,1.88-.5,2.56-.88,.67-.38,1.21-.82,1.61-1.31,.4-.5,.68-1.03,.84-1.61s.24-1.17,.24-1.78h-5.27c-.29,0-.51-.05-.63-.16-.13-.1-.19-.32-.19-.63v-3.69Zm2.21,17.69c0-.32,.06-.53,.19-.63,.13-.1,.34-.16,.63-.16h23.28c.29,0,.5,.05,.63,.16,.13,.11,.19,.32,.19,.63v10.74c0,.32-.06,.53-.19,.63-.13,.11-.34,.16-.63,.16h-4.42c-.29,0-.51-.05-.63-.16s-.19-.32-.19-.63v-6.29h-18.03c-.3,0-.51-.05-.63-.16-.13-.11-.19-.32-.19-.63v-3.66Zm19.68-2.24c-.29,0-.51-.05-.63-.16-.13-.1-.19-.32-.19-.63v-14.65c0-.32,.06-.53,.19-.63s.34-.16,.63-.16h4.42c.29,0,.5,.05,.63,.16,.13,.11,.19,.32,.19,.63v14.65c0,.32-.06,.53-.19,.63-.13,.11-.34,.16-.63,.16h-4.42Z"/><path class="k" d="M72.79,51.35c0-.32,.06-.53,.19-.63,.13-.11,.34-.16,.63-.16h16.52c.29,0,.51,.05,.63,.16s.19,.32,.19,.63v3.54s.09,0,.14-.02,.12-.02,.21-.02h3.19v-3.5c0-.32,.06-.53,.19-.63s.34-.16,.63-.16h4.42c.29,0,.5,.05,.63,.16,.13,.11,.19,.32,.19,.63v13.9c0,.32-.06,.53-.19,.63-.13,.11-.34,.16-.63,.16h-4.42c-.29,0-.51-.05-.63-.16-.13-.1-.19-.32-.19-.63v-5.15h-3.19c-.3,0-.51-.05-.63-.16-.13-.1-.19-.32-.19-.63v-3.5c-.06,.02-.18,.03-.35,.03h-5.21c.06,.53,.19,1.04,.39,1.53,.2,.5,.5,.95,.9,1.37,.4,.42,.92,.79,1.56,1.12,.64,.33,1.43,.58,2.35,.77,.08,.02,.18,.04,.3,.06,.12,.02,.23,.07,.33,.14,.11,.07,.19,.18,.27,.32,.07,.14,.11,.33,.11,.58v3.5c0,.38-.1,.61-.3,.68-.2,.07-.37,.1-.52,.08-.74-.06-1.49-.17-2.26-.33-.77-.16-1.52-.38-2.26-.66s-1.44-.65-2.12-1.09c-.67-.44-1.27-.97-1.8-1.58-.55,.61-1.15,1.14-1.82,1.58-.66,.44-1.36,.81-2.1,1.09-.74,.28-1.49,.5-2.26,.66-.77,.16-1.52,.27-2.26,.33-.15,.02-.32,0-.52-.08-.2-.07-.3-.3-.3-.68v-3.5c0-.25,.04-.45,.11-.58,.07-.14,.16-.24,.27-.32,.1-.07,.21-.12,.33-.14,.12-.02,.22-.04,.3-.06,.93-.19,1.71-.45,2.35-.77,.64-.33,1.16-.7,1.56-1.12,.4-.42,.69-.88,.88-1.37,.19-.49,.32-1,.38-1.53h-5.21c-.29,0-.5-.05-.63-.16-.13-.1-.19-.32-.19-.63v-3.69Zm27.76,25.46c0,1.33-.28,2.28-.85,2.87-.57,.59-1.42,.88-2.56,.88h-18.1c-1.14,0-1.99-.3-2.56-.88-.57-.59-.85-1.55-.85-2.87v-8.72c0-.32,.06-.53,.19-.63,.13-.1,.34-.16,.63-.16h4.42c.29,0,.51,.05,.63,.16,.13,.11,.19,.32,.19,.63v1.2h12.79v-1.2c0-.32,.06-.53,.19-.63,.13-.1,.34-.16,.63-.16h4.42c.29,0,.5,.05,.63,.16,.13,.11,.19,.32,.19,.63v8.72Zm-6.98-.88c.36,0,.6-.07,.73-.21s.19-.41,.19-.8v-1.14h-12.79v1.14c0,.4,.06,.67,.19,.8,.13,.14,.37,.21,.73,.21h10.96Z"/><path class="k" d="M137.25,66.38c0,1.33-.28,2.28-.85,2.87s-1.42,.88-2.56,.88h-5.69v4.2h10.3c.29,0,.51,.05,.63,.16,.13,.11,.19,.32,.19,.63v3.7c0,.32-.06,.53-.19,.63-.13,.1-.34,.16-.63,.16h-26.66c-.29,0-.5-.05-.63-.16-.13-.11-.19-.32-.19-.63v-3.7c0-.32,.06-.53,.19-.63,.13-.1,.34-.16,.63-.16h10.3v-4.2h-5.72c-1.14,0-1.99-.29-2.56-.88s-.85-1.55-.85-2.87v-15.03c0-.32,.06-.53,.19-.63,.13-.11,.34-.16,.63-.16h4.11c.29,0,.5,.05,.63,.16,.13,.11,.19,.32,.19,.63v4.52h12.79v-4.52c0-.32,.06-.53,.19-.63,.13-.11,.34-.16,.63-.16h4.11c.29,0,.5,.05,.63,.16,.13,.11,.19,.32,.19,.63v15.03Zm-6.66-1.2c.36,0,.6-.07,.73-.21,.13-.14,.19-.41,.19-.81v-3.35h-12.79v3.35c0,.4,.06,.67,.19,.81,.13,.14,.37,.21,.73,.21h10.96Z"/><path class="k" d="M139.71,65.87c0-.32,.06-.53,.19-.63,.13-.1,.34-.16,.63-.16h26.66c.29,0,.51,.05,.63,.16,.13,.11,.19,.32,.19,.63v3.7c0,.32-.06,.53-.19,.63-.13,.11-.34,.16-.63,.16h-19.3v2.78c0,.76,.16,1.32,.47,1.67,.32,.36,.9,.53,1.74,.5,1.14-.02,2.35-.06,3.63-.11,1.28-.05,2.59-.12,3.93-.19,1.34-.07,2.67-.17,4-.28,1.33-.12,2.61-.24,3.85-.36,.29-.04,.5,0,.6,.13,.1,.13,.18,.35,.22,.66l.32,3.66c.04,.32-.01,.52-.16,.6s-.37,.15-.66,.19c-1.45,.15-2.97,.28-4.56,.4-1.59,.12-3.18,.21-4.77,.3-1.59,.08-3.15,.15-4.69,.19-1.54,.04-2.98,.06-4.33,.06-2.02,0-3.47-.54-4.34-1.63-.87-1.08-1.31-2.82-1.31-5.2v-3.38h-1.29c-.29,0-.5-.05-.63-.16-.13-.11-.19-.32-.19-.63v-3.7Zm26.37-4.64c.04,.32-.01,.52-.16,.6-.15,.08-.37,.15-.66,.19-1.45,.15-2.95,.27-4.5,.38s-3.08,.19-4.61,.27c-1.53,.07-3.04,.13-4.53,.16-1.5,.03-2.92,.05-4.26,.05-2.02,0-3.47-.54-4.34-1.63-.87-1.08-1.31-2.82-1.31-5.2v-4.71c0-.32,.06-.53,.19-.63,.13-.11,.34-.16,.63-.16h4.42c.29,0,.51,.05,.63,.16s.19,.32,.19,.63v4.11c0,.76,.16,1.32,.47,1.67,.32,.36,.89,.53,1.74,.5,2.29-.04,4.74-.13,7.34-.25,2.6-.13,5.14-.33,7.63-.6,.29-.04,.5,0,.6,.13,.1,.13,.18,.35,.22,.66l.32,3.66Z"/><path class="k" d="M168.83,51.35c0-.32,.06-.53,.19-.63,.13-.11,.34-.16,.63-.16h8.05c.8,0,1.48,.09,2.05,.28s1.04,.5,1.41,.93c.37,.43,.63,.99,.79,1.67,.16,.68,.23,1.52,.21,2.51-.02,.78-.05,1.62-.09,2.51-.04,.9-.12,1.84-.22,2.83h2.24v-9.95c0-.32,.06-.53,.19-.63,.13-.11,.34-.16,.63-.16h3.95c.29,0,.51,.05,.63,.16s.19,.32,.19,.63v27.79c0,.32-.06,.53-.19,.63s-.34,.16-.63,.16h-3.95c-.3,0-.51-.05-.63-.16-.13-.11-.19-.32-.19-.63v-12.6h-2.78c-.25,1.98-.55,3.98-.88,6s-.71,3.96-1.11,5.81c-.06,.32-.14,.54-.24,.68s-.29,.17-.58,.11l-4.07-.85c-.3-.06-.53-.15-.7-.25-.17-.11-.19-.41-.06-.92,.4-1.6,.76-3.29,1.09-5.07s.61-3.53,.85-5.26c.24-1.73,.43-3.37,.57-4.94s.21-2.94,.21-4.12c0-.8-.12-1.32-.35-1.55-.23-.23-.62-.35-1.17-.35h-5.21c-.29,0-.5-.05-.63-.16-.13-.1-.19-.32-.19-.63v-3.69Zm22.9,28.58c-.29,0-.5-.05-.63-.16-.13-.11-.19-.32-.19-.63v-27.79c0-.32,.06-.53,.19-.63,.13-.11,.34-.16,.63-.16h3.95c.29,0,.5,.05,.63,.16,.13,.11,.19,.32,.19,.63v27.79c0,.32-.06,.53-.19,.63-.13,.11-.34,.16-.63,.16h-3.95Z"/><path class="k" d="M206.06,51.35c0-.32,.06-.53,.19-.63,.13-.11,.34-.16,.63-.16h16.52c.29,0,.51,.05,.63,.16s.19,.32,.19,.63v3.54c0,.32-.06,.53-.19,.63s-.34,.16-.63,.16h-5.24v.13c0,.61,.07,1.21,.22,1.78s.42,1.12,.82,1.61c.4,.5,.94,.94,1.61,1.33s1.54,.69,2.59,.9c.08,.02,.18,.04,.3,.06,.12,.02,.23,.07,.33,.14,.11,.07,.19,.18,.27,.32,.07,.14,.11,.33,.11,.58v3.51c0,.38-.1,.61-.3,.68-.2,.07-.37,.1-.52,.08-.74-.06-1.49-.17-2.26-.33-.77-.16-1.52-.38-2.26-.66s-1.44-.65-2.12-1.09c-.67-.44-1.27-.97-1.8-1.58-.55,.61-1.15,1.14-1.82,1.58-.66,.44-1.36,.8-2.1,1.09-.74,.28-1.49,.51-2.26,.66-.77,.16-1.52,.27-2.26,.33-.15,.02-.32,0-.52-.08-.2-.07-.3-.3-.3-.68v-3.51c0-.25,.04-.45,.11-.58,.07-.14,.16-.24,.27-.32,.1-.07,.21-.12,.33-.14,.12-.02,.22-.04,.3-.06,1.05-.21,1.92-.51,2.59-.9s1.21-.83,1.61-1.33c.4-.49,.67-1.03,.82-1.61s.22-1.17,.22-1.78v-.13h-5.27c-.29,0-.5-.05-.63-.16-.13-.11-.19-.32-.19-.63v-3.54Zm16.87,30.22c-1.83,0-3.4-.18-4.69-.54-1.29-.36-2.35-.85-3.16-1.48s-1.4-1.36-1.77-2.2c-.37-.83-.55-1.72-.55-2.67s.19-1.84,.57-2.67c.38-.83,.98-1.56,1.8-2.18s1.87-1.11,3.16-1.47c1.28-.36,2.83-.54,4.64-.54s3.36,.18,4.64,.54c1.28,.36,2.34,.85,3.16,1.47s1.42,1.35,1.8,2.18c.38,.83,.57,1.72,.57,2.67s-.18,1.84-.55,2.67c-.37,.83-.96,1.56-1.77,2.2-.81,.63-1.86,1.13-3.16,1.48-1.29,.36-2.86,.54-4.69,.54Zm0-4.96c.55,0,1.07-.03,1.58-.09s.95-.17,1.34-.32c.39-.15,.7-.35,.93-.6,.23-.25,.35-.57,.35-.95s-.12-.69-.35-.93c-.23-.24-.54-.44-.93-.6-.39-.16-.84-.27-1.34-.33s-1.03-.09-1.58-.09-1.07,.03-1.58,.09c-.51,.06-.95,.17-1.34,.33-.39,.16-.7,.36-.93,.6s-.35,.55-.35,.93,.12,.69,.35,.95,.54,.45,.93,.6c.39,.15,.84,.25,1.34,.32,.5,.06,1.03,.09,1.58,.09Zm5.65-9.51c-.29,0-.51-.05-.63-.16s-.19-.32-.19-.63v-5.05h-2.87c-.29,0-.5-.05-.63-.16-.13-.11-.19-.32-.19-.63v-3.66c0-.32,.06-.53,.19-.63,.13-.11,.34-.16,.63-.16h2.87v-4.67c0-.32,.06-.53,.19-.63s.34-.16,.63-.16h4.42c.29,0,.5,.05,.63,.16,.13,.11,.19,.32,.19,.63v14.97c0,.32-.06,.53-.19,.63-.13,.11-.34,.16-.63,.16h-4.42Z"/><path class="k" d="M236.67,66.76c0-.32,.06-.53,.19-.63,.13-.11,.34-.16,.63-.16h5.78v-1.14c-1.85-.23-3.19-.71-4.01-1.42s-1.23-1.65-1.23-2.81c0-1.41,.65-2.49,1.94-3.24,1.29-.75,3.37-1.12,6.24-1.12s4.94,.37,6.24,1.12c1.29,.75,1.94,1.83,1.94,3.24,0,1.14-.4,2.06-1.2,2.76-.8,.71-2.08,1.18-3.85,1.44v1.17h5.94c.29,0,.5,.05,.63,.16,.13,.11,.19,.32,.19,.63v2.75c0,.32-.06,.53-.19,.63-.13,.11-.34,.16-.63,.16h-17.78c-.29,0-.5-.05-.63-.16-.13-.1-.19-.32-.19-.63v-2.75Zm.41-14.53c0-.32,.06-.53,.19-.63,.13-.1,.34-.16,.63-.16h5.37v-.88c0-.32,.06-.53,.19-.63,.13-.1,.34-.16,.63-.16h4.42c.29,0,.5,.05,.63,.16,.13,.11,.19,.32,.19,.63v.88h5.18c.29,0,.5,.05,.63,.16,.13,.11,.19,.32,.19,.63v2.5c0,.32-.06,.53-.19,.63-.13,.11-.34,.16-.63,.16h-16.61c-.29,0-.5-.05-.63-.16-.13-.11-.19-.32-.19-.63v-2.5Zm1.71,20.43c0-.32,.06-.53,.19-.63s.34-.16,.63-.16h23.02c.29,0,.51,.05,.63,.16s.19,.32,.19,.63v7.08c0,.32-.06,.53-.19,.63-.13,.1-.34,.16-.63,.16h-4.42c-.29,0-.5-.05-.63-.16-.13-.11-.19-.32-.19-.63v-3.57h-17.78c-.29,0-.51-.05-.63-.16-.13-.11-.19-.32-.19-.63v-2.72Zm7.42-11.15c1.54,0,2.31-.3,2.31-.92s-.77-.95-2.31-.95-2.31,.32-2.31,.95,.77,.92,2.31,.92Zm20.94,.95c0,.32-.06,.53-.19,.63-.13,.11-.34,.16-.63,.16h-2.91v6.54c0,.32-.06,.53-.19,.63-.13,.11-.34,.16-.63,.16h-4.42c-.29,0-.5-.05-.63-.16-.13-.1-.19-.32-.19-.63v-18.44c0-.32,.06-.53,.19-.63,.13-.11,.34-.16,.63-.16h4.42c.29,0,.5,.05,.63,.16,.13,.11,.19,.32,.19,.63v6.66h2.91c.29,0,.5,.05,.63,.16,.13,.11,.19,.32,.19,.63v3.66Z"/><path class="k" d="M266.8,52.52c0-.32,.06-.53,.19-.63,.13-.1,.34-.16,.63-.16h5.43v-1.14c0-.32,.06-.53,.19-.63,.13-.11,.34-.16,.63-.16h4.42c.29,0,.51,.05,.63,.16s.19,.32,.19,.63v1.14h5.37c.29,0,.5,.05,.63,.16,.13,.11,.19,.32,.19,.63v3.06c0,.32-.06,.53-.19,.63-.13,.11-.34,.16-.63,.16h-16.87c-.29,0-.5-.05-.63-.16-.13-.11-.19-.32-.19-.63v-3.06Zm9.29,14.31c-1.73,0-3.15-.12-4.26-.35s-2-.56-2.64-.98c-.64-.42-1.08-.93-1.33-1.52-.24-.59-.36-1.23-.36-1.93s.13-1.36,.38-1.94c.25-.58,.71-1.08,1.36-1.5s1.53-.75,2.64-.98c1.11-.23,2.51-.35,4.22-.35s3.11,.12,4.22,.35c1.11,.23,1.98,.56,2.64,.98s1.11,.92,1.36,1.5,.38,1.23,.38,1.94-.12,1.34-.36,1.93-.68,1.09-1.33,1.52c-.64,.42-1.52,.75-2.64,.98s-2.54,.35-4.26,.35Zm17.66,9.98c0,1.33-.28,2.28-.85,2.87-.57,.59-1.42,.88-2.56,.88h-18.1c-1.14,0-1.99-.3-2.56-.88-.57-.59-.85-1.55-.85-2.87v-8.08c0-.32,.06-.53,.19-.63s.34-.16,.63-.16h4.42c.29,0,.51,.05,.63,.16,.13,.11,.19,.32,.19,.63v1.2h12.79v-1.2c0-.32,.06-.53,.19-.63,.13-.11,.34-.16,.63-.16h4.42c.29,0,.5,.05,.63,.16,.13,.11,.19,.32,.19,.63v8.08Zm-17.66-13.74c.82,0,1.46-.07,1.91-.22,.45-.15,.68-.42,.68-.82s-.2-.67-.6-.82c-.4-.15-1.06-.22-1.99-.22s-1.59,.07-1.99,.22c-.4,.15-.6,.42-.6,.82s.23,.67,.68,.82c.45,.15,1.09,.22,1.91,.22Zm10.67,12.98c.36,0,.6-.07,.73-.21,.13-.14,.19-.41,.19-.81v-.76h-12.79v.76c0,.4,.06,.67,.19,.81,.13,.14,.37,.21,.73,.21h10.96Zm1.74-9.38c-.29,0-.5-.05-.63-.16-.13-.11-.19-.32-.19-.63v-14.53c0-.32,.06-.53,.19-.63,.13-.11,.34-.16,.63-.16h4.42c.29,0,.5,.05,.63,.16,.13,.11,.19,.32,.19,.63v4.45h2.91c.29,0,.5,.05,.63,.16,.13,.11,.19,.32,.19,.63v3.66c0,.32-.06,.53-.19,.63-.13,.11-.34,.16-.63,.16h-2.91v4.83c0,.32-.06,.53-.19,.63-.13,.11-.34,.16-.63,.16h-4.42Z"/><path class="k" d="M306.28,73.11c1.56-.04,3.05-.1,4.48-.17,1.43-.07,2.94-.18,4.52-.33,.29-.04,.49,0,.6,.11,.11,.12,.18,.33,.22,.65l.32,3.66c.04,.32-.01,.52-.16,.6-.15,.08-.37,.15-.66,.19-2.08,.17-4.09,.3-6.02,.39-1.93,.09-3.9,.14-5.92,.14s-3.47-.54-4.34-1.63c-.87-1.08-1.31-2.82-1.31-5.2,0-1.85,0-3.64,.03-5.37,.02-1.73,.05-3.41,.08-5.05s.07-3.27,.13-4.88c.05-1.61,.12-3.24,.21-4.88,.02-.32,.09-.53,.21-.63,.12-.11,.32-.16,.62-.16h4.33c.29,0,.51,.05,.65,.16,.14,.11,.19,.32,.17,.63-.06,1.6-.13,3.18-.19,4.75-.06,1.57-.11,3.15-.14,4.75-.03,1.6-.05,3.23-.06,4.9-.01,1.66,0,3.39,.05,5.18,.02,.76,.18,1.32,.49,1.67,.31,.36,.88,.53,1.72,.5Zm13.26,6.82c-.29,0-.51-.05-.63-.16s-.19-.32-.19-.63v-27.79c0-.32,.06-.53,.19-.63s.34-.16,.63-.16h4.42c.29,0,.5,.05,.63,.16,.13,.11,.19,.32,.19,.63v27.79c0,.32-.06,.53-.19,.63-.13,.11-.34,.16-.63,.16h-4.42Z"/><path class="k" d="M334.23,55.64c-.11,2.46-.17,4.93-.19,7.41-.02,2.47-.01,5.1,.03,7.88,.02,.76,.18,1.32,.49,1.67,.3,.36,.88,.53,1.72,.5,1.56-.04,3.05-.1,4.49-.17,1.43-.07,2.94-.18,4.52-.33,.29-.04,.49,0,.6,.11,.11,.12,.18,.33,.22,.65l.32,3.66c.04,.32-.01,.52-.16,.6s-.37,.15-.66,.19c-2.08,.17-4.09,.3-6.02,.39s-3.9,.14-5.92,.14-3.47-.54-4.34-1.63-1.31-2.82-1.31-5.2c0-1.85,.01-3.64,.03-5.37,.02-1.73,.05-3.41,.08-5.05,.03-1.64,.07-3.27,.13-4.88,.05-1.61,.12-3.24,.21-4.88,.02-.32,.09-.53,.21-.63,.12-.11,.32-.16,.62-.16h15.03c.29,0,.5,.05,.63,.16,.13,.11,.19,.32,.19,.63v3.5c0,.32-.06,.53-.19,.63-.13,.11-.34,.16-.63,.16h-10.08Zm23.88,10.11c0,.32-.06,.53-.19,.63-.13,.11-.34,.16-.63,.16h-2.91v12.6c0,.32-.06,.53-.19,.63-.13,.11-.34,.16-.63,.16h-4.42c-.29,0-.5-.05-.63-.16-.13-.11-.19-.32-.19-.63v-27.79c0-.32,.06-.53,.19-.63,.13-.11,.34-.16,.63-.16h4.42c.29,0,.5,.05,.63,.16,.13,.11,.19,.32,.19,.63v9.95h2.91c.29,0,.5,.05,.63,.16,.13,.11,.19,.32,.19,.63v3.66Z"/></g></g></svg>