<?xml version="1.0" encoding="UTF-8"?><svg xmlns="http://www.w3.org/2000/svg" xmlns:xlink="http://www.w3.org/1999/xlink" viewBox="0 0 400 356"><defs><style>.d{fill:#fff;}.e{fill:#606e8c;}.f{fill:#557cbd;}.g{clip-path:url(#c);}.h{fill:none;}.i{fill:#093974;}</style><clipPath id="c"><rect class="h" x="-6.72" y="-7.21" width="416.21" height="370.43"/></clipPath></defs><g id="a"/><g id="b"><rect class="d" x="-6.72" y="-7.21" width="416.21" height="370.43"/><g><path class="i" d="M154.81,44.29c-.12,2.9-.2,5.8-.22,8.71-.02,2.91-.01,6,.04,9.27,.02,.89,.22,1.55,.58,1.97,.36,.42,1.03,.62,2.02,.59,1.83-.05,3.59-.12,5.27-.2s3.46-.22,5.31-.39c.35-.05,.58,0,.71,.13,.12,.14,.21,.39,.26,.76l.37,4.31c.05,.37-.01,.61-.19,.71-.17,.1-.43,.17-.78,.22-2.45,.2-4.81,.35-7.08,.46-2.27,.11-4.59,.17-6.96,.17s-4.08-.64-5.11-1.91c-1.03-1.28-1.54-3.31-1.54-6.11,0-2.18,.01-4.28,.04-6.31,.02-2.03,.06-4.01,.09-5.94s.09-3.84,.15-5.74c.06-1.89,.14-3.81,.24-5.74,.02-.37,.11-.62,.24-.74s.38-.19,.72-.19h17.68c.35,0,.59,.06,.74,.19s.22,.37,.22,.74v4.12c0,.37-.07,.62-.22,.74s-.4,.19-.74,.19h-11.85Zm8.47,7.58c0-.37,.07-.62,.22-.74,.15-.12,.4-.19,.74-.19h7.61v-11.7c0-.37,.07-.62,.22-.74s.4-.19,.74-.19h5.2c.35,0,.59,.06,.74,.19,.15,.12,.22,.37,.22,.74v32.69c0,.37-.07,.62-.22,.74-.15,.12-.4,.19-.74,.19h-5.2c-.35,0-.59-.06-.74-.19s-.22-.37-.22-.74v-14.82h-7.61c-.35,0-.59-.06-.74-.19-.15-.12-.22-.37-.22-.74v-4.31Z"/><path class="i" d="M206.03,54.81c0,2.6-.19,4.92-.58,6.96-.38,2.04-1,3.77-1.86,5.18s-1.97,2.49-3.36,3.23-3.08,1.11-5.09,1.11-3.7-.37-5.09-1.11c-1.39-.74-2.51-1.82-3.36-3.23-.85-1.41-1.47-3.14-1.86-5.18-.38-2.04-.58-4.36-.58-6.96s.19-4.92,.58-6.96c.38-2.04,1-3.77,1.86-5.18,.85-1.41,1.97-2.49,3.36-3.23,1.39-.74,3.08-1.11,5.09-1.11s3.7,.37,5.09,1.11c1.39,.74,2.51,1.82,3.36,3.23,.85,1.41,1.47,3.14,1.86,5.18,.38,2.04,.58,4.36,.58,6.96Zm-6.95,0c0-2.28-.13-4.1-.39-5.46-.26-1.36-.59-2.41-.98-3.14-.4-.73-.82-1.21-1.28-1.43-.46-.22-.89-.33-1.28-.33s-.82,.11-1.28,.33c-.46,.22-.89,.7-1.28,1.43-.4,.73-.72,1.78-.98,3.14-.26,1.36-.39,3.18-.39,5.46s.13,4.1,.39,5.46,.59,2.41,.98,3.14c.4,.73,.82,1.21,1.28,1.43s.88,.33,1.28,.33,.82-.11,1.28-.33c.46-.22,.88-.7,1.28-1.43,.4-.73,.72-1.78,.98-3.14,.26-1.36,.39-3.18,.39-5.46Zm10.88,18.05c-.35,0-.59-.06-.74-.19s-.22-.37-.22-.74V39.24c0-.37,.07-.62,.22-.74s.4-.19,.74-.19h5.2c.35,0,.59,.06,.74,.19,.15,.12,.22,.37,.22,.74v32.69c0,.37-.07,.62-.22,.74-.15,.12-.4,.19-.74,.19h-5.2Z"/><path class="i" d="M233.89,38.31c.35,0,.59,.06,.74,.19,.15,.12,.22,.37,.22,.74v5.24c0,.72,.09,1.42,.26,2.1,.17,.68,.5,1.31,.97,1.89,.47,.58,1.1,1.1,1.89,1.56,.79,.46,1.81,.81,3.04,1.06,.1,.03,.22,.05,.35,.07,.14,.03,.27,.08,.39,.17,.12,.09,.23,.21,.32,.37s.13,.39,.13,.69v4.12c0,.45-.12,.71-.35,.8s-.44,.12-.61,.09c-.87-.07-1.75-.2-2.66-.39-.9-.19-1.79-.45-2.66-.78-.87-.33-1.7-.76-2.49-1.28-.79-.52-1.5-1.14-2.12-1.86-.64,.72-1.36,1.34-2.14,1.86-.78,.52-1.6,.95-2.47,1.28-.87,.33-1.75,.59-2.66,.78-.9,.19-1.79,.32-2.66,.39-.17,.03-.38,0-.61-.09-.24-.09-.35-.35-.35-.8v-4.12c0-.3,.04-.53,.13-.69,.09-.16,.19-.28,.32-.37,.12-.09,.25-.14,.39-.17,.14-.02,.25-.05,.35-.07,1.24-.25,2.25-.6,3.04-1.06,.79-.46,1.42-.98,1.89-1.56,.47-.58,.79-1.21,.97-1.89,.17-.68,.26-1.38,.26-2.1v-5.24c0-.37,.07-.62,.22-.74,.15-.12,.4-.19,.74-.19h5.13Zm5.83,36.47c-2.15,0-3.99-.21-5.52-.63-1.52-.42-2.76-1-3.71-1.75-.95-.74-1.65-1.6-2.08-2.58-.43-.98-.65-2.02-.65-3.14s.22-2.16,.67-3.14c.45-.98,1.15-1.83,2.12-2.56,.97-.73,2.2-1.31,3.71-1.73,1.51-.42,3.33-.63,5.46-.63s3.95,.21,5.46,.63,2.75,1,3.71,1.73c.96,.73,1.67,1.58,2.12,2.56,.45,.98,.67,2.02,.67,3.14s-.22,2.16-.65,3.14c-.43,.98-1.13,1.84-2.08,2.58-.95,.74-2.19,1.32-3.71,1.75-1.52,.42-3.36,.63-5.52,.63Zm0-5.83c.64,0,1.26-.04,1.86-.11,.59-.07,1.12-.2,1.58-.37s.82-.41,1.1-.71c.27-.3,.41-.67,.41-1.11s-.14-.81-.41-1.1c-.27-.29-.64-.52-1.1-.71s-.98-.32-1.58-.39c-.59-.07-1.21-.11-1.86-.11s-1.26,.04-1.86,.11c-.59,.07-1.12,.2-1.58,.39s-.82,.42-1.1,.71c-.27,.28-.41,.65-.41,1.1s.14,.82,.41,1.11c.27,.3,.64,.53,1.1,.71s.98,.3,1.58,.37c.59,.07,1.21,.11,1.86,.11Zm17.09-19.61c0,.37-.07,.62-.22,.74-.15,.12-.4,.19-.74,.19h-3.42v6.57c0,.37-.07,.62-.22,.74-.15,.12-.4,.19-.74,.19h-5.2c-.35,0-.59-.06-.74-.19-.15-.12-.22-.37-.22-.74v-17.61c0-.37,.07-.62,.22-.74,.15-.12,.4-.19,.74-.19h5.2c.35,0,.59,.06,.74,.19s.22,.37,.22,.74v4.87h3.42c.35,0,.59,.06,.74,.19s.22,.37,.22,.74v4.31Z"/><path class="i" d="M93.93,95.77h6.54v-9.73c0-.37,.07-.62,.22-.74s.4-.19,.74-.19h4.87c.35,0,.59,.06,.74,.19s.22,.37,.22,.74v27.34c0,1.56-.33,2.69-1,3.38-.67,.69-1.67,1.04-3.01,1.04h-12.11c-1.34,0-2.34-.35-3.01-1.04-.67-.69-1-1.82-1-3.38v-27.34c0-.37,.07-.62,.22-.74,.15-.12,.4-.19,.74-.19h4.87c.35,0,.59,.06,.74,.19,.15,.12,.22,.37,.22,.74v9.73Zm6.54,6.17h-6.54v8.84c0,.47,.07,.79,.22,.95s.43,.24,.85,.24h4.38c.42,0,.71-.08,.85-.24,.15-.16,.22-.48,.22-.95v-8.84Zm22.06,1.04c0,.37-.07,.62-.22,.74s-.4,.19-.74,.19h-3.42v14.82c0,.37-.07,.62-.22,.74s-.4,.19-.74,.19h-5.2c-.35,0-.59-.06-.74-.19-.15-.12-.22-.37-.22-.74v-32.69c0-.37,.07-.62,.22-.74,.15-.12,.4-.19,.74-.19h5.2c.35,0,.59,.06,.74,.19s.22,.37,.22,.74v11.7h3.42c.35,0,.59,.06,.74,.19,.15,.12,.22,.37,.22,.74v4.31Z"/><path class="i" d="M124.28,86.04c0-.37,.07-.62,.22-.74,.15-.12,.4-.19,.74-.19h12.81c.94,0,1.75,.11,2.41,.33,.67,.22,1.22,.59,1.65,1.1,.43,.51,.74,1.16,.93,1.97,.19,.8,.27,1.79,.24,2.95-.03,1.68-.16,3.59-.39,5.72s-.54,4.36-.91,6.69c-.37,2.33-.8,4.69-1.28,7.08-.48,2.39-.98,4.67-1.5,6.85-.1,.37-.2,.64-.3,.8-.1,.16-.32,.21-.67,.13l-5.16-1.08c-.17-.02-.33-.06-.46-.09-.14-.04-.25-.11-.35-.2-.1-.1-.16-.23-.17-.39-.01-.16,.02-.39,.09-.69,.52-1.88,1.01-3.87,1.49-5.96,.47-2.09,.88-4.15,1.24-6.17,.36-2.02,.65-3.94,.87-5.78s.33-3.44,.33-4.83c0-.94-.14-1.55-.41-1.82s-.73-.41-1.37-.41h-9.1c-.35,0-.59-.06-.74-.19-.15-.12-.22-.37-.22-.74v-4.35Zm35.4,16.94c0,.37-.07,.62-.22,.74s-.4,.19-.74,.19h-3.42v14.82c0,.37-.07,.62-.22,.74s-.4,.19-.74,.19h-5.2c-.35,0-.59-.06-.74-.19-.15-.12-.22-.37-.22-.74v-32.69c0-.37,.07-.62,.22-.74,.15-.12,.4-.19,.74-.19h5.2c.35,0,.59,.06,.74,.19s.22,.37,.22,.74v11.7h3.42c.35,0,.59,.06,.74,.19,.15,.12,.22,.37,.22,.74v4.31Z"/><path class="i" d="M161.38,86.04c0-.37,.07-.62,.22-.74,.15-.12,.4-.19,.74-.19h19.43c.35,0,.59,.06,.74,.19s.22,.37,.22,.74v4.35c0,.37-.07,.62-.22,.74s-.4,.19-.74,.19h-6.17v13.48c0,.72,.09,1.42,.26,2.1,.17,.68,.5,1.31,.97,1.89,.47,.58,1.1,1.1,1.89,1.56,.79,.46,1.81,.81,3.05,1.06,.1,.02,.22,.05,.35,.07s.27,.08,.39,.17c.12,.09,.23,.21,.32,.37,.09,.16,.13,.39,.13,.69v4.12c0,.45-.12,.71-.35,.8s-.44,.12-.61,.09c-.87-.08-1.75-.21-2.66-.39-.9-.19-1.79-.45-2.66-.78-.87-.33-1.7-.76-2.49-1.28-.79-.52-1.5-1.14-2.12-1.86-.64,.72-1.36,1.34-2.14,1.86-.78,.52-1.6,.95-2.47,1.28-.87,.33-1.75,.59-2.66,.78-.9,.19-1.79,.32-2.66,.39-.17,.02-.38,0-.61-.09s-.35-.35-.35-.8v-4.12c0-.3,.04-.53,.13-.69,.09-.16,.19-.28,.32-.37,.12-.09,.25-.14,.39-.17,.14-.02,.25-.05,.35-.07,1.24-.25,2.25-.6,3.05-1.06,.79-.46,1.42-.98,1.89-1.56,.47-.58,.79-1.21,.97-1.89,.17-.68,.26-1.38,.26-2.1v-13.48h-6.2c-.35,0-.59-.06-.74-.19-.15-.12-.22-.37-.22-.74v-4.35Zm25.74,33.61c-.35,0-.59-.06-.74-.19s-.22-.37-.22-.74v-32.69c0-.37,.07-.62,.22-.74s.4-.19,.74-.19h5.2c.35,0,.59,.06,.74,.19,.15,.12,.22,.37,.22,.74v32.69c0,.37-.07,.62-.22,.74-.15,.12-.4,.19-.74,.19h-5.2Z"/><path class="i" d="M198.12,103.13c0-.37,.07-.62,.22-.74,.15-.12,.4-.19,.74-.19h31.35c.35,0,.59,.06,.74,.19,.15,.12,.22,.37,.22,.74v4.35c0,.37-.08,.62-.22,.74s-.4,.19-.74,.19h-22.69v3.27c0,.89,.19,1.55,.56,1.97,.37,.42,1.05,.62,2.04,.59,1.34-.02,2.76-.07,4.27-.13,1.51-.06,3.05-.14,4.62-.22s3.14-.2,4.7-.33c1.56-.14,3.07-.28,4.53-.43,.35-.05,.58,0,.71,.15,.12,.15,.21,.41,.26,.78l.37,4.31c.05,.37-.01,.61-.19,.71-.17,.1-.43,.17-.78,.22-1.71,.17-3.5,.33-5.37,.46-1.87,.14-3.74,.25-5.61,.35-1.87,.1-3.71,.17-5.52,.22-1.81,.05-3.5,.07-5.09,.07-2.38,0-4.08-.64-5.11-1.91-1.03-1.28-1.54-3.31-1.54-6.11v-3.97h-1.52c-.35,0-.59-.06-.74-.19s-.22-.37-.22-.74v-4.35Zm31.01-5.46c.05,.37-.01,.61-.19,.71s-.43,.17-.78,.22c-1.71,.17-3.47,.32-5.29,.45-1.82,.12-3.63,.23-5.42,.32-1.8,.09-3.57,.15-5.33,.19-1.76,.04-3.43,.06-5.01,.06-2.38,0-4.08-.64-5.11-1.91s-1.54-3.31-1.54-6.11v-5.53c0-.37,.07-.62,.22-.74s.4-.19,.74-.19h5.2c.35,0,.59,.06,.74,.19,.15,.12,.22,.37,.22,.74v4.83c0,.89,.19,1.55,.56,1.97s1.05,.62,2.04,.59c2.7-.05,5.58-.15,8.64-.3,3.06-.15,6.05-.38,8.97-.71,.35-.05,.58,0,.71,.15,.12,.15,.21,.41,.26,.78l.37,4.31Z"/><path class="i" d="M254.76,103.31c-2.18,0-3.97-.28-5.37-.85-1.4-.57-2.51-1.3-3.32-2.19-.82-.89-1.39-1.88-1.71-2.97-.32-1.09-.48-2.15-.48-3.19s.16-2.1,.48-3.18c.32-1.08,.9-2.06,1.73-2.95,.83-.89,1.94-1.62,3.34-2.19,1.4-.57,3.18-.85,5.33-.85,1.61,0,3.01,.16,4.2,.48,1.19,.32,2.2,.76,3.03,1.32,.83,.56,1.5,1.2,2,1.91s.9,1.47,1.17,2.27h3.83v-4.87c0-.37,.07-.62,.22-.74s.4-.19,.74-.19h5.2c.35,0,.59,.06,.74,.19,.15,.12,.22,.37,.22,.74v16.34c0,.37-.07,.62-.22,.74-.15,.12-.4,.19-.74,.19h-5.2c-.35,0-.59-.06-.74-.19-.15-.12-.22-.37-.22-.74v-5.31h-3.79c-.25,.82-.62,1.6-1.11,2.36-.5,.75-1.16,1.42-1.99,1.99-.83,.57-1.84,1.03-3.05,1.37s-2.63,.52-4.29,.52Zm6.76,12.67c0,1.56-.33,2.69-1,3.38-.67,.69-1.67,1.04-3.01,1.04h-7.54c-1.34,0-2.34-.35-3.01-1.04-.67-.69-1-1.82-1-3.38v-10.25c0-.37,.07-.62,.22-.74s.4-.19,.74-.19h4.27c.35,0,.59,.06,.74,.19,.15,.12,.22,.37,.22,.74v1.86h3.16v-1.86c0-.37,.07-.62,.22-.74s.4-.19,.74-.19h4.27c.35,0,.59,.06,.74,.19s.22,.37,.22,.74v10.25Zm-6.76-18.72c.45,0,.9-.04,1.37-.13s.9-.25,1.3-.5c.4-.25,.72-.58,.97-.98,.25-.41,.37-.93,.37-1.58s-.12-1.13-.37-1.54c-.25-.41-.57-.74-.97-.98-.4-.25-.83-.41-1.3-.5s-.93-.13-1.37-.13-.9,.04-1.37,.13c-.47,.09-.9,.25-1.3,.5-.4,.25-.72,.58-.97,.98-.25,.41-.37,.92-.37,1.54s.12,1.17,.37,1.58c.25,.41,.57,.74,.97,.98,.4,.25,.83,.42,1.3,.5,.47,.09,.93,.13,1.37,.13Zm-.52,18.05c.42,0,.71-.08,.85-.24s.22-.48,.22-.95v-1.63h-3.16v1.63c0,.47,.07,.79,.22,.95s.43,.24,.85,.24h1Zm18.79-10.51c.37,0,.61,.09,.72,.26,.11,.17,.17,.4,.17,.67,0,1.51,.07,2.79,.22,3.83s.37,1.89,.67,2.56c.3,.67,.69,1.18,1.17,1.52,.48,.35,1.08,.58,1.8,.71,.07,.02,.17,.04,.3,.06s.24,.06,.35,.13,.2,.19,.28,.33,.11,.36,.11,.63v3.83c0,.27-.04,.48-.13,.63-.09,.15-.2,.26-.33,.33-.14,.07-.27,.11-.41,.11h-.35c-.77-.05-1.51-.19-2.23-.43-.72-.24-1.38-.54-1.99-.91-.61-.37-1.15-.81-1.62-1.3-.47-.5-.83-1.03-1.08-1.6-.27,.57-.64,1.1-1.1,1.6-.46,.49-.99,.93-1.6,1.3-.61,.37-1.27,.67-1.99,.91-.72,.23-1.46,.38-2.23,.43h-.35c-.14,0-.27-.04-.41-.11-.14-.07-.25-.19-.33-.33-.09-.15-.13-.36-.13-.63v-3.83c0-.27,.04-.48,.11-.63s.17-.26,.28-.33c.11-.07,.23-.12,.35-.13,.12-.01,.22-.03,.3-.06,.69-.12,1.29-.36,1.78-.71,.5-.35,.89-.85,1.19-1.52,.3-.67,.52-1.52,.67-2.56,.15-1.04,.22-2.32,.22-3.83,0-.27,.06-.49,.17-.67,.11-.17,.35-.26,.72-.26h4.68Z"/><path class="i" d="M288.71,91.09c-.12,2.9-.2,5.8-.22,8.71-.03,2.91-.01,6,.04,9.27,.02,.89,.22,1.55,.58,1.97,.36,.42,1.03,.62,2.02,.59,1.83-.05,3.59-.12,5.27-.2s3.45-.22,5.31-.39c.35-.05,.58,0,.71,.13,.12,.14,.21,.39,.26,.76l.37,4.31c.05,.37-.01,.61-.19,.71-.17,.1-.43,.17-.78,.22-2.45,.2-4.81,.35-7.08,.46-2.27,.11-4.59,.17-6.96,.17s-4.08-.64-5.11-1.91c-1.03-1.28-1.54-3.31-1.54-6.11,0-2.18,.01-4.28,.04-6.31,.02-2.03,.06-4.01,.09-5.94s.09-3.84,.15-5.74c.06-1.89,.14-3.81,.24-5.74,.02-.37,.1-.62,.24-.74,.14-.12,.38-.19,.72-.19h17.68c.35,0,.59,.06,.74,.19s.22,.37,.22,.74v4.12c0,.37-.07,.62-.22,.74s-.4,.19-.74,.19h-11.85Zm28.08,11.89c0,.37-.07,.62-.22,.74s-.4,.19-.74,.19h-3.42v14.82c0,.37-.07,.62-.22,.74s-.4,.19-.74,.19h-5.2c-.35,0-.59-.06-.74-.19-.15-.12-.22-.37-.22-.74v-32.69c0-.37,.07-.62,.22-.74,.15-.12,.4-.19,.74-.19h5.2c.35,0,.59,.06,.74,.19s.22,.37,.22,.74v11.7h3.42c.35,0,.59,.06,.74,.19,.15,.12,.22,.37,.22,.74v4.31Z"/></g><g class="g"><g><path class="f" d="M202.82,364.03c-4.97,.14-9.94,.21-14.92-.16-4.09-.31-8.2-.26-12.3-.52-5.88-.37-11.76-.89-17.52-2.24-.79-.19-1.6-.36-1.98-1.22-.06-5.56-.15-11.12-.18-16.68-.07-13.21-.98-26.38-1.61-39.57-.2-4.23-.2-8.46-.31-12.69-.01-.41,.18-.95-.34-1.18-.61-.26-.84,.27-1.17,.66-.61,.72-1.25,1.42-1.94,2.06-9.75,8.97-20.08,17.21-30.91,24.79-7.32,5.13-15.61,4.82-22.82-.49-1.61-1.18-3.09-2.56-4.53-3.96-13.3-12.85-25.15-27.02-36.82-41.36-.61-.75-.66-1.19,.04-1.85,3.64-3.46,7.25-6.95,10.61-10.7,.57-.64,1.11-.7,1.72-.04,1.03,1.1,2.1,2.16,3.11,3.28,10.21,11.32,21.06,21.9,34.1,29.91,3.13,1.92,4.99,4.67,5.7,8.27,.32,1.61,.7,3.2,1.06,4.8,.1,.46,.02,1.14,.77,1.03,.73-.1,.57-.75,.48-1.21-1-4.64-1.39-9.55-5.46-12.65,1.64-2.87,3.93-4.93,5.99-7.17,9.98-10.88,19.38-22.28,29-33.48,5.15-5.99,10.89-10.8,18.79-12.61,5.71-1.31,11.22-3.37,16.58-5.75,1.8-.8,2.4-.46,2.84,1.32,.25,1.02,.82,1.97,1.32,2.91,1.55,2.96,2.81,6.02,3.47,9.34,.22,1.12-.44,2.98,.76,3.22,1.34,.27,2.14-1.46,2.99-2.52,1.48-1.82,2.41-3.96,3.48-6.03,.35-.67,.89-1.89,1.72-1.13,1.96,1.78,4.13,3.66,4.27,6.57,.35,7.07,.55,14.14,.7,21.21,.14,6.12,.67,12.23,.13,18.37-.45,5.09-.66,10.21,1.1,15.17,1.09,3.05,1.41,6.24,1.49,9.48,.33,14.15-.46,28.3,.35,42.45,.2,3.46,.16,6.93,.23,10.39Zm-49.32-92.42c0,2.77-.01,5.55,.02,8.32,0,.42-.35,1.13,.46,1.19,.87,.07,.72-.66,.75-1.2,.01-.19,.02-.38,.03-.57,.32-6.81,.13-13.61-.43-20.39-.2-2.44-.53-4.88-.84-7.31-.05-.38-.03-1.01-.66-.96-.73,.05-.61,.63-.54,1.14,.08,.62,.09,1.26,.18,1.88,.83,5.94,1.14,11.91,1.03,17.9Z"/><path class="f" d="M244.67,360.99c-1.96,1.58-4.44,1.64-6.69,1.9-10.94,1.28-21.94,1.36-32.95,1.27-.44,0-.87-.04-1.31-.06,.05-.44,.13-.87,.15-1.31,.23-6.13-.27-12.25-.34-18.37-.13-10.8-.04-21.61-.03-32.41,0-3.75-.44-7.43-1.62-11-1.23-3.71-1.53-7.5-1.2-11.39,.26-3.14,.5-6.31,.42-9.46-.24-10.1-.52-20.21-1.04-30.3-.17-3.22,.78-5.71,2.77-8.05,1.86-2.19,2.28-2.19,3.53,.38,1.15,2.37,2.28,4.78,4.22,6.64,.55,.53,.96,1.59,1.88,1.28,.85-.28,.54-1.35,.61-2.03,.33-3.32,1.46-6.36,2.9-9.32,.82-1.69,1.74-3.37,2.29-5.15,.4-1.3,.84-1.12,1.79-.71,6.18,2.69,12.47,5.07,18.87,7.14,5.42,1.75,10.36,4.24,14.38,8.45,11.59,12.13,22.87,24.53,33.17,37.81,1.42,1.82,3.36,3.15,4.52,5.21,.3,.53,.47,.74-.04,1.19-3.75,3.23-3.95,7.96-5.03,12.32-.11,.46-.15,.93,.4,1.09,.8,.23,.74-.5,.84-.92,.36-1.47,.7-2.94,.96-4.43,.73-4.2,2.99-7.25,6.66-9.3,1.58-.88,3.14-1.81,4.6-2.88,9.6-7.01,18.22-15.14,26.35-23.82,1.72-1.83,3.38-3.71,5.06-5.58,.85-.94,1.61-.97,2.46,.04,3.09,3.66,6.54,6.95,10.07,10.16,.95,.86,.75,1.39,.02,2.26-3.28,3.89-6.48,7.84-9.72,11.77-9.07,10.99-18.65,21.5-28.92,31.36-7.8,7.48-17.9,8.09-26.58,1.72-1.56-1.15-3.09-2.35-4.64-3.51-9.5-7.06-18.82-14.36-27.16-22.83-.29-.29-.55-.52-.96-.38-.6,.21-.35,.74-.36,1.14-.11,3.28-.31,6.57-.28,9.85,.18,17.25,.34,34.49-.13,51.74-.08,2.83-.36,5.67,.07,8.5Zm-.45-89.3c0,2.65-.01,5.31,.01,7.96,0,.58-.2,1.47,.73,1.44,.87-.03,.5-.87,.48-1.36-.21-9.29-.05-18.56,1.3-27.78,.07-.51,.23-1.12-.42-1.27-.78-.18-.64,.54-.74,1-.07,.31-.17,.61-.2,.92-.66,6.34-1.38,12.68-1.15,19.08Z"/><path d="M153.49,271.62c.1-5.99-.21-11.96-1.03-17.9-.09-.62-.1-1.26-.18-1.88-.06-.52-.19-1.09,.54-1.14,.62-.04,.61,.59,.66,.96,.31,2.43,.64,4.87,.84,7.31,.56,6.79,.75,13.59,.43,20.39,0,.19-.02,.38-.03,.57-.04,.54,.12,1.27-.75,1.2-.81-.06-.46-.77-.46-1.19-.03-2.77-.02-5.54-.02-8.32Z"/><path d="M244.22,271.69c-.23-6.4,.49-12.74,1.15-19.08,.03-.31,.13-.62,.2-.92,.1-.45-.04-1.18,.74-1,.65,.15,.5,.76,.42,1.27-1.35,9.22-1.51,18.49-1.3,27.78,.01,.49,.39,1.33-.48,1.36-.93,.03-.72-.86-.73-1.44-.02-2.65-.01-5.31-.01-7.96Z"/><path class="h" d="M202.09,239.96c.1,.04,.24,.14,.29,.1,.11-.07,.16-.21,.24-.32l-.31-.1-.23,.32Z"/><path class="h" d="M28.12,260.65c1.12,.36,2.26,.65,3.69-.33-2.89,.04-5.13-1.03-7.42-1.93-1.52-.6-3.07-1.12-4.72-.96-.83,.08-2.22,.05-2.17,.98,.05,1.09,1.6,1.36,2.4,1.18,2.91-.64,5.55,.18,8.23,1.05Z"/><path class="h" d="M48.63,255.21c1.86-.22,3.56,.29,5.28,.54,.58,.09,1.66-.2,1.49,.88-.15,1-1.11,.59-1.71,.46-3.15-.68-6.25-.8-9.42,.1-3.36,.96-6.75,1.88-9.81,3.56-2.98,1.64-5.82,1.87-8.91,.55-1.5-.64-3.13-.85-4.77-.47-.34,.08-.8,.25-.92,.52-.24,.52,.31,.79,.65,.98,2.23,1.25,4.39,2.62,6.74,3.65,1.59,.7,3.13,1.04,4.88,.7,5.55-1.09,11.17-1.85,16.6-3.56,.91-.28,1.74-.5,1.18,.99-1.82,.54-3.65,1.08-5.98,1.78,2.56,.05,4.48-.51,6.4-1.09,2.06-.13,4.13-.32,5.71,1.51,.63,.73,.98-.11,1.34-.41,2.61-2.17,4.74-4.83,7.13-7.22,.83-.83,.71-1.31,.06-2.13-3.33-4.19-10.62-4.87-15.95-1.35Z"/><path class="h" d="M35.74,256.96c-1.67-.61-3.34-1.03-5.45-.71,1.92,1.28,3.72,.82,5.45,.71Z"/><path class="h" d="M32.93,258.66c-3.26-.52-6.15-2.68-9.61-2.26,3.14,1.09,6.05,3.24,9.61,2.26Z"/><path class="h" d="M196.18,239.85h0c.12,.06,.24,.12,.36,.18v-.46l-.36,.28Z"/><path class="h" d="M368.94,256.2c-2.34-.17-4.09-.05-5.7,.83,1.76,.04,3.57,.45,5.7-.83Z"/><path class="h" d="M380.68,257.68c-1.89-.56-3.7-.18-5.48,.49-2.5,.93-4.91,2.19-7.64,2.35,1.23,.59,2.4,.51,3.61,.08,2.54-.89,5.09-1.65,7.84-1.02,.53,.12,1.2-.21,1.77-.43,.32-.12,.79-.43,.8-.68,.04-.49-.49-.67-.91-.79Z"/><path class="h" d="M377.94,260.74c-1.78-.26-3.5,.12-5.13,.76-2.6,1.02-4.91,.81-7.52-.39-6.45-2.98-13.01-5.96-20.45-3.93-.52,.14-1.24,.2-1.31-.61-.07-.85,.71-.73,1.22-.81,1.84-.27,3.69-.5,5.53-.74-2.33-.78-4.66-1.41-7.02-1.88-3.73-.74-6.75,.49-8.99,3.62-.38,.52-.75,.94-.09,1.6,2.58,2.56,5.12,5.18,7.66,7.78,.4,.41,.76,.66,1.22,.11,1.39-1.65,3.28-1.58,5.17-1.51,2.12,.49,4.23,.97,6.35,1.46l.1-.45c-1.97-.58-4.01-.94-5.9-1.77-.02-.95,.35-1.2,1.27-.9,5.66,1.79,11.54,2.57,17.34,3.71,1.23,.24,2.34,.06,3.46-.39,2.62-1.04,4.99-2.55,7.43-3.94,.42-.24,1.01-.48,.88-1.06-.13-.55-.75-.57-1.24-.64Z"/><path class="h" d="M375.66,256.36c-3.48-.35-6.35,1.72-9.59,2.36,3.55,.73,6.51-1.06,9.59-2.36Z"/><path d="M186.86,218.47h0l.02,.03h0l-.02-.03Z"/><path d="M382.91,258.02c-.27-1.11-1.2-1.47-2.25-1.69-1.08-.23-2.26,.19-3.24-.59-1.35-1.07-2.85-1.02-4.44-.61-.82,.21-1.61,.84-2.52,.44-2.84-1.26-5.65-.68-8.37,.32-1.34,.49-2.49,.47-3.78-.02-4.61-1.78-9.43-2.79-14.22-3.91-4.44-1.04-8.14,.2-10.88,4.01-.25,.35-.53,.88-.87,.95-2.09,.43-3.28,2.06-4.5,3.52-5.48,6.51-11.58,12.39-17.93,18.01-5.07,4.49-10.24,8.86-16.15,12.23-.71,.4-1.4,.91-1.87-.01-.89-1.74-2.54-2.73-3.67-4.2-9.79-12.64-20.51-24.45-31.36-36.16-5.23-5.64-11.22-9.6-18.55-11.82-6.07-1.84-11.98-4.21-17.83-6.72-1.19-.51-1.91-1.11-2.08-2.52-.19-1.58-.81-3.37-2.42-3.78-2.37-.6-2.31-2.13-2.2-3.93,.03-.53,.06-1.07,.08-1.61l-1.49,.71c.1,2.07,.19,4,.32,5.92,.04,.62,.09,1.39,.45,1.8,1.37,1.57,.28,2.4-.83,3.19-2.59,1.85-5.14,3.79-8.2,4.82-1.51,.5-2.56,1.51-3.15,3.01-.45,1.15-.95,2.28-1.5,3.59-.31-.77-.6-1.33-.78-1.93-.78-2.6-2.37-4.24-4.99-5.13-2.85-.97-5.26-2.85-7.65-4.67-.36-.27-1.05-.51-.7-1.31,1.53-3.45,1.39-7.13,1.37-10.78,0-.23-.05-.47,.17-.62l-.02-.03h-.17l.03-.07-1.38,.72c0,1.45,.01,2.91,.02,4.36,0,.57-.19,.96-.83,1.02-2.56,.24-3.72,1.99-3.99,4.28-.23,1.94-1.29,2.71-2.92,3.36-5.79,2.33-11.6,4.62-17.69,6-7.9,1.79-13.36,6.94-18.44,12.83-9.04,10.46-17.81,21.15-27.16,31.34-2.39,2.6-5.02,5.04-6.95,8.07-.69,1.08-1.42,.71-2.32,.17-11.16-6.73-20.3-15.87-29.38-25.08-1.72-1.74-3.27-3.65-4.89-5.48-2.18-2.46-5.14-3.98-7.37-6.44-1.66-1.82-4.19-2.23-6.63-1.84-5.43,.85-10.72,2.28-15.91,4.06-1.42,.49-2.66,.56-4.13,.04-2.66-.95-5.42-1.54-8.2-.26-.26,.12-.68,.17-.9,.04-3.56-2.09-6.64,.96-10.01,.95-.82,0-1.46,.75-1.6,1.64-.15,.94,.49,1.51,1.19,1.98,.42,.28,1.17,.13,1.11,1.01-.08,1.28,.82,1.95,1.75,2.47,2.28,1.29,4.59,2.53,6.92,3.72,1.66,.84,3.4,1.01,5.28,.65,2.67-.5,5.33-1.02,8.13-.58,3.57,.56,7.04-.63,10.53-1.28,1.07-.2,2.16-.3,3.1,.26,1,.59,2.02,1.32,.41,2.45-1.45,1.02-1.18,1.98-.1,3.25,4.11,4.83,8.07,9.8,12.14,14.66,8.49,10.12,17.4,19.84,26.93,28.97,7.68,7.35,19.14,8.81,28.18,1.85,8.09-6.23,16.38-12.2,24-19.03,2.29-2.06,4.65-4.05,7.09-6.17,.19,5.6,.24,10.97,.59,16.31,.83,12.74,1.29,25.49,1.45,38.25,.05,3.92,.09,7.83,.14,11.75,.01,.79-.23,1.88,1.22,1.19-.06-5.56-.15-11.12-.18-16.68-.07-13.21-.98-26.38-1.61-39.57-.2-4.23-.2-8.46-.31-12.69-.01-.41,.18-.95-.34-1.18-.61-.26-.84,.27-1.17,.66-.61,.72-1.25,1.42-1.94,2.06-9.75,8.97-20.08,17.21-30.91,24.79-7.32,5.13-15.61,4.82-22.82-.49-1.61-1.18-3.09-2.56-4.53-3.96-13.3-12.85-25.15-27.02-36.82-41.36-.61-.75-.66-1.19,.04-1.85,3.64-3.46,7.25-6.95,10.61-10.7,.57-.64,1.11-.7,1.72-.04,1.03,1.1,2.1,2.16,3.11,3.28,10.21,11.32,21.06,21.9,34.1,29.91,3.13,1.92,4.99,4.67,5.7,8.27,.32,1.61,.7,3.2,1.06,4.8,.1,.46,.02,1.14,.77,1.03,.73-.1,.57-.75,.48-1.21-1-4.64-1.39-9.55-5.46-12.65,1.64-2.87,3.93-4.93,5.99-7.17,9.98-10.88,19.38-22.28,29-33.48,5.15-5.99,10.89-10.8,18.79-12.61,5.71-1.31,11.22-3.37,16.58-5.75,1.8-.8,2.4-.46,2.84,1.32,.25,1.02,.82,1.97,1.32,2.91,1.55,2.96,2.81,6.02,3.47,9.34,.22,1.12-.44,2.98,.76,3.22,1.34,.27,2.14-1.46,2.99-2.52,1.48-1.82,2.41-3.96,3.48-6.03,.35-.67,.89-1.89,1.72-1.13,1.96,1.78,4.13,3.66,4.27,6.57,.35,7.07,.55,14.14,.7,21.21,.14,6.12,.67,12.23,.13,18.37-.45,5.09-.66,10.21,1.1,15.17,1.09,3.05,1.41,6.24,1.49,9.48,.33,14.15-.46,28.3,.35,42.45,.2,3.46,.16,6.93,.23,10.39,.3,.02,.61,.05,.91,.07,.05-.44,.13-.87,.15-1.31,.23-6.13-.27-12.25-.34-18.37-.13-10.8-.04-21.61-.03-32.41,0-3.75-.44-7.43-1.62-11-1.23-3.71-1.53-7.5-1.2-11.39,.26-3.14,.5-6.31,.42-9.46-.24-10.1-.52-20.21-1.04-30.3-.17-3.22,.78-5.71,2.77-8.05,1.86-2.19,2.28-2.19,3.53,.38,1.15,2.37,2.28,4.78,4.22,6.64,.55,.53,.96,1.59,1.88,1.28,.85-.28,.54-1.35,.61-2.03,.33-3.32,1.46-6.36,2.9-9.32,.82-1.69,1.74-3.37,2.29-5.15,.4-1.3,.84-1.12,1.79-.71,6.18,2.69,12.47,5.07,18.87,7.14,5.42,1.75,10.36,4.24,14.38,8.45,11.59,12.13,22.87,24.53,33.17,37.81,1.42,1.82,3.36,3.15,4.52,5.21,.3,.53,.47,.74-.04,1.19-3.75,3.23-3.95,7.96-5.03,12.32-.11,.46-.15,.93,.4,1.09,.8,.23,.74-.5,.84-.92,.36-1.47,.7-2.94,.96-4.43,.73-4.2,2.99-7.25,6.66-9.3,1.58-.88,3.14-1.81,4.6-2.88,9.6-7.01,18.22-15.14,26.35-23.82,1.72-1.83,3.38-3.71,5.06-5.58,.85-.94,1.61-.97,2.46,.04,3.09,3.66,6.54,6.95,10.07,10.16,.95,.86,.75,1.39,.02,2.26-3.28,3.89-6.48,7.84-9.72,11.77-9.07,10.99-18.65,21.5-28.92,31.36-7.8,7.48-17.9,8.09-26.58,1.72-1.56-1.15-3.09-2.35-4.64-3.51-9.5-7.06-18.82-14.36-27.16-22.83-.29-.29-.55-.52-.96-.38-.6,.21-.35,.74-.36,1.14-.11,3.28-.31,6.57-.28,9.85,.18,17.25,.34,34.49-.13,51.74-.08,2.83-.36,5.67,.07,8.5,1.44,.16,1.04-.95,1.05-1.66,.18-17.06,.81-34.12,.21-51.18-.18-5.15,.08-10.31,.36-15.4,.43-.15,.6,.04,.78,.21,9.55,8.82,19.84,16.7,30.19,24.53,9.52,7.2,20.83,5.28,28.18-1.66,14.46-13.66,27.15-28.92,39.7-44.33,.84-1.03,.47-1.65-.28-2.4-.46-.46-1.41-.8-1.13-1.54,.31-.82,1.18-1.28,2.07-1.45,.8-.16,1.6-.11,2.41,.05,3.54,.72,7.07,1.69,10.73,1.29,1.67-.18,3.33-.57,4.99,.02,4.42,1.57,8.31,.23,12.03-2.17,.52-.34,1.11-.59,1.64-.92,1.39-.87,3.17-1.38,3.15-3.55,0-.34,.4-.43,.69-.54,1.03-.4,1.77-1.09,1.48-2.28Zm-347.17-1.05c-1.73,.11-3.53,.58-5.45-.71,2.11-.32,3.78,.09,5.45,.71Zm-2.81,1.69c-3.56,.97-6.47-1.17-9.61-2.26,3.46-.42,6.35,1.74,9.61,2.26Zm-15.43-.25c-.04-.93,1.34-.9,2.17-.98,1.65-.17,3.2,.36,4.72,.96,2.29,.9,4.53,1.97,7.42,1.93-1.43,.98-2.57,.69-3.69,.33-2.68-.87-5.32-1.69-8.23-1.05-.8,.18-2.34-.1-2.4-1.18Zm47.02,.27c-2.39,2.4-4.52,5.05-7.13,7.22-.36,.3-.7,1.14-1.34,.41-1.58-1.82-3.65-1.63-5.71-1.51-1.92,.57-3.84,1.14-6.4,1.09,2.33-.69,4.16-1.24,5.98-1.78,.55-1.49-.27-1.28-1.18-.99-5.42,1.7-11.04,2.46-16.6,3.56-1.75,.34-3.29,0-4.88-.7-2.35-1.04-4.51-2.4-6.74-3.65-.34-.19-.89-.45-.65-.98,.12-.26,.58-.44,.92-.52,1.63-.39,3.26-.17,4.77,.47,3.09,1.32,5.93,1.09,8.91-.55,3.06-1.68,6.45-2.6,9.81-3.56,3.17-.91,6.26-.78,9.42-.1,.6,.13,1.56,.54,1.71-.46,.17-1.08-.92-.8-1.49-.88-1.72-.25-3.42-.76-5.28-.54,5.33-3.52,12.62-2.85,15.95,1.35,.65,.82,.77,1.3-.06,2.13Zm131.66-18.83h0c-.58-.37-1.09-.63-1.54-.78-.23-.07-.44-.11-.64-.12-1.01-.05-1.74,.66-2.5,2.27-1.16,2.42-2.25,4.87-4.5,7.1-.41-5.4-3.06-9.62-5.04-14.11-1.05-2.37-.72-4.91,.72-7.07-.03,2.73,1.46,4.5,3.43,5.85,2.67,1.83,5.34,3.7,8.45,4.75,.92,.31,1.68,.81,1.98,1.82v.46c-.12-.06-.24-.12-.36-.18Zm6.21,.21c-.05,.03-.19-.06-.29-.1l.23-.32,.31,.1c-.08,.11-.14,.25-.24,.32Zm14.65-6.65c-.59,1.81-1.51,3.46-2.34,5.14-1.46,2.94-2.55,6-2.87,9.68-1.7-1.47-2.56-3.13-3.44-4.77-.29-.55-.5-1.15-.77-1.71-1.45-3.01-2.07-3.28-4.95-2.16,.39-1.27,.45-1.45,1.82-1.93,3.23-1.13,5.94-3.14,8.67-5.11,1.46-1.05,2.6-2.34,2.62-4.32,0-.23-.07-.55,.24-.61,.45-.08,.65,.24,.8,.62,.67,1.7,.79,3.4,.21,5.17Zm158.63,22.95c-3.08,1.29-6.03,3.09-9.59,2.36,3.24-.64,6.11-2.71,9.59-2.36Zm-6.72-.17c-2.12,1.28-3.94,.86-5.7,.83,1.61-.87,3.35-1,5.7-.83Zm9.36,6.25c-2.44,1.39-4.82,2.89-7.43,3.94-1.12,.45-2.23,.63-3.46,.39-5.8-1.14-11.68-1.92-17.34-3.71-.93-.29-1.3-.04-1.27,.9,1.89,.84,3.93,1.2,5.9,1.77l-.1,.45c-2.12-.49-4.23-.97-6.35-1.46-1.89-.06-3.77-.13-5.17,1.51-.47,.55-.83,.3-1.22-.11-2.54-2.6-5.08-5.22-7.66-7.78-.66-.66-.29-1.08,.09-1.6,2.24-3.13,5.26-4.36,8.99-3.62,2.36,.47,4.69,1.1,7.02,1.88-1.85,.24-3.69,.47-5.53,.74-.5,.07-1.29-.04-1.22,.81,.07,.81,.79,.75,1.31,.61,7.44-2.03,13.99,.95,20.45,3.93,2.61,1.2,4.92,1.41,7.52,.39,1.63-.64,3.34-1.02,5.13-.76,.49,.07,1.11,.09,1.24,.64,.13,.58-.46,.82-.88,1.06Zm2.47-3.29c-.57,.22-1.23,.55-1.77,.43-2.76-.63-5.31,.13-7.84,1.02-1.21,.42-2.38,.51-3.61-.08,2.73-.17,5.14-1.42,7.64-2.35,1.78-.66,3.59-1.05,5.48-.49,.41,.12,.94,.3,.91,.79-.02,.25-.48,.56-.8,.68Z"/><path class="f" d="M194.55,237.75c-3.1-1.06-5.77-2.93-8.45-4.75-1.98-1.35-3.46-3.12-3.43-5.85-1.45,2.16-1.77,4.69-.72,7.07,1.98,4.49,4.63,8.71,5.04,14.11,2.25-2.23,3.35-4.68,4.5-7.1,.77-1.61,1.5-2.32,2.5-2.27,.2,.01,.41,.05,.64,.12,.45,.14,.96,.4,1.54,.78l.36-.28c-.3-1.01-1.06-1.51-1.98-1.82Z"/><path class="f" d="M216.02,227.63c-.31,.06-.24,.38-.24,.61-.02,1.97-1.16,3.26-2.62,4.32-2.73,1.97-5.45,3.97-8.67,5.11-1.36,.48-1.43,.65-1.82,1.93,2.88-1.11,3.5-.85,4.95,2.16,.27,.56,.48,1.16,.77,1.71,.88,1.64,1.74,3.3,3.44,4.77,.32-3.68,1.41-6.74,2.87-9.68,.84-1.69,1.75-3.34,2.34-5.14,.57-1.76,.46-3.47-.21-5.17-.15-.38-.35-.7-.8-.62Z"/><g><path class="h" d="M190.63,224.15c2.71,1.89,8.15,3.26,10.39,3.26l-10.39,.57-3.4-6.73s.69,1.02,3.4,2.91Z"/><path class="h" d="M226.41,178.43c.14,.53,.24,1.06,.31,1.58-.06-.53-.16-1.05-.31-1.58Z"/><path class="h" d="M221.32,192.96c.21-.02,.41-.05,.59-.1-.18,.05-.38,.08-.59,.1Z"/><path class="h" d="M225.52,177.36s-.02,0-.03,0c0,0,.02,0,.03,0Z"/><path class="h" d="M201.44,227.36c-8.43,2.42-.42,.05-.42,.05,.12,0,.27-.02,.43-.05h-.01Z"/><path class="h" d="M174.91,168.58c.36-.64,.76-1.27,1.21-1.88-.45,.61-.85,1.24-1.21,1.88Z"/><path class="h" d="M214.46,218.81c.04-.06,.09-.13,.15-.19,0,0-.05,.07-.15,.19Z"/><path class="h" d="M174.91,168.58c.72-1.28,1.61-2.51,2.7-3.68h0c-.54,.58-1.04,1.18-1.49,1.8-.45,.61-.85,1.24-1.21,1.88Z"/><path class="h" d="M176.87,163.03h0c-.22-.05-.46-.07-.64-.17,.18,.1,.42,.12,.64,.17Z"/><path class="h" d="M226.41,178.43c-.07-.25-.14-.51-.24-.77h0c-.01-.13,0-.25,.04-.36h0c-.03,.11-.05,.23-.03,.36,1.16,3.26,.47,6.43-.23,9.59,.48-2.17,.95-4.33,.83-6.54-.01-.23-.03-.47-.06-.71-.06-.53-.16-1.05-.31-1.58Z"/><path class="h" d="M218.19,191.33l-.46-.19h0c.15,.06,.31,.12,.46,.19Z"/><path class="h" d="M176.85,192.54c.55,.24,1.37,.29,2.72,.38,1.63-.05,2.85-.71,3.42-2.31-.92,.09-1.84,.2-2.76,.28,.92-.09,1.84-.19,2.76-.28-.58,1.6-1.79,2.26-3.42,2.32h-.04c-.38-.03-.73-.05-1.03-.07-.75-.06-1.26-.14-1.65-.3Z"/><path class="e" d="M211.11,158.62h0c-.16-.33-.36-.57-.6-.73,.24,.16,.45,.4,.6,.73Z"/><path class="e" d="M176.87,163.03c0,.72,.17,1.37,.74,1.87h0c-.56-.5-.74-1.15-.74-1.88h0Z"/><path class="e" d="M225.49,177.36c-.05,0-.1,0-.14,.02-.14,.06-.2,.24-.2,.46,0-.49,.27-.72,1.03-.18h0c-.28-.2-.5-.29-.65-.3,0,0-.02,0-.03,0Z"/><path class="e" d="M175.98,191.66c.07,.15,.15,.27,.23,.38-.08-.11-.16-.24-.23-.38Z"/><path class="e" d="M221.32,192.96c-.11,0-.21,.01-.33,.02-.22,0-.46-.01-.72-.04h0c1.01,.11,1.79-.02,2.38-.41-.07,.05-.15,.09-.23,.13-.16,.08-.33,.15-.52,.2-.18,.05-.38,.08-.59,.1Z"/><path d="M205.32,156.11c-3.84-4.52-8.64-4.49-13.74-2.74-3.04,1.04-5.83,2.6-8.39,4.53-2.46,1.87-5.19,2.95-8.26,3.2-.12,0-.24,0-.36-.02-.17-.03-.33-.06-.47-.13-.14-.07-.24-.18-.28-.37-.01-.06-.02-.13-.01-.22,.03-.7,.56-.58,1-.59,2.87-.03,5.28-1.2,7.54-2.85,3.11-2.28,6.44-4.18,10.19-5.24,5.6-1.59,10.43-.36,14.38,3.99-.37,.72-.68,1.53-1.6,.44Z"/><path d="M175.98,162.54h0c.05,.15,.14,.25,.26,.31-.12-.06-.21-.16-.26-.31Z"/><path d="M226.21,177.31s-.09-.04-.14-.05c-1.77-3.87-2.3-8.11-4.27-11.93-2.18-4.25-5.13-7.46-10.49-7.76-1.14-.06-1.42-.62-1.47-1.51,2.71-.04,5,.51,6.94,1.55,.28,.15,.55,.31,.81,.47,.28,.18,.55,.37,.82,.57,.26,.2,.52,.41,.77,.63,.25,.22,.49,.45,.73,.69,1.29,1.32,2.37,2.94,3.27,4.8,1.19,2.45,2.09,4.99,2.73,7.62,.31,1.27,.68,2.53,1.36,3.69,.28,.48,1.05,.95,.58,1.51-.58,.69-1.1-.06-1.65-.28,.14-.53,.71-.89,.89-1.4-.19,.52-.75,.87-.89,1.4Z"/><path d="M227.1,175.91c-.19,.52-.75,.87-.89,1.4h0c.15-.53,.71-.89,.89-1.4Z"/><path d="M179.31,190.96c-.53,.04-1.15-.03-1.15-.73,0-.62,.61-.59,1.05-.59,4.54,.04,7.19-2.66,9.06-6.33,1.3-2.54,2.31-5.23,3.56-7.79,1.65-3.36,2.86-3.87,6.36-2.92,.58,1,.35,1.68-.83,1.17-2-.87-3.2,.01-3.98,1.6-1.53,3.12-2.91,6.31-4.4,9.57,1.43,.17,2.75-.08,3.95,.53,.37,.19,.73,.37,.6,.83-.14,.49-.58,.49-.96,.34-2.74-1.06-4.87-.24-6.74,1.92-.74,.85-1.89,1.35-2.85,2.01-.92,.09-1.84,.2-2.76,.28-.31,.03-.61,.06-.92,.08Z"/><path d="M210.46,174.33c1.53,1.85,2.16,4.12,2.82,6.35,.63,2.11,1.11,4.27,2.14,6.24,.89,1.69,2.12,2.93,4.19,3.1,.57,.05,1.59-.27,1.56,.65-.04,1.03-1.09,.59-1.73,.67-.38,.05-.77,.02-1.15,.03l-.1-.04c-.15-.06-.31-.12-.46-.19l-.09-.12-.15,.02c-2.92-1.87-3.91-4.91-4.88-7.96-.61-1.91-1.13-3.86-1.85-5.73-.75-1.96-1.85-3.63-4.35-3.55-.54,.02-.81-.35-.95-.82,1.76-.6,3.02-.48,4.2,.52,.27,.23,.54,.51,.81,.83Z"/><path d="M208.69,163.41c-1.35,1.52-1.79,3.44-2.29,5.31-.13,.48-.22,.93-.84,.79-.52-.12-.47-.59-.4-.95,.41-2.12,.98-4.18,2.42-5.88,.25-.29,.53-.62,.99-.42,.25,.11,.4,.32,.35,.72-.04,.09-.09,.29-.22,.43Z"/><path d="M175.98,162.54c-.35-.07-.69-.14-1.04-.22-.32-.07-.74-.19-.74-.51,0-.38,.41-.29,.85-.21,1.71,.31,3.44,.66,5.01,.4,.14-.02,.33,.01,.41,.02,.35,.09,.5,.24,.55,.41,.08,.31-.26,.36-.56,.4-1.42,.2-2.93,.02-4.47-.29,0-.02-.01-.04-.02-.06,0,.02,.01,.04,.02,.06Z"/><path d="M175.96,162.49s.01,.04,.02,.06h0s-.01-.04-.02-.06Z"/><path d="M198.26,167.52c-.06-.28,.1-.42,.35-.5,.46-.14,.74,.09,.99,.3,1.43,1.19,2.01,2.63,2.42,4.12,.07,.25,.12,.59-.4,.67-.62,.1-.71-.22-.84-.56-.51-1.31-.94-2.66-2.29-3.72-.12-.1-.17-.24-.22-.3Z"/><path d="M200.59,192.83c.4,.27,.3,.65,.13,1.03-.51,1.19-.86,2.42-1.18,3.68-.46,1.82-.16,3.31,1.34,4.52,.66,.54,1.28,1.14,1.13,2.49-.09,.2-.24,.79-.59,1.23-.38,.48-.65,1.59-1.52,1.01-.81-.55,.11-1.13,.45-1.58,.71-.95,.41-1.57-.39-2.31-2.19-2.05-2.27-7.69-.22-9.84,.24-.25,.52-.44,.84-.23Z"/><path d="M208.07,197.44c-.93,0-1.68-.96-1.68-2.39,0-1.5,.22-3.05,1.68-3.05,.61,0,1.13,.52,1.43,1.29l-.89,1.43,1.04,.93c-.24,1.04-.85,1.79-1.58,1.79Z"/><path d="M190.67,197.44c-.93,0-1.68-.96-1.68-2.39,0-1.5,.22-3.05,1.68-3.05,.61,0,1.13,.52,1.43,1.29l-.89,1.43,1.04,.93c-.24,1.04-.85,1.79-1.58,1.79Z"/><path d="M206.12,186.6c-.31,.15-.63,0-.83-.31-.19-.3,.03-.49,.19-.67,1.06-1.15,5.77-1.01,6.84,.2,.12,.14,.2,.3,.28,.41-.09,.6-.53,.72-.87,.55-1.85-.95-3.69-1.09-5.6-.18Z"/><path d="M222.3,197.9c.3-.16,.7,.16,.62,.52-.19,.91-.78,1.59-1.44,2.13-.48,.05-.76-.19-.69-.53,.19-.9,.68-1.68,1.51-2.11Z"/><path d="M178.39,200.57c-1.07-.24-1.34-1.25-1.74-2.08-.15-.32,.25-.67,.56-.58,.95,.29,1.18,1.25,1.65,1.87,.04,.47-.15,.86-.47,.79Z"/><path class="e" d="M217.73,191.14h0c-.08,.08-.13,.1-.17,.08-.02,0-.03-.03-.04-.05,0-.02-.01-.04-.02-.06,0-.02,0-.04,0-.06l.15-.02,.09,.12Z"/><path class="e" d="M217.73,191.14c-.08,.08-.13,.1-.17,.08,.04,.02,.09,0,.17-.08h0Z"/><path d="M204.77,212.46c-1.33,.55-2.72,.85-4.42,.95-1.93,.04-4.1-.12-6.18-.85-.75-.26-1.45-.69-2.14-1.1-.36-.21-.47-.59-.22-.96,.25-.37,.57-.34,.96-.13,3.71,1.96,7.56,2.25,11.52,.81,.45-.17,.89-.23,1.09,.3,.2,.53-.17,.78-.61,.96Z"/><path d="M172.57,181.33c-.1-1.15-.13-2.28-.1-3.39,.01-.37,.03-.74,.06-1.1,.03-.35,.06-.69,.1-1.03,0-.04,.01-.09,.02-.13,.04-.35,.1-.71,.16-1.06,.06-.35,.13-.7,.21-1.04-.08,.34-.15,.69-.21,1.04,.06-.35,.13-.7,.21-1.04,.08-.34,.17-.69,.26-1.02,.1-.34,.2-.67,.32-1.01,.01-.04,.03-.08,.04-.12,.06-.16,.11-.32,.17-.48,.1-.27,.21-.54,.33-.8,.23-.53,.49-1.05,.78-1.56,.36-.64,.76-1.27,1.21-1.88,.45-.61,.94-1.21,1.49-1.8h0c.47,0,.95-.69,1.4-.04,.42,.63-.18,.95-.53,1.28-2.79,2.64-4.08,5.95-4.55,9.68-.57,4.61,.2,9.07,1.33,13.5,.19,.74,.34,1.32,.49,1.77,.03,.08,.06,.16,.08,.24,.03,.08,.06,.16,.1,.23,.01,.03,.03,.06,.04,.1,.07,.15,.15,.27,.23,.38,.04,.06,.09,.11,.14,.16l.02,.02h0c.06,.07,.12,.12,.19,.17,.41,.28,.99,.38,1.94,.46,.3,.02,.65,.05,1.03,.07h.04c.47,1.17-.12,1.4-1.12,1.21-1.43-.27-2.58,.16-3.41,1.35-2.13,3.02,.61,8.92,4.41,9.38-.08-.32-.2-.63-.21-.93-.01-.53-.4-1.33,.48-1.42,.62-.06,.63,.67,.74,1.17,.37,1.64,.78,3.28,1.17,4.92,1.87,8.03,6.74,13.44,14.45,16.37,1.79,.68,3.63,1.29,5.53,.64,7.32-2.48,13.09-6.71,15.67-14.31,.7-2.08,1.09-4.27,1.78-6.36,.27-.83-.21-2.45,1.07-2.32,1.06,.11-.04,1.57,.46,2.5,2.58-1.12,4.12-3.05,4.7-5.75,.73-3.39-.75-5.22-4.21-5.18-.35,0-.61-.03-.78-.11-.05-.02-.09-.05-.12-.07-.07-.06-.11-.13-.13-.21-.05-.21,.04-.49,.23-.87,.25,.03,.49,.04,.72,.04,.11,0,.22,0,.33-.02,.21-.02,.41-.05,.59-.1,.18-.05,.36-.11,.52-.2,.08-.04,.16-.09,.23-.13,.14-.09,.27-.19,.38-.31,.48-.49,.8-1.22,1-2.21,.75-3.86,2.05-7.63,1.16-11.65-.02-.1-.04-.19-.05-.28,0-.05,0-.09-.01-.13,0-.03,0-.06,0-.09,0,.03,0,.06,0,.09-.01-.27,.05-.48,.21-.55,.04-.02,.09-.03,.14-.02,0,0,.02,0,.03,0,.16,.01,.37,.1,.65,.3,.09,.26,.17,.51,.24,.77,.14,.53,.24,1.06,.31,1.58,.03,.24,.05,.47,.06,.71,.12,2.2-.35,4.37-.83,6.54-.05,.21-.09,.42-.14,.63-.11,.48-.21,.96-.31,1.45-.15,.76-.35,1.53-.67,2.23-.52,1.14-.29,1.89,.59,2.88,2.73,3.1,.84,9.39-3.5,11.33-1.64,.73-2.27,1.69-2.69,3.29-.9,3.47-2.16,6.82-4.63,9.55-.06,.06-.1,.12-.15,.19-.85,1.06-5.44,6.37-13.01,8.55-.16,.03-.31,.05-.43,.05-2.24,0-7.68-1.37-10.39-3.26-2.71-1.89-3.4-2.91-3.4-2.91,0,0-.99-.97-2.31-2.33-.29-.74-.69-1.47-1.24-2.18-1.89-2.46-2.72-5.58-3.42-8.63-.23-1-.69-1.56-1.78-1.98-4.95-1.88-6.78-7.91-3.73-12.16,.53-.74,.16-1.24,0-1.77-1.12-3.55-1.85-7.17-2.16-10.86Z"/><path d="M176.85,192.54c-.1-.04-.2-.09-.28-.15,.09,.06,.18,.11,.28,.15Z"/><path d="M176.12,166.7c.45-.61,.94-1.21,1.49-1.8h0c-.54,.58-1.04,1.18-1.49,1.8Z"/><path d="M226.17,177.67h0c.09,.26,.17,.51,.24,.77-.07-.25-.14-.51-.24-.77Z"/><path d="M226.77,180.72c-.01-.23-.03-.47-.06-.71,.03,.24,.05,.47,.06,.71Z"/><path d="M176.56,192.39c.09,.06,.18,.11,.28,.15,.39,.17,.91,.25,1.65,.3-.94-.07-1.53-.17-1.94-.46Z"/><path d="M179.53,192.91c-.38-.02-.73-.05-1.03-.07,.3,.02,.65,.05,1.03,.07Z"/><path d="M174.91,168.58c-.29,.51-.55,1.03-.78,1.56,.23-.53,.49-1.05,.78-1.56Z"/><path d="M225.52,177.36c.16,.01,.37,.1,.65,.3h0c-.28-.2-.5-.29-.65-.3Z"/><path d="M225.35,177.38c-.16,.07-.22,.28-.21,.55,0-.03,0-.06,0-.09,0-.23,.06-.4,.2-.46Z"/><path d="M225.49,177.36c-.05,0-.1,0-.14,.02,.04-.02,.09-.03,.14-.02Z"/><path d="M220.99,192.97c.11,0,.22,0,.33-.02-.11,0-.21,.01-.33,.02Z"/></g></g></g><g><path d="M235.88,214.16c0-.14,.03-.23,.08-.27,.05-.04,.14-.07,.27-.07h3.81c.05-.39,.09-.76,.12-1.11s.04-.67,.04-.96c0-.34-.05-.57-.15-.67-.1-.1-.27-.15-.5-.15h-3.32c-.13,0-.22-.02-.27-.07-.05-.04-.08-.14-.08-.27v-1.59c0-.14,.03-.23,.08-.27,.05-.04,.14-.07,.27-.07h4.68c.34,0,.64,.04,.88,.12s.45,.21,.6,.4c.16,.19,.27,.43,.34,.72,.07,.29,.1,.65,.09,1.08,0,.62-.06,1.31-.14,2.09s-.2,1.59-.33,2.44-.29,1.71-.47,2.58c-.18,.87-.36,1.71-.55,2.5-.04,.14-.07,.23-.11,.29s-.12,.08-.24,.05l-1.88-.39c-.06,0-.12-.02-.17-.03-.05-.01-.09-.04-.13-.08-.04-.04-.06-.08-.06-.14,0-.06,0-.14,.03-.25,.16-.62,.32-1.27,.48-1.95,.16-.67,.3-1.35,.43-2.03h-3.44c-.13,0-.22-.02-.27-.07-.05-.04-.08-.14-.08-.27v-1.57Zm12.92,1.03c0,.14-.03,.23-.08,.27-.05,.04-.15,.07-.27,.07h-1.25v5.41c0,.14-.03,.23-.08,.27-.05,.04-.14,.07-.27,.07h-1.9c-.13,0-.22-.02-.27-.07-.05-.05-.08-.14-.08-.27v-11.93c0-.14,.03-.23,.08-.27,.05-.04,.14-.07,.27-.07h1.9c.13,0,.22,.02,.27,.07,.05,.05,.08,.14,.08,.27v4.27h1.25c.13,0,.22,.02,.27,.07,.05,.04,.08,.14,.08,.27v1.57Z"/><path d="M249.28,219.21c0-.14,.03-.23,.08-.27,.05-.04,.14-.07,.27-.07h11.44c.13,0,.22,.02,.27,.07,.05,.04,.08,.14,.08,.27v1.59c0,.14-.03,.23-.08,.27-.05,.04-.15,.07-.27,.07h-11.44c-.13,0-.22-.02-.27-.07-.05-.05-.08-.14-.08-.27v-1.59Zm11.31-2.86c.02,.14,0,.22-.07,.26-.06,.04-.16,.06-.29,.08-.62,.06-1.27,.12-1.92,.16-.66,.04-1.32,.08-1.98,.12-.66,.03-1.31,.05-1.95,.07-.64,.01-1.25,.02-1.82,.02-.87,0-1.49-.23-1.86-.7s-.56-1.21-.56-2.23v-5.12c0-.14,.03-.23,.08-.27,.05-.04,.14-.07,.27-.07h9.59c.13,0,.22,.02,.27,.07,.05,.05,.08,.14,.08,.27v1.59c0,.14-.03,.23-.08,.27-.05,.05-.14,.07-.27,.07h-7.34v2.94c0,.33,.07,.57,.2,.72,.13,.15,.38,.23,.75,.22,.99-.02,2.03-.05,3.15-.11,1.11-.05,2.2-.14,3.27-.26,.13-.02,.21,0,.26,.05s.08,.15,.09,.29l.14,1.57Z"/><path d="M266.8,211.5c0-.22-.04-.37-.13-.45-.09-.08-.21-.12-.37-.12h-3.48c-.13,0-.22-.02-.27-.07-.05-.04-.08-.14-.08-.27v-1.59c0-.14,.03-.23,.08-.27,.05-.04,.14-.07,.27-.07h5.12c.61,0,1.02,.2,1.25,.6h2.17v-.26c0-.14,.03-.23,.08-.27,.05-.04,.14-.07,.27-.07h1.9c.13,0,.22,.02,.27,.07,.05,.05,.08,.14,.08,.27v5.29c0,.14-.03,.23-.08,.27-.05,.05-.15,.07-.27,.07h-1.9c-.13,0-.22-.02-.27-.07-.05-.04-.08-.13-.08-.27v-.42h-2.26c-.02,.08-.03,.16-.03,.24,0,.08-.02,.16-.03,.24-.02,.14-.05,.23-.09,.29-.04,.05-.13,.07-.26,.05l-1.84-.2c-.13-.02-.22-.06-.29-.12-.06-.06-.08-.17-.05-.33,.12-.6,.2-1.11,.24-1.53,.04-.42,.07-.76,.07-1.02Zm7.32,9.48c.02,.11,0,.18-.07,.2s-.16,.05-.28,.07c-.62,.06-1.24,.11-1.85,.15-.61,.04-1.24,.07-1.89,.09-.65,.02-1.33,.04-2.04,.05-.71,0-1.48,.01-2.3,.01s-1.46-.17-1.84-.52-.58-.91-.58-1.69v-1.59c0-.13,.03-.21,.08-.26,.05-.04,.14-.07,.27-.07h8v-.52h-8c-.13,0-.22-.02-.27-.07-.05-.04-.08-.13-.08-.26v-1.04c0-.14,.03-.23,.08-.27,.05-.04,.14-.07,.27-.07h9.99c.13,0,.22,.02,.27,.07,.05,.05,.08,.14,.08,.27v3.24c0,.14-.03,.23-.08,.27-.05,.04-.15,.07-.27,.07h-8v.15c0,.21,.05,.33,.16,.38s.28,.07,.5,.07c.76,0,1.47,0,2.13-.01,.67,0,1.3-.02,1.9-.04,.6-.02,1.17-.04,1.72-.07,.55-.03,1.09-.06,1.62-.11,.23,0,.34,.08,.35,.26l.12,1.23Zm-4.75-9.78c-.02,.24-.03,.48-.04,.73h2.02v-.73h-1.98Z"/><path d="M275.6,209c0-.14,.03-.23,.08-.27,.05-.04,.14-.07,.27-.07h5.48c.13,0,.22,.02,.27,.07,.05,.05,.08,.14,.08,.27v1.59c0,.14-.03,.23-.08,.27-.05,.05-.14,.07-.27,.07h-1.45v4.92c0,.26,.02,.52,.07,.77,.04,.25,.12,.48,.23,.69,.11,.21,.25,.4,.44,.57s.42,.3,.7,.39c.04,0,.08,.02,.13,.03,.05,.01,.1,.03,.14,.06,.04,.03,.08,.07,.12,.13,.03,.06,.05,.14,.05,.25v1.5c0,.16-.04,.26-.13,.29-.09,.03-.16,.04-.22,.03-.21-.03-.44-.07-.68-.14-.25-.06-.5-.15-.75-.27-.25-.12-.49-.26-.73-.44-.24-.18-.46-.39-.66-.64-.2,.25-.42,.47-.66,.64-.24,.18-.48,.32-.73,.44-.25,.12-.49,.21-.74,.27s-.47,.11-.68,.14c-.06,0-.14,0-.22-.03-.09-.03-.13-.13-.13-.29v-1.5c0-.11,.02-.19,.05-.25,.03-.06,.07-.1,.12-.13s.09-.05,.14-.06c.05-.01,.09-.02,.13-.03,.28-.09,.51-.22,.7-.39s.33-.36,.44-.57c.11-.21,.19-.44,.23-.69s.07-.5,.07-.77v-4.92h-1.44c-.13,0-.22-.02-.27-.07-.05-.04-.08-.14-.08-.27v-1.59Zm5.1,4.61c0-.14,.03-.23,.08-.27,.05-.04,.14-.07,.27-.07h1.38v-4.27c0-.14,.03-.23,.08-.27,.05-.04,.14-.07,.27-.07h1.7c.13,0,.22,.02,.27,.07,.05,.05,.08,.14,.08,.27v11.93c0,.14-.03,.23-.08,.27-.05,.04-.15,.07-.27,.07h-1.7c-.13,0-.22-.02-.27-.07-.05-.05-.08-.14-.08-.27v-5.41h-1.38c-.13,0-.22-.02-.27-.07-.05-.04-.08-.14-.08-.27v-1.57Zm5.02,7.66c-.13,0-.22-.02-.27-.07-.05-.05-.08-.14-.08-.27v-11.93c0-.14,.03-.23,.08-.27,.05-.04,.14-.07,.27-.07h1.7c.13,0,.22,.02,.27,.07,.05,.05,.08,.14,.08,.27v11.93c0,.14-.03,.23-.08,.27-.05,.04-.15,.07-.27,.07h-1.7Z"/><path d="M293.24,209c0-.14,.03-.23,.08-.27,.05-.04,.14-.07,.27-.07h4.68c.34,0,.64,.04,.88,.12s.45,.21,.6,.4c.16,.19,.27,.43,.34,.72,.07,.29,.1,.65,.09,1.08,0,.62-.06,1.31-.14,2.09s-.2,1.59-.33,2.44-.29,1.71-.47,2.58c-.18,.87-.36,1.71-.55,2.5-.04,.14-.07,.23-.11,.29s-.12,.08-.24,.05l-1.88-.39c-.06,0-.12-.02-.17-.03-.05-.01-.09-.04-.13-.08-.04-.04-.06-.08-.06-.14,0-.06,0-.14,.03-.25,.19-.69,.37-1.41,.54-2.18s.32-1.51,.45-2.25c.13-.74,.24-1.44,.32-2.11,.08-.67,.12-1.26,.12-1.76,0-.34-.05-.57-.15-.67-.1-.1-.27-.15-.5-.15h-3.32c-.13,0-.22-.02-.27-.07-.05-.04-.08-.14-.08-.27v-1.59Zm12.92,6.18c0,.14-.03,.23-.08,.27-.05,.04-.15,.07-.27,.07h-1.25v5.41c0,.14-.03,.23-.08,.27-.05,.04-.14,.07-.27,.07h-1.9c-.13,0-.22-.02-.27-.07-.05-.05-.08-.14-.08-.27v-11.93c0-.14,.03-.23,.08-.27,.05-.04,.14-.07,.27-.07h1.9c.13,0,.22,.02,.27,.07,.05,.05,.08,.14,.08,.27v4.27h1.25c.13,0,.22,.02,.27,.07,.05,.04,.08,.14,.08,.27v1.57Z"/><path d="M306.63,214.41c0-.14,.03-.23,.08-.27,.05-.04,.14-.07,.27-.07h11.44c.13,0,.22,.02,.27,.07,.05,.04,.08,.14,.08,.27v1.59c0,.14-.03,.23-.08,.27-.05,.04-.15,.07-.27,.07h-11.44c-.13,0-.22-.02-.27-.07-.05-.04-.08-.14-.08-.27v-1.59Zm6.07,7.57c-1.76,0-3.08-.2-3.96-.61-.88-.41-1.32-1.05-1.32-1.94s.45-1.53,1.34-1.93c.89-.4,2.2-.6,3.94-.6s3.05,.2,3.94,.6c.89,.4,1.34,1.05,1.34,1.93s-.44,1.53-1.32,1.94c-.88,.41-2.2,.61-3.96,.61Zm5.25-9.21c.02,.14,0,.22-.07,.26-.06,.04-.16,.06-.29,.08-.62,.06-1.27,.12-1.93,.16-.67,.05-1.33,.08-1.98,.12-.66,.03-1.3,.05-1.95,.07s-1.25,.02-1.83,.02c-.87,0-1.49-.23-1.86-.7s-.56-1.21-.56-2.23v-1.55c0-.14,.03-.23,.08-.27,.05-.04,.14-.07,.27-.07h1.9c.13,0,.22,.02,.27,.07,.05,.05,.08,.14,.08,.27v1.29c0,.33,.07,.57,.2,.72,.13,.15,.38,.23,.75,.22,.99-.02,2.04-.05,3.15-.11,1.12-.05,2.21-.14,3.27-.26,.13-.02,.21,0,.26,.05,.04,.05,.08,.15,.09,.28l.14,1.57Zm-5.25,7.19c.54,0,.99,0,1.33-.03,.34-.02,.61-.05,.81-.1,.2-.04,.34-.1,.41-.17,.08-.07,.12-.15,.12-.25,0-.09-.04-.17-.12-.24s-.21-.12-.41-.17c-.2-.04-.47-.08-.81-.1-.34-.02-.79-.03-1.33-.03s-.99,.01-1.33,.03-.61,.06-.81,.1c-.2,.05-.34,.1-.41,.17-.08,.07-.12,.15-.12,.24,0,.1,.04,.18,.12,.25,.08,.07,.21,.12,.41,.17,.2,.05,.47,.08,.81,.1,.34,.02,.79,.03,1.33,.03Z"/><path d="M319.43,209.51c0-.14,.03-.23,.08-.27,.05-.04,.14-.07,.27-.07h2.33v-.49c0-.14,.03-.23,.08-.27,.05-.04,.14-.07,.27-.07h1.9c.13,0,.22,.02,.27,.07,.05,.05,.08,.14,.08,.27v.49h2.31c.13,0,.22,.02,.27,.07,.05,.04,.08,.14,.08,.27v1.31c0,.14-.03,.23-.08,.27-.05,.05-.14,.07-.27,.07h-7.24c-.13,0-.22-.02-.27-.07-.05-.04-.08-.14-.08-.27v-1.31Zm3.99,6.14c-.74,0-1.35-.05-1.83-.15-.48-.1-.86-.24-1.13-.42-.28-.18-.47-.4-.57-.65-.1-.25-.16-.53-.16-.83s.05-.59,.16-.83c.11-.25,.3-.46,.58-.64,.28-.18,.66-.32,1.13-.42s1.08-.15,1.81-.15,1.34,.05,1.81,.15,.85,.24,1.13,.42c.28,.18,.47,.4,.58,.64,.11,.25,.16,.53,.16,.83s-.05,.57-.16,.83c-.1,.25-.29,.47-.57,.65s-.65,.32-1.13,.42c-.48,.1-1.09,.15-1.83,.15Zm7.58,4.29c0,.57-.12,.98-.37,1.23s-.61,.38-1.1,.38h-7.77c-.49,0-.85-.13-1.1-.38s-.37-.66-.37-1.23v-3.47c0-.14,.03-.23,.08-.27,.05-.05,.14-.07,.27-.07h1.9c.13,0,.22,.02,.27,.07,.05,.04,.08,.13,.08,.27v.52h5.49v-.52c0-.14,.03-.23,.08-.27,.05-.05,.14-.07,.27-.07h1.9c.13,0,.22,.02,.27,.07,.05,.04,.08,.13,.08,.27v3.47Zm-7.58-5.9c.35,0,.63-.03,.82-.09s.29-.18,.29-.35-.09-.29-.26-.35-.46-.09-.85-.09-.68,.03-.85,.09c-.17,.06-.26,.18-.26,.35s.1,.29,.29,.35,.47,.09,.82,.09Zm4.58,5.57c.15,0,.26-.03,.31-.09,.05-.06,.08-.17,.08-.35v-.33h-5.49v.33c0,.17,.03,.29,.08,.35,.05,.06,.16,.09,.31,.09h4.7Zm.75-4.03c-.13,0-.22-.02-.27-.07-.05-.04-.08-.14-.08-.27v-6.24c0-.14,.03-.23,.08-.27,.05-.04,.14-.07,.27-.07h1.9c.13,0,.22,.02,.27,.07,.05,.05,.08,.14,.08,.27v1.91h1.25c.13,0,.22,.02,.27,.07,.05,.04,.08,.14,.08,.27v1.57c0,.14-.03,.23-.08,.27-.05,.04-.15,.07-.27,.07h-1.25v2.08c0,.13-.03,.23-.08,.27-.05,.05-.14,.07-.27,.07h-1.9Z"/><path d="M336.92,218.35c.67-.02,1.31-.04,1.92-.07,.62-.03,1.26-.08,1.94-.14,.13-.02,.21,0,.26,.05,.04,.05,.08,.14,.09,.28l.14,1.57c.02,.14,0,.22-.07,.26s-.16,.06-.28,.08c-.9,.07-1.76,.13-2.58,.17-.83,.04-1.67,.06-2.54,.06s-1.49-.23-1.86-.7c-.38-.47-.56-1.21-.56-2.23,0-.8,0-1.56,.01-2.3s.02-1.46,.03-2.17,.03-1.4,.05-2.09,.05-1.39,.09-2.09c0-.14,.04-.23,.09-.27,.05-.04,.14-.07,.26-.07h1.86c.13,0,.22,.02,.28,.07,.06,.05,.08,.14,.08,.27-.03,.69-.05,1.37-.08,2.04-.03,.67-.05,1.35-.06,2.04-.01,.69-.02,1.39-.03,2.1s0,1.46,.02,2.22c0,.33,.08,.57,.21,.72s.38,.23,.74,.22Zm5.69,2.93c-.13,0-.22-.02-.27-.07-.05-.05-.08-.14-.08-.27v-11.93c0-.14,.03-.23,.08-.27,.05-.04,.14-.07,.27-.07h1.9c.13,0,.22,.02,.27,.07,.05,.05,.08,.14,.08,.27v11.93c0,.14-.03,.23-.08,.27-.05,.04-.15,.07-.27,.07h-1.9Z"/><path d="M349.47,210.85c-.05,1.06-.07,2.12-.08,3.18,0,1.06,0,2.19,.01,3.38,0,.33,.08,.57,.21,.72s.38,.23,.74,.22c.67-.02,1.31-.04,1.93-.07,.61-.03,1.26-.08,1.94-.14,.13-.02,.21,0,.26,.05,.04,.05,.08,.14,.09,.28l.14,1.57c.02,.14,0,.22-.07,.26-.06,.04-.16,.06-.28,.08-.89,.07-1.76,.13-2.58,.17-.83,.04-1.67,.06-2.54,.06s-1.49-.23-1.86-.7c-.38-.47-.56-1.21-.56-2.23,0-.8,0-1.56,.01-2.3s.02-1.46,.03-2.17,.03-1.4,.05-2.09c.02-.69,.05-1.39,.09-2.09,0-.14,.04-.23,.09-.27,.05-.04,.14-.07,.26-.07h6.45c.13,0,.22,.02,.27,.07,.05,.05,.08,.14,.08,.27v1.5c0,.14-.03,.23-.08,.27-.05,.04-.14,.07-.27,.07h-4.33Zm10.25,4.34c0,.14-.03,.23-.08,.27-.05,.04-.15,.07-.27,.07h-1.25v5.41c0,.14-.03,.23-.08,.27-.05,.04-.14,.07-.27,.07h-1.9c-.13,0-.22-.02-.27-.07-.05-.05-.08-.14-.08-.27v-11.93c0-.14,.03-.23,.08-.27,.05-.04,.14-.07,.27-.07h1.9c.13,0,.22,.02,.27,.07,.05,.05,.08,.14,.08,.27v4.27h1.25c.13,0,.22,.02,.27,.07,.05,.04,.08,.14,.08,.27v1.57Z"/><path d="M361.17,221.45c-.13,0-.22-.02-.27-.07-.05-.04-.08-.14-.08-.27v-1.71c0-.14,.03-.23,.08-.27,.05-.04,.14-.07,.27-.07h1.82c.13,0,.22,.02,.27,.07,.05,.05,.08,.14,.08,.27v1.71c0,.14-.03,.23-.08,.27-.05,.04-.15,.07-.27,.07h-1.82Z"/></g></g></svg>