<?xml version="1.0" encoding="UTF-8"?><svg xmlns="http://www.w3.org/2000/svg" xmlns:xlink="http://www.w3.org/1999/xlink" viewBox="0 0 400 356"><defs><style>.d{fill:#fff;}.e{fill:#4daaff;}.f{fill:#0d386d;}.g{fill:#557cbd;}.h{fill:#040000;}.i{opacity:.2;}.j{clip-path:url(#b);}.k{fill:#2756a2;}.l{fill:#7cecff;}.m{fill:#b5f2ff;}.n{fill:none;}.o{fill:#231815;}.p{fill:#383749;}</style><clipPath id="b"><path class="n" d="M210.34,83.93c-118.56,0-187.96,68.43-175.35,143.15,12.61,74.71,91.46,108.63,175.35,97.32,83.89-11.3,160.96-35.36,171.24-97.32,10.28-61.96-72.96-148.29-162.37-143.15"/></clipPath></defs><g id="a"><rect class="d" x="-9.3" y="-7.21" width="416.21" height="370.43"/><g class="j"><g class="i"><path class="g" d="M210.34,83.93c-118.56,0-187.96,68.43-175.35,143.15,12.61,74.71,91.46,108.63,175.35,97.32,83.89-11.3,160.96-35.36,171.24-97.32,10.28-61.96-72.96-148.29-162.37-143.15"/></g><g><path class="d" d="M192.15,202.45c-5.71-6.85-11.3-6.39-15.64-13.7-.63-1.06-1.22-1.9-1.76-2.56,.24-4.48-1.21-11.04-2.92-13.77-1.94-3.08-4.11-1.37-5.94,0-1.83,1.37-2.06,9.13-3.88,15.07-1.83,5.94-2.97,7.31-4.57,10.85s-4.11,10.85-6.39,18.16c-2.28,7.31-3.2,12.56-3.43,18.95-.23,6.39-.23,15.76-3.65,21.47s-15.3,20.32-22.61,32.66c-7.31,12.33-28.77,50.01-28.77,50.01l25.58-6.28,1.26-6.62,24.89,19.41s17.81-46.24,22.95-54.35c5.14-8.11,8.34-10.73,11.88-12.9,3.54-2.17,22.49-14.96,25.23-24.55,2.74-9.59-6.51-44.99-12.22-51.84Z"/><path class="h" d="M144.54,346.9l-24.78-19.32-1.16,6.13-27.02,6.63,.58-1.01c.21-.38,21.55-37.83,28.78-50.02,4.41-7.44,10.47-15.7,15.34-22.34,3.17-4.33,5.92-8.06,7.27-10.32,3.07-5.12,3.34-13.47,3.53-19.57l.05-1.66c.23-6.54,1.2-11.9,3.45-19.09,2.54-8.14,4.94-14.95,6.42-18.21,.45-1.01,.87-1.84,1.28-2.65,1.01-2.01,1.97-3.92,3.27-8.14,.75-2.43,1.23-5.21,1.66-7.67,.65-3.76,1.17-6.73,2.4-7.66l.1-.07c1.24-.93,2.64-1.98,4.15-1.71,.92,.17,1.71,.8,2.41,1.92,1.78,2.83,3.2,9.39,3.01,13.87,.55,.69,1.12,1.52,1.68,2.47,2.29,3.85,4.97,5.51,7.8,7.26,2.52,1.56,5.12,3.17,7.8,6.38,5.9,7.08,15.06,42.69,12.31,52.3-3.06,10.71-25.23,24.7-25.45,24.84-3.13,1.92-6.39,4.34-11.71,12.74-5.05,7.97-22.73,53.8-22.91,54.26l-.24,.63Zm-25.45-21.12l25.01,19.5c2.24-5.79,17.91-46.17,22.75-53.81,4.93-7.77,8.14-10.68,12.04-13.06,4.63-2.84,22.45-15.28,25.02-24.26,2.61-9.14-6.48-44.62-12.12-51.38h0c-2.57-3.08-5.1-4.65-7.55-6.17-2.94-1.82-5.73-3.54-8.14-7.6-.58-.97-1.16-1.81-1.72-2.5l-.12-.15v-.19c.24-4.24-1.15-10.79-2.83-13.48-.55-.87-1.12-1.35-1.75-1.47-1.08-.2-2.29,.72-3.37,1.53l-.1,.08c-.91,.68-1.45,3.76-2.02,7.03-.43,2.49-.92,5.3-1.69,7.79-1.32,4.3-2.3,6.24-3.33,8.29-.4,.8-.81,1.62-1.26,2.61-1.46,3.23-3.84,9.99-6.37,18.1-2.22,7.1-3.17,12.38-3.4,18.82l-.05,1.66c-.2,6.21-.46,14.71-3.67,20.05-1.38,2.29-4.13,6.05-7.32,10.4-4.86,6.62-10.9,14.86-15.29,22.26-6.55,11.06-24.72,42.9-28.19,49l24.14-5.93,1.35-7.11Z"/></g><path class="h" d="M93.02,339.83l-.87-.49c.21-.38,21.55-37.83,28.78-50.02,4.41-7.44,10.47-15.7,15.34-22.34,3.17-4.33,5.92-8.06,7.27-10.32,3.07-5.12,3.34-13.47,3.53-19.57l.05-1.66c.23-6.54,1.2-11.9,3.45-19.09,2.54-8.14,4.94-14.95,6.42-18.21,.45-1.01,.87-1.84,1.28-2.65,1.01-2.01,1.97-3.92,3.27-8.14,.75-2.43,1.23-5.21,1.66-7.67,.65-3.76,1.17-6.73,2.4-7.66l.1-.07c1.24-.93,2.64-1.98,4.15-1.71,.92,.17,1.71,.8,2.41,1.92,1.95,3.1,3.66,11.14,2.81,15.77-.18,.99-.53,2.44-.97,4.27-1.43,5.98-3.83,16-3.14,22.19,.19,1.68,.81,4.04,1.53,6.79,2.68,10.23,7.17,27.36-2.88,40.61l-.8-.6c9.76-12.87,5.52-29.05,2.71-39.76-.73-2.78-1.36-5.18-1.55-6.93-.72-6.37,1.71-16.49,3.16-22.54,.42-1.75,.78-3.25,.96-4.22,.79-4.31-.83-12.13-2.67-15.06-.55-.87-1.12-1.35-1.75-1.47-1.07-.2-2.29,.72-3.37,1.53l-.1,.08c-.91,.68-1.45,3.76-2.02,7.03-.43,2.49-.92,5.3-1.69,7.79-1.32,4.3-2.3,6.24-3.33,8.29-.4,.8-.81,1.62-1.26,2.61-1.46,3.23-3.84,9.99-6.37,18.1-2.22,7.1-3.17,12.38-3.4,18.82l-.05,1.66c-.2,6.21-.46,14.71-3.67,20.05-1.38,2.29-4.13,6.05-7.32,10.4-4.86,6.62-10.9,14.86-15.29,22.26-7.22,12.19-28.56,49.63-28.77,50Z"/><g><rect class="g" x="172.97" y="139.76" width="55.84" height="117.15" rx="3.35" ry="3.35"/><path class="o" d="M176.33,256.85c13.14-.07,34.74-.21,47.84-.42l1.32-.02c1.55-.01,2.86-1.39,2.78-2.94-.02-.77,0-3.16-.02-3.99-.19-33.24,.61-67.77,.26-101l-.04-5.32c0-.81-.32-1.6-.89-2.16-.56-.57-1.35-.89-2.14-.88-14.18,.08-28.35,.23-42.53,.26l-5.32,.02h-1.32c-1.08,0-2.1,.73-2.47,1.74-.28,.52-.15,1.79-.17,2.39,.06,23.36,.07,48.48-.23,71.76-.08,7.35-.33,24.75-.33,31.89l-.02,5.32c-.06,1.77,1.48,3.37,3.26,3.34h0Zm0,.13c-1.86,.04-3.5-1.61-3.45-3.47l-.02-5.32c-.3-31.26-.71-64.41-.58-95.68,.02-1.53,.01-6.44,.03-7.97v-1.33c0-.49,.09-1.05,.28-1.54,.57-1.5,2.09-2.56,3.69-2.56h1.34c15.93,.03,31.91,.18,47.84,.28,2-.03,3.76,1.77,3.68,3.77l-.04,5.32c-.34,33.22,.46,67.77,.26,101v2.66l-.02,1.33c.07,2.07-1.74,3.99-3.84,3.94h-1.34c-13.08-.17-34.73-.42-47.84-.43h0Z"/></g><rect class="d" x="229.16" y="201.43" width=".68" height="10.16"/><g><path class="d" d="M228.81,200.75s2.4,1.58,4.11,2.61,3.77,3.43,2.63,5.82-3.54,6.07-6.74,6.07c-1.26,0-3.43-1.96-2.85-4.12s1.27-6.04,3.89-6.61"/><path class="h" d="M228.81,215.75c-.84,0-1.88-.62-2.6-1.55-.76-.99-1.02-2.12-.74-3.2l.17-.68c.57-2.27,1.42-5.71,4.09-6.29l.21,.98c-2.06,.45-2.8,3.4-3.33,5.56l-.17,.69c-.27,1.04,.24,1.91,.57,2.33,.58,.76,1.37,1.16,1.8,1.16,3.28,0,5.64-4.42,6.29-5.78,1.01-2.12-.9-4.26-2.43-5.18-1.7-1.02-4.11-2.61-4.13-2.62l.55-.83s2.41,1.59,4.09,2.6c1.85,1.11,4.12,3.74,2.82,6.47-.91,1.91-3.43,6.35-7.19,6.35Z"/></g><rect class="d" x="225.86" y="220.26" width="6.6" height="13.25"/><g><path class="d" d="M228.81,234.19s4.72-1.37,6.01-3.31,1.72-7.08,1.05-7.99-2.31-2.63-3.38-2.63-5.13-.69-6.64,0-1.62,6.39,2.26,8.11,4.57,1.71,4.57,1.71"/><path class="h" d="M228.95,234.67l-.28-.96c1.26-.37,4.76-1.64,5.74-3.11,1.25-1.88,1.55-6.76,1.07-7.42-.73-.99-2.21-2.42-2.97-2.42-.3,0-.78-.05-1.39-.11-1.52-.15-4.05-.39-5.04,.06-.33,.15-.69,.97-.68,2.19,0,1.72,.78,4.06,2.94,5.01,3.57,1.58,4.36,1.67,4.39,1.67l-.03,1c-.19,0-1.08-.13-4.77-1.76-2.59-1.14-3.52-3.9-3.53-5.92,0-1.55,.48-2.74,1.26-3.1,1.23-.56,3.73-.32,5.55-.15,.57,.05,1.03,.1,1.3,.1,1.39,0,3.2,2.04,3.78,2.83,.82,1.12,.33,6.51-1.04,8.57-1.38,2.07-6.09,3.46-6.29,3.51Z"/></g><g><path class="d" d="M222.73,141.48h-10.06l-.31,2.28h-22.15l-.28-2.28h-10.89c-1.85,0-3.35,1.5-3.35,3.35v107.02c0,1.85,1.5,3.35,3.35,3.35h43.69c1.85,0,3.35-1.5,3.35-3.35v-107.02c0-1.85-1.5-3.35-3.35-3.35Z"/><path class="h" d="M222.73,255.7h-43.69c-2.12,0-3.85-1.73-3.85-3.85v-107.02c0-2.12,1.73-3.85,3.85-3.85h11.33l.28,2.28h21.27l.31-2.28h10.5c2.12,0,3.85,1.73,3.85,3.85v107.02c0,2.12-1.73,3.85-3.85,3.85Zm-43.69-113.73c-1.57,0-2.85,1.28-2.85,2.85v107.02c0,1.57,1.28,2.85,2.85,2.85h43.69c1.57,0,2.85-1.28,2.85-2.85v-107.02c0-1.57-1.28-2.85-2.85-2.85h-9.62l-.31,2.28h-23.03l-.28-2.28h-10.45Z"/></g><g><path class="d" d="M211.34,225.74c-1.83,.34-2.4,3.54-2.63,4.91s0,0,0,.57-1.14,10.28-1.14,10.28c0,0-.11,.46-.79,2.74s-1.91,5.6,0,9.25,3.42,16.44,6.62,23.07c3.2,6.62,12.1,18.73,17.15,24.44,5.04,5.71,5.01,12.1,5.65,21.24,.64,9.13-3.61,31.97-3.61,33.34l18.5,7.31,9.82-13.25-1.37-52.3-16.67-25.13"/><path class="h" d="M211.36,225.84c-.67,.16-1.14,.73-1.45,1.34-.61,1.28-.81,2.71-1,4.12,0,0,0,0,0-.05-1.03-.35-.35,0-.57-.1v-.03l.02-.08,.02-.05s0-.03,.08-.13c-.01,0,.1-.1,.22-.09,.09-.01,.23,.08,.26,.14,.07,.12,.06,.18,.07,.28-.22,3.48-.56,6.97-.92,10.44-1.24,4.75-2.85,7.84-.21,12.49l.34,.94c1.61,5.24,2.49,10.63,4.03,15.76,1.29,4.89,3.94,9.17,6.68,13.38,2.77,4.24,5.68,8.42,8.78,12.45,1.53,2.08,3.28,3.89,4.73,6.05,1.43,2.2,2.33,4.69,2.84,7.22,.89,5.08,1.15,10.16,1.28,15.3-.28,9.56-1.79,19.09-3.06,28.56l-.12,.94-.06,.46-.03,.39-.46-.67c4.63,1.73,13.96,5.35,18.57,7.11l-1.09,.31,9.74-13.31-.2,.65c-.3-7.83-.49-18.46-.68-26.15-.19-8.72-.27-17.44-.42-26.15l.13,.4-8.11-12.71c-2.02-3.18-6.02-9.59-8.01-12.78l.17-.11c2.16,3.07,6.52,9.26,8.66,12.35l8.56,12.41,.12,.17c.32,8.79,.69,17.58,.96,26.37,.33,7.8,.48,18.63,.7,26.51l-.21,.28-9.9,13.18-.44,.58-.66-.27c-4.87-2.01-14.08-5.69-18.93-7.71,.23-2.33,.94-5.76,1.32-8.12,1.24-7.51,2.55-15.09,2.79-22.7-.05-5.02-.33-10.21-1.31-15.14-.54-2.46-1.48-4.82-2.92-6.85-1.47-2.02-3.34-3.84-4.91-5.82-5.23-6.48-10.42-13.1-14.23-20.56-2.9-6.46-3.72-13.65-5.52-20.42-.11-.42-.4-1.34-.55-1.76-2.61-4.88-.92-8.49,.58-13.31-.05,.33,1.16-8.53,1.15-8.47l.14-1.07,.06-.52c0-.06,.01-.1,0-.16,0,0,0,0,0,.01,.01,.08,.15,.23,.29,.21,.17,0,.24-.12,.26-.15-.02,.04-.04,.1-.05,.15l-.02,.04c-.21-.09,.46,.26-.57-.1,.24-1.48,.54-2.98,1.29-4.3,.38-.64,.95-1.24,1.72-1.37l.04,.2h0Z"/></g><rect class="d" x="229.16" y="185.58" width=".68" height="4.02"/><g><path class="k" d="M209.73,192.37c-.16,.25-.36,.48-.56,.7-1.06,1.22-2.23,2.34-3.46,3.39-.39,.33-.8,.65-1.22,.95-.53,.37-1.09,.67-1.71,.85-.48,.14-.96,.16-1.45,.07-.02,0-.05,0-.07-.01-.05-.03-.1-.07-.14-.11-.53-.51-.99-1.07-1.37-1.7-.32-.53-.58-1.08-.73-1.68-.08-.34-.15-.69-.18-1.04-.02-.24-.03-.48-.01-.72h.06c.05,0,.09,.03,.13,.06,.19,.19,.42,.34,.65,.48,.49,.28,.99,.56,1.47,.86,.36,.22,.72,.45,1.04,.74,.05,.05,.11,.06,.18,.06,.19,0,.39-.01,.58-.03,.28-.03,.56-.06,.84-.11,.48-.08,.96-.2,1.42-.35,.16-.05,.33-.08,.47-.18,.06,.02,.12-.01,.17-.04,1.28-.49,2.47-1.14,3.57-1.96,.1-.08,.2-.17,.31-.23Z"/><path class="e" d="M198.83,193.05c-.02,.24,0,.48,.01,.72,.02,.36,.09,.7,.18,1.04,.15,.6,.41,1.16,.73,1.68,.38,.63,.84,1.19,1.37,1.7,.04,.04,.09,.08,.14,.11-1.34-.21-2.5-.77-3.48-1.71-.8-.77-1.35-1.68-1.6-2.76-.14-.6-.16-1.21-.11-1.83,.05-.63,.18-1.23,.4-1.83,.27-.77,.67-1.46,1.19-2.09,.04-.05,.08-.1,.13-.14,0,.14-.02,.27-.04,.4-.02,.19-.04,.39-.04,.58,0,.38-.03,.76,.02,1.14,.02,.15,.02,.3,.05,.44,.04,.26,.09,.52,.17,.77,.13,.48,.34,.92,.62,1.32,.08,.12,.16,.24,.29,.32v.14Z"/><path class="m" d="M209.73,192.37c-.12,.06-.21,.15-.31,.23-1.1,.82-2.29,1.47-3.57,1.96-.05,.02-.11,.06-.17,.04,0-.06-.01-.12-.03-.18-.12-.36-.31-.67-.57-.94-.42-.43-.94-.69-1.52-.83-.51-.12-1.03-.18-1.56-.21-.26-.02-.53-.05-.79-.04-.03,0-.07,0-.1-.01,.05-.07,.13-.08,.21-.11,.51-.2,1.02-.4,1.52-.62,.64-.27,1.27-.56,1.89-.87,.06-.03,.1-.02,.16,0,.61,.19,1.23,.38,1.84,.57,.83,.26,1.66,.51,2.49,.76,.18,.05,.35,.11,.53,.17,.07,.02,.06,.03,0,.09Z"/><path class="l" d="M198.82,192.91c-.13-.08-.2-.2-.29-.32-.28-.4-.48-.84-.62-1.32-.07-.25-.13-.51-.17-.77-.02-.15-.03-.3-.05-.44-.04-.38-.03-.76-.02-1.14,0-.19,.02-.39,.04-.58,.02-.13,.05-.27,.04-.4,0-.03,.03-.05,.05-.08,.52-.56,1.09-1.04,1.76-1.41,.45-.25,.93-.44,1.42-.59,.3-.09,.56-.04,.77,.18,.3,.3,.31,.77,0,1.07-.16,.15-.32,.29-.48,.44-.46,.45-.85,.95-1.17,1.49-.52,.86-.9,1.78-1.13,2.77-.07,.31-.13,.62-.14,.93,0,.06-.02,.11-.03,.16Z"/><path class="e" d="M201.1,192.38s.07,.01,.1,.01c.27,0,.53,.02,.79,.04,.52,.03,1.04,.09,1.56,.21,.58,.14,1.1,.4,1.52,.83,.26,.27,.46,.58,.57,.94,.02,.06,.03,.12,.03,.18-.14,.1-.31,.13-.47,.18-.47,.15-.94,.26-1.42,.35-.28,.05-.56,.09-.84,.11-.19,.02-.39,.03-.58,.03-.07,0-.12-.01-.18-.06-.32-.28-.67-.51-1.04-.74-.48-.3-.98-.58-1.47-.86-.23-.13-.46-.28-.65-.48-.04-.04-.07-.07-.13-.07,.67-.16,1.33-.37,1.98-.61,.08-.03,.15-.05,.23-.06Z"/><path class="p" d="M207.84,202.13c.03-.05,.01-.11,.01-.16,0-.49,0-.98,0-1.47,0-.13,0-.13,.13-.13,.19,0,.37,0,.56,0,.07,0,.1,.02,.1,.09,0,.03,0,.06,0,.09,0,.92,0,1.83,0,2.75,0,.03,0,.06,0,.09,0,.06-.02,.08-.08,.08-.21,0-.42,0-.63,0-.07,0-.1-.03-.13-.08-.2-.27-.4-.54-.6-.81-.19-.26-.39-.52-.58-.78-.03-.03-.04-.08-.09-.1-.02,.04-.01,.08-.01,.11,0,.51,0,1.02,0,1.53,0,.13,0,.13-.13,.13-.18,0-.36,0-.54,0-.1,0-.11,0-.11-.11,0-.46,0-.92,0-1.38,0-.5,0-.99,0-1.49,0-.12,0-.12,.12-.12,.18,0,.36,0,.54,0,.09,0,.14,.03,.18,.1,.38,.53,.77,1.05,1.16,1.57,.03,.04,.05,.09,.1,.1Z"/><path class="p" d="M196.38,203.52c-.84,0-1.56-.63-1.65-1.41-.06-.49,.09-.92,.43-1.28,.85-.91,2.41-.58,2.81,.59,.22,.65-.02,1.36-.6,1.77-.29,.21-.63,.32-.98,.32Zm0-2.5c-.67,0-1.1,.75-.77,1.34,.2,.36,.61,.54,.98,.43,.31-.1,.52-.31,.61-.63,.16-.55-.26-1.13-.83-1.14Z"/><path class="p" d="M199.92,203.52c-.76,0-1.44-.52-1.61-1.26-.14-.58,.03-1.07,.45-1.48,.9-.87,2.43-.48,2.78,.71,.2,.69-.12,1.43-.77,1.8-.26,.15-.55,.22-.85,.22Zm.01-2.5c-.06,0-.12,0-.18,.02-.43,.1-.72,.49-.69,.94,.02,.36,.29,.71,.64,.81,.35,.1,.72-.04,.93-.35,.2-.3,.23-.62,.06-.94-.16-.3-.42-.46-.76-.48Z"/><path class="p" d="M212.6,202.5c.16,.14,.32,.28,.49,.43,.02,.02,.03,.04,.05,.06-.22,.24-.49,.39-.8,.48-.9,.24-1.84-.32-2.05-1.22-.13-.57,.04-1.06,.46-1.46,.63-.61,1.64-.63,2.29-.05,.04,.03,.08,.06,.1,.12-.17,.15-.33,.3-.5,.45-.05,.05-.08,.02-.11-.02-.1-.11-.23-.19-.38-.24-.4-.12-.83,.09-1.02,.48-.25,.54,.09,1.19,.69,1.28,.25,.04,.47-.05,.66-.22,.02-.02,.04-.04,.05-.05,.02-.02,.03-.04,.07-.05Z"/><path class="p" d="M194.07,202.49l.55,.48c-.02,.06-.06,.08-.1,.12-.92,.83-2.41,.4-2.74-.78-.16-.6,.06-1.24,.58-1.64,.68-.53,1.69-.45,2.26,.18-.09,.08-.18,.16-.27,.25-.09,.08-.19,.17-.29,.25-.2-.22-.44-.35-.74-.33-.22,.02-.4,.12-.55,.28-.34,.36-.33,.92,.03,1.27,.37,.36,.83,.33,1.27-.08Z"/><path class="p" d="M201.92,201.91c0-.47,0-.94,0-1.41,0-.13,0-.13,.13-.13,.18,0,.35,0,.53,0,.12,0,.12,0,.12,.11,0,.14,0,.27,0,.41,0,.58,0,1.15,0,1.73,0,.18-.02,.16,.16,.16,.4,0,.8,0,1.2,0,.13,0,.13,0,.13,.13,0,.16,0,.32,0,.48,0,.06-.02,.09-.08,.08-.03,0-.06,0-.09,0-.64,0-1.28,0-1.92,0-.04,0-.08,0-.12,0-.04,0-.05-.02-.05-.06,0-.03,0-.07,0-.11,0-.47,0-.93,0-1.4Z"/><path class="p" d="M209.12,201.91c0-.48,0-.95,0-1.43,0-.11,0-.12,.11-.12,.19,0,.38,0,.57,0,.07,0,.1,.03,.09,.1,0,.2,0,.39,0,.59,0,.75,0,1.49,0,2.24,0,.04,0,.07,0,.11,0,.06-.02,.08-.08,.08-.21,0-.41,0-.62,0-.07,0-.08-.03-.08-.09,0-.24,0-.48,0-.72,0-.25,0-.5,0-.75Z"/><path class="p" d="M205.26,201.93c0,.46,0,.92,0,1.38,0,.16,.02,.15-.16,.15-.15,0-.3,0-.45,0-.19,0-.16,.01-.17-.17,0-.35,0-.69,0-1.04,0-.57,0-1.14,0-1.71,0-.04,0-.08,0-.12,0-.04,.02-.06,.07-.06,.21,0,.42,0,.63,0,.05,0,.08,.02,.07,.07,0,.03,0,.07,0,.11,0,.47,0,.93,0,1.4Z"/><path class="l" d="M203.27,185.31c.32,.02,.65,.06,.94,.2,.07,.03,.13,.07,.18,.13,.13,.13,.13,.26,.02,.4-.14,.17-.33,.25-.54,.29-.42,.08-.81-.03-1.19-.19-.15-.06-.29-.13-.42-.22-.21-.15-.2-.3,.03-.41,.19-.09,.4-.13,.61-.16,.12-.02,.25-.05,.37-.03Z"/><path class="d" d="M196.38,201.02c.56,0,.99,.59,.83,1.14-.09,.32-.3,.53-.61,.63-.37,.11-.78-.07-.98-.43-.33-.59,.1-1.35,.77-1.34Z"/><path class="d" d="M199.93,201.01c.34,.02,.6,.18,.76,.48,.17,.32,.14,.64-.06,.94-.21,.31-.59,.45-.93,.35-.35-.1-.62-.44-.64-.81-.02-.45,.26-.84,.69-.94,.06-.01,.12-.02,.18-.02Z"/></g><g><path class="d" d="M228.81,184.98s1.94,2.17,3.65,3.2,3.08,2.63,1.94,5.02-4.34,6.28-5.59,6.28-4.45-1.48-3.88-3.65,2.29-6.51,4.91-7.08"/><path class="h" d="M228.81,199.98c-.95,0-2.86-.71-3.84-1.99-.55-.71-.73-1.5-.52-2.29,.18-.68,1.86-6.69,5.29-7.44l.21,.98c-2.32,.51-3.98,4.62-4.54,6.72-.13,.49-.02,.96,.35,1.43,.74,.96,2.33,1.6,3.05,1.6,.85,0,3.91-3.41,5.14-6,.83-1.75,.26-3.18-1.75-4.38-1.76-1.05-3.69-3.2-3.77-3.29l.75-.67s1.91,2.13,3.54,3.1c3.11,1.86,2.88,4.11,2.14,5.67-1.04,2.19-4.39,6.57-6.05,6.57Z"/></g><g><path class="d" d="M215.79,269.59s-.46-3.43-.8-8.91-2.85-12.79-3.54-26.49c-.69-13.7-1.48-26.38-.91-29.8,.57-3.43-.8-17.13,4.45-17.58,5.25-.46,5.37,9.71,5.48,12.67s2.21,35.74,5.61,37.68,5.38-2.28,6.37-3.65,2.06-3.08,5.48-3.2,5.48,2.06,6.28,3.88,1.03,4.34,2.51,4.34,2.28-1.71,4.91-1.48,5.94,2.51,6.74,4.11,3.08,3.08,5.37,3.2,8.22-2.4,11.88,7.88c3.65,10.28,6.28,41.45,4,49.1s-3.31,9.59-3.31,17.13v7.54l-1.48,31.63-14.19-18.04"/><path class="h" d="M215.72,269.6c-.47-3.18-.75-6.4-1.02-9.59-.89-6.34-2.57-12.62-3.18-19.03-.95-9.62-1.29-19.25-1.73-28.91-.17-3.22-.04-6.46,.24-9.67,.09-3.19,.06-6.44,.56-9.7,.28-1.62,.61-3.28,1.61-4.8,.98-1.63,3.36-2.25,5.04-1.22,1.59,.96,2.28,2.69,2.77,4.34,.45,1.61,.65,3.24,.78,4.86,.23,6.46,.65,12.84,1.2,19.25,.62,6.36,1.2,12.82,2.8,19.01,.29,.92,.55,1.9,1.18,2.64,1.95,1.56,4.01,.07,5.15-1.71,.92-1.32,1.69-2.82,3.01-3.84,2.05-1.46,4.93-1.54,7.18-.5,2.38,1.07,3.46,3.58,4.13,5.92,.26,.71,.64,1.47,1.19,1.5,.62,.06,1.27-.4,1.99-.82,.72-.43,1.6-.71,2.47-.72,2.94,.1,5.83,1.73,7.58,4.09,1.24,2.37,4.16,3.48,6.72,2.97,5.87-.9,9.23,3.54,10.92,8.57,1.07,3.12,1.68,6.3,2.26,9.48,1.61,9.56,2.54,19.21,2.68,28.9-.03,3.68,.02,7.4-.92,11.01-.78,2.59-1.73,5.45-2.38,8.05-1.33,5.26-.76,11.24-.94,16.65-.39,7.73-1.27,23.49-1.69,31.31l-.07,1.35c-3.88-5.05-10.85-14.26-14.67-19.37l.12-.09c3.64,4.37,10.94,13.36,14.53,17.78l-.88,.28c.32-7.94,.92-23.59,1.25-31.3,.11-5.57-.46-11.47,.9-16.97,.67-2.69,1.6-5.49,2.38-8.14,.87-3.41,.81-7.04,.83-10.56-.12-9.59-.94-19.21-2.48-28.68-.54-3.14-1.15-6.3-2.12-9.29-1.45-4.5-4.29-8.68-9.59-7.88-2.76,.48-5.79-.68-7.35-3.05-1.26-2.36-4.39-4.18-7.04-4.31-1.71-.14-2.85,1.52-4.55,1.45-1.05-.14-1.46-1.17-1.76-1.99-.51-1.52-.83-3.05-1.93-4.24-1.01-1.15-2.46-1.91-4.01-2.04-3.96-.36-5.42,1.7-7.33,4.74-1.3,2.02-3.71,3.55-5.88,1.74-.68-.81-.97-1.86-1.29-2.82-1.69-6.24-2.25-12.68-3.01-19.08-.68-6.39-1.24-12.83-1.58-19.22-.15-1.58-.39-3.15-.83-4.63-.44-1.45-1.13-2.94-2.29-3.6-1.17-.65-2.69-.36-3.42,.87-.79,1.19-1.14,2.76-1.38,4.29-.47,3.11-.41,6.31-.5,9.55-.04,1.63-.37,3.16-.35,4.8,.1,11.2,.68,22.47,1.43,33.65,.48,6.31,2.08,12.78,2.74,19.08,.18,3.22,.36,6.42,.7,9.62l-.15,.02h0Z"/></g></g><g><path class="f" d="M158.04,55.13c.05,.37-.01,.6-.18,.7s-.43,.17-.77,.22c-1.56,.17-3.15,.31-4.78,.42-1.62,.11-3.25,.21-4.89,.31v5.16h11.93c.34,0,.58,.06,.73,.18s.22,.37,.22,.73v4.28c0,.37-.07,.61-.22,.73s-.39,.18-.73,.18h-30.89c-.34,0-.58-.06-.73-.18s-.22-.37-.22-.73v-4.28c0-.37,.07-.61,.22-.73s.39-.18,.73-.18h11.93v-4.94c-.71,.02-1.4,.04-2.07,.04h-1.96c-2.34,0-4.02-.63-5.03-1.88-1.01-1.26-1.52-3.26-1.52-6.02v-13.83c0-.37,.07-.61,.22-.73s.39-.18,.73-.18h25.87c.34,0,.58,.06,.73,.18s.22,.37,.22,.73v4.28c0,.37-.07,.61-.22,.73s-.39,.18-.73,.18h-19.8v7.94c0,.88,.18,1.53,.55,1.94,.37,.42,1.04,.61,2.01,.59,2.66-.05,5.49-.15,8.49-.29,3-.15,5.94-.38,8.82-.7,.34-.05,.57,0,.7,.15,.12,.15,.21,.4,.26,.77l.37,4.25Z"/><path class="f" d="M175.02,33.47c.34,0,.59,.06,.73,.18s.22,.37,.22,.73v1.83h6.07c.34,0,.59,.06,.73,.18,.15,.12,.22,.37,.22,.73v4.28c0,.37-.07,.61-.22,.73-.15,.12-.39,.18-.73,.18h-6c.1,.58,.27,1.15,.51,1.68,.24,.54,.6,1.04,1.08,1.5,.48,.46,1.07,.87,1.79,1.21,.72,.34,1.59,.62,2.62,.84,.1,.02,.21,.05,.35,.07,.13,.02,.26,.08,.38,.16,.12,.09,.22,.21,.31,.37,.08,.16,.13,.38,.13,.68v4.06c0,.44-.12,.7-.35,.79-.23,.09-.43,.12-.6,.09-.85-.07-1.73-.2-2.62-.38-.89-.18-1.76-.44-2.62-.77-.85-.33-1.67-.75-2.45-1.26-.78-.51-1.48-1.12-2.09-1.83-.63,.71-1.34,1.32-2.1,1.83-.77,.51-1.58,.93-2.43,1.26-.85,.33-1.73,.58-2.62,.77-.89,.18-1.76,.31-2.62,.38-.17,.02-.37,0-.6-.09-.23-.08-.35-.35-.35-.79v-4.06c0-.29,.04-.52,.13-.68,.08-.16,.19-.28,.31-.37,.12-.08,.25-.14,.38-.16,.13-.02,.25-.05,.35-.07,1.02-.22,1.9-.5,2.62-.84s1.31-.74,1.78-1.21,.82-.96,1.06-1.5c.24-.54,.41-1.1,.51-1.68h-6c-.34,0-.59-.06-.73-.18s-.22-.37-.22-.73v-4.28c0-.37,.07-.61,.22-.73,.15-.12,.39-.18,.73-.18h6.11v-1.83c0-.37,.07-.61,.22-.73,.15-.12,.39-.18,.73-.18h5.05Zm-10.61,23.06c0-.37,.07-.61,.22-.73s.39-.18,.73-.18h26.97c.34,0,.59,.06,.73,.18s.22,.37,.22,.73v11.71c0,.37-.07,.61-.22,.73s-.39,.18-.73,.18h-5.12c-.34,0-.59-.06-.73-.18s-.22-.37-.22-.73v-6.55h-20.9c-.34,0-.58-.06-.73-.18s-.22-.37-.22-.73v-4.24Zm33.19-10.91c0,.37-.07,.61-.22,.73s-.39,.18-.73,.18h-3.37v6.48c0,.37-.07,.61-.22,.73s-.39,.18-.73,.18h-5.12c-.34,0-.59-.06-.73-.18s-.22-.37-.22-.73v-17.71c0-.37,.07-.61,.22-.73s.39-.18,.73-.18h5.12c.34,0,.59,.06,.73,.18s.22,.37,.22,.73v5.16h3.37c.34,0,.59,.06,.73,.18s.22,.37,.22,.73v4.25Z"/><path class="f" d="M198.07,35.3c0-.37,.07-.61,.22-.73s.39-.18,.73-.18h4.9c.93,0,1.72,.11,2.38,.33,.66,.22,1.2,.58,1.61,1.08,.41,.5,.71,1.15,.9,1.94,.18,.79,.27,1.76,.27,2.91,0,1.83-.05,3.77-.17,5.82-.11,2.05-.29,4.15-.53,6.31-.24,2.16-.55,4.34-.92,6.55-.37,2.21-.8,4.39-1.32,6.53-.1,.37-.2,.61-.29,.73-.1,.12-.32,.18-.66,.18l-4.83-1.06c-.17-.02-.32-.05-.46-.09-.13-.04-.25-.1-.35-.2-.1-.1-.15-.23-.17-.38-.01-.16,.02-.38,.09-.68,.51-1.85,.95-3.78,1.3-5.76s.64-3.93,.86-5.84c.22-1.9,.38-3.72,.48-5.45,.1-1.73,.15-3.28,.15-4.65,0-.93-.16-1.52-.48-1.79-.32-.27-.79-.4-1.43-.4h-1.35c-.34,0-.59-.06-.73-.18-.15-.12-.22-.37-.22-.73v-4.25Zm11.86,0c0-.37,.07-.61,.22-.73,.15-.12,.39-.18,.73-.18h4.9c.93,0,1.72,.11,2.38,.33,.66,.22,1.2,.58,1.63,1.08,.43,.5,.73,1.15,.92,1.94,.18,.79,.26,1.76,.24,2.91-.02,1.66-.1,3.54-.22,5.64-.12,2.1-.3,4.29-.53,6.59-.23,2.29-.53,4.62-.88,6.97-.35,2.35-.79,4.6-1.3,6.75-.1,.37-.2,.61-.29,.73-.1,.12-.32,.18-.66,.18l-4.83-1.06c-.17-.02-.32-.05-.46-.09-.13-.04-.25-.1-.35-.2s-.15-.23-.17-.38c-.01-.16,.02-.38,.09-.68,.51-1.85,.95-3.81,1.3-5.87s.64-4.09,.86-6.08c.22-1.99,.38-3.89,.48-5.71,.1-1.82,.15-3.41,.15-4.78,0-.93-.13-1.52-.4-1.79s-.72-.4-1.35-.4h-1.5c-.34,0-.59-.06-.73-.18-.15-.12-.22-.37-.22-.73v-4.25Zm24.26,16.69c0,.37-.07,.61-.22,.73-.15,.12-.39,.18-.73,.18h-3v14.6c0,.37-.07,.61-.22,.73-.15,.12-.39,.18-.73,.18h-5.12c-.34,0-.59-.06-.73-.18s-.22-.37-.22-.73V35.3c0-.37,.07-.61,.22-.73s.39-.18,.73-.18h5.12c.34,0,.59,.06,.73,.18,.15,.12,.22,.37,.22,.73v11.53h3c.34,0,.59,.06,.73,.18,.15,.12,.22,.37,.22,.73v4.25Z"/><path class="f" d="M235.88,35.3c0-.37,.07-.61,.22-.73s.39-.18,.73-.18h19.14c.34,0,.58,.06,.73,.18s.22,.37,.22,.73v4.28c0,.37-.07,.61-.22,.73s-.39,.18-.73,.18h-6.08v13.28c0,.71,.08,1.4,.26,2.07,.17,.67,.49,1.29,.95,1.87,.46,.57,1.08,1.09,1.87,1.54,.78,.45,1.78,.8,3,1.04,.1,.02,.21,.05,.35,.07,.13,.02,.26,.08,.38,.17,.12,.09,.23,.21,.31,.37,.08,.16,.13,.38,.13,.68v4.06c0,.44-.12,.7-.35,.79-.23,.08-.43,.12-.6,.09-.85-.07-1.73-.2-2.62-.38-.89-.18-1.76-.44-2.62-.77-.85-.33-1.67-.75-2.45-1.26-.78-.51-1.48-1.12-2.09-1.83-.63,.71-1.33,1.32-2.1,1.83-.77,.51-1.58,.93-2.43,1.26-.85,.33-1.73,.59-2.62,.77-.89,.18-1.76,.31-2.62,.38-.17,.02-.37,0-.6-.09-.23-.09-.35-.35-.35-.79v-4.06c0-.29,.04-.52,.13-.68,.08-.16,.19-.28,.31-.37,.12-.08,.25-.14,.38-.17,.13-.02,.25-.05,.35-.07,1.22-.24,2.22-.59,3-1.04,.78-.45,1.4-.96,1.87-1.54,.46-.57,.78-1.19,.95-1.87,.17-.67,.26-1.36,.26-2.07v-13.28h-6.11c-.34,0-.58-.06-.73-.18s-.22-.37-.22-.73v-4.28Zm25.36,33.12c-.34,0-.59-.06-.73-.18-.15-.12-.22-.37-.22-.73V35.3c0-.37,.07-.61,.22-.73,.15-.12,.39-.18,.73-.18h5.12c.34,0,.59,.06,.73,.18s.22,.37,.22,.73v32.2c0,.37-.07,.61-.22,.73s-.39,.18-.73,.18h-5.12Z"/><path class="f" d="M115.42,110.87c-.34,0-.58-.06-.73-.18s-.22-.37-.22-.73v-24.26l-6,3.92c-.54,.34-.95,.26-1.24-.26l-2.09-3.55c-.2-.34-.29-.62-.27-.82s.18-.41,.49-.6l9.11-6.04c.2-.12,.35-.2,.48-.24,.12-.04,.3-.05,.55-.05h5.05c.34,0,.58,.06,.73,.18s.22,.37,.22,.73v31c0,.37-.07,.61-.22,.73s-.39,.18-.73,.18h-5.12Z"/><path class="f" d="M139.72,76.69c.34,0,.59,.06,.73,.18,.15,.12,.22,.37,.22,.73v18.48c0,.71,.09,1.4,.26,2.07,.17,.67,.49,1.29,.95,1.87,.46,.57,1.08,1.09,1.87,1.54,.78,.45,1.78,.8,3,1.04,.1,.02,.21,.05,.35,.07,.13,.02,.26,.08,.38,.17,.12,.09,.23,.21,.31,.37,.08,.16,.13,.38,.13,.68v4.06c0,.44-.12,.7-.35,.79-.23,.08-.43,.12-.6,.09-.85-.07-1.73-.2-2.62-.38-.89-.18-1.76-.44-2.62-.77-.85-.33-1.67-.75-2.45-1.26-.78-.51-1.48-1.12-2.09-1.83-.63,.71-1.33,1.32-2.1,1.83-.77,.51-1.58,.93-2.43,1.26-.85,.33-1.73,.59-2.62,.77-.89,.18-1.76,.31-2.62,.38-.17,.02-.37,0-.6-.09-.23-.09-.35-.35-.35-.79v-4.06c0-.29,.04-.52,.13-.68,.08-.16,.19-.28,.31-.37,.12-.08,.25-.14,.38-.17,.13-.02,.25-.05,.35-.07,1.22-.24,2.22-.59,3-1.04,.78-.45,1.4-.96,1.87-1.54,.46-.57,.78-1.19,.95-1.87,.17-.67,.26-1.36,.26-2.07v-18.48c0-.37,.07-.61,.22-.73s.39-.18,.73-.18h5.05Zm12.66,34.03c-.34,0-.59-.06-.73-.18s-.22-.37-.22-.73v-32.2c0-.37,.07-.61,.22-.73s.39-.18,.73-.18h5.12c.34,0,.59,.06,.73,.18,.15,.12,.22,.37,.22,.73v32.2c0,.37-.07,.61-.22,.73-.15,.12-.39,.18-.73,.18h-5.12Z"/><path class="f" d="M175.37,84.34c0-.58-.12-.99-.35-1.21-.23-.22-.57-.33-1.01-.33h-9.41c-.34,0-.59-.06-.73-.18-.15-.12-.22-.37-.22-.73v-4.28c0-.37,.07-.61,.22-.73,.15-.12,.39-.18,.73-.18h13.83c1.32,0,2.31,.34,2.96,1.02,.66,.68,.99,1.79,.99,3.33,0,1-.04,2.12-.11,3.35-.07,1.23-.18,2.52-.31,3.86-.13,1.34-.29,2.68-.46,4.03-.17,1.34-.35,2.61-.55,3.81-.05,.37-.13,.62-.26,.77s-.35,.2-.7,.15l-5.01-.55c-.34-.05-.6-.16-.79-.33-.18-.17-.23-.46-.13-.88,.17-.85,.33-1.77,.49-2.74,.16-.98,.3-1.95,.42-2.91s.21-1.9,.27-2.82c.06-.92,.09-1.73,.09-2.43Zm19.73,25.1c.05,.37-.01,.6-.18,.7-.17,.1-.43,.17-.77,.22-1.68,.17-3.44,.32-5.25,.46-1.82,.13-3.64,.25-5.45,.35s-3.61,.17-5.38,.22-3.43,.07-5,.07c-2.34,0-4.02-.63-5.03-1.88-1.01-1.26-1.52-3.26-1.52-6.02v-4.03c0-.37,.07-.61,.22-.73,.15-.12,.39-.18,.73-.18h5.12c.34,0,.59,.06,.73,.18s.22,.37,.22,.73v3.33c0,.88,.18,1.52,.55,1.94,.37,.41,1.04,.61,2.01,.58,1.32-.02,2.71-.07,4.19-.13,1.48-.06,2.97-.13,4.48-.22,1.51-.08,3.03-.19,4.56-.33,1.52-.13,3.01-.27,4.45-.42,.34-.05,.57,0,.7,.15,.12,.15,.21,.4,.26,.77l.37,4.25Zm3.44-19.32c0,.37-.07,.61-.22,.73-.15,.12-.39,.18-.73,.18h-3.37v8.89c0,.37-.07,.61-.22,.73-.15,.12-.39,.18-.73,.18h-5.12c-.34,0-.58-.06-.73-.18-.15-.12-.22-.37-.22-.73v-22.32c0-.37,.07-.61,.22-.73s.39-.18,.73-.18h5.12c.34,0,.59,.06,.73,.18s.22,.37,.22,.73v7.36h3.37c.34,0,.59,.06,.73,.18s.22,.37,.22,.73v4.25Z"/><path class="f" d="M231.87,109.96c0,.37-.07,.61-.22,.73s-.39,.18-.73,.18h-18.66c-.34,0-.55-.05-.64-.15-.08-.1-.13-.32-.13-.66v-4.25c0-.22,.01-.4,.04-.55,.02-.15,.07-.28,.13-.4,.06-.12,.14-.24,.24-.37s.23-.27,.4-.44l5.71-5.75c2.07-2.07,3.69-3.98,4.85-5.73,1.16-1.74,1.74-3.38,1.74-4.92,0-.78-.1-1.43-.29-1.94s-.5-.92-.92-1.21c-.42-.29-.95-.49-1.61-.6-.66-.11-1.44-.15-2.34-.13-.56,.02-1.13,.07-1.7,.15s-1.14,.15-1.7,.24c-.56,.08-1.09,.18-1.57,.27-.49,.1-.92,.18-1.28,.26-.42,.1-.71,.08-.88-.05-.17-.13-.27-.4-.29-.79l-.29-3.92c-.02-.37,.03-.64,.17-.82,.13-.18,.42-.31,.86-.38,.42-.07,.93-.17,1.54-.27,.61-.11,1.29-.22,2.03-.33,.74-.11,1.52-.21,2.34-.29,.82-.09,1.64-.13,2.47-.13,3.59,0,6.18,.77,7.79,2.31,1.61,1.54,2.42,3.77,2.42,6.7,0,1.22-.12,2.37-.35,3.46-.23,1.09-.61,2.17-1.13,3.24-.52,1.07-1.21,2.16-2.05,3.26-.84,1.1-1.86,2.26-3.06,3.48l-4.5,4.65h10.69c.34,0,.58,.06,.73,.18s.22,.37,.22,.73v4.24Z"/><path class="f" d="M237.8,105.27c.05-.34,.14-.54,.27-.6,.13-.06,.37-.07,.71-.02,.66,.07,1.62,.18,2.87,.31,1.26,.13,2.59,.2,4.01,.2,1.02,0,1.9-.21,2.63-.64,.73-.43,1.34-1.01,1.81-1.74,.48-.73,.82-1.58,1.04-2.54,.22-.96,.33-1.99,.33-3.09-1.05,.42-2.01,.72-2.87,.92-.87,.2-1.75,.29-2.65,.29-3.39,0-5.96-.81-7.7-2.43-1.75-1.62-2.62-4.2-2.62-7.74,0-1.78,.26-3.33,.77-4.65,.51-1.32,1.25-2.42,2.2-3.29s2.11-1.53,3.48-1.96c1.37-.43,2.89-.64,4.57-.64,3.98,0,6.89,1.38,8.73,4.15s2.76,6.76,2.76,11.98c0,3.12-.29,5.79-.88,8-.58,2.21-1.42,4.01-2.49,5.42-1.07,1.4-2.38,2.43-3.92,3.07-1.54,.65-3.27,.97-5.2,.97-.66,0-1.33-.02-2.01-.07-.68-.05-1.35-.11-1.99-.18s-1.25-.15-1.81-.24c-.56-.09-1.04-.17-1.43-.24-.46-.1-.75-.23-.86-.38-.11-.16-.14-.47-.09-.93l.33-3.92Zm8.71-12.55c.73,0,1.51-.09,2.32-.26,.82-.17,1.7-.37,2.65-.58,0-1.03-.07-2.04-.22-3.04-.15-1-.4-1.9-.77-2.69-.37-.79-.86-1.43-1.48-1.9-.62-.48-1.41-.71-2.36-.71-1.73,0-2.98,.39-3.75,1.17-.77,.78-1.15,1.94-1.15,3.48s.44,2.59,1.32,3.37c.88,.78,2.02,1.17,3.44,1.17Z"/><path class="f" d="M260.52,93.71c0-.37,.07-.61,.22-.73s.39-.18,.73-.18h30.89c.34,0,.58,.06,.73,.18s.22,.37,.22,.73v4.28c0,.37-.07,.61-.22,.73s-.39,.18-.73,.18h-11.56v3.7c0,.37-.07,.61-.22,.73s-.39,.18-.73,.18h-5.12c-.34,0-.58-.06-.73-.18s-.22-.37-.22-.73v-3.7h-12.3c-.34,0-.58-.06-.73-.18s-.22-.37-.22-.73v-4.28Zm30.45-6.73c0,1.54-.33,2.65-.99,3.33-.66,.68-1.65,1.03-2.96,1.03h-20.24c-1.32,0-2.31-.34-2.96-1.03-.66-.68-.99-1.79-.99-3.33v-9.37c0-.37,.07-.61,.22-.73,.15-.12,.39-.18,.73-.18h4.76c.34,0,.59,.06,.73,.18s.22,.37,.22,.73v1.54h14.82v-1.54c0-.37,.07-.61,.22-.73s.39-.18,.73-.18h4.76c.34,0,.59,.06,.73,.18s.22,.37,.22,.73v9.37Zm.77,22.91c.05,.37,0,.62-.16,.75-.16,.13-.43,.22-.82,.27-3.49,.34-6.99,.54-10.5,.58-3.51,.05-7.09,.04-10.72-.04-2.34-.05-4.02-.69-5.03-1.92-1.01-1.23-1.52-3.23-1.52-5.98v-2.12c0-.37,.07-.61,.22-.73s.39-.18,.73-.18h5.12c.34,0,.59,.06,.73,.18,.15,.12,.22,.37,.22,.73v1.43c0,.88,.18,1.51,.55,1.9,.37,.39,1.04,.6,2.01,.62,2.98,.05,5.92,.04,8.82-.04,2.9-.07,5.87-.24,8.89-.51,.34-.05,.6-.01,.77,.11,.17,.12,.28,.39,.33,.8l.37,4.13Zm-8.49-23.97c.41,0,.7-.08,.84-.24,.15-.16,.22-.47,.22-.93v-.73h-14.82v.73c0,.46,.07,.78,.22,.93,.15,.16,.43,.24,.84,.24h12.7Z"/></g><g><path class="f" d="M92.56,101.5c0-.09,.02-.16,.06-.19,.04-.03,.1-.05,.19-.05h5.35c.09,0,.15,.02,.19,.05,.04,.03,.06,.09,.06,.19v.43h.52v-.43c0-.09,.02-.16,.06-.19,.04-.03,.1-.05,.19-.05h1.31c.09,0,.15,.02,.19,.05,.04,.03,.06,.09,.06,.19v4.44c0,.09-.02,.16-.06,.19-.04,.03-.1,.05-.19,.05h-1.31c-.09,0-.15-.02-.19-.05s-.06-.09-.06-.19v-.72h-.48v.45c0,.09-.02,.16-.06,.19-.04,.03-.1,.05-.19,.05h-5.4c-.09,0-.15-.02-.19-.05-.04-.03-.06-.09-.06-.19v-.98c0-.09,.02-.16,.06-.19,.04-.03,.1-.05,.19-.05h.58l-.08-1.73h-.5c-.09,0-.15-.02-.19-.05-.04-.03-.06-.09-.06-.19v-.98Zm4.93,8.96c-.54,0-1.01-.05-1.39-.16s-.7-.25-.94-.44c-.24-.19-.42-.4-.52-.65-.11-.25-.16-.51-.16-.79s.06-.54,.17-.79c.11-.25,.29-.46,.53-.65,.24-.18,.56-.33,.94-.43,.38-.11,.84-.16,1.38-.16s1,.05,1.38,.16c.38,.11,.69,.25,.94,.43,.24,.18,.42,.4,.53,.65,.11,.25,.17,.51,.17,.79s-.05,.54-.16,.79c-.11,.25-.28,.46-.52,.65-.24,.19-.55,.33-.94,.44s-.85,.16-1.39,.16Zm-2.39-6.01h.73l.07-1.73h-.86l.07,1.73Zm2.39,4.54c.16,0,.32,0,.47-.03,.15-.02,.28-.05,.4-.09,.12-.04,.21-.1,.28-.18,.07-.08,.1-.17,.1-.28s-.03-.2-.1-.28c-.07-.07-.16-.13-.28-.18-.12-.05-.25-.08-.4-.1-.15-.02-.31-.03-.47-.03s-.32,0-.47,.03c-.15,.02-.28,.05-.4,.1-.12,.05-.21,.11-.28,.18-.07,.07-.1,.16-.1,.28s.03,.21,.1,.28c.07,.07,.16,.13,.28,.18,.12,.04,.25,.07,.4,.09,.15,.02,.31,.03,.47,.03Zm.67-6.27h-.51l-.09,1.73h.6v-.43c0-.09,.02-.16,.06-.19,.04-.03,.1-.05,.19-.05h.51v-.42h-.51c-.09,0-.15-.02-.19-.05-.04-.03-.06-.09-.06-.19v-.41Z"/><path class="f" d="M101.94,105.25c0-.09,.02-.16,.06-.19,.04-.03,.1-.05,.19-.05h7.9c.09,0,.15,.02,.19,.05s.06,.09,.06,.19v1.1c0,.09-.02,.16-.06,.19s-.1,.05-.19,.05h-1.27v1.23c0,.09-.02,.16-.06,.19-.04,.03-.1,.05-.19,.05h-1.26c-.09,0-.15-.02-.19-.05-.04-.03-.06-.09-.06-.19v-1.23h-.52v1.23c0,.09-.02,.16-.06,.19-.04,.03-.1,.05-.19,.05h-1.26c-.09,0-.15-.02-.19-.05-.04-.03-.06-.09-.06-.19v-1.23h-2.61c-.09,0-.15-.02-.19-.05-.04-.03-.06-.09-.06-.19v-1.1Zm5.87-1.09c.03-.17,.06-.33,.08-.47,.02-.14,.03-.29,.05-.45,.01-.15-.01-.25-.08-.31-.07-.06-.15-.08-.27-.08h-4.81c-.09,0-.15-.02-.19-.05-.04-.03-.06-.09-.06-.19v-1.1c0-.09,.02-.16,.06-.19,.04-.03,.1-.05,.19-.05h5.94c.34,0,.59,.09,.76,.26s.25,.46,.25,.85c0,.32-.01,.65-.04,.97-.03,.32-.07,.66-.12,1.03-.01,.09-.04,.16-.07,.19s-.11,.05-.22,.03l-1.24-.14c-.09-.01-.15-.04-.2-.08-.04-.04-.06-.12-.04-.22Zm2.12,5.61c.01,.09,0,.16-.04,.19-.04,.03-.11,.06-.21,.07-.89,.09-1.79,.14-2.69,.15-.9,.01-1.81,0-2.74,0-.6-.01-1.03-.18-1.29-.49-.26-.32-.39-.83-.39-1.53v-.82c0-.09,.02-.16,.06-.19s.1-.05,.19-.05h1.31c.09,0,.15,.02,.19,.05,.04,.03,.06,.09,.06,.19v.65c0,.22,.05,.39,.14,.49,.09,.1,.27,.15,.52,.16,.76,.01,1.51,0,2.26,0,.74-.02,1.5-.06,2.27-.13,.09-.01,.15,0,.2,.03,.04,.03,.07,.1,.08,.21l.09,1.06Z"/></g></g><g id="c"/></svg>