<?xml version="1.0" encoding="UTF-8"?><svg xmlns="http://www.w3.org/2000/svg" xmlns:xlink="http://www.w3.org/1999/xlink" viewBox="0 0 400 356"><defs><style>.g{fill:#fff;}.h{fill:#606e8c;}.i{fill:#557cbd;}.j{fill:#040000;}.k{opacity:.3;}.l{clip-path:url(#c);}.m{clip-path:url(#e);}.n{clip-path:url(#d);}.o{fill:none;}.p{fill:#093974;}.q{clip-path:url(#f);}.r{fill:#ccd1e1;}</style><clipPath id="c"><circle class="o" cx="199.31" cy="211.65" r="118.94"/></clipPath><clipPath id="d"><rect class="o" x="43.66" y="87.91" width="328.01" height="291.93"/></clipPath><clipPath id="e"><rect class="o" x="413.88" y="-7.21" width="416.21" height="370.43"/></clipPath><clipPath id="f"><rect class="o" x="482.07" y="158.1" width="106.88" height="227.4"/></clipPath></defs><g id="a"/><g id="b"><rect class="g" x="-9.44" y="-7.21" width="416.21" height="370.43"/><g class="l"><g class="k"><ellipse class="g" cx="199.09" cy="216.09" rx="144.34" ry="146.85"/></g><g class="n"><g><path class="o" d="M230.55,154.44c.37,.51,.72,1.04,1.07,1.59,.28,.35,.57,.69,.85,1.05-.61-.91-1.25-1.78-1.92-2.64Z"/><path class="o" d="M200.71,280.67c-.18,1.52-.24,3.06-.26,4.59,.02-1.54,.08-3.07,.26-4.59Z"/><path class="o" d="M202.27,286.48c-.13,1.06-.21,2.11-.25,3.17,.05-1.06,.13-2.11,.25-3.17h0Z"/><path class="o" d="M200.15,340.77c.16-.69,.23-1.39,.23-2.09,0,.7-.06,1.39-.23,2.09h0Z"/><path class="o" d="M184.14,261.87c.25,.01,.44-.04,.6-.13-.16,.1-.35,.15-.6,.13Z"/><path class="o" d="M185.89,259.25c.08-.15,.14-.31,.18-.48-.05,.17-.1,.33-.18,.48Z"/><path class="o" d="M236.75,242.02c4.27,1.21,8.51,2.49,12.71,3.88-4.2-1.39-8.45-2.67-12.71-3.88Z"/><path class="o" d="M277.78,258.68c.93,.91,1.77,1.95,2.46,3.17-.7-1.22-1.53-2.26-2.46-3.17Z"/><polygon class="i" points="202.27 286.48 202.27 286.48 202.27 286.48 202.27 286.48"/><path class="i" d="M293.6,324.05c-.11-.83-.23-1.66-.35-2.49-.36-2.38-.72-4.75-1.11-7.13-.16-.97-.32-1.94-.48-2.91-.57-3.34-1.18-17.47-1.86-20.78-.51-2.48-1.07-4.96-1.67-7.42-.36-1.47-.75-2.93-1.15-4.38-.33-1.18-.67-2.36-1.02-3.54-.43-1.43-.89-2.86-1.37-4.28-.55-1.62-1.21-3.2-1.95-4.75-.37-.77-.75-1.54-1.16-2.29-.4-.76-.82-1.51-1.24-2.25-.7-1.22-1.53-2.26-2.46-3.17-.31-.3-.63-.59-.97-.87-.49-.41-1.01-.79-1.54-1.15-1.59-1.07-3.35-1.95-5.16-2.77-5.39-2.45-10.89-4.61-16.46-6.57-1.39-.49-2.79-.96-4.19-1.43-4.2-1.39-8.45-2.67-12.71-3.88-.23-.06-.45-.13-.68-.19-.45-.13-.91-.26-1.36-.4-.45-.14-.9-.28-1.34-.44-.35-.13-.7-.26-1.04-.41-.31-.13-.61-.26-.9-.41-.29-.15-.55-.24-.77-.3-.15-.04-.29-.05-.41-.05-.06,0-.12,0-.18,.02-.23,.04-.42,.15-.58,.32-.25,.26-.44,.65-.63,1.15-.3,.77-.6,1.54-.9,2.3-.6,1.53-1.2,3.07-1.79,4.61-.29,.77-.59,1.54-.87,2.31-.57,1.54-1.13,3.09-1.65,4.66s-1.01,3.14-1.45,4.73c-.02,.07-.04,.14-.06,.22-.04,.15-.07,.3-.11,.45-.04,.15-.07,.3-.11,.46-.04,.15-.08,.3-.14,.44-.03,.07-.05,.14-.08,.21-.06,.14-.13,.27-.21,.39-.08,.12-.17,.23-.27,.33-.05,.05-.11,.09-.17,.13-.18,.12-.4,.21-.66,.26-.21,.04-.4,.04-.56,.02-.26-.03-.47-.13-.65-.27-.18-.14-.32-.32-.44-.52-.12-.2-.23-.43-.32-.66-.05-.11-.09-.22-.13-.32-.05-.12-.1-.24-.15-.36-.06-.15-.13-.28-.2-.41-.47-.8-.93-1.6-1.4-2.39-.39-.65-.79-1.3-1.21-1.93-.16-.24-.32-.48-.49-.72-.45-.64-.92-1.27-1.43-1.88-.3-.35-.61-.69-.93-1.02-.32-.33-.66-.65-1.01-.96-.66-.58-1.23-1-1.72-1.24-.37-.18-.69-.27-.97-.26-.19,0-.36,.06-.52,.16-.55,.34-.92,1.24-1.2,2.74-.24,1.26-.44,2.53-.64,3.8-.39,2.54-.75,5.09-1.32,7.59-.14,.63-.29,1.25-.46,1.87-.17,.62-.35,1.24-.56,1.85-.25,.76-.47,1.52-.65,2.29-1.27,5.36-2.47,10.86-2.69,16.31,.15,2.32,.3,4.64,.29,6.96,0,.24,0,.49-.01,.73,0,.22,0,.44-.01,.66-.03,.93-.09,1.85-.2,2.78-.06,.53-.13,11.86-.22,12.39h0c-.01,5.24,1.5,10.48,1.49,15.72-.01,5.24-.02,10.48-.03,15.72,13.6,.08,27.19-.05,40.78-.91,5.53-.35,11.07-.75,16.58-1.26,1.84-.17,3.96,.28,5.61-1.11-.46-5.56-.37-11.15-.09-16.7,.46-9.08,1.21-28.94,1.85-38.01,.05-.71-.15-1.83,1-1.67,.79,.11,.63,1.1,.58,1.77-1.03,14.37-2.31,39.53-2.05,53.96,0,.24-.17,.48-.27,.72,.77,.04,1.56,.2,2.31,.1,8.89-1.19,17.75-2.57,26.37-5.14-.23-1.82-.44-3.65-.66-5.47-.15-1.22-.3-2.45-.47-3.67Z"/><polygon class="i" points="200.15 340.77 200.15 340.77 200.15 340.77 200.15 340.77"/><ellipse class="i" cx="153.29" cy="324.5" rx="1.21" ry="2.02"/><path class="i" d="M200.02,336.86c.06-.19,.12-.37,.21-.55,.07-12.89,.12-36.58,.21-49.46,0-.53,0-1.06,.02-1.58,.02-1.54,.08-3.07,.26-4.59,1.03-8.75-1.5-16.97-3.48-25.26-.14-.59-.28-1.19-.41-1.78-.13-.59-.26-1.19-.39-1.78-.1-.46-.27-.84-.49-1.14-.06-.08-.12-.15-.18-.21-.09-.09-.18-.17-.29-.25-.06-.04-.11-.07-.17-.11-.13-.07-.27-.14-.42-.18-.19-.06-.39-.09-.61-.09s-.44,.02-.66,.06c-.34,.07-.7,.2-1.07,.38-.12,.06-.24,.13-.37,.2-.38,.23-.73,.47-1.07,.73-.34,.26-.66,.53-.96,.81-.91,.85-1.67,1.82-2.31,2.87-.21,.35-.42,.71-.61,1.08-.38,.74-.71,1.52-1.01,2.32-.05,.14-.09,.29-.13,.43-.05,.17-.1,.33-.18,.48-.01,.02-.02,.04-.03,.06-.05,.09-.1,.18-.14,.29-.02,.05-.04,.09-.06,.14-.07,.18-.13,.38-.18,.58-.08,.29-.16,.58-.28,.83-.03,.06-.06,.12-.09,.18-.1,.17-.22,.31-.38,.41-.16,.1-.35,.15-.6,.13-.57-.03-.81-.44-.95-.96-.03-.13-.06-.27-.08-.41-.07-.42-.11-.86-.2-1.22-.65-2.44-1.28-4.88-1.91-7.33-.31-1.22-.63-2.45-.94-3.67-.31-1.22-.62-2.45-.94-3.67-.05-.2-.09-.41-.14-.6-.05-.19-.11-.36-.21-.5-.2-.27-.54-.38-1.23-.14-3.48,1.18-6.99,2.24-10.49,3.32-3.01,.92-6.02,1.85-9,2.87-1.17,.4-2.34,.82-3.51,1.26-1.75,.66-3.48,1.36-5.2,2.12-.52,.23-1.02,.47-1.51,.72-1.46,.74-2.8,1.57-4.04,2.47-.4,.3-.8,.6-1.18,.91-.08,.07-.17,.14-.25,.21-.43,.36-.85,.74-1.26,1.12-.25,.23-.49,.47-.72,.71-4.58,4.67-7.22,10.69-9.08,17.42-1.27,4.58-2.39,9.19-3.38,13.82-.4,1.85-.77,3.71-1.13,5.57-.72,3.72-1.36,18.26-1.95,22-.29,1.87-.57,3.75-.83,5.63-.4,2.82-.76,5.64-1.11,8.47,.52,.8,1.44,.89,2.23,1.16,7.48,2.53,15.26,3.59,23.03,4.65,1.03,.14,2.26,1.25,3.33-.05,.5-14.2-.88-39.13-1.83-53.27-.06-.96-.7-2.49,.59-2.62,1.28-.12,1.02,1.59,1.08,2.47,.33,4.63,.63,9.26,.92,13.89,.29,4.63,.58,20.07,.87,24.7,.28,.39,.39,.78,.38,1.18,0,.1,0,.2-.02,.3-.04,.3-.13,.61-.25,.91-.01,4.07-.03,8.15-.05,12.22,1.21,2.23,3.36,1.19,5.1,1.4,9.07,1.08,18.16,1.84,27.3,2.05,4.87,.11,9.74,.39,14.61,.6-.02-.26-.03-.52-.05-.78-.3-1.31-.52-2.61-.13-3.91Z"/><path d="M153.11,322.89c-.29-4.63-.57-20.07-.87-24.7-.29-4.63-.6-9.26-.92-13.89-.06-.88,.2-2.6-1.08-2.47-1.28,.13-.65,1.66-.59,2.62,.95,14.14,2.32,39.07,1.83,53.27,.65,.6,1.24,.66,1.7-.22,.02-4.07,.03-8.15,.05-12.22-.32-.78-.26-1.59-.11-2.4Z"/><path d="M153.11,322.89c-.29-4.63-.57-20.07-.87-24.7,.29,4.63,.58,20.07,.87,24.7h0Z"/><path d="M268.37,283.55c.05-.67,.2-1.66-.58-1.77-1.15-.16-.95,.96-1,1.67-.64,9.07-1.39,28.93-1.85,38.01-.28,5.56-.37,11.14,.09,16.7,.34,.02,.68,.05,1.03,.07,.09-.24,.27-.48,.27-.72-.26-14.43,1.02-39.59,2.05-53.96Z"/><path class="i" d="M200.15,340.77c.16-.69,.23-1.39,.23-2.09,0-.23,0-.46-.02-.7-.03-.56-.08-1.12-.14-1.68-.08,.18-.15,.37-.21,.55-.39,1.29-.17,2.6,.13,3.91Z"/><path class="r" d="M200.02,336.86c-.39,1.3-.17,2.6,.13,3.91h0c-.3-1.31-.52-2.61-.13-3.91Z"/><path class="o" d="M231.4,152.63h0c.27-.06,.57-.09,.8-.21-.23,.12-.53,.15-.8,.21Z"/><path class="j" d="M233.04,162.91c.04,.33,.11,.65,.19,.97v-.81c-.03-.05-.05-.11-.08-.16h-.1Z"/><path class="j" d="M234.29,165.26h-.63c.2,.55,.42,1.1,.63,1.65,.08,.21,.16,.43,.24,.64,.01,.03,.02,.06,.03,.09,.09,.25,.17,.5,.25,.76v.04c.09,.27,.16,.54,.21,.82,.08,.4,.16,.8,.24,1.19,.58,2.78,1.21,5.55,1.51,8.4,.08,.81,.15,1.62,.2,2.44,.1,1.61,.15,3.21,.23,4.81v.12c.05,.79,.1,1.58,.16,2.36,.03-.56,.06-1.12,.08-1.68,.32-7.44-.13-14.76-3.16-21.65Z"/><path class="o" d="M232.11,160.55c-.16-.27-.33-.54-.49-.81,.16,.27,.33,.55,.49,.82h0Z"/><path class="o" d="M231.42,160.19c.2,.25,.43,.49,.69,.71h0c-.25-.23-.48-.46-.69-.71Z"/><path class="j" d="M230.6,158.52c.15,.63,.43,1.18,.82,1.67,.2,.25,.43,.48,.69,.7v-.33c-.16-.27-.33-.55-.49-.82-.24-.41-.49-.81-.73-1.22h-.28Z"/><path class="o" d="M228.93,155.68s0,.04-.01,.06c0-.02,0-.04,.01-.06h0Z"/><path class="o" d="M229.54,156.81h0c-.2-.38-.4-.75-.6-1.13h0c.2,.38,.4,.75,.6,1.13Z"/><polygon class="j" points="228.93 155.68 228.94 155.69 228.94 155.68 228.94 155.68 228.93 155.68"/><path class="j" d="M229.54,156.81c-.2-.37-.4-.75-.6-1.12,0,.02,0,.04-.01,.06-.08,.34-.02,.6,.12,.82v.02s.08,.09,.12,.13c.02,.02,.03,.03,.04,.05,.01,.01,.03,.03,.04,.04h.28Z"/><path class="o" d="M229.35,152.9c-.31-.37-.64-.72-.97-1.07,.75,.85,1.47,1.72,2.17,2.61-.39-.54-.79-1.05-1.2-1.54Z"/><path class="o" d="M233.21,158.2l-.15-.38c-.19-.25-.39-.49-.58-.74,.25,.37,.5,.74,.74,1.12Z"/><path class="o" d="M234.02,204.15c1.67-3.2-.13-5.83,.07-8.54,.2-2.77,1.62-5.37,.92-8.22-1.63,5.33-2.09,10.73-.99,16.76Z"/><path class="o" d="M174.27,154.29l.02,.02,.04,.03s-.04-.04-.07-.06h0Z"/><path class="r" d="M174.33,154.34h0l-.04-.03,.04,.03Z"/><path class="o" d="M171.38,212.83c.39-1.38-1.97-11.28-3.34-13.25,.58,4.47,1.18,8.92,3.34,13.25Z"/><path class="o" d="M183.51,236.82c-.28-.53-.54-1.09-.76-1.67h0c.22,.59,.48,1.14,.76,1.67Z"/><path class="i" d="M190.63,245c-1.27-1.22-2.57-2.4-3.78-3.67-.48-.51-.95-1.03-1.39-1.57-.44-.54-.86-1.11-1.24-1.7-.26-.4-.49-.82-.72-1.24-.28-.53-.54-1.09-.76-1.67-.16,.4-.31,.78-.45,1.14-.21,.53-.4,1.02-.57,1.46-.11,.3-.22,.57-.31,.84-.62,1.71-.86,2.77-.81,3.99,.03,.93,.24,1.96,.57,3.43,.07,.29,.14,.61,.21,.94,.09,.38,.17,.75,.25,1.13,.08,.38,.17,.75,.27,1.12,.27,1.01,.55,2.02,.83,3.06,.12,.45,.25,.91,.37,1.37,.1,.38,.21,.77,.32,1.17,.21,.79,.44,1.6,.67,2.45,.12,.42,.23,.86,.35,1.3,.26-.79,.54-1.54,.85-2.25,.25-.59,.53-1.15,.82-1.69,.22-.41,.46-.81,.71-1.19,.64-.98,1.37-1.84,2.21-2.61,.5-.46,1.04-.87,1.62-1.25,.63-.41,1.3-.79,2.03-1.11,.28-.12,.57-.24,.86-.35-.22-.28-.46-.55-.69-.81-.71-.8-1.45-1.55-2.21-2.29Z"/><path class="o" d="M193.17,221.77c1.81-.83,3.71-.87,5.47,.08,1.97,1.07,1.96,3.49-.03,4.5-2.23,1.13-4.44,.58-6.12-1.02-1.12-1.08-2.19-1.5-3.89-1.37,3.85,3.27,7.88,5.57,12.43,6.92,1.9,.57,3.76,.99,5.8,.31,5.58-1.86,10.46-4.85,14.36-9.2,5.65-6.32,7.4-14.2,7.91-22.34,.2-3.17,.21-6.35,.64-9.5-.48,.05-1.04,.08-1.71,.12-.95-.03-1.79-.23-2.49-.64-.24-.14-.46-.3-.66-.49h0c-.48-.45-.86-1.04-1.13-1.79-1.2-.83-2.64-1.46-3.57-2.54-2.34-2.72-5-3.76-8.44-2.42-.48,.19-1.03,.18-1.2-.43-.17-.59,.29-.82,.75-1.05,1.5-.76,3.16-.46,4.95-.67-1.86-4.11-3.59-8.13-5.51-12.05-.98-2.01-2.48-3.11-4.99-2.02-1.48,.65-1.76-.21-1.04-1.47,4.38-1.2,5.91-.56,7.97,3.67,1.57,3.23,2.84,6.61,4.46,9.81,2.34,4.61,5.65,8.02,11.34,7.97,.55,0,1.3-.04,1.31,.74,0,.88-.77,.96-1.43,.91-.38-.03-.77-.06-1.15-.1-1.15-.11-2.3-.24-3.45-.36,.27,.76,.65,1.34,1.13,1.79h0c.2,.19,.42,.35,.66,.49,.7,.41,1.54,.6,2.49,.64,.67-.04,1.23-.08,1.71-.12,.11-.76,.23-1.52,.4-2.28,.41-1.86,1.17-3.53,3.38-3.61,1.56-.06,1.43-.89,1.39-2-.15-3.96-.75-7.87-1.7-11.69-2.24-8.99-6.59-16.35-15.86-19.78-10.3-3.8-20.52-3.65-30.56,.77-7.03,3.1-11.84,8.36-14.01,15.85-1.6,5.55-1,11.26-1.12,16.91-.03,1.61,1.16,1.25,1.99,1.18,1.35-.11,2.31,.34,2.93,1.13,.41-.06,.93,.03,1.3,0,2.58-.21,4.13-1.77,5.24-3.9,1.3-2.48,1.89-5.2,2.68-7.86,.84-2.81,1.62-5.67,3.54-8,.34-.41,.67-.76,1.01-1.05,1.48-1.26,3.05-1.42,5.26-.66-.18,.6-.51,1.06-1.19,1.04-3.13-.1-4.51,2.01-5.44,4.48-.9,2.36-1.55,4.81-2.31,7.22-1.21,3.85-2.46,7.67-6.11,10.03,0,.03,0,.06-.01,.08,0,.03-.01,.05-.02,.07-.01,.03-.03,.06-.05,.07-.05,.03-.12,0-.22-.1l-.58,.24-.12,.05c-.48,0-.97,.03-1.45-.03-.23-.03-.49,0-.76,.01v.03c.76,3.43,1.41,6.9,1.42,10.44,0,7.5,2.51,14.28,6.12,20.69,1.17,2.09,6.15,3.29,8.31,2.3Zm-.85-25.8c-.91,0-1.69-.94-1.98-2.26l1.3-1.17-1.11-1.8c.37-.97,1.03-1.62,1.79-1.62,1.83,0,2.1,1.94,2.1,3.84s-.93,3.01-2.1,3.01Zm19.99-5.23c.37-.97,1.03-1.62,1.79-1.62,1.83,0,2.1,1.94,2.1,3.84s-.93,3.01-2.1,3.01c-.91,0-1.69-.94-1.98-2.26l1.3-1.17-1.11-1.8Zm-9.84,12.1c-1,.94-1.37,1.71-.49,2.91,.42,.57,1.58,1.29,.56,1.99-1.08,.74-1.42-.66-1.9-1.27-.43-.55-.62-1.3-.73-1.54-.18-1.7,.59-2.46,1.42-3.13,1.88-1.53,2.25-3.4,1.68-5.69-.4-1.58-.84-3.14-1.48-4.64-.21-.48-.34-.96,.17-1.3,.4-.27,.75-.03,1.06,.29,2.57,2.7,2.46,9.81-.28,12.39Zm-2.56-39.63c.51-1.87,1.23-3.68,3.03-5.18,.31-.26,.66-.55,1.23-.37,.31,.1,.51,.28,.44,.63-.05,.08-.12,.26-.27,.38-1.69,1.34-2.24,3.03-2.87,4.69-.16,.42-.27,.82-1.05,.7-.66-.1-.59-.52-.5-.84Zm12.71,48.03c.83-.14,1.62-.24,1.7,.89,.27,3.94-5.58,9.56-9.77,9.43-4.41-.14-9.11-4.37-9.85-8.83-.21-1.25,.15-1.74,1.52-1.5,5.46,.97,10.94,.93,16.4,.02Zm-17.16-50.44c-.78,.17-.89-.4-1.05-1-.63-2.36-1.18-4.77-2.87-6.69-.15-.17-.22-.43-.27-.54-.07-.5,.13-.76,.44-.9,.58-.25,.93,.17,1.23,.53,1.8,2.14,2.51,4.73,3.03,7.4,.09,.45,.15,1.05-.5,1.2Zm-8.47,20.53c1.34-1.52,7.23-1.7,8.56-.25,.21,.23,.48,.47,.24,.84-.25,.4-.65,.58-1.04,.39-2.39-1.15-4.7-.97-7.01,.23-.43,.22-.98,.07-1.09-.69,.09-.14,.2-.35,.35-.52Z"/><path class="o" d="M204.49,219.77c3.53,.08,5.89-1.97,7.57-6.68-4.99,.59-9.92,.72-15.15-.06,1.19,4.13,4.1,6.67,7.58,6.75Z"/><path d="M194.72,212.72c.74,4.47,5.44,8.69,9.85,8.83,4.19,.14,10.04-5.48,9.77-9.43-.08-1.13-.87-1.03-1.7-.89-5.47,.91-10.94,.95-16.4-.02-1.37-.24-1.73,.25-1.52,1.5Zm17.34,.36c-1.68,4.71-4.05,6.76-7.57,6.68-3.48-.08-6.39-2.61-7.58-6.75,5.23,.78,10.16,.65,15.15,.06Z"/><path class="o" d="M179.66,188.26l.58-.24h0c-.19,.08-.38,.16-.58,.24Z"/><path class="o" d="M225.53,189.63c.7,.41,1.54,.61,2.49,.64,.67-.04,1.23-.08,1.71-.12h0c-.48,.05-1.04,.08-1.71,.12-.95-.03-1.79-.23-2.49-.64Z"/><path class="o" d="M225.53,189.63c-.24-.14-.46-.3-.66-.49,.2,.19,.42,.35,.66,.49Z"/><path class="o" d="M227.19,187.71c-1.15-.11-2.3-.24-3.45-.36,.27,.76,.65,1.35,1.13,1.79-.48-.45-.86-1.03-1.13-1.79,1.15,.12,2.3,.25,3.45,.36Z"/><path d="M228.34,187.81c.66,.05,1.44-.03,1.43-.91,0-.78-.76-.75-1.31-.74-5.69,.05-9-3.35-11.34-7.97-1.62-3.2-2.89-6.58-4.46-9.81-2.06-4.23-3.59-4.87-7.97-3.67-.72,1.26-.44,2.12,1.04,1.47,2.5-1.09,4.01,.01,4.99,2.02,1.92,3.92,3.65,7.94,5.51,12.05-1.79,.21-3.45-.09-4.95,.67-.46,.23-.92,.46-.75,1.05,.17,.62,.72,.62,1.2,.43,3.44-1.34,6.1-.31,8.44,2.42,.92,1.07,2.36,1.7,3.57,2.54,1.15,.12,2.3,.25,3.45,.36,.38,.04,.77,.07,1.15,.1Z"/><path d="M178.09,188.28c.48,.06,.96,.03,1.45,.03h0l.12-.05c.19-.08,.39-.16,.58-.24l.11-.15,.19,.03c3.65-2.36,4.9-6.18,6.11-10.03,.76-2.41,1.42-4.86,2.31-7.22,.94-2.46,2.31-4.58,5.44-4.48,.68,.02,1.01-.44,1.19-1.04-2.21-.76-3.78-.6-5.26,.66-.34,.29-.68,.64-1.01,1.05-1.91,2.33-2.7,5.19-3.54,8-.79,2.66-1.38,5.38-2.68,7.86-1.11,2.13-2.66,3.69-5.24,3.9-.37,.03-.89-.06-1.3,0,.36,.46,.61,1.03,.75,1.68,.27-.02,.53-.04,.76-.01Z"/><path d="M179.54,188.31l.12-.05-.12,.05h0Z"/><path d="M195.98,159.6c-.51-2.66-1.23-5.26-3.03-7.4-.31-.37-.66-.79-1.23-.53-.31,.14-.51,.4-.44,.9,.05,.11,.12,.37,.27,.54,1.69,1.92,2.24,4.33,2.87,6.69,.16,.6,.27,1.17,1.05,1,.66-.14,.59-.75,.5-1.2Z"/><path d="M200.43,164.04c.78,.12,.89-.28,1.05-.7,.63-1.66,1.18-3.34,2.87-4.69,.15-.12,.22-.3,.27-.38,.07-.35-.13-.53-.44-.63-.58-.18-.93,.12-1.23,.37-1.8,1.5-2.51,3.32-3.03,5.18-.09,.32-.15,.74,.5,.84Z"/><path d="M201.7,190.16c-.5,.34-.37,.82-.17,1.3,.64,1.5,1.08,3.05,1.48,4.64,.58,2.29,.2,4.16-1.68,5.69-.83,.67-1.6,1.43-1.42,3.13,.11,.25,.3,.99,.73,1.54,.48,.61,.82,2.01,1.9,1.27,1.02-.7-.14-1.42-.56-1.99-.88-1.2-.51-1.97,.49-2.91,2.74-2.58,2.84-9.69,.28-12.39-.3-.32-.66-.56-1.06-.29Z"/><path d="M192.45,189.12c.76,0,1.42,.65,1.79,1.62l-1.11,1.8,1.3,1.17c-.3,1.32-1.07,2.26-1.98,2.26-1.17,0-2.1-1.21-2.1-3.01,0-1.89,.27-3.84,2.1-3.84Z"/><path d="M214.23,195.97c-1.17,0-2.1-1.21-2.1-3.01s.27-3.84,2.1-3.84c.76,0,1.42,.65,1.79,1.62l-1.11,1.8,1.3,1.17c-.3,1.32-1.07,2.26-1.98,2.26Z"/><path d="M187.76,182.54c2.32-1.2,4.63-1.37,7.01-.23,.39,.19,.79,0,1.04-.39,.24-.38-.03-.62-.24-.84-1.33-1.45-7.22-1.27-8.56,.25-.15,.17-.26,.38-.35,.52,.12,.75,.67,.91,1.09,.69Z"/><path class="h" d="M180.24,188.03h0c.1,.1,.17,.13,.22,.1,.02-.01,.04-.04,.05-.07,0-.02,.02-.04,.02-.07,0-.02,0-.05,.01-.08l-.19-.03-.11,.15Z"/><path class="h" d="M180.24,188.03c.1,.1,.17,.13,.22,.1-.05,.03-.12,0-.22-.1h0Z"/><path class="o" d="M177.27,207.02c-1.37,1.18-2.98,.53-4.38,1,.04,1.51,1.27,2.82,.72,4.29-.66,1.78,.26,2.83,1.47,3.69,2.23,1.59,4.74,2.59,7.69,3.47-1.9-3.85-3.37-7.47-4.35-11.28-.14-.55-.39-1.84-1.16-1.17Z"/><path class="o" d="M190.47,234.78c.56,.27,1.1,.57,1.65,.88-.55-.3-1.09-.61-1.65-.88Z"/><path class="o" d="M201.92,268.37c.58-1.39,1.04-2.74,1.41-4.07-.37,1.33-.83,2.68-1.41,4.07h0Z"/><path class="o" d="M215.43,229.98c-.61,.63-1.23,1.25-1.87,1.84,.64-.59,1.26-1.21,1.87-1.84Z"/><path class="o" d="M198.83,237.91c.48,.05,.96,.08,1.43,.09-.47,0-.95-.04-1.43-.09Z"/><path class="o" d="M186.39,232.93c.16-.17,.32-.24,.5-.24-.18,0-.35,.07-.5,.24Z"/><path class="o" d="M171.34,187.98c1.82,6.19,1.7,11.9,.67,17.65,2.93-3.92,2.48-13.68-.67-17.65Z"/><path class="o" d="M224.85,231.94c-1.16,3.21-2.83,5.88-4.84,8.25,2-2.36,3.68-5.04,4.84-8.25h0Z"/><path class="o" d="M218.77,241.56c.43-.45,.84-.91,1.24-1.38-.4,.47-.82,.93-1.24,1.38Z"/><path class="o" d="M216.78,243.52c.46-.42,.91-.85,1.34-1.29-.44,.44-.89,.87-1.34,1.29Z"/><path class="o" d="M220.31,261.01c-.71-1.26-1.4-2.47-2.1-3.64,.7,1.17,1.39,2.39,2.1,3.64Z"/><path class="o" d="M227.87,239.38c.21-.55,.37-1.07,.01-1.71,.36,.64,.2,1.16-.01,1.71Z"/><path class="o" d="M212.55,250.03c1.49,1.36,2.75,2.9,3.91,4.59-1.16-1.69-2.42-3.23-3.91-4.59Z"/><path class="i" d="M227.89,237.68c-.88-1.57-1.71-3.19-2.64-4.97-.13-.26-.26-.5-.4-.77-1.16,3.21-2.83,5.88-4.84,8.25-.4,.47-.82,.93-1.24,1.38-.21,.22-.43,.45-.65,.67-.44,.44-.89,.87-1.34,1.29-.23,.21-.46,.42-.69,.62-.39,.35-.79,.69-1.19,1.02-1.37,1.15-2.8,2.24-4.25,3.33,.68,.48,1.31,.99,1.91,1.54,1.49,1.36,2.75,2.9,3.91,4.59,.23,.34,.46,.68,.68,1.03,.36,.56,.71,1.13,1.06,1.71,.7,1.17,1.39,2.39,2.1,3.64,.23-.98,.47-1.94,.73-2.88,.78-2.84,1.69-5.54,2.67-8.18,.65-1.76,1.33-3.49,2.02-5.2,.69-1.71,1.38-3.42,2.06-5.12,.03-.08,.06-.16,.09-.24,.21-.55,.37-1.07,.01-1.71Z"/><path class="o" d="M169.57,171.7h0c-.26,1.94-.47,3.89-.6,5.84h0c.13-1.95,.34-3.9,.6-5.84Z"/><path class="o" d="M168.97,177.55c-.05,.74-.08,1.49-.11,2.23,.02-.74,.06-1.49,.11-2.23h0Z"/><path class="j" d="M168.86,179.78c-.02,.77-.03,1.54-.02,2.31,0,.77,.03,1.54,.08,2.31,.11,1.93,.34,3.86,.71,5.78-.06-3.06-.12-6.12-.14-9.18-.23-1.15-.42-2.3-.53-3.45-.05,.74-.08,1.49-.11,2.23Z"/><path class="j" d="M168.97,177.54c.1,1.16,.29,2.31,.53,3.46-.01-1.55-.01-3.11,0-4.67,.01-1.54,.03-3.09,.07-4.64-.26,1.94-.47,3.89-.6,5.84Z"/><polygon class="o" points="168.97 177.55 168.97 177.54 168.97 177.54 168.97 177.55 168.97 177.55"/><path class="j" d="M168.97,177.55c.1,1.16,.3,2.31,.53,3.45h0c-.23-1.15-.42-2.3-.53-3.46h0Z"/><path class="o" d="M169.1,197.5c1.3-.05,.64-1.05,.57-1.49-.18-1.06-.25-2.2-1.07-3.2-.74,1.22-.52,2.35-.6,3.43-.06,.83,.2,1.29,1.1,1.26Z"/><path class="o" d="M228.75,155.54s.07,.03,.11,.05h0s-.07-.03-.11-.05Z"/><path class="o" d="M228.86,155.58h.01c-1.09-1.43-2.31-2.65-3.64-3.71,1.33,1.06,2.55,2.28,3.63,3.71Z"/><path class="o" d="M210.2,145.65c2.4,.4,4.74,1.08,7.05,1.92-2.31-.85-4.66-1.52-7.05-1.92Z"/><path class="o" d="M171.01,162.16c0,.13,0,.26,0,.39,0-.13,0-.26,0-.39Z"/><path class="o" d="M170,167.99c.07-1.85,.91-3.6,1-5.43-.09,1.83-.93,3.58-1,5.43Z"/><path d="M170.96,160.09s-.02,.03-.02,.04c0,.02-.02,.04-.02,.06,.02-.03,.03-.06,.05-.09Z"/><path d="M170.94,160.13s-.02,.04-.02,.06h0s.01-.04,.02-.06Z"/><path d="M228.87,155.59h0Z"/><path d="M170.91,160.19c-.04,.09-.08,.19-.1,.28-.01,.05-.02,.11-.02,.15,0,.05,0,.09,.01,.13,.1,.34,.16,.68,.19,1.02,.01,.13,.02,.27,.02,.4,0,.13,0,.26,0,.39-.09,1.83-.93,3.58-1,5.43,0,.16,0,.33,0,.49,.26-.77,.52-1.53,.79-2.29,.27-.76,.55-1.51,.86-2.25,.61-1.48,1.32-2.91,2.23-4.25,1.32-1.93,2.78-3.62,4.37-5.1,.8-.74,1.62-1.42,2.48-2.05,.86-.63,1.75-1.21,2.67-1.73,.92-.53,1.87-1.01,2.85-1.44,2.44-1.08,5.06-1.86,7.82-2.4,.55-.11,1.11-.2,1.67-.29,1.93-.3,3.83-.49,5.71-.57s3.75-.05,5.58,.11c.61,.05,1.22,.12,1.83,.2,1.82,.24,3.62,.6,5.39,1.11,1.18,.34,2.35,.73,3.51,1.19,1.16,.46,2.31,.98,3.44,1.57s2.26,1.25,3.36,1.98c.19,.12,.37,.26,.54,.4h.01c.17,.15,.33,.29,.49,.44l.04,.03c.14,.14,.29,.28,.43,.42,.17,.17,.35,.35,.52,.52h0c.15,.15,.3,.29,.45,.43,.02,.02,.04,.04,.06,.05,.14,.12,.29,.24,.45,.35,.03,.02,.06,.05,.1,.07,.15,.1,.3,.19,.46,.28,.05,.03,.09,.05,.14,.08,.15,.07,.31,.13,.47,.19,.04,.01,.07,.02,.11,.03-1.08-1.43-2.3-2.65-3.63-3.71-.03-.03-.07-.06-.1-.08-.17-.13-.34-.26-.51-.39-.07-.05-.13-.1-.2-.15-.15-.11-.29-.21-.44-.31-.1-.07-.19-.13-.29-.2-.12-.08-.25-.16-.37-.24-.12-.08-.25-.16-.37-.24-.1-.06-.2-.12-.3-.18-.15-.09-.31-.18-.46-.27-.09-.05-.18-.1-.27-.15-.17-.09-.34-.19-.51-.28-.09-.05-.19-.1-.28-.14-.17-.09-.34-.18-.51-.26-.09-.04-.18-.08-.26-.12-.18-.09-.36-.17-.55-.26-.1-.05-.21-.09-.31-.14-.17-.08-.34-.15-.51-.22-.2-.08-.4-.16-.6-.24-.08-.03-.16-.07-.24-.1-.28-.11-.57-.22-.86-.32-2.31-.85-4.66-1.52-7.05-1.92-.88-.15-1.77-.26-2.67-.32-1.48-.11-2.96-.18-4.42-.2-.73,0-1.46,0-2.19,.01-.73,.02-1.45,.05-2.17,.1-.58,.04-1.15,.09-1.72,.15-1.14,.12-2.27,.28-3.39,.49-1.12,.21-2.23,.48-3.33,.8-3.3,.96-6.49,2.43-9.55,4.6-.65,.46-1.25,.98-1.81,1.54-.56,.55-1.1,1.14-1.62,1.73-.53,.59-1.05,1.19-1.58,1.76-1.26,1.34-2.61,2.57-4.39,3.33-.04,.02-.08,.04-.11,.07-.08,.06-.15,.15-.22,.25-.02,.04-.05,.08-.07,.12-.02,.03-.03,.06-.05,.09h0Z"/><polygon points="170.91 160.19 170.91 160.19 170.91 160.19 170.91 160.19"/><polygon points="170.91 160.19 170.91 160.19 170.91 160.19 170.91 160.19"/><path d="M228.95,155.62h0s-.05-.02-.07-.02c.01,.02,.03,.04,.04,.05l.03-.03Z"/><path d="M228.92,155.65l.02,.03s0-.04,.01-.06l-.03,.03h0Z"/><path d="M228.92,155.65l.03-.03h0l-.03,.03Z"/><path d="M296.41,332.85c.01-.26-.02-.51-.06-.77-1.16-9.02-2.35-28.83-4.19-37.75-1.87-9.07-3.53-18.2-7.17-26.77-2.4-5.66-5.21-11.04-11.26-13.8-5.69-2.61-11.45-5.03-17.31-7.25-7.94-3.01-16.22-4.94-24.22-7.77-1.77-.62-2.82-1.69-3.68-3.29-1.64-3.08-2.92-6.35-5.01-9.22-.83-1.13-.88-3.12,.09-4.37,3.41-4.4,5-9.53,6.21-14.81,.31-1.36,.64-1.23,1.82-.82,2.56,.88,3.72,.09,4.7-2.51,.26-.69,0-1.66,.88-2.03,2.14-.92,2.17-2.92,2.46-4.75,.41-2.57-.54-5.14-.39-7.64,.37-6.09,.15-12.07-1.14-17.99-.88-2.9-1.94-5.94-3.19-8.84-.08-.05-.11-.08-.04-.06-.04-.03-.03-.02,0-.01l-.13-.32c-.95-2.15-2-4.2-3.16-6.05-2.1-2.55-4.11-4.77-5.46-6.21-.39-.32-.8-.62-1.21-.92-.4-.14-.77-.35-1.16-.63l-.4-.36c-10.44-5.11-20.99-6.24-31.76-3.68l-1.11,.36c-8.5,3.57-16.46,9.51-19.58,15.51h0s.04-.08,.07-.12c.07-.1,.14-.19,.22-.25,.04-.03,.08-.06,.11-.07,1.77-.77,3.13-1.99,4.39-3.33,.54-.58,1.06-1.17,1.58-1.76,.53-.59,1.06-1.18,1.62-1.73,.56-.55,1.16-1.07,1.81-1.54,3.06-2.17,6.25-3.64,9.55-4.6,1.1-.32,2.21-.58,3.33-.8,1.12-.21,2.25-.37,3.39-.49,.57-.06,1.14-.11,1.72-.15,.72-.05,1.44-.08,2.17-.1,.73-.02,1.45-.02,2.19-.01,1.46,.02,2.94,.09,4.42,.2,.9,.06,1.79,.18,2.67,.32,2.4,.4,4.74,1.08,7.05,1.92,.29,.11,.57,.21,.86,.32,.08,.03,.16,.07,.24,.1,.2,.08,.4,.16,.6,.24,.17,.07,.34,.15,.51,.22,.1,.05,.21,.09,.31,.14,.18,.08,.37,.17,.55,.26,.09,.04,.18,.08,.26,.12,.17,.08,.34,.17,.51,.26,.09,.05,.19,.09,.28,.14,.17,.09,.34,.18,.51,.28,.09,.05,.18,.1,.27,.15,.16,.09,.31,.18,.46,.27,.1,.06,.2,.12,.3,.18,.13,.08,.25,.16,.37,.24,.12,.08,.25,.16,.37,.24,.1,.06,.19,.13,.29,.2,.15,.1,.3,.2,.44,.31,.07,.05,.13,.1,.2,.15,.17,.13,.35,.25,.51,.39,.03,.03,.07,.05,.1,.08,1.34,1.06,2.56,2.28,3.64,3.71,.03,0,.06,.02,.09,.03h0s0,.05-.02,.07c.2,.38,.4,.75,.6,1.13h1.96v1.72h-.61c.24,.4,.48,.81,.73,1.22,.16,.27,.33,.54,.49,.81h1.12v2.35h1.12v2.36h-.05c3.02,6.89,3.47,14.2,3.15,21.65-.02,.56-.05,1.12-.08,1.68-.06-.79-.11-1.57-.15-2.36v-.12c-.09-1.6-.14-3.21-.24-4.81-.05-.81-.11-1.62-.2-2.44-.29-2.85-.93-5.62-1.51-8.4-.08-.4-.16-.8-.24-1.19-.06-.28-.12-.55-.2-.82v-.04c-.08-.26-.17-.51-.26-.76-.01-.03-.02-.06-.03-.09-.08-.22-.16-.43-.24-.64-.21-.55-.44-1.1-.64-1.65h-.43v-1.34c-.09-.33-.16-.67-.2-1.01h-.92v-2.01c-.25-.22-.48-.45-.69-.71-.4-.49-.68-1.04-.82-1.67h-1.45v-1.34h-.38v-.38h.48s-.03-.03-.04-.04c-.02-.02-.03-.03-.04-.05-.04-.04-.07-.08-.11-.13v-.02c-.16-.22-.22-.48-.13-.82,0-.02,0-.04,.01-.06l-.02-.03s-.03-.04-.05-.06c-.04-.01-.07-.03-.11-.05-.16-.06-.32-.12-.47-.19-.05-.02-.1-.05-.14-.08-.16-.09-.31-.18-.46-.28-.03-.02-.07-.05-.1-.07-.15-.11-.3-.23-.45-.35-.02-.02-.04-.04-.06-.05-.15-.14-.31-.27-.45-.42h0c-.18-.18-.35-.36-.52-.53-.14-.14-.28-.28-.43-.42l-.04-.03c-.16-.15-.32-.3-.49-.43h-.01c-.17-.15-.35-.29-.54-.41-1.11-.73-2.23-1.38-3.36-1.98s-2.28-1.11-3.44-1.57c-1.16-.46-2.33-.86-3.51-1.19-1.77-.5-3.57-.87-5.39-1.11-.61-.08-1.22-.15-1.83-.2-1.84-.16-3.7-.19-5.58-.11s-3.79,.28-5.71,.57c-.56,.09-1.12,.18-1.67,.29-2.76,.53-5.38,1.32-7.82,2.4-.98,.43-1.93,.91-2.85,1.44-.92,.53-1.81,1.1-2.67,1.73-.86,.63-1.69,1.31-2.48,2.05-1.59,1.47-3.05,3.16-4.37,5.1-.91,1.34-1.62,2.77-2.23,4.25-.31,.74-.59,1.49-.86,2.25-.27,.76-.53,1.52-.79,2.29,0-.17,0-.33,0-.49,.07-1.85,.91-3.6,1-5.43,0-.13,0-.26,0-.39,0-.13,0-.26-.02-.4-.03-.34-.09-.67-.19-1.02-.01-.04-.02-.08-.01-.13,0-.05,0-.1,.02-.15,.02-.09,.06-.18,.1-.28-2.5,4.89-3.71,11.52-4.3,16.9,.17,1.48,.3,2.97,.25,4.46-.14,4.31,.49,8.54-.46,12.95-1.4,6.51,.79,12.85,3.1,18.97,.2,.54,.54,1.2,1,1.46,3.31,1.83,6.18,4.33,9.88,5.59,4.67,1.59,4.62,1.82,4.4,6.81-.05,1.21,.53,2.71-.83,3.56-1.65,1.04-2.49,2.58-2.96,4.35-1.26,4.71-4.12,7.11-9.04,8.27-9.4,2.23-18.68,5.05-27.13,10.07-3.84,2.28-7.3,4.81-9.49,8.78-2.03,3.69-3.77,7.51-5,11.54-3.09,10.1-5.04,31.27-6.79,41.66-.83,4.9-1.44,9.84-2.06,14.77-.1,.82-.87,2.68,1.41,1.63,.34-2.83,.71-5.65,1.11-8.47,.26-1.88,.54-3.75,.83-5.63,.59-3.75,1.23-18.28,1.95-22,.36-1.86,.74-3.72,1.13-5.57,.99-4.63,2.11-9.24,3.38-13.82,1.87-6.72,4.51-12.75,9.08-17.42,.24-.24,.48-.48,.72-.71,.4-.38,.82-.76,1.26-1.12,.08-.07,.17-.14,.25-.21,.38-.31,.78-.62,1.18-.91,1.23-.9,2.57-1.73,4.04-2.47,.49-.25,.99-.49,1.51-.72,1.72-.76,3.45-1.46,5.2-2.12,1.16-.44,2.33-.85,3.51-1.26,2.98-1.02,5.99-1.95,9-2.87,3.51-1.07,7.02-2.13,10.49-3.32,.69-.24,1.04-.13,1.23,.14,.1,.13,.16,.31,.21,.5,.05,.19,.09,.4,.14,.6,.31,1.22,.63,2.45,.94,3.67,.31,1.22,.62,2.45,.94,3.67,.63,2.45,1.26,4.89,1.91,7.33,.09,.35,.13,.8,.2,1.22,.02,.14,.05,.28,.08,.41,.14,.52,.38,.93,.95,.96,.25,.01,.44-.04,.6-.13s.28-.24,.38-.41c.03-.06,.06-.12,.09-.18,.11-.25,.19-.54,.28-.83,.06-.2,.11-.4,.18-.58,.02-.05,.04-.09,.06-.14,.04-.1,.09-.2,.14-.29,.01-.02,.02-.04,.03-.06,.08-.15,.14-.31,.18-.48,.04-.14,.08-.29,.13-.43,.3-.8,.63-1.58,1.01-2.32,.19-.37,.39-.73,.61-1.08,.64-1.06,1.4-2.02,2.31-2.87,.3-.28,.62-.55,.96-.81,.34-.26,.69-.5,1.07-.73,.12-.07,.25-.14,.37-.2,.37-.19,.73-.31,1.07-.38,.23-.05,.45-.07,.66-.06s.42,.03,.61,.09c.15,.04,.29,.11,.42,.18,.06,.03,.12,.07,.17,.11,.1,.07,.2,.15,.29,.25,.06,.07,.13,.14,.18,.21,.22,.3,.4,.68,.49,1.14,.12,.59,.25,1.19,.39,1.78,.13,.59,.27,1.19,.41,1.78,1.98,8.29,4.51,16.51,3.48,25.26-.18,1.52-.24,3.06-.26,4.59,0,.53-.01,1.06-.02,1.58-.09,12.89-.14,36.58-.21,49.46,.06,.56,.11,1.12,.14,1.68,.01,.23,.02,.46,.02,.7,0,.7-.06,1.39-.23,2.09h0c.01,.26,.03,.52,.05,.79,.67,.89,1.28,.65,1.85-.11,.01-5.24,.02-10.48,.03-15.72l.03-15.72c-.06-2.38-.16-15.57-.15-17.96,0-.79,.02-1.59,.05-2.38,.05-1.06,.13-2.11,.25-3.17h0c.22-5.46-.1-10.96,1.17-16.32,.18-.77,.4-1.53,.65-2.29,.2-.61,.39-1.23,.56-1.85,.17-.62,.32-1.24,.46-1.87,.56-2.5,.92-5.05,1.32-7.59,.2-1.27,.4-2.54,.64-3.8,.28-1.5,.65-2.39,1.2-2.74,.16-.1,.33-.15,.52-.16,.28-.01,.6,.07,.97,.26,.49,.24,1.05,.66,1.72,1.24,.35,.31,.69,.63,1.01,.96,.32,.33,.63,.67,.93,1.02,.51,.6,.98,1.23,1.43,1.88,.17,.24,.33,.48,.49,.72,.42,.63,.82,1.28,1.21,1.93,.47,.79,.93,1.59,1.4,2.39,.07,.13,.14,.26,.2,.41,.05,.12,.1,.24,.15,.36,.04,.11,.09,.21,.13,.32,.1,.23,.2,.45,.32,.66,.12,.2,.27,.38,.44,.52,.18,.14,.39,.23,.65,.27,.17,.02,.35,.02,.56-.02,.26-.04,.48-.13,.66-.26,.06-.04,.12-.09,.17-.13,.11-.1,.2-.21,.27-.33,.08-.12,.15-.25,.21-.39,.03-.07,.06-.14,.08-.21,.05-.14,.1-.29,.14-.44,.04-.15,.08-.3,.11-.46,.04-.15,.07-.3,.11-.45,.02-.07,.04-.15,.06-.22,.44-1.59,.93-3.17,1.45-4.73s1.07-3.11,1.65-4.66c.29-.77,.58-1.54,.87-2.31,.59-1.54,1.19-3.07,1.79-4.61,.3-.77,.6-1.53,.9-2.3,.19-.5,.38-.89,.63-1.15,.16-.17,.35-.28,.58-.32,.06,0,.12-.02,.18-.02,.13,0,.26,.01,.41,.05,.22,.05,.48,.15,.77,.3,.3,.15,.6,.28,.9,.41,.34,.14,.69,.28,1.04,.41,.44,.16,.89,.3,1.34,.44,.45,.14,.91,.27,1.36,.4,.23,.06,.45,.13,.68,.19,4.27,1.21,8.51,2.49,12.71,3.88,1.4,.46,2.8,.94,4.19,1.43,5.57,1.95,11.07,4.11,16.46,6.57,1.81,.82,3.56,1.7,5.16,2.77,.53,.36,1.04,.74,1.54,1.15,.33,.28,.65,.56,.97,.87,.93,.91,1.77,1.95,2.46,3.17,.43,.75,.84,1.5,1.24,2.25,.4,.76,.79,1.52,1.16,2.29,.74,1.54,1.4,3.12,1.95,4.75,.48,1.42,.93,2.85,1.37,4.28,.36,1.18,.7,2.35,1.02,3.54,.4,1.46,.79,2.92,1.15,4.38,.61,2.46,1.16,4.94,1.67,7.42,.68,3.31,1.29,17.44,1.86,20.78,.16,.97,.32,1.94,.48,2.91,.38,2.37,.75,4.75,1.11,7.13,.12,.83,.24,1.66,.35,2.49,.16,1.22,.32,2.44,.47,3.67,.22,1.82,.43,3.65,.66,5.47h0c.3,.63,.15,1.83,1.29,1.49,.83-.24,.36-1.19,.39-1.83Zm-107.13-186.69c-.15,.1-.29,.23-.42,.38-.13,.15-.24,.33-.34,.54h0c.1-.21,.21-.39,.34-.54,.13-.15,.27-.28,.42-.38,.1-.07,.21-.13,.32-.18-.11,.05-.22,.11-.32,.18Zm47.88,48.53c.08-.83,.24-1.67,.56-2.5,.03,.29,.05,.58,.08,.87,.02,.25,.05,.51,.07,.76v.07c.03,.26,.05,.52,.06,.78v.04c.02,.27,.02,.55,.02,.82h0c0,.37-.02,.74-.06,1.11-.04,.37-.11,.73-.2,1.1-.1,.37-.23,.75-.4,1.12-.08-.84-.16-1.67-.18-2.5,0-.28,0-.56,0-.83,0-.28,.02-.56,.05-.83Zm-4.94-5.52c.1-.14,.2-.3,.29-.48-.09,.18-.18,.34-.29,.48Zm1.86,6.44c-.19,2.71,1.61,5.34-.07,8.54-1.11-6.03-.64-11.43,.99-16.76,.7,2.85-.72,5.44-.92,8.22Zm-64.42-24.54h0c1-.72,1.32-.36,1.29,.33,.03-.69-.29-1.05-1.29-.34-.77,2.19-.89,4.34-.7,6.48,.13-1.95,.34-3.9,.6-5.84h0c-.04,1.55-.06,3.09-.07,4.64-.01,1.56,0,3.11,0,4.67,.14,.71,.3,1.43,.46,2.14-.16-.71-.31-1.42-.46-2.14,.02,3.06,.08,6.12,.14,9.18-.38-1.93-.6-3.85-.71-5.78-.04-.77-.07-1.54-.08-2.31,0-.77,0-1.54,.02-2.31,.02-.74,.06-1.49,.11-2.23-.19-2.14-.08-4.29,.69-6.48,.1-.95-.88-1.43-1.16-2.22,.28,.79,1.26,1.26,1.16,2.21Zm-1.67,25.18c.08-1.08-.14-2.21,.6-3.43,.82,1.01,.89,2.14,1.07,3.2,.07,.43,.73,1.43-.57,1.49-.9,.04-1.16-.43-1.1-1.26Zm3.38,16.58c-2.17-4.33-2.76-8.78-3.34-13.25,1.37,1.97,3.73,11.87,3.34,13.25Zm-.04-24.85c3.16,3.97,3.6,13.73,.67,17.65,1.03-5.76,1.15-11.47-.67-17.65Zm3.75,28.03c-1.21-.86-2.13-1.92-1.47-3.69,.55-1.47-.68-2.78-.72-4.29,1.4-.47,3,.17,4.38-1,.77-.66,1.02,.62,1.16,1.17,.98,3.81,2.44,7.43,4.35,11.28-2.95-.89-5.46-1.89-7.69-3.47Zm3.66-17.24c0-3.54-.65-7.01-1.41-10.44v-.03c-.69,.05-1.38,.08-1.41-.86-.02-.56,.27-.76,.65-.82-.62-.79-1.58-1.24-2.93-1.13-.83,.07-2.03,.42-1.99-1.18,.12-5.65-.48-11.36,1.12-16.91,2.16-7.49,6.98-12.75,14.01-15.85,10.03-4.42,20.25-4.57,30.56-.77,9.27,3.42,13.62,10.78,15.86,19.78,.95,3.83,1.55,7.73,1.7,11.69,.04,1.11,.17,1.94-1.39,2-2.21,.08-2.97,1.75-3.38,3.61-.17,.76-.29,1.52-.4,2.28,.72-.07,1.25-.16,1.67-.34,.14-.06,.26-.13,.38-.2-.11,.08-.24,.15-.38,.2-.42,.17-.95,.27-1.67,.34-.44,3.14-.45,6.32-.64,9.5-.51,8.14-2.26,16.02-7.91,22.34-3.9,4.35-8.78,7.34-14.36,9.2-2.03,.68-3.9,.26-5.8-.31-4.54-1.36-8.58-3.65-12.43-6.92,1.7-.13,2.76,.3,3.89,1.37,1.67,1.6,3.89,2.16,6.12,1.02,1.99-1.01,2-3.43,.03-4.5-1.76-.95-3.65-.91-5.47-.08-2.16,.99-7.13-.22-8.31-2.3-3.61-6.42-6.12-13.2-6.12-20.69Zm13.93,49.68c-.73,.32-1.4,.7-2.03,1.11-.58,.38-1.12,.79-1.62,1.25-.83,.76-1.56,1.63-2.21,2.61-.25,.38-.48,.78-.71,1.19-.29,.53-.56,1.1-.82,1.69-.31,.71-.59,1.46-.85,2.25-.12-.44-.24-.88-.35-1.3-.23-.85-.45-1.66-.67-2.45-.11-.39-.21-.78-.32-1.17-.13-.46-.25-.92-.37-1.37-.28-1.04-.56-2.05-.83-3.06-.1-.37-.19-.75-.27-1.12-.08-.38-.17-.75-.25-1.13-.08-.33-.15-.65-.21-.94-.33-1.47-.53-2.49-.57-3.43-.05-1.22,.19-2.28,.81-3.99,.09-.26,.2-.54,.31-.84,.17-.44,.36-.93,.57-1.46,.14-.36,.29-.74,.45-1.14,.22,.59,.48,1.14,.76,1.67,.22,.43,.46,.85,.72,1.24,.38,.6,.8,1.16,1.24,1.7,.44,.54,.91,1.06,1.39,1.57,1.21,1.26,2.51,2.44,3.78,3.67,.76,.73,1.51,1.49,2.21,2.29,.24,.27,.47,.54,.69,.81-.3,.11-.58,.23-.86,.35Zm16.54-1.14c-.34,.21-.66,.44-.96,.67-.3,.23-.57,.48-.82,.73-.13,.13-.25,.26-.36,.39-.16,.18-.31,.37-.45,.56-.28,.38-.52,.79-.72,1.21-.1,.21-.2,.43-.28,.65-.17,.45-.31,.91-.42,1.4-.11,.49-.19,1-.24,1.53-.14,1.4-.29,2.8-.5,4.22-.12,.85-.26,1.7-.43,2.57-.11,.57-.24,1.15-.37,1.74-.1,.44-.22,.88-.34,1.32-.37,1.33-.83,2.68-1.41,4.07-.36-1.61-.74-3.13-1.1-4.61-.16-.67-.33-1.33-.48-1.98-.37-1.56-.71-3.08-.97-4.6-.09-.51-.17-1.01-.23-1.52-.55-4.07-2.3-7.23-5.31-9.9-.77-.69-1.52-1.4-2.26-2.12-.41-.4-.81-.8-1.21-1.2-.81-.81-1.61-1.63-2.41-2.44-.71-.72-1.69-1.5-1.85-2.38-.05-.29-.11-.6-.16-.92-.05-.32-.1-.64-.13-.97-.02-.22-.03-.43-.04-.64,0-.11,0-.21,0-.31,.03-.72,.19-1.38,.62-1.85,.16-.17,.32-.24,.5-.24,.05,0,.1,0,.16,.02,.27,.06,.55,.25,.85,.49,.12,.1,.24,.2,.36,.3,.14,.12,.28,.24,.43,.35,.29,.23,.58,.43,.87,.54,.11,.04,.23,.09,.34,.14,.19,.08,.38,.16,.56,.25,.56,.27,1.1,.57,1.65,.88,.14,.08,.28,.15,.41,.22,.16,.08,.31,.17,.47,.24,.08,.04,.15,.08,.23,.11,.65,.31,1.29,.58,1.93,.8,.16,.06,.33,.11,.49,.17,.59,.19,1.17,.35,1.74,.47,.09,.02,.18,.04,.28,.06,.39,.07,.78,.13,1.17,.18,.48,.05,.96,.08,1.43,.09,.44,0,.88-.01,1.32-.05,.25-.02,.49-.05,.74-.08,.37-.05,.73-.11,1.09-.19,.29-.06,.59-.14,.88-.22,.5-.14,.99-.31,1.48-.49,.14-.05,.28-.11,.42-.17,.35-.14,.69-.3,1.03-.47,.8-.39,1.59-.85,2.37-1.36,.58-.38,1.16-.8,1.73-1.24,.76-.59,1.51-1.23,2.25-1.91,.64-.59,1.26-1.21,1.87-1.84,.61-.63,1.22-1.28,1.85-1.92,.95-.96,1.95-1.92,3.09-2.8,.38-.3,.78-.58,1.19-.86,0,.3,0,.59,0,.88-.01,.58-.03,1.13-.05,1.67,0,.27-.02,.53-.02,.79-.01,.51-.01,1,0,1.49s.05,.96,.12,1.43c0,.02,0,.05,0,.07,0,.02,0,.05,0,.07,.06,.45,.1,.89,.1,1.32v.03c0,.46-.03,.9-.1,1.32-.1,.64-.26,1.25-.48,1.84-.15,.39-.32,.77-.52,1.14-.2,.37-.41,.73-.65,1.09-.59,.89-1.3,1.73-2.08,2.55l-.03,.03c-1.95,2.06-4.04,3.95-6.31,5.61-.38,.28-.76,.55-1.15,.81s-.78,.52-1.18,.77Zm18.66-7.93c-.03,.08-.06,.16-.09,.24-.68,1.71-1.37,3.41-2.06,5.12-.69,1.71-1.37,3.44-2.02,5.2-.98,2.64-1.89,5.34-2.67,8.18-.26,.95-.5,1.91-.73,2.88-.71-1.26-1.4-2.47-2.1-3.64-.35-.58-.7-1.16-1.06-1.71-.23-.35-.45-.69-.68-1.03-1.16-1.69-2.42-3.23-3.91-4.59-.6-.54-1.23-1.06-1.91-1.54,1.46-1.09,2.88-2.19,4.25-3.33,.4-.34,.8-.68,1.19-1.02,.23-.21,.46-.41,.69-.62,.46-.42,.91-.85,1.34-1.29,.22-.22,.43-.44,.65-.67,.43-.45,.84-.91,1.24-1.38,2-2.36,3.68-5.04,4.84-8.25,.14,.26,.27,.51,.4,.77,.93,1.79,1.76,3.4,2.64,4.97,.36,.64,.2,1.16-.01,1.71Z"/><path d="M294.07,327.72c.22,1.82,.43,3.65,.66,5.47h0c-.23-1.82-.44-3.65-.66-5.47Z"/><path d="M223.64,255.18c.52-1.56,1.07-3.11,1.65-4.66-.57,1.54-1.13,3.09-1.65,4.66Z"/><path d="M222.19,259.91c.44-1.59,.93-3.17,1.45-4.73-.52,1.56-1.01,3.14-1.45,4.73Z"/><path d="M276.81,257.81c.33,.28,.65,.56,.97,.87-.31-.3-.63-.59-.97-.87Z"/><path d="M200.36,337.98c.01,.23,.02,.46,.02,.7,0-.23,0-.46-.02-.7Z"/><path d="M186.12,254.6c-.29,.53-.56,1.1-.82,1.69,.25-.59,.53-1.15,.82-1.69Z"/><path d="M220.63,236.45c-.2,.37-.41,.73-.65,1.09,.24-.35,.46-.72,.65-1.09Z"/><path d="M170.99,161.76c.01,.13,.02,.27,.02,.4,0-.13,0-.26-.02-.4Z"/><path d="M170.91,160.19h0c-.04,.09-.08,.19-.1,.28,.02-.09,.06-.18,.1-.28Z"/><path d="M174.27,154.29h0l.02,.02-.02-.02Z"/><path d="M233.23,163.06v-.15h-.08c.03,.05,.05,.1,.08,.15Z"/><path d="M218.42,261.36c.1,.23,.2,.45,.32,.66-.12-.2-.23-.43-.32-.66Z"/><path d="M203.44,270.17c-1.27,5.36-.95,10.86-1.17,16.31h0c.22-5.45-.1-10.95,1.17-16.31Z"/><path d="M286.98,278.95c.4,1.46,.79,2.92,1.15,4.38-.36-1.47-.75-2.93-1.15-4.38Z"/><path d="M289.8,290.75c.68,3.31,1.29,17.44,1.86,20.78-.57-3.34-1.18-17.47-1.86-20.78Z"/><path d="M270.12,253.89c1.81,.82,3.56,1.7,5.16,2.77-1.59-1.07-3.35-1.95-5.16-2.77Z"/><path d="M253.66,247.33c5.57,1.95,11.07,4.11,16.46,6.57-5.39-2.45-10.89-4.61-16.46-6.57Z"/><path d="M185.11,261.32c-.1,.17-.22,.31-.38,.41,.16-.1,.28-.24,.38-.41Z"/><path d="M182.91,259.28c.09,.35,.13,.8,.2,1.22-.07-.42-.11-.86-.2-1.22Z"/><path d="M200.15,340.77h0c.02,.26,.03,.52,.05,.79-.02-.26-.03-.52-.05-.78h0Z"/><path d="M178.98,244.02c.05,.19,.09,.4,.14,.6-.05-.2-.09-.41-.14-.6Z"/><path d="M167.05,246.69c3.51-1.07,7.02-2.13,10.49-3.32-3.48,1.18-6.99,2.24-10.49,3.32Z"/><path d="M158.05,249.56c2.98-1.02,5.99-1.95,9-2.87-3.01,.92-6.02,1.85-9,2.87Z"/><path d="M143.8,256.12c1.23-.9,2.57-1.73,4.04-2.47-1.46,.74-2.8,1.57-4.04,2.47Z"/><path d="M201.96,292.04c-.01,2.38,.09,15.57,.15,17.96h0c-.06-2.38-.16-15.57-.15-17.96Z"/><path d="M201.96,292.04c0-.79,.02-1.59,.05-2.38-.03,.79-.05,1.59-.05,2.38Z"/><path d="M221.63,230.81c.06,.45,.1,.89,.1,1.32,0-.43-.03-.87-.1-1.32Z"/><path d="M221.72,232.15c0,.46-.03,.9-.1,1.32,.06-.43,.1-.87,.1-1.32Z"/><path d="M211.55,245.73c2.27-1.66,4.36-3.55,6.31-5.61-1.95,2.06-4.04,3.95-6.31,5.61Z"/><path d="M187.06,232.71c.27,.06,.55,.25,.85,.49-.3-.24-.59-.43-.85-.49Z"/><path d="M200.81,263.76c.36,1.48,.74,3,1.1,4.61h0c-.36-1.61-.74-3.13-1.1-4.61Z"/><path d="M221.49,229.23c.02,.48,.05,.96,.12,1.43-.07-.47-.1-.95-.12-1.43Z"/><path d="M200.26,238c.44,0,.88-.01,1.32-.05-.44,.04-.87,.05-1.32,.05Z"/><path d="M193.23,236.24c.65,.31,1.29,.58,1.93,.8-.63-.23-1.28-.49-1.93-.8Z"/><path d="M206.63,249.67c-.28,.38-.52,.79-.72,1.21,.21-.43,.45-.83,.72-1.21Z"/><path d="M205.62,251.54c-.17,.45-.31,.91-.42,1.4,.11-.49,.25-.95,.42-1.4Z"/><path d="M225.25,232.7c-.13-.26-.26-.5-.4-.77h0c.14,.26,.27,.51,.4,.77Z"/><path d="M185.3,256.29c-.31,.71-.59,1.46-.85,2.25,.26-.79,.54-1.54,.85-2.25Z"/><path d="M182.75,235.14c-.16,.4-.31,.78-.45,1.14,.14-.36,.29-.73,.45-1.14h0Z"/><path d="M173.87,159.7c1.32-1.93,2.78-3.62,4.37-5.1-1.59,1.47-3.05,3.16-4.37,5.1Z"/><path d="M173.87,159.7c-.91,1.34-1.62,2.77-2.23,4.25,.61-1.48,1.32-2.91,2.23-4.25Z"/><path d="M228.88,155.59h-.01s.03,.04,.05,.06h0s-.03-.04-.04-.06Z"/><path d="M214.26,147.53c-1.77-.5-3.57-.87-5.39-1.11,1.82,.24,3.62,.6,5.39,1.11Z"/><path d="M193.65,145.88c1.12-.21,2.25-.37,3.39-.49-1.14,.12-2.27,.28-3.39,.49Z"/><path d="M228.95,155.62h0s-.06-.03-.09-.04h.01s.05,.03,.07,.04Z"/><path d="M233.04,162.91h-.01c.05,.34,.12,.68,.2,1.01v-.04c-.08-.32-.14-.64-.19-.97Z"/><path d="M237.44,186.91c.32-7.44-.12-14.76-3.15-21.65h0c3.03,6.88,3.48,14.2,3.16,21.65Z"/><path d="M233.65,165.26c.2,.55,.42,1.1,.64,1.65-.21-.55-.43-1.1-.63-1.65h0Z"/><path d="M233.23,163.07h0c-.03-.06-.05-.11-.08-.16h0c.03,.05,.05,.11,.08,.16Z"/><path d="M169.49,176.34c.01-1.54,.03-3.09,.07-4.64h0c-.04,1.55-.06,3.09-.07,4.64Z"/><path d="M237.12,196.35c.02,.83,.1,1.67,.18,2.5h0c-.08-.84-.16-1.67-.18-2.5Z"/><path d="M231.62,159.74c-.24-.41-.48-.81-.73-1.22h0c.24,.4,.49,.81,.73,1.22Z"/><path d="M230.6,158.52c.15,.63,.43,1.18,.82,1.67-.39-.49-.67-1.04-.82-1.67h0Z"/><path d="M228.95,155.62s0,.04-.01,.06h0s0-.04,.02-.06h0Z"/><path d="M228.92,155.65h0l.02,.04h0l-.02-.04Z"/><path d="M228.92,155.75c-.08,.34-.02,.61,.12,.82-.15-.22-.21-.48-.12-.82Z"/><path d="M229.21,156.76s.03,.03,.04,.04h0s-.03-.03-.04-.04Z"/><polygon points="228.95 155.62 228.95 155.62 228.95 155.61 228.95 155.61 228.95 155.62"/><polygon points="228.95 155.62 228.95 155.62 228.95 155.62 228.95 155.62"/><polygon points="174.34 154.34 174.33 154.33 174.33 154.34 174.34 154.34"/><path d="M174.29,154.3l-.02-.02s0,.01,0,.02c0,0,0,0,0,.01,0,0,.07,.02,.07,.02h0l-.04-.03Z"/><polygon points="174.34 154.34 174.34 154.34 174.33 154.34 174.34 154.34"/><path d="M168.97,177.55h0c-.19-2.14-.07-4.29,.7-6.48h0c.1-.95-.88-1.43-1.16-2.21,.28,.79,1.26,1.26,1.16,2.22-.77,2.19-.89,4.34-.69,6.48Z"/><path d="M169.95,183.14c-.16-.71-.31-1.43-.46-2.14h0c.14,.71,.3,1.43,.46,2.14Z"/><path d="M231.4,189.81c-.42,.17-.95,.27-1.67,.34h0c.72-.07,1.25-.16,1.67-.34Z"/><path d="M188.53,147.08c.1-.21,.21-.39,.34-.54-.13,.15-.24,.33-.34,.54h0Z"/><path d="M170.96,171.4c.03-.69-.29-1.05-1.29-.34h0c1-.72,1.32-.35,1.29,.34Z"/><path d="M175.93,187.44c.03,.94,.72,.91,1.4,.86-.15-.65-.39-1.22-.75-1.68-.38,.06-.67,.25-.65,.82Z"/><path d="M237.29,198.86c.17-.37,.3-.74,.4-1.12-.1,.37-.23,.75-.4,1.11h0Z"/><path d="M237.29,198.86c.17-.37,.3-.74,.4-1.11,.1-.36,.16-.73,.2-1.1,.04-.37,.06-.74,.06-1.11h0c0-.28,0-.55-.02-.82v-.04c-.02-.26-.04-.52-.06-.78v-.07c-.03-.25-.05-.51-.08-.76-.03-.29-.06-.58-.08-.87-.31,.83-.48,1.66-.56,2.5-.03,.28-.04,.56-.05,.83,0,.28,0,.56,0,.83,.02,.83,.1,1.67,.18,2.5Z"/><path d="M237.9,196.65c-.04,.37-.11,.73-.2,1.1,.1-.36,.16-.73,.2-1.1Z"/><polygon points="174.27 154.28 174.27 154.29 174.27 154.29 174.27 154.28"/><polygon points="174.27 154.29 174.27 154.27 174.27 154.28 174.27 154.29"/><rect x="228.77" y="156.81" width=".38" height=".38"/><path d="M233,162.62h0c0,.1,.03,.19,.04,.28h.1c-.05-.09-.09-.19-.15-.28Z"/><path d="M232.56,161.33c-.01,.13-.03,.26-.05,.39,.01-.13,.04-.25,.05-.38h0Z"/><path d="M232.88,162.35c-.11-.34-.22-.69-.32-1.03v.02c.11,.34,.22,.68,.32,1.02Z"/><path d="M232.51,161.72c-.03,.29,0,.55,.39,.69h0l-.02-.06c-.11-.34-.21-.68-.32-1.02-.01,.13-.04,.25-.05,.38Z"/><path d="M232.56,161.33h0v0Z"/><path d="M232.48,161.18h.02c-.13-.2-.26-.42-.39-.63h0c.12,.22,.25,.42,.37,.63Z"/><path d="M232.48,161.18c-.13-.1-.25-.19-.37-.29h0c.12,.12,.25,.22,.39,.32l-.02-.03Z"/><path d="M232.11,160.56v.33c.12,.1,.24,.2,.37,.29-.12-.21-.25-.42-.37-.63Z"/><path d="M232.51,161.22l-.02-.03h-.02l.02,.02h.02Z"/><path d="M232.56,161.27h0s-.03-.03-.05-.04l.04,.06v-.02Z"/><path d="M232.55,161.29v.02s.01-.03,.01-.05v.02h-.01Z"/><path d="M232.55,161.29v-.02h.01v.02h-.01Z"/><path d="M233,162.62h0s-.05-.09-.07-.14l-.02-.08h0c-.39-.14-.43-.4-.39-.69,.01-.13,.04-.26,.05-.39v-.03l-.06-.08c-.14-.1-.27-.2-.39-.31v2.01h.92c-.01-.09-.02-.19-.03-.28h0Z"/><path d="M232.57,161.25h0s0,.04,0,.06c.11,.34,.22,.69,.32,1.03l.02,.06s.05,.02,.08,.03c0,.03,0,.05,0,.08,0,.03,0,.07,.01,.1h0c.05,.09,.1,.19,.15,.29h.08v-2.36h-1.12c.13,.22,.26,.43,.39,.65,.03,.02,.05,.04,.08,.06Z"/><path d="M233,162.62c.05,.09,.09,.19,.15,.28h0c-.05-.09-.1-.19-.15-.29h0Z"/><path d="M233,162.62c0,.09,.02,.19,.03,.28h.01c-.01-.09-.03-.19-.04-.28Z"/><path d="M232.56,161.26h0s-.05-.05-.08-.07l.02,.03s.03,.03,.05,.04Z"/><path d="M232.51,161.22h-.02l.05,.07h0l-.04-.07Z"/><path d="M232.56,161.31h0s0-.03,0-.05h0s0,.04,0,.05Z"/><path d="M232.9,162.41l-.02-.06,.02,.06h0Z"/><path d="M232.55,161.29h0v0Z"/><path d="M232.51,161.72c-.03,.29,0,.55,.39,.69-.39-.14-.42-.41-.39-.69Z"/><polygon points="232.55 161.29 232.55 161.3 232.55 161.29 232.55 161.29"/><polygon points="232.56 161.27 232.56 161.27 232.57 161.26 232.57 161.26 232.56 161.27"/><path d="M232.93,162.49s.05,.09,.07,.14h0s-.04-.09-.07-.14l.02-.02-.03,.02-.03-.08h0l.02,.08Z"/><polygon points="233 162.62 233 162.62 233 162.62 233 162.62 233 162.62"/><path d="M232.93,162.49s.05,.09,.07,.13v-.1s-.02-.05-.02-.08l-.03,.02-.02,.02Z"/><path d="M233,162.62s0-.07-.01-.1v.1h.01Z"/><path d="M232.95,162.46l.03-.02s-.05-.02-.08-.03l.03,.08,.03-.02Z"/><path d="M232.98,162.44l-.03,.02,.03-.02Z"/><path d="M233.65,165.26h.63c-.32-.74-.68-1.47-1.06-2.2v.81c.12,.47,.26,.93,.43,1.39Z"/><path d="M233.23,165.26h.43c-.16-.44-.31-.89-.43-1.34v1.34Z"/><path d="M234.3,165.26h.05v-2.36h-1.12v.15c.39,.73,.75,1.46,1.07,2.2Z"/><path d="M233.23,163.07c.39,.73,.74,1.46,1.06,2.2h0c-.33-.74-.68-1.47-1.07-2.2h0Z"/><path d="M233.23,163.88v.04c.12,.46,.26,.9,.43,1.34h0c-.17-.46-.31-.92-.43-1.39Z"/><path d="M230.58,158.43s.01,.07,.02,.1h.28c-.13-.21-.26-.43-.39-.64h0c.01,.19,.05,.37,.08,.54Z"/><polygon points="229.91 157.38 229.91 157.38 229.91 157.38 229.91 157.38"/><polygon points="229.92 157.39 229.91 157.38 229.91 157.38 229.92 157.39"/><polygon points="229.91 157.38 229.91 157.38 229.91 157.38 229.91 157.38 229.91 157.38"/><path d="M229.91,157.38s.05,.09,.07,.12h0c.09,.12,.21,.19,.37,.2h0l-.44-.32h0Z"/><path d="M229.74,157.18h0c-.07-.12-.13-.25-.2-.37h0c.07,.12,.13,.25,.2,.37Z"/><path d="M229.74,157.18h0c-.09-.06-.17-.12-.26-.18,.08,.06,.17,.12,.26,.18Z"/><path d="M229.31,156.86s.05,.05,.08,.07c.03,.02,.06,.04,.08,.07,.08,.06,.17,.12,.26,.18-.07-.12-.13-.25-.2-.37h-.28s.04,.04,.06,.06Z"/><polygon points="229.74 157.18 229.74 157.18 229.74 157.18 229.74 157.18 229.74 157.18"/><path d="M229.85,157.26h0s.04,.08,.06,.12h0c.15,.12,.3,.22,.44,.33,.04,0,.07,.01,.11,0h0s0,.1,.01,.14h0c.13,.22,.26,.45,.39,.67h.61v-1.72h-1.96c.07,.12,.13,.25,.2,.37l.11,.08Z"/><polygon points="230.36 157.71 230.36 157.71 230.35 157.71 230.36 157.71"/><path d="M230.5,157.88h0s-.05-.08-.07-.12l-.07-.05h0c-.16-.01-.28-.08-.37-.2h0s-.05-.08-.07-.13h0l-.1-.08s-.04-.08-.07-.12c-.09-.06-.17-.12-.26-.18-.03-.02-.06-.04-.08-.07-.03-.02-.06-.05-.08-.07-.02-.02-.04-.04-.07-.06h-.1v1.72h1.45s0-.07-.01-.1c-.04-.18-.07-.35-.08-.54Z"/><path d="M230.5,157.88c.13,.21,.26,.43,.39,.64h0c-.13-.22-.26-.44-.39-.66v.02Z"/><path d="M230.58,158.43s0,.07,.01,.1h0s-.01-.06-.02-.1Z"/><path d="M230.58,158.43c-.04-.18-.07-.35-.08-.54,.01,.19,.05,.37,.08,.54Z"/><path d="M229.85,157.26h0l-.11-.08h0l.11,.08Z"/><path d="M229.8,157.3l-.06-.12h0s.04,.08,.07,.12h0Z"/><path d="M229.25,156.81h0s.04,.04,.07,.06c-.02-.02-.04-.04-.06-.06Z"/><path d="M230.48,157.71s-.08,0-.11,0h0s.07,0,.11,0Z"/><path d="M229.91,157.38h0s-.04-.08-.06-.12h0s.04,.08,.06,.12Z"/><path d="M230.36,157.71c-.15-.11-.3-.21-.44-.32l.44,.32h0Z"/><path d="M230.35,157.71c-.16-.01-.28-.08-.37-.2,.09,.12,.21,.19,.37,.2Z"/><path d="M229.8,157.3h0l.1,.07h0l-.1-.07Z"/><path d="M230.43,157.76s-.04-.03-.07-.05h0l.07,.05s.05,.08,.07,.12v-.02l-.07-.11h0Z"/><path d="M230.5,157.86h0c0-.05-.01-.1-.01-.15,0,0-.04,.03-.05,.04l.06,.11Z"/><path d="M230.43,157.76h0l.05-.04h0s-.08,0-.11,0c.02,.02,.04,.03,.07,.05Z"/><path d="M230.43,157.75s.05-.04,.05-.04l-.05,.04h0Z"/><polygon points="229.85 157.26 229.85 157.26 229.8 157.3 229.85 157.26"/><path d="M229.8,157.3h0l.04-.05-.11-.07,.06,.12Z"/><path d="M229.91,157.38s-.04-.08-.06-.12h0l-.04,.05,.1,.07Z"/></g></g></g><g><path class="p" d="M111.98,67.14c0-.32,.06-.54,.19-.65,.13-.11,.35-.16,.65-.16h10.56v-4.15c0-.32,.06-.54,.19-.65,.13-.11,.35-.16,.65-.16h4.53c.3,0,.52,.05,.65,.16,.13,.11,.19,.32,.19,.65v4.15h10.56c.3,0,.52,.05,.65,.16,.13,.11,.19,.32,.19,.65v3.79c0,.32-.06,.54-.19,.65-.13,.11-.35,.16-.65,.16h-27.33c-.3,0-.52-.05-.65-.16-.13-.11-.19-.32-.19-.65v-3.79Zm3.04-5.08h-.31c-.12,0-.24-.03-.36-.1-.12-.06-.22-.16-.29-.29-.08-.13-.11-.31-.11-.55v-3.79c0-.41,.04-.67,.13-.78,.09-.11,.28-.18,.58-.23,1.42-.15,2.68-.44,3.77-.88,1.09-.43,2-.97,2.74-1.6,.73-.64,1.28-1.36,1.65-2.17,.37-.81,.55-1.67,.55-2.57v-6.51c0-.32,.06-.54,.19-.65,.13-.11,.35-.16,.65-.16h4.53c.3,0,.52,.05,.65,.16,.13,.11,.19,.32,.19,.65v6.51c0,.91,.18,1.76,.55,2.57s.92,1.53,1.65,2.17,1.65,1.17,2.74,1.6c1.09,.43,2.35,.72,3.77,.88,.3,.04,.5,.12,.58,.23,.09,.11,.13,.37,.13,.78v3.79c0,.24-.04,.42-.11,.55-.08,.13-.17,.23-.29,.29s-.24,.1-.36,.1h-.31c-1.36-.13-2.65-.36-3.85-.7-1.21-.33-2.3-.73-3.29-1.2-.98-.46-1.84-.98-2.57-1.55-.73-.57-1.32-1.15-1.75-1.73-.43,.58-1.02,1.16-1.75,1.73-.73,.57-1.6,1.09-2.59,1.55-.99,.46-2.09,.86-3.29,1.2s-2.48,.57-3.84,.7Z"/><path class="p" d="M157.25,73.74c-4.21,0-7.36-.54-9.46-1.62-2.09-1.08-3.14-2.68-3.14-4.79,0-1.83,.79-3.28,2.38-4.32,1.59-1.05,3.96-1.69,7.11-1.93v-1.07h-10.56c-.3,0-.52-.05-.65-.16-.13-.11-.19-.32-.19-.65v-3.79c0-.32,.06-.54,.19-.65,.13-.11,.35-.16,.65-.16h27.33c.3,0,.52,.05,.65,.16,.13,.11,.19,.32,.19,.65v3.79c0,.32-.06,.54-.19,.65-.13,.11-.35,.16-.65,.16h-10.56v1.07c3.13,.24,5.49,.88,7.09,1.93s2.4,2.49,2.4,4.32c0,2.12-1.05,3.71-3.14,4.79-2.09,1.08-5.25,1.62-9.46,1.62Zm-12.66-30.99c0-.32,.06-.54,.19-.65,.13-.11,.34-.16,.65-.16h23.57c.3,0,.52,.05,.65,.16,.13,.11,.19,.32,.19,.65v3.27c0,.32-.06,.54-.19,.65-.13,.11-.35,.16-.65,.16h-7.45c.8,.5,1.83,.87,3.11,1.12,1.27,.25,2.74,.43,4.4,.53,.06,0,.15,.01,.26,.03,.11,.02,.21,.07,.31,.13s.18,.16,.24,.29c.06,.13,.1,.31,.1,.55v3.17c0,.24-.04,.42-.11,.55-.08,.13-.17,.22-.29,.28-.12,.05-.24,.09-.36,.1-.12,.01-.22,.02-.31,.02-3-.11-5.5-.47-7.5-1.1-2-.63-3.41-1.42-4.23-2.4-.82,.97-2.22,1.77-4.21,2.4-1.99,.63-4.48,.99-7.48,1.1-.09,0-.19,0-.31-.02s-.24-.04-.36-.1c-.12-.05-.22-.15-.29-.28-.08-.13-.11-.31-.11-.55v-3.17c0-.24,.03-.42,.1-.55,.06-.13,.15-.23,.24-.29s.2-.11,.31-.13c.11-.02,.19-.03,.26-.03,1.64-.11,3.1-.29,4.39-.53,1.28-.25,2.31-.62,3.09-1.12h-7.38c-.3,0-.52-.05-.65-.16-.13-.11-.19-.32-.19-.65v-3.27Zm12.66,26.07c1.29,0,2.35-.03,3.17-.08,.82-.05,1.47-.14,1.94-.26,.47-.12,.8-.28,.99-.47,.18-.19,.28-.43,.28-.71,0-.26-.09-.49-.28-.68-.18-.19-.51-.35-.99-.47-.48-.12-1.12-.21-1.94-.28-.82-.06-1.88-.1-3.17-.1s-2.35,.03-3.17,.1c-.82,.07-1.47,.16-1.94,.28-.48,.12-.8,.28-.99,.47-.18,.19-.28,.42-.28,.68,0,.28,.09,.52,.28,.71,.18,.19,.51,.35,.99,.47,.47,.12,1.12,.2,1.94,.26,.82,.05,1.88,.08,3.17,.08Z"/><path class="p" d="M173.31,43.95c0-.32,.06-.54,.19-.65,.13-.11,.34-.16,.65-.16h5.57v-1.17c0-.32,.06-.54,.19-.65,.13-.11,.35-.16,.65-.16h4.53c.3,0,.52,.05,.65,.16,.13,.11,.19,.32,.19,.65v1.17h5.5c.3,0,.52,.05,.65,.16,.13,.11,.19,.32,.19,.65v3.14c0,.32-.06,.54-.19,.65-.13,.11-.35,.16-.65,.16h-17.29c-.3,0-.52-.05-.65-.16-.13-.11-.19-.32-.19-.65v-3.14Zm.71,11.2c0-.76,.12-1.5,.37-2.22,.25-.72,.7-1.37,1.36-1.94,.66-.57,1.56-1.03,2.7-1.38,1.14-.35,2.6-.52,4.37-.52s3.23,.17,4.37,.52c1.14,.35,2.04,.8,2.7,1.38,.66,.57,1.11,1.22,1.36,1.94,.25,.72,.37,1.46,.37,2.22s-.12,1.5-.37,2.23c-.25,.73-.7,1.38-1.36,1.94-.66,.56-1.56,1.02-2.7,1.36-1.14,.35-2.6,.52-4.37,.52s-3.23-.17-4.37-.52c-1.14-.34-2.05-.8-2.7-1.36-.66-.56-1.11-1.21-1.36-1.94-.25-.73-.37-1.48-.37-2.23Zm27.69,15.77c.04,.32-.01,.53-.16,.62-.15,.09-.38,.15-.68,.19-1.49,.15-3.04,.29-4.65,.4-1.61,.12-3.22,.22-4.82,.31-1.61,.09-3.2,.15-4.76,.19-1.57,.04-3.04,.07-4.42,.07-2.07,0-3.56-.56-4.45-1.67-.9-1.11-1.34-2.89-1.34-5.33v-2.27c0-.32,.06-.54,.19-.65,.13-.11,.35-.16,.65-.16h4.53c.3,0,.52,.05,.65,.16,.13,.11,.19,.32,.19,.65v1.65c0,.78,.16,1.35,.49,1.72,.32,.37,.92,.54,1.78,.52,1.17-.02,2.4-.06,3.71-.11s2.63-.12,3.97-.19c1.34-.08,2.68-.17,4.03-.29,1.35-.12,2.66-.24,3.93-.37,.3-.04,.51,0,.62,.13,.11,.13,.18,.36,.23,.68l.32,3.76Zm-21.53-15.77c0,.52,.23,.94,.7,1.28,.46,.33,1.12,.5,1.96,.5s1.49-.17,1.96-.5c.46-.33,.7-.76,.7-1.28s-.23-.94-.7-1.28c-.46-.33-1.12-.5-1.96-.5s-1.5,.17-1.96,.5c-.46,.33-.7,.76-.7,1.28Zm24.58-1.33c0,.32-.06,.54-.19,.65-.13,.11-.35,.16-.65,.16h-2.98v7.87c0,.32-.06,.54-.19,.65-.13,.11-.35,.16-.65,.16h-4.53c-.3,0-.52-.05-.65-.16-.13-.11-.19-.32-.19-.65v-19.75c0-.32,.06-.54,.19-.65,.13-.11,.34-.16,.65-.16h4.53c.3,0,.52,.05,.65,.16,.13,.11,.19,.32,.19,.65v6.51h2.98c.3,0,.52,.05,.65,.16,.13,.11,.19,.32,.19,.65v3.76Z"/><path class="p" d="M221.65,47.16c-.04,.58-.08,1.12-.1,1.6-.02,.49-.02,1.04,0,1.67,.02,.78,.19,1.35,.5,1.72,.31,.37,.9,.54,1.76,.52,1.27-.04,2.59-.09,3.95-.13,1.36-.04,2.85-.14,4.47-.29,.3-.04,.51,0,.62,.11,.11,.12,.18,.34,.23,.66l.32,3.66c.04,.32-.01,.53-.16,.62-.15,.09-.38,.15-.68,.19-2.14,.17-4.14,.29-6.01,.36-1.87,.06-3.68,.1-5.42,.1-2.07,0-3.56-.55-4.45-1.67-.9-1.11-1.34-2.89-1.34-5.33,0-1.49,.03-2.87,.1-4.14,.06-1.27,.18-2.62,.36-4.05,.04-.32,.12-.54,.23-.65s.31-.16,.62-.16h15.09c.3,0,.52,.05,.65,.16,.13,.11,.19,.32,.19,.65v3.59c0,.32-.06,.54-.19,.65-.13,.11-.35,.16-.65,.16h-10.07Zm9.65,26.58c-1.88,0-3.48-.18-4.81-.55-1.33-.37-2.41-.87-3.24-1.52-.83-.65-1.44-1.4-1.81-2.25-.38-.85-.57-1.76-.57-2.74s.19-1.88,.58-2.74c.39-.85,1-1.6,1.85-2.23,.84-.64,1.92-1.14,3.24-1.5,1.32-.37,2.9-.55,4.76-.55s3.44,.18,4.76,.55c1.32,.37,2.4,.87,3.24,1.5,.84,.64,1.46,1.38,1.85,2.23,.39,.85,.58,1.77,.58,2.74s-.19,1.88-.57,2.74-.98,1.6-1.81,2.25c-.83,.65-1.91,1.15-3.24,1.52-1.33,.37-2.93,.55-4.81,.55Zm0-5.08c.56,0,1.1-.03,1.62-.1,.52-.06,.98-.17,1.38-.32,.4-.15,.72-.36,.96-.62,.24-.26,.36-.58,.36-.97s-.12-.71-.36-.96c-.24-.25-.56-.45-.96-.62s-.86-.28-1.38-.34c-.52-.07-1.06-.1-1.62-.1s-1.1,.03-1.62,.1c-.52,.06-.98,.18-1.38,.34s-.72,.37-.96,.62c-.24,.25-.36,.57-.36,.96s.12,.71,.36,.97c.24,.26,.56,.46,.96,.62,.4,.15,.86,.26,1.38,.32,.52,.07,1.06,.1,1.62,.1Zm14.9-17.1c0,.32-.06,.54-.19,.65-.13,.11-.35,.16-.65,.16h-2.98v5.73c0,.32-.06,.54-.19,.65-.13,.11-.35,.16-.65,.16h-4.53c-.3,0-.52-.05-.65-.16-.13-.11-.19-.32-.19-.65v-15.35c0-.32,.06-.54,.19-.65,.13-.11,.34-.16,.65-.16h4.53c.3,0,.52,.05,.65,.16,.13,.11,.19,.32,.19,.65v4.24h2.98c.3,0,.52,.05,.65,.16,.13,.11,.19,.32,.19,.65v3.76Z"/><path class="p" d="M258.92,41.95c.3,0,.52,.05,.65,.16,.13,.11,.19,.32,.19,.65v5.86c0,.63,.08,1.24,.23,1.83,.15,.59,.43,1.14,.84,1.65,.41,.51,.96,.96,1.65,1.36,.69,.4,1.58,.71,2.66,.92,.09,.02,.19,.04,.31,.06,.12,.02,.23,.07,.34,.15,.11,.08,.2,.18,.27,.32,.08,.14,.11,.34,.11,.6v3.59c0,.39-.1,.62-.31,.7-.21,.08-.38,.1-.53,.08-.76-.06-1.53-.18-2.31-.34-.79-.16-1.56-.39-2.32-.68-.76-.29-1.48-.66-2.17-1.12-.69-.45-1.31-.99-1.85-1.62-.56,.63-1.18,1.17-1.86,1.62-.68,.45-1.4,.83-2.15,1.12-.76,.29-1.53,.52-2.31,.68-.79,.16-1.56,.28-2.32,.34-.15,.02-.33,0-.53-.08-.21-.08-.31-.31-.31-.7v-3.59c0-.26,.04-.46,.11-.6,.08-.14,.17-.25,.28-.32,.11-.08,.22-.12,.34-.15,.12-.02,.22-.04,.31-.06,1.08-.22,1.96-.52,2.66-.92,.69-.4,1.24-.85,1.65-1.36,.41-.51,.69-1.06,.84-1.65,.15-.59,.23-1.2,.23-1.83v-5.86c0-.32,.06-.54,.19-.65,.13-.11,.34-.16,.65-.16h4.47Zm16.94,28.98c.04,.32-.01,.53-.16,.62-.15,.09-.38,.15-.68,.19-1.49,.15-3.06,.29-4.7,.4-1.64,.12-3.29,.22-4.94,.31-1.65,.09-3.28,.15-4.87,.19-1.6,.04-3.09,.07-4.47,.07-2.07,0-3.56-.56-4.45-1.67-.9-1.11-1.34-2.89-1.34-5.33v-3.56c0-.32,.06-.54,.19-.65,.13-.11,.35-.16,.65-.16h4.53c.3,0,.52,.05,.65,.16,.13,.11,.19,.32,.19,.65v2.95c0,.78,.16,1.35,.49,1.72,.32,.37,.92,.54,1.78,.52,1.17-.02,2.42-.06,3.76-.11,1.34-.05,2.7-.12,4.08-.19,1.38-.08,2.76-.17,4.15-.29,1.38-.12,2.71-.24,3.98-.37,.3-.04,.51,0,.62,.13,.11,.13,.18,.36,.23,.68l.32,3.76Zm-5.73-7.61c-.3,0-.52-.05-.65-.16-.13-.11-.19-.32-.19-.65v-19.75c0-.32,.06-.54,.19-.65,.13-.11,.34-.16,.65-.16h4.53c.3,0,.52,.05,.65,.16,.13,.11,.19,.32,.19,.65v19.75c0,.32-.06,.54-.19,.65-.13,.11-.35,.16-.65,.16h-4.53Z"/><path class="p" d="M287.22,71.83c0,.78-.1,1.5-.31,2.17s-.54,1.26-1.02,1.78c-.48,.52-1.1,.96-1.88,1.31-.78,.36-1.74,.6-2.88,.73v-1.2c.22-.04,.45-.15,.7-.31s.48-.41,.7-.73c.22-.32,.39-.74,.53-1.25s.22-1.14,.24-1.89h-1.26c-.3,0-.52-.05-.65-.16-.13-.11-.19-.32-.19-.65v-4.05c0-.32,.06-.54,.19-.65,.13-.11,.34-.16,.65-.16h4.34c.3,0,.52,.05,.65,.16,.13,.11,.19,.32,.19,.65v4.24Z"/><path class="p" d="M111.88,99.03c0,1.36-.29,2.34-.87,2.95-.58,.6-1.46,.91-2.62,.91h-5.83v4.31h10.56c.3,0,.52,.05,.65,.16,.13,.11,.19,.32,.19,.65v3.79c0,.32-.06,.54-.19,.65-.13,.11-.35,.16-.65,.16h-27.33c-.3,0-.52-.05-.65-.16-.13-.11-.19-.32-.19-.65v-3.79c0-.32,.06-.54,.19-.65,.13-.11,.35-.16,.65-.16h10.56v-4.31h-5.86c-1.17,0-2.04-.3-2.62-.91s-.87-1.59-.87-2.95v-15.41c0-.32,.06-.54,.19-.65,.13-.11,.35-.16,.65-.16h4.21c.3,0,.52,.05,.65,.16,.13,.11,.19,.32,.19,.65v4.63h13.11v-4.63c0-.32,.06-.54,.19-.65,.13-.11,.35-.16,.65-.16h4.21c.3,0,.52,.05,.65,.16,.13,.11,.19,.32,.19,.65v15.41Zm-6.83-1.23c.37,0,.62-.07,.75-.21,.13-.14,.19-.42,.19-.83v-3.43h-13.11v3.43c0,.41,.06,.69,.19,.83,.13,.14,.38,.21,.74,.21h11.24Z"/><path class="p" d="M117.93,98.18c0-4.92,4.09-7.38,12.27-7.38,4.08,0,7.15,.57,9.2,1.72s3.08,3.03,3.08,5.67c0,2.29-.77,4.01-2.3,5.17-1.53,1.16-3.82,1.86-6.86,2.12v1.72h10.56c.3,0,.52,.05,.65,.16,.13,.11,.19,.32,.19,.65v3.79c0,.32-.06,.54-.19,.65-.13,.11-.35,.16-.65,.16h-27.33c-.3,0-.52-.05-.65-.16-.13-.11-.19-.32-.19-.65v-3.79c0-.32,.06-.54,.19-.65,.13-.11,.35-.16,.65-.16h10.56v-1.75c-6.11-.56-9.16-2.98-9.16-7.25Zm-.65-12.95c0-.32,.06-.54,.19-.65,.13-.11,.35-.16,.65-.16h9.07v-1.62c0-.32,.06-.54,.19-.65,.13-.11,.35-.16,.65-.16h4.53c.3,0,.52,.05,.65,.16,.13,.11,.19,.32,.19,.65v1.62h8.87c.3,0,.52,.05,.65,.16,.13,.11,.19,.32,.19,.65v3.63c0,.32-.06,.54-.19,.65-.13,.11-.35,.16-.65,.16h-24.16c-.3,0-.52-.05-.65-.16-.13-.11-.19-.32-.19-.65v-3.63Zm6.99,12.95c0,.95,.5,1.61,1.49,1.99,.99,.38,2.47,.57,4.44,.57s3.44-.2,4.44-.6c.99-.4,1.49-1.05,1.49-1.96s-.5-1.56-1.49-1.96c-.99-.4-2.47-.6-4.44-.6s-3.44,.19-4.44,.57c-.99,.38-1.49,1.04-1.49,1.99Z"/><path class="p" d="M146.11,86.75c0-.32,.06-.54,.19-.65,.13-.11,.35-.16,.65-.16h3.79v-3.11c0-.32,.06-.54,.19-.65,.13-.11,.35-.16,.65-.16h4.53c.3,0,.52,.05,.65,.16,.13,.11,.19,.32,.19,.65v3.11h3.72c.3,0,.52,.05,.65,.16,.13,.11,.19,.32,.19,.65v3.46c0,.32-.06,.54-.19,.65s-.35,.16-.65,.16h-13.73c-.3,0-.52-.05-.65-.16s-.19-.32-.19-.65v-3.46Zm7.67,24.9c-1.49,0-2.7-.28-3.63-.84-.93-.56-1.65-1.29-2.17-2.19-.52-.9-.87-1.91-1.05-3.03-.18-1.12-.28-2.25-.28-3.37s.09-2.21,.28-3.33c.18-1.12,.53-2.13,1.05-3.03,.52-.9,1.24-1.62,2.17-2.19,.93-.56,2.14-.84,3.63-.84s2.7,.28,3.63,.84c.93,.56,1.65,1.29,2.17,2.19s.87,1.91,1.05,3.03c.18,1.12,.28,2.23,.28,3.33s-.09,2.25-.28,3.37c-.18,1.12-.53,2.13-1.05,3.03s-1.24,1.62-2.17,2.19c-.93,.56-2.14,.84-3.63,.84Zm0-5.18c.22,0,.43-.06,.63-.18,.21-.12,.39-.33,.55-.65,.16-.31,.29-.74,.37-1.29s.13-1.27,.13-2.15-.04-1.58-.13-2.14-.21-.99-.37-1.3c-.16-.3-.35-.51-.55-.63-.21-.12-.42-.18-.63-.18-.24,0-.45,.06-.65,.18-.19,.12-.37,.33-.53,.63-.16,.3-.29,.73-.37,1.3-.09,.56-.13,1.27-.13,2.14s.04,1.6,.13,2.15c.09,.55,.21,.98,.37,1.29,.16,.31,.34,.53,.53,.65,.19,.12,.41,.18,.65,.18Zm9.39,6.44c-.3,0-.52-.05-.65-.16-.13-.11-.19-.32-.19-.65v-28.5c0-.32,.06-.54,.19-.65,.13-.11,.34-.16,.65-.16h4.05c.3,0,.52,.05,.65,.16,.13,.11,.19,.32,.19,.65v10.2h1.42v-10.2c0-.32,.06-.54,.19-.65,.13-.11,.34-.16,.65-.16h4.05c.3,0,.52,.05,.65,.16,.13,.11,.19,.32,.19,.65v28.5c0,.32-.06,.54-.19,.65-.13,.11-.35,.16-.65,.16h-4.05c-.3,0-.52-.05-.65-.16-.13-.11-.19-.32-.19-.65v-12.92h-1.42v12.92c0,.32-.06,.54-.19,.65-.13,.11-.35,.16-.65,.16h-4.05Z"/><path class="p" d="M178.84,108c0-.32,.06-.54,.19-.65,.13-.11,.35-.16,.65-.16h27.33c.3,0,.52,.05,.65,.16,.13,.11,.19,.32,.19,.65v3.79c0,.32-.06,.54-.19,.65-.13,.11-.35,.16-.65,.16h-27.33c-.3,0-.52-.05-.65-.16-.13-.11-.19-.32-.19-.65v-3.79Zm27.01-6.83c.04,.32-.01,.53-.16,.62-.15,.09-.38,.15-.68,.19-1.49,.15-3.02,.28-4.6,.39-1.58,.11-3.15,.2-4.73,.28-1.58,.08-3.12,.13-4.65,.16-1.52,.03-2.97,.05-4.36,.05-2.07,0-3.56-.56-4.45-1.67-.9-1.11-1.34-2.89-1.34-5.33v-12.24c0-.32,.06-.54,.19-.65,.13-.11,.35-.16,.65-.16h22.89c.3,0,.52,.05,.65,.16,.13,.11,.19,.32,.19,.65v3.79c0,.32-.07,.54-.19,.65-.13,.11-.35,.16-.65,.16h-17.52v7.03c0,.78,.16,1.35,.49,1.72,.32,.37,.92,.54,1.78,.52,2.35-.04,4.86-.13,7.51-.26,2.66-.13,5.26-.33,7.8-.62,.3-.04,.51,0,.62,.13,.11,.13,.18,.36,.23,.68l.32,3.76Z"/><path class="p" d="M228.03,92c0,.32-.06,.54-.19,.65-.13,.11-.34,.16-.65,.16h-10.1c-.24,0-.39,.05-.45,.15-.07,.1-.1,.26-.1,.5v.32c0,.37,.09,.6,.28,.7,.18,.1,.48,.15,.89,.15,1.06,0,2.04-.02,2.96-.05,.92-.03,1.79-.07,2.62-.11,.83-.04,1.64-.1,2.43-.18,.79-.08,1.58-.15,2.38-.21,.3-.04,.51,0,.62,.11,.11,.12,.18,.34,.23,.66l.26,2.95c.04,.32-.01,.53-.16,.62s-.38,.15-.68,.19c-2.14,.17-4.25,.31-6.33,.4-2.08,.1-4.16,.15-6.23,.15-1.04,0-1.9-.07-2.59-.21-.69-.14-1.25-.38-1.68-.73-.43-.35-.74-.82-.92-1.42-.18-.6-.28-1.38-.28-2.33v-4.92c0-.32,.06-.54,.19-.65,.13-.11,.34-.16,.65-.16h10.07c.24,0,.39-.04,.47-.11s.11-.21,.11-.4v-.45c0-.21-.03-.36-.1-.42-.07-.06-.21-.1-.42-.1h-10.13c-.3,0-.52-.05-.65-.16-.13-.11-.19-.32-.19-.65v-2.82c0-.32,.06-.54,.19-.65,.13-.11,.34-.16,.65-.16h13.73c1.17,0,1.98,.28,2.45,.84,.46,.56,.7,1.44,.7,2.62v5.73Zm9.75,17.71c0,1.36-.29,2.34-.87,2.95s-1.46,.91-2.62,.91h-18.59c-1.17,0-2.04-.3-2.62-.91s-.87-1.59-.87-2.95v-8.29c0-.32,.06-.54,.19-.65,.13-.11,.34-.16,.65-.16h4.53c.3,0,.52,.05,.65,.16,.13,.11,.19,.32,.19,.65v1.23h13.15v-1.23c0-.32,.06-.54,.19-.65,.13-.11,.34-.16,.65-.16h4.53c.3,0,.52,.05,.65,.16,.13,.11,.19,.32,.19,.65v8.29Zm-7.16-.78c.37,0,.62-.07,.75-.21,.13-.14,.19-.42,.19-.83v-.78h-13.15v.78c0,.41,.07,.69,.19,.83,.13,.14,.38,.21,.75,.21h11.27Zm1.78-9.62c-.3,0-.52-.05-.65-.16-.13-.11-.19-.32-.19-.65v-14.9c0-.32,.06-.54,.19-.65,.13-.11,.34-.16,.65-.16h4.53c.3,0,.52,.05,.65,.16,.13,.11,.19,.32,.19,.65v14.9c0,.32-.06,.54-.19,.65-.13,.11-.35,.16-.65,.16h-4.53Z"/><path class="p" d="M251.18,105.92c1.6-.04,3.13-.1,4.6-.18,1.47-.08,3.01-.19,4.63-.34,.3-.04,.51,0,.62,.11,.11,.12,.18,.34,.23,.66l.32,3.76c.04,.32-.01,.53-.16,.62-.15,.09-.38,.15-.68,.19-2.14,.17-4.19,.31-6.17,.4-1.97,.1-4,.15-6.07,.15s-3.56-.56-4.45-1.67c-.9-1.11-1.34-2.89-1.34-5.33,0-1.9,.01-3.73,.03-5.5,.02-1.77,.05-3.5,.08-5.18s.08-3.35,.13-5,.12-3.32,.21-5c.02-.32,.09-.54,.21-.65,.12-.11,.33-.16,.63-.16h4.44c.3,0,.52,.05,.66,.16,.14,.11,.2,.32,.18,.65-.06,1.64-.13,3.27-.19,4.87s-.11,3.23-.15,4.87-.05,3.31-.07,5.02c-.01,1.71,0,3.48,.05,5.31,.02,.78,.19,1.35,.5,1.72,.31,.37,.9,.54,1.76,.52Zm13.6,7c-.3,0-.52-.05-.65-.16-.13-.11-.19-.32-.19-.65v-28.5c0-.32,.06-.54,.19-.65,.13-.11,.34-.16,.65-.16h4.53c.3,0,.52,.05,.65,.16,.13,.11,.19,.32,.19,.65v28.5c0,.32-.06,.54-.19,.65-.13,.11-.35,.16-.65,.16h-4.53Z"/><path class="p" d="M281.13,88.02c-.11,2.53-.17,5.06-.19,7.59-.02,2.54-.01,5.23,.03,8.08,.02,.78,.19,1.35,.5,1.72,.31,.37,.9,.54,1.76,.52,1.6-.04,3.13-.1,4.6-.18,1.47-.08,3.01-.19,4.63-.34,.3-.04,.51,0,.62,.11,.11,.12,.18,.34,.23,.66l.32,3.76c.04,.32-.01,.53-.16,.62-.15,.09-.38,.15-.68,.19-2.14,.17-4.19,.31-6.17,.4-1.98,.1-4,.15-6.07,.15s-3.56-.56-4.45-1.67c-.9-1.11-1.34-2.89-1.34-5.33,0-1.9,.01-3.73,.03-5.5,.02-1.77,.05-3.5,.08-5.18s.08-3.35,.13-5c.05-1.65,.12-3.32,.21-5,.02-.32,.09-.54,.21-.65,.12-.11,.33-.16,.63-.16h15.41c.3,0,.52,.05,.65,.16,.13,.11,.19,.32,.19,.65v3.59c0,.32-.06,.54-.19,.65-.13,.11-.35,.16-.65,.16h-10.33Zm24.48,10.36c0,.32-.06,.54-.19,.65-.13,.11-.35,.16-.65,.16h-2.98v12.92c0,.32-.06,.54-.19,.65-.13,.11-.35,.16-.65,.16h-4.53c-.3,0-.52-.05-.65-.16-.13-.11-.19-.32-.19-.65v-28.5c0-.32,.06-.54,.19-.65,.13-.11,.34-.16,.65-.16h4.53c.3,0,.52,.05,.65,.16,.13,.11,.19,.32,.19,.65v10.2h2.98c.3,0,.52,.05,.65,.16,.13,.11,.19,.32,.19,.65v3.76Z"/><path class="p" d="M309.08,113.34c-.3,0-.52-.05-.65-.16-.13-.11-.19-.32-.19-.65v-4.08c0-.32,.06-.54,.19-.65,.13-.11,.34-.16,.65-.16h4.34c.3,0,.52,.05,.65,.16,.13,.11,.19,.32,.19,.65v4.08c0,.32-.06,.54-.19,.65-.13,.11-.35,.16-.65,.16h-4.34Z"/></g><g class="m"><g class="q"><g><path class="o" d="M380.3,270.87c1,.33,2.02,.58,3.3-.29-2.58,.04-4.59-.92-6.63-1.73-1.36-.53-2.74-1.01-4.22-.86-.74,.07-1.98,.05-1.94,.88,.05,.97,1.43,1.22,2.14,1.06,2.6-.58,4.96,.16,7.36,.94Z"/><path class="o" d="M398.64,266.01c1.66-.2,3.18,.26,4.72,.48,.52,.08,1.49-.18,1.34,.79-.14,.89-.99,.53-1.53,.41-2.82-.6-5.59-.72-8.42,.09-3,.86-6.04,1.68-8.77,3.18-2.67,1.47-5.21,1.67-7.97,.49-1.34-.57-2.8-.76-4.26-.42-.3,.07-.71,.23-.82,.46-.21,.47,.28,.7,.58,.87,1.99,1.12,3.93,2.34,6.03,3.27,1.42,.63,2.8,.93,4.37,.62,4.97-.98,9.99-1.66,14.85-3.18,.81-.25,1.55-.44,1.06,.89-1.63,.49-3.26,.97-5.35,1.59,2.29,.05,4.01-.46,5.73-.97,1.85-.11,3.7-.28,5.11,1.35,.57,.65,.87-.1,1.2-.36,2.33-1.94,4.24-4.32,6.38-6.46,.74-.74,.64-1.17,.06-1.9-2.98-3.75-9.5-4.35-14.27-1.21Z"/><path class="o" d="M387.11,267.58c-1.49-.55-2.99-.92-4.88-.63,1.72,1.15,3.33,.73,4.88,.63Z"/><path class="o" d="M384.6,269.09c-2.92-.47-5.5-2.4-8.6-2.02,2.81,.97,5.41,2.89,8.6,2.02Z"/><path d="M697.65,268.52c-.24-.99-1.07-1.32-2.01-1.52-.96-.21-2.02,.17-2.9-.53-1.21-.96-2.55-.91-3.97-.55-.73,.19-1.44,.75-2.25,.39-2.54-1.13-5.05-.61-7.49,.28-1.2,.44-2.23,.42-3.38-.02-4.12-1.59-8.43-2.5-12.72-3.5-3.97-.93-7.28,.18-9.73,3.59-.23,.32-.47,.78-.78,.85-1.87,.38-2.93,1.84-4.03,3.15-4.9,5.82-10.36,11.08-16.04,16.11-4.53,4.02-9.16,7.93-14.45,10.94-.63,.36-1.26,.81-1.68-.01-.79-1.55-2.27-2.44-3.29-3.76-8.76-11.31-18.34-21.87-28.05-32.35-4.68-5.05-10.03-8.59-16.59-10.57-5.43-1.64-10.72-3.76-15.95-6.01-1.06-.46-1.71-.99-1.86-2.26-.17-1.41-.72-3.01-2.16-3.38-2.12-.53-2.07-1.91-1.96-3.52,.03-.48,.05-.96,.08-1.44l-.59,.28c-.21,.22-.46,.46-.73,.71,.08,1.71,.16,3.33,.27,4.94,.04,.55,.08,1.24,.4,1.61,1.23,1.41,.25,2.14-.74,2.86-2.32,1.66-4.59,3.39-7.34,4.31-1.35,.45-2.29,1.35-2.82,2.69-.41,1.03-.85,2.04-1.34,3.21-.28-.69-.54-1.19-.7-1.73-.69-2.33-2.12-3.79-4.46-4.59-2.55-.87-4.7-2.55-6.84-4.18-.32-.24-.94-.46-.63-1.17,1.16-2.63,1.25-5.4,1.23-8.19-.3-.3-.72-.72-1.23-1.24,0,1.23,0,2.46,.01,3.69,0,.51-.17,.86-.74,.92-2.29,.21-3.33,1.78-3.57,3.83-.21,1.73-1.16,2.42-2.61,3.01-5.18,2.08-10.38,4.13-15.82,5.37-7.06,1.61-11.95,6.21-16.5,11.47-8.08,9.36-15.93,18.92-24.29,28.03-2.14,2.33-4.49,4.51-6.22,7.21-.62,.96-1.27,.64-2.08,.15-9.98-6.02-18.16-14.2-26.28-22.43-1.54-1.56-2.92-3.27-4.38-4.91-1.95-2.2-4.59-3.56-6.6-5.76-1.48-1.62-3.75-1.99-5.93-1.65-4.85,.76-9.59,2.04-14.24,3.63-1.27,.44-2.38,.5-3.7,.03-2.38-.85-4.85-1.38-7.33-.23-.23,.11-.6,.15-.8,.04-3.18-1.87-5.94,.86-8.95,.85-.73,0-1.31,.68-1.43,1.47-.13,.84,.44,1.35,1.06,1.77,.37,.25,1.04,.12,.99,.9-.07,1.14,.74,1.74,1.56,2.21,2.04,1.15,4.1,2.27,6.19,3.33,1.49,.76,3.04,.9,4.72,.59,2.39-.45,4.76-.91,7.27-.52,3.2,.5,6.3-.56,9.42-1.15,.95-.18,1.93-.27,2.78,.23,.89,.52,1.81,1.18,.37,2.2-1.3,.91-1.05,1.77-.09,2.9,3.67,4.32,7.21,8.76,10.86,13.11,7.6,9.05,15.56,17.75,24.09,25.91,6.87,6.57,17.12,7.88,25.21,1.65,7.24-5.57,14.65-10.91,21.47-17.02,2.05-1.84,4.16-3.62,6.35-5.52,.17,5.01,.22,9.81,.53,14.59,.02,.38,.04,.76,.07,1.15h1.13c-.02-.42-.04-.83-.07-1.25-.08-1.47-.15-2.95-.22-4.42-.18-3.78-.18-7.57-.28-11.35,0-.09,0-.19,.01-.29s.01-.2,0-.3c-.01-.14-.06-.28-.18-.38-.04-.03-.09-.06-.15-.09-.07-.03-.13-.05-.19-.06-.12-.02-.22,0-.3,.05s-.16,.11-.24,.2c-.07,.08-.14,.17-.21,.27-.03,.05-.07,.09-.11,.13-.27,.32-.55,.64-.84,.95-.29,.31-.58,.61-.89,.89-1.09,1-2.19,2-3.29,2.98-2.21,1.97-4.46,3.89-6.73,5.78-1.14,.94-2.28,1.88-3.44,2.8-4.61,3.69-9.34,7.23-14.18,10.62-6.55,4.59-13.96,4.31-20.41-.44-1.08-.79-2.09-1.69-3.08-2.61-.33-.31-.65-.62-.97-.93-1.49-1.44-2.95-2.89-4.4-4.36-2.9-2.94-5.72-5.95-8.49-9.01-2.77-3.06-5.49-6.17-8.17-9.31-2.68-3.14-5.32-6.32-7.95-9.51-1.31-1.6-2.62-3.2-3.92-4.8-.21-.25-.34-.47-.4-.66-.02-.07-.03-.13-.03-.19,0-.19,.08-.38,.25-.59,.06-.07,.13-.14,.2-.22,1.63-1.55,3.25-3.1,4.84-4.69,1.59-1.59,3.15-3.21,4.65-4.89,.06-.07,.13-.14,.19-.19,.06-.06,.13-.1,.19-.14,.13-.08,.25-.12,.38-.12,.25-.01,.51,.12,.78,.42,.92,.99,1.88,1.93,2.78,2.93,9.13,10.13,18.84,19.59,30.5,26.76,.7,.43,1.33,.91,1.89,1.43,1.68,1.57,2.73,3.55,3.21,5.97,.14,.72,.3,1.43,.46,2.15,.16,.71,.32,1.43,.48,2.14,.03,.15,.05,.34,.08,.5,.06,.27,.19,.48,.61,.42,.33-.05,.46-.21,.49-.42,0-.05,.01-.11,.01-.16,0-.06,0-.11-.01-.17-.02-.11-.04-.23-.06-.33-.39-1.82-.68-3.68-1.18-5.43-.14-.5-.31-.99-.49-1.47-.19-.48-.4-.95-.64-1.4-.25-.45-.52-.88-.84-1.3-.48-.62-1.04-1.2-1.73-1.72,.18-.32,.37-.63,.57-.93,.4-.6,.83-1.16,1.28-1.7,.22-.27,.45-.53,.68-.79,.93-1.03,1.9-1.99,2.82-3,2.23-2.43,4.43-4.9,6.61-7.38,4.36-4.96,8.63-10,12.9-15.04,2.14-2.52,4.28-5.03,6.43-7.54,2.59-3.02,5.35-5.7,8.53-7.75,.71-.46,1.43-.88,2.18-1.28,.37-.2,.76-.38,1.14-.56,1.55-.72,3.19-1.29,4.96-1.69,.64-.15,1.27-.3,1.91-.47,1.9-.5,3.77-1.09,5.63-1.74,2.47-.87,4.9-1.87,7.3-2.93,.4-.18,.74-.29,1.02-.34,.42-.07,.73,.01,.97,.26,.24,.25,.4,.66,.55,1.26,.11,.46,.3,.9,.51,1.33,.21,.43,.45,.85,.67,1.28,.69,1.33,1.32,2.67,1.85,4.06s.96,2.81,1.25,4.29c.02,.13,.04,.26,.04,.4,0,.28-.01,.59-.02,.89-.03,.75-.01,1.45,.66,1.59,.6,.12,1.08-.2,1.5-.68,.42-.48,.79-1.1,1.18-1.57,.66-.81,1.2-1.7,1.69-2.61,.49-.91,.94-1.85,1.42-2.78,.04-.08,.08-.16,.13-.24,.09-.17,.19-.36,.3-.52,.11-.16,.24-.3,.38-.38,.07-.04,.14-.07,.22-.08,.15-.02,.32,.04,.51,.21,.87,.8,1.8,1.62,2.52,2.56,.72,.94,1.24,2.02,1.3,3.32,.15,3.16,.28,6.32,.38,9.48,.1,3.16,.18,6.33,.25,9.49,.02,.68,.04,1.37,.06,2.05,.05,1.37,.11,2.74,.16,4.1,.05,1.37,.09,2.74,.11,4.1,0,.68,0,1.37,0,2.05-.02,1.37-.08,2.74-.21,4.11-.25,2.85-.42,5.7-.13,8.53,.12,1.13,.31,2.26,.6,3.37,.15,.56,.32,1.12,.51,1.67,.15,.41,.27,.83,.39,1.25,.16,.56,.29,1.12,.4,1.69,.08,.41,.15,.83,.21,1.24,.05,.35,.09,.71,.13,1.07,.07,.71,.12,1.43,.16,2.15,.02,.36,.03,.72,.04,1.08,.07,3.16,.08,6.33,.07,9.49,0,1.58-.02,3.16-.03,4.75-.03,3.16-.06,6.33-.06,9.49,0,4.75,.07,9.49,.34,14.24,.04,.77,.08,1.55,.1,2.32,.07,2.32,.06,4.65,.11,6.97,.27,.02,.54,.04,.81,.06h0c.01-.1,.03-.2,.04-.29,.04-.29,.08-.58,.09-.88,.08-2.06,.06-4.11,0-6.17-.03-1.37-.09-2.74-.14-4.11-.03-.68-.05-1.37-.08-2.05-.05-1.37-.09-2.74-.1-4.11-.03-2.42-.05-4.83-.06-7.25s0-4.83,0-7.25c0-4.83,.03-9.66,.04-14.5,0-.42,0-.84-.02-1.26-.05-1.67-.21-3.32-.51-4.95-.15-.82-.33-1.62-.56-2.43-.11-.4-.23-.8-.36-1.2-.55-1.66-.89-3.34-1.06-5.04-.17-1.7-.16-3.41-.02-5.15,.06-.7,.12-1.41,.17-2.11,.1-1.41,.18-2.82,.21-4.24,.01-.71,.01-1.41,0-2.12-.05-2.26-.11-4.52-.17-6.78-.18-6.78-.41-13.56-.76-20.33-.02-.36-.02-.71,0-1.05,.02-.68,.11-1.33,.26-1.94,.22-.92,.58-1.78,1.07-2.6,.33-.55,.71-1.08,1.16-1.6,.21-.24,.4-.46,.57-.64,.34-.37,.62-.61,.87-.72,.12-.05,.24-.08,.35-.07,.22,.02,.42,.18,.64,.47s.45,.72,.73,1.3c1.03,2.12,2.04,4.28,3.77,5.94,.06,.06,.12,.13,.18,.2,.12,.14,.23,.3,.35,.45,.18,.22,.37,.42,.61,.51,.16,.06,.34,.07,.54,0,.29-.09,.43-.29,.49-.52,.04-.16,.06-.33,.06-.51,0-.18-.01-.36-.01-.53,0-.08,0-.17,0-.24,.29-2.97,1.31-5.69,2.6-8.34,.37-.76,.76-1.51,1.11-2.27,.36-.76,.69-1.54,.94-2.34,.09-.29,.18-.5,.28-.64,.25-.36,.56-.31,1.02-.12,.09,.04,.19,.08,.3,.13,5.52,2.4,11.15,4.54,16.88,6.39,.61,.2,1.2,.4,1.8,.62,1.18,.44,2.34,.92,3.45,1.47,2.79,1.37,5.36,3.12,7.62,5.47,1.3,1.36,2.59,2.72,3.87,4.08,1.29,1.36,2.57,2.73,3.84,4.11,2.55,2.75,5.07,5.53,7.55,8.33,3.73,4.21,7.37,8.49,10.91,12.88,1.18,1.46,2.34,2.93,3.5,4.42,.32,.41,.66,.79,1.02,1.16,.36,.37,.73,.73,1.09,1.09,.72,.73,1.42,1.49,1.94,2.41,.07,.12,.13,.22,.17,.31,.07,.14,.1,.25,.08,.37-.02,.08-.06,.16-.14,.24-.04,.04-.09,.09-.14,.14-1.26,1.08-2.07,2.36-2.64,3.73-.19,.46-.36,.93-.5,1.4-.07,.24-.14,.48-.21,.72-.26,.97-.46,1.96-.66,2.95-.05,.25-.1,.5-.15,.74-.1,.49-.21,.99-.33,1.47-.02,.09-.04,.17-.05,.26,0,.02,0,.03,0,.05,0,.1,0,.2,.01,.28,.04,.18,.16,.32,.4,.39,.09,.03,.17,.04,.23,.04,.34,0,.42-.27,.47-.55,.02-.11,.03-.22,.06-.32,.32-1.31,.63-2.63,.86-3.96,.16-.94,.41-1.81,.75-2.63s.75-1.56,1.25-2.25c.5-.69,1.08-1.32,1.74-1.89s1.4-1.09,2.23-1.54c.97-.54,1.92-1.12,2.86-1.73,.42-.28,.85-.55,1.26-.84,4.29-3.13,8.37-6.52,12.28-10.09,1.95-1.79,3.87-3.62,5.75-5.49,1.88-1.87,3.72-3.78,5.54-5.72,1.53-1.64,3.02-3.32,4.52-4.99,.19-.21,.37-.37,.56-.48,.27-.16,.54-.2,.81-.12,.27,.08,.54,.29,.83,.63,.69,.82,1.4,1.62,2.13,2.4,2.18,2.34,4.51,4.54,6.88,6.69,.42,.38,.59,.7,.57,1.01,0,.16-.07,.31-.16,.48-.1,.17-.23,.34-.39,.53-1.47,1.74-2.92,3.49-4.36,5.25-1.44,1.76-2.88,3.52-4.33,5.28-2.03,2.46-4.08,4.89-6.17,7.29-3.13,3.6-6.33,7.14-9.61,10.6-3.28,3.46-6.64,6.85-10.08,10.16-1.31,1.26-2.69,2.29-4.12,3.12-1.43,.82-2.91,1.43-4.42,1.81-1.01,.26-2.03,.42-3.05,.49-4.1,.26-8.3-1.03-12.19-3.88-.7-.51-1.39-1.04-2.08-1.57-.69-.53-1.38-1.06-2.07-1.57-1.06-.79-2.12-1.58-3.18-2.38-3.17-2.39-6.3-4.83-9.36-7.36-2.04-1.68-4.05-3.41-6.01-5.18-1.96-1.78-3.88-3.61-5.75-5.5-.06-.07-.13-.13-.19-.18-.19-.16-.39-.26-.67-.16-.07,.02-.12,.05-.17,.08-.31,.22-.15,.62-.16,.93-.02,.73-.05,1.47-.09,2.2-.09,2.2-.19,4.41-.16,6.61,.12,11.57,.23,23.14,.1,34.71-.04,3.86-.11,7.71-.22,11.57-.02,.63-.05,1.26-.07,1.9-.03,.63-.05,1.27-.06,1.9,0,.32,0,.63,0,.95,0,.95,.06,1.9,.21,2.85h0c1.29,.14,.93-.85,.94-1.48,.16-15.26,.72-30.52,.19-45.78-.16-4.61,.07-9.22,.32-13.77,.39-.14,.54,.04,.7,.19,8.54,7.89,17.74,14.94,27,21.94,8.51,6.44,18.63,4.73,25.21-1.49,12.93-12.22,24.29-25.87,35.51-39.65,.75-.92,.42-1.47-.25-2.14-.41-.41-1.26-.72-1.01-1.38,.27-.73,1.06-1.14,1.85-1.3,.72-.14,1.43-.1,2.15,.05,3.17,.64,6.32,1.51,9.6,1.15,1.5-.16,2.98-.51,4.46,.02,3.95,1.41,7.43,.2,10.76-1.94,.47-.3,.99-.52,1.46-.82,1.24-.77,2.83-1.23,2.81-3.18,0-.31,.36-.38,.62-.49,.92-.36,1.58-.97,1.32-2.04Zm-310.54-.94c-1.55,.1-3.16,.52-4.88-.63,1.89-.29,3.38,.08,4.88,.63Zm-2.51,1.51c-3.19,.87-5.79-1.05-8.6-2.02,3.09-.38,5.68,1.55,8.6,2.02Zm-13.8-.22c-.04-.83,1.2-.8,1.94-.88,1.48-.15,2.86,.32,4.22,.86,2.05,.8,4.05,1.76,6.63,1.73-1.28,.87-2.3,.62-3.3,.29-2.39-.78-4.75-1.52-7.36-.94-.72,.16-2.1-.09-2.14-1.06Zm42.06,.24c-2.13,2.14-4.04,4.52-6.38,6.46-.32,.27-.63,1.02-1.2,.36-1.41-1.63-3.26-1.46-5.11-1.35-1.72,.51-3.44,1.02-5.73,.97,2.09-.62,3.72-1.11,5.35-1.59,.5-1.33-.24-1.14-1.06-.89-4.85,1.52-9.88,2.2-14.85,3.18-1.57,.31-2.94,0-4.37-.62-2.1-.93-4.03-2.15-6.03-3.27-.31-.17-.8-.41-.58-.87,.11-.24,.52-.39,.82-.46,1.46-.34,2.92-.16,4.26,.42,2.77,1.18,5.31,.98,7.97-.49,2.73-1.5,5.77-2.32,8.77-3.18,2.83-.81,5.6-.7,8.42-.09,.54,.12,1.39,.48,1.53-.41,.15-.97-.82-.71-1.34-.79-1.54-.23-3.06-.68-4.72-.48,4.77-3.15,11.29-2.55,14.27,1.21,.58,.74,.69,1.16-.06,1.9Zm117.77-16.85h0c-.52-.33-.97-.57-1.38-.7-.2-.06-.39-.1-.57-.11-.9-.05-1.55,.59-2.24,2.03-1.04,2.17-2.02,4.36-4.03,6.35-.37-4.83-2.74-8.6-4.51-12.62-.94-2.12-.65-4.39,.65-6.32-.03,2.44,1.3,4.03,3.07,5.24,2.39,1.63,4.78,3.31,7.55,4.25,.82,.28,1.5,.73,1.77,1.63v.41c-.11-.05-.21-.11-.32-.16Zm5.55,.19s-.17-.06-.26-.09l.2-.29,.27,.09c-.07,.1-.12,.23-.22,.29Zm13.1-5.95c-.53,1.62-1.35,3.09-2.1,4.6-1.3,2.63-2.28,5.37-2.57,8.66-1.52-1.31-2.29-2.8-3.08-4.27-.26-.49-.45-1.03-.69-1.53-1.3-2.69-1.85-2.93-4.42-1.93,.35-1.14,.41-1.29,1.62-1.72,2.89-1.01,5.31-2.81,7.76-4.57,1.31-.94,2.33-2.1,2.35-3.86,0-.2-.06-.5,.22-.55,.4-.08,.58,.21,.72,.55,.6,1.52,.7,3.05,.19,4.62Zm141.89,20.53c-2.75,1.16-5.4,2.77-8.58,2.11,2.89-.57,5.46-2.42,8.58-2.11Zm-6.01-.15c-1.9,1.14-3.52,.77-5.1,.74,1.44-.78,3-.89,5.1-.74Zm8.37,5.59c-2.18,1.24-4.31,2.59-6.65,3.52-1,.4-1.99,.57-3.09,.35-5.19-1.02-10.45-1.71-15.51-3.32-.83-.26-1.16-.04-1.14,.81,1.69,.75,3.51,1.07,5.28,1.59l-.09,.4c-1.89-.43-3.79-.87-5.68-1.3-1.69-.06-3.38-.12-4.62,1.35-.42,.49-.74,.27-1.09-.1-2.27-2.33-4.54-4.67-6.85-6.96-.59-.59-.26-.96,.08-1.43,2.01-2.8,4.7-3.9,8.04-3.24,2.11,.42,4.19,.98,6.28,1.68-1.65,.22-3.3,.42-4.95,.67-.45,.07-1.15-.04-1.09,.72,.06,.73,.71,.67,1.17,.54,6.66-1.81,12.52,.85,18.29,3.52,2.33,1.08,4.4,1.26,6.72,.35,1.46-.57,2.99-.91,4.59-.68,.44,.06,1,.08,1.11,.57,.12,.52-.41,.73-.78,.95Zm2.21-2.94c-.51,.2-1.1,.49-1.58,.38-2.47-.57-4.75,.12-7.02,.91-1.09,.38-2.13,.46-3.23-.07,2.44-.15,4.6-1.27,6.83-2.1,1.59-.59,3.21-.94,4.9-.44,.37,.11,.84,.27,.81,.71-.02,.23-.43,.5-.72,.61Z"/></g></g></g></g></svg>