<?xml version="1.0" encoding="UTF-8"?><svg xmlns="http://www.w3.org/2000/svg" xmlns:xlink="http://www.w3.org/1999/xlink" viewBox="0 0 400 356"><defs><style>.e{fill:#fff;}.f{opacity:.5;}.g{fill:#557cbd;}.h{fill:#819e6d;}.i{clip-path:url(#c);}.j{clip-path:url(#d);}.k{fill:none;}.l{fill:#093974;}.m{fill:#271d17;}.n{fill:#ecdad3;}</style><clipPath id="c"><rect class="k" x="-428.67" y="-7.21" width="416.21" height="370.43"/></clipPath><clipPath id="d"><circle class="k" cx="201" cy="224.69" r="99.31"/></clipPath></defs><g id="a"><rect class="e" x="-7.1" y="-4.42" width="416.21" height="370.43"/></g><g id="b"><g class="i"><g><path class="g" d="M1.5,305.03c-.07-.52-.14-1.05-.22-1.57-.23-1.5-.46-3-.7-4.49-.1-.61-.2-1.22-.3-1.83-.36-2.1-.74-11.01-1.17-13.09-.32-1.56-.67-3.12-1.06-4.67-.23-.92-.47-1.84-.72-2.76-.21-.74-.42-1.49-.64-2.23-.27-.9-.56-1.8-.86-2.7-.35-1.02-.76-2.02-1.23-2.99-.23-.49-.48-.97-.73-1.44-.25-.48-.51-.95-.78-1.42-.44-.77-.96-1.42-1.55-2-.2-.19-.4-.37-.61-.55-.31-.26-.63-.5-.97-.72-1-.68-2.11-1.23-3.25-1.75-3.4-1.55-6.86-2.91-10.37-4.14-.88-.31-1.76-.61-2.64-.9-2.65-.88-5.32-1.68-8.01-2.45-.14-.04-.29-.08-.43-.12-.29-.08-.57-.16-.86-.25-.28-.09-.57-.18-.85-.28-.22-.08-.44-.16-.65-.26-.19-.08-.38-.17-.57-.26-.18-.09-.34-.15-.49-.19-.09-.02-.18-.03-.26-.03-.04,0-.08,0-.11,.01-.14,.02-.26,.09-.37,.2-.15,.16-.27,.41-.4,.72-.19,.48-.38,.97-.57,1.45-.38,.97-.76,1.93-1.13,2.9-.19,.48-.37,.97-.55,1.46-.36,.97-.71,1.95-1.04,2.94s-.63,1.98-.91,2.98c-.01,.04-.02,.09-.04,.14-.02,.09-.04,.19-.07,.28-.02,.1-.04,.19-.07,.29-.03,.09-.05,.19-.09,.28-.02,.05-.03,.09-.05,.13-.04,.09-.08,.17-.13,.24-.05,.08-.11,.14-.17,.21-.03,.03-.07,.06-.11,.08-.11,.08-.25,.13-.42,.16-.13,.02-.25,.02-.35,.01-.16-.02-.3-.08-.41-.17-.11-.09-.2-.2-.28-.33-.08-.13-.14-.27-.2-.41-.03-.07-.06-.14-.08-.2-.03-.08-.06-.15-.09-.22-.04-.09-.08-.18-.13-.26-.29-.5-.58-1.01-.88-1.51-.25-.41-.5-.82-.76-1.22-.1-.15-.2-.31-.31-.46-.28-.41-.58-.8-.9-1.18-.19-.22-.38-.44-.59-.65-.2-.21-.42-.41-.64-.61-.42-.37-.78-.63-1.08-.78-.23-.12-.43-.17-.61-.16-.12,0-.23,.04-.33,.1-.35,.22-.58,.78-.76,1.72-.15,.8-.28,1.59-.4,2.4-.25,1.6-.48,3.21-.83,4.78-.09,.39-.18,.79-.29,1.18-.11,.39-.22,.78-.35,1.17-.16,.48-.29,.96-.41,1.44-.8,3.38-1.56,6.84-1.7,10.28,.1,1.46,.19,2.92,.18,4.38,0,.15,0,.31,0,.46,0,.14,0,.28,0,.41-.02,.58-.06,1.17-.12,1.75-.04,.33-.08,7.47-.14,7.81h0c0,3.3,.94,54.56,.94,57.86,0,3.3-.01,6.61-.02,9.91,8.57,.05,17.14-.03,25.7-.57,3.49-.22,6.98-.47,10.45-.8,1.16-.11,2.5,.18,3.54-.7-.29-3.51-.23-54.98-.06-58.48,.29-5.72,.76-18.24,1.17-23.95,.03-.45-.09-1.15,.63-1.05,.5,.07,.4,.69,.37,1.12-.65,9.06-1.46,72.86-1.29,81.96,0,.15-.11,.3-.17,.45,.49,.02,.98,.12,1.46,.06,5.6-.75,11.18-1.62,16.62-3.24-.14-1.15-.28-2.3-.42-3.45-.09-.77-.19-49.49-.29-50.26Z"/><path d="M3.28,358.52c0-.16-.02-.32-.04-.49-.73-5.68-1.48-66.12-2.64-71.74-1.18-5.71-2.22-11.47-4.52-16.87-1.51-3.57-3.28-6.95-7.09-8.7-3.59-1.64-7.22-3.17-10.91-4.57-5-1.9-10.22-3.11-15.26-4.89-1.11-.39-1.78-1.06-2.32-2.07-1.04-1.94-1.84-4-3.16-5.81-.52-.71-.55-1.97,.06-2.76,2.15-2.77,3.15-6,3.91-9.33,.2-.85,.4-.77,1.15-.52,1.61,.55,2.35,.06,2.96-1.58,.16-.43,0-1.04,.56-1.28,1.35-.58,1.37-1.84,1.55-3,.26-1.62-.34-3.24-.25-4.82,.23-3.84,.09-7.61-.72-11.33-.55-1.83-1.22-3.75-2.01-5.57-.05-.03-.07-.05-.02-.04-.03-.02-.02-.01,0,0l-.08-.2c-.6-1.35-1.26-2.65-1.99-3.81-1.32-1.61-2.59-3.01-3.44-3.92-.25-.2-.5-.39-.76-.58-.25-.09-.49-.22-.73-.4l-.25-.23c-6.58-3.22-13.23-3.93-20.01-2.32l-.7,.23c-5.36,2.25-10.37,5.99-12.34,9.77h0s.03-.05,.04-.08c.04-.06,.09-.12,.14-.16,.02-.02,.05-.04,.07-.05,1.12-.48,1.97-1.25,2.76-2.1,.34-.36,.67-.74,1-1.11,.33-.37,.67-.74,1.02-1.09,.36-.35,.73-.68,1.14-.97,1.93-1.36,3.94-2.29,6.02-2.9,.69-.2,1.39-.37,2.1-.5,.71-.13,1.42-.24,2.14-.31,.36-.04,.72-.07,1.08-.09,.45-.03,.91-.05,1.37-.06,.46-.01,.92-.01,1.38,0,.92,.01,1.85,.06,2.79,.12,.57,.04,1.13,.11,1.68,.2,1.51,.25,2.99,.68,4.45,1.21,.18,.07,.36,.13,.54,.2,.05,.02,.1,.04,.15,.06,.13,.05,.25,.1,.38,.15,.11,.05,.22,.09,.32,.14,.07,.03,.13,.06,.2,.09,.12,.05,.23,.11,.35,.16,.06,.03,.11,.05,.17,.08,.11,.05,.22,.11,.32,.16,.06,.03,.12,.06,.18,.09,.11,.06,.21,.12,.32,.17,.06,.03,.11,.06,.17,.09,.1,.06,.19,.11,.29,.17,.06,.04,.13,.07,.19,.11,.08,.05,.16,.1,.24,.15,.08,.05,.16,.1,.24,.15,.06,.04,.12,.08,.18,.12,.09,.06,.19,.13,.28,.19,.04,.03,.08,.06,.12,.09,.11,.08,.22,.16,.32,.24,.02,.02,.04,.03,.06,.05,.84,.67,1.61,1.44,2.3,2.34,.02,0,.04,.01,.06,.02h0s0,.03,0,.04c.13,.24,.25,.47,.38,.71h1.24v1.08h-.38c.15,.26,.31,.51,.46,.77,.1,.17,.21,.34,.31,.51h.71v1.48h.71v1.49h-.03c1.91,4.34,2.19,8.95,1.98,13.64-.02,.35-.03,.71-.05,1.06-.04-.5-.07-.99-.1-1.49v-.08c-.06-1.01-.09-2.02-.15-3.03-.03-.51-.07-1.02-.12-1.53-.19-1.8-.59-3.54-.95-5.29-.05-.25-.1-.5-.15-.75-.03-.18-.08-.35-.13-.52v-.02c-.05-.16-.11-.32-.16-.48l-.02-.06c-.05-.14-.1-.27-.15-.41-.13-.35-.27-.69-.4-1.04h-.27v-.85c-.05-.21-.1-.42-.13-.64h-.58v-1.26c-.16-.14-.3-.29-.43-.44-.25-.31-.43-.65-.52-1.05h-.91v-.84h-.24v-.24h.3l-.03-.03s-.02-.02-.03-.03c-.02-.03-.05-.05-.07-.08h0c-.09-.15-.13-.31-.08-.53,0-.01,0-.03,0-.04v-.02l-.04-.04s-.05-.02-.07-.03c-.1-.04-.2-.07-.3-.12-.03-.02-.06-.03-.09-.05-.1-.05-.2-.11-.29-.17-.02-.01-.04-.03-.06-.04-.1-.07-.19-.14-.28-.22l-.04-.03c-.1-.09-.19-.17-.29-.26h0c-.11-.11-.22-.22-.33-.33-.09-.09-.18-.18-.27-.26l-.02-.02c-.1-.09-.2-.19-.31-.27h0c-.11-.1-.22-.18-.34-.26-.7-.46-1.41-.87-2.12-1.24s-1.44-.7-2.17-.99c-.73-.29-1.47-.54-2.21-.75-1.12-.32-2.25-.55-3.4-.7-.38-.05-.77-.09-1.15-.12-1.16-.1-2.33-.12-3.52-.07-1.19,.05-2.39,.17-3.6,.36-.36,.05-.71,.12-1.05,.18-1.74,.34-3.39,.83-4.93,1.51-.62,.27-1.21,.57-1.79,.91-.58,.33-1.14,.7-1.68,1.09-.54,.4-1.06,.83-1.57,1.29-1,.93-1.92,1.99-2.75,3.21-.57,.84-1.02,1.74-1.4,2.68-.19,.47-.37,.94-.54,1.42-.17,.48-.33,.96-.5,1.44,0-.1,0-.21,0-.31,.04-1.17,.57-2.27,.63-3.42,0-.08,0-.17,0-.25,0-.08,0-.17-.01-.25-.02-.21-.05-.42-.12-.64,0-.02,0-.05,0-.08,0-.03,0-.06,.01-.1,.01-.06,.04-.12,.06-.18-1.58,3.08-2.34,7.26-2.71,10.65,.1,.93,.19,1.87,.16,2.81-.09,2.71,.31,5.38-.29,8.16-.88,4.1,.5,8.1,1.95,11.95,.13,.34,.34,.76,.63,.92,2.08,1.15,3.89,2.73,6.22,3.52,2.94,1,2.91,1.15,2.78,4.29-.03,.77,.33,1.71-.52,2.25-1.04,.66-1.57,1.63-1.86,2.74-.79,2.97-2.59,4.48-5.7,5.21-5.93,1.41-11.77,3.18-17.1,6.35-2.42,1.44-4.6,3.03-5.98,5.54-1.28,2.32-2.37,4.73-3.15,7.27-1.95,6.37-3.18,19.7-4.28,26.25-.52,3.09-.91,54.15-1.3,57.26-.06,.51-.55,1.69,.89,1.03,.22-1.78,.45-51.51,.7-53.29,.17-1.18,.34-2.37,.53-3.55,.37-2.36,.77-11.52,1.23-13.87,.23-1.17,.46-2.34,.71-3.51,.63-2.92,1.33-5.82,2.13-8.71,1.18-4.24,2.84-8.03,5.73-10.98,.15-.15,.3-.3,.46-.45,.26-.24,.52-.48,.79-.71,.05-.04,.11-.09,.16-.13,.24-.2,.49-.39,.74-.57,.78-.57,1.62-1.09,2.54-1.56,.31-.16,.62-.31,.95-.45,1.08-.48,2.17-.92,3.28-1.33,.73-.28,1.47-.54,2.21-.79,1.88-.64,3.77-1.23,5.67-1.81,2.21-.68,4.42-1.34,6.61-2.09,.44-.15,.65-.08,.78,.09,.06,.08,.1,.19,.13,.31,.03,.12,.06,.25,.09,.38,.2,.77,.4,1.54,.59,2.31,.2,.77,.39,1.54,.59,2.31,.39,1.54,.79,3.08,1.2,4.62,.06,.22,.08,.5,.13,.77,.01,.09,.03,.17,.05,.26,.09,.33,.24,.59,.6,.61,.15,0,.28-.02,.38-.08s.17-.15,.24-.26c.02-.04,.04-.07,.06-.11,.07-.16,.12-.34,.17-.52,.04-.12,.07-.25,.12-.37,.01-.03,.02-.06,.04-.09,.03-.06,.06-.12,.09-.18,0-.01,.01-.02,.02-.04,.05-.09,.09-.2,.11-.3,.03-.09,.05-.18,.08-.27,.19-.51,.4-1,.64-1.46,.12-.23,.25-.46,.38-.68,.41-.67,.88-1.27,1.46-1.81,.19-.18,.39-.35,.61-.51,.21-.16,.44-.31,.67-.46,.08-.05,.15-.09,.23-.13,.23-.12,.46-.2,.67-.24,.14-.03,.28-.04,.42-.04s.26,.02,.38,.06c.09,.03,.18,.07,.26,.11,.04,.02,.07,.04,.11,.07,.06,.04,.12,.1,.18,.15,.04,.04,.08,.09,.12,.14,.14,.19,.25,.43,.31,.72,.08,.37,.16,.75,.24,1.12,.08,.37,.17,.75,.26,1.12,1.25,5.23,2.84,10.4,2.19,15.92-.11,.96-.15,1.93-.16,2.89,0,.33,0,.67-.01,1-.06,8.12-.09,71-.13,79.12,.04,.35,.07,.7,.09,1.06,0,.15,.01,.29,0,.44,0,.44-.04,.88-.14,1.32h0c0,.17,.02,.33,.03,.5,.42,.56,.81,.41,1.17-.07,0-3.3,.01-6.61,.02-9.91,0-3.3,.01-54.56,.02-57.86-.04-1.5-.1-9.81-.1-11.31,0-.5,.01-1,.03-1.5,.03-.67,.08-1.33,.16-2h0c.14-3.44-.06-6.9,.74-10.28,.11-.48,.25-.96,.41-1.44,.13-.39,.24-.77,.35-1.17,.11-.39,.2-.78,.29-1.18,.35-1.58,.58-3.18,.83-4.78,.12-.8,.25-1.6,.4-2.4,.18-.94,.41-1.51,.76-1.72,.1-.06,.21-.1,.33-.1,.18,0,.38,.05,.61,.16,.31,.15,.66,.42,1.08,.78,.22,.19,.44,.4,.64,.61,.2,.21,.4,.42,.59,.65,.32,.38,.62,.78,.9,1.18,.11,.15,.21,.3,.31,.46,.26,.4,.52,.81,.76,1.22,.3,.5,.59,1,.88,1.51,.05,.08,.09,.17,.13,.26,.03,.07,.06,.15,.09,.22,.03,.07,.05,.14,.08,.2,.06,.14,.13,.29,.2,.41,.08,.13,.17,.24,.28,.33,.11,.09,.25,.15,.41,.17,.11,.01,.22,.01,.35-.01,.17-.03,.3-.08,.42-.16,.04-.03,.07-.05,.11-.08,.07-.06,.12-.13,.17-.21,.05-.08,.09-.16,.13-.24,.02-.04,.04-.09,.05-.13,.03-.09,.06-.18,.09-.28,.03-.09,.05-.19,.07-.29,.02-.1,.04-.19,.07-.28,.01-.05,.02-.09,.04-.14,.28-1,.58-2,.91-2.98s.68-1.96,1.04-2.94c.18-.49,.36-.97,.55-1.46,.37-.97,.75-1.94,1.13-2.9,.19-.48,.38-.97,.57-1.45,.12-.31,.24-.56,.4-.72,.1-.11,.22-.18,.37-.2,.04,0,.07,0,.11-.01,.08,0,.17,0,.26,.03,.14,.03,.3,.1,.49,.19,.19,.09,.38,.18,.57,.26,.22,.09,.43,.18,.65,.26,.28,.1,.56,.19,.85,.28,.28,.09,.57,.17,.86,.25,.14,.04,.29,.08,.43,.12,2.69,.76,5.36,1.57,8.01,2.45,.88,.29,1.76,.59,2.64,.9,3.51,1.23,6.97,2.59,10.37,4.14,1.14,.52,2.24,1.07,3.25,1.75,.33,.23,.66,.47,.97,.72,.21,.17,.41,.36,.61,.55,.59,.57,1.11,1.23,1.55,2,.27,.47,.53,.94,.78,1.42,.25,.48,.5,.96,.73,1.44,.46,.97,.88,1.97,1.23,2.99,.3,.9,.59,1.79,.86,2.7,.22,.74,.44,1.48,.64,2.23,.25,.92,.5,1.84,.72,2.76,.38,1.55,.73,3.11,1.06,4.67,.43,2.09,.82,10.99,1.17,13.09,.1,.61,.2,1.22,.3,1.83,.24,1.49,.47,2.99,.7,4.49,.08,.52,.15,1.05,.22,1.57,.1,.77,.2,49.49,.29,50.26,.14,1.15,.27,2.3,.42,3.45h0c.19,.4,.1,1.15,.81,.94,.52-.15,.23-.75,.25-1.15ZM-64.23,192.92c-.1,.06-.18,.14-.26,.24-.08,.1-.15,.21-.21,.34h0c.06-.13,.13-.24,.21-.34,.08-.1,.17-.17,.26-.24,.06-.04,.13-.08,.2-.11-.07,.03-.14,.07-.2,.11Zm30.17,30.58c.05-.53,.15-1.05,.35-1.57,.02,.18,.03,.37,.05,.55,.02,.16,.03,.32,.04,.48v.05c.02,.16,.03,.33,.04,.49v.03c.01,.17,.02,.34,.02,.52h0c0,.24-.01,.47-.04,.7-.03,.23-.07,.46-.13,.69-.06,.24-.14,.47-.25,.7-.05-.53-.1-1.05-.11-1.58,0-.18,0-.35,0-.53,0-.18,.01-.35,.03-.53Zm-3.11-3.48c.07-.09,.12-.19,.18-.3-.06,.12-.12,.22-.18,.3Zm1.17,4.06c-.12,1.71,1.01,3.37-.04,5.38-.7-3.8-.4-7.2,.62-10.56,.44,1.79-.45,3.43-.58,5.18Zm-40.6-15.47h0c.63-.45,.83-.22,.81,.21,.02-.43-.18-.66-.81-.21-.49,1.38-.56,2.74-.44,4.08,.08-1.23,.21-2.46,.38-3.68h0c-.02,.98-.04,1.95-.05,2.92,0,.98,0,1.96,0,2.94,.09,.45,.19,.9,.29,1.35-.1-.45-.2-.9-.29-1.35,.01,1.93,.05,3.86,.09,5.79-.24-1.21-.38-2.43-.45-3.64-.03-.49-.04-.97-.05-1.46,0-.49,0-.97,.01-1.46,.01-.47,.04-.94,.07-1.4-.12-1.35-.05-2.7,.44-4.08,.06-.6-.55-.9-.73-1.4,.18,.5,.8,.8,.73,1.4Zm-1.05,15.87c.05-.68-.09-1.39,.38-2.16,.52,.63,.56,1.35,.67,2.02,.05,.27,.46,.9-.36,.94-.57,.02-.73-.27-.69-.79Zm2.13,10.45c-1.37-2.73-1.74-5.53-2.11-8.35,.87,1.24,2.35,7.48,2.11,8.35Zm-.02-15.66c1.99,2.5,2.27,8.65,.42,11.12,.65-3.63,.73-7.23-.42-11.12Zm2.36,17.66c-.76-.54-1.34-1.21-.93-2.33,.34-.92-.43-1.75-.46-2.7,.88-.3,1.89,.11,2.76-.63,.49-.42,.64,.39,.73,.74,.62,2.4,1.54,4.68,2.74,7.11-1.86-.56-3.44-1.19-4.85-2.19Zm2.31-10.86c0-2.23-.41-4.42-.89-6.58v-.02c-.43,.03-.87,.05-.89-.54-.01-.36,.17-.48,.41-.52-.39-.5-1-.78-1.85-.71-.52,.04-1.28,.27-1.25-.74,.08-3.56-.3-7.16,.71-10.66,1.36-4.72,4.4-8.03,8.83-9.99,6.32-2.79,12.76-2.88,19.26-.49,5.84,2.16,8.58,6.79,9.99,12.46,.6,2.41,.98,4.87,1.07,7.37,.03,.7,.11,1.22-.88,1.26-1.39,.05-1.87,1.11-2.13,2.28-.1,.48-.18,.96-.25,1.44,.45-.04,.79-.1,1.05-.21,.09-.04,.17-.08,.24-.13-.07,.05-.15,.09-.24,.13-.26,.11-.6,.17-1.05,.21-.28,1.98-.28,3.98-.41,5.98-.32,5.13-1.42,10.1-4.98,14.08-2.45,2.74-5.53,4.63-9.05,5.8-1.28,.43-2.46,.16-3.65-.19-2.86-.86-5.41-2.3-7.83-4.36,1.07-.08,1.74,.19,2.45,.87,1.06,1.01,2.45,1.36,3.86,.65,1.26-.64,1.26-2.16,.02-2.84-1.11-.6-2.3-.57-3.44-.05-1.36,.62-4.49-.14-5.23-1.45-2.28-4.04-3.86-8.32-3.86-13.04Zm8.78,31.31c-.46,.2-.88,.44-1.28,.7-.36,.24-.7,.5-1.02,.79-.53,.48-.99,1.03-1.39,1.64-.16,.24-.3,.49-.45,.75-.18,.34-.36,.69-.52,1.06-.19,.45-.37,.92-.54,1.42-.08-.28-.15-.55-.22-.82-.15-.54-.29-1.05-.42-1.55-.07-.25-.13-.49-.2-.73-.08-.29-.16-.58-.23-.86-.18-.65-.35-1.29-.52-1.93-.06-.23-.12-.47-.17-.71-.05-.24-.1-.47-.16-.71-.05-.21-.09-.41-.13-.59-.21-.93-.34-1.57-.36-2.16-.03-.77,.12-1.44,.51-2.51,.06-.17,.13-.34,.2-.53,.11-.28,.23-.58,.36-.92,.09-.22,.18-.46,.29-.72,.14,.37,.3,.72,.48,1.06,.14,.27,.29,.53,.45,.78,.24,.38,.5,.73,.78,1.07,.28,.34,.57,.67,.88,.99,.76,.8,1.58,1.54,2.38,2.31,.48,.46,.95,.94,1.4,1.44,.15,.17,.29,.34,.43,.51-.19,.07-.37,.14-.54,.22Zm10.42-.72c-.22,.14-.42,.28-.6,.42-.19,.15-.36,.3-.52,.46-.08,.08-.15,.16-.23,.25-.1,.12-.19,.23-.28,.35-.18,.24-.33,.5-.46,.77-.06,.13-.12,.27-.18,.41-.11,.28-.2,.57-.27,.88-.07,.31-.12,.63-.15,.96-.09,.88-.19,1.77-.31,2.66-.08,.54-.16,1.07-.27,1.62-.07,.36-.15,.73-.24,1.09-.07,.28-.14,.55-.21,.83-.23,.84-.52,1.69-.89,2.57-.23-1.02-.47-1.98-.69-2.9-.1-.42-.2-.84-.3-1.25-.23-.99-.45-1.94-.61-2.9-.05-.32-.1-.64-.15-.96-.35-2.57-1.45-4.56-3.35-6.24-.49-.43-.96-.88-1.42-1.34-.26-.25-.51-.5-.76-.76-.51-.51-1.01-1.03-1.52-1.54-.45-.46-1.07-.95-1.17-1.5-.03-.18-.07-.38-.1-.58-.03-.2-.06-.41-.08-.61-.01-.14-.02-.27-.02-.41,0-.07,0-.13,0-.2,.02-.46,.12-.87,.39-1.16,.1-.11,.2-.15,.32-.15,.03,0,.07,0,.1,.01,.17,.04,.35,.16,.54,.31,.08,.06,.15,.12,.23,.19,.09,.07,.18,.15,.27,.22,.18,.14,.36,.27,.55,.34,.07,.03,.14,.06,.21,.09,.12,.05,.24,.1,.35,.16,.35,.17,.69,.36,1.04,.55,.09,.05,.17,.09,.26,.14,.1,.05,.2,.1,.3,.15,.05,.02,.1,.05,.14,.07,.41,.2,.82,.36,1.21,.51,.1,.04,.21,.07,.31,.11,.37,.12,.73,.22,1.09,.29,.06,.01,.12,.02,.17,.04,.25,.05,.49,.08,.73,.11,.3,.03,.61,.05,.9,.06,.28,0,.56,0,.83-.03,.16-.01,.31-.03,.46-.05,.23-.03,.46-.07,.69-.12,.19-.04,.37-.09,.55-.14,.32-.09,.63-.19,.94-.31,.09-.03,.18-.07,.26-.11,.22-.09,.43-.19,.65-.29,.51-.25,1-.54,1.49-.86,.37-.24,.73-.5,1.09-.78,.48-.37,.95-.77,1.42-1.2,.4-.37,.79-.76,1.18-1.16,.39-.4,.77-.81,1.17-1.21,.6-.61,1.23-1.21,1.95-1.77,.24-.19,.49-.37,.75-.54,0,.19,0,.37,0,.56,0,.36-.02,.71-.03,1.05,0,.17-.01,.34-.01,.5,0,.32,0,.63,0,.94s.03,.6,.07,.9c0,.02,0,.03,0,.05,0,.02,0,.03,0,.05,.04,.29,.06,.56,.06,.83v.02c0,.29-.02,.57-.06,.83-.06,.4-.16,.79-.3,1.16-.09,.25-.2,.48-.33,.72-.12,.23-.26,.46-.41,.68-.37,.56-.82,1.09-1.31,1.61l-.02,.02c-1.23,1.3-2.55,2.49-3.98,3.53-.24,.17-.48,.35-.73,.51s-.49,.33-.75,.49Zm11.76-5s-.04,.1-.06,.15c-.43,1.08-.86,2.15-1.3,3.23-.43,1.08-.86,2.17-1.27,3.28-.62,1.66-1.19,3.37-1.68,5.16-.16,.6-.32,1.2-.46,1.82-.45-.79-.88-1.56-1.32-2.3-.22-.37-.44-.73-.67-1.08-.14-.22-.29-.44-.43-.65-.73-1.06-1.52-2.04-2.46-2.89-.38-.34-.77-.67-1.2-.97,.92-.69,1.82-1.38,2.68-2.1,.25-.21,.5-.43,.75-.64,.15-.13,.29-.26,.44-.39,.29-.27,.57-.54,.85-.81,.14-.14,.27-.28,.41-.42,.27-.28,.53-.57,.78-.87,1.26-1.49,2.32-3.18,3.05-5.2,.09,.17,.17,.32,.25,.48,.59,1.13,1.11,2.15,1.66,3.13,.23,.4,.13,.73,0,1.07Z"/><path d="M1.8,355.29c.14,1.15,.27,2.3,.42,3.45h0c-.14-1.15-.28-2.3-.42-3.45Z"/><path d="M-.89,284.04c.43,2.09,.82,10.99,1.17,13.09-.36-2.1-.74-11.01-1.17-13.09Z"/></g></g><g><path class="l" d="M156.86,39.13c0-.52-.1-.88-.31-1.08-.21-.2-.51-.29-.9-.29h-1.67c-.3,0-.52-.05-.65-.16-.13-.11-.2-.33-.2-.65v-3.79c0-.33,.07-.54,.2-.65,.13-.11,.35-.16,.65-.16h5.46c1.18,0,2.06,.3,2.65,.92,.59,.61,.88,1.6,.88,2.97,0,.89-.03,1.87-.1,2.94-.06,1.07-.16,2.18-.28,3.33-.12,1.15-.26,2.31-.41,3.48-.15,1.17-.32,2.28-.49,3.35-.04,.33-.12,.56-.23,.69-.11,.13-.32,.17-.62,.13l-4.31-.49c-.31-.04-.54-.14-.7-.29-.16-.15-.2-.41-.11-.78,.15-.76,.3-1.56,.44-2.4s.27-1.67,.38-2.5c.11-.83,.19-1.63,.25-2.42,.05-.78,.08-1.49,.08-2.12Zm25.78,22.45c.04,.33-.01,.53-.16,.62-.15,.09-.38,.15-.69,.2-1.5,.15-3.08,.29-4.74,.41-1.66,.12-3.32,.22-4.98,.31-1.67,.09-3.31,.15-4.92,.2-1.61,.04-3.12,.07-4.51,.07-2.09,0-3.59-.56-4.49-1.68-.9-1.12-1.36-2.91-1.36-5.38v-3.59c0-.33,.07-.54,.2-.65,.13-.11,.35-.16,.65-.16h4.57c.3,0,.52,.05,.65,.16,.13,.11,.2,.33,.2,.65v2.97c0,.78,.16,1.36,.49,1.73s.93,.54,1.8,.52c1.18-.02,2.44-.06,3.79-.11,1.35-.05,2.72-.12,4.12-.2,1.39-.08,2.79-.17,4.18-.29,1.39-.12,2.73-.25,4.02-.38,.31-.04,.51,0,.62,.13s.18,.36,.23,.69l.33,3.79Zm-15.16-22.45c0-.52-.1-.88-.31-1.08s-.51-.29-.9-.29h-1.7c-.3,0-.52-.05-.65-.16-.13-.11-.2-.33-.2-.65v-3.79c0-.33,.07-.54,.2-.65,.13-.11,.35-.16,.65-.16h5.49c1.18,0,2.06,.3,2.65,.92,.59,.61,.88,1.6,.88,2.97,0,.89-.03,1.89-.1,2.99s-.16,2.25-.28,3.45c-.12,1.2-.26,2.4-.41,3.59-.15,1.2-.32,2.33-.49,3.4-.04,.33-.12,.56-.23,.69-.11,.13-.32,.17-.62,.13l-4.31-.49c-.3-.04-.54-.14-.7-.29-.16-.15-.2-.41-.11-.78,.15-.76,.3-1.58,.44-2.45,.14-.87,.27-1.74,.38-2.61s.19-1.72,.25-2.53c.05-.82,.08-1.54,.08-2.17Zm17.9,5.2c0,.33-.07,.54-.2,.65-.13,.11-.35,.16-.65,.16h-2.68v7.94c0,.33-.07,.54-.2,.65-.13,.11-.35,.16-.65,.16h-4.57c-.31,0-.52-.05-.65-.16-.13-.11-.2-.33-.2-.65v-19.93c0-.33,.07-.54,.2-.65,.13-.11,.35-.16,.65-.16h4.57c.3,0,.52,.05,.65,.16,.13,.11,.2,.33,.2,.65v6.57h2.68c.31,0,.52,.05,.65,.16,.13,.11,.2,.33,.2,.65v3.79Z"/><path class="l" d="M188.88,39.13c0-.52-.1-.88-.31-1.08-.21-.2-.51-.29-.9-.29h-1.67c-.3,0-.52-.05-.65-.16-.13-.11-.2-.33-.2-.65v-3.79c0-.33,.07-.54,.2-.65,.13-.11,.35-.16,.65-.16h5.46c1.18,0,2.06,.3,2.65,.92,.59,.61,.88,1.6,.88,2.97,0,.89-.03,1.87-.1,2.94-.06,1.07-.16,2.18-.28,3.33-.12,1.15-.26,2.31-.41,3.48-.15,1.17-.32,2.28-.49,3.35-.04,.33-.12,.56-.23,.69-.11,.13-.32,.17-.62,.13l-4.31-.49c-.31-.04-.54-.14-.7-.29-.16-.15-.2-.41-.11-.78,.15-.76,.3-1.56,.44-2.4s.27-1.67,.38-2.5c.11-.83,.19-1.63,.25-2.42,.05-.78,.08-1.49,.08-2.12Zm25.78,22.45c.04,.33-.01,.53-.16,.62-.15,.09-.38,.15-.69,.2-1.5,.15-3.08,.29-4.74,.41-1.66,.12-3.32,.22-4.98,.31-1.67,.09-3.31,.15-4.92,.2-1.61,.04-3.12,.07-4.51,.07-2.09,0-3.59-.56-4.49-1.68-.9-1.12-1.36-2.91-1.36-5.38v-3.59c0-.33,.07-.54,.2-.65,.13-.11,.35-.16,.65-.16h4.57c.3,0,.52,.05,.65,.16,.13,.11,.2,.33,.2,.65v2.97c0,.78,.16,1.36,.49,1.73s.93,.54,1.8,.52c1.18-.02,2.44-.06,3.79-.11,1.35-.05,2.72-.12,4.12-.2,1.39-.08,2.79-.17,4.18-.29,1.39-.12,2.73-.25,4.02-.38,.31-.04,.51,0,.62,.13s.18,.36,.23,.69l.33,3.79Zm-15.16-22.45c0-.52-.1-.88-.31-1.08s-.51-.29-.9-.29h-1.7c-.3,0-.52-.05-.65-.16-.13-.11-.2-.33-.2-.65v-3.79c0-.33,.07-.54,.2-.65,.13-.11,.35-.16,.65-.16h5.49c1.18,0,2.06,.3,2.65,.92,.59,.61,.88,1.6,.88,2.97,0,.89-.03,1.89-.1,2.99s-.16,2.25-.28,3.45c-.12,1.2-.26,2.4-.41,3.59-.15,1.2-.32,2.33-.49,3.4-.04,.33-.12,.56-.23,.69-.11,.13-.32,.17-.62,.13l-4.31-.49c-.3-.04-.54-.14-.7-.29-.16-.15-.2-.41-.11-.78,.15-.76,.3-1.58,.44-2.45,.14-.87,.27-1.74,.38-2.61s.19-1.72,.25-2.53c.05-.82,.08-1.54,.08-2.17Zm17.9,5.2c0,.33-.07,.54-.2,.65-.13,.11-.35,.16-.65,.16h-2.68v7.94c0,.33-.07,.54-.2,.65-.13,.11-.35,.16-.65,.16h-4.57c-.31,0-.52-.05-.65-.16-.13-.11-.2-.33-.2-.65v-19.93c0-.33,.07-.54,.2-.65,.13-.11,.35-.16,.65-.16h4.57c.3,0,.52,.05,.65,.16,.13,.11,.2,.33,.2,.65v6.57h2.68c.31,0,.52,.05,.65,.16,.13,.11,.2,.33,.2,.65v3.79Z"/><path class="l" d="M217.7,34.36c0-.33,.07-.54,.2-.65,.13-.11,.35-.16,.65-.16h5.62v-1.18c0-.33,.07-.54,.2-.65,.13-.11,.35-.16,.65-.16h4.57c.3,0,.52,.05,.65,.16,.13,.11,.2,.33,.2,.65v1.18h5.55c.3,0,.52,.05,.65,.16,.13,.11,.2,.33,.2,.65v3.17c0,.33-.07,.54-.2,.65-.13,.11-.35,.16-.65,.16h-17.45c-.3,0-.52-.05-.65-.16-.13-.11-.2-.33-.2-.65v-3.17Zm.72,11.3c0-.76,.12-1.51,.38-2.24,.25-.73,.71-1.38,1.37-1.96,.66-.58,1.57-1.04,2.73-1.39,1.15-.35,2.62-.52,4.41-.52s3.26,.17,4.41,.52c1.15,.35,2.06,.81,2.73,1.39s1.12,1.23,1.37,1.96c.25,.73,.38,1.48,.38,2.24s-.12,1.51-.38,2.25c-.25,.74-.71,1.39-1.37,1.96-.66,.57-1.57,1.02-2.73,1.37-1.16,.35-2.62,.52-4.41,.52s-3.26-.17-4.41-.52c-1.15-.35-2.06-.8-2.73-1.37-.67-.57-1.12-1.22-1.37-1.96-.25-.74-.38-1.49-.38-2.25Zm27.93,15.91c.04,.33-.01,.53-.16,.62-.15,.09-.38,.15-.69,.2-1.5,.15-3.07,.29-4.69,.41-1.62,.12-3.25,.22-4.87,.31s-3.22,.15-4.8,.2c-1.58,.04-3.07,.07-4.46,.07-2.09,0-3.59-.56-4.49-1.68-.9-1.12-1.36-2.91-1.36-5.38v-2.29c0-.33,.07-.54,.2-.65,.13-.11,.35-.16,.65-.16h4.57c.3,0,.52,.05,.65,.16,.13,.11,.2,.33,.2,.65v1.67c0,.78,.16,1.36,.49,1.73s.93,.54,1.8,.52c1.18-.02,2.42-.06,3.74-.11,1.32-.05,2.65-.12,4-.2s2.71-.17,4.07-.29c1.36-.12,2.68-.25,3.97-.38,.3-.04,.51,0,.62,.13,.11,.13,.18,.36,.23,.69l.33,3.79Zm-21.73-15.91c0,.52,.23,.95,.7,1.29,.47,.34,1.13,.51,1.98,.51s1.51-.17,1.98-.51c.47-.34,.7-.77,.7-1.29s-.23-.95-.7-1.29c-.47-.34-1.13-.51-1.98-.51s-1.51,.17-1.98,.51c-.47,.34-.7,.77-.7,1.29Zm24.8-1.34c0,.33-.07,.54-.2,.65-.13,.11-.35,.16-.65,.16h-3.01v7.94c0,.33-.07,.54-.2,.65-.13,.11-.35,.16-.65,.16h-4.57c-.31,0-.52-.05-.65-.16-.13-.11-.2-.33-.2-.65v-19.93c0-.33,.07-.54,.2-.65,.13-.11,.35-.16,.65-.16h4.57c.3,0,.52,.05,.65,.16,.13,.11,.2,.33,.2,.65v6.57h3.01c.31,0,.52,.05,.65,.16,.13,.11,.2,.33,.2,.65v3.79Z"/><path class="l" d="M118.01,72.38c0-.33,.07-.54,.2-.65,.13-.11,.35-.16,.65-.16h18.69c.3,0,.52,.05,.65,.16,.13,.11,.2,.33,.2,.65v3.76c0,.33-.07,.54-.2,.65-.13,.11-.35,.16-.65,.16h-1.73l-.36,17.97h2.25c.31,0,.52,.05,.65,.16,.13,.11,.2,.33,.2,.65v3.76c0,.33-.07,.54-.2,.65-.13,.11-.35,.16-.65,.16h-18.85c-.31,0-.52-.05-.65-.16-.13-.11-.2-.33-.2-.65v-3.76c0-.33,.07-.54,.2-.65,.13-.11,.35-.16,.65-.16h2.03l-.33-17.97h-1.7c-.31,0-.52-.05-.65-.16-.13-.11-.2-.33-.2-.65v-3.76Zm8.89,22.54h2.55l.23-17.97h-3.04l.26,17.97Zm23.03-7.65c0,.33-.07,.54-.2,.65-.13,.11-.35,.16-.65,.16h-3.01v13.04c0,.33-.07,.54-.2,.65-.13,.11-.35,.16-.65,.16h-4.57c-.31,0-.52-.05-.65-.16-.13-.11-.2-.33-.2-.65v-28.75c0-.33,.07-.54,.2-.65,.13-.11,.35-.16,.65-.16h4.57c.3,0,.52,.05,.65,.16,.13,.11,.2,.33,.2,.65v10.29h3.01c.31,0,.52,.05,.65,.16,.13,.11,.2,.33,.2,.65v3.79Z"/><path class="l" d="M150.42,96.98c0-.33,.07-.54,.2-.65,.13-.11,.35-.16,.65-.16h27.58c.3,0,.52,.05,.65,.16,.13,.11,.2,.33,.2,.65v3.82c0,.33-.07,.54-.2,.65-.13,.11-.35,.16-.65,.16h-27.58c-.3,0-.52-.05-.65-.16-.13-.11-.2-.33-.2-.65v-3.82Zm27.25-6.24c.04,.33-.01,.53-.16,.62s-.38,.15-.69,.2c-1.5,.15-3.05,.28-4.64,.39-1.59,.11-3.18,.2-4.77,.28-1.59,.08-3.15,.13-4.69,.16-1.54,.03-3,.05-4.39,.05-2.09,0-3.59-.56-4.49-1.68-.9-1.12-1.36-2.91-1.36-5.38v-13c0-.33,.07-.54,.2-.65,.13-.11,.35-.16,.65-.16h23.1c.3,0,.52,.05,.65,.16,.13,.11,.2,.33,.2,.65v3.82c0,.33-.07,.54-.2,.65-.13,.11-.35,.16-.65,.16h-17.68v2.35h17.71c.3,0,.52,.05,.65,.16,.13,.11,.2,.33,.2,.65v3.5c0,.33-.06,.54-.2,.65-.13,.11-.35,.16-.65,.16h-17.71v.59c0,.78,.16,1.36,.49,1.73,.33,.37,.92,.54,1.8,.52,2.37-.04,4.9-.13,7.58-.26,2.68-.13,5.3-.34,7.87-.62,.3-.04,.51,0,.62,.13,.11,.13,.18,.36,.23,.69l.33,3.46Z"/><path class="l" d="M190.09,94.89c1.61-.04,3.16-.1,4.64-.18,1.48-.08,3.04-.19,4.67-.34,.3-.04,.51,0,.62,.11,.11,.12,.18,.34,.23,.67l.33,3.79c.04,.33-.01,.53-.16,.62-.15,.09-.38,.15-.69,.2-2.16,.17-4.23,.31-6.22,.41-1.99,.1-4.04,.15-6.13,.15s-3.59-.56-4.49-1.68c-.9-1.12-1.36-2.91-1.36-5.38,0-1.92,.01-3.77,.03-5.55,.02-1.79,.05-3.53,.08-5.23,.03-1.7,.08-3.38,.13-5.05,.05-1.67,.12-3.35,.21-5.05,.02-.33,.09-.54,.21-.65,.12-.11,.33-.16,.64-.16h4.48c.3,0,.53,.05,.67,.16,.14,.11,.2,.33,.18,.65-.07,1.66-.13,3.29-.2,4.92-.06,1.62-.11,3.26-.15,4.92-.03,1.66-.05,3.34-.07,5.06-.01,1.72,0,3.51,.05,5.36,.02,.78,.19,1.36,.51,1.73,.32,.37,.91,.54,1.78,.52Zm4.67-12.71c0-.33,.07-.54,.2-.65,.13-.11,.35-.16,.65-.16h7.35v-8.99c0-.33,.07-.54,.2-.65,.13-.11,.35-.16,.65-.16h4.57c.3,0,.52,.05,.65,.16,.13,.11,.2,.33,.2,.65v28.75c0,.33-.07,.54-.2,.65-.13,.11-.35,.16-.65,.16h-4.57c-.31,0-.52-.05-.65-.16-.13-.11-.2-.33-.2-.65v-14.34h-7.35c-.3,0-.52-.05-.65-.16-.13-.11-.2-.33-.2-.65v-3.79Z"/><path class="l" d="M232.69,71.56c.3,0,.52,.05,.65,.16,.13,.11,.2,.33,.2,.65v5.82c0,.63,.08,1.25,.23,1.85,.15,.6,.44,1.15,.85,1.67,.41,.51,.97,.97,1.67,1.37,.7,.4,1.59,.71,2.68,.93,.09,.02,.19,.04,.31,.07,.12,.02,.23,.07,.34,.15,.11,.08,.2,.19,.28,.33,.08,.14,.11,.34,.11,.6v3.63c0,.39-.1,.63-.31,.7s-.39,.1-.54,.08c-.76-.07-1.54-.18-2.34-.34-.8-.16-1.57-.39-2.34-.69s-1.49-.67-2.19-1.13c-.7-.46-1.32-1-1.86-1.63-.57,.63-1.19,1.18-1.88,1.63-.69,.46-1.41,.83-2.17,1.13s-1.54,.52-2.34,.69c-.79,.16-1.57,.28-2.34,.34-.15,.02-.33,0-.54-.08s-.31-.31-.31-.7v-3.63c0-.26,.04-.46,.11-.6s.17-.25,.28-.33c.11-.08,.22-.12,.34-.15,.12-.02,.22-.04,.31-.07,1.09-.22,1.98-.53,2.68-.93,.7-.4,1.25-.86,1.67-1.37,.41-.51,.7-1.07,.85-1.67,.15-.6,.23-1.21,.23-1.85v-5.82c0-.33,.07-.54,.2-.65,.13-.11,.35-.16,.65-.16h4.51Zm17.42,29.24c.04,.33-.01,.53-.16,.62-.15,.09-.38,.15-.69,.2-1.5,.15-3.08,.29-4.74,.41-1.66,.12-3.32,.22-4.98,.31-1.67,.09-3.31,.15-4.92,.2-1.61,.04-3.12,.07-4.51,.07-2.09,0-3.59-.56-4.49-1.68-.9-1.12-1.36-2.91-1.36-5.38v-3.59c0-.33,.07-.54,.2-.65,.13-.11,.35-.16,.65-.16h4.57c.3,0,.52,.05,.65,.16,.13,.11,.2,.33,.2,.65v2.97c0,.78,.16,1.36,.49,1.73s.93,.54,1.8,.52c1.18-.02,2.44-.06,3.79-.11,1.35-.05,2.72-.12,4.12-.2,1.39-.08,2.79-.17,4.18-.29,1.39-.12,2.73-.25,4.02-.38,.31-.04,.51,0,.62,.13s.18,.36,.23,.69l.33,3.79Zm-5.78-7.68c-.31,0-.52-.05-.65-.16-.13-.11-.2-.33-.2-.65v-11.04h-4.74c-.31,0-.52-.05-.65-.16-.13-.11-.2-.33-.2-.65v-3.79c0-.33,.07-.54,.2-.65,.13-.11,.35-.16,.65-.16h4.74v-3.46c0-.33,.07-.54,.2-.65,.13-.11,.35-.16,.65-.16h4.57c.3,0,.52,.05,.65,.16,.13,.11,.2,.33,.2,.65v19.93c0,.33-.07,.54-.2,.65-.13,.11-.35,.16-.65,.16h-4.57Z"/><path class="l" d="M253.05,72.38c0-.33,.07-.54,.2-.65,.13-.11,.35-.16,.65-.16h17.09c.3,0,.52,.05,.65,.16,.13,.11,.2,.33,.2,.65v3.66c0,.33-.07,.54-.2,.65-.13,.11-.35,.16-.65,.16h-5.42v.13c0,.63,.08,1.25,.23,1.85,.15,.6,.44,1.16,.85,1.67,.41,.51,.97,.97,1.67,1.37,.7,.4,1.59,.71,2.68,.93,.09,.02,.19,.04,.31,.07,.12,.02,.23,.07,.34,.15s.2,.18,.28,.33c.08,.14,.11,.34,.11,.6v3.63c0,.39-.1,.63-.31,.7-.21,.08-.39,.1-.54,.08-.76-.07-1.54-.18-2.34-.34-.8-.16-1.57-.39-2.34-.69s-1.49-.67-2.19-1.13c-.7-.46-1.32-1-1.86-1.63-.57,.63-1.19,1.18-1.88,1.63-.69,.46-1.41,.83-2.17,1.13s-1.54,.52-2.34,.69c-.79,.16-1.57,.28-2.34,.34-.15,.02-.33,0-.54-.08-.21-.08-.31-.31-.31-.7v-3.63c0-.26,.04-.46,.11-.6s.17-.25,.28-.33c.11-.08,.22-.13,.34-.15,.12-.02,.22-.04,.31-.07,1.09-.22,1.98-.53,2.68-.93s1.25-.86,1.67-1.37c.41-.51,.7-1.07,.85-1.67,.15-.6,.23-1.21,.23-1.85v-.13h-5.46c-.31,0-.52-.05-.65-.16-.13-.11-.2-.33-.2-.65v-3.66Zm17.45,31.27c-1.89,0-3.51-.19-4.85-.56-1.34-.37-2.43-.88-3.27-1.54s-1.45-1.41-1.83-2.27c-.38-.86-.57-1.78-.57-2.76s.2-1.9,.59-2.76c.39-.86,1.01-1.61,1.86-2.25,.85-.64,1.94-1.15,3.27-1.52,1.33-.37,2.93-.56,4.8-.56s3.47,.19,4.8,.56c1.33,.37,2.42,.88,3.27,1.52,.85,.64,1.47,1.39,1.86,2.25,.39,.86,.59,1.78,.59,2.76s-.19,1.9-.57,2.76c-.38,.86-.99,1.62-1.83,2.27s-1.93,1.17-3.27,1.54c-1.34,.37-2.96,.56-4.85,.56Zm0-5.13c.57,0,1.11-.03,1.63-.1,.52-.06,.99-.17,1.39-.33,.4-.15,.72-.36,.96-.62,.24-.26,.36-.59,.36-.98s-.12-.71-.36-.96c-.24-.25-.56-.46-.96-.62-.4-.16-.87-.28-1.39-.34-.52-.07-1.07-.1-1.63-.1s-1.11,.03-1.63,.1c-.52,.06-.99,.18-1.39,.34s-.72,.37-.96,.62c-.24,.25-.36,.57-.36,.96s.12,.72,.36,.98c.24,.26,.56,.47,.96,.62s.87,.26,1.39,.33c.52,.07,1.07,.1,1.63,.1Zm5.85-9.83c-.31,0-.52-.05-.65-.16-.13-.11-.2-.33-.2-.65v-5.23h-2.97c-.31,0-.52-.05-.65-.16-.13-.11-.2-.33-.2-.65v-3.79c0-.33,.07-.54,.2-.65,.13-.11,.35-.16,.65-.16h2.97v-4.84c0-.33,.07-.54,.2-.65,.13-.11,.35-.16,.65-.16h4.57c.3,0,.52,.05,.65,.16,.13,.11,.2,.33,.2,.65v15.49c0,.33-.07,.54-.2,.65-.13,.11-.35,.16-.65,.16h-4.57Z"/></g><g><g class="j"><g class="f"><ellipse class="e" cx="188.83" cy="226.12" rx="231.81" ry="216.68"/></g><g><path class="m" d="M344.37,284.15c11.05,.45,22.05,2.16,33.17,.91,3.88-.44,5.62-3.06,7.25-5.76,2.96-4.91,3.56-10.56,4.15-16.12,1.32-12.35,.61-24.71,.19-37.07-.55-16.28-.7-32.58-2.62-48.79-.91-7.72-2.43-15.3-4.8-22.72-.67-2.11-2.53-2.58-3.71-3.93-1.24-1.42-2.33-2.08-4.48-1.57-2.46,.58-4.16-1.37-5.31-3.43-.82-1.46-1.57-2.55-3.59-2.22-1.57,.26-2.83-.82-3.68-2.07-1.85-2.73-3.75-5.45-4.66-8.69-.18-1.06-.25-2.16-1.47-3.26l.13,2.7c-1.29,3.62-3.75,4.33-6.62,1.75-2.52-2.27-4.25-5.15-5.37-8.32-.62-1.74-1.62-2.54-3.39-2.65-3.03-.19-5.66-1.84-8.59-2.42-1.76-1.76-3.96-2.59-6.33-3.08-2.39-2.14-4.03-.84-5.57,1.16-6.36,8.23-11.77,17.12-17.68,25.66-3.69,5.34-7.7,10.42-13.15,14.12-4,2.72-6.34,2.77-10.18-.16-5.34-4.07-9.09-9.4-11.77-15.53-3.15-7.2-5.08-14.63-4.33-22.56,.12-1.26-.33-3.24,2.08-3.1,.05,.48,.2,.98,.14,1.45-1.61,11.44,2.14,21.47,8.22,30.85,1.93,2.99,4.45,5.47,7.3,7.61,2.33,1.74,4.57,1.8,7.02,.08,3.91-2.74,7.19-6.12,10.03-9.88,7.39-9.78,13.38-20.55,21.08-30.12,.76-.94,.56-1.47-.37-2.09-3.13-2.1-5.08-5.12-6.51-8.54h2.36c1.79,4.2,4.05,7.49,9.36,7.94,3.79,.33,7,2.98,10.51,4.48,1.8,.77,3,.75,4.29-.89,1.59-2.01,3.61-3.61,6.01-4.63,3.79-1.61,6.6-.59,8.04,3.22,.49,1.31,1.04,1.63,2.33,1.48,1.45-.17,2.97-.32,4.4-.11,2.12,.31,4.57,.68,5.2,3.15,.88,3.45,3.25,5.22,6.22,6.56,1.66,.75,2.81,1.89,3.34,3.75,.52,1.8,1.7,3,3.57,3.83,4.89,2.17,8.54,10.76,6.8,15.75-.32,.91-.41,1.61-.09,2.49,4.43,12.14,5.87,24.85,6.53,37.59,1.05,20,1.86,40.03,1.9,60.07,.01,7.46-.62,14.9-2.38,22.19-.63,2.59-1.58,5.05-2.86,7.39-2.44,4.44-6.61,6.21-11.23,6.8-4.78,.62-5.78,1.5-4.47,6.27,.62,2.25,.24,4.43,.5,6.59,.57,4.68,.04,9.45,1.19,14.09,.31,1.27-.06,2.72-.11,4.08-.12,3.59,.92,7.11,.56,10.71-.06,.58,.57,1.51-.58,1.63-.73,.08-.8-.75-1.13-1.19-.71-13.14-1.46-26.27-2.11-39.42-.09-1.89-.83-2.55-2.67-2.58-8.8-.17-17.57-1.17-26.39-1.01-1.66,.03-3.34-.04-4.99-.25-2.4-.3-4.34-1.41-4.99-3.93-.41-1.58-1.56-1.81-2.85-2.05-17.34-3.19-34.19-8.21-50.85-13.84-13.94-4.71-27.91-8.77-42.83-8.4-2.68,.07-3.71,.57-3.3,3.38,1.09,7.4,1.07,14.88,1.46,22.33,.8,15.15,.81,30.34,2.29,45.45-1.98,1.82-2.03,.41-2.17-1.22-1.25-14.37-1.36-28.78-2.07-43.17-.4-8.21-1.11-16.41-1.59-24.63-.11-1.87-.76-2.6-2.7-2.99-6.55-1.33-12.96-3.2-18.92-6.33-3.41-1.8-4.17-3.39-3.73-7.32,.18-1.61-.59-3.64-1.75-3.5-1.6,.18-2.71,2.08-2.91,3.92-.15,1.34,.44,2.7-.03,4.09-.4,1.16-.93,2.39-1.99,2.82-3.18,1.3-3.27,3.89-3.76,6.79-3.02,18.01-6.28,35.97-9.49,53.94-1.05,5.89-2.19,11.77-3.32,17.65-.32,1.66-.92,2.66-2.23,.55,.23-.85,.53-1.69,.69-2.55,3.05-16.69,6.15-33.37,9.1-50.07,1.35-7.67,2.94-15.31,3.75-23.49-8.66,3.53-17.32,5.41-26.27,5.99-3.99,.26-7.96,.74-11.87,1.66-8.01,1.88-15.1,5.99-22.56,9.21-1.73,.75-2.46,1.6-2.4,3.63,.16,5.48-1.07,7.03-6.49,8.5-5.23,1.42-10.26,3.34-15.23,5.45-9.39,3.98-18.75,8.06-28.21,11.87-14.2,5.72-28.45,11.35-43.86,13-1.34,.14-1.76,.71-1.92,2.02-.6,4.89-.7,9.79-.47,14.7-.34,.45-.59,1.15-1.32,.92-.97-.31-.87-1.22-.83-1.99,.18-4.22,.27-8.44,.65-12.64,.18-2-.01-2.89-2.36-3.19-7.38-.94-11.85-5.94-13.46-15.27-1.84-10.64-1.21-21.33-.22-32,1.23-13.19,4.29-26.11,5.75-39.26,.79-7.12,1.54-14.24,2.33-21.35,.08-.69,.11-1.29-.25-1.97-4.2-7.8-4.55-16.54-5.69-25.01-.55-4.09,1.66-8.02,3.75-11.6,3.07-5.25,6.31-10.4,9.43-15.61,1.72-2.87,4.05-5.04,7.08-6.43,2.4-1.11,4.77-2.4,7.29-3.14,11.12-3.27,20.39-9.95,30.05-15.95,.79-.49,1.36-.99,1.29-2.07-.23-3.43,1.87-5.15,4.73-6.28,6.58-2.62,12.87-5.82,18.94-9.45,.47-.28,1.16-.37,1.13-1.15h3.54c.04,1.31-1.17,1.4-1.92,1.84-4.67,2.73-9.37,5.39-14.07,8.07-2.22,.27-4.13,1.34-6.03,2.41q-3.78,1.2-1.58,4.2c1.71,2.3,2.92,4.88,4.07,7.48,1.43,3.24,1.6,3.31,4.85,1.34,2.13-.1,4.09-.62,5.57-2.29,4.53-1.59,9.33-2.91,13.13-5.77,4.33-3.26,4.64-8.43,4.49-13.87-1.8,.97-3.24,1.83-4.93,1.97-1.58,.13-2.26-.44-1.6-2.07,.43-1.06,1.33-2,.97-3.3h2.36c.29,.93-.77,1.77-.2,2.79,1.55-.41,2.42-1.51,3.15-2.79h4.72c-.06,.76,.39,1.33,.83,1.82,6.23,6.91,13.78,11.69,22.85,13.92,2.14,.53,4.34,.21,6.32-.74,7.09-3.42,12.96-8.27,17.17-15h1.77c.12,1.42-.89,2.32-1.57,3.37-3.84,5.84-3.47,12.03-1.38,18.28,.65,1.94,1.97,3.36,4.38,3.24,1.1-.05,2.1,.54,2.94,1.23,7.31,5.97,16.3,8.33,24.94,11.31,6.68,2.31,13.45,4.36,19.9,7.28,2.1,.95,3.17,.91,2.54-1.81-.19-.85-.4-2.04,.81-2.13,1.49-.12,1.16,1.3,1.23,2.18,1.27,14.18,2.5,28.37,3.75,42.55,.37,4.2,.85,8.4,1.13,12.61,.12,1.78,.72,2.72,2.58,2.81,8.19,.37,13.46,4.82,17.34,11.79,4.53,8.15,12.12,11.96,21.08,13.42,14.26,2.33,28.65,3.49,43.02,4.85,2.93,.28,5.88,.44,8.81,.68,3.1,.25,6.09,.67,9.13-1.01,1.91-1.05,4.45-.34,6.68,0,3.03,.47,6.07,.42,9.11,.37,1.98-.03,3.42-1.09,2.89-3.12-1.31-5.01-.39-9.96,0-14.93,.7-8.98-.36-17.84-1.85-26.67-.13-.77-.27-1.55-.36-2.33-.09-.73,0-1.44,.92-1.53,.75-.08,1,.51,1.11,1.11,.29,1.54,.56,3.09,.81,4.64,1.55,9.63,2.4,19.28,1.11,29.03-.35,2.62-.43,5.28-.07,7.94,.23,1.69,.96,2.19,2.6,1.45,6.63-2.97,13.73-3.11,20.8-3.37,.85-.03,2.1-.22,2.14,.94,.05,1.46-1.35,1.11-2.25,1.13-6.2,.16-12.38,.46-18.28,2.63-1.25,.46-2.56,.87-3.62,1.93,.74,.95,1.55,.58,2.25,.55,5.83-.2,11.6,0,17.08,2.33,.45,.19,.93,.33,1.36,.57,.59,.34,1.31,.72,.92,1.57-.39,.86-1.1,.61-1.76,.31-8.78-3.93-17.91-2.54-27-1.76-2.57-.2-5.15-.41-7.72-.61-.87-.1-1.74-.22-2.62-.28-.65-.04-1.48-.39-1.88,.31-.43,.74,.38,1.22,.77,1.74,1.47,1.98,2.64,4.12,3.53,6.41,4.27,10.98,4.09,22.24,1.87,33.54-.58,2.97,.14,3.78,2.9,3.4,2.34,.05,4.69,.32,7.02-.18Zm-144.52-89.89c2.38-1.13,3.05,0,3.24,2.24,.31,3.64,1.19,7.16,2.87,10.44,.5,.98,1,1.94,2.3,2.01,3,.17,6.17,1.91,8.83-1.04,.35-.39,1.08-.65,1.62-.62,3.41,.17,3.32-1.95,3.1-4.39-1.29-14.38-2.71-28.74-3.65-43.14-.26-3.99-1.84-5.9-5.29-7.32-7.74-3.16-15.77-5.44-23.6-8.34-6.43-2.39-13.12-4.33-18.7-8.48-2.36-1.75-3.64-1.62-4.7,1.04-9.65,10.06-21.59,11.97-34.71,9.76-7.85-1.32-14.74-5.07-21.78-8.46-.02-1.6-1.62-1.72-2.44-2.57-2.03-2.1-3.95-5.48-6.27-5.8-2.55-.36-5.42,2.32-8.27,3.34-9.89,3.55-19.99,6.46-29.7,10.53-15.31,6.41-27.59,15.74-32.53,32.49-.33,1.11-.91,2.18-1.51,3.18-1.29,2.18-2.03,4.6-2.33,7.02-1.13,8.84-2.17,17.7-2.97,26.58-1.71,18.89-5.89,37.45-7.54,56.34-.88,10.09-1.28,20.21,.92,30.22,1.84,8.36,6.75,12.15,15.34,11.89,1.96-.06,3.92-.28,5.86-.59,14.09-2.25,27.15-7.76,40.35-12.84,14.11-5.42,27.47-12.73,42.13-16.74,1.76-.48,1.84-1.23,1.13-2.72-.72-1.49-1.25-3.1-1.67-4.71-2.93-11.23-1.84-22.19,2.33-32.93,.27-.68,1.02-1.45,.39-2.15-.62-.69-1.47-.07-2.2,.12-.76,.19-1.49,.5-2.23,.75-15.92,5.34-31.78,10.81-47.99,15.27-10.96,3.02-22.29,4.83-32.76,9.58-.8,.36-1.96,1.38-2.54,.06-.66-1.51,1-1.61,1.88-2.02,7.18-3.33,14.84-5.13,22.53-6.77,3.22-.68,4.43-2.54,4.62-5.5,.1-1.47,.12-2.94,.22-4.41,.64-9.42,2.2-18.68,4.85-27.75,.4-1.36,.61-2.77,2.56-2.42-4.28,12.33-5.01,25.21-5.94,38.52,4.63-1.33,9.08-2.47,13.44-3.87,12.79-4.13,25.55-8.37,38.33-12.55,3.42-1.12,6.77-2.82,10.56-1.4,.46,.17,1.15-.12,1.7-.31,4.81-1.69,9.63-3.37,14.43-5.11,6.12-2.23,10.98-5.91,14.07-11.82,2.57-4.91,6.28-8.66,12.01-9.62,5.48-.92,11.1-2.84,16.18,1.46,.88,.74,2.29,.87,3.36,.3,2.2-1.18,4.48-1.23,6.82-.85,.83,.13,1.65,.44,1.75-.75,.44-5.06,2.28-9.97,1.62-15.15Zm17.3,15.99c1.2,.93,2.42,.93,3.52,1.26,3.76,1.12,7.55,2.19,11.29,3.36,.73,.23,2.06,.43,1.61,1.61-.46,1.2-1.57,.39-2.3,.14-7.35-2.54-14.89-4.28-22.55-5.57-1.96-.33-4-.93-5.24,1.29-1.13,2.03-.18,3.7,1.13,5.34,2.25,2.81,2.14,3.85-.71,6.03-1.97,1.51-2.6,3.11-1.11,5.27,1.3,1.88,1.45,3.84,.22,5.79-1.03,1.63-.84,3.06,.19,4.64,.92,1.41,2.14,2.77,1.61,4.77-.63,2.38,.52,3.99,2.61,5,7.75,3.74,15.77,6.7,24.48,6.85,13.55,.23,26.71,2.13,39.57,6.69,18.51,6.57,37.36,12.03,56.67,15.83,2.37,.47,3.08-.21,3.46-2.38,1.49-8.61,1.54-17.18-.31-25.75-1.67-7.76-3.93-9.61-11.74-10.17-17.92-1.28-35.83-2.78-53.6-5.55-10.26-1.6-19.01-5.79-24.27-15.26-3.05-5.48-7.13-9.22-13.61-9.84-3.61-.35-7.27-1.65-10.91,.65Zm-33.47,1.5c-.26-.44-.31-.66-.45-.75-.33-.21-.68-.46-1.04-.5-6.54-.73-12.89-.31-18.3,3.97-1.93,1.53-3.18,3.74-4.35,5.9-3.1,5.72-7.83,9.5-13.83,11.73-6.16,2.3-12.35,4.52-18.57,6.65-1.54,.53-2.5,1.29-3.06,2.81-2.96,8.04-4.45,16.34-3.47,24.86,.87,7.56,.26,6.27,6.45,3.6,.81-.35,1.61-.72,2.39-1.14,13.02-7.16,26.81-11.26,41.78-11.84,7.66-.3,14.93-3.08,21.86-6.43,2.4-1.16,3.99-2.86,3.15-5.86-.41-1.45,.16-2.81,1.11-3.81,1.6-1.69,1.83-3.3,.56-5.27-1.11-1.73-1.05-3.52,.16-5.24,1.61-2.3,1.18-4.12-1.14-5.73-2.12-1.47-3.1-3.08-.63-5.41,1.56-1.47,2.51-3.65,1.26-5.88-1.23-2.21-3.4-1.6-5.3-1.27-7.54,1.33-15.01,2.98-22.25,5.51-.77,.27-1.89,1.06-2.35,.01-.6-1.36,.88-1.45,1.72-1.77,4.58-1.75,9.39-2.77,14.32-4.12Zm-25.03-89.93c-1.12,.89-1.87,1.48-2.61,2.09-8.47,6.82-15.9,7.08-24.74,.86-.88-.62-1.78-1.25-2.54-2.01-4.88-4.91-9.72-9.86-14.78-15,0,1.36,.05,2.51,0,3.66-.34,6.95-2.23,13.08-9,16.53-1.85,.94-.81,1.75,0,2.64,3.84,4.2,8.49,7.29,13.63,9.61,9.9,4.46,20.14,6.65,30.95,3.95,5.57-1.39,10.35-4.19,14.18-8.51,.45-.51,1.76-1.09,.42-2.05-3.85-2.77-4.85-6.93-5.51-11.76Zm-80.15,3.08c-1.55,.36-2.66,1.37-3.89,2.13-5,3.1-9.98,6.23-14.97,9.35-6.05,3.78-12.97,5.54-19.43,8.37-10.52,4.61-14.25,14.23-17.29,24.15-.8,2.62-.26,5.65-.29,8.5-.01,1.03,.29,2.02,1.36,2.39,1.28,.44,2.02-.46,2.63-1.38,1.5-2.22,2.41-4.73,3.19-7.25,2.39-7.66,8.19-13.05,12.66-19.33,.17-.23,.4-.55,.64-.59,3.52-.59,5.95-3.2,8.89-4.83,8.28-4.6,17.11-7.81,26.06-10.75,1.2-.39,2.58-.6,2.26-2.44-.49-2.79-.67-5.64-1.83-8.32Zm277.88-5.1q-4.04,.08-2.91,4c.19,.66,.38,1.31,.58,1.97,.11,.34,.21,.85,.71,.48,2.21-1.64,1.9,.68,2.17,1.51,1.27,4.04,2.67,8.01,5.09,11.51,.72,1.04,1.47,2.69,3.14,2.05,1.6-.61,1.3-2.27,1.16-3.61-.49-4.69-2.03-9.15-3.38-13.63-1.11-3.68-2.42-4.35-6.56-4.27Zm-18.22,.5c1.19,.52,2.45,1.28,3,.58,2.52-3.23,2.14,.06,2.53,1.1,1.36,3.59,2.8,7.14,5.48,9.99,.76,.81,1.6,1.98,2.96,1.2,1.1-.63,1.09-1.82,.83-2.9-1.07-4.48-2.1-8.97-3.34-13.41-.67-2.4-2.59-2.79-4.73-2.04-2.78,.97-4.79,2.95-6.73,5.48ZM22.56,199.67c.91-5.5,1.8-11.01,2.73-16.5,.16-.92-.19-1.24-1.02-1.35-2.87-.39-3.55-2.4-3.56-4.89,0-2.29,0-4.59,0-7.56-.52,.89-.73,1.18-.87,1.5-1.73,3.97-2.43,8.03-1.26,12.32,1.49,5.45,1.69,11.19,3.98,16.49Zm345.79-60.79c-.53,2.87,.86,5.09,2.62,7.12,.63,.73,1.47,1.49,2.53,1.11,1.21-.44,.9-1.63,.77-2.54-.55-3.75-1.33-7.46-2.32-11.13-.68-2.51-2.16-4.02-4.29-5.09-.44-.22-.97-.92-1.53-.38-.48,.46-.07,.97,.15,1.54,1.2,2.99,2,6.1,2.06,9.38Zm6.78-2.3c-.24,1.78,.5,3.23,.69,4.76,.36,2.98,1.19,5.76,3.49,7.86,.57,.52,1.21,1.19,2.05,.83,.94-.4,.64-1.32,.49-2.06-.4-1.92-.86-3.82-1.3-5.73-.67-2.93-2.6-4.62-5.42-5.66Zm-174.6,98.71c.27-.48,.5-.9,.75-1.31,.68-1.15,1.06-2.32,.1-3.51-.29-.36-.71-.38-.97,0-.78,1.1-1.74,2.17-1.06,3.69,.19,.44,.34,.92,1.19,1.14Zm2.45-13.7c-1.61,.16-3.45-.26-4.58,1.21-.34,.45,.44,1.14,.92,1.31,2.15,.74,2.2-1.89,3.66-2.52Z"/><path class="g" d="M87.41,116.26c4.69-2.68,9.4-5.34,14.07-8.07,.75-.44,1.96-.52,1.92-1.84h2.95c.37,1.3-.53,2.23-.97,3.3-.66,1.63,.02,2.2,1.6,2.07,1.69-.14,3.13-1,4.93-1.97,.15,5.45-.16,10.62-4.49,13.87-3.8,2.86-8.6,4.17-13.13,5.77-2.22-4.41-4.11-9-6.88-13.13Z"/><path class="m" d="M294.48,106.35c-2.71,7.86-12.09,12.48-20.82,10.17-2.15-.57-4.24-1.37-6.66-2.16,.1,2.01,1.11,3.48,1.53,5.11,.22,.87,1.24,2.08,.02,2.57-1.52,.6-1.47-1.14-1.87-2-.66-1.41-1.18-2.89-1.76-4.34-.44-1.21-.87-2.43-1.31-3.64-.3-1.96-1.59-3.66-1.56-5.71h4.72c1.96,2.14,4.48,3.42,7.22,4.09,5.4,1.32,10.02-.39,14.01-4.09h6.49Z"/><path class="m" d="M238.45,106.35c4.5,1.94,9.43,2.14,14.1,3.4,2.73,.73,5.61,.83,8.22,2.06-.15,.89-.73,1.35-1.56,1.56-1.86-.76-3.76-1.33-5.81-1.07-6.11-2.1-12.55-2.75-18.79-4.26-1.69-.41-3.73,0-5-1.69h8.85Z"/><path class="m" d="M148.81,106.35c.75,.73-.12,.98-.45,1.27-3.82,3.43-11.21,3.16-14.83-.54-.13-.13-.04-.48-.05-.73h2.36c3.54,2.46,7.55,2.46,10.62,0h2.36Z"/><path class="n" d="M146.45,106.35c-3.07,2.46-7.08,2.46-10.62,0h10.62Z"/><path class="h" d="M111.65,106.35c-.73,1.27-1.6,2.38-3.15,2.79-.57-1.02,.49-1.86,.2-2.79h2.95Z"/><path class="g" d="M234,329.28c-1.48-15.11-1.49-30.3-2.29-45.45-.39-7.45-.36-14.94-1.46-22.33-.42-2.81,.62-3.31,3.3-3.38,14.93-.36,28.9,3.69,42.83,8.4,16.66,5.63,33.51,10.65,50.85,13.84,1.29,.24,2.45,.47,2.85,2.05,.65,2.52,2.59,3.62,4.99,3.93,1.65,.21,3.33,.28,4.99,.25,8.82-.16,17.59,.84,26.39,1.01,1.84,.03,2.58,.69,2.67,2.58,.65,13.14,1.4,26.28,2.11,39.42-20.31,3.63-40.79,5.65-61.41,5.84-13.14,.12-26.28-.53-39.37-1.73-11.32-1.04-22.63-2.19-33.88-3.91-.87-.13-1.72-.34-2.59-.52Z"/><path class="g" d="M324.68,117.4c-.35,1.7-1.54,2.94-2.45,4.32-7.73,11.72-15.59,23.35-24.69,34.07-2.61,3.08-5.48,5.9-8.84,8.17-4.64,3.12-8.52,3.07-12.94-.58-8.86-7.32-13.71-17.05-16.02-28.08-1.52-7.23-2.09-14.57-.54-21.92-1.86-.76-3.76-1.33-5.81-1.07,.12,5.78-.27,11.57,.45,17.35,1.61,12.84,5.4,24.77,14.43,34.47,9.61,10.32,18.32,10.58,28.44,.86,2.05-1.97,4-4.06,5.86-6.22,4.81-5.59,9.24-11.48,13.47-17.51,4.9-6.99,9.47-14.21,14.95-20.78-1.76-1.76-3.96-2.59-6.33-3.08Z"/><path class="m" d="M334.83,187.02c2.43-14.23,6.44-28.4,16.21-40.27,.44-.53,.88-1.07,1.38-1.52,.46-.41,1.03-.64,1.55-.06,.38,.43,.28,.91,.01,1.36-.1,.17-.24,.31-.36,.46-10.08,11.67-14.36,25.71-16.6,40.59-.14,.91,.13,2.27-1.34,2.13-1.26-.12-.86-1.29-.84-2.69Z"/><path class="g" d="M354.97,132.12l-.13-2.7c1.22,1.1,1.29,2.2,1.47,3.26-.45-.19-.89-.38-1.34-.56Z"/><path class="g" d="M324.68,117.4c-.35,1.7-1.54,2.94-2.45,4.32-7.73,11.72-15.59,23.35-24.69,34.07-2.61,3.08-5.48,5.9-8.84,8.17-4.64,3.12-8.52,3.07-12.94-.58-8.86-7.32-13.71-17.05-16.02-28.08-1.52-7.23-2.09-14.57-.54-21.92,.82-.22,1.41-.67,1.56-1.56,.94,.08,1.89,.17,2.83,.25,.44,1.22,.87,2.43,1.31,3.64-.28,.43-.55,.86-.83,1.3-2.41-.13-1.96,1.84-2.08,3.1-.75,7.92,1.17,15.36,4.33,22.56,2.68,6.13,6.43,11.46,11.77,15.53,3.84,2.92,6.18,2.88,10.18,.16,5.45-3.71,9.46-8.79,13.15-14.12,5.91-8.54,11.32-17.43,17.68-25.66,1.54-2,3.19-3.3,5.57-1.16Z"/><path class="g" d="M389.14,226.11c-.55-16.28-.7-32.58-2.62-48.79-.91-7.72-2.43-15.3-4.8-22.72-.67-2.11-2.53-2.58-3.71-3.93-1.24-1.42-2.33-2.08-4.48-1.57-2.46,.58-4.16-1.37-5.31-3.43-.82-1.46-1.57-2.55-3.59-2.22-1.57,.26-2.83-.82-3.68-2.07-1.85-2.73-3.75-5.45-4.66-8.69-.45-.19-.89-.37-1.34-.56-1.29,3.62-3.75,4.33-6.62,1.75-2.52-2.27-4.25-5.15-5.37-8.32-.62-1.74-1.62-2.54-3.39-2.65-3.03-.19-5.66-1.84-8.59-2.42-5.48,6.57-10.05,13.79-14.95,20.78-4.24,6.04-8.66,11.92-13.47,17.51-1.86,2.16-3.81,4.25-5.86,6.22-10.12,9.71-18.83,9.46-28.44-.86-9.04-9.7-12.82-21.63-14.43-34.47-.72-5.78-.33-11.57-.45-17.35-6.11-2.1-12.55-2.75-18.79-4.26-1.69-.41-3.73,0-5-1.69h-64.28c.12,1.42-.89,2.32-1.57,3.37-3.84,5.84-3.47,12.03-1.38,18.28,.65,1.94,1.97,3.36,4.38,3.24,1.1-.05,2.1,.54,2.94,1.23,7.31,5.97,16.3,8.33,24.94,11.31,6.68,2.31,13.45,4.36,19.9,7.28,2.1,.95,3.17,.91,2.54-1.81-.19-.85-.4-2.04,.81-2.13,1.49-.12,1.16,1.3,1.23,2.18,1.27,14.18,2.5,28.37,3.75,42.55,.37,4.2,.85,8.4,1.13,12.61,.12,1.78,.72,2.72,2.58,2.81,8.19,.37,13.46,4.82,17.34,11.79,4.53,8.15,12.12,11.96,21.08,13.42,14.26,2.33,28.65,3.49,43.02,4.85,2.93,.28,5.88,.44,8.81,.68,3.1,.25,6.09,.67,9.13-1.01,1.91-1.05,4.45-.34,6.68,0,3.03,.47,6.07,.42,9.11,.37,1.98-.03,3.42-1.09,2.89-3.12-1.31-5.01-.39-9.96,0-14.93,.7-8.98-.36-17.84-1.85-26.67-.13-.77-.27-1.55-.36-2.33-.09-.73,0-1.44,.92-1.53,.75-.08,1,.51,1.11,1.11,.29,1.54,.56,3.09,.81,4.64,1.55,9.63,2.4,19.28,1.11,29.03-.35,2.62-.43,5.28-.07,7.94,.23,1.69,.96,2.19,2.6,1.45,6.63-2.97,13.73-3.11,20.8-3.37,.85-.03,2.1-.22,2.14,.94,.05,1.46-1.35,1.11-2.25,1.13-6.2,.16-12.38,.46-18.28,2.63-1.25,.46-2.56,.87-3.62,1.93,.74,.95,1.55,.58,2.25,.55,5.83-.2,11.6,0,17.08,2.33,.45,.19,.93,.33,1.36,.57,.59,.34,1.31,.72,.92,1.57-.39,.86-1.1,.61-1.76,.31-8.78-3.93-17.91-2.54-27-1.75,4.55,11.14,5.59,22.59,4.76,34.23,.82-11.63-.21-23.09-4.76-34.23-2.57-.2-5.15-.41-7.72-.61,.97,1.83,1.82,3.69,2.56,5.57-.74-1.88-1.6-3.74-2.56-5.57-.87-.1-1.74-.22-2.62-.28-.65-.04-1.48-.39-1.88,.31-.43,.74,.38,1.22,.77,1.74,1.47,1.98,2.64,4.12,3.53,6.41,4.27,10.98,4.09,22.24,1.87,33.54-.58,2.97,.14,3.78,2.9,3.4,2.34,.05,4.69,.32,7.02-.18,11.05,.45,22.05,2.16,33.17,.91,3.88-.44,5.62-3.06,7.25-5.76,2.96-4.91,3.56-10.56,4.15-16.12,1.32-12.35,.61-24.71,.19-37.07Zm-35.16-79.59c-.1,.17-.24,.31-.36,.46-10.08,11.67-14.36,25.71-16.6,40.58-.14,.91,.13,2.27-1.34,2.13-1.26-.12-.86-1.29-.84-2.69,2.43-14.23,6.44-28.4,16.21-40.27,.44-.53,.88-1.07,1.38-1.52,.46-.41,1.03-.64,1.55-.06,.38,.43,.28,.91,.01,1.36Zm-15.17,111.76c-.26-1.98-.61-3.94-1.07-5.88,.46,1.94,.81,3.9,1.07,5.88Z"/><path class="g" d="M87.41,116.26c2.77,4.13,4.66,8.72,6.88,13.13-1.48,1.68-3.44,2.19-5.57,2.29-1.03-5.14-3.78-9.31-7.34-13.02,1.9-1.07,3.81-2.14,6.03-2.41Z"/><path class="g" d="M81.38,118.67c3.57,3.71,6.32,7.88,7.34,13.02-3.25,1.97-3.42,1.91-4.85-1.34-1.15-2.6-2.36-5.18-4.07-7.48q-2.21-2.98,1.58-4.2Z"/><path class="m" d="M74.25,204.37c-.03,.92-.05,1.85-.82,2.54-2.08-.54-1.47-2.26-1.56-3.63-.89-14.69-5.51-27.79-16.22-38.33-.7-.69-1.46-1.31-2.21-1.94-.48-.4-.93-.91-.54-1.49,.5-.72,1.22-.46,1.81-.02,2.31,1.69,4.31,3.7,6.12,5.91,8.18,10,11.96,21.67,13.06,34.36,.08,.87,.24,1.73,.36,2.6Z"/></g></g><g><path d="M243.66,179.31c.89,0,1.62,.14,2.2,.41,.58,.27,1.04,.61,1.38,1.03,.34,.41,.58,.87,.71,1.37,.13,.5,.2,.98,.2,1.44s-.07,.94-.2,1.45-.37,.97-.71,1.38c-.34,.41-.79,.76-1.37,1.03s-1.32,.41-2.21,.41-1.64-.14-2.21-.41c-.58-.27-1.04-.61-1.37-1.03-.34-.41-.57-.87-.71-1.38s-.2-.99-.2-1.45,.07-.94,.2-1.44c.13-.5,.37-.96,.71-1.37,.34-.41,.8-.76,1.38-1.03,.58-.27,1.31-.41,2.2-.41Zm8.83,13.79c.02,.15,0,.25-.08,.29-.07,.04-.18,.07-.32,.09-.7,.07-1.45,.13-2.22,.19-.78,.06-1.56,.1-2.34,.15-.78,.04-1.55,.07-2.31,.09-.76,.02-1.46,.03-2.11,.03-.98,0-1.68-.26-2.11-.79-.42-.53-.64-1.37-.64-2.52v-1.69c0-.15,.03-.25,.09-.31,.06-.05,.16-.08,.31-.08h2.15c.14,0,.25,.03,.31,.08,.06,.05,.09,.15,.09,.31v1.39c0,.37,.08,.64,.23,.81s.43,.26,.84,.25c.55,0,1.14-.03,1.78-.05,.63-.03,1.28-.06,1.93-.09,.65-.04,1.31-.08,1.96-.14,.65-.06,1.28-.12,1.89-.18,.14-.02,.24,0,.29,.06,.05,.06,.09,.17,.11,.32l.15,1.78Zm-8.83-7.79c.52,0,.93-.16,1.22-.49,.29-.33,.44-.76,.44-1.29s-.15-.95-.44-1.27c-.29-.33-.7-.49-1.22-.49s-.93,.16-1.22,.49c-.29,.33-.44,.75-.44,1.27s.15,.96,.44,1.29c.29,.33,.7,.49,1.22,.49Zm6.12,4.18c-.14,0-.25-.03-.31-.08-.06-.05-.09-.15-.09-.31v-9.35c0-.15,.03-.25,.09-.31,.06-.05,.16-.08,.31-.08h2.15c.14,0,.25,.03,.31,.08,.06,.05,.09,.15,.09,.31v9.35c0,.15-.03,.25-.09,.31-.06,.05-.16,.08-.31,.08h-2.15Z"/><path d="M254.31,185.96c0-.15,.03-.26,.09-.31s.16-.08,.31-.08h12.94c.14,0,.25,.03,.31,.08s.09,.15,.09,.31v1.79c0,.15-.03,.26-.09,.31s-.16,.08-.31,.08h-12.94c-.14,0-.25-.03-.31-.08s-.09-.15-.09-.31v-1.79Zm.87-6.19c0-.15,.03-.25,.09-.31,.06-.05,.16-.08,.31-.08h11.16c.14,0,.25,.03,.31,.08,.06,.05,.09,.15,.09,.31v1.55c0,.15-.03,.26-.09,.31-.06,.05-.16,.08-.31,.08h-3.53c.38,.24,.87,.41,1.47,.53,.6,.12,1.3,.2,2.08,.25,.03,0,.07,0,.12,.02,.05,0,.1,.03,.15,.06,.05,.03,.08,.08,.12,.14,.03,.06,.05,.15,.05,.26v1.5c0,.11-.02,.2-.05,.26-.04,.06-.08,.11-.14,.13-.06,.03-.11,.04-.17,.05-.06,0-.1,0-.15,0-1.42-.05-2.6-.22-3.55-.52-.95-.3-1.61-.67-2-1.13-.39,.46-1.05,.84-1.99,1.13-.94,.3-2.12,.47-3.54,.52-.04,0-.09,0-.15,0-.06,0-.11-.02-.17-.05-.06-.03-.1-.07-.14-.13-.04-.06-.05-.15-.05-.26v-1.5c0-.11,.02-.2,.05-.26s.07-.11,.12-.14c.05-.03,.09-.05,.15-.06,.05,0,.09-.02,.12-.02,.78-.05,1.47-.13,2.08-.25,.61-.12,1.1-.29,1.46-.53h-3.5c-.14,0-.25-.03-.31-.08-.06-.05-.09-.15-.09-.31v-1.55Zm5.99,14.67c-1.99,0-3.48-.23-4.48-.69-.99-.46-1.49-1.19-1.49-2.19s.5-1.73,1.51-2.18c1.01-.46,2.49-.68,4.45-.68s3.45,.23,4.45,.68c1.01,.45,1.51,1.18,1.51,2.18s-.5,1.73-1.49,2.19c-.99,.46-2.48,.69-4.48,.69Zm0-2.28c.61,0,1.11,0,1.5-.03,.39-.02,.69-.06,.92-.11,.22-.05,.38-.12,.47-.19,.09-.08,.13-.17,.13-.28,0-.1-.04-.19-.13-.27-.09-.08-.24-.14-.47-.19-.23-.05-.53-.09-.92-.12-.39-.03-.89-.04-1.5-.04s-1.11,.01-1.5,.04c-.39,.03-.7,.06-.92,.12-.22,.05-.38,.11-.47,.19-.09,.08-.13,.17-.13,.27,0,.11,.04,.21,.13,.28,.09,.08,.24,.14,.47,.19s.53,.09,.92,.11c.39,.02,.89,.03,1.5,.03Z"/><path d="M277.19,179.38c.14,0,.25,.03,.31,.08,.06,.05,.09,.15,.09,.31v1.39c0,.15-.03,.26-.09,.31-.06,.05-.16,.08-.31,.08h-4.71v.83c0,.18,.03,.3,.09,.35,.06,.05,.2,.08,.41,.08,.44,0,.84,0,1.21-.02,.37,0,.73-.02,1.07-.04,.35-.02,.69-.04,1.03-.07,.34-.03,.69-.06,1.07-.09,.14-.02,.24,0,.3,.05s.09,.16,.1,.31l.09,1.42c.01,.15-.02,.25-.08,.29-.07,.04-.17,.07-.31,.09-.36,.03-.73,.06-1.12,.08-.39,.02-.78,.04-1.18,.06v.97h3.08c.14,0,.25,.03,.31,.08,.06,.05,.09,.15,.09,.31v1.79c0,.15-.03,.26-.09,.31-.06,.05-.16,.08-.31,.08h-8.98c-.14,0-.25-.03-.31-.08-.06-.05-.09-.15-.09-.31v-1.79c0-.15,.03-.25,.09-.31,.06-.05,.16-.08,.31-.08h2.96v-.89h-1.01c-.51,0-.92-.14-1.22-.41-.3-.28-.45-.76-.45-1.46v-3.34c0-.15,.03-.25,.09-.31,.06-.05,.16-.08,.31-.08h7.25Zm5.18,13.72c.02,.15,0,.25-.08,.29-.07,.04-.18,.07-.32,.09-.7,.07-1.47,.13-2.28,.19-.82,.06-1.64,.1-2.47,.15-.83,.04-1.64,.07-2.43,.09-.79,.02-1.52,.03-2.17,.03-.98,0-1.68-.26-2.11-.79s-.64-1.37-.64-2.52v-1.23c0-.15,.03-.25,.09-.31,.06-.05,.16-.08,.31-.08h2.15c.14,0,.25,.03,.31,.08,.06,.05,.09,.15,.09,.31v.93c0,.37,.08,.64,.23,.81s.43,.26,.84,.25c.55,0,1.16-.03,1.83-.05s1.36-.06,2.06-.09c.71-.04,1.4-.08,2.09-.14,.69-.06,1.34-.12,1.94-.18,.14-.02,.24,0,.29,.06,.05,.06,.09,.17,.11,.32l.15,1.78Zm-2.71-2.99c-.14,0-.25-.03-.31-.08-.06-.05-.09-.15-.09-.31v-9.96c0-.15,.03-.25,.09-.31,.06-.05,.16-.08,.31-.08h2.15c.14,0,.25,.03,.31,.08,.06,.05,.09,.15,.09,.31v9.96c0,.15-.03,.25-.09,.31-.06,.05-.16,.08-.31,.08h-2.15Z"/><path d="M238.84,198.16c0-.15,.03-.25,.09-.31,.06-.05,.16-.08,.31-.08h8.02c.14,0,.25,.03,.31,.08,.06,.05,.09,.15,.09,.31v1.79c0,.15-.03,.26-.09,.31-.06,.05-.16,.08-.31,.08h-2.54v.6c0,.3,.04,.58,.11,.87s.2,.54,.4,.78,.46,.46,.78,.64c.33,.19,.75,.33,1.26,.44,.04,.01,.09,.02,.15,.03,.06,0,.11,.03,.16,.07,.05,.04,.09,.09,.13,.15,.04,.07,.05,.16,.05,.28v1.7c0,.18-.05,.29-.15,.33-.1,.04-.18,.05-.25,.04-.36-.03-.72-.08-1.1-.16-.37-.08-.74-.18-1.1-.32-.36-.14-.7-.31-1.03-.53-.33-.21-.62-.47-.87-.77-.27,.3-.56,.55-.88,.77-.32,.21-.66,.39-1.02,.53s-.72,.25-1.1,.32c-.37,.08-.74,.13-1.1,.16-.07,0-.16,0-.25-.04-.1-.04-.15-.15-.15-.33v-1.7c0-.12,.02-.22,.05-.28,.04-.07,.08-.12,.13-.15,.05-.04,.11-.06,.16-.07,.06,0,.1-.02,.15-.03,.51-.1,.93-.25,1.26-.44,.33-.19,.59-.4,.78-.64,.19-.24,.33-.5,.4-.78,.07-.28,.11-.57,.11-.87v-.6h-2.56c-.14,0-.25-.03-.31-.08-.06-.05-.09-.15-.09-.31v-1.79Zm13.64,13.33c.02,.15,0,.25-.08,.29-.07,.04-.18,.07-.32,.09-.7,.07-1.45,.13-2.22,.19-.78,.06-1.56,.1-2.34,.15-.78,.04-1.55,.07-2.31,.09-.76,.02-1.46,.03-2.11,.03-.98,0-1.68-.26-2.11-.79-.42-.53-.64-1.37-.64-2.52v-1.69c0-.15,.03-.25,.09-.31,.06-.05,.16-.08,.31-.08h2.15c.14,0,.25,.03,.31,.08,.06,.05,.09,.15,.09,.31v1.39c0,.37,.08,.64,.23,.81s.43,.26,.84,.25c.55,0,1.14-.03,1.78-.05,.63-.03,1.28-.06,1.93-.09,.65-.04,1.31-.08,1.96-.14,.65-.06,1.28-.12,1.89-.18,.14-.02,.24,0,.29,.06,.05,.06,.09,.17,.11,.32l.15,1.78Zm-2.71-3.6c-.14,0-.25-.03-.31-.08-.06-.05-.09-.15-.09-.31v-4.23h-1.55c-.14,0-.25-.03-.31-.08-.06-.05-.09-.15-.09-.31v-1.78c0-.15,.03-.25,.09-.31,.06-.05,.16-.08,.31-.08h1.55v-2.58c0-.15,.03-.25,.09-.31,.06-.05,.16-.08,.31-.08h2.15c.14,0,.25,.03,.31,.08,.06,.05,.09,.15,.09,.31v9.35c0,.15-.03,.25-.09,.31-.06,.05-.16,.08-.31,.08h-2.15Z"/><path d="M254.31,204.6c0-.15,.03-.26,.09-.31s.16-.08,.31-.08h12.94c.14,0,.25,.03,.31,.08s.09,.15,.09,.31v1.79c0,.15-.03,.26-.09,.31s-.16,.08-.31,.08h-4.84v1.85c0,.15-.03,.26-.09,.31-.06,.05-.16,.08-.31,.08h-2.15c-.14,0-.25-.03-.31-.08-.06-.05-.09-.15-.09-.31v-1.85h-5.15c-.14,0-.25-.03-.31-.08s-.09-.15-.09-.31v-1.79Zm12.75-2.82c0,.64-.14,1.11-.41,1.39-.28,.29-.69,.43-1.24,.43h-8.48c-.55,0-.96-.14-1.24-.43-.28-.29-.41-.75-.41-1.39v-3.62c0-.15,.03-.25,.09-.31,.06-.05,.16-.08,.31-.08h10.99c.14,0,.25,.03,.31,.08,.06,.05,.09,.15,.09,.31v3.62Zm.32,9.9c.02,.15,0,.26-.07,.31-.07,.06-.18,.09-.34,.12-1.46,.14-2.93,.22-4.4,.25s-2.97,.02-4.49-.01c-.98-.02-1.68-.29-2.11-.8-.42-.52-.64-1.35-.64-2.51v-1.2c0-.15,.03-.25,.09-.31,.06-.05,.16-.08,.31-.08h2.15c.14,0,.25,.03,.31,.08,.06,.05,.09,.15,.09,.31v.9c0,.37,.08,.63,.23,.8,.15,.16,.43,.25,.84,.26,1.25,.02,2.48,.02,3.69-.01,1.22-.03,2.46-.1,3.72-.21,.14-.02,.25,0,.32,.05s.12,.16,.14,.34l.15,1.73Zm-3.56-10.41c.17,0,.29-.03,.35-.1s.09-.2,.09-.39v-.75h-6.21v.75c0,.19,.03,.32,.09,.39s.18,.1,.35,.1h5.32Z"/><path d="M269.05,198.16c0-.15,.03-.25,.09-.31,.06-.05,.16-.08,.31-.08h5.29c.39,0,.72,.05,1,.14,.28,.09,.5,.24,.68,.45,.18,.21,.31,.48,.38,.81,.08,.33,.11,.74,.1,1.22-.01,.69-.06,1.48-.16,2.36-.1,.88-.22,1.8-.38,2.76-.15,.96-.33,1.93-.53,2.92-.2,.99-.41,1.93-.62,2.83-.04,.15-.08,.26-.12,.33-.04,.07-.13,.08-.28,.05l-2.13-.44c-.07,0-.14-.02-.19-.04-.06-.02-.1-.04-.15-.08-.04-.04-.06-.09-.07-.16,0-.07,0-.16,.04-.28,.21-.78,.42-1.6,.61-2.46,.19-.86,.37-1.71,.51-2.54,.15-.83,.27-1.63,.36-2.38,.09-.76,.14-1.42,.14-1.99,0-.39-.06-.64-.17-.75-.11-.11-.3-.17-.57-.17h-3.75c-.14,0-.25-.03-.31-.08-.06-.05-.09-.15-.09-.31v-1.79Zm14.61,6.99c0,.15-.03,.26-.09,.31-.06,.05-.16,.08-.31,.08h-1.41v6.12c0,.15-.03,.26-.09,.31s-.16,.08-.31,.08h-2.15c-.14,0-.25-.03-.31-.08s-.09-.15-.09-.31v-13.49c0-.15,.03-.25,.09-.31,.06-.05,.16-.08,.31-.08h2.15c.14,0,.25,.03,.31,.08,.06,.05,.09,.15,.09,.31v4.83h1.41c.14,0,.25,.03,.31,.08,.06,.05,.09,.15,.09,.31v1.78Z"/></g><g><path d="M121.18,182.52c0-.15,.03-.25,.09-.31,.06-.05,.16-.08,.31-.08h8.4c-.01-.24-.06-.4-.16-.49-.1-.09-.23-.14-.41-.14h-7.66c-.14,0-.25-.03-.31-.08s-.09-.15-.09-.31v-1.36c0-.15,.03-.25,.09-.31,.06-.05,.16-.08,.31-.08h9.49c.55,0,.97,.14,1.24,.43,.28,.29,.41,.75,.41,1.39,0,.49,0,1.06-.02,1.69-.01,.64-.04,1.31-.08,2.02h.81c.14,0,.25,.03,.31,.08s.09,.15,.09,.31v1.35c0,.15-.03,.26-.09,.31s-.16,.08-.31,.08h-5v.66h4.02c.14,0,.25,.03,.31,.08,.06,.05,.09,.15,.09,.31v3.05c0,.15-.03,.25-.09,.31-.06,.05-.16,.08-.31,.08h-8.75v.25c0,.16,.06,.26,.18,.3,.12,.04,.31,.05,.57,.05,.86,0,1.65,0,2.38-.02,.72,0,1.41-.03,2.06-.05,.65-.02,1.27-.05,1.87-.08s1.2-.07,1.8-.12c.14,0,.23,0,.26,.05s.06,.12,.08,.24l.14,1.16c.02,.12,0,.2-.08,.23-.07,.03-.18,.06-.32,.08-.71,.07-1.39,.13-2.05,.17-.67,.04-1.34,.07-2.04,.1-.69,.03-1.43,.04-2.2,.05-.77,0-1.62,.02-2.55,.02-.47,0-.88-.04-1.23-.12-.35-.08-.63-.21-.86-.4-.23-.18-.39-.42-.5-.72-.11-.3-.16-.66-.16-1.1v-1.39c0-.14,.03-.24,.09-.29s.16-.08,.31-.08h8.75v-.46h-8.75c-.27,0-.4-.15-.4-.45v-.86c0-.15,.03-.26,.09-.31,.06-.05,.16-.08,.31-.08h4.05v-.66h-5c-.14,0-.25-.03-.31-.08s-.09-.15-.09-.31v-1.35c0-.15,.03-.26,.09-.31s.16-.08,.31-.08h9.23c0-.11,.02-.22,.02-.32,0-.1,0-.21,0-.32h-8.34c-.14,0-.25-.03-.31-.08-.06-.05-.09-.15-.09-.31v-1.36Z"/><path d="M138.1,189.27c0,.37,.08,.64,.23,.81s.43,.25,.84,.25c.76-.02,1.49-.05,2.21-.08,.72-.04,1.46-.09,2.23-.16,.14-.02,.24,0,.29,.05,.05,.06,.09,.16,.11,.31l.15,1.78c.02,.15,0,.25-.08,.29s-.18,.07-.32,.09c-1.01,.08-2,.15-2.96,.19-.96,.05-1.93,.07-2.91,.07s-1.68-.26-2.11-.79c-.42-.53-.64-1.37-.64-2.52v-4.41c0-.15,.03-.25,.09-.31,.06-.05,.16-.08,.31-.08h4.64c.14,0,.25-.03,.31-.08,.06-.05,.09-.15,.09-.31v-1.59c0-.39-.07-.64-.2-.75-.13-.11-.33-.17-.6-.17h-4.25c-.14,0-.25-.03-.31-.08s-.09-.15-.09-.31v-1.72c0-.15,.03-.25,.09-.31,.06-.05,.16-.08,.31-.08h5.84c.39,0,.72,.05,1,.14,.28,.09,.5,.24,.67,.45,.17,.21,.29,.48,.37,.81,.08,.33,.12,.74,.12,1.22v4.86c0,.15-.03,.25-.09,.31-.06,.05-.16,.08-.31,.08h-4.64c-.14,0-.25,.03-.31,.08-.06,.05-.09,.15-.09,.31v1.64Zm7.51,4.37c-.14,0-.25-.03-.31-.08-.06-.05-.09-.15-.09-.31v-13.49c0-.15,.03-.25,.09-.31,.06-.05,.16-.08,.31-.08h2.15c.14,0,.25,.03,.31,.08,.06,.05,.09,.15,.09,.31v13.49c0,.15-.03,.26-.09,.31-.06,.05-.16,.08-.31,.08h-2.15Z"/><path d="M153.44,179.77c-.03,.65-.05,1.25-.05,1.8s0,1.15,.03,1.8c.01,.37,.09,.64,.24,.81,.15,.17,.43,.26,.83,.25,.6-.02,1.29-.05,2.06-.09s1.54-.1,2.31-.17c.14-.02,.24,0,.29,.05,.05,.06,.09,.16,.11,.31l.15,1.79c.02,.15,0,.25-.08,.29s-.18,.07-.32,.09c-1.01,.08-2.02,.14-3.04,.18s-1.93,.06-2.76,.06c-.98,0-1.68-.26-2.11-.79s-.64-1.37-.64-2.52c0-.7,0-1.34,0-1.94,0-.6,.02-1.24,.05-1.94,0-.15,.04-.25,.1-.31,.06-.05,.16-.08,.3-.08h2.1c.14,0,.25,.03,.31,.08,.07,.05,.09,.15,.08,.31Zm-2.05,8.58c0-.15,.03-.25,.09-.31,.06-.05,.16-.08,.31-.08h11.3c.14,0,.25,.03,.31,.08,.06,.05,.09,.15,.09,.31v5.21c0,.15-.03,.26-.09,.31-.06,.05-.16,.08-.31,.08h-2.15c-.14,0-.25-.03-.31-.08-.06-.05-.09-.15-.09-.31v-3.05h-8.75c-.14,0-.25-.03-.31-.08-.06-.05-.09-.15-.09-.31v-1.78Zm9.55-1.09c-.14,0-.25-.03-.31-.08-.06-.05-.09-.15-.09-.31v-7.11c0-.15,.03-.25,.09-.31,.06-.05,.16-.08,.31-.08h2.15c.14,0,.25,.03,.31,.08,.06,.05,.09,.15,.09,.31v7.11c0,.15-.03,.26-.09,.31-.06,.05-.16,.08-.31,.08h-2.15Z"/><path d="M125.59,197.77c.14,0,.25,.03,.31,.08,.06,.05,.09,.15,.09,.31v7.74c0,.3,.04,.58,.11,.87s.2,.54,.4,.78,.46,.46,.78,.64c.33,.19,.75,.33,1.26,.44,.04,.01,.09,.02,.15,.03,.06,0,.11,.03,.16,.07,.05,.04,.09,.09,.13,.15,.04,.07,.05,.16,.05,.28v1.7c0,.18-.05,.29-.15,.33-.1,.04-.18,.05-.25,.04-.36-.03-.72-.08-1.1-.16-.37-.08-.74-.18-1.1-.32-.36-.14-.7-.31-1.03-.53-.33-.21-.62-.47-.87-.77-.27,.3-.56,.55-.88,.77-.32,.21-.66,.39-1.02,.53s-.72,.25-1.1,.32c-.37,.08-.74,.13-1.1,.16-.07,0-.16,0-.25-.04-.1-.04-.15-.15-.15-.33v-1.7c0-.12,.02-.22,.05-.28,.04-.07,.08-.12,.13-.15,.05-.04,.11-.06,.16-.07,.06,0,.1-.02,.15-.03,.51-.1,.93-.25,1.26-.44,.33-.19,.59-.4,.78-.64,.19-.24,.33-.5,.4-.78,.07-.28,.11-.57,.11-.87v-7.74c0-.15,.03-.25,.09-.31,.06-.05,.16-.08,.31-.08h2.11Zm2.28,4.98c0-.15,.03-.26,.09-.31,.06-.05,.16-.08,.31-.08h2.38v-4.21c0-.15,.03-.25,.09-.31,.06-.05,.16-.08,.31-.08h2.15c.14,0,.25,.03,.31,.08,.06,.05,.09,.15,.09,.31v13.49c0,.15-.03,.26-.09,.31-.06,.05-.16,.08-.31,.08h-2.15c-.14,0-.25-.03-.31-.08-.06-.05-.09-.15-.09-.31v-6.73h-2.38c-.14,0-.25-.03-.31-.08s-.09-.15-.09-.31v-1.78Z"/><path d="M138.73,202.17h2.77v-4.02c0-.15,.03-.25,.09-.31,.06-.05,.16-.08,.31-.08h2.01c.14,0,.25,.03,.31,.08,.06,.05,.09,.15,.09,.31v11.28c0,.64-.14,1.11-.41,1.39-.28,.29-.69,.43-1.24,.43h-5.07c-.55,0-.97-.14-1.24-.43-.28-.29-.41-.75-.41-1.39v-11.28c0-.15,.03-.25,.09-.31,.06-.05,.16-.08,.31-.08h2.01c.14,0,.25,.03,.31,.08,.06,.05,.09,.15,.09,.31v4.02Zm2.77,2.54h-2.77v3.65c0,.19,.03,.32,.09,.39s.18,.1,.35,.1h1.89c.17,0,.29-.03,.35-.1,.06-.07,.09-.2,.09-.39v-3.65Zm4.87,7.31c-.14,0-.25-.03-.31-.08-.06-.05-.09-.15-.09-.31v-13.49c0-.15,.03-.25,.09-.31,.06-.05,.16-.08,.31-.08h2.15c.14,0,.25,.03,.31,.08,.06,.05,.09,.15,.09,.31v13.49c0,.15-.03,.26-.09,.31-.06,.05-.16,.08-.31,.08h-2.15Z"/><path d="M150.91,209.7c0-.15,.03-.25,.09-.31,.06-.05,.16-.08,.31-.08h12.94c.14,0,.25,.03,.31,.08,.06,.05,.09,.15,.09,.31v1.79c0,.15-.03,.26-.09,.31s-.16,.08-.31,.08h-12.94c-.14,0-.25-.03-.31-.08s-.09-.15-.09-.31v-1.79Zm1.44-2.41h-.15c-.06,0-.11-.02-.17-.05-.06-.03-.1-.08-.14-.14s-.05-.15-.05-.26v-1.79c0-.19,.02-.32,.06-.37s.13-.09,.28-.11c.67-.07,1.27-.21,1.79-.41,.52-.2,.95-.46,1.29-.76,.35-.3,.61-.64,.78-1.03s.26-.79,.26-1.22v-3c0-.15,.03-.25,.09-.31,.06-.05,.16-.08,.31-.08h2.15c.14,0,.25,.03,.31,.08,.06,.05,.09,.15,.09,.31v3c0,.43,.09,.84,.26,1.22s.43,.73,.78,1.03c.35,.3,.78,.55,1.29,.76,.52,.21,1.11,.34,1.79,.41,.14,.02,.24,.06,.28,.11,.04,.05,.06,.17,.06,.37v1.79c0,.11-.02,.2-.05,.26-.04,.06-.08,.11-.14,.14-.06,.03-.11,.05-.17,.05h-.15c-.64-.06-1.25-.17-1.82-.33s-1.09-.35-1.56-.57-.87-.46-1.22-.74c-.35-.27-.62-.54-.83-.82-.21,.28-.48,.55-.83,.82-.35,.27-.76,.52-1.23,.74-.47,.22-.99,.41-1.56,.57-.57,.16-1.17,.27-1.82,.33Z"/></g></g></g></svg>