<?xml version="1.0" encoding="UTF-8"?><svg xmlns="http://www.w3.org/2000/svg" xmlns:xlink="http://www.w3.org/1999/xlink" viewBox="0 0 400 356"><defs><style>.d{fill:#fff;}.e{fill:#606e8c;}.f{fill:#557cbd;}.g{clip-path:url(#b);}.h{fill:#fbfbfb;}.i{fill:none;}.j{fill:#093974;}</style><clipPath id="b"><rect class="i" x="-8.1" y="-7.21" width="416.21" height="370.43"/></clipPath></defs><g id="a"><rect class="d" x="-8.1" y="-7.21" width="416.21" height="370.43"/><g><rect class="d" x="-8.1" y="-7.21" width="416.21" height="370.43"/><g class="g"><g><g><path class="h" d="M294.71,121.73c-5.88,4.18-12.16,5.87-18.01,8.41-10.48,4.55-21.04,8.91-31.57,13.32-.96,.4-2.23,1.63-2.99,.12-.65-1.3,.63-2,1.76-2.47,15.42-6.45,30.84-12.91,46.26-19.38,1.23-.51,2.41-1.11,4.55,0Z"/><path class="h" d="M109.19,199.64c16.2-8.98,33.56-15.33,50.85-21.84-16.29,8.79-33.44,15.62-50.85,21.84Z"/><path class="h" d="M296.23,196.66c-7.6-1.73-14.02-4.8-20.67-7.19-9.85-3.55-19.62-7.31-29.39-11.08-1.21-.47-3.72-.52-2.98-2.46,.77-2.01,2.56-.27,3.81,.19,14.95,5.54,29.9,11.12,44.82,16.73,1.6,.6,3.65,.73,4.4,3.82Z"/><path class="h" d="M158.48,145.2c-5.13-1.73-9.49-3.07-13.75-4.67-11.18-4.2-22.32-8.5-33.45-12.81-1.29-.5-3.67-.66-3.11-2.46,.64-2.04,2.62-.45,3.76-.03,14.17,5.19,28.29,10.49,42.41,15.81,1.46,.55,3.28,.77,4.13,4.15Z"/><path class="h" d="M235.48,66.55l-16.89,49.01-2.38-.82c5.67-16.3,11.33-32.61,17-48.91l2.28,.73Z"/><path class="h" d="M161.69,68.99c7.14,15.81,14.28,31.62,21.42,47.43l-1.91,.87c-7.6-15.62-14.81-31.42-21.56-47.43l2.04-.87Z"/><path class="h" d="M285.71,164.61c-7.44,0-13.99,.47-20.44-.14-5.79-.55-11.56-.54-17.33-.81-.99-.05-2.13-.12-2.46-1.26-.33-1.14,.67-1.42,1.48-1.4,12.52,.31,25.07,.27,37.51,2.15,.12,.02,.22,.24,1.25,1.46Z"/><path class="h" d="M119.14,156.53c4.05-1.12,7.89-.82,11.56-.42,7.63,.84,15.27,.68,22.9,.87,1.06,.03,2.66-.17,2.47,1.58-.13,1.26-1.48,1.16-2.43,1.13-10.79-.35-21.58-.72-32.37-1.12-.87-.03-1.57-.48-2.14-2.03Z"/><path class="h" d="M201.86,114.9c-.31-.37-.87-.72-.88-1.08-.1-10.49-.15-20.98-.17-31.47,0-.81,.07-1.79,1.09-2,1.09-.23,1.52,.64,1.51,1.48-.22,10.79,1.06,21.62-.78,32.37-.04,.24-.44,.41-.76,.7Z"/><path class="h" d="M231.21,123.02c-1.13-1.55-.04-2.68,.87-3.85,5.8-7.43,11.56-14.88,17.43-22.25,.78-.98,1.63-3.24,3.31-1.75,1.31,1.16-.54,2.29-1.28,3.24-6.19,7.96-12.41,15.88-18.63,23.82-.41,.52-.81,1.07-1.7,.79Z"/><path class="h" d="M163.08,127.97c-4.66-1.75-7.42-5.12-10.68-7.78-5.25-4.29-10.46-8.64-15.63-13.02-.78-.66-2.29-1.43-1.24-2.75,.81-1.02,1.83-.08,2.56,.54,8.31,7.07,16.6,14.16,24.87,21.28,.17,.14,.06,.61,.12,1.74Z"/><path class="h" d="M260.78,210.33c-9.63-6.63-18.81-13.79-26.68-22.52,9.91,6.29,18.65,13.98,26.68,22.52Z"/><path class="h" d="M151.79,222.7c7.03-9.03,14.07-18.06,21.1-27.08l1.58,1.26c-6.36,9.57-13.86,18.27-20.97,27.25-.57-.48-1.14-.95-1.71-1.43Z"/></g><g><path class="i" d="M183.75,209.85c-.23-.01-.33,.11-.39,.27,.05-.16,.15-.28,.39-.27,.02-.49,.15-.86,.65-.99-.5,.13-.63,.5-.65,.99Z"/><path class="i" d="M236.7,330.29h0c-20.21-4.84-39.78-11.63-59.14-19.07,19.36,7.44,38.93,14.23,59.14,19.07Z"/><path class="i" d="M223.09,213.82c-.17-.54-.42-1-.79-1.33,.38,.34,.62,.8,.79,1.33Z"/><path class="i" d="M223.47,210.71s-.1-.1-.15-.15l.13-.16c-.04,.05-.09,.11-.13,.16,.05,.05,.1,.1,.15,.15Z"/><path class="i" d="M227.25,134.07c1.22,1.31,2.21,2.69,3.01,4.13-.8-1.44-1.8-2.82-3.01-4.13h0Z"/><path class="i" d="M228.78,131.78c-.2,.11-.47,.14-.71,.19h0c.24-.06,.51-.08,.71-.19Z"/><path class="i" d="M183.78,209.87c.26-.23,.52-.46,.85-.75-.32,.29-.59,.52-.85,.75-.11,.18-.23,.36-.34,.54,.11-.18,.23-.36,.34-.54h0Z"/><path class="i" d="M173.03,148.41h0c-1.29,3.67-.53,7.22,.25,10.77-.79-3.55-1.55-7.1-.26-10.77,.09-.85-.79-1.28-1.03-1.98,.25,.7,1.13,1.13,1.04,1.97Z"/><path class="i" d="M256.9,287.37c.19-.09,.37-.18,.55-.27,1.14-.63,2.28-1.27,3.38-1.96-1.1,.69-2.24,1.33-3.38,1.96-.18,.1-.37,.19-.55,.27Z"/><path class="i" d="M182.46,163.53l-.51,.21c.17-.07,.34-.14,.51-.21h0Z"/><path class="i" d="M221.24,162.93c1.03,.11,2.05,.22,3.08,.32-1.03-.1-2.05-.21-3.08-.32,.64,1.8,2,2.54,3.82,2.6,1.79-.11,2.74-.17,3.35-.59-.61,.42-1.57,.48-3.35,.59-1.82-.06-3.18-.8-3.82-2.6Z"/><path class="f" d="M209.7,336.65c-.01-1.28,.24-1.71,1.65-1.79,9.55-.52,19.02-1.75,28.46-3.3,3.14-.51,6.05,.74,9.11,.86,1.59,.06,3.6-.14,4.62,.72,1.05,.88-.03,2.88-.1,4.39-.44,10.52-.04,21.04-.1,31.56,0,.22-.02,.44,0,.66,.02,.19,0,.4,.01,.6h-43.65c0-4.59,.02-9.17,.03-13.76,0-6.65,.03-13.3-.03-19.95Z"/><path class="f" d="M146.97,369.47c.68-10.22,.64-20.45,.41-30.69-.06-2.69-.33-5.37-.51-8.25,5.81,1.48,11.5,2.57,17.27,3.31,4.36,.56,8.73,.89,13.1,.99,1.97,.05,2.19,.72,2.15,2.41-.26,11.04-.44,22.08-.6,33.11h-31.73c-.05-.32-.1-.64-.08-.89Z"/><path d="M225,215.15h0Z"/><path d="M225.02,215.13h0l-.02-.02h0l.02,.02v.04h0v-.04Z"/><path d="M145.71,369.5c-.01,.24-.07,.55-.13,.86h1.47c-.05-.32-.1-.64-.08-.89,.68-10.22,.64-20.45,.41-30.69-.06-2.69-.33-5.37-.51-8.25,5.81,1.48,11.5,2.57,17.27,3.31,4.36,.56,8.73,.89,13.1,.99,1.97,.05,2.19,.72,2.15,2.41-.26,11.04-.44,22.08-.6,33.11h1.3c.22-11.3,.46-22.6,.63-33.89,.02-1.33,.51-1.56,1.67-1.5,3.21,.15,6.43,.25,9.64,.29,1.06,.01,1.35,.38,1.34,1.41-.14,11.23-.24,22.47-.35,33.7h1.54c.07-11.3,.14-22.61,.17-33.91,0-1.04,.49-1.17,1.34-1.19,3.57-.06,7.15-.12,10.72-.3,1.27-.07,1.59,.31,1.58,1.55-.07,11.28-.08,22.57-.11,33.85h1.44c0-4.59,.02-9.17,.03-13.76,0-6.65,.03-13.3-.03-19.95-.01-1.28,.24-1.71,1.65-1.79,9.55-.52,19.02-1.75,28.46-3.3,3.14-.51,6.05,.74,9.11,.86,1.59,.06,3.6-.14,4.62,.72,1.05,.88-.03,2.88-.1,4.39-.44,10.52-.04,21.04-.1,31.56,0,.22-.02,.44,0,.66,.02,.19,0,.4,.01,.6h1.25c.03-.18,.02-.38,.02-.55,.02-2.56,0-5.11-.03-7.67-.11-8.84-.2-17.68,.32-26.52,.11-1.93,.46-2.93,2.85-2.95,5.34-.05,8.65-3.25,10.79-7.91,2.65-5.74,3.5-11.89,3.81-18.08,.8-15.9,1.41-31.82,2.1-47.72,.23-5.19,.16-10.37-.84-15.49-1.89-9.67-8.23-15.43-16.89-19.17-7.23-3.12-14.84-5.16-22.18-7.97-1.5-.57-3-1.14-4.51-1.67-2.3-.81-4.3-1.72-5.12-4.47-.61-2.05-2.59-3.16-4.74-3.39-1.36-.14-1.72-.77-1.74-1.98-.01-1.02-.25-2.04-.26-3.05,0-3.34,0-6.52,2.28-9.49,2.11-2.76,3.03-6.27,3.82-9.69,.26-1.13,.77-1.75,1.99-2.22,5.53-2.11,7.57-8.88,4.16-13.65-.59-.83-.18-1.39,0-1.99,1.25-3.98,2.06-8.05,2.41-12.2,.11-1.29,.15-2.56,.11-3.81-.01-.42-.03-.83-.06-1.24-.03-.39-.07-.77-.11-1.16,0-.05-.01-.1-.02-.15-.05-.4-.11-.79-.18-1.19-.14-.78-.31-1.56-.52-2.32-.11-.38-.23-.76-.35-1.13-.02-.05-.03-.09-.05-.14-.06-.18-.13-.36-.2-.53-.12-.3-.24-.6-.37-.9-.26-.59-.55-1.18-.87-1.76-.8-1.44-1.8-2.82-3.01-4.13-.52,0-1.06-.78-1.56-.04-.47,.7,.2,1.06,.59,1.43,3.11,2.97,4.56,6.68,5.08,10.87,.64,5.18-.22,10.18-1.49,15.16-.21,.83-.38,1.48-.55,1.99-.03,.09-.06,.18-.09,.26-.04,.09-.07,.18-.11,.26-.02,.04-.03,.07-.05,.11-.08,.16-.16,.31-.26,.43-.05,.06-.1,.12-.15,.18l-.02,.02h0c-.07,.08-.14,.14-.22,.19-.61,.42-1.57,.48-3.35,.59-.52,1.31,.13,1.57,1.25,1.36,1.6-.3,2.88,.18,3.81,1.51,2.38,3.39-.68,10.02-4.92,10.53,.09-.36,.23-.7,.24-1.05,.01-.59,.45-1.5-.53-1.59-.69-.06-.7,.75-.83,1.32-.41,1.85-.88,3.68-1.3,5.52-2.08,9.02-7.52,15.09-16.13,18.38-1.99,.76-4.06,1.45-6.17,.72-8.17-2.79-14.62-7.53-17.5-16.07-.79-2.34-1.22-4.79-1.99-7.14-.3-.93,.24-2.75-1.2-2.6-1.19,.13,.05,1.76-.51,2.81-2.88-1.26-4.6-3.42-5.24-6.46-.81-3.81,.83-5.86,4.7-5.82,.39,0,.68-.04,.87-.12,.05-.02,.1-.05,.13-.08,.08-.06,.12-.14,.15-.23,.06-.23-.04-.56-.26-.98-1.13,.13-2-.02-2.66-.46-.15-.1-.3-.21-.43-.35-.54-.55-.9-1.37-1.11-2.49-.84-4.34-2.28-8.57-1.3-13.08,.02-.11,.04-.22,.05-.32,0-.05,0-.1,.01-.15,.03-.62-.26-.94-1.15-.3-1.29,3.67-.53,7.22,.25,10.77,.05,.24,.1,.47,.16,.71,.12,.54,.24,1.08,.34,1.62,.17,.85,.39,1.72,.75,2.51,.58,1.29,.32,2.12-.66,3.24-3.04,3.48-.93,10.55,3.9,12.72,1.83,.82,2.54,1.9,3,3.7,1.01,3.89,2.41,7.66,5.16,10.73,.49,.54,.53,1.16,.59,1.82,.26,3-.03,5.99-.21,8.98-.04,.69-.19,1.3-.98,1.52-2.31,.64-3.34,2.53-4.13,4.5-.45,1.12-1.11,1.74-2.17,2.21-7.66,3.43-15.66,5.91-23.57,8.65-4,1.38-7.9,2.96-11.64,4.96-7.94,4.22-12.44,10.96-13.12,19.71-1.56,20.11-2.34,40.27-.48,60.41,.39,4.21,1.38,8.32,2.92,12.3,1.97,5.09,5.3,8.69,10.66,10.09,1.36,.35,1.66,1.01,1.76,2.27,1,12.56,.65,25.12,.12,37.69Zm39.27-160.69c-.12,.11-.24,.21-.35,.31-.32,.29-.59,.52-.85,.75-.11,.18-.23,.36-.34,.54-2.12,5.74-2.41,11.79-2.97,17.79-.34-3.63,0-7.22,.57-10.79,.18-1.09,.31-2.19,.56-3.26,.07-.31,.15-.61,.24-.91,.04-.15,.09-.3,.14-.45,.3-.89,.73-1.73,1.35-2.51,.01-.06,.03-.12,.04-.17,.05-.16,.15-.28,.39-.27,.02-.49,.15-.86,.65-.99,.07-.02,.15-.03,.24-.04,.1,0,.21-.01,.33,0Zm-4.66,79.7c.13,.51-.23,1.12-.79,1.03-.73-.11-1.65-.24-1.82-1.2-.08-.48,.17-.97,.8-1.14,.61,.42,1.59,.42,1.82,1.31Zm-.5-5.18v2.74q-2.14-.78,0-2.74Zm-3.13-1.07c-1.25-4.91-2.38-9.33-3.5-13.75-.81-3.16-2.03-6.23-1.59-9.63,.4-3.04,.59-6.1,.85-9.16,.2-2.3,.67-4.58,2.41-6.16,1.52-1.38,3.12-2.66,4.16-4.45,.93-1.59,1.57-.89,2.3,.13,.45,.62,.23,1.27,.19,1.91-.7,10.35-.99,20.72-1.36,31.09-.12,3.4-1.38,6.65-3.48,10.03Zm17.15,7.27c-.02,.84,.4,2.11-1.15,1.83-3.47-.44-6.79-.86-10.12-1.28-.36-.05-.8-.01-.85-.48-.37-3.52-1.08-7.1-.07-10.57,2.18-7.49,3.56-15.15,5.11-22.78,1.14-5.59,2.09-11.16,1.03-16.86-.33-1.78-1.46-3.65-1.12-5.25,.65-3.03,2.05-5.92,4.18-8.31,.59-.66,1.41-1.08,2.36-.72,.89,.34,1.36,1.01,1.5,1.98,.42,2.95,.91,5.9,1.33,8.85,.26,1.79,1.05,3.61,.64,5.37-1.66,7.08-1.92,14.31-2.21,21.51-.36,8.9-.41,17.81-.62,26.71Zm36.92-44.1c.02-.45-.36-1.13,.32-1.28,.53-.12,1.25-.09,1.67,.19,.5,.33,.03,.89-.18,1.34-.42,.9-.83,1.81-1.24,2.72l-.58-.05c0-.97-.02-1.94,.01-2.91Zm2.18,26c.02,.61-.11,1.46-.54,2.26-.69,1.28-1.56,2.39-3.17,2.27-1.72-.13-2.71-1.27-3.21-2.85-.15-.48-.27-.99-.31-1.5-.19-2.37,1.64-4.92,3.59-5.03,2.02-.11,3.65,1.93,3.65,4.84Zm-1.23-8.18c2.99,1.37,4.92,4.98,4.56,8.48-.41,4.07-2.8,7.47-5.9,8.2-1.5,.35-3.04,.32-4.46-.52-3.1-1.83-4.33-4.74-4.28-8.11,.05-3.45,1.41-6.41,4.61-8.17,.61-.34,1.56-1.17,2.09-.22,.45,.82,.4,1.85-.77,2.59-3.42,2.15-4.36,6.07-2.43,9.48,1.72,3.05,5.69,3.38,7.89,.66,2.27-2.79,2.15-6.86-.46-9.35-.99-.95-1.24-1.83-.85-3.05Zm-4.86-2.05c.46-.95,.82-1.68,1.18-2.42,.25,1.06,1.03,2.41-1.18,2.42Zm-6.16,7.28c-.26,4.23-2.28,7.77-3.96,11.46-2.01,4.4-4.06,8.79-6.1,13.19l-.58-.17c.94-20.06,3.7-39.9,6.82-60.2,.83,1.34,1.33,2.3,1.96,3.16,1.37,1.87,2.37,4.43,4.56,5.18,3.97,1.36,4.6,4.16,4.43,7.68-.04,.87,.13,1.75,.2,2.62,.4,4.81-1.46,8.74-4.7,12.15-1.34,1.4-2.52,3.05-2.63,4.94Zm6.39-27.09c-.68,.03-1.47-.17-1.45-.8,.02-.6,.59-1.23,1.44-1.29,.2,.71,.2,1.39,.02,2.09Zm-18.35,50.07c-.07,1.1-.26,1.54-1.52,1.38-3.48-.43-6.97-.74-10.46-1-1.23-.09-1.58-.59-1.54-1.78,.14-5.04,.16-10.08,.27-15.12,.2-9.12,.39-18.24,1.45-27.33,.9-7.76,5.09-14.36,7.34-21.64,.83-2.7,2.38-2.76,4.14-.43,1.46,1.93,2.15,4.29,3.33,6.38,.44,.78,.46,2.24,1.52,2.11,.98-.12,1.56-1.29,1.76-2.4,.02-.09,.22-.14,.82-.5-.66,3.66-1.09,7-1.62,10.31-2.65,16.58-4.4,33.26-5.48,50.02Zm-25.34-53.84c.4,1.27,1.21,2.47,.59,4.14-.73-1.49-1.5-2.68-.59-4.14Zm-1.52,26.79c.23-6.89,.18-13.79,.96-21.02,2.75,7.46,.5,14.21-.96,21.02Zm-6.57-26.15c.43-2,1.36-3.63,2.8-5.01,.91-.87,1.88-.47,2.58,.05,.96,.72-.27,1.16-.52,1.71-.93,2.11-3.82,1.23-4.86,3.24Zm2.7,.16c-.75,.87-1.5,1.74-2.25,2.61,.16-1.39,.9-2.27,2.25-2.61Zm-3.25,45.75c-.78,.33-1.05-.59-1.44-1.04-.72-.83-1.1-1.85-1.35-2.92-.94-4.07-.84-8.2-.35-12.37,.28,1.1,.56,2.19,.84,3.29,.92,3.72,1.82,7.44,2.77,11.16,.2,.77,.35,1.55-.46,1.89Zm-6.33-50.51c-.66-.52-.6-.88-.06-1.53,3.66-4.41,7.26-8.88,11.09-13.58-.19,2.76-.44,5.22-.5,7.69-.04,1.51-.01,2.66-1.97,3.16-1.6,.41-2.67,1.94-3.52,3.43-.63,1.1-1.22,2.22-1.9,3.47-1.14-.96-2.12-1.82-3.14-2.63Zm14.78-1.69c.83,.83,1.46,1.8,1.94,2.89,1.93,4.35,1.78,8.96,1.68,13.56,0,.42-.02,.95-.65,.89-.6-.06-.6-.57-.54-1,.36-2.41,.09-4.82-.1-7.21-.21-2.63-.73-5.24-2.32-7.43-2.16-2.97-4.99-2.98-7.21-.13-1.51,1.95-2.19,4.24-2.84,6.57-.4,1.44-.17,3.04-1.35,4.28-.01-4.46,.87-8.69,3.82-12.21,2.29-2.74,5.03-2.75,7.56-.21Zm2.72-21.38c-1.58,6.36-2.44,12.63-3.64,18.87-.22-5.62,.14-11.19,1.69-16.61,.27-.94,.8-1.75,1.94-2.26Zm.75,3.49c1.48,3.36,3.52,6.31,5.7,9.34-4.04,1.21-4.63,5.13-6.51,8.01-2.66-6.03-.12-11.62,.8-17.36Zm31.58-3.2c-1.95,3.19-4.5,5.88-7.87,7.41-5.14,2.33-7.66,6.42-9.13,11.57-.79,2.77-1.77,5.51-3.41,8.51-.33-2.12-.66-3.75-.83-5.39-.46-4.48-1.44-8.61-4.65-12.17-2.9-3.21-4.95-7.22-5.1-11.63-.12-3.52,.83-7.06,.67-10.64-.02-.5-.34-1.17,.39-1.58,3.53,2.58,6.26,6.1,10,8.46,3.71,2.34,7.54,3.44,11.81,1.7,2.37-.97,4.48-2.39,6.92-4.26-.03,2.55,.24,4.56,1.52,6.26,.55,.74,0,1.23-.32,1.76Zm1.42,.43c-.75,7.59-2.69,14.13-6.53,20.26-.87-1.77-1.69-3.44-2.51-5.12-.85-1.74-1.95-3.25-4.28-4.13,5.24-2.93,10.09-5.61,13.32-11.02Zm3.92-.77c0,.05-.08,.11-.12,.16-.05-.05-.1-.1-.15-.15l.13-.16s.14,.1,.14,.15Zm3.17,24.55c.31,2.32-1.34,3.18-2.34,4.57-.38,.53-.76,.11-1.05-.19-2.47-2.53-4.22-5.56-5.91-8.63-.29-.53-.04-.97,.06-1.46,1.23-5.82,2.45-11.63,3.67-17.45,.46,.1,.83,.29,1.11,.54,.38,.34,.62,.8,.79,1.33,.04,.13,.08,.27,.12,.42,1.7,6.87,2.6,13.87,3.55,20.87Zm-2.75-23.71s-.03,.07-.06,.1c0,.01-.02,.02-.03,.04-.04-.04-.08-.08-.12-.12,.03-.05,.06-.1,.09-.14,.04,.04,.11,.08,.11,.12Zm.49,1.6c-.03,.21-.15,.22-.22,.05-.04-.12-.07-.26-.06-.38,0-.08,.09-.16,.18-.3,.04,.25,.11,.45,.09,.63Zm5.22,36.38c.12,2.3,.02,4.61,.02,6.92,.03-3.14-.59-6.23-.79-9.35-.41-6.61-1.03-13.2-2.03-19.75-.61-4.01-1.27-8-1.9-12,0,0-.02-.02-.02-.03v-.03c-.19-.14-.32-.29-.35-.47-.02-.09,0-.19,.04-.29,.04-.11,.12-.22,.23-.35,.03,.43,.05,.77,.07,1.11l.02,.02v.04c.53,.47,.55,1.16,.68,1.75,2.4,10.68,3.43,21.53,4.02,32.43Zm-1.92-31.01c2.41,3.07,3.91,6.52,5.37,9.99,1.75,4.15,1.72,4.17-2.26,5.93-.26,.12-.54,.2-1.16,.43-.32-5.63-1.63-10.92-1.95-16.35Zm-54.51,89.8c-1.26-.48-1.57-1.18-1.67-2.4-.38-4.44,.78-8.5,2.62-12.48,.96-2.07,2.25-2.64,4.5-2.35,9.55,1.25,19.11,2.46,28.71,3.27,7.49,.63,15,1.15,22.47,1.94,9.95,1.05,19.72,3.11,29.44,5.43,.54,.13,1.42,.79,1.72-.14,.36-1.13-.85-.99-1.41-1.14-2.19-.6-4.42-1.06-6.63-1.58-.1-.21-.21-.43-.31-.64,1.17-.99,2.37-1.94,3.49-2.97,1.46-1.35,3.15-2.35,4.77-3.47,1.01-.7,1.62-1.7,1.19-3.01-.45-1.39-1.59-1.28-2.71-1.18-.36,.03-.72,.09-1.09,.13-2.53,.97-4.87,2.26-6.97,3.99l-.69,.72c-.42-.47,.11-.7,.26-1.03,.46-.76,1.05-1.33,1.7-1.8,.3-.21,.62-.4,.94-.58,.77-.42,1.6-.75,2.41-1.1l.1-.04c.26-.11,.51-.23,.76-.35,.19-.09,.37-.18,.55-.27,1.14-.63,2.28-1.27,3.38-1.96,.46-.29,.92-.59,1.37-.91,.5-.36,1-.73,1.47-1.13,1.17-.98,1.67-2.17,1.38-3.68-.28-1.43-1.57-1.44-2.66-1.8,.67-1.15,1.36-2.31,.29-3.45-1.04-1.11-2.37-1.34-3.81-.73-1.73,.72-3.46,1.44-5.2,2.16-.15-3.22-1.66-4.19-4.27-2.78-.51,.27-.96,.66-1.4,1.04-1.75,1.46-3.48,2.93-5.48,4.62,0-6.2-.01-11.97,0-17.74,0-3.46,.64-6.8,2.09-9.97,.22-.48,.88-1.11,.09-1.49-.81-.39-1.06,.46-1.34,1.03-.85,1.79-1.45,3.66-1.74,5.62-.94,6.4-.29,12.85-.34,19.27-.03,3.11-.3,5.87-2.74,8.08-.58,.52-.9,1.32-1.37,1.97-1.85,2.55-2.04,5.74-3.31,8.51-.34,.74-.44,1.48-1.61,1.31-6.15-.88-12.36-1.08-18.54-1.57-1.29-.1-1.59-.43-.98-1.71,2.41-5.06,4.71-10.18,7.08-15.26,.22-.48,.21-1.17,.98-1.33,.31,.66,.57,1.33,.93,1.94,2.47,4.27,7.37,5.64,11.25,3.15,6.3-4.03,6.11-14.54-.36-18.35-.74-.44-1.18-.83-1.25-1.79-.36-4.7-.51-9.33,2.22-13.51,.28-.42,.41-.94,.67-1.38,.75-1.32,.75-2.05-1.12-2.24-.93-.09-2.39,.28-2.72-1.51-1-5.24-.81-5.64,4.32-7.19,.21-.06,.41-.17,.63-.19,1.2-.1,1.18-.69,.84-1.65-1.05-2.88-2.17-5.72-3.44-8.51-1.3-2.86-2.96-5.52-4.81-8.77,9.83,4.15,19.64,6.53,28.82,10.63,4.56,2.04,8.73,4.69,11.72,8.89,3.69,5.18,4.74,11.11,4.7,17.23-.11,18.71-1.28,37.39-2.23,56.07-.3,5.83-1.3,11.6-3.97,16.92-2.08,4.13-5.33,6.39-10.06,6.53-5.45,.16-10.78-.6-16.07-1.74-23.22-4.98-45.44-13.1-67.54-21.58Zm66.89-13.79c-.77,1.37-1.56,2-3.21,1.18,.43-.71,.79-1.25,1.1-1.82,3.78-6.8,7.68-13.45,15.56-16.42,1.96-.74,3.74-1.93,5.74-2.65,.87-.31,1.64-.24,2.2,.41,.68,.8-.19,1.31-.59,1.85-1.34,1.86-3.36,2.7-5.36,3.61-2.57,1.18-5.38,1.98-7.47,4.01-3.05,2.95-5.88,6.11-7.97,9.83Zm1.38,.27c3.78-5.56,7.89-10.67,14.64-12.89,2.06-.68,3.99-1.75,5.68-2.5,.94-.1,1.56-.16,1.82,.55,.34,.91-.19,1.58-.8,2.09-2.19,1.83-4.59,3.39-7.23,4.44-3.72,1.48-6.21,3.98-7.85,7.65-1.53,3.43-1.72,3.29-5.42,2.7-1.58-.26-1.69-.78-.84-2.03Zm-6.2,.78c-.17-.08-.34-.16-.52-.23,.41-1.21,.9-2.39,1.21-3.63,2-7.89,7.97-12.61,13.82-17.43,.22-.18,.5-.31,.77-.41,1.15-.4,1.7,.03,1.53,1.24-.17,1.2-.66,2.19-1.89,2.7-4.73,1.98-7.83,5.6-10.22,10.02-1.43,2.65-3.13,5.16-4.71,7.74Zm23.62-6.49c.58-.16,1.41-.61,1.79,.13,.44,.86-.41,1.31-1.01,1.67-2.6,1.54-4.98,3.39-6.84,5.75-1.31,1.66-2.65,2.01-4.74,1.1,2.83-4.05,6.03-7.33,10.8-8.65Zm-88.54,18.16c-4.58-2-8.78-3.78-12.92-5.68-1.22-.56-1.32-2.67-.2-3.19,4.63-2.14,9.49-3.44,14.9-3.83-1.75,4.07-2.34,8.11-1.78,12.69Zm-23.58,22.08c-7.37-1.84-11.7-6.22-13.58-13.49-1.54-5.98-2.37-12.03-2.52-18.16-.37-15.93-.07-31.85,.87-47.75,.62-10.57,5.47-18.34,15.34-22.83,7.72-3.5,15.91-5.64,23.77-8.71,3.08-1.2,6.17-2.37,9.78-3.76-3.68,5.23-7.34,9.76-11.09,14.2q-3.78,4.47,.67,8.23c.48,.41,1.16,.68,.96,1.54-.34,1.49-.3,3.22-1.08,4.41-.63,.96-2.32,.29-3.51,.23-1.38-.06-1.66,.37-1.25,1.63,.6,1.87,1.16,3.76,1.59,5.67,.74,3.31,2.35,6.44,1.92,10-.62,5.02-.53,10.07-.29,15.1,.18,3.79,.6,7.6,3.44,10.73-1.25-1-2.42-.08-3.6-.09-1.76,0-2.24,1.01-2.11,2.58,.13,1.62,1.09,1.92,2.54,2,2.11,.11,3.45-1.31,5.04-2.21,.81-.45,1.49-.32,1.92,.28,.64,.89-.5,.73-.8,1.08-.38,.44-.81,.89-1,1.41-.47,1.29-1.44,1.7-2.67,1.84-4.44,.49-8.78,1.39-12.87,3.22-1.37,.61-1.73,.42-1.69-1.1,.13-5.33,0-10.66,.3-16,.49-8.55,.1-17.09-.66-25.61-.04-.49,.24-1.38-.68-1.33-1.09,.06-.59,.92-.56,1.51,.21,4.3,.5,8.6,.63,12.91,.34,10.96-.63,21.91-.39,32.88,.04,1.76,.62,2.61,2.11,3.3,5.35,2.48,10.82,4.69,16.31,6.83,1.29,.5,2.58,1,3.87,1.5,19.36,7.44,38.93,14.23,59.14,19.07h0c-.14,.19-.27,.38-.46,.5-.06,.04-.13,.07-.22,.1-.05,.01-.1,.02-.15,.03-5.79,.71-11.56,1.64-17.37,2.1-12.98,1.03-25.97,1.08-38.99,.62-11.05-.39-21.91-1.79-32.65-4.47Zm22.12-39.92c-.53,0-1.29,.25-1.41-.73-.11-.94,.6-.98,1.25-1.08,.71-.1,1.29-.07,1.36,.86,.06,.86-.53,.88-1.2,.94Zm1.05-43.14c-.24,2.24-.53,4.48-.81,6.71l-.34,.03c-.6-2.21-1.22-4.41-1.8-6.63-.13-.51-.77-1.26-.13-1.51,.75-.29,1.71-.19,2.55-.04,.78,.13,.58,.92,.52,1.45Z"/><path d="M231.13,139.96c-.26-.59-.55-1.18-.87-1.76,.32,.58,.61,1.16,.87,1.76Z"/><path d="M232.62,144.98c-.14-.78-.31-1.56-.52-2.32,.21,.76,.39,1.53,.52,2.32Z"/><path class="e" d="M189.85,127.02h0c.23-.5,.56-.8,.96-.97-.4,.17-.72,.48-.96,.97Z"/><path class="e" d="M228.07,131.97h0c0,.81-.2,1.54-.82,2.11h0c.63-.56,.83-1.3,.82-2.11Z"/><path class="e" d="M174.18,148.71c.03-.62-.26-.94-1.15-.3h0c.89-.64,1.18-.32,1.15,.3Z"/><path class="e" d="M228.81,164.55c.09-.12,.18-.27,.26-.43-.08,.16-.16,.31-.26,.43Z"/><path class="e" d="M179.62,165.55h0c-1.13,.13-2-.02-2.66-.46,.66,.44,1.53,.58,2.66,.46Z"/><path d="M221.01,126.21c-2.85-2.17-5.97-3.92-9.36-5.09-5.69-1.96-11.05-2-15.33,3.08-1.03,1.22-1.37,.31-1.79-.5,4.4-4.89,9.8-6.26,16.05-4.48,4.18,1.19,7.9,3.32,11.37,5.88,2.52,1.86,5.21,3.17,8.41,3.21,.49,0,1.08-.12,1.11,.66,0,.09,0,.17-.02,.24-.04,.21-.16,.34-.31,.42-.15,.08-.33,.12-.52,.15-.13,.03-.27,.03-.4,.02-3.42-.29-6.47-1.5-9.22-3.6Z"/><path d="M229.09,131.36c-.04,.21-.16,.34-.31,.42,.15-.08,.27-.2,.31-.42Z"/><path d="M191.26,124.15c-.05,.99-.36,1.62-1.64,1.69-5.98,.34-9.27,3.94-11.71,8.72-2.19,4.29-2.79,9.05-4.76,13.4-.67,.15-1.29,1.21-1.99,.37-.53-.63,.33-1.16,.65-1.7,.76-1.3,1.18-2.72,1.52-4.15,.71-2.95,1.72-5.81,3.05-8.55,1.01-2.08,2.21-3.9,3.65-5.39,.26-.27,.53-.53,.81-.78s.57-.48,.86-.71c.3-.22,.6-.44,.91-.64,.29-.19,.59-.36,.9-.53,2.16-1.16,4.72-1.78,7.75-1.74Z"/><path class="f" d="M171.62,305.75c-.38-4.44,.78-8.5,2.62-12.48,.96-2.07,2.25-2.64,4.5-2.35,9.55,1.25,19.11,2.46,28.71,3.27,7.49,.63,15,1.15,22.47,1.94,9.95,1.05,19.72,3.11,29.44,5.43,.54,.13,1.42,.79,1.72-.14,.36-1.13-.85-.99-1.41-1.14-2.19-.6-4.42-1.06-6.63-1.58-.1-.21-.21-.43-.31-.64,1.17-.99,2.37-1.94,3.49-2.97,1.46-1.35,3.15-2.35,4.77-3.47,1.01-.7,1.62-1.7,1.19-3.01-.45-1.39-1.59-1.28-2.71-1.18-.36,.03-.72,.09-1.09,.13-.31-.16-.62-.31-.94-.47,1.14-.63,2.28-1.27,3.38-1.96,.46-.29,.92-.59,1.37-.91,.5-.36,1-.73,1.47-1.13,1.17-.98,1.67-2.17,1.38-3.68-.28-1.43-1.57-1.44-2.66-1.8,.67-1.15,1.36-2.31,.29-3.45-1.04-1.11-2.37-1.34-3.81-.73-1.73,.72-3.46,1.44-5.2,2.16-.15-3.22-1.66-4.19-4.27-2.78-.51,.27-.96,.66-1.4,1.04-1.75,1.46-3.48,2.93-5.48,4.62,0-6.2-.01-11.97,0-17.74,0-3.46,.64-6.8,2.09-9.97,.22-.48,.88-1.11,.09-1.49-.81-.39-1.06,.46-1.34,1.03-.85,1.79-1.45,3.66-1.74,5.62-.94,6.4-.29,12.85-.34,19.27-.03,3.11-.3,5.87-2.74,8.08-.58,.52-.9,1.32-1.37,1.97-1.85,2.55-2.04,5.74-3.31,8.51-.34,.74-.44,1.48-1.61,1.31-6.15-.88-12.36-1.08-18.54-1.57-1.29-.1-1.59-.43-.98-1.71,2.41-5.06,4.71-10.18,7.08-15.26,.22-.48,.21-1.17,.98-1.33,.31,.66,.57,1.33,.93,1.94,2.47,4.27,7.37,5.64,11.25,3.15,6.3-4.03,6.11-14.54-.36-18.35-.74-.44-1.18-.83-1.25-1.79-.36-4.7-.51-9.33,2.22-13.51,.28-.42,.41-.94,.67-1.38,.75-1.32,.75-2.05-1.12-2.24-.93-.09-2.39,.28-2.72-1.51-1-5.24-.81-5.64,4.32-7.19,.21-.06,.41-.17,.63-.19,1.2-.1,1.18-.69,.84-1.65-1.05-2.88-2.17-5.72-3.44-8.51-1.3-2.86-2.96-5.52-4.81-8.77,9.83,4.15,19.64,6.53,28.82,10.63,4.56,2.04,8.73,4.69,11.72,8.89,3.69,5.18,4.74,11.11,4.7,17.23-.11,18.71-1.28,37.39-2.23,56.07-.3,5.83-1.3,11.6-3.97,16.92-2.08,4.13-5.33,6.39-10.06,6.53-5.45,.16-10.78-.6-16.07-1.74-23.22-4.98-45.44-13.1-67.54-21.58-1.26-.48-1.57-1.18-1.67-2.4Z"/><path class="f" d="M262.2,284.22c-.45,.32-.91,.62-1.37,.91,.46-.29,.92-.59,1.37-.91Z"/><path class="f" d="M133.29,315.68c-1.54-5.98-2.37-12.03-2.52-18.16-.37-15.93-.07-31.85,.87-47.75,.62-10.57,5.47-18.34,15.34-22.83,7.72-3.5,15.91-5.64,23.77-8.71,3.08-1.2,6.17-2.37,9.78-3.76-3.68,5.23-7.34,9.76-11.09,14.2q-3.78,4.47,.67,8.23c.48,.41,1.16,.68,.96,1.54-.34,1.49-.3,3.22-1.08,4.41-.63,.96-2.32,.29-3.51,.23-1.38-.06-1.66,.37-1.25,1.63,.6,1.87,1.16,3.76,1.59,5.67,.74,3.31,2.35,6.44,1.92,10-.62,5.02-.53,10.07-.29,15.1,.18,3.79,.6,7.6,3.44,10.73-1.25-1-2.42-.08-3.6-.09-1.76,0-2.24,1.01-2.11,2.58,.13,1.62,1.09,1.92,2.54,2,2.11,.11,3.45-1.31,5.04-2.21,.81-.45,1.49-.32,1.92,.28,.64,.89-.5,.73-.8,1.08-.38,.44-.81,.89-1,1.41-.47,1.29-1.44,1.7-2.67,1.84-4.44,.49-8.78,1.39-12.87,3.22-1.37,.61-1.73,.42-1.69-1.1,.13-5.33,0-10.66,.3-16,.49-8.55,.1-17.09-.66-25.61-.04-.49,.24-1.38-.68-1.33-1.09,.06-.59,.92-.56,1.51,.21,4.3,.5,8.6,.63,12.91,.34,10.96-.63,21.91-.39,32.88,.04,1.76,.62,2.61,2.11,3.3,5.35,2.48,10.82,4.69,16.31,6.83,1.29,.5,2.58,1,3.87,1.5,19.36,7.44,38.93,14.23,59.14,19.07-.14,.19-.27,.37-.46,.5-.06,.04-.13,.07-.22,.1-.05,.01-.1,.02-.15,.03-5.79,.71-11.56,1.64-17.37,2.1-12.98,1.03-25.97,1.08-38.99,.62-11.05-.39-21.91-1.79-32.65-4.47-7.37-1.84-11.7-6.22-13.58-13.49Z"/><path class="f" d="M236.7,330.29h0c-.14,.19-.27,.37-.46,.5,.19-.12,.32-.31,.46-.5Z"/><path class="f" d="M236.02,330.88c.08-.02,.15-.06,.22-.1-.06,.04-.13,.07-.22,.1Z"/><path class="f" d="M216.72,279.93c-2.01,4.4-4.06,8.79-6.1,13.19l-.58-.17c.94-20.06,3.7-39.9,6.82-60.2,.83,1.34,1.33,2.3,1.96,3.16,1.37,1.87,2.37,4.43,4.56,5.18,3.97,1.36,4.6,4.16,4.43,7.68-.04,.87,.13,1.75,.2,2.62,.4,4.81-1.46,8.74-4.7,12.15-1.34,1.4-2.52,3.05-2.63,4.94-.26,4.23-2.28,7.77-3.96,11.46Z"/><path class="f" d="M173.18,268.5c-.81-3.16-2.03-6.23-1.59-9.63,.4-3.04,.59-6.1,.85-9.16,.2-2.3,.67-4.58,2.41-6.16,1.52-1.38,3.12-2.66,4.16-4.45,.93-1.59,1.57-.89,2.3,.13,.45,.62,.23,1.27,.19,1.91-.7,10.35-.99,20.72-1.36,31.09-.12,3.4-1.38,6.65-3.48,10.03-1.25-4.91-2.38-9.33-3.5-13.75Z"/><path class="f" d="M224.42,239.67c-.38,.53-.76,.11-1.05-.19-2.47-2.53-4.22-5.56-5.91-8.63-.29-.53-.04-.97,.06-1.46,1.23-5.82,2.45-11.63,3.68-17.45,.46,.1,.82,.29,1.11,.54,.38,.34,.62,.8,.79,1.33,.04,.13,.08,.27,.12,.42,1.7,6.87,2.6,13.87,3.55,20.87,.31,2.32-1.34,3.18-2.34,4.57Z"/><path class="f" d="M217.52,229.39c1.23-5.82,2.45-11.63,3.67-17.45,.46,.1,.83,.29,1.11,.54-.28-.25-.64-.44-1.11-.54-1.22,5.82-2.44,11.63-3.68,17.45Z"/><path class="e" d="M236.26,271.73c-.41,4.07-2.8,7.47-5.9,8.2-1.5,.35-3.04,.32-4.46-.52-3.1-1.83-4.33-4.74-4.28-8.11,.05-3.45,1.41-6.41,4.61-8.17,.61-.34,1.56-1.17,2.09-.22,.45,.82,.4,1.85-.77,2.59-3.42,2.15-4.36,6.07-2.43,9.48,1.72,3.05,5.69,3.38,7.89,.66,2.27-2.79,2.15-6.86-.46-9.35-.99-.95-1.24-1.83-.85-3.05,2.99,1.37,4.92,4.98,4.56,8.48Z"/><path class="f" d="M168.36,232.14c3.66-4.41,7.26-8.88,11.09-13.58-.19,2.76-.44,5.22-.5,7.69-.04,1.51-.01,2.66-1.97,3.16-1.6,.41-2.67,1.94-3.52,3.43-.63,1.1-1.22,2.22-1.9,3.47-1.14-.96-2.12-1.82-3.14-2.63-.66-.52-.6-.88-.06-1.53Z"/><path class="e" d="M232.93,271.43c.02,.61-.11,1.46-.54,2.26-.69,1.28-1.56,2.39-3.17,2.27-1.72-.13-2.71-1.27-3.21-2.85-.15-.48-.27-.99-.31-1.5-.19-2.37,1.64-4.92,3.59-5.03,2.02-.11,3.65,1.93,3.65,4.84Z"/><path class="f" d="M230.92,234.27c-.26,.12-.54,.2-1.16,.43-.32-5.63-1.63-10.92-1.95-16.35,2.41,3.07,3.91,6.52,5.37,9.99,1.75,4.15,1.72,4.17-2.26,5.93Z"/><path class="e" d="M185.14,234.87c1.93,4.35,1.78,8.96,1.68,13.56,0,.42-.02,.95-.65,.89-.6-.06-.6-.57-.54-1,.36-2.41,.09-4.82-.1-7.21-.21-2.63-.73-5.24-2.32-7.43-2.16-2.97-4.99-2.98-7.21-.13-1.51,1.95-2.19,4.24-2.84,6.57-.4,1.44-.17,3.04-1.35,4.28-.01-4.46,.87-8.69,3.82-12.21,2.29-2.74,5.03-2.75,7.56-.21,.83,.83,1.46,1.8,1.94,2.89Z"/><path class="f" d="M174.75,284.18c-.78,.33-1.05-.59-1.44-1.04-.72-.83-1.1-1.85-1.35-2.92-.94-4.07-.84-8.2-.35-12.37,.28,1.1,.56,2.19,.84,3.29,.92,3.72,1.82,7.44,2.77,11.16,.2,.77,.35,1.55-.46,1.89Z"/><path class="f" d="M181.87,264.41c.23-6.89,.18-13.79,.96-21.02,2.75,7.46,.5,14.21-.96,21.02Z"/><path class="e" d="M229.74,256.28c.03-3.14-.59-6.23-.79-9.35-.41-6.61-1.03-13.2-2.03-19.75-.61-4-1.27-8-1.9-12,.52,.47,.54,1.16,.68,1.75,2.4,10.68,3.43,21.53,4.02,32.43,.12,2.3,.02,4.61,.02,6.92Z"/><path class="e" d="M225.02,215.13v.04s0-.02-.02-.03h.02Z"/><path class="e" d="M225.02,215.17h0c.64,4,1.29,8,1.9,12-.61-4.01-1.27-8-1.9-12Z"/><path class="f" d="M183.97,212.86c.27-.94,.8-1.75,1.94-2.26-1.58,6.36-2.44,12.63-3.64,18.87-.22-5.62,.14-11.19,1.69-16.61Z"/><path class="f" d="M168.89,252.85c-.6-2.21-1.22-4.41-1.8-6.63-.13-.51-.77-1.26-.13-1.51,.75-.29,1.71-.19,2.55-.04,.78,.13,.58,.92,.52,1.45-.24,2.24-.53,4.48-.81,6.71l-.34,.03Z"/><path class="f" d="M178.1,233.25c.91-.87,1.88-.47,2.58,.05,.96,.72-.27,1.16-.52,1.71-.93,2.11-3.82,1.23-4.86,3.24,.43-2,1.36-3.63,2.8-5.01Z"/><path class="e" d="M183.32,210.29l.04,.04,.07,.08c-2.12,5.74-2.41,11.79-2.97,17.79-.34-3.63,0-7.22,.57-10.79,.18-1.09,.31-2.19,.56-3.26,.07-.31,.15-.61,.24-.91,.04-.15,.09-.3,.14-.45,.3-.89,.73-1.73,1.35-2.51h0Z"/><path class="e" d="M183.32,210.29h0c-.63,.78-1.05,1.63-1.35,2.51,.3-.89,.73-1.73,1.35-2.51h0Z"/><path class="f" d="M258.39,287.56c-2.53,.97-4.87,2.26-6.97,3.99-.14-.1-.29-.21-.43-.31,.46-.76,1.05-1.33,1.7-1.8,.3-.21,.62-.4,.94-.58,.77-.42,1.6-.75,2.41-1.1l.1-.04c.26-.11,.51-.23,.76-.35,.19-.09,.37-.18,.55-.27,.31,.16,.62,.31,.94,.47Z"/><path class="f" d="M256.9,287.37c-.25,.12-.5,.23-.76,.35,.26-.11,.51-.23,.76-.35Z"/><path class="f" d="M256.03,287.76c-.81,.35-1.64,.69-2.41,1.1,.77-.42,1.6-.75,2.41-1.1Z"/><path class="f" d="M253.63,288.86c-.33,.18-.64,.37-.94,.58,.3-.21,.62-.4,.94-.58Z"/><path class="f" d="M231.07,244.14c.53-.12,1.25-.09,1.67,.19,.5,.33,.03,.89-.18,1.34-.42,.9-.83,1.81-1.24,2.72l-.58-.05c0-.97-.02-1.94,.01-2.91,.02-.45-.36-1.13,.32-1.28Z"/><path class="e" d="M180.31,288.51c.13,.51-.23,1.12-.79,1.03-.73-.11-1.65-.24-1.82-1.2-.08-.48,.17-.97,.8-1.14,.61,.42,1.59,.42,1.82,1.31Z"/><path class="e" d="M167.58,288.52c-.11-.94,.6-.98,1.25-1.08,.71-.1,1.29-.07,1.36,.86,.06,.86-.53,.88-1.2,.94-.53,0-1.29,.25-1.41-.73Z"/><path class="e" d="M183.98,241.76c-.73-1.49-1.5-2.68-.59-4.14,.4,1.27,1.21,2.47,.59,4.14Z"/><path class="f" d="M179.81,283.33v2.74q-2.14-.78,0-2.74Z"/><path class="f" d="M178,238.43c-.75,.87-1.5,1.74-2.25,2.61,.16-1.39,.9-2.27,2.25-2.61Z"/><path class="f" d="M226.84,261.2c.46-.95,.82-1.68,1.18-2.42,.25,1.06,1.03,2.41-1.18,2.42Z"/><path class="f" d="M225.62,240.58c.02-.6,.59-1.23,1.44-1.29,.2,.71,.2,1.39,.02,2.09-.68,.03-1.47-.17-1.45-.8Z"/><path class="e" d="M183.78,209.87h0l-.02-.03c.02-.49,.15-.86,.65-.99,.07-.02,.15-.03,.24-.04,.1,0,.21-.01,.33,0-.12,.11-.24,.21-.35,.31-.32,.29-.59,.52-.85,.75Z"/><path class="e" d="M224.28,213.03c-.04-.12-.07-.26-.06-.38,0-.08,.09-.16,.18-.3,.04,.25,.11,.45,.09,.63-.03,.21-.15,.22-.22,.05Z"/><path class="e" d="M224.65,214.65c-.02-.09,0-.19,.04-.29,.04-.11,.12-.22,.23-.35,.03,.43,.05,.77,.07,1.11-.19-.14-.31-.29-.34-.46Z"/><path class="e" d="M225.02,215.13h-.02v-.02l.02,.02h0Z"/><path class="e" d="M225.02,215.13h0Z"/><path class="e" d="M224.65,214.65c.03,.17,.16,.32,.34,.46h0c-.19-.14-.31-.29-.34-.46Z"/><path class="f" d="M250.73,292.27c-.42-.47,.11-.7,.26-1.03,.14,.1,.29,.21,.43,.31l-.69,.72Z"/><path class="e" d="M223.92,211.53s-.08-.08-.12-.12l.09-.14s.11,.08,.11,.12c0,.03-.03,.07-.06,.1,0,.01-.02,.02-.03,.04Z"/><path class="e" d="M223.92,211.53s.02-.02,.03-.04c0,.01-.02,.02-.03,.04-.04-.04-.08-.08-.12-.12,.03-.05,.06-.1,.09-.14l-.09,.14s.08,.08,.12,.12Z"/><path class="e" d="M223.32,210.56c.04-.05,.09-.11,.13-.16,.05,.05,.14,.1,.14,.15,0,.05-.08,.11-.12,.16-.05-.05-.1-.1-.15-.15Z"/><path class="e" d="M183.75,209.85l.02,.02h0c-.11,.19-.23,.37-.34,.55l-.07-.08-.04-.04c.01-.06,.03-.12,.04-.17,.05-.16,.15-.28,.39-.27Z"/><path class="e" d="M183.32,210.29c.01-.06,.03-.12,.04-.17-.02,.05-.03,.11-.04,.17h0Z"/><path class="e" d="M183.32,210.29l.04,.04-.04-.04h0Z"/><path class="e" d="M183.43,210.41l-.07-.08,.07,.08Z"/><path class="e" d="M183.77,209.86h0Z"/><path class="e" d="M183.77,209.86l-.02-.02,.02,.02Z"/><path d="M218.06,160.67c-2.09-2.43-4.46-3.35-7.52-2.16-.43,.17-.91,.16-1.07-.39-.15-.52,.26-.73,.67-.94,1.34-.68,2.81-.41,4.41-.59-1.66-3.66-3.2-7.25-4.91-10.74-.88-1.79-2.22-2.77-4.45-1.8-1.32,.58-1.57-.19-.92-1.31,3.91-1.07,5.27-.5,7.1,3.27,1.4,2.88,2.53,5.89,3.98,8.75,2.09,4.11,5.04,7.15,10.11,7.1,.49,0,1.16-.03,1.17,.66,0,.78-.69,.86-1.28,.82-.34-.03-.69-.06-1.03-.09-1.03-.1-2.05-.21-3.08-.32-1.07-.74-2.36-1.3-3.18-2.26Z"/><path d="M196.16,143.13c-.16,.53-.46,.94-1.06,.92-2.79-.09-4.02,1.79-4.85,3.99-.8,2.1-1.39,4.29-2.06,6.44-1.08,3.43-2.19,6.84-5.45,8.94l-.17-.03-.1,.14c-.17,.07-.34,.14-.51,.21l-.11,.05h0c-.43,0-.86,.02-1.29-.03-.72-.09-1.89,.41-1.93-.75-.04-1.04,1.1-.68,1.74-.73,2.3-.19,3.68-1.57,4.67-3.48,1.16-2.21,1.69-4.64,2.39-7.01,.75-2.51,1.45-5.05,3.15-7.14,.3-.37,.6-.68,.9-.94,1.32-1.12,2.72-1.27,4.69-.59Z"/><path d="M181.94,163.74l-.11,.05h0l.11-.05Z"/><path d="M196.05,139.25c-.7,.15-.8-.36-.94-.89-.57-2.11-1.05-4.26-2.56-5.96-.14-.16-.19-.38-.24-.48-.06-.44,.11-.68,.39-.8,.51-.23,.83,.15,1.1,.47,1.6,1.91,2.24,4.22,2.7,6.6,.08,.4,.14,.94-.45,1.07Z"/><path d="M231.06,130.6c0-.43-.46-.32-.94-.24-1.91,.34-3.84,.74-5.59,.45-.16-.03-.36,.01-.46,.02-.39,.1-.56,.27-.61,.46-.09,.35,.29,.4,.62,.45,1.94,.28,4.04-.09,6.16-.57,.36-.08,.83-.21,.82-.57Z"/><path d="M200.46,142.15c.7,.11,.8-.25,.94-.62,.57-1.48,1.05-2.98,2.56-4.18,.14-.11,.19-.27,.24-.34,.06-.31-.11-.48-.39-.56-.51-.16-.83,.1-1.1,.33-1.6,1.34-2.24,2.96-2.7,4.62-.08,.28-.14,.66,.45,.75Z"/><path d="M201.86,179.33c.38,.51,1.41,1.15,.5,1.78-.96,.66-1.26-.59-1.69-1.13-.39-.49-.56-1.16-.66-1.38-.16-1.52,.53-2.19,1.27-2.79,1.67-1.36,2.01-3.03,1.49-5.07-.36-1.41-.75-2.8-1.32-4.13-.18-.43-.3-.86,.15-1.16,.36-.24,.67-.03,.94,.26,2.29,2.4,2.2,8.75-.25,11.04-.89,.83-1.22,1.53-.43,2.59Z"/><path d="M192.63,167.56l-.99-1.61c.33-.87,.92-1.45,1.6-1.45,1.63,0,1.87,1.73,1.87,3.42s-.83,2.69-1.87,2.69c-.82,0-1.5-.84-1.77-2.01l1.16-1.04Z"/><path d="M212.06,167.56l-.99-1.61c.33-.87,.92-1.45,1.6-1.45,1.63,0,1.87,1.73,1.87,3.42s-.83,2.69-1.87,2.69c-.82,0-1.5-.84-1.77-2.01l1.16-1.04Z"/><path d="M196.13,157.33c.18,.2,.43,.42,.21,.75-.23,.35-.58,.52-.93,.35-2.13-1.02-4.19-.86-6.25,.2-.38,.2-.87,.06-.98-.61,.08-.13,.18-.31,.31-.47,1.19-1.36,6.45-1.52,7.63-.23Z"/><path d="M178.27,174.1c-.74-.61-1.4-1.37-1.61-2.39-.09-.4,.36-.76,.69-.58,.93,.49,1.47,1.36,1.69,2.37,.08,.38-.23,.66-.77,.6Z"/><path d="M227.7,171.14c.34-.11,.79,.29,.62,.65-.44,.93-.75,2.06-1.94,2.33-.35,.08-.57-.36-.53-.88,.53-.7,.79-1.77,1.85-2.1Z"/><path class="e" d="M182.56,163.4l.17,.03s0,.05-.01,.07c0,.03-.01,.05-.02,.06-.01,.03-.03,.05-.05,.06-.04,.02-.1,0-.19-.09h0l.1-.14Z"/><path class="e" d="M182.65,163.62s-.11,0-.19-.09h0c.09,.09,.15,.11,.19,.09Z"/><path d="M208.34,189.94c-1.18-1.84,2.01-2.45,1.04-4.25-2.99,0-6.18,.32-9.27-.09-3.08-.41-3.93,.66-3.46,3.44-1.45-1.18-2.7-2.87-1.87-4.51,.76-1.5,2.69-.08,4.1-.15,3.14-.16,6.29-.12,9.43-.08,1.09,.01,2.64-1.16,3.14,.44,.28,.89-.54,2.2-1.03,3.24-.42,.88-.74,2.01-2.09,1.97Z"/></g><path d="M197.54,190.43s6.11,2.01,8.8,.71,.66,.44,.66,.44l-2.01,1.45s-5.25,.13-7.45-2.6Z"/></g></g><g><path class="j" d="M93.73,65.26c-.25,0-.43-.04-.54-.14-.11-.09-.16-.27-.16-.54v-17.93l-4.44,2.89c-.4,.25-.7,.19-.92-.19l-1.54-2.62c-.14-.25-.21-.46-.2-.61s.13-.3,.37-.45l6.74-4.46c.14-.09,.26-.15,.35-.18,.09-.03,.23-.04,.41-.04h3.73c.25,0,.43,.04,.54,.13,.11,.09,.16,.27,.16,.54v22.91c0,.27-.05,.45-.16,.54-.11,.09-.29,.14-.54,.14h-3.79Z"/><path class="j" d="M120.48,60.69c0,.27-.05,.45-.16,.54-.11,.09-.29,.13-.54,.13h-1.84v3.22c0,.27-.05,.45-.16,.54-.11,.09-.29,.14-.54,.14h-3.52c-.25,0-.43-.04-.54-.14-.11-.09-.16-.27-.16-.54v-3.22h-9.58c-.29,0-.5-.05-.64-.15-.14-.1-.2-.3-.2-.61v-2.6c0-.18,0-.35,.03-.5,.02-.15,.06-.33,.13-.53l5.38-15.39c.09-.23,.18-.39,.27-.47s.23-.12,.43-.12h3.73c.31,0,.5,.05,.59,.16,.09,.11,.09,.32,0,.62l-4.98,15.09h4.81v-7.01c0-.27,.05-.45,.16-.54,.11-.09,.29-.14,.54-.14h3.52c.25,0,.43,.05,.54,.14,.11,.09,.16,.27,.16,.54v7.01h1.84c.25,0,.43,.04,.54,.13,.11,.09,.16,.27,.16,.54v3.14Z"/><path class="j" d="M122.07,40.67c0-.27,.05-.45,.16-.54,.11-.09,.29-.14,.54-.14h9.33c.69,0,1.27,.08,1.76,.24,.49,.16,.89,.43,1.2,.8,.32,.37,.54,.85,.68,1.43,.14,.59,.19,1.3,.18,2.15-.02,1.23-.11,2.62-.28,4.17-.17,1.55-.39,3.17-.66,4.87-.27,1.69-.58,3.41-.93,5.15-.35,1.74-.72,3.4-1.1,4.99-.07,.27-.14,.46-.22,.58-.07,.12-.23,.15-.49,.09l-3.76-.79c-.13-.02-.24-.04-.34-.07-.1-.03-.18-.08-.26-.15-.07-.07-.11-.17-.12-.28,0-.12,.01-.28,.07-.5,.38-1.37,.74-2.82,1.08-4.34,.34-1.52,.64-3.02,.91-4.49,.26-1.47,.47-2.87,.64-4.21,.16-1.33,.24-2.51,.24-3.52,0-.69-.1-1.13-.3-1.33-.2-.2-.53-.3-1-.3h-6.63c-.25,0-.43-.04-.54-.14-.11-.09-.16-.27-.16-.54v-3.16Zm25.78,12.33c0,.27-.05,.45-.16,.54s-.29,.13-.54,.13h-2.49v10.79c0,.27-.05,.45-.16,.54-.11,.09-.29,.13-.54,.13h-3.79c-.25,0-.43-.04-.54-.13-.11-.09-.16-.27-.16-.54v-23.8c0-.27,.05-.45,.16-.54,.11-.09,.29-.14,.54-.14h3.79c.25,0,.43,.04,.54,.14,.11,.09,.16,.27,.16,.54v8.52h2.49c.25,0,.43,.05,.54,.14,.11,.09,.16,.27,.16,.54v3.14Z"/><path class="j" d="M149.09,40.67c0-.27,.05-.45,.16-.54,.11-.09,.29-.14,.54-.14h14.15c.25,0,.43,.04,.54,.14,.11,.09,.16,.27,.16,.54v3.16c0,.27-.05,.45-.16,.54-.11,.09-.29,.14-.54,.14h-4.49v9.82c0,.52,.06,1.03,.19,1.53,.13,.5,.36,.96,.7,1.38,.34,.42,.8,.8,1.38,1.14s1.32,.59,2.22,.77c.07,.02,.16,.04,.26,.05,.1,.02,.19,.06,.28,.12,.09,.06,.17,.15,.23,.27,.06,.12,.09,.28,.09,.5v3c0,.33-.09,.52-.26,.58-.17,.06-.32,.08-.45,.07-.63-.05-1.28-.15-1.93-.28-.66-.13-1.3-.32-1.93-.57-.63-.24-1.24-.55-1.81-.93s-1.09-.83-1.54-1.35c-.47,.52-.99,.97-1.55,1.35s-1.17,.69-1.8,.93c-.63,.24-1.28,.43-1.93,.57-.66,.14-1.3,.23-1.93,.28-.13,.02-.28,0-.45-.07-.17-.06-.26-.26-.26-.58v-3c0-.22,.03-.38,.09-.5,.06-.12,.14-.21,.23-.27,.09-.06,.19-.1,.28-.12,.1-.02,.18-.04,.26-.05,.9-.18,1.64-.44,2.22-.77,.58-.33,1.04-.71,1.38-1.14s.58-.88,.7-1.38,.19-1,.19-1.53v-9.82h-4.52c-.25,0-.43-.04-.54-.14-.11-.09-.16-.27-.16-.54v-3.16Zm18.74,24.48c-.25,0-.43-.04-.54-.13-.11-.09-.16-.27-.16-.54v-23.8c0-.27,.05-.45,.16-.54,.11-.09,.29-.14,.54-.14h3.79c.25,0,.43,.04,.54,.14,.11,.09,.16,.27,.16,.54v23.8c0,.27-.05,.45-.16,.54-.11,.09-.29,.13-.54,.13h-3.79Z"/><path class="j" d="M175.84,61.04c0-.27,.05-.45,.16-.54,.11-.09,.29-.13,.54-.13h15.85c.25,0,.43,.04,.54,.13,.11,.09,.16,.27,.16,.54v3.17c0,.27-.05,.45-.16,.54-.11,.09-.29,.13-.54,.13h-15.85c-.25,0-.43-.04-.54-.13-.11-.09-.16-.27-.16-.54v-3.17Zm8.28-21.31c1.46,0,2.69,.25,3.69,.74s1.81,1.15,2.42,1.97,1.05,1.76,1.33,2.83c.27,1.06,.41,2.16,.41,3.3s-.13,2.24-.39,3.31c-.26,1.07-.7,2.02-1.31,2.84-.61,.82-1.42,1.48-2.42,1.97s-2.24,.74-3.72,.74-2.72-.25-3.72-.74-1.81-1.15-2.42-1.97-1.05-1.77-1.31-2.84c-.26-1.07-.39-2.18-.39-3.31s.14-2.24,.42-3.3c.28-1.06,.73-2.01,1.35-2.83s1.43-1.48,2.42-1.97c.99-.5,2.21-.74,3.65-.74Zm0,13.31c.29,0,.6-.05,.92-.15,.32-.1,.63-.31,.91-.64,.28-.32,.51-.78,.69-1.37s.27-1.37,.27-2.34-.09-1.75-.27-2.34-.41-1.04-.69-1.35c-.28-.32-.58-.52-.91-.62-.32-.1-.63-.15-.92-.15s-.59,.05-.92,.15c-.33,.1-.63,.31-.91,.62-.28,.32-.51,.77-.69,1.35-.18,.59-.27,1.37-.27,2.34s.09,1.75,.27,2.34c.18,.59,.41,1.04,.69,1.37,.28,.33,.58,.54,.91,.64,.32,.1,.63,.15,.92,.15Zm10.77,12.12c-.25,0-.43-.04-.54-.13-.11-.09-.16-.27-.16-.54v-23.8c0-.27,.05-.45,.16-.54,.11-.09,.29-.14,.54-.14h3.79c.25,0,.43,.04,.54,.14,.11,.09,.16,.27,.16,.54v23.8c0,.27-.05,.45-.16,.54-.11,.09-.29,.13-.54,.13h-3.79Z"/><path class="j" d="M210.22,40.67c0-.27,.05-.45,.16-.54,.11-.09,.29-.14,.54-.14h14.15c.25,0,.43,.04,.54,.14,.11,.09,.16,.27,.16,.54v3.16c0,.27-.05,.45-.16,.54-.11,.09-.29,.14-.54,.14h-4.49v1.05c0,.52,.06,1.03,.19,1.53,.13,.5,.36,.96,.7,1.38,.34,.42,.8,.8,1.38,1.14s1.32,.59,2.22,.77c.07,.02,.16,.04,.26,.05,.1,.02,.19,.06,.28,.12,.09,.06,.17,.15,.23,.27s.09,.28,.09,.5v3c0,.32-.09,.52-.26,.58-.17,.06-.32,.08-.45,.07-.63-.05-1.28-.15-1.93-.28-.66-.14-1.3-.32-1.93-.57-.63-.24-1.24-.55-1.81-.93-.58-.38-1.09-.83-1.54-1.35-.47,.52-.99,.97-1.56,1.35-.57,.38-1.17,.69-1.8,.93-.63,.24-1.28,.43-1.93,.57-.66,.13-1.3,.23-1.93,.28-.13,.02-.28,0-.45-.07-.17-.06-.26-.26-.26-.58v-3c0-.22,.03-.38,.09-.5,.06-.12,.14-.21,.23-.27,.09-.06,.19-.1,.28-.12,.1-.02,.18-.04,.26-.05,.9-.18,1.64-.44,2.22-.77,.58-.33,1.04-.71,1.38-1.14,.34-.42,.58-.88,.7-1.38s.19-1,.19-1.53v-1.05h-4.52c-.25,0-.43-.04-.54-.14-.11-.09-.16-.27-.16-.54v-3.16Zm24.07,23.53c.04,.27,0,.44-.14,.51s-.32,.13-.57,.16c-1.25,.13-2.55,.24-3.92,.34-1.37,.1-2.75,.19-4.12,.26-1.38,.07-2.74,.13-4.07,.16-1.33,.04-2.58,.05-3.73,.05-1.73,0-2.97-.46-3.72-1.39-.75-.93-1.12-2.41-1.12-4.45v-2.97c0-.27,.05-.45,.16-.54,.11-.09,.29-.14,.54-.14h3.79c.25,0,.43,.04,.54,.14,.11,.09,.16,.27,.16,.54v2.46c0,.65,.13,1.13,.41,1.43s.77,.45,1.49,.43c.97-.02,2.02-.05,3.14-.09s2.25-.1,3.41-.16c1.15-.06,2.31-.14,3.46-.24,1.15-.1,2.26-.2,3.33-.31,.25-.04,.42,0,.51,.11,.09,.11,.15,.3,.19,.57l.27,3.14Zm-4.79-6.36c-.25,0-.43-.04-.54-.14-.11-.09-.16-.27-.16-.54v-7.46h-2.73c-.25,0-.43-.04-.54-.14-.11-.09-.16-.27-.16-.54v-3.14c0-.27,.05-.45,.16-.54,.11-.09,.29-.13,.54-.13h2.73v-4.54c0-.27,.05-.45,.16-.54,.11-.09,.29-.14,.54-.14h3.79c.25,0,.43,.04,.54,.14,.11,.09,.16,.27,.16,.54v16.5c0,.27-.05,.45-.16,.54-.11,.09-.29,.14-.54,.14h-3.79Z"/><path class="j" d="M237.52,52.03c0-.27,.05-.45,.16-.54s.29-.14,.54-.14h22.83c.25,0,.43,.05,.54,.14s.16,.27,.16,.54v3.16c0,.27-.05,.45-.16,.54-.11,.09-.29,.14-.54,.14h-8.55v3.27c0,.27-.05,.45-.16,.54-.11,.09-.29,.14-.54,.14h-3.79c-.25,0-.43-.04-.54-.14-.11-.09-.16-.27-.16-.54v-3.27h-9.09c-.25,0-.43-.04-.54-.14-.11-.09-.16-.27-.16-.54v-3.16Zm22.5-4.98c0,1.14-.24,1.96-.73,2.46-.49,.5-1.22,.76-2.19,.76h-14.96c-.97,0-1.7-.25-2.19-.76-.49-.5-.73-1.33-.73-2.46v-6.38c0-.27,.05-.45,.16-.54,.11-.09,.29-.14,.54-.14h19.39c.25,0,.43,.04,.54,.14,.11,.09,.16,.27,.16,.54v6.38Zm.57,17.47c.04,.27,0,.46-.12,.55-.12,.1-.32,.17-.61,.2-2.58,.25-5.17,.4-7.76,.43s-5.24,.03-7.92-.03c-1.73-.04-2.97-.51-3.72-1.42-.75-.91-1.12-2.38-1.12-4.42v-2.11c0-.27,.05-.45,.16-.54,.11-.09,.29-.13,.54-.13h3.79c.25,0,.43,.04,.54,.13,.11,.09,.16,.27,.16,.54v1.6c0,.65,.13,1.12,.41,1.41,.27,.29,.77,.44,1.49,.46,2.2,.04,4.37,.03,6.52-.03,2.15-.05,4.34-.18,6.57-.38,.25-.04,.44,0,.57,.08,.13,.09,.21,.29,.24,.59l.27,3.06Zm-6.28-18.37c.31,0,.51-.06,.62-.18,.11-.12,.16-.35,.16-.69v-1.33h-10.95v1.33c0,.34,.05,.57,.16,.69,.11,.12,.32,.18,.62,.18h9.39Z"/><path class="j" d="M263.21,52.57c0-.27,.05-.45,.16-.54s.29-.14,.54-.14h22.83c.25,0,.43,.05,.54,.14s.16,.27,.16,.54v3.16c0,.27-.05,.45-.16,.54-.11,.09-.29,.14-.54,.14h-8.55v2.73c0,.27-.05,.45-.16,.54-.11,.09-.29,.14-.54,.14h-3.79c-.25,0-.43-.04-.54-.14-.11-.09-.16-.27-.16-.54v-2.73h-9.09c-.25,0-.43-.04-.54-.14-.11-.09-.16-.27-.16-.54v-3.16Zm22.5-4.98c0,1.14-.24,1.96-.73,2.46-.49,.5-1.22,.76-2.19,.76h-14.96c-.97,0-1.7-.25-2.19-.76-.49-.5-.73-1.33-.73-2.46v-6.92c0-.27,.05-.45,.16-.54,.11-.09,.29-.14,.54-.14h3.52c.25,0,.43,.04,.54,.14,.11,.09,.16,.27,.16,.54v1.14h10.95v-1.14c0-.27,.05-.45,.16-.54,.11-.09,.29-.14,.54-.14h3.52c.25,0,.43,.04,.54,.14,.11,.09,.16,.27,.16,.54v6.92Zm.57,16.93c.04,.27,0,.46-.12,.55-.12,.1-.32,.17-.61,.2-2.58,.25-5.17,.4-7.76,.43s-5.24,.03-7.92-.03c-1.73-.04-2.97-.51-3.72-1.42-.75-.91-1.12-2.38-1.12-4.42v-1.57c0-.27,.05-.45,.16-.54,.11-.09,.29-.14,.54-.14h3.79c.25,0,.43,.05,.54,.14,.11,.09,.16,.27,.16,.54v1.05c0,.65,.13,1.12,.41,1.41,.27,.29,.77,.44,1.49,.46,2.2,.04,4.37,.03,6.52-.03,2.15-.05,4.34-.18,6.57-.38,.25-.04,.44,0,.57,.08,.13,.09,.21,.29,.24,.59l.27,3.06Zm-6.28-17.72c.31,0,.51-.06,.62-.18s.16-.35,.16-.69v-.54h-10.95v.54c0,.34,.05,.57,.16,.69s.32,.18,.62,.18h9.39Z"/><path class="j" d="M304.81,52c0,1.89-.14,3.58-.42,5.07-.28,1.49-.73,2.75-1.35,3.77-.62,1.03-1.44,1.81-2.45,2.35s-2.25,.81-3.71,.81-2.7-.27-3.71-.81-1.83-1.33-2.45-2.35c-.62-1.03-1.07-2.29-1.35-3.77-.28-1.49-.42-3.18-.42-5.07s.14-3.58,.42-5.07c.28-1.49,.73-2.75,1.35-3.77,.62-1.03,1.44-1.81,2.45-2.35s2.25-.81,3.71-.81,2.7,.27,3.71,.81,1.83,1.33,2.45,2.35c.62,1.03,1.07,2.29,1.35,3.77,.28,1.49,.42,3.18,.42,5.07Zm-5.06,0c0-1.66-.09-2.98-.28-3.98-.19-.99-.43-1.75-.72-2.29-.29-.53-.6-.88-.93-1.04-.33-.16-.64-.24-.93-.24s-.6,.08-.93,.24c-.33,.16-.64,.51-.93,1.04-.29,.53-.53,1.29-.72,2.29-.19,.99-.28,2.32-.28,3.98s.09,2.98,.28,3.98c.19,.99,.43,1.75,.72,2.29,.29,.53,.6,.88,.93,1.04,.33,.16,.64,.24,.93,.24s.6-.08,.93-.24c.33-.16,.64-.51,.93-1.04,.29-.53,.53-1.29,.72-2.29,.19-.99,.28-2.32,.28-3.98Zm15.25,5.33c0,.27-.05,.45-.16,.54-.11,.09-.29,.14-.54,.14h-2.49v6.46c0,.27-.05,.45-.16,.54-.11,.09-.29,.13-.54,.13h-3.79c-.25,0-.43-.04-.54-.13-.11-.09-.16-.27-.16-.54v-23.8c0-.27,.05-.45,.16-.54,.11-.09,.29-.14,.54-.14h3.79c.25,0,.43,.04,.54,.14,.11,.09,.16,.27,.16,.54v4.73h2.49c.25,0,.43,.04,.54,.13,.11,.09,.16,.27,.16,.54v3.14c0,.27-.05,.45-.16,.54-.11,.09-.29,.14-.54,.14h-2.49v3.62h2.49c.25,0,.43,.04,.54,.14,.11,.09,.16,.27,.16,.54v3.14Z"/><path class="j" d="M160.51,73.13c0-.27,.05-.45,.16-.54,.11-.09,.29-.14,.54-.14h15.47c.25,0,.43,.04,.54,.14,.11,.09,.16,.27,.16,.54v3.11c0,.27-.05,.45-.16,.54s-.29,.13-.54,.13h-1.43l-.3,14.88h1.87c.25,0,.43,.04,.54,.14,.11,.09,.16,.27,.16,.54v3.11c0,.27-.05,.45-.16,.54-.11,.09-.29,.13-.54,.13h-15.61c-.25,0-.43-.04-.54-.13-.11-.09-.16-.27-.16-.54v-3.11c0-.27,.05-.45,.16-.54,.11-.09,.29-.14,.54-.14h1.68l-.27-14.88h-1.41c-.25,0-.43-.04-.54-.13-.11-.09-.16-.27-.16-.54v-3.11Zm7.36,18.66h2.11l.19-14.88h-2.52l.22,14.88Zm19.07-6.33c0,.27-.05,.45-.16,.54s-.29,.13-.54,.13h-2.49v10.79c0,.27-.05,.45-.16,.54-.11,.09-.29,.13-.54,.13h-3.79c-.25,0-.43-.04-.54-.13-.11-.09-.16-.27-.16-.54v-23.8c0-.27,.05-.45,.16-.54,.11-.09,.29-.14,.54-.14h3.79c.25,0,.43,.04,.54,.14,.11,.09,.16,.27,.16,.54v8.52h2.49c.25,0,.43,.05,.54,.14,.11,.09,.16,.27,.16,.54v3.14Z"/><path class="j" d="M187.88,93.5c0-.27,.05-.45,.16-.54,.11-.09,.29-.13,.54-.13h22.83c.25,0,.43,.04,.54,.13,.11,.09,.16,.27,.16,.54v3.17c0,.27-.05,.45-.16,.54-.11,.09-.29,.13-.54,.13h-22.83c-.25,0-.43-.04-.54-.13-.11-.09-.16-.27-.16-.54v-3.17Zm22.56-5.17c.04,.27,0,.44-.14,.51s-.32,.13-.57,.16c-1.24,.13-2.53,.23-3.84,.33-1.32,.09-2.63,.17-3.95,.23-1.32,.06-2.61,.11-3.88,.14-1.27,.03-2.48,.04-3.64,.04-1.73,0-2.97-.46-3.72-1.39s-1.12-2.41-1.12-4.45v-10.76c0-.27,.05-.45,.16-.54,.11-.09,.29-.14,.54-.14h19.12c.25,0,.43,.04,.54,.14,.11,.09,.16,.27,.16,.54v3.16c0,.27-.05,.45-.16,.54-.11,.09-.29,.14-.54,.14h-14.63v1.95h14.66c.25,0,.43,.04,.54,.13,.11,.09,.16,.27,.16,.54v2.89c0,.27-.05,.45-.16,.54-.11,.09-.29,.14-.54,.14h-14.66v.49c0,.65,.13,1.13,.41,1.43s.77,.45,1.49,.43c1.96-.04,4.06-.11,6.28-.22,2.22-.11,4.39-.28,6.52-.51,.25-.04,.42,0,.51,.11,.09,.11,.15,.3,.19,.57l.27,2.87Z"/><path class="j" d="M221.26,91.77c1.33-.04,2.61-.08,3.84-.15,1.23-.06,2.52-.16,3.87-.28,.25-.04,.42,0,.51,.09,.09,.1,.15,.28,.19,.55l.27,3.14c.04,.27,0,.44-.13,.51-.13,.07-.32,.13-.57,.16-1.79,.14-3.5,.26-5.15,.34-1.65,.08-3.34,.12-5.07,.12s-2.97-.46-3.72-1.39c-.75-.93-1.12-2.41-1.12-4.45,0-1.59,0-3.12,.03-4.6,.02-1.48,.04-2.92,.07-4.33,.03-1.41,.06-2.8,.11-4.18s.1-2.77,.18-4.18c.02-.27,.08-.45,.18-.54,.1-.09,.27-.14,.53-.14h3.71c.25,0,.44,.04,.55,.14,.12,.09,.17,.27,.15,.54-.05,1.37-.11,2.73-.16,4.07-.05,1.34-.09,2.7-.12,4.07s-.04,2.77-.05,4.19c0,1.42,0,2.9,.04,4.44,.02,.65,.16,1.13,.42,1.43,.26,.31,.75,.45,1.47,.43Zm3.87-10.52c0-.27,.05-.45,.16-.54,.11-.09,.29-.13,.54-.13h6.09v-7.44c0-.27,.05-.45,.16-.54,.11-.09,.29-.14,.54-.14h3.79c.25,0,.43,.04,.54,.14,.11,.09,.16,.27,.16,.54v23.8c0,.27-.05,.45-.16,.54-.11,.09-.29,.13-.54,.13h-3.79c-.25,0-.43-.04-.54-.13-.11-.09-.16-.27-.16-.54v-11.88h-6.09c-.25,0-.43-.04-.54-.13s-.16-.27-.16-.54v-3.14Z"/></g></g></g><g id="c"/></svg>