<?xml version="1.0" encoding="UTF-8"?><svg xmlns="http://www.w3.org/2000/svg" xmlns:xlink="http://www.w3.org/1999/xlink" viewBox="0 0 400 356"><defs><style>.e{fill:#fff;}.f{fill:#557cbd;}.g{clip-path:url(#c);}.h{fill:#fdfdfd;}.i{clip-path:url(#d);}.j{fill:none;}.k{fill:#093974;}</style><clipPath id="c"><rect class="j" x="0" y="-369.85" width="400" height="356"/></clipPath><clipPath id="d"><rect class="j" x="413.62" width="400" height="356"/></clipPath></defs><g id="a"/><g id="b"><rect class="e" width="400" height="356"/><g class="g"><g><path d="M147.38-66.87c-4.4-15.19-8.34-30.5-11.55-45.99-1.57-7.55-3.21-15.1-3.71-22.82-.54-8.32,1.91-15.86,6.8-22.56,2.09-2.86,5.04-4.73,8.44-5.77,1.26-.39,1.96-.74,1.17-2.24-1.2-2.27-.8-4.79-.63-7.2,.33-4.49-.29-8.79-2.11-12.91-1.06-2.41-1.02-4.89-.47-7.41,.67-3.1,1.8-6.04,3.18-8.87,4.49-9.2,7.56-18.79,8.84-28.98,.57-4.53,1.8-8.94,4-13.02,2.19-4.05,5.37-6.77,10.03-7.41,1.35-.18,2.03-1.01,2.81-1.9,8.83-10.08,21.36-13.27,32.6-8.17,7.17,3.25,12.47,8.73,16.88,15.08,2.98,4.3,6.41,8.17,10.22,11.71,6.93,6.46,10.21,14.17,8.59,23.74-.56,3.33-.73,6.72-1.02,10.09-.42,4.7,1.13,8.66,4.58,11.88,.69,.64,1.35,1.32,2.05,1.96,6.25,5.75,7.52,12.1,3.99,19.82-.92,2.02-2.15,3.84-3.53,5.57-.46,.58-1.06,1.16-1.78,.6-.77-.6-.21-1.26,.25-1.82,1.6-1.96,2.93-4.09,3.84-6.46,2.42-6.3,1.3-11.63-3.86-15.96-5.64-4.73-8.41-10.44-7.37-17.84,.24-1.71,.36-3.44,.55-5.16,.21-1.88,.45-3.75,.64-5.63,.65-6.43-1.26-12.1-5.77-16.61-5.98-5.97-11.24-12.5-16.43-19.13-4.61-5.88-10.42-10.32-17.99-11.77-9.49-1.82-17.37,1.41-23.84,8.28-1.85,1.96-3.77,3.34-6.44,3.95-3.63,.83-5.91,3.45-7.57,6.63-2.25,4.32-3.26,9.04-3.87,13.79-1.11,8.76-3.72,17.03-7.47,24.99-1.57,3.34-3.13,6.7-4.06,10.3-.67,2.59-.7,5.11,.47,7.6,2.15,4.57,2.13,9.46,1.95,14.36-.04,1.18-.12,2.38,.05,3.53,.43,2.95,1.29,3.49,4.25,3.36,2.67-.12,5.38,1.1,8.09-.49-.23-.88-1.12-1.31-1.75-1.93-5.28-5.14-6.02-9.4-2.49-15.81,2.68-4.87,5.16-9.76,4.6-15.57-.12-1.29,.81-1.43,1.96-1.33-1.84-3.5-3.01-6.88-2.49-10.63,.22-1.57,.88-2.84,2.33-3.62,.86-.46,1.75-.74,2.66-.12,.14,.69,.07,1.29-.76,1.45-1.95,.37-2.52,1.9-2.55,3.5-.07,3.99,1.47,7.38,4.5,10.76,0-1.12,.05-1.65-.01-2.16-.07-.62-.23-1.24-.38-1.85-.15-.64,.16-1.02,.64-1.37,.43-.31,.79-.07,1.02,.2,1.31,1.59,3.3,1.88,5.06,2.41,1.45,.44,2.67,.93,3.38,2.26,2.57,4.83,6.49,8.19,11.31,10.65,2.52,1.29,4.88,2.87,7.38,4.2,3.27,1.74,6.55,3.43,8.93,6.41,.31,.39,.71,1.01,1.34,.48,1.07-.91,2.43-1.39,3.39-2.5,4-4.61,6.65-9.84,7.54-15.92,.35-2.41,.91-4.78,1.27-7.19,.15-.99,.66-1.48,1.53-1.3,.95,.19,.37,.99,.31,1.51-.11,.91-.49,1.8-.04,3.01,3.33-3.11,4.44-6.87,4.19-11.09-.11-1.87-.92-3.33-3.23-3.24-1.23,.05-1.46-.69-1.01-1.73,3.82-.49,5.69,.95,6.05,4.7,.36,3.82-.53,7.35-2.63,10.55-.47,.71-1.03,1.66-1.73,1.86-2.53,.73-2.79,2.74-3.21,4.82-.74,3.63-1.74,7.18-3.83,10.33-.25,.37-.45,.87-.44,1.3,.07,3.93-.06,7.88,1.02,11.72,1.27,4.55,4.1,7.1,8.91,7.87,11.88,1.91,23.67,4.22,35.17,7.91,6.21,1.99,10.55,5.65,13.67,11.4,6.46,11.91,10.2,24.57,12.38,37.9,2.6,15.9,5.94,31.68,8.9,47.53,.85,4.56,1.3,9.18,1.54,13.82,.2,3.69-1.29,6.08-4.64,7.63-7.99,3.69-16.5,5.6-25,7.62-5.61,1.34-4.92-.21-4.78,6.06,.17,7.47,.76,14.92,1.36,22.37,.06,.74,.36,1.67-.57,2.1-.77,.35-1.11-.29-1.4-.88-.49-8.95-1.45-17.88-1.43-26.85,0-1.34-.69-1.34-1.68-1.09-4,1.02-8.13,1.2-12.18,1.94-5.85,1.07-11.82,1.49-17.74,2.13-6.81,.74-13.59,1.07-20.41,1.22-4.01,.09-8.03-.12-11.98-.93-1.08-.22-2.44-.42-2.74-1.57-.79-3.03-3.23-3.17-5.6-3.65-2.31-.47-4.6-1.07-6.87-1.69-5.34-1.46-10.81-2.77-12.86-9.6-.74,4.78-1.94,5.32-5.47,3.11-.13-.08-.29-.14-.4-.25-.73-.77-1.27-.57-1.87,.23-5.93,7.87-11.59,15.88-14.83,25.34-.66,1.94-.51,4.06-1.49,5.9-1.61,.08-1.51-.99-1.39-2.06,.34-2.92,1.28-5.67,2.44-8.35,3.23-7.49,7.72-14.23,12.64-20.69,.89-1.17,1.41-1.67-.6-2.42-2.92-1.1-4.56-3.74-5.67-6.61-.47-1.21-.81-2.47-1.36-4.19-.95,1.75-1.64,3.04-2.35,4.32-.86,1.56-2.26,2.11-3.96,2.02-2.29-.12-3.27-1.41-2.64-3.61,.39-1.36,.96-2.66,1.47-3.98,.9-2.32,.8-2.45-1.81-2.26-1.51,.11-3,.06-4.41-.55-2.11-.91-2.31-2.49-.53-3.94,.43-.35,.87-.68,1.34-.96,1.22-.75,1.51-1.59,.67-2.9-.72-1.11-1.26-2.36-1.72-3.61-.8-2.18-.03-3.27,2.29-2.94,2.79,.39,5.53,1.16,8.29,1.76,.47,.17,.82,.17,.64-.49Zm9.21,25.25c.15,.27,.41,.57,.65,.33,.29-.29,.12-.68-.19-.96-.72-1.8-2.26-3.71-1.38-5.53,.99-2.06-.02-2.97-1.13-4.16-.59-.63-1.12-1.32-1.65-1.99-.29-.37-.21-1.25-1.05-.8-.51,.27-.85,.83-.65,1.39,1.48,4.05,1.57,8.76,5.4,11.73Zm35.46,1.73c.21,3.77,.66,7.5,1.67,11.17,.74,2.69,2.33,3.8,5.01,4.05,5.82,.54,11.64,.48,17.46,.3,4.09-.13,8.25,0,12.23-.55,3.46-.49,7.01-.85,10.48-1.37,3.68-.55,7.53-.74,11.12-1.55,6.43-1.45,12.96-2.37,19.34-4,7.16-1.83,14.35-3.53,21.14-6.57,3.02-1.35,4.62-3.37,4.13-6.77-.09-.62-.08-1.25-.13-1.88-.63-8.25-2.29-16.34-3.84-24.45-2.44-12.74-5.22-25.41-7.2-38.24-1.85-12.01-5.97-23.23-11.9-33.85-2.7-4.84-6.46-7.84-11.68-9.54-10.57-3.45-21.42-5.63-32.32-7.7-2.07-.39-2.83,.07-3.49,2.04-3.14,9.4-6.64,18.66-11.45,27.37-.87,1.58-2.04,2.97-2.61,4.73-4.36,13.46-8.84,26.89-13.11,40.38-3.68,11.63-8.6,22.48-17.97,30.75-.71,.63-.49,1.06-.17,1.79,2.07,4.74,6.29,5.77,10.78,6.39,.58,.08,1.12,.01,1.29-.69,.69-2.94,3.23-3.38,5.56-4.03,8.95-2.5,18.19-3.48,27.29-5.2,4.44-.84,8.97-1.15,13.43-1.95,3.07-.55,6.21-.86,9.36-1.04,2.3-.13,4.72-.83,7.09-1.18,7.63-1.14,14.82,.93,21.92,3.41,.72,.25,1.76,.5,1.42,1.52-.41,1.22-1.42,.55-2.21,.33-.6-.17-1.18-.44-1.78-.63-6.48-2.09-13-3.74-19.91-2.66-3.57,.56-7.17,.95-10.75,1.46-13.93,1.97-27.89,3.83-41.61,7-8.29,1.92-8.34,.49-8.57,11.18Zm-41.38-31.84c.05,10.21,1.69,15.04,6.82,20.25,1.58,1.61,3.09,2.22,5.18,1.97,3.84-.47,7.26-2.02,10.43-4.12,9.36-6.19,15.37-15.04,19.09-25.38,6.44-17.89,12.04-36.06,17.83-54.17,.21-.66,.51-1.33-.04-2.01-3.36-4.15-7.02-7.93-12.48-9.16-2.69-.61-4.99-.13-6.79,2.42-2.85,4.05-6.06,7.84-9.01,11.81-9.48,12.75-18.72,25.66-25.92,39.88-3.07,6.07-5.72,12.29-5.12,18.51Zm-2.66-.14l.73-.02c-.39-6.89,2.16-12.95,5.07-18.88,4.44-9.06,9.82-17.57,15.68-25.74,2.44-3.4,2.47-6.6,.87-10.15-.87-1.94-1.97-3.75-3.25-5.45-.43-.56-.58-1.18,.11-1.62,.55-.35,1.07-.1,1.44,.38,.39,.49,.76,1,1.12,1.52,1.82,2.66,3.07,5.57,3.78,8.71,.33-.11,.52-.11,.59-.2,4.75-6.26,9.48-12.54,14.26-18.77,.66-.86,.26-1.4-.12-2.09-3.07-5.58-6.14-11.15-9.16-16.75-.45-.83-.9-1.4-1.91-1.46-7.61-.41-15.2-1.48-22.84-.96-6.93,.47-12.68,3.1-16.04,9.53-3.65,7-5.17,14.32-3.92,22.31,2.37,15.16,5.83,30.08,9.59,44.94,1.25,4.93,2.65,9.82,3.98,14.73Zm21.57-120.62c.05,2.55,.58,4.98,2.1,7,2.03,2.7,4.31,5.22,6.34,7.92,.63,.84,2.5,1.84,1.13,2.94-1.51,1.22-1.74-1.1-2.59-1.76-.79-.61-1.29-1.58-1.98-2.33-.66-.73-1.14-1.7-2.35-2.23,.09,.52,.08,.67,.14,.8,.13,.28,.29,.56,.45,.83,4.72,7.73,10.39,14.38,19.32,17.48,1.85,.64,3.53,1.76,5.37,2.43,1.93,.71,2.31,1.97,1.68,3.69-.92,2.51-1.88,5-2.92,7.46-.48,1.14-.67,1.71,.96,1.94,3.84,.55,7.13,2.27,9.77,5.21,.62,.69,1.53,1.12,2.52,1.83,1.72-6.56,3.32-12.8,5.01-19.01,.98-3.61,.04-6.65-2.37-9.38-2.91-3.3-5.77-6.63-8.71-9.91-1.26-1.4-2.66-2.65-4.35-3.58-4.13-2.27-8.17-4.72-12.34-6.92-4.31-2.27-7.63-5.45-10.03-9.67-.47-.83-.84-1.93-2.17-1.96-.03,.24-.15,.48-.08,.67,1.87,5.65,3.96,11.15,9.49,14.4,.87,.52,1.65,1.2,2.45,1.84,.62,.5,1.79,.87,.97,1.96-.7,.94-1.4,.09-2.02-.32-5.45-3.57-10.02-7.85-11.71-14.47-.27-1.06-.75-2.07-1.16-3.09-.36-.9-.39-2.58-1.51-2.3-1.33,.32-.81,1.95-.72,3.07,.04,.46,.26,.9,.39,1.36,1.7,6.08,4.27,11.64,9.37,15.7,.37,.29,.76,.62,.96,1.02,.26,.51,.65,1.1,.1,1.68-.7,.74-1.14-.04-1.48-.39-1.94-1.95-3.78-4.01-5.74-5.94-2.26-2.24-2.57-5.45-4.28-8Zm-3.46,155.45c-.76-2.01,.55-4.42-2.66-4.38-.4,0-.74-.27-.82-.72-.1-.56,.27-.9,.7-1.11,1.62-.8,3.28-1.51,5.1-1.74,.64-.08,1.34-.02,1.64,.65,.32,.69,.03,1.22-.76,1.38-.46,.1-.37,.37-.24,.67,1.35,3.24,2.35,6.69,6.11,8.22,4.76,1.93,9.76,2.94,14.7,4.18,1.12,.28,1.52-.03,1.24-1.33-.81-3.69-1.35-7.48-.92-11.23,.29-2.58-.68-3.17-2.91-3.43-4.04-.47-7.69-1.88-9.59-5.87-.79-1.65-1.41-1.66-2.91-.68-4.92,3.23-10.06,5.88-16.29,4.45-1.29-.29-1.25,.78-1.04,1.5,1.26,4.29,3.99,7.3,8.66,9.43Zm-1.55-162.86q-.51,8.71-5.28,17.88c-2.68,5.16-2.27,8.13,1.79,12.3,.99,1.01,2.53,1.72,3.03,2.91,.82,1.94,2.22,1.83,3.75,1.91,1.57,.08,3.13,.09,4.69,.4,2.51,.49,5.06,.39,7.56-.12,1.02-.21,1.25-.58,.36-1.53-3.56-3.79-6.66-7.96-9.39-12.38-2.6-4.2-2.33-9.18-3.44-13.79-.15-.61,.33-1.35,.47-2.04,.18-.85,.4-1.73-.31-2.45-.98-.98-2-1.93-3.22-3.09Zm19,35.97c-1.88-.05-2.97,1.54-2.11,3.14,2.5,4.63,5.01,9.26,7.56,13.86,.39,.71,1,2.18,1.42,1.85,1.03-.79,2.68-.53,3.26-2.04,1.13-2.93,2.36-5.82,3.53-8.73,.2-.49,.54-1.15-.12-1.48-4.43-2.21-8.88-4.37-13.32-6.55-.07-.03-.15-.03-.23-.05Zm32.66-1.5c.65,3.16,.71,5.65,.06,8.11-1.55,5.84-3.13,11.66-4.71,17.49-.22,.82-.74,1.55-.69,2.46,.04,.81,.49,1.36,1.17,1.61,.93,.34,.92-.62,1.14-1.08,3.7-7.55,6.6-15.41,9.33-23.35,.26-.77,.4-1.38-.59-1.62-2.04-.49-3.62-1.76-5.72-3.62ZM151.09-57.05c-.57-.8-.37-2.24-1.31-2.57-.78-.28-1.48,.78-1.81,1.53-1.63,3.64-3.19,7.32-4.73,11-.19,.45-.65,1.03-.08,1.5,.53,.43,1.18,.3,1.8,.13,.59-.16,.85-.65,1.17-1.09,2.23-3.05,2.23-7.19,4.91-10.01,.08-.09,.04-.29,.05-.48Zm-14.25,1.29c2.65,1.02,4.73,.69,6.91-.68,2.01-1.27,2.58-3.76,4.61-4.87,1.15-.63,.72-1.34,.39-2.13-.55-1.3-1.3-.37-1.87-.08-3.76,1.86-6.6,4.92-10.03,7.76Zm76.11-124.74c-1.59,1.41-3,2.73-4.48,3.95-.67,.55-.62,.9-.09,1.5,1.83,2.07,3.62,4.19,5.81,6.74-.45-4.43-.84-8.2-1.24-12.19Zm-74.89,114.3q1.52,5.14,5.51,2.37c.31-.21,.58-.47,1-.81-2.16-.69-4.14-1.36-6.51-1.55Zm33.74-114.73l.6,.27c.04-.13,.14-.35,.1-.39-.16-.13-.36-.2-.55-.29l-.15,.41Z"/><path class="f" d="M144.03-5.39c.97-1.84,.82-3.96,1.49-5.9,3.23-9.46,8.9-17.47,14.83-25.34,.6-.8,1.14-.99,1.87-.23,.11,.11,.27,.17,.4,.25,3.54,2.21,4.74,1.68,5.47-3.11,2.05,6.83,7.52,8.14,12.86,9.6,2.27,.62,4.56,1.22,6.87,1.69,2.38,.48,4.81,.63,5.6,3.65,.3,1.15,1.66,1.35,2.74,1.57,3.95,.81,7.97,1.02,11.98,.93,6.81-.15,13.6-.47,20.41-1.22,5.92-.65,11.89-1.06,17.74-2.13,4.05-.74,8.19-.92,12.18-1.94,.99-.25,1.68-.26,1.68,1.09-.02,8.98,.95,17.9,1.43,26.85-12.79,2.49-25.62,4.72-38.49,6.81-13.92,2.26-27.67,1.56-41.43-.88-11.61-2.06-23.13-4.52-34.15-8.84-1.43-.56-3.05-1.02-3.48-2.85Z"/></g></g><g><path class="k" d="M253.88,34.9c0-.3,.06-.51,.18-.61,.12-.1,.32-.15,.61-.15h10.5c.77,0,1.43,.09,1.98,.27,.55,.18,1,.48,1.35,.9,.35,.42,.61,.95,.76,1.61s.22,1.47,.2,2.42c-.02,1.38-.13,2.94-.32,4.69-.19,1.75-.44,3.57-.75,5.48-.3,1.91-.65,3.84-1.05,5.8-.4,1.96-.81,3.83-1.23,5.61-.08,.3-.16,.52-.24,.65s-.26,.17-.55,.11l-4.23-.88c-.14-.02-.27-.05-.38-.08-.11-.03-.21-.09-.29-.17s-.13-.19-.14-.32c0-.13,.02-.32,.08-.56,.43-1.54,.83-3.17,1.22-4.88,.38-1.71,.72-3.4,1.02-5.05s.53-3.23,.72-4.73c.18-1.5,.27-2.82,.27-3.96,0-.77-.11-1.27-.33-1.49-.22-.22-.6-.33-1.13-.33h-7.45c-.28,0-.49-.05-.61-.15-.12-.1-.18-.3-.18-.61v-3.56Zm20.75,27.54c-.28,0-.49-.05-.61-.15-.12-.1-.18-.3-.18-.61v-26.78c0-.3,.06-.51,.18-.61,.12-.1,.32-.15,.61-.15h4.26c.28,0,.49,.05,.61,.15,.12,.1,.18,.3,.18,.61v26.78c0,.3-.06,.51-.18,.61-.12,.1-.33,.15-.61,.15h-4.26Z"/><path class="k" d="M292.62,33.99c1.28,0,2.39,.14,3.35,.41,.95,.27,1.76,.63,2.43,1.08,.67,.45,1.22,.97,1.64,1.57,.43,.6,.76,1.21,1,1.84h3.23v-3.99c0-.3,.06-.51,.18-.61,.12-.1,.32-.15,.61-.15h4.26c.28,0,.49,.05,.61,.15,.12,.1,.18,.3,.18,.61v14.12c0,.3-.06,.51-.18,.61-.12,.1-.33,.15-.61,.15h-4.26c-.28,0-.49-.05-.61-.15-.12-.1-.18-.3-.18-.61v-5.08h-2.98c-.18,.73-.47,1.43-.85,2.11-.38,.68-.92,1.29-1.61,1.83-.69,.54-1.54,.97-2.56,1.29-1.01,.32-2.23,.49-3.65,.49-1.79,0-3.25-.25-4.4-.75-1.15-.5-2.05-1.13-2.72-1.9-.67-.77-1.14-1.62-1.4-2.54-.26-.92-.4-1.81-.4-2.66s.13-1.73,.4-2.65c.26-.91,.73-1.75,1.41-2.53s1.59-1.4,2.74-1.9c1.15-.5,2.6-.75,4.37-.75Zm-6.51,17.95c0-.3,.06-.51,.18-.61s.32-.15,.61-.15h22.42c.28,0,.49,.05,.61,.15,.12,.1,.18,.3,.18,.61v10.35c0,.3-.06,.51-.18,.61-.12,.1-.33,.15-.61,.15h-4.26c-.28,0-.49-.05-.61-.15-.12-.1-.18-.3-.18-.61v-6.06h-17.37c-.28,0-.49-.05-.61-.15-.12-.1-.18-.3-.18-.61v-3.53Zm6.51-7.24c.37,0,.74-.05,1.13-.17,.38-.11,.74-.28,1.06-.52,.32-.23,.59-.53,.79-.9s.3-.81,.3-1.34-.1-.95-.3-1.32c-.2-.38-.47-.67-.79-.9-.32-.22-.68-.39-1.06-.5-.39-.11-.76-.17-1.13-.17s-.74,.06-1.13,.17c-.39,.11-.74,.28-1.07,.5-.32,.22-.59,.52-.79,.9-.2,.38-.3,.82-.3,1.32s.1,.97,.3,1.34,.47,.67,.79,.9c.32,.23,.68,.41,1.07,.52,.38,.11,.76,.17,1.13,.17Z"/><path class="k" d="M314.07,45.58c0-.3,.06-.51,.18-.61,.12-.1,.32-.15,.61-.15h25.68c.28,0,.49,.05,.61,.15,.12,.1,.18,.3,.18,.61v2.68c0,.3-.06,.51-.18,.61-.12,.1-.33,.15-.61,.15h-25.68c-.28,0-.49-.05-.61-.15-.12-.1-.18-.3-.18-.61v-2.68Zm13.63-1.7c-2.19,0-4.04-.1-5.55-.3-1.51-.2-2.73-.51-3.65-.91-.92-.41-1.59-.93-2.01-1.57-.42-.64-.62-1.38-.62-2.24s.21-1.62,.62-2.25,1.1-1.15,2.04-1.55c.94-.41,2.17-.71,3.67-.91s3.34-.3,5.51-.3,4.01,.1,5.51,.3,2.72,.51,3.67,.91c.94,.41,1.62,.92,2.04,1.55,.42,.63,.62,1.38,.62,2.25s-.21,1.6-.62,2.24c-.42,.64-1.09,1.16-2.01,1.57-.92,.41-2.14,.71-3.65,.91s-3.36,.3-5.55,.3Zm12.05,17.89c.04,.24,0,.4-.15,.46-.14,.06-.36,.11-.64,.15-1.4,.14-2.76,.25-4.08,.33s-2.67,.15-4.05,.2c-1.38,.05-2.83,.09-4.37,.11-1.53,.02-3.22,.03-5.07,.03-.93,0-1.74-.08-2.43-.24-.69-.16-1.26-.43-1.7-.79-.45-.37-.78-.84-.99-1.43-.21-.59-.32-1.32-.32-2.19v-3.1c0-.28,.06-.48,.18-.58,.12-.1,.32-.15,.61-.15h17.37v-.88h-17.37c-.53,0-.79-.29-.79-.88v-1.86c0-.3,.06-.51,.18-.61s.32-.15,.61-.15h21.85c.28,0,.49,.05,.61,.15,.12,.1,.18,.3,.18,.61v6.36c0,.3-.06,.51-.18,.61-.12,.1-.33,.15-.61,.15h-17.37v.49c0,.32,.12,.52,.37,.59,.24,.07,.62,.11,1.13,.11,1.7,0,3.27-.01,4.7-.03,1.43-.02,2.78-.05,4.06-.09,1.28-.04,2.5-.09,3.67-.15,1.17-.06,2.35-.14,3.54-.24,.28-.02,.48,.02,.58,.11,.1,.09,.17,.25,.21,.47l.27,2.46Zm-12.05-22.12c1.3,0,2.34-.01,3.13-.04,.79-.03,1.41-.08,1.86-.15,.45-.07,.75-.16,.9-.26s.23-.21,.23-.33-.08-.23-.23-.33c-.15-.1-.45-.19-.9-.26-.45-.07-1.07-.12-1.86-.15s-1.84-.05-3.13-.05-2.35,.02-3.15,.05c-.8,.03-1.42,.08-1.86,.15-.44,.07-.73,.16-.88,.26-.15,.1-.23,.21-.23,.33s.08,.23,.23,.33,.45,.19,.88,.26c.44,.07,1.05,.12,1.86,.15,.8,.03,1.85,.04,3.15,.04Z"/><path class="k" d="M263.8,69.9c.28,0,.49,.05,.61,.15,.12,.1,.18,.3,.18,.61v1.52h5.05c.28,0,.49,.05,.61,.15,.12,.1,.18,.3,.18,.61v3.56c0,.3-.06,.51-.18,.61-.12,.1-.33,.15-.61,.15h-4.99c.08,.49,.22,.95,.43,1.4,.2,.45,.5,.86,.9,1.25s.89,.72,1.49,1c.6,.28,1.32,.52,2.17,.7,.08,.02,.18,.04,.29,.06s.22,.07,.32,.14c.1,.07,.19,.17,.26,.3s.11,.32,.11,.56v3.38c0,.36-.1,.58-.29,.65-.19,.07-.36,.1-.5,.08-.71-.06-1.43-.17-2.17-.32-.74-.15-1.47-.37-2.18-.64-.71-.27-1.39-.62-2.04-1.05s-1.23-.93-1.73-1.52c-.53,.59-1.11,1.1-1.75,1.52-.64,.43-1.31,.78-2.02,1.05-.71,.27-1.44,.49-2.18,.64-.74,.15-1.47,.26-2.18,.32-.14,.02-.31,0-.5-.08-.19-.07-.29-.29-.29-.65v-3.38c0-.24,.04-.43,.11-.56s.16-.23,.26-.3c.1-.07,.21-.12,.32-.14s.21-.04,.29-.06c.85-.18,1.58-.42,2.18-.7,.6-.28,1.09-.62,1.48-1,.38-.39,.68-.8,.88-1.25,.2-.45,.34-.91,.43-1.4h-4.99c-.28,0-.49-.05-.61-.15-.12-.1-.18-.3-.18-.61v-3.56c0-.3,.06-.51,.18-.61,.12-.1,.32-.15,.61-.15h5.08v-1.52c0-.3,.06-.51,.18-.61,.12-.1,.32-.15,.61-.15h4.2Zm-8.82,19.02c0-.3,.06-.51,.18-.61,.12-.1,.32-.15,.61-.15h22.46c.28,0,.49,.05,.61,.15,.12,.1,.18,.3,.18,.61v3.07c0,.3-.06,.51-.18,.61-.12,.1-.32,.15-.61,.15h-6.85c.77,.59,1.75,1.04,2.94,1.37s2.51,.54,3.97,.64c.06,0,.14,0,.24,.03,.1,.02,.2,.06,.29,.12,.09,.06,.17,.15,.23,.27s.09,.29,.09,.52v2.98c0,.22-.04,.4-.11,.52-.07,.12-.16,.21-.27,.26-.11,.05-.22,.08-.33,.09-.11,0-.21,.02-.29,.02-1.4-.04-2.69-.17-3.88-.4-1.19-.22-2.25-.51-3.2-.87-.94-.36-1.76-.76-2.45-1.2-.69-.45-1.24-.91-1.64-1.4-.41,.49-.95,.95-1.63,1.4-.68,.45-1.49,.85-2.43,1.2-.94,.35-2.01,.64-3.2,.87-1.19,.22-2.48,.35-3.88,.4-.08,0-.18,0-.29-.02-.11-.01-.22-.04-.33-.09-.11-.05-.2-.14-.27-.26-.07-.12-.11-.29-.11-.52v-2.98c0-.22,.03-.4,.09-.52s.14-.21,.23-.27c.09-.06,.19-.1,.29-.12,.1-.02,.18-.03,.24-.03,1.46-.1,2.78-.32,3.97-.64s2.17-.78,2.94-1.37h-6.82c-.29,0-.49-.05-.61-.15-.12-.1-.18-.3-.18-.61v-3.07Zm27.6-8.92c0,.3-.06,.51-.18,.61-.12,.1-.33,.15-.61,.15h-2.8v5.39c0,.3-.06,.51-.18,.61-.12,.1-.33,.15-.61,.15h-4.26c-.28,0-.49-.05-.61-.15-.12-.1-.18-.3-.18-.61v-14.73c0-.3,.06-.51,.18-.61,.12-.1,.32-.15,.61-.15h4.26c.28,0,.49,.05,.61,.15s.18,.3,.18,.61v4.29h2.8c.28,0,.49,.05,.61,.15,.12,.1,.18,.3,.18,.61v3.53Z"/><path class="k" d="M301.53,84.17c0,2.13-.16,4.03-.47,5.71s-.82,3.09-1.52,4.24c-.7,1.16-1.62,2.04-2.75,2.65s-2.53,.91-4.17,.91-3.03-.3-4.17-.91-2.05-1.49-2.75-2.65c-.7-1.16-1.21-2.57-1.52-4.24-.32-1.67-.47-3.58-.47-5.71s.16-4.03,.47-5.71c.31-1.67,.82-3.09,1.52-4.25,.7-1.16,1.62-2.04,2.75-2.65,1.14-.61,2.53-.91,4.17-.91s3.03,.3,4.17,.91c1.14,.61,2.05,1.49,2.75,2.65,.7,1.16,1.21,2.57,1.52,4.25,.31,1.67,.47,3.58,.47,5.71Zm-5.69,0c0-1.87-.11-3.36-.32-4.47-.21-1.12-.48-1.97-.81-2.57-.33-.6-.67-.99-1.05-1.17-.38-.18-.73-.27-1.05-.27s-.67,.09-1.05,.27c-.38,.18-.73,.57-1.05,1.17-.33,.6-.59,1.46-.81,2.57-.21,1.12-.32,2.61-.32,4.47s.11,3.36,.32,4.47c.21,1.12,.48,1.97,.81,2.57,.32,.6,.67,.99,1.05,1.17,.38,.18,.72,.27,1.05,.27s.67-.09,1.05-.27c.38-.18,.72-.57,1.05-1.17,.32-.6,.59-1.46,.81-2.57,.21-1.12,.32-2.61,.32-4.47Zm17.16,1.13c0,.3-.06,.51-.18,.61-.12,.1-.33,.15-.61,.15h-2.8v12.14c0,.3-.06,.51-.18,.61-.12,.1-.33,.15-.61,.15h-4.26c-.28,0-.49-.05-.61-.15-.12-.1-.18-.3-.18-.61v-26.78c0-.3,.06-.51,.18-.61,.12-.1,.32-.15,.61-.15h4.26c.28,0,.49,.05,.61,.15s.18,.3,.18,.61v9.58h2.8c.28,0,.49,.05,.61,.15,.12,.1,.18,.3,.18,.61v3.53Z"/><path class="k" d="M253.21,130.84c0-.3,.06-.51,.18-.61,.12-.1,.32-.15,.61-.15h25.68c.28,0,.49,.05,.61,.15,.12,.1,.18,.3,.18,.61v3.56c0,.3-.06,.51-.18,.61-.12,.1-.33,.15-.61,.15h-25.68c-.28,0-.49-.05-.61-.15-.12-.1-.18-.3-.18-.61v-3.56Zm25.38-6.42c.04,.3-.01,.5-.15,.58-.14,.08-.36,.14-.64,.18-1.4,.14-2.84,.26-4.32,.37s-2.96,.19-4.44,.26-2.94,.12-4.37,.15c-1.43,.03-2.79,.04-4.09,.04-1.95,0-3.34-.52-4.18-1.57s-1.26-2.71-1.26-5.01v-11.5c0-.3,.06-.51,.18-.61,.12-.1,.32-.15,.61-.15h21.51c.28,0,.49,.05,.61,.15s.18,.3,.18,.61v3.56c0,.3-.06,.51-.18,.61-.12,.1-.33,.15-.61,.15h-16.46v6.6c0,.73,.15,1.27,.46,1.61,.3,.34,.86,.51,1.67,.49,2.21-.04,4.56-.12,7.06-.24s4.94-.31,7.33-.58c.28-.04,.48,0,.58,.12,.1,.12,.17,.33,.21,.64l.3,3.53Z"/><path class="k" d="M299.43,115.81c0,.3-.06,.51-.18,.61s-.32,.15-.61,.15h-9.49c-.22,0-.37,.05-.43,.14-.06,.09-.09,.25-.09,.47v.3c0,.35,.09,.56,.26,.65,.17,.09,.45,.14,.84,.14,.99,0,1.92-.01,2.78-.04,.86-.03,1.68-.07,2.46-.11,.78-.04,1.54-.1,2.28-.17,.74-.07,1.49-.14,2.24-.2,.28-.04,.48,0,.58,.11s.17,.32,.21,.62l.24,2.77c.04,.3-.01,.5-.15,.58-.14,.08-.36,.14-.64,.18-2.01,.16-3.99,.29-5.95,.38-1.96,.09-3.91,.14-5.86,.14-.97,0-1.79-.07-2.43-.2-.65-.13-1.18-.36-1.58-.68-.41-.32-.7-.77-.87-1.34-.17-.57-.26-1.3-.26-2.19v-4.62c0-.3,.06-.51,.18-.61,.12-.1,.32-.15,.61-.15h9.46c.22,0,.37-.04,.44-.11,.07-.07,.11-.2,.11-.38v-.43c0-.2-.03-.33-.09-.4-.06-.06-.19-.09-.4-.09h-9.52c-.28,0-.49-.05-.61-.15-.12-.1-.18-.3-.18-.61v-2.65c0-.3,.06-.51,.18-.61,.12-.1,.32-.15,.61-.15h12.9c1.09,0,1.86,.26,2.3,.79s.65,1.35,.65,2.46v5.39Zm9.16,16.64c0,1.28-.27,2.2-.82,2.77-.55,.57-1.37,.85-2.46,.85h-17.46c-1.1,0-1.92-.29-2.46-.85-.55-.57-.82-1.49-.82-2.77v-7.79c0-.3,.06-.51,.18-.61,.12-.1,.32-.15,.61-.15h4.26c.28,0,.49,.05,.61,.15,.12,.1,.18,.3,.18,.61v1.16h12.35v-1.16c0-.3,.06-.51,.18-.61,.12-.1,.32-.15,.61-.15h4.26c.28,0,.49,.05,.61,.15,.12,.1,.18,.3,.18,.61v7.79Zm-6.72-.73c.34,0,.58-.07,.7-.2,.12-.13,.18-.39,.18-.78v-.73h-12.35v.73c0,.38,.06,.64,.18,.78,.12,.13,.35,.2,.7,.2h10.59Zm1.67-9.04c-.28,0-.49-.05-.61-.15-.12-.1-.18-.3-.18-.61v-14c0-.3,.06-.51,.18-.61,.12-.1,.32-.15,.61-.15h4.26c.28,0,.49,.05,.61,.15,.12,.1,.18,.3,.18,.61v14c0,.3-.06,.51-.18,.61-.12,.1-.33,.15-.61,.15h-4.26Z"/><path class="k" d="M321.19,128.89c1.5-.04,2.94-.1,4.32-.17,1.38-.07,2.83-.18,4.35-.32,.28-.04,.48,0,.58,.11s.17,.32,.21,.62l.3,3.53c.04,.3-.01,.5-.15,.58-.14,.08-.36,.14-.64,.18-2.01,.16-3.94,.29-5.8,.38-1.86,.09-3.76,.14-5.71,.14s-3.34-.52-4.18-1.57c-.84-1.04-1.26-2.71-1.26-5.01,0-1.78,0-3.51,.03-5.17,.02-1.66,.05-3.29,.08-4.87,.03-1.58,.07-3.15,.12-4.7s.12-3.12,.2-4.7c.02-.3,.09-.51,.2-.61s.31-.15,.59-.15h4.17c.28,0,.49,.05,.62,.15s.19,.3,.17,.61c-.06,1.54-.12,3.07-.18,4.58-.06,1.51-.11,3.04-.14,4.58-.03,1.54-.05,3.11-.06,4.72,0,1.6,0,3.27,.05,4.99,.02,.73,.18,1.27,.47,1.61s.85,.51,1.66,.49Zm12.78,6.57c-.28,0-.49-.05-.61-.15-.12-.1-.18-.3-.18-.61v-26.78c0-.3,.06-.51,.18-.61,.12-.1,.32-.15,.61-.15h4.26c.28,0,.49,.05,.61,.15,.12,.1,.18,.3,.18,.61v26.78c0,.3-.06,.51-.18,.61-.12,.1-.33,.15-.61,.15h-4.26Z"/><path class="k" d="M349.33,112.07c-.1,2.37-.16,4.75-.18,7.14s0,4.91,.03,7.59c.02,.73,.18,1.27,.47,1.61s.85,.51,1.66,.49c1.5-.04,2.94-.1,4.32-.17,1.38-.07,2.83-.18,4.35-.32,.28-.04,.48,0,.58,.11s.17,.32,.21,.62l.3,3.53c.04,.3-.01,.5-.15,.58s-.35,.14-.64,.18c-2.01,.16-3.94,.29-5.8,.38-1.86,.09-3.76,.14-5.71,.14s-3.34-.52-4.18-1.57-1.26-2.71-1.26-5.01c0-1.78,0-3.51,.03-5.17s.05-3.29,.08-4.87c.03-1.58,.07-3.15,.12-4.7,.05-1.55,.12-3.12,.2-4.7,.02-.3,.09-.51,.2-.61,.11-.1,.31-.15,.59-.15h14.48c.28,0,.49,.05,.61,.15,.12,.1,.18,.3,.18,.61v3.38c0,.3-.06,.51-.18,.61-.12,.1-.33,.15-.61,.15h-9.71Zm23,9.74c0,.3-.06,.51-.18,.61-.12,.1-.33,.15-.61,.15h-2.8v12.14c0,.3-.06,.51-.18,.61-.12,.1-.33,.15-.61,.15h-4.26c-.28,0-.49-.05-.61-.15-.12-.1-.18-.3-.18-.61v-26.78c0-.3,.06-.51,.18-.61,.12-.1,.32-.15,.61-.15h4.26c.28,0,.49,.05,.61,.15s.18,.3,.18,.61v9.58h2.8c.28,0,.49,.05,.61,.15,.12,.1,.18,.3,.18,.61v3.53Z"/></g><g><g><path class="j" d="M125.15,235.75c3.98-.43,8.14-4.74,8.9-9.34-6.64,1.05-13.26,.99-20.13-.01,2.29,6.25,6.72,9.84,11.22,9.35Z"/><path class="j" d="M206.65,78.73l.34-.4-.34,.4h0Z"/><path class="j" d="M116.69,277.29h0Z"/><path class="j" d="M120.12,249.74c2.67,.89,5.33,1.12,8.02,.14,11.93-4.35,20.93-11.68,24.65-24.35,1-3.38,1.88-6.79,2.56-10.26,.13-.67-.02-2.03,.99-1.84,1.2,.23,.39,1.44,.4,2.22,0,.62-.53,1.19-.21,1.85,4.17-.16,8.96-6.32,8.58-12.03-.23-3.37-2.35-6.77-7.01-5.97-.56,.1-1.39,.6-1.54-.44-.12-.87,.76-.94,1.34-1.07,.7-.15,1.45-.23,2.15-.14,1,.12,1.46-.3,1.73-1.19,3.19-10.33,4.22-20.72,1.15-31.28-.37-1.28-.85-1.58-2.2-1.25-1.78,.44-3.64,.57-5.48,.7-5.71,.4-11.43,.74-17.64,1.13,3.86,1.98,5.5,5.14,6.63,8.63,1.08,3.36,1.92,6.8,3.11,10.11,1.67,4.64,3.6,9.16,9.84,8.77,.56-.04,.93,.31,.93,.86,0,.43-.34,.67-.76,.81-1.57,.56-5.31-.57-6.65-1.81-3.03-2.79-4.37-6.46-5.56-10.23-1.09-3.43-2.09-6.89-3.19-10.32-1.51-4.71-5.62-5.89-9.35-6.74-3.75-.85-7.85-.19-12.43-.19,1.06,.69,1.53,.96,1.95,1.29,.39,.31,.7,.74,.33,1.23-.3,.4-.71,.13-1.09,0-4.03-1.25-5.26-.96-7.21,2.68-2.52,4.7-4.72,9.57-7.16,14.58,1.89-.23,3.58-.23,5.19,.26,.77,.23,2.22,.21,1.97,1.28-.32,1.4-1.48,.27-2.19,.11-3.14-.7-5.83-.58-8.25,2.15-3.1,3.5-7.17,5.33-11.98,5.12-.71-.03-1.62,.05-1.51-1.02,.09-.93,.97-.65,1.55-.65,3.21-.05,6.21-.79,8.77-2.82,2.99-2.37,5.2-5.4,6.87-8.8,1.45-2.95,2.77-5.96,4.2-8.92,1.21-2.51,2.54-4.94,5.57-6.39-.65-.08-.87-.12-1.08-.12-9.32-.08-18.63-.27-27.88-1.46-3.83-.49-3.82-.52-4.59,3.33-1.78,8.91-.21,17.54,2.04,26.15,.65,2.48,1.12,4.92,4.63,3.98,.21-.06,.49,.03,.7,.13,.53,.24,1.45,.14,1.25,1.1-.21,1.02-1,.47-1.57,.43-4.02-.35-6.16,1.3-6.92,5.27-.3,1.56,.02,3.05,.42,4.52,1.17,4.3,4.65,7.73,8.24,8.12-.17-.96-.33-1.89-.52-2.8-.11-.51-.16-1.04,.4-1.22,.83-.26,.85,.43,.97,.98,.63,2.73,1.29,5.46,1.91,8.19,3.13,13.81,11.62,22.69,24.93,27.15Zm37.58-40.6c.52-1.2,1.08-2.46,2.34-3.07,.39-.19,.83,.27,.67,.67-.48,1.24-1.28,2.29-2.19,3.14-.61-.03-.98-.4-.83-.74Zm-18.71-2.77c-1.71-.01-2.93-1.41-2.97-3.41-.04-1.95,1.39-3.74,3.04-3.65,2.11,.12,2.78,1.57,2.89,3.01,.05,2.55-1.19,4.06-2.96,4.04Zm-4.99-20.2c1.4-.62,2.85-1.04,4.36-.88,1.86-.15,3.53,.32,5.11,1.16,.39,.21,.97,.45,.74,1.05-.29,.75-.92,.51-1.4,.25-2.73-1.49-5.49-1.41-8.31-.32-.43,.17-1.02,.3-1.25-.26-.25-.6,.32-.82,.74-1Zm-11.86,19.17c.39-2.3,1.1-4.51,2.07-6.63,.24-.52,.46-1.14,1.2-.72,.54,.31,.33,.82,.13,1.27-1.06,2.35-1.84,4.76-2.09,7.34-.25,2.49,.34,4.6,2.46,6.12,1.03,.74,1.72,1.67,1.68,3-.06,1.64-1.04,2.81-2.06,3.96-.29,.33-.68,.52-1,.13-.17-.2-.24-.65-.13-.88,.25-.49,.63-.92,.97-1.36,1.16-1.46,1.05-2.71-.49-3.85-2.9-2.13-3.3-5.13-2.74-8.4Zm-8.18,19.62c5.9,.96,11.82,1.12,17.75,.36,.32-.04,.64-.06,.96-.08,1.09-.06,2.49-.98,3.2-.1,.78,.98-.27,2.28-.74,3.32-2.09,4.66-4.93,8.49-9.36,8.66-6.83-.05-12.59-5.24-13.53-10.91-.29-1.78,.81-1.41,1.72-1.26Zm-5.07-25.82c2.09,.18,2.81,1.67,2.83,3.51,.02,1.85-.73,3.32-2.79,3.54-1.7,.19-3.08-1.44-3.1-3.51-.02-2.03,1.35-3.69,3.06-3.54Zm-18.7,10.72c-.45-.03-2.46-2.92-2.36-3.37,.09-.39,.43-.54,.7-.42,1.32,.58,1.83,1.85,2.35,3.06,.14,.33-.18,.75-.69,.74Z"/><path class="j" d="M206.4,140.89c-2.51-1.2-4.74-2.87-6.88-4.76,0,3.7,0,7.15,0,10.6,0,.69,.4,1.79-.36,1.97-1.93,.45-3.24,2.08-5.45,2.14-15.97,.41-31.93,1.07-47.9,1.49-2.55,.07-3.42,.84-2.89,3.26,.07,.31,.08,.64,.05,.96-.22,2.24,.74,2.94,3.01,2.99,4.89,.11,9.78,.35,14.62,1.21,1.65,.29,2.8,.83,3.4,2.71,3.43,10.79,2.88,21.51-.32,32.19-.56,1.87-.96,3.37,.97,4.7,.81,.56,1.14,1.69,1.46,2.7,1.85,5.99-2.07,13.64-8.28,15.71-1.51,.51-2.1,1.27-2.46,2.73-1.55,6.35-3.71,12.44-8.04,17.52-.44,.51-.6,1.05-.64,1.74-.21,4.02-.09,8.03,.15,12.03,.05,.86,.09,2.08,.63,2.49,3.17,2.44,4.85,6.17,7.86,8.73,.83,.71,1.27,.82,2.18,.14,3.8-2.84,8.05-4.91,12.3-6.99,9.5-4.66,19.78-7.42,29.25-12.17,18.68-9.38,37.65-18.19,55.87-28.47,.81-.46,1.33-.63,.44-1.63-1.71-1.92-2.95-4.19-4.23-6.41-2.72-4.72-5.17-9.6-8.52-13.93-11.03-14.28-22.26-28.41-34.16-41.98-2.8-3.19-3.74-5.85-1.69-9.52,.38-.68,.94-1.52-.37-2.14Zm-34.92,23.95c-.17-2.25-.56-4.02-2.77-4.69,2.79-.31,2.06-2.76,2.86-4.41,1.22,1.39,.71,3.92,3.21,4.34-2.55,.46-1.81,3.09-3.29,4.76Zm10.59,6.16q-1.34-2.46-.35-5.53,1.19,1.66,.35,5.53Z"/><path class="f" d="M200.26,350.91c.49-8.73,.92-17.46,2.65-26.07,.84-4.2,2.66-7.69,5.8-10.77,25.5-25.02,50.89-50.15,76.27-75.29,4.21-4.17,8.48-8.3,10.92-13.92,4.67-10.74,2.67-21.23-6.07-30.23-11.53-11.86-23.32-23.46-35.24-34.93-11.34-10.91-22.68-21.82-33.93-32.81-1.49-1.45-2.05-1.11-3.09,.37-4.17,5.9-8.26,11.82-10.42,18.85-.43,1.41-.26,2.29,.7,3.4,12.64,14.63,24.81,29.65,36.55,45.01,3.32,4.34,5.68,9.29,8.42,13.99,.28,.49,.54,.99,.85,1.46,1.05,1.61,1.89,3.44,3.5,4.54,1.81,1.23,3.42-.47,5.11-.8,5.7-1.11,11.17,.21,16.67,1.28,.47,.09,1.3,.19,1,1.01-.26,.71-1,.39-1.5,.31-2.61-.43-5.2-.96-7.81-1.37-5.72-.9-11.03,.48-15.96,3.26-19.97,11.3-40.71,21.05-61.38,30.95-6.63,3.18-13.8,5.13-20.5,8.21-4.81,2.21-9.59,4.47-13.94,7.53-1.28,.9-2.19,2-2.84,3.46-3.08,6.96-6.16,13.92-9.71,20.65-.43,.81-.62,1.96-1.78,2.06-1.29,.11-1.7-1.04-2.22-1.91-1.34-2.27-2.5-4.67-3.98-6.85-2.41-3.55-4.8-4.34-8.93-3.17-2.09,.59-4.1,1.41-5.96,2.55-2.38,1.45-3.87,3.48-4.22,6.35-.74,6-.5,12.02-.56,18.04-.02,1.63,.84,2.32,2.41,2.28,.8-.02,1.61-.03,2.41,0,1.7,.06,2.5-.71,2.52-2.44,.04-2.41,.19-4.81,.29-7.22,.02-.56-.03-1.27,.8-1.16,.58,.07,.55,.69,.54,1.17-.07,2.65-.13,5.3-.21,7.95-.01,.39-.12,.8-.28,1.16-.85,1.93-3.66,2.7-7.14,1.93-1.94-.43-2.78-1.72-2.8-3.65-.07-5.86-.01-11.72,.51-17.57,.18-2.03,.72-3.97,2.09-5.53,.93-1.05,.65-1.64-.34-2.45-2.98-2.45-5.21-2.56-8.12,0-3.15,2.77-5.65,6.13-8.2,9.43-1.7,2.2-2.21,2.07-3.81-.24-3.78-5.44-5.12-11.67-6.26-18.01-.99-5.49-1.1-5.61-6.16-3.34-11.01,4.94-22.75,7.7-34.11,11.57-5.56,1.89-10.89,4.29-15.47,8.08-6.11,5.05-8.83,12-10,19.47-2.07,13.25-2.58,26.66-3.65,40.02-.31,3.92-.48,7.85-.67,11.78-.03,.67-.38,1.44,.28,2.05h30.36c.6-.71,.28-1.55,.25-2.31-.37-9.05-.78-18.09-1.16-27.14-.03-.66-.46-1.72,.52-1.81,1.22-.11,.89,1.11,.92,1.81,.38,9.05,.71,18.1,1.08,27.14,.03,.77-.27,1.61,.32,2.31H199.66c.89-3.43,.41-6.94,.6-10.4Zm-77.59-47.5c-1.47,0-2.33-.88-2.32-2.19,.06-1.71,.9-2.49,2.28-2.47,1.48,.02,2.42,.87,2.37,2.41-.05,1.4-.98,2.24-2.32,2.25Zm-.13-12.31c-1.34-.06-2.15-.85-2.18-2.24-.03-1.51,.79-2.4,2.35-2.38,1.41,.02,2.26,.83,2.28,2.22,.03,1.51-.82,2.34-2.45,2.39Z"/><path d="M293.36,196.5c-3.14-3.84-6.74-7.32-10.27-10.82-20.25-20.16-40.82-40.01-61.47-59.77q-2.63-2.52-5.15-.04c-.85-1.97-1.05-4.04-1.28-6.08-1-9.17-2.02-18.34-2.84-27.52-.23-2.59-2.13-4.61-2.3-6.92-.3-4.14-1.62-7.72-3.58-11.28-2.4-4.35-4.34-8.94-6.96-13.18-.58-.95-1.15-1.95-2.3-2.36-6.01-2.16-12.19-3.4-18.59-3.36-2.13,.02-2.89,1.55-1.98,3.51,.38,.82,1.31,1.35,1.37,2.37-.28,.06-.43,.12-.58,.12-12.85,.12-25.7,.23-38.54,.33-5.39,.04-6.46,1.09-6.33,6.55,.28,11.4,.62,22.79,.9,34.19,.06,2.21,0,4.42,0,6.99-3.26-1.98-6.29-3.73-9.23-5.61-3.39-2.17-6.8-1.84-10.32-.45-1.79,.7-2.31,1.87-2.01,3.76,.48,2.98,.71,6,1.1,9.44-2.76-1.56-5.1-2.9-7.47-4.21-3.05-1.69-6.12-1.44-9.24-.11-1.47,.63-2.02,1.53-1.75,3.18,.53,3.24,.85,6.52,1.29,9.78,.18,1.31,.15,2.15-1.65,1.84-1.83-.32-3.64,.16-5.42,.77-1.74,.6-2.25,1.62-1.96,3.44,1.42,8.95,2.68,17.92,4.1,26.87,.26,1.63,.19,2.32-1.78,2.55-5.53,.65-5.59,.75-6.82,6.17-2.11,9.27-.68,18.35,1.8,27.31,.76,2.76,1.97,5.35-.77,7.74-.53,.46-.69,1.44-.85,2.21-1.22,6.16,2.68,12.96,8.66,14.92,1.31,.43,1.92,1.05,2.24,2.35,1.61,6.58,3.81,12.9,8.07,18.32,.78,1,.73,12.43-.11,13.22-2.08,1.95-3.29,4.54-5.12,6.65-1.83,2.1-3.25,4.76-5.88,5.92-6.08,2.67-12.22,5.25-18.55,7.29-8.38,2.7-16.93,4.82-25.11,8.17-11.79,4.83-18.63,13.47-20.73,25.94-1.89,11.25-2.19,22.67-3.25,34.01-.64,6.86-.95,13.75-1.41,20.63h1.93c-.65-.6-.31-1.37-.28-2.05,.18-3.93,.35-7.86,.67-11.78,1.07-13.35,1.58-26.77,3.65-40.02,1.17-7.46,3.89-14.41,10-19.47,4.58-3.79,9.91-6.19,15.47-8.08,11.37-3.87,23.1-6.62,34.11-11.57,5.05-2.27,5.16-2.15,6.16,3.34,1.15,6.34,2.48,12.58,6.26,18.01,1.61,2.31,2.12,2.43,3.81,.24,2.55-3.3,5.05-6.66,8.2-9.43,2.91-2.56,5.14-2.45,8.12,0,.99,.81,1.27,1.4,.34,2.45-1.37,1.56-1.91,3.5-2.09,5.53-.52,5.85-.58,11.7-.51,17.57,.02,1.93,.87,3.23,2.8,3.65,3.47,.77,6.28,0,7.14-1.93,.16-.36,.27-.77,.28-1.16,.09-2.65,.15-5.3,.21-7.95,.01-.49,.04-1.1-.54-1.17-.82-.11-.77,.6-.8,1.16-.1,2.41-.25,4.81-.29,7.22-.03,1.73-.83,2.5-2.52,2.44-.8-.03-1.61-.02-2.41,0-1.57,.04-2.42-.64-2.41-2.28,.06-6.02-.18-12.04,.56-18.04,.35-2.87,1.84-4.9,4.22-6.35,1.86-1.13,3.87-1.96,5.96-2.55,4.13-1.17,6.52-.38,8.93,3.17,1.48,2.18,2.64,4.57,3.98,6.85,.52,.87,.92,2.02,2.22,1.91,1.17-.1,1.36-1.25,1.78-2.06,3.55-6.74,6.63-13.7,9.71-20.65,.65-1.46,1.56-2.56,2.84-3.46,4.35-3.06,9.13-5.32,13.94-7.53,6.7-3.07,13.87-5.03,20.5-8.21,20.67-9.9,41.41-19.65,61.38-30.95,4.93-2.79,10.24-4.17,15.96-3.26,2.61,.41,5.2,.95,7.81,1.37,.5,.08,1.23,.39,1.5-.31,.3-.82-.53-.92-1-1.01-5.5-1.06-10.97-2.38-16.67-1.28-1.69,.33-3.3,2.03-5.11,.8-1.61-1.1-2.45-2.93-3.5-4.54-.31-.47-.57-.97-.85-1.46-2.74-4.7-5.1-9.65-8.42-13.99-11.74-15.36-23.91-30.38-36.55-45.01-.96-1.11-1.13-1.99-.7-3.4,2.16-7.03,6.24-12.95,10.42-18.85,1.05-1.48,1.61-1.82,3.09-.37,11.26,10.99,22.6,21.9,33.93,32.81,11.92,11.47,23.71,23.07,35.24,34.93,8.75,9,10.74,19.49,6.07,30.23-2.44,5.61-6.71,9.75-10.92,13.92-25.38,25.14-50.78,50.26-76.27,75.29-3.14,3.08-4.95,6.57-5.8,10.77-1.73,8.61-2.16,17.33-2.65,26.07-.19,3.47,.29,6.98-.6,10.4h1.93c-.06-12.21,.44-24.38,2.7-36.42,.73-3.9,2.57-7.09,5.47-9.89,10.9-10.55,21.64-21.28,32.48-31.89,16.35-16.01,32.77-31.95,48.68-48.4,10.81-11.18,11.79-26.74,2.44-38.21Zm-86.37-118.16c.11,.15,.35,.37,.31,.45-.11,.21-.22,.22-.33,.17-.11-.06-.22-.18-.32-.22h0c-1.78-.44-3.59-.47-5.39-.36-.6,.04-1.2,.09-1.8,.15-1.38,.14-2.26-.32-3.07-1.33-1.31-1.62-2.83-3.08-4.02-4.79-1.01-1.45-2.15-1.59-3.7-1.28-4.79,.94-9.61,1.78-14.41,2.66-.39,.07-.79,.17-1.19,.2-1.48,.13-3.36,.73-3.85-1.3-.44-1.85,.78-3.16,2.48-3.9,5.41-2.37,11.23-3.08,16.94-4.3,3.97-.84,6.76,.39,9.3,3.27,3.07,3.48,6.51,6.63,9.02,10.58Zm1.27,6.78c-6.31-.29-12.35,1.54-18.53,2.29-1.67,.2-2.89,1.15-3.96,2.47-2.92,3.62-6.09,7.04-8.72,10.89-1.16,1.7-2.78,1.56-4.25,.77-1.58-.84-.56-2.16-.02-3.12,3.14-5.61,7.03-10.72,10.89-15.84,1-1.33,2.68-1.37,4.16-1.62,5.08-.85,10.21-1.14,15.35-1.12,3.77,.02,4.9,1.22,5.09,5.27Zm-30.29-27.21c-.96-1.6,.63-1.5,1.45-1.48,3.21,.07,6.35,.9,9.52,1.22,6.08,.61,10.37,3.29,12.31,9.28,.3,.92,.81,1.76,1.2,2.65,.16,.13,.32,.26,.48,.39-.15,.16-.3,.32-.45,.47,.02-.24,.13-.51,.04-.7-.02-.05-.05-.11-.07-.16-1.18-.96-2.35-1.93-3.53-2.88-1.32-1.06-2.14-2.33-1.89-4.13,.18-1.28-.48-1.62-1.69-1.59-4.17,.1-8.35-.02-12.51,.18-2.57,.12-3.8-1.5-4.86-3.26Zm-38.26,5.14c16.45,.08,32.91,.05,48.54,.05-3.81,.6-8.46,1.34-12.97,2.74-1.84,.57-3.67,1.16-5.31,2.21-1.92,1.24-2.94,3.85-2.14,5.63,.94,2.07,2.83,2.25,4.72,1.94,4.98-.83,9.96-1.7,14.91-2.72,2.02-.42,3.5-.21,4.69,1.68,.84,1.34,2.03,2.45,3.28,3.93-3.18,.44-6.12,.59-8.99,1.19-2.33,.49-4.1,1.55-5.44,3.57-2.67,4-5.49,7.9-8.23,11.85-.41,.59-.77,1.22-1.12,1.85-2.4,4.33-1.58,6.08,3.34,6.93-.68,1.95-.8,3.82,1.34,4.98,2.16,1.18,4.16,.8,6.03-.69,3.06-2.43,5.15-5.7,7.55-8.7,.94-1.17,5.17-1.86,6.34-1.03,.47,.34,.37,.85,.37,1.32-.04,15.33,1.08,30.63,1.4,45.96,.03,1.26-.45,1.44-1.51,1.47-18.3,.49-36.59,.99-54.89,1.57-1.66,.05-1.77-.65-1.81-1.95-.45-16.37-.94-32.73-1.42-49.1-.31-10.75-.59-21.5-.99-32.25-.07-1.85,.34-2.43,2.31-2.42Zm53.19,86.39c-18.54,.65-37.08,1.29-55.63,1.94,.75-.83,1.6-1.11,2.59-1.14,7.95-.19,15.9-.4,23.84-.63,6.47-.19,12.95-.31,19.41-.69,3.31-.19,6.52,.5,9.78,.52Zm-56.85-86.22c0,5.74-.12,11,.02,16.25,.61,22.37,1.3,44.73,1.93,67.09,.03,1.16,.59,2.77-1.66,2.6-.32-11.71-.66-23.41-.96-35.1-.4-15.55-.77-31.1-1.13-46.66-.03-1.33-.31-2.77,1.8-4.19Zm-12.35,42.04c3.23,2.06,7.82,3.18,9.4,6.31,1.57,3.12,.6,7.53,.7,11.37,.23,9.06,.51,18.11,.61,27.17,.03,2.24,.73,3.12,2.95,2.78,.79-.12,1.61,.01,2.4-.06,.99-.1,1.46,.18,1.5,1.27,.1,2.72,.27,5.44,.49,8.16,.09,1.16-.08,1.78-1.47,1.75-3.13-.05-6.26,0-9.38,.12-1.08,.04-1.36-.38-1.46-1.35-1.08-10.03-2.2-20.06-3.31-30.1-.94-8.52-1.88-17.04-2.81-25.56-.07-.63-.09-1.27-.14-2.01,.37,.09,.46,.09,.52,.13Zm-7.49,.27c3.61-.96,4.86-.31,5.35,3.38,.49,3.68,.74,7.4,1.2,11.09l1.6,7.54c.64,8.89,1.92,17.71,2.79,26.58,.15,1.53-.05,3.03,.16,4.53-.38,1.75,1.33,4.59-2.66,4.37-2.99-.16-6.07,.35-5.61-4.21,.06-.61-.14-1.25-.21-1.88-1.67-15.16-3.36-30.32-4.98-45.49-.24-2.28-1.22-4.97,2.35-5.92Zm-8.16,10.37c4.08,1.87,5.96,4.57,6.33,9.27,.83,10.62,1.72,21.26,3.62,31.77,.02,.77,.1,1.54,.04,2.3-.11,1.58,1,3.81-2.18,3.74-2.6-.06-4.94,.35-5.34-3.53-1.44-13.97-3.19-27.91-4.82-41.85,.05-1.56,.06-2.75,2.34-1.7Zm-6.53-2.17c1.91,.01,2.89,.52,2.78,2.59-.06,.99-.09,2.08,.74,2.89,.57,10.61,2.32,21.08,3.47,31.63,.25,2.29,.66,4.56,.76,6.85,.07,1.71,1.95,4.37-1.2,4.86-4.64,.72-5.59-.28-6.01-4.13-1.29-11.81-2.66-23.61-4.01-35.42-.21-1.64-.37-3.29-.63-4.92-.52-3.27,1.05-4.36,4.11-4.34Zm-12.95,17.54c-.2-1.31,.18-2,1.41-2.27,1.17-.26,2.34-.62,3.52-.64,1.35-.02,2.54,.14,2.75,2.14,1.07,10.18,2.32,20.34,3.55,30.87,.95,2.24-.53,2.4-2.48,2.14-.63-.08-1.28-.15-1.92-.13-1.54,.04-2.18-.65-2.4-2.21-1.42-9.98-2.9-19.94-4.43-29.9Zm6.62,91.33c-.62-2.74-1.28-5.46-1.91-8.19-.13-.54-.15-1.24-.97-.98-.56,.18-.5,.71-.4,1.22,.19,.92,.34,1.85,.52,2.8-3.6-.39-7.08-3.82-8.24-8.12-.4-1.46-.72-2.95-.42-4.52,.76-3.97,2.9-5.62,6.92-5.27,.57,.05,1.36,.6,1.57-.43,.2-.96-.72-.86-1.25-1.1-.21-.1-.49-.18-.7-.13-3.51,.94-3.98-1.5-4.63-3.98-2.24-8.6-3.82-17.24-2.04-26.15,.77-3.85,.76-3.83,4.59-3.33,9.26,1.19,18.57,1.38,27.88,1.46,.21,0,.42,.05,1.08,.12-3.03,1.45-4.36,3.89-5.57,6.39-1.43,2.96-2.75,5.97-4.2,8.92-1.67,3.4-3.88,6.43-6.87,8.8-2.56,2.03-5.56,2.77-8.77,2.82-.58,0-1.46-.28-1.55,.65-.11,1.07,.81,.99,1.51,1.02,4.81,.21,8.88-1.62,11.98-5.12,2.42-2.73,5.11-2.85,8.25-2.15,.71,.16,1.87,1.28,2.19-.11,.25-1.07-1.2-1.05-1.97-1.28-1.61-.49-3.3-.5-5.19-.26,2.44-5.01,4.64-9.88,7.16-14.58,1.96-3.65,3.18-3.94,7.21-2.68,.38,.12,.78,.39,1.09,0,.37-.49,.06-.92-.33-1.23-.42-.33-.89-.6-1.95-1.29,4.59,0,8.68-.67,12.43,.19,3.73,.85,7.83,2.02,9.35,6.74,1.1,3.43,2.11,6.89,3.19,10.32,1.2,3.76,2.54,7.43,5.56,10.23,1.34,1.24,5.08,2.36,6.65,1.81,.42-.15,.76-.39,.76-.81,0-.55-.37-.89-.93-.86-6.24,.4-8.17-4.12-9.84-8.77-1.19-3.31-2.03-6.75-3.11-10.11-1.13-3.49-2.77-6.65-6.63-8.63,6.22-.39,11.93-.73,17.64-1.13,1.84-.13,3.71-.26,5.48-.7,1.35-.33,1.83-.04,2.2,1.25,3.07,10.56,2.04,20.96-1.15,31.28-.27,.89-.73,1.31-1.73,1.19-.7-.08-1.45-.01-2.15,.14-.58,.13-1.46,.2-1.34,1.07,.14,1.04,.97,.53,1.54,.44,4.65-.8,6.78,2.59,7.01,5.97,.38,5.71-4.41,11.86-8.58,12.03-.33-.66,.22-1.24,.21-1.85,0-.78,.8-2-.4-2.22-1.01-.19-.86,1.17-.99,1.84-.68,3.46-1.57,6.87-2.56,10.26-3.73,12.66-12.72,19.99-24.65,24.35-2.69,.98-5.35,.75-8.02-.14-13.32-4.46-21.81-13.33-24.93-27.15Zm21.5,54.69h-.09c-.18-.02-.37-.03-.55-.03h0c-1.4-.14-2.62,.17-3.73,.78-.44,.24-.87,.53-1.29,.86-.21,.16-.41,.34-.62,.52-3.41,3.06-6.16,6.7-9.11,10.42-3.38-4.48-5.3-9.36-6.16-14.72-.46-2.84-.92-5.7-1.94-8.41-.33-.87-.28-1.45,.38-2.12,2.36-2.4,4.47-5.01,6.47-8.11,3.77,8.37,10.73,13.83,16.4,20.34,.08,.16,.16,.32,.24,.47h0Zm9.03,.29c-1.41,.85-2.58,2.89-4,2.63-1.24-.23-2.21-2.15-3.22-3.39-3.71-4.54-8.09-8.45-12.01-12.8-3.5-3.88-4.69-7.92-2.88-12.95,2.44,1.83,5.01,3.53,7.81,4.9,5.96,2.92,11.71,2.7,17.4-.72,4.16-2.5,7.8-5.61,11.13-9.11,1.5-1.57,3.1-3,5.23-4.63-.07,4.41-.11,8.39,.42,12.35,.18,1.35,.18,2.84,.8,3.97,1.11,2.05,.41,3.28-1.08,4.67-5.23,4.88-10.71,9.43-16.78,13.23-.95,.59-1.85,1.26-2.81,1.84Zm27.32-5.78c-3.02,5.72-5.42,11.77-8.69,17.92-1.57-2.74-2.92-5.08-4.27-7.42-2.12-3.68-5.11-5.66-9.53-4.89-.46,.08-.96,.01-1.88,.01,4.24-2.69,7.97-5.45,11.53-8.44,3.13-2.63,6.3-5.24,8.74-8.56,.48-.65,.73-.73,1.2-.13,.5,.63,.87,1.45,1.5,1.86,4.18,2.72,3.42,5.81,1.4,9.64Zm53.74-128.76c-2.05,3.67-1.11,6.33,1.69,9.52,11.9,13.56,23.13,27.69,34.16,41.98,3.35,4.33,5.8,9.21,8.52,13.93,1.28,2.23,2.52,4.49,4.23,6.41,.89,1,.37,1.17-.44,1.63-18.22,10.28-37.19,19.09-55.87,28.47-9.48,4.76-19.75,7.51-29.25,12.17-4.25,2.08-8.5,4.15-12.3,6.99-.91,.68-1.35,.57-2.18-.14-3.02-2.56-4.7-6.29-7.86-8.73-.54-.41-.57-1.63-.63-2.49-.24-4.01-.37-8.02-.15-12.03,.04-.68,.2-1.22,.64-1.74,4.34-5.08,6.5-11.17,8.04-17.52,.35-1.46,.94-2.22,2.46-2.73,6.21-2.07,10.13-9.72,8.28-15.71-.32-1.02-.65-2.14-1.46-2.7-1.93-1.34-1.53-2.84-.97-4.7,3.19-10.68,3.74-21.4,.32-32.19-.6-1.89-1.75-2.42-3.4-2.71-4.84-.86-9.74-1.1-14.62-1.21-2.27-.05-3.23-.75-3.01-2.99,.03-.32,.02-.65-.05-.96-.53-2.43,.34-3.2,2.89-3.26,15.97-.42,31.93-1.07,47.9-1.49,2.21-.06,3.52-1.69,5.45-2.14,.76-.18,.36-1.28,.36-1.97,.01-3.45,0-6.9,0-10.6,2.14,1.89,4.36,3.57,6.88,4.76,1.31,.62,.75,1.46,.37,2.14Zm8.02-14.31c-2.34,3.35-4.68,6.71-6.43,10.43-.41,.88-.81,.75-1.45,.41-2.41-1.31-4.65-2.82-6.53-4.86-1.41-1.54-1.24-3.39-1.36-5.26,.19-1.21-.89-2.86,1.15-3.56,.08-.03,0-.76-.14-1.12-2.49-7.1-1.96-14.42-1.47-21.69,.41-6.03,.55-5.91-5.53-6.52-2.02-.2-3.2,.3-4.37,1.94-1.72,2.41-3.74,4.61-5.72,6.82-.73,.82-1.67,1.49-2.58,2.13-1.22,.86-2.42,.62-3.54-.29-1.22-.99-.53-2.08-.04-3.03,1.7-3.3,4.37-5.94,6.41-8.99,3.2-4.77,7.3-7.31,13.11-7.39,2.86-.04,5.69-.92,8.56-1.19,3.76-.35,5.36,.92,5.8,4.73,1.04,8.92,1.91,17.86,2.87,26.79,.31,2.87,.6,5.76,1.56,8.49,.32,.91,.14,1.49-.33,2.17Z"/><path d="M55.23,359c-.37-9.05-.7-18.1-1.08-27.14-.03-.7,.3-1.92-.92-1.81-.98,.09-.55,1.16-.52,1.81,.38,9.05,.8,18.09,1.16,27.14,.03,.76,.35,1.6-.25,2.31h1.93c-.6-.7-.29-1.54-.32-2.31Z"/><path class="h" d="M90.1,93.91c1.16-2.48,.18-5.92,4.44-7.18-4.38-.57-3.68-3.88-4.89-6.14-.56,2.68-.02,5.84-4.08,6.49,4.54,.45,3.02,4.55,4.53,6.83Z"/><path class="h" d="M119.72,92.29c1.2-1.93,.09-5.04,3.57-5.42-3.35-.43-2.59-3.44-3.6-5.59-1.14,2.03-.22,4.83-3.49,5.62,3.25,.67,2.31,3.61,3.52,5.39Z"/><path class="h" d="M76.26,122.19c1.39,.83,1.32,2.4,2,3.71,.28-1.68,.6-3.19,2.54-4.32-3.15,.14-1.38-2.8-2.91-3.7-.4,1.29,0,2.86-1.59,3.56-.37,.16-.35,.58-.04,.76Z"/><path class="h" d="M100.49,101.39c-.14,.24,.33,.54,.66,.37,.95-.49,.85-1.64,1.25-2.43,.38-.76-1.25-1.33-1.79-2.32-.14,.44-.16,1.12-.45,1.28-2.36,1.31,.97,1.97,.33,3.1Z"/><path d="M122.63,298.75c-1.38-.02-2.22,.77-2.28,2.47,0,1.3,.85,2.19,2.32,2.19,1.34,0,2.27-.85,2.32-2.25,.05-1.54-.89-2.4-2.37-2.41Z"/><path d="M122.72,286.48c-1.56-.03-2.38,.86-2.35,2.38,.03,1.39,.83,2.18,2.18,2.24,1.64-.05,2.48-.88,2.45-2.39-.03-1.39-.87-2.2-2.28-2.22Zm-.04,3.24c-.62,0-1.01-.45-.97-1.07,.04-.52,.51-.73,1-.83,.45,.17,.83,.42,.8,.97-.03,.51-.34,.92-.84,.92Z"/><path class="e" d="M138.38,97.71c.48,16.37,.97,32.73,1.42,49.1,.04,1.3,.14,2,1.81,1.95,18.29-.58,36.59-1.07,54.89-1.57,1.07-.03,1.54-.2,1.51-1.47-.32-15.32-1.44-30.62-1.4-45.96,0-.46,.11-.98-.37-1.32-1.17-.83-5.41-.14-6.34,1.03-2.41,3-4.5,6.26-7.55,8.7-1.87,1.49-3.87,1.87-6.03,.69-2.14-1.17-2.02-3.03-1.34-4.98-4.92-.86-5.73-2.6-3.34-6.93,.35-.63,.71-1.26,1.12-1.85,2.74-3.95,5.56-7.85,8.23-11.85,1.34-2.02,3.11-3.08,5.44-3.57,2.87-.6,5.81-.75,8.99-1.19-1.25-1.47-2.44-2.59-3.28-3.93-1.19-1.88-2.66-2.09-4.69-1.68-4.95,1.02-9.93,1.9-14.91,2.72-1.89,.31-3.78,.13-4.72-1.94-.8-1.78,.22-4.4,2.14-5.63,1.63-1.05,3.47-1.64,5.31-2.21,4.51-1.4,9.17-2.14,12.97-2.74-15.63,0-32.08,.04-48.54-.05-1.96-.01-2.37,.57-2.31,2.42,.39,10.75,.67,21.5,.99,32.25Z"/><path class="e" d="M213.55,118.07c-.97-8.93-1.84-17.87-2.87-26.79-.44-3.81-2.04-5.08-5.8-4.73-2.87,.27-5.7,1.15-8.56,1.19-5.82,.08-9.91,2.62-13.11,7.39-2.04,3.05-4.71,5.69-6.41,8.99-.49,.96-1.18,2.04,.04,3.03,1.11,.9,2.31,1.15,3.54,.29,.91-.64,1.85-1.31,2.58-2.13,1.98-2.21,3.99-4.42,5.72-6.82,1.17-1.64,2.35-2.14,4.37-1.94,6.08,.61,5.93,.5,5.53,6.52-.49,7.28-1.02,14.6,1.47,21.69,.13,.36,.21,1.09,.14,1.12-2.04,.7-.96,2.35-1.15,3.56,.12,1.87-.05,3.72,1.36,5.26,1.88,2.04,4.12,3.55,6.53,4.86,.64,.35,1.03,.48,1.45-.41,1.75-3.71,4.08-7.08,6.43-10.43,.48-.68,.65-1.26,.33-2.17-.96-2.73-1.25-5.62-1.56-8.49Z"/><path class="e" d="M146.39,257.83c-.62-1.14-.62-2.63-.8-3.97-.53-3.95-.48-7.94-.42-12.35-2.13,1.63-3.74,3.05-5.23,4.63-3.33,3.49-6.97,6.61-11.13,9.11-5.69,3.42-11.44,3.64-17.4,.72-2.79-1.37-5.36-3.07-7.81-4.9-1.81,5.04-.62,9.08,2.88,12.95,3.92,4.35,8.3,8.26,12.01,12.8,1.01,1.24,1.98,3.16,3.22,3.39,1.42,.26,2.59-1.77,4-2.63,.96-.58,1.86-1.25,2.81-1.84,6.07-3.8,11.55-8.35,16.78-13.23,1.49-1.39,2.2-2.62,1.08-4.67Z"/><path class="f" d="M126.12,132.69c1.11,10.03,2.22,20.06,3.31,30.1,.1,.97,.38,1.39,1.46,1.35,3.13-.11,6.26-.17,9.38-.12,1.4,.02,1.57-.59,1.47-1.75-.22-2.71-.39-5.44-.49-8.16-.04-1.09-.51-1.37-1.5-1.27-.8,.08-1.62-.05-2.4,.06-2.22,.33-2.92-.54-2.95-2.78-.1-9.06-.38-18.12-.61-27.17-.1-3.84,.87-8.25-.7-11.37-1.57-3.14-6.16-4.26-9.4-6.31-.06-.04-.15-.04-.52-.13,.05,.74,.07,1.38,.14,2.01,.93,8.52,1.87,17.04,2.81,25.56Z"/><path class="h" d="M116.05,277.25h0l.4-.44c-5.67-6.51-12.63-11.97-16.4-20.34-1.99,3.11-4.1,5.72-6.47,8.11-.66,.67-.71,1.25-.38,2.12,1.02,2.71,1.48,5.57,1.94,8.41,.86,5.36,2.78,10.24,6.16,14.72,2.95-3.72,5.7-7.36,9.11-10.42,.2-.18,.41-.36,.62-.52,.42-.33,.84-.62,1.29-.86,1.11-.61,2.33-.92,3.73-.78Z"/><path class="h" d="M116.05,277.25h0c-1.4-.14-2.62,.17-3.73,.78,1.11-.61,2.33-.92,3.73-.78h0Z"/><path class="h" d="M112.31,278.03c-.44,.24-.87,.53-1.29,.86,.42-.33,.84-.62,1.29-.86Z"/><path class="h" d="M151.63,262.15c-.64-.41-1.01-1.23-1.5-1.86-.47-.6-.72-.53-1.2,.13-2.44,3.32-5.6,5.93-8.74,8.56-3.56,2.99-7.29,5.75-11.53,8.44,.93,0,1.42,.07,1.88-.01,4.41-.77,7.4,1.21,9.53,4.89,1.35,2.34,2.69,4.68,4.27,7.42,3.28-6.15,5.68-12.19,8.69-17.92,2.02-3.84,2.78-6.92-1.4-9.64Z"/><path class="f" d="M95.4,163.38c.64-.02,1.28,.05,1.92,.13,1.95,.26,3.43,.09,2.48-2.14-1.23-10.53-2.48-20.69-3.55-30.87-.21-1.99-1.4-2.16-2.75-2.14-1.18,.02-2.35,.39-3.52,.64-1.22,.27-1.61,.96-1.41,2.27,1.53,9.96,3.01,19.93,4.43,29.9,.22,1.56,.87,2.25,2.4,2.21Z"/><path class="e" d="M188.66,64.48c-5.71,1.21-11.53,1.93-16.94,4.3-1.7,.74-2.93,2.06-2.48,3.9,.49,2.03,2.36,1.43,3.85,1.3,.4-.03,.79-.13,1.19-.2,4.81-.88,9.62-1.72,14.41-2.66,1.56-.31,2.69-.17,3.7,1.28,1.18,1.7,2.71,3.17,4.02,4.79,.82,1.01,1.7,1.47,3.07,1.33,.6-.06,1.2-.11,1.8-.15,1.8-.11,3.6-.07,5.39,.36h0l.34-.4c-2.51-3.95-5.95-7.11-9.02-10.58-2.54-2.88-5.34-4.11-9.3-3.27Z"/><path class="e" d="M201.26,78.37c1.8-.11,3.6-.07,5.39,.36h0c-1.78-.44-3.59-.47-5.39-.36Z"/><path class="e" d="M203.17,79.85c-5.14-.02-10.27,.28-15.35,1.12-1.48,.25-3.15,.29-4.16,1.62-3.86,5.12-7.75,10.23-10.89,15.84-.54,.96-1.56,2.28,.02,3.12,1.47,.78,3.09,.92,4.25-.77,2.63-3.85,5.8-7.27,8.72-10.89,1.07-1.32,2.29-2.27,3.96-2.47,6.18-.76,12.22-2.58,18.53-2.29-.19-4.05-1.32-5.25-5.09-5.27Z"/><path class="f" d="M135.37,114.06c.3,11.7,.64,23.39,.96,35.1,2.26,.17,1.7-1.44,1.66-2.6-.64-22.36-1.33-44.73-1.93-67.09-.14-5.25-.02-10.51-.02-16.25-2.11,1.42-1.83,2.86-1.8,4.19,.37,15.55,.74,31.11,1.13,46.66Z"/><path class="e" d="M182.83,61.16c4.16-.2,8.34-.08,12.51-.18,1.22-.03,1.87,.31,1.69,1.59-.25,1.8,.57,3.06,1.89,4.13,1.18,.95,2.36,1.92,3.53,2.88-.4-.89-.91-1.73-1.2-2.65-1.93-5.99-6.23-8.67-12.31-9.28-3.17-.32-6.31-1.15-9.52-1.22-.82-.02-2.41-.12-1.45,1.48,1.06,1.76,2.29,3.38,4.86,3.26Z"/><path class="e" d="M202.48,70.45c.15-.16,.3-.32,.45-.47-.16-.13-.32-.26-.48-.39,.02,.05,.05,.11,.07,.16,.08,.19-.02,.47-.04,.7Z"/><path class="f" d="M163.7,149.6c-7.95,.23-15.89,.44-23.84,.63-.99,.02-1.84,.31-2.59,1.14,18.54-.65,37.08-1.29,55.63-1.94-3.26-.02-6.47-.71-9.78-.52-6.46,.38-12.94,.5-19.41,.69Z"/><path class="h" d="M116.05,277.25l.55,.03h.09l-.24-.47c-.13,.15-.26,.29-.4,.44Z"/><path class="h" d="M116.45,276.81l.24,.47h0c-.08-.16-.16-.32-.24-.47Z"/><path class="h" d="M116.05,277.25c.18,0,.37,.02,.55,.03l-.55-.03h0Z"/><path class="h" d="M116.05,277.25c.13-.15,.26-.29,.4-.44l-.4,.44h0Z"/><polygon class="h" points="116.05 277.25 116.05 277.25 116.05 277.25 116.05 277.25 116.05 277.25"/><path class="e" d="M206.97,78.95c.11,.06,.22,.05,.33-.17,.04-.08-.2-.3-.31-.45l-.34,.4c.11,.04,.22,.16,.32,.22Z"/><path class="e" d="M206.65,78.73c.11,.04,.22,.16,.32,.22-.11-.06-.22-.18-.32-.22h0Z"/><path d="M122.72,287.83c-.49,.1-.96,.31-1,.83-.05,.61,.34,1.07,.97,1.07,.5,0,.82-.41,.84-.92,.03-.54-.36-.8-.8-.97Z"/><path class="h" d="M171.57,155.74c-.8,1.65-.07,4.1-2.86,4.41,2.21,.67,2.6,2.44,2.77,4.69,1.49-1.67,.74-4.3,3.29-4.76-2.49-.42-1.98-2.95-3.21-4.34Z"/><path class="h" d="M182.07,171q.84-3.87-.35-5.53-.99,3.08,.35,5.53Z"/><path d="M125.78,237.13c4.43-.17,7.27-4,9.36-8.66,.47-1.04,1.53-2.34,.74-3.32-.7-.88-2.1,.03-3.2,.1-.32,.02-.64,.04-.96,.08-5.94,.76-11.85,.6-17.75-.36-.91-.15-2.02-.52-1.72,1.26,.94,5.67,6.69,10.86,13.53,10.91Zm8.27-10.71c-.76,4.6-4.93,8.91-8.9,9.34-4.51,.49-8.94-3.1-11.22-9.35,6.87,1,13.48,1.06,20.13,.01Z"/><path d="M124.97,213.03c1.55,1.14,1.65,2.39,.49,3.85-.35,.44-.73,.86-.97,1.36-.11,.22-.04,.68,.13,.88,.32,.39,.71,.2,1-.13,1.02-1.14,1.99-2.31,2.06-3.96,.04-1.33-.65-2.27-1.68-3-2.12-1.52-2.7-3.63-2.46-6.12,.26-2.58,1.04-5,2.09-7.34,.2-.45,.41-.96-.13-1.27-.73-.42-.96,.2-1.2,.72-.97,2.12-1.68,4.33-2.07,6.63-.55,3.27-.16,6.26,2.74,8.4Z"/><path d="M134.52,187.42c2.82-1.09,5.58-1.17,8.31,.32,.47,.26,1.11,.5,1.4-.25,.23-.6-.35-.84-.74-1.05-1.58-.84-3.25-1.31-5.11-1.16-1.51-.17-2.96,.26-4.36,.88-.42,.19-.99,.4-.74,1,.23,.56,.82,.42,1.25,.26Z"/><path d="M88.55,206.07c-.27-.12-.61,.03-.7,.42-.11,.45,1.91,3.34,2.36,3.37,.51,0,.83-.41,.69-.74-.52-1.2-1.02-2.47-2.35-3.06Z"/><path d="M158.53,209.88c.91-.84,1.71-1.89,2.19-3.14,.16-.4-.28-.87-.67-.67-1.26,.62-1.82,1.87-2.34,3.07-.15,.34,.22,.71,.83,.74Z"/><path class="f" d="M118.83,156.92c.08,.63,.28,1.27,.21,1.88-.46,4.56,2.61,4.05,5.61,4.21,3.99,.21,2.28-2.62,2.66-4.37-.22-1.5-.01-3.01-.16-4.53-.87-8.87-2.15-17.69-2.79-26.58l-1.6-7.54c-.46-3.69-.71-7.4-1.2-11.09-.49-3.69-1.74-4.34-5.35-3.38-3.57,.94-2.59,3.63-2.35,5.92,1.62,15.17,3.31,30.32,4.98,45.49Z"/><path class="f" d="M98.04,122.99c1.34,11.81,2.72,23.61,4.01,35.42,.42,3.85,1.37,4.85,6.01,4.13,3.15-.49,1.27-3.15,1.2-4.86-.09-2.29-.51-4.57-.76-6.85-1.15-10.54-2.89-21.02-3.47-31.63-.83-.81-.79-1.9-.74-2.89,.12-2.07-.87-2.58-2.78-2.59-3.06-.02-4.63,1.07-4.11,4.34,.26,1.63,.43,3.28,.63,4.92Z"/><path class="f" d="M115.85,162.98c3.18,.07,2.06-2.16,2.18-3.74,.06-.76-.03-1.53-.04-2.3-1.9-10.51-2.79-21.15-3.62-31.77-.37-4.71-2.25-7.41-6.33-9.27-2.28-1.04-2.29,.14-2.34,1.7,1.63,13.95,3.37,27.89,4.82,41.85,.4,3.87,2.73,3.47,5.34,3.53Z"/><path d="M140.03,202.67l1.55-2.52c-.52-1.36-1.45-2.27-2.51-2.27-2.56,0-2.94,2.72-2.94,5.37,0,2.52,1.3,4.22,2.94,4.22,1.28,0,2.36-1.32,2.77-3.16l-1.82-1.63Z"/><path d="M110.78,202.67l1.55-2.52c-.52-1.36-1.45-2.27-2.51-2.27-2.56,0-2.94,2.72-2.94,5.37s1.3,4.22,2.94,4.22c1.28,0,2.36-1.32,2.77-3.16l-1.82-1.63Z"/></g><g><path d="M149.55,115.98c-.02,.48-.03,.93-.03,1.33s0,.85,.02,1.33c0,.27,.07,.47,.18,.61s.32,.19,.62,.18c.24-.02,.49-.03,.73-.05,.25-.01,.51-.04,.8-.09,.11-.02,.18,0,.22,.04,.04,.04,.06,.12,.08,.23l.11,1.27c.01,.11,0,.19-.06,.22s-.13,.05-.24,.07c-.45,.06-.88,.11-1.3,.14s-.85,.04-1.28,.04c-.72,0-1.24-.19-1.56-.58-.31-.39-.47-1.01-.47-1.86,0-.51,0-.99,0-1.43,0-.44,.02-.92,.04-1.43,0-.11,.03-.19,.07-.23,.04-.04,.12-.06,.22-.06h1.55c.11,0,.18,.02,.23,.06,.05,.04,.07,.11,.06,.23Zm3.62,10.84c-.66,0-1.22-.06-1.68-.19-.46-.13-.84-.31-1.13-.53s-.5-.49-.63-.79c-.13-.3-.2-.62-.2-.96s.07-.66,.2-.96c.14-.3,.35-.56,.65-.78,.29-.22,.67-.4,1.13-.53,.46-.13,1.02-.19,1.67-.19s1.21,.06,1.67,.19c.46,.13,.84,.3,1.13,.53,.29,.22,.51,.48,.65,.78,.14,.3,.2,.62,.2,.96s-.07,.66-.2,.96c-.13,.3-.34,.56-.63,.79s-.67,.4-1.13,.53c-.46,.13-1.03,.19-1.68,.19Zm0-1.78c.2,0,.38-.01,.57-.03s.34-.06,.48-.11,.25-.12,.33-.21,.12-.2,.12-.34-.04-.25-.12-.33-.19-.16-.33-.22-.3-.1-.48-.12-.37-.03-.57-.03-.38,.01-.57,.03-.34,.06-.48,.12-.25,.13-.33,.22c-.08,.09-.12,.2-.12,.33s.04,.25,.12,.34c.08,.09,.19,.16,.33,.21s.3,.09,.48,.11,.37,.03,.57,.03Zm-.1-3.52c-.11,0-.18-.02-.23-.06-.05-.04-.07-.11-.07-.23v-5.26c0-.11,.02-.19,.07-.23,.04-.04,.12-.06,.23-.06h1.42c.11,0,.18,.02,.23,.06,.04,.04,.07,.11,.07,.23v1.71h.5v-1.71c0-.11,.02-.19,.07-.23,.05-.04,.12-.06,.23-.06h1.42c.11,0,.18,.02,.23,.06,.04,.04,.07,.11,.07,.23v5.26c0,.11-.02,.19-.07,.23-.05,.04-.12,.06-.23,.06h-1.42c-.11,0-.18-.02-.23-.06-.04-.04-.07-.11-.07-.23v-1.82h-.5v1.82c0,.11-.02,.19-.07,.23-.05,.04-.12,.06-.23,.06h-1.42Z"/><path d="M167.69,115.69c.11,0,.18,.02,.23,.06s.07,.11,.07,.23v1.05c0,.11-.02,.19-.07,.23s-.12,.06-.23,.06h-6.24v.43c0,.15,.03,.24,.09,.28s.2,.05,.42,.04c.45,0,.92-.02,1.4-.03,.48-.01,.97-.03,1.46-.05,.49-.02,.97-.04,1.45-.07s.94-.06,1.39-.1c.11-.01,.18,0,.22,.04,.04,.05,.06,.12,.08,.24l.1,1.04c.02,.11,0,.19-.06,.22-.05,.03-.13,.05-.24,.06-.48,.04-.98,.07-1.48,.11-.51,.03-1.02,.06-1.55,.08v.53h3.69c.11,0,.18,.02,.23,.06,.04,.04,.07,.11,.07,.23v1.33c0,.11-.02,.19-.07,.23-.05,.04-.12,.06-.23,.06h-9.56c-.11,0-.18-.02-.23-.06-.05-.04-.07-.11-.07-.23v-1.33c0-.11,.02-.19,.07-.23,.04-.04,.12-.06,.23-.06h3.69v-.45c-.26,0-.53,.01-.79,.01h-.79c-.6,0-1.04-.12-1.3-.37-.26-.25-.39-.67-.39-1.26v-2.11c0-.11,.02-.19,.07-.23,.04-.04,.12-.06,.23-.06h8.12Zm-4.06,11.13c-1.47,0-2.58-.19-3.31-.57-.73-.38-1.1-.94-1.1-1.68s.37-1.3,1.12-1.67c.74-.37,1.84-.56,3.29-.56s2.55,.19,3.29,.56,1.12,.93,1.12,1.67-.37,1.3-1.1,1.68c-.73,.38-1.83,.57-3.31,.57Zm0-1.72c.45,0,.82,0,1.11-.03,.29-.02,.51-.05,.68-.09,.17-.04,.28-.1,.35-.16,.06-.07,.1-.15,.1-.25,0-.09-.03-.17-.1-.24-.06-.07-.18-.12-.35-.16-.17-.04-.39-.07-.68-.1-.29-.02-.66-.03-1.11-.03s-.82,.01-1.11,.03c-.29,.02-.51,.06-.68,.1-.17,.04-.28,.1-.35,.16-.06,.07-.1,.15-.1,.24,0,.1,.03,.18,.1,.25,.06,.07,.18,.12,.35,.16,.17,.04,.39,.07,.68,.09s.66,.03,1.11,.03Z"/><path d="M169.57,115.98c0-.11,.02-.19,.07-.23s.12-.06,.23-.06h3.91c.29,0,.53,.03,.74,.1,.2,.07,.37,.18,.5,.33,.13,.15,.23,.35,.28,.6,.06,.25,.08,.55,.07,.9,0,.51-.05,1.09-.12,1.74-.07,.65-.17,1.33-.28,2.04s-.24,1.43-.39,2.16c-.15,.73-.3,1.42-.46,2.09-.03,.11-.06,.19-.09,.24-.03,.05-.1,.06-.2,.04l-1.58-.33c-.05,0-.1-.02-.14-.03-.04-.01-.08-.03-.11-.06s-.05-.07-.05-.12c0-.05,0-.12,.03-.21,.16-.57,.31-1.18,.45-1.82,.14-.64,.27-1.26,.38-1.88,.11-.62,.2-1.2,.27-1.76,.07-.56,.1-1.05,.1-1.47,0-.29-.04-.47-.12-.55s-.22-.12-.42-.12h-2.78c-.11,0-.18-.02-.23-.06-.04-.04-.07-.11-.07-.23v-1.33Zm7.73,10.25c-.11,0-.18-.02-.23-.06-.05-.04-.07-.11-.07-.23v-9.97c0-.11,.02-.19,.07-.23,.04-.04,.12-.06,.23-.06h1.59c.11,0,.18,.02,.23,.06,.04,.04,.07,.11,.07,.23v9.97c0,.11-.02,.19-.07,.23-.05,.04-.12,.06-.23,.06h-1.59Z"/><path d="M180.65,124.51c0-.11,.02-.19,.07-.23,.04-.04,.12-.06,.23-.06h6.64c.11,0,.18,.02,.23,.06,.05,.04,.07,.11,.07,.23v1.33c0,.11-.02,.19-.07,.23-.04,.04-.12,.06-.23,.06h-6.64c-.11,0-.18-.02-.23-.06-.05-.04-.07-.11-.07-.23v-1.33Zm3.47-8.93c.61,0,1.13,.1,1.55,.31s.76,.48,1.01,.83,.44,.74,.56,1.18c.11,.45,.17,.91,.17,1.38s-.05,.94-.17,1.39c-.11,.45-.29,.85-.55,1.19s-.59,.62-1.01,.83c-.42,.21-.94,.31-1.56,.31s-1.14-.1-1.56-.31-.76-.48-1.01-.83-.44-.74-.55-1.19-.16-.91-.16-1.39,.06-.94,.18-1.38c.12-.45,.31-.84,.57-1.18s.6-.62,1.01-.83,.92-.31,1.53-.31Zm0,5.57c.12,0,.25-.02,.39-.06,.14-.04,.26-.13,.38-.27,.12-.14,.21-.33,.29-.57,.08-.25,.11-.57,.11-.98s-.04-.73-.11-.98c-.08-.25-.17-.43-.29-.57-.12-.13-.24-.22-.38-.26-.14-.04-.26-.06-.39-.06s-.25,.02-.38,.06c-.14,.04-.26,.13-.38,.26-.12,.13-.21,.32-.29,.57-.08,.25-.11,.57-.11,.98s.04,.73,.11,.98c.08,.25,.17,.44,.29,.57,.12,.14,.24,.23,.38,.27,.14,.04,.26,.06,.38,.06Zm4.51,5.08c-.11,0-.18-.02-.23-.06-.05-.04-.07-.11-.07-.23v-9.97c0-.11,.02-.19,.07-.23,.04-.04,.12-.06,.23-.06h1.59c.11,0,.18,.02,.23,.06,.04,.04,.07,.11,.07,.23v9.97c0,.11-.02,.19-.07,.23-.05,.04-.12,.06-.23,.06h-1.59Z"/><path d="M156.66,134.97c0,.48-.1,.82-.31,1.03-.2,.21-.51,.32-.92,.32h-2.04v1.51h3.69c.11,0,.18,.02,.23,.06,.04,.04,.07,.11,.07,.23v1.33c0,.11-.02,.19-.07,.23-.05,.04-.12,.06-.23,.06h-9.56c-.11,0-.18-.02-.23-.06-.05-.04-.07-.11-.07-.23v-1.33c0-.11,.02-.19,.07-.23,.04-.04,.12-.06,.23-.06h3.69v-1.51h-2.05c-.41,0-.71-.11-.92-.32-.2-.21-.31-.56-.31-1.03v-5.39c0-.11,.02-.19,.07-.23,.04-.04,.12-.06,.23-.06h8.12c.11,0,.18,.02,.23,.06s.07,.11,.07,.23v5.39Zm-2.39-.43c.13,0,.21-.02,.26-.07,.04-.05,.07-.15,.07-.29v-3.16h-4.59v3.16c0,.14,.02,.24,.07,.29,.05,.05,.13,.07,.26,.07h3.93Z"/><path d="M157.99,134.79c0-.11,.02-.19,.07-.23,.04-.04,.12-.06,.23-.06h9.56c.11,0,.18,.02,.23,.06,.04,.04,.07,.11,.07,.23v1.33c0,.11-.02,.19-.07,.23-.05,.04-.12,.06-.23,.06h-6.92v1c0,.27,.06,.47,.17,.6,.11,.13,.32,.19,.62,.18,.41,0,.84-.02,1.3-.04,.46-.02,.93-.04,1.41-.07,.48-.03,.96-.06,1.43-.1,.48-.04,.94-.08,1.38-.13,.11-.01,.18,0,.21,.05,.04,.04,.06,.12,.08,.24l.11,1.31c.02,.11,0,.19-.06,.22-.05,.03-.13,.05-.24,.07-.52,.05-1.07,.1-1.64,.14-.57,.04-1.14,.08-1.71,.11s-1.13,.05-1.68,.07c-.55,.01-1.07,.02-1.55,.02-.72,0-1.24-.19-1.56-.58-.31-.39-.47-1.01-.47-1.86v-1.21h-.46c-.11,0-.18-.02-.23-.06-.05-.04-.07-.11-.07-.23v-1.33Zm9.13-5.5c.11,0,.18,.02,.23,.06s.07,.11,.07,.23v1.16c0,.11-.02,.19-.07,.23-.04,.04-.12,.06-.23,.06h-6.24v.73c0,.15,.03,.24,.09,.28s.2,.05,.42,.04c.45,0,.92-.02,1.4-.03,.48-.01,.97-.03,1.46-.05,.49-.02,.97-.04,1.45-.07s.94-.06,1.39-.1c.11-.01,.18,0,.22,.04,.04,.05,.06,.12,.08,.24l.1,1.16c.02,.11,0,.19-.06,.22-.05,.03-.13,.05-.24,.06-1.06,.08-2.17,.15-3.33,.2s-2.32,.08-3.47,.08c-.6,0-1.04-.12-1.3-.37-.26-.25-.39-.67-.39-1.26v-2.62c0-.11,.02-.19,.07-.23,.04-.04,.12-.06,.23-.06h8.12Z"/><path d="M171.83,129.57c0-.11,.02-.19,.07-.23,.05-.04,.12-.06,.23-.06h5.93c.11,0,.18,.02,.23,.06s.07,.11,.07,.23v1.27c0,.11-.02,.19-.07,.23-.04,.04-.12,.06-.23,.06h-1.88v.05c0,.22,.03,.43,.08,.64,.05,.21,.15,.4,.29,.58s.34,.34,.58,.48c.24,.14,.55,.25,.93,.32,.03,0,.07,.01,.11,.02,.04,0,.08,.02,.12,.05s.07,.06,.1,.11c.03,.05,.04,.12,.04,.21v1.26c0,.14-.04,.22-.11,.24-.07,.03-.13,.04-.19,.03-.26-.02-.54-.06-.81-.12s-.55-.14-.81-.24c-.26-.1-.52-.23-.76-.39-.24-.16-.46-.35-.65-.57-.2,.22-.41,.41-.65,.57-.24,.16-.49,.29-.75,.39-.26,.1-.53,.18-.81,.24s-.55,.1-.81,.12c-.05,0-.12,0-.19-.03-.07-.03-.11-.11-.11-.24v-1.26c0-.09,.01-.16,.04-.21,.03-.05,.06-.09,.1-.11s.08-.04,.12-.05c.04,0,.08-.01,.11-.02,.38-.08,.69-.18,.93-.32,.24-.14,.43-.3,.58-.48s.24-.37,.29-.58c.05-.21,.08-.42,.08-.64v-.05h-1.89c-.11,0-.18-.02-.23-.06-.04-.04-.07-.11-.07-.23v-1.27Zm6.05,10.84c-.66,0-1.22-.06-1.68-.19-.46-.13-.84-.31-1.13-.53s-.5-.49-.63-.79c-.13-.3-.2-.62-.2-.96s.07-.66,.2-.96c.14-.3,.35-.56,.65-.78,.29-.22,.67-.4,1.13-.53,.46-.13,1.02-.19,1.67-.19s1.21,.06,1.67,.19c.46,.13,.84,.3,1.13,.53,.29,.22,.51,.48,.65,.78,.14,.3,.2,.62,.2,.96s-.07,.66-.2,.96c-.13,.3-.34,.56-.63,.79s-.67,.4-1.13,.53c-.46,.13-1.03,.19-1.68,.19Zm0-1.78c.2,0,.38-.01,.57-.03s.34-.06,.48-.11,.25-.12,.33-.21,.12-.2,.12-.34-.04-.25-.12-.33-.19-.16-.33-.22-.3-.1-.48-.12-.37-.03-.57-.03-.38,.01-.57,.03-.34,.06-.48,.12-.25,.13-.33,.22c-.08,.09-.12,.2-.12,.33s.04,.25,.12,.34c.08,.09,.19,.16,.33,.21s.3,.09,.48,.11,.37,.03,.57,.03Zm2.03-3.41c-.11,0-.18-.02-.23-.06-.05-.04-.07-.11-.07-.23v-1.81h-1.03c-.11,0-.18-.02-.23-.06-.04-.04-.07-.11-.07-.23v-1.31c0-.11,.02-.19,.07-.23,.05-.04,.12-.06,.23-.06h1.03v-1.68c0-.11,.02-.19,.07-.23,.04-.04,.12-.06,.23-.06h1.59c.11,0,.18,.02,.23,.06,.04,.04,.07,.11,.07,.23v5.37c0,.11-.02,.19-.07,.23-.05,.04-.12,.06-.23,.06h-1.59Z"/><path d="M192.69,134.97c0,.48-.1,.82-.31,1.03-.2,.21-.51,.32-.92,.32h-2.04v1.51h3.69c.11,0,.18,.02,.23,.06,.04,.04,.07,.11,.07,.23v1.33c0,.11-.02,.19-.07,.23-.05,.04-.12,.06-.23,.06h-9.56c-.11,0-.18-.02-.23-.06-.05-.04-.07-.11-.07-.23v-1.33c0-.11,.02-.19,.07-.23,.04-.04,.12-.06,.23-.06h3.69v-1.51h-2.05c-.41,0-.71-.11-.92-.32-.2-.21-.31-.56-.31-1.03v-5.39c0-.11,.02-.19,.07-.23,.04-.04,.12-.06,.23-.06h1.47c.11,0,.18,.02,.23,.06s.07,.11,.07,.23v1.62h4.59v-1.62c0-.11,.02-.19,.07-.23,.04-.04,.12-.06,.23-.06h1.47c.11,0,.18,.02,.23,.06s.07,.11,.07,.23v5.39Zm-2.39-.43c.13,0,.21-.02,.26-.07,.04-.05,.07-.15,.07-.29v-1.2h-4.59v1.2c0,.14,.02,.24,.07,.29,.05,.05,.13,.07,.26,.07h3.93Z"/></g></g><g class="i"><g><path class="f" d="M392.77,322.77c-.76,.1-1.66,.09-1.61,1.19,.35,7.79,1.22,15.48,3.93,22.89,4.25,11.62,11.48,20.88,21.51,28.07,3.21,2.3,6.66,3.98,10.41,5.09-.06-.78,.43-1.23,.95-1.68,2.5-2.16,5.01-4.32,7.48-6.51,4.95-4.39,10.3-8.31,15.04-12.96,2.85-2.79,3.22-6.11,2.61-9.8-1.13-6.82-3.62-13.14-6.71-19.3-4.21-8.38-9.66-15.72-17.16-21.43-2.15-1.64-4.32-2.2-7.02-.64-7.67,4.43-15.49,8.58-23.23,12.87-2,1.11-4.16,1.73-6.32,2.38-.02,0-.23,.5,.24,.31,.02,0-.08-.31-.13-.47Z"/><path d="M394.39,321.9c9.05-5.89,18.75-10.63,28.11-15.99,1.51-.87,3.12-1.08,4.64-.27,1.1,.58,1.78,.3,2.78-.25,3.21-1.77,6.13-3.95,9.12-6.04,1.03-.72,2.22-1.81,3.48-1.2,2.38,1.15,3.9-.37,5.52-1.46,3.23-2.16,5.78-5.03,7.75-8.36,3.8-6.44,7.65-12.86,11.25-19.41,3.46-6.29,6.83-12.66,8.13-19.85,.93-5.18,1.62-10.41,2.63-15.57,.97-4.92,1.68-9.86,1.89-14.86,.49-.67,.25-1.38,.12-2.09-.1-2.55-.52-5.14-.22-7.64,.26-2.21-.34-5.1,2.21-6.36,2.45-1.21,4.95-.57,7.22,.96,2.26,1.52,3.78,3.61,5.04,5.96,2.54,4.74,2.97,9.87,2.87,15.1-.99,2.17-.46,4.54-.86,6.79l-.18,2.03c-.26,3.12-.32,6.22,.63,9.26,.08,.34,.16,.68,.25,1.02-.07,.57,0,1.11,.48,1.51,.89,1.52,.98,3.3,1.55,4.9,.7,1.98,.65,4.51,3.92,4.78,5.39,.45,10.73,1.43,16.03,2.59,4.03,.88,7.95,2,11.55,3.95,6.15,3.34,7.9,12.33,3.32,17.73-1.48,1.75-1.48,3.23-1.29,5.26,.44,4.75,1.13,9.66-2.88,13.5-.49,.24-.9,.71-1.53,.6-.13-.42-.18-.84,.16-1.19,3.79-4.02,3.09-8.91,2.67-13.74-.15-1.71-1.09-1.07-1.93-.59-3.84,2.2-7.79,4.14-12.14,5.12-5.2,1.16-10.35,.5-15.42-.74-1.88-.46-2.8,.06-2.99,1.81-.23,2.12-2.23,3.46-2.2,5.77,.01,1.31,.21,2.05,1.36,2.55,5.89,2.57,11.84,4.91,18.48,4.16,2.88-.33,5.61-1.26,8.2-2.48,1.29-.61,2.48-.99,3.86-.71,0,1.2,.98,.74,1.58,.92,.09,.59,.18,1.18,.27,1.77,.98,6.35-.5,11.23-6.7,13.45-1.05,.37-1.35,1.25-1.54,2.17-1.12,5.26-4.83,8.02-9.61,9.28-2.43,.64-5.2,1.72-7.71-.2,2.7-.65,5.47-.9,8.16-1.68,3.49-1.01,5.86-3.19,7.73-6.14,.34-.54-.03-.79-.15-1.1-.32-.81-1.06-.4-1.56-.32-2.09,.31-4.15,.75-6.23,1.12-4.71,.83-8.99,.05-12.51-3.42-2.58-2.54-5.75-4.54-7.34-8.01-.45-.99-1.06-.47-1.43,.21-.79,1.42-1.01,2.92-.31,4.41,2.53,5.45,6.4,9.75,11.45,12.96,.89,.56,1.7,1.1,2.25,2-2.12,.14-3.8-.93-5.2-2.27-1.35-1.29-2.28-1.04-3.67-.07-5.8,4.06-10.64,9.41-17.38,12.26-1.76,.75-3.52,1.77-5.38,2.48l-1.02,.27c-1.33,.27-2.69,.44-3.98,.83-.92,.28-2.19,.43-2.24,1.73-.1,2.38-1.77,3.53-3.45,4.7-1.87,1.3-3.89,2.38-5.67,3.85-1.17,.96-1.75,1.94-1.58,3.46,.25,2.24-.7,3.97-2.27,5.57-7.51,7.67-16.37,13.79-24.13,21.17-.38,.36-.83,.64-1.33,.14-.06-.78,.43-1.23,.95-1.68,2.5-2.16,5.01-4.32,7.48-6.51,4.95-4.39,10.3-8.31,15.04-12.96,2.85-2.79,3.22-6.11,2.61-9.8-1.13-6.82-3.62-13.14-6.71-19.3-4.21-8.38-9.66-15.72-17.16-21.43-2.15-1.64-4.32-2.2-7.02-.64-7.67,4.43-15.49,8.58-23.23,12.87-2,1.11-4.16,1.73-6.32,2.38-.02,0-.23,.5,.24,.31,.02,0-.08-.31-.13-.47,.24-.82,1.09-.53,1.62-.87Zm100.73-96.48c.8-6.14-.15-11.94-3.53-17.16-1.74-2.7-4.03-4.87-7.67-4.71-1.51,.07-2.33,.69-2.62,2.22-.32,1.7-.42,3.4-.23,5.1,.95,8.52-.65,16.82-2.18,25.11-.94,5.1-1.54,10.25-2.77,15.3-1.81,7.46-5.44,14.1-9.09,20.73-2.95,5.36-6.11,10.62-9.23,15.89-2.55,4.31-5.71,8.09-10.04,10.71-1.35,.82-1.4,1.19-.21,2.3,9.61,8.99,16.14,19.65,17.54,33.02,.04,.34,.08,.68,.12,1.02,.46,3.37,.42,3.05,3.83,2.61,9.12-1.18,15.26-7.47,22.15-12.48,1.64-1.19,4.15-2.33,4.48-3.87,.36-1.67-2.39-2.95-3.54-4.62-1.06-1.55-2.25-3.01-2.84-4.8-.53-1.61-1.09-1.19-1.78-.18-1.46,2.12-3.18,4.01-5.1,5.72-.51,.45-1.07,1.16-1.7,.48-.56-.6,.19-1.02,.63-1.4,5.4-4.71,9.18-10.81,12-17.09,2.98-6.63,4.96-13.83,5.98-21.18,.99-7.17,.67-14.26-.58-21.36-.92-5.22-3.11-10.09-4.04-15.3-.18-1.01-.37-2.01-.47-2.58-.07-4.81,.34-9.15,.9-13.46Zm16.63,45.34c.23,2.29,1.02,2.37,2.68,1.11,2.43-1.85,4.95-3.59,7.43-5.38,.54-.39,1.2-1.09,1.75-.34,.59,.81-.4,1.19-.91,1.5-3.89,2.33-6.81,6.24-11.64,7.08-2.62,.45-5.26,.64-7.9,.58-1.5-.04-2.29,.42-2.32,1.94-.05,2.32-.61,4.54-1.23,6.75-.29,1.05,.06,1.55,1.09,1.86,11.14,3.32,21.13,.55,30.26-5.99,5.53-3.96,4.5-14.34-1.57-17.31-5.71-2.79-11.9-3.95-18.09-5.03-3.18-.56-6.41-.84-9.6-1.33-1.41-.22-1.64,.29-1.34,1.53,1.12,4.69,1.43,9.44,.98,14.23-.12,1.34,.33,1.88,1.69,1.78,1.87-.14,3.75-.25,5.62-.27,1.67-.02,1.98-.85,1.73-2.31-.23-1.38-.88-2.58-1.46-3.79-.35-.71-.77-1.32-.26-2.52,1.82,1.77,2.86,3.68,3.08,5.9Zm-63.1,32.97c-.29-.31-.6-.61-.91-.9-4.41-4.05-5.38-4.08-10.19-.62-2,1.44-4.05,2.82-6.19,4.03-1.2,.68-1.35,1.04-.24,1.92,8.86,7,14.53,16.28,19.12,26.42,1.84,4.07,3.49,8.12,3.99,12.56,.22,1.91,.9,1.67,2.04,.72,.71-.59,1.46-1.21,2.3-1.57,4.94-2.16,6.62-5.8,5.15-10.26-.83-13.23-6.83-23.3-15.09-32.29Zm74.79,9.11c3.99-1.86,5.37-4.98,5.14-9.04-.08-1.39,.59-3.14-.6-4.13-1.44-1.2-2.52,.65-3.67,1.15-9.55,4.18-18.59,2.56-27.39-2.15-1.27-.68-1.81-.25-2.46,.73-2.12,3.18-2.06,5.27,.38,8.18,2.25,2.7,4.94,4.93,7.67,7.1,2.55,2.02,5.54,1.91,8.56,1.64,4.29-.57,8.41-1.64,12.38-3.49Z"/></g></g></g></svg>