<?xml version="1.0" encoding="UTF-8"?><svg xmlns="http://www.w3.org/2000/svg" xmlns:xlink="http://www.w3.org/1999/xlink" viewBox="0 0 400 356"><defs><style>.e{fill:#fff;}.f{fill:#557cbd;}.g{fill:#eff0f2;}.h{fill:#2f2f2f;}.i{fill:#c7c7c7;}.j{fill:#dadada;}.k{clip-path:url(#c);}.l{clip-path:url(#d);}.m{fill:#0e0e0e;}.n{fill:none;}.o{fill:#093974;}.p{fill:#adacac;}</style><clipPath id="c"><rect class="n" x="0" y="-369.85" width="400" height="356"/></clipPath><clipPath id="d"><rect class="n" width="400" height="356"/></clipPath></defs><g id="a"/><g id="b"><rect class="e" width="400" height="356"/><g class="k"><g><path class="n" d="M136.82,5.04l.8,.07c-.27-.02-.69-2.55-.64-3.78-.05,1.24-.1,2.48-.16,3.72Z"/><path class="f" d="M137.61,5.11c.11-.8,.29-1.6,.32-2.41,.02-.46,.04-.91,.06-1.37h-1.02c-.05,1.24,.38,3.76,.64,3.78Z"/><path class="f" d="M258.16,5.57h.6V1.33h-.57c-.02,1.48-.03,2.91-.03,4.25Z"/><path class="f" d="M136.97,1.33h1.02c.09-1.97,.17-3.94,.25-5.91h-1.03c-.08,1.97-.17,3.94-.25,5.91Z"/><path class="f" d="M258.19,1.33h.57V-4.58h-.46c-.04,2.04-.08,4.02-.11,5.91Z"/><path d="M183.29-154.81c-1.61,2.33-3.26,4.25-4.4,6.45-4.11,7.96-6.43,16.53-8.4,25.22-3.7,16.31-7.43,32.62-11.23,48.91-.36,1.53-.1,2.16,1.32,2.92,1.61,.86,3.08,2.14,4.3,3.51,3.67,4.12,6.88,8.68,11.79,11.53,.13,.07,.11,.39,.35,1.31-1.35-.7-2.43-.99-3.12-1.67-2.98-2.92-5.9-5.91-8.74-8.96-1.92-2.06-3.62-4.36-6.74-5.29-1.2,4.35-2.34,8.57-3.55,12.78-.62,2.15-1.22,4.32-2.08,6.38-.74,1.77-.39,3.06,.83,4.42,4.39,4.93,9.68,8.63,15.48,11.66,.57,.3,1.08,.69,1.36,1.43-7.38-2.77-13.54-7.32-18.88-13.45-1.93,3.95-5.4,5.91-8.98,7.79-.61,.32-1.17,1.34-1.2,2.07-.62,12.91-1.15,25.82-1.71,38.73-.04,.81-.21,1.61-.32,2.41l-.8-.07c.59-13.93,1.18-27.87,1.78-42.32-1.57,.68-2.65,1.09-3.67,1.6-4.12,2.09-6.49,1.92-9.61-1.47-2.62-2.85-4.82-6.07-7.2-9.13-.23-.29-.42-.63-.68-.89-7.73-7.85-7.79-17.11-4.35-26.64,1.67-4.63,2.05-9.25,2.21-14.01,.46-14.34,.83-28.68,1.43-43.01,.33-7.88,4.17-14.35,8.96-20.35,6.35-7.96,15.1-11.92,24.45-14.96,4.12-1.34,8.24-2.66,12.3-4.16,3.35-1.24,5.73-3.64,8.09-6.39,4.92-5.72,3.63-12.08,2.97-18.48-.4-3.94-.95-7.84-2.81-11.44-.4-.77-.44-1.73-.28-2.76,2.49,6.23,5.64,11.95,10.9,16.47,.41-.5,.86-.89,1.12-1.38,1.68-3.27,4.43-4.46,7.96-4.26,.89,.05,1.79,.02,2.69,.02,6.21-.03,12.55-.58,17.42,4.92,5.63-8.18,6.69-17.19,7.55-25.51,1.31-.8,2.36-1.12,2.93-1.83,2.33-2.94,2.85-6.34,2.04-9.95-.39-1.74-1.63-2.39-3.37-2.18-.58,.07-1.17,.07-2.19,.13,2.25-2.14,5.45-1.33,6.47,1.13,1.65,4.01-.26,10.61-3.7,13.24-.66,.5-1.26,1.46-1.35,2.27-.81,7.25-2.31,14.28-5.67,20.84-.44,.87-.18,2.17-.04,3.25,.91,7.3,4.68,12.7,11.59,15.19,6.57,2.37,13.41,4.02,20.13,5.96,6.3,1.81,12.67,3.41,18.91,5.43,4.8,1.55,7.86,5.27,10.18,9.6,3.95,7.37,5.57,15.4,6.54,23.6,1.99,16.73,.81,33.36-.89,50.06-1.15,11.26-1.34,22.7-.88,34.01,.5,12.27-8.22,17.96-15.82,20.21-1.78,.53-3.94-.24-5.93-.45-1.67-.18-3.37-.76-5-.61-17.36,1.59-34.75,2.35-52.16,1.25-9.16-.58-18.28-1.76-27.41-2.69-.41-.04-.8-.27-1.21-.97,.68-.04,1.37-.18,2.03-.09,13.56,1.9,27.17,2.93,40.87,2.99,16.16,.07,32.25-.93,48.3-2.84,1.48-.18,2.01-.87,1.87-2.17-.12-1.18-.27-2.39-.67-3.5-2.75-7.68-7.43-13.91-14.18-18.55-4.87-3.34-10.26-3.72-15.9-2.85-14.67,2.26-29.35,4.53-44.04,6.71-2.95,.44-5.95,.5-8.94,.65-.79,.04-1.6-.26-3.06-.52,.89-.5,1.11-.72,1.35-.74,11.28-1.19,22.57-2.26,33.84-3.59,5.11-.6,10.18-1.58,15.21-2.66,1.58-.34,3.07-1.4,4.42-2.39,1.38-1,2.64-2.22,3.77-3.51,5.22-5.96,11.89-6.92,19.21-5.71,3.21,.53,6.32,1.35,8.6,3.89,.58,.64,.92,1.5,1.09,2.59-4.44-5.41-10.48-5.43-16.53-5.55-7-.13-10.39,5.43-15.05,9.4,8.98-1.56,16.31,1.44,22.21,7.85,5.61,6.09,10.54,12.64,9.73,21.68,6.34-1.25,12.02-8.3,12.04-15.2,.01-5.83-.4-11.67-.08-17.48,.59-10.58,1.63-21.14,2.42-31.71,1.27-16.98,1.4-33.9-2.94-50.55-.45-1.73-1.05-3.43-1.65-5.11-2.84-7.97-7.9-13.57-16.42-15.66-8.34-2.04-16.63-4.24-25.19-6.44-.94,2.34-1.75,4.64-2.79,6.84-5.7,12.07-14.08,21.94-24.77,29.87-3.41,2.53-3.93,2.6-7.17-.27-4.8-4.26-9.35-8.79-13.99-13.23-.97-.93-1.84-1.95-3.29-3.49Zm2.76-30.63l-.47-.9c4.86,.58,4.89-3.34,6.31-5.96,.18-.33,.3-.71,.56-.96,.3-.29,.72-.66,1.08-.65,4.6,.13,9.2,.31,13.79,.51,1.11,.05,2.22,.42,3.3,.31,.97-.09,1.92-1.07,.78-1.78-2.62-1.62-5.36-3.54-8.28-4.08-3.91-.73-8.05-.47-12.06-.22-1.63,.1-3.79,.86-4.67,2.08-4.86,6.71-9.82,13.39-13.96,20.54-16.48,28.5-32.66,57.16-48.95,85.77-3.51,6.16-7.32,12.18-8.69,19.29-1.2,6.18-1.93,12.29,2.28,17.81,2.54,3.32,4.91,6.77,7.47,10.08,1.32,1.71,2.78,3.33,4.36,4.8,1.94,1.8,4.16,2.1,6.59,.72,1.48-.85,3.07-1.56,4.67-2.14,6.36-2.29,10.16-6.53,12.16-13.17,6.1-20.25,10.36-40.94,15.07-61.52,2.33-10.19,4.4-20.44,8.52-30.11,1.77-4.16,4.12-7.84,7.32-11.13,2.4-2.46,4.03-5.66,6.01-8.53,.32-.47,.56-1.27,.97-1.38,3.65-.92,7.33-1.72,10.36-2.41,.69,1.65,1.06,2.95,1.75,4.05,.35,.56,1.63,1.21,1.86,1.03,.66-.52,1.36-1.45,1.37-2.22,0-1.31-.45-2.63-.82-3.92-1.2-4.27-2.84-5.37-7.16-4.77-2.81,.39-5.6,.89-8.41,1.31-.56,.08-1.15,.01-1.73,.01l-.05-.88c4.86-.47,9.58-2.59,14.57-1.2,1.27,.36,2.46,1.88,3.15,3.16,.79,1.47,.86,3.32,1.5,4.89,.29,.71,1.19,1.18,1.82,1.76,.44-.72,1.32-1.5,1.24-2.16-.28-2.44-.75-4.88-1.39-7.25-1.01-3.69-3.97-6-7.73-5.87-3.87,.13-7.73,.58-11.59,.87-.58,.04-1.16,0-1.74,0l-.08-.67c.74-.2,1.47-.51,2.22-.58,3.57-.32,7.14-.73,10.71-.82,5.08-.12,8.41,2.64,9.56,7.64,.42,1.83,.76,3.69,1.14,5.53,.73-.88,1.3-1.83,1.14-2.65-.6-3.04-1.15-6.14-2.25-9.01-1.26-3.28-4.05-4.82-7.61-4.92-2.24-.06-4.47-.29-6.71-.34-3.08-.06-6.17-.02-9.25-.02ZM118.1-84.82l.43,.11c.2-.29,.43-.57,.6-.88,13.23-23.14,26.45-46.28,39.66-69.43,2.74-4.8,5.43-9.62,8.1-14.46,.28-.5,.18-1.21,.25-1.83-.48-.03-1-.2-1.42-.06-6.42,2.21-12.86,4.4-19.24,6.71-5.31,1.92-10.23,4.57-14.31,8.56-7.7,7.52-12.84,16.16-12.69,27.4,.08,6.19-.48,12.39-.68,18.58-.27,8.43-.47,16.86-.7,25.3Zm66.47-69.9c5.67,5.27,11.62,10.79,17.55,16.34,1.38,1.29,2.57,1.21,4.11,.14,9.6-6.71,16.99-15.41,22.86-25.42,2.01-3.43,3.36-7.24,5.14-11.16-10.85-2.89-19.42-7.61-20.56-19.96-.75,1.08-1.09,2.04-1.76,2.45-2.46,1.51-5.05,2.8-7.55,4.25-.55,.32-.91,.98-1.7,1.87,6.44,.9,8.5,5.15,9.77,10.08,.22,.86,.37,1.75,.53,2.63,.46,2.64-.11,5.01-1.78,7.13-.81,1.02-1.21,2.38-2.96,2.32-.72-.02-1.6,.44-2.16,.95-1.64,1.48-3.18,1.45-4.56-.37-.58-.77-.93-1.71-1.54-2.46-.35-.43-1.04-.94-1.48-.86-2.35,.42-4.67,.97-6.97,1.6-.53,.15-1.03,.76-1.35,1.27-1.76,2.83-3.47,5.69-5.58,9.18Zm-2.24-38.64c-2.15-2.48-4.11-4.75-6.25-7.22,.4,4.89,.78,9.47,1.2,14.48,1.85-2.66,3.45-4.95,5.06-7.26Zm26.39,1.79c-4.31-2.16-8.37-1.25-12.36-1.25q-3.4,0-4.24,3.45c1.79,.95,3.27,1.13,4.74-.83,1.93-2.58,5.17-3.42,6.45,.83,.03,.1,.23,.15,.58,.35,1.43-.75,2.97-1.57,4.83-2.55Zm-13.4,4.82c2.2,.17,3.74,.36,5.27,.35,.5,0,1.45-.61,1.42-.86-.12-1.2-.41-2.42-.89-3.52-.11-.24-1.5-.29-1.9,.05-1.27,1.07-2.35,2.36-3.9,3.98ZM265.04-32.22c-1.75,.18-3.19,.32-5.21,.53,3.04,1.16,3.67,1.09,5.21-.53Z"/><path d="M260.52-25.48V3.79h-.6V-25.48h.6Z"/></g></g><g><path class="o" d="M131.14,226.07c0,1.55-.33,2.66-.99,3.35-.66,.69-1.66,1.03-2.98,1.03h-12c-1.33,0-2.32-.34-2.98-1.03s-.99-1.8-.99-3.35v-14.58c0-.37,.07-.61,.22-.74,.15-.12,.39-.18,.74-.18h18.04c.34,0,.59,.06,.74,.18,.15,.12,.22,.37,.22,.74v14.58Zm11.67,17.45c.05,.37-.01,.6-.18,.7-.17,.1-.43,.17-.77,.22-1.69,.17-3.46,.33-5.28,.46s-3.66,.25-5.49,.35c-1.83,.1-3.63,.17-5.41,.22-1.78,.05-3.46,.07-5.03,.07-2.36,0-4.04-.63-5.06-1.9-1.02-1.26-1.53-3.28-1.53-6.06v-4.05c0-.37,.07-.61,.22-.74s.39-.18,.74-.18h5.15c.34,0,.59,.06,.74,.18s.22,.37,.22,.74v3.35c0,.88,.18,1.53,.55,1.95s1.04,.61,2.02,.59c1.33-.02,2.73-.07,4.21-.13,1.49-.06,2.99-.13,4.51-.22s3.05-.2,4.58-.33c1.53-.13,3.02-.28,4.47-.42,.34-.05,.58,0,.7,.15s.21,.41,.26,.77l.37,4.27Zm-19.47-18.85c.42,0,.7-.08,.85-.24s.22-.47,.22-.94v-7.33h-6.48v7.33c0,.47,.07,.78,.22,.94s.43,.24,.85,.24h4.34Zm22.93-.59c0,.37-.07,.61-.22,.74s-.39,.18-.74,.18h-3.39v8.95c0,.37-.07,.61-.22,.74-.15,.12-.39,.18-.74,.18h-5.15c-.34,0-.59-.06-.74-.18-.15-.12-.22-.37-.22-.74v-22.46c0-.37,.07-.61,.22-.74,.15-.12,.39-.18,.74-.18h5.15c.34,0,.59,.06,.74,.18,.15,.12,.22,.37,.22,.74v7.4h3.39c.34,0,.59,.06,.74,.18s.22,.37,.22,.74v4.27Z"/><path class="o" d="M146.09,226.18c0-.37,.07-.61,.22-.74,.15-.12,.39-.18,.74-.18h31.07c.34,0,.59,.06,.74,.18,.15,.12,.22,.37,.22,.74v4.31c0,.37-.07,.61-.22,.74s-.39,.18-.74,.18h-31.07c-.34,0-.59-.06-.74-.18s-.22-.37-.22-.74v-4.31Zm16.49,20.54c-4.79,0-8.37-.55-10.75-1.66-2.38-1.1-3.57-2.86-3.57-5.26s1.21-4.15,3.63-5.25c2.42-1.09,5.98-1.64,10.69-1.64s8.28,.55,10.69,1.64c2.42,1.09,3.63,2.84,3.63,5.25s-1.19,4.16-3.57,5.26c-2.38,1.1-5.96,1.66-10.75,1.66Zm14.25-25c.05,.37-.01,.6-.18,.7-.17,.1-.43,.17-.77,.22-1.69,.17-3.44,.32-5.25,.44s-3.6,.23-5.38,.31c-1.78,.09-3.54,.15-5.28,.18-1.74,.04-3.4,.05-4.97,.05-2.36,0-4.04-.63-5.06-1.9-1.02-1.26-1.53-3.28-1.53-6.06v-4.2c0-.37,.07-.61,.22-.74,.15-.12,.39-.18,.74-.18h5.15c.34,0,.59,.06,.74,.18,.15,.12,.22,.37,.22,.74v3.5c0,.88,.18,1.53,.55,1.95,.37,.42,1.04,.61,2.02,.59,2.67-.05,5.53-.15,8.56-.29,3.03-.15,5.99-.38,8.89-.7,.34-.05,.58,0,.7,.15,.12,.15,.21,.4,.26,.77l.37,4.27Zm-14.25,19.51c1.47,0,2.67-.02,3.61-.07,.93-.05,1.67-.13,2.21-.26s.91-.28,1.12-.46c.21-.18,.31-.41,.31-.68,0-.25-.1-.46-.31-.64-.21-.18-.58-.34-1.12-.46s-1.28-.21-2.21-.28-2.13-.09-3.61-.09-2.67,.03-3.61,.09c-.93,.06-1.67,.15-2.21,.28-.54,.12-.92,.28-1.12,.46-.21,.18-.31,.4-.31,.64,0,.27,.1,.5,.31,.68,.21,.18,.58,.34,1.12,.46,.54,.12,1.28,.21,2.21,.26,.93,.05,2.13,.07,3.61,.07Z"/><path class="o" d="M195.6,221.13h6.48v-9.65c0-.37,.07-.61,.22-.74,.15-.12,.39-.18,.74-.18h4.82c.34,0,.59,.06,.74,.18,.15,.12,.22,.37,.22,.74v27.09c0,1.55-.33,2.66-.99,3.35-.66,.69-1.66,1.03-2.98,1.03h-12c-1.33,0-2.32-.34-2.98-1.03-.66-.69-.99-1.8-.99-3.35v-27.09c0-.37,.07-.61,.22-.74,.15-.12,.39-.18,.74-.18h4.82c.34,0,.59,.06,.74,.18,.15,.12,.22,.37,.22,.74v9.65Zm6.48,6.11h-6.48v8.76c0,.47,.07,.78,.22,.94s.43,.24,.85,.24h4.34c.42,0,.7-.08,.85-.24s.22-.47,.22-.94v-8.76Zm21.87,1.03c0,.37-.07,.61-.22,.74-.15,.12-.39,.18-.74,.18h-3.39v14.69c0,.37-.07,.61-.22,.74-.15,.12-.39,.18-.74,.18h-5.15c-.34,0-.59-.06-.74-.18-.15-.12-.22-.37-.22-.74v-32.4c0-.37,.07-.61,.22-.74,.15-.12,.39-.18,.74-.18h5.15c.34,0,.59,.06,.74,.18,.15,.12,.22,.37,.22,.74v11.6h3.39c.34,0,.59,.06,.74,.18,.15,.12,.22,.37,.22,.74v4.27Z"/><path class="o" d="M223.76,239.21c0-.37,.07-.61,.22-.74,.15-.12,.39-.18,.74-.18h8.69v-6.55c0-.37,.07-.61,.22-.74,.15-.12,.39-.18,.74-.18h5.15c.34,0,.59,.06,.74,.18s.22,.37,.22,.74v6.55h15.31c.34,0,.59,.06,.74,.18,.15,.12,.22,.37,.22,.74v4.31c0,.37-.07,.61-.22,.74-.15,.12-.39,.18-.74,.18h-31.07c-.34,0-.59-.06-.74-.18-.15-.12-.22-.37-.22-.74v-4.31Zm2.21-16.49c0-.37,.07-.61,.22-.74s.39-.18,.74-.18h19.99c.07-1.18,.11-2.36,.11-3.53,0-.59-.12-.99-.35-1.21-.23-.22-.57-.33-1.01-.33h-18.33c-.34,0-.59-.06-.74-.18-.15-.12-.22-.37-.22-.74v-4.31c0-.37,.07-.61,.22-.74,.15-.12,.39-.18,.74-.18h22.79c1.33,0,2.32,.34,2.98,1.03,.66,.69,.99,1.8,.99,3.35,0,1.67-.03,3.39-.09,5.15-.06,1.77-.15,3.53-.28,5.28s-.27,3.47-.44,5.14c-.17,1.67-.37,3.24-.59,4.71-.05,.37-.15,.62-.29,.75s-.43,.18-.85,.13l-4.97-.55c-.34-.05-.6-.16-.77-.33s-.22-.47-.15-.88c.34-1.94,.62-4.07,.85-6.41h-19.58c-.34,0-.59-.06-.74-.18-.15-.12-.22-.37-.22-.74v-4.31Z"/><path class="o" d="M257.26,239.21c0-.37,.07-.61,.22-.74,.15-.12,.39-.18,.74-.18h31.07c.34,0,.59,.06,.74,.18,.15,.12,.22,.37,.22,.74v4.31c0,.37-.07,.61-.22,.74-.15,.12-.39,.18-.74,.18h-31.07c-.34,0-.59-.06-.74-.18-.15-.12-.22-.37-.22-.74v-4.31Zm30.7-7.77c.05,.37-.01,.6-.18,.7-.17,.1-.43,.17-.77,.22-1.69,.17-3.44,.32-5.23,.44-1.79,.12-3.58,.23-5.38,.31-1.79,.09-3.55,.15-5.28,.18-1.73,.04-3.38,.05-4.95,.05-2.36,0-4.04-.63-5.06-1.9-1.02-1.26-1.53-3.28-1.53-6.06v-13.92c0-.37,.07-.61,.22-.74,.15-.12,.39-.18,.74-.18h26.03c.34,0,.59,.06,.74,.18,.15,.12,.22,.37,.22,.74v4.31c0,.37-.07,.61-.22,.74-.15,.12-.39,.18-.74,.18h-19.92v7.99c0,.88,.18,1.53,.55,1.95,.37,.42,1.04,.61,2.02,.59,2.67-.05,5.52-.15,8.54-.29s5.98-.38,8.87-.7c.34-.05,.58,0,.7,.15,.12,.15,.21,.4,.26,.77l.37,4.27Z"/></g><g><g><path class="g" d="M199.9,97.75c-23.9,0-47.79,.04-71.69-.05-3.19-.01-5.26,2.31-5.25,5.17,.08,29.76,.1,59.51-.03,89.27-.01,3.2,3.05,5.63,5.64,5.63,47.51-.03,95.03-.04,142.54,.01,3.03,0,5.95-2.94,5.94-5.94-.11-29.48-.06-58.95-.06-88.43,0-3.81-1.84-5.66-5.64-5.66-23.82,0-47.63,0-71.45,0Z"/><path class="m" d="M199.9,97.75c23.82,0,47.63,0,71.45,0,3.8,0,5.64,1.85,5.64,5.66,0,29.48-.04,58.95,.06,88.43,.01,3-2.91,5.94-5.94,5.94-47.51-.05-95.03-.04-142.54-.01-2.6,0-5.66-2.43-5.64-5.63,.12-29.76,.1-59.51,.03-89.27,0-2.86,2.06-5.18,5.25-5.17,23.9,.09,47.79,.05,71.69,.05Zm-1.24,10.26c.1,0,.21,.05,.23-.11,.03-.17-.04-.27-.21-.29-.31,.12-.36,.25-.02,.4Zm-32.29,.58l.02-.02c-.39,.3-.44,.72-.45,1.17-.6,.45-.56,1.09-.52,1.74-.35,.08-.4,.46-.63,.67l-.34-.89c-.07-.84-.71-1.43-.96-2.18,.04-.28,.15-.58-.23-.73h0c-.8-.34-1.6-.4-2.39,.02-.02,2.16-.04,4.32-.05,6.49,0,1.63,0,1.63,1.6,1.54,.11,0,.23-.06,.34-.1,.48-.89,.08-1.85,.23-2.77,.02-.13-.28-.6,.27-.38,.18,.6,.31,1.23,.56,1.8,.24,.54,.52,1.24,1.35,.64,.84-.56,.89-1.52,1.17-2.35l-.2-.58c.65,.04,.39,.53,.44,.87,.13,.93-.28,1.91,.24,2.81,.2,.02,.4,.04,.59,.07,1.06,.18,1.46-.19,1.39-1.33-.11-1.88-.01-3.77-.04-5.66,0-.35,.25-.81-.24-1.06l-.56,.05c-.53,.17-1.12-.2-1.62,.2Zm-7.68,5.29l-.09-.36c.1-.25,.17-.54,.32-.76,1.16-1.69,1.01-2.89-.55-4.19-.13-.08-.24-.17-.38-.23-1.27-.51-2.54,.1-3.81,.04l-.56-.05c-.51,.24-.25,.7-.25,1.04-.03,1.75-.01,3.5-.01,5.25q0,1.87,1.97,1.7c.49-.45,.1-1.03,.22-1.54,.08-.36-.21-.83,.19-1.07,.45-.27,.63,.34,1,.43v-.02c0,.41-.02,.83,.49,.99,.19,.4-.07,1.01,.57,1.2,.66,.2,1.4,.29,1.96-.03,.24-.14,0-.87-.36-1.22l.02,.02c-.04-.53-.26-.95-.73-1.22h0Zm51.78,1.59l.04,.38-.27,.24c-.2-.02-.4-.02-.59-.06-.28-.06-.7,.19-.8-.28-.11-.5,.33-.38,.6-.5,.78-.33,.27-1.03,.37-1.56,.1-.53-.32-.53-.7-.53-.36,0-.73-.04-1.08,.01-.37,.05-1.06-.27-.96,.47,.07,.56-.65,1.56,.66,1.64,.29,.02,.44,.15,.4,.45-.04,.25-.23,.27-.44,.3-.36,.04-.78-.12-1.26,.45,1.41,.17,2.61,.11,3.81,.05,.99,.9,2.05,.39,3.1,.19-.56-.2-1.13-.24-1.7-.19-.59,.05-.65-.29-.63-.73l.2-.34c.67-.02,1.33-.03,2-.06,.22-.01,.55-.04,.16-.36l-.04-.49c-.02-.68-.55-.4-.89-.45-.47-.07-.98,.13-1.63-.27,.8-.32,1.43-.15,2.04-.21,.21-.02,.41-.09,.41-.33,0-.17-.13-.26-.3-.32-1.42-.54-2.44,.11-2.46,1.55l-.05,.51c-.14,.05-.4,.08-.41,.15-.05,.3,.26,.17,.4,.27Zm3.29,55.06c-.11-.28-.23-.35-.36-.01l-.03,1.17c-1.08,.19-2.21,.49-2.38-1.4-.65,1.97-.49,2.19,1.14,2.1,.36-.02,.78-.3,1.11,.18-.6,.69-1.61-.06-2.31,.62,.88,.6,2.52-.57,2.58,1.64,.48-.95,.35-1.56,.2-2.16,.22-.71,.13-1.42,.04-2.13Zm-43.05-58.58l.26,.24c-.02,.52,.33,.51,.69,.49,.35,.48,.94,.51,1.41,.77,.76,.42,.59,.75,.05,1.16-.64,.08-1.13-.22-1.63-.57-.18-.13-.71-.72-.79,.16-.6,.15-.67,.52-.46,1.03v-.03c-.15,.27-.08,.41,.24,.39h-.02c-.12,.25,.1,.33,.26,.42,1.69,.98,3.34,.73,4.77-.7,.77-1.23,.7-2.23-.28-3.09-.65-.57-1.31-1.16-2.22-1.31-.44-.07-.63-.26-.54-.71,.1-.53,.51-.46,.84-.38,.3,.07,.56,.31,.86,.39,.7,.2,1.09-.37,1.53-.73,.24-.2,.17-.6-.15-.68-.9-.22-1.65-1.07-2.54-.91-.88,.15-2.11,.07-2.37,1.4-.84,.92-.79,1.83,.12,2.68l-.03-.03Zm60.98,3.14c.02-.44,.06-.88,.04-1.32-.02-.29,.2-.76-.21-.83-.52-.08-.28,.43-.35,.69-.06,.25-.2,.42-.42,.54l-.03-.55c-.51-.73-1.75-.71-2.24,.03h-.04c-.75-.14-1.36-1.16-2.27-.34-.19,.17-.73-.15-.71,.37,.03,.45,.61,.05,.76,.28-.09,.51-1.5,.24-.56,1.2l-.02-.04c-.25,.11-.71-.02-.68,.44,.02,.31,.36,.26,.58,.24,.73-.08,1.14,.14,1.03,.95-.02,.16,.12,.3,.31,.24,.09-.03,.22-.15,.21-.23-.08-1.52,1.03-.82,1.71-.93,.49,.42,1.07,.11,1.6,.2,.29,.05,.67-.12,.74,.38,.04,.24-.13,.66,.32,.63,.51-.03,.27-.48,.3-.76,.02-.23-.04-.47-.07-.7v-.49Zm-22.67-3.85c-.01,.19,.09,.24,.26,.18l.52,.21c.66,.13,.4-.36,.43-.65,.52-.34,1.08-.64,1.56-1.03,.53-.44,.42-1.11,.33-1.69-.09-.58-.65-.34-1-.34-.41,0-.77-.1-1.1-.32l-.24,.03-.5,.03c-.17-.05-.27,.05-.35,.17l-.33,.15c-.59-.03-1.3-.25-1.73,.11-.23,.19-.01,.93,0,1.43,0,.16,0,.34-.06,.47-.35,.65,.1,.59,.52,.67,.56,.11,1.18-.34,1.69,.16l.02,.41Zm24.98,61.85l.3,.07c.18,.38-.27,.95,.48,1.18,1.27,.38,1.03-.5,1.09-1.17l.42-.03c.62,.13,1.66-.4,1.49,.96-.02,.16,.13,.31,.3,.29,.24-.03,.3-.24,.28-.45-.03-.5,.05-.89,.69-.77,.87,.17,1.74-.38,2.61,.03l.13,.62c.03,.26,.08,.51,.43,.5h.37c1.34-.73,2.89-.2,4.36-.67-.84-.27-1.11-.66-.8-1.49,.44-1.16,.15-1.45-1.13-1.36,0,.13,.06,.19,.19,.22,.4,.07,.75,.29,.58,.72-.19,.47-.69,.55-1.13,.41-.36-.11-.63-.38-.4-.83,.08-.16,.33-.35,.1-.51-.31-.21-.6-.04-.85,.19h-.29c-.11-.33,.01-.98-.68-.48h-.26c-.49-.15-.51,.18-.47,.5,.05,.45-.19,.62-.57,.68h-.38c-.19-.33,.22-.89-.41-1.09-.33,.58,.13,1.39-.59,1.82-.23-.16-.32-.52-.69-.47-.12-.48-1.05-.55-.65-1.34,.06-.13-1.71-.11-1.96,.21l.18,.12,.95,.08c.03,.46-.33,.56-.66,.65-.3,.08-.63,.1-.55,.55-.16,.22-.4,.2-.63,.19-.01-.32-.03-.63-.03-.95-.01-1.34-.23-1.44-1.55-.74l-.27,.07c-.67-.44-1.53,.06-2.21-.47-.16-.12-.9,.14-.92,.28-.11,.84-.19,1.7,.17,2.51,.16-.2,.17-.39,.21-.57,.04-.2-.14-.48,.21-.58q.34,1.32,1.17,1.01c.41,.78,.89,.41,1.37,.09Zm2.47-56.97l.06-.72,.94-.02,.22,.19c0,.27,.08,.46,.41,.45,.32,0,.37-.21,.41-.47,.05-.3-.18-.71,.3-.89,.33,1.43,.7,1.67,2.02,1.4,.19-.04,.43,0,.44-.28,.02-.34-.23-.36-.48-.35-.24,.01-.48,.04-.72,.05-.2,.01-.46,0-.49-.22-.05-.33,.25-.38,.48-.35,.81,.1,.79-.43,.76-.97-.02-.35,.07-.85-.47-.74-.45,.09-1.32-.58-1.29,.58,0,.21-.09,.27-.28,.25-.2-.02-.22-.18-.27-.33-.09-.34,.24-1.02-.6-.79l-.43,.19c-.56-.01-1.12-.03-1.68-.03-.2,0-.42,.03-.44,.29-.01,.27,.23,.27,.41,.33l.06,.52c0,.3,.09,.61-.36,.74-.51,.15-.31,.34,.05,.45l.23,.4c0,1.29,1.3,1.72,2.87,.92-.42-.38-.92-.12-1.36-.21-.3-.06-.78,.23-.81-.39Zm12.45-2.98c-.13-.24-.44-.42-.47-.08-.13,1.31-.17,2.63,.02,4.1,.53-.39,.36-.78,.44-1.08h.07l.06-.03c.85,.13,1.72-.25,2.57,.09,.03,.31-.25,.83,.33,.82,.46,0,.29-.49,.29-.77,0-.9,.64-1.8,.02-2.72-.13-.19,.06-.63-.39-.57-.41,.05-.28,.42-.28,.67-.01,.56,.02,1.12,.03,1.68-.12,.02-.26,.1-.34,.06-.47-.21-1.24,.5-1.47-.43-.22-.91,.35-1.04,1.06-1.01,.18,0,.29-.13,.29-.3,0-.24-.18-.35-.39-.35-.56,0-1.11,0-1.67,0-.05-.06-.11-.08-.19-.07Zm-30.75,2.43c-.12,.93,.61,.48,.96,.54,.5,.1,1.17-.2,1.18,.71,0,.21,.2,.23,.35,.19,.08-.03,.18-.16,.18-.25,.01-.39,0-.79,0-1.18,.02-.08,.02-.16,0-.24l-.03-.07c.27-.16,.53-.15,.77,.05l-.03,.24,.02,.49c-.04,.34-.25,.9,.18,.91,.83,.02,1.72,.39,2.5-.21,.25-.19,.15-.34-.06-.47l-.03-.95c.05-.27,.59-.13,.46-.53-.1-.28-.38-.19-.6-.2-.31-.01-.61,0-.92,0,.16-.34,.55-.25,.8-.43,.39-.26,.44-.59,.17-.89-.51-.57-1.2-.51-1.88-.41-.4,.06-.62,.3-.68,.71-.1,.73,.64,.67,.94,1.02l-1.61-.05c-.11-.54,.31-1.21-.24-1.6-.4-.29-.63,.31-.95,.46l-.25-.03c-.62-.69-1.52-.13-2.23-.49-.19-.09-.23,.26-.23,.45,0,1.04,0,2.08,0,3.12,0,.22-.04,.54,.32,.5,.32-.04,.22-.36,.28-.57,.1-.36-.32-.92,.38-1.06l.22,.23Zm-2.01-7.72l-.34,.14-2.89-.23c-.02,1.03-.05,2.06-.04,3.1,0,.28-.19,.75,.24,.8,.5,.06,.27-.45,.37-.7,.22-.52,.64-.82,1.08-1.01,.44,.29-.26,.76,.38,.95l.84-1.09h.34c.01,.33,0,.66,.05,.97,.05,.31-.22,.87,.29,.88,.51,0,.17-.59,.31-.88h.42c.52-.35,.95-1.42,1.65-.2,.1,.18,.28,.05,.37-.08,.11-.15,.08-.3-.06-.41-.84-.65-.91-1.32,.08-1.99-.74-.32-1.38-.1-1.99-.2l-.47-.04c-.21-.44-.43-.4-.65,0Zm28.55,9.15c1.26,.02,.48-.91,.64-1.4,.12-.37-.06-.8,.24-1.14,.46,.43-.14,1.22,.44,1.5,.49,.24,1.1,.09,1.65,0,.2-.03,.4-.11,.38-.36-.02-.27-.25-.32-.44-.27-1.26,.29-1.37-.44-1.28-1.39,.02-.25,.12-.62-.25-.7-.42-.09-.17,.58-.56,.57-.28-.27,.15-.89-.48-.96-.41-.05-.38,.31-.46,.57h-.04c-.41-.2-.96-.11-1.19-.63-.48,.51-.99,.62-1.54,.11-.07,.08-.21,.16-.21,.24-.01,1.3,0,2.59,0,3.89h.38c.35-.7-.11-1.54,.31-2.27,.35,.33,.42,.72,.53,1.09v.7c.41,1.08,1.26,.34,1.9,.46Zm-50.87-7.13s-.02,.08,0,.12c-.7,.48-1.1,1.1-.22,1.67,.6,.39,1.41,.36,2.01-.17,.55-.49,.02-.98-.13-1.46,.27-.01,.53-.02,.8-.03,.19,.18,0,.37,.01,.55,.04,.37-.21,.96,.23,1.07,.75,.19,1.61,.27,2.33-.04,.47-.21-.58-.53-.15-.95l.49-.11c.69,.08,1.73-.43,1.62,.98,0,.07,.15,.2,.23,.21,.28,.03,.33-.21,.31-.4-.11-.91,.54-.96,1.05-.75,.83,.35,1.65,.15,2.48,.2l.46,.04c.15,.31-.24,.94,.41,.91,.5-.02,.31-.56,.32-.88,.03-.87,0-1.75,0-2.62,0-.27,.05-.61-.34-.64-.44-.04-.39,.33-.36,.59,.09,.74-.28,1-.95,1-.23-.04-.46-.07-.67-.14-.13-.04-.32-.14-.34-.24-.05-.25,.18-.27,.37-.33,.29-.1,.89,.22,.84-.29-.05-.49-.65-.18-1-.24-.27-.04-.55,0-.83,0-.08-.03-.15-.04-.23-.03-.18-.21-.49-.29-.62-.1-.73,1.06-1.43,.51-2.29-.22,.12,.84-.03,1.22-.8,.94-.51-.19-.4,.26-.4,.55,.05,.5-.28,1.05,.2,1.49,.25,.46-.05,.59-.4,.58-.41,0-1.13,.24-1.15-.22-.02-.69-.64-.54-.82-.89,.4-1.14,1.14,.04,1.86-.27-.56-.48-1.01-.94-.92-1.64,.02-.16-.05-.32-.25-.35-.22-.02-.39,.07-.43,.31-.06,.41,.03,.91-.54,1.04-.26-.18-.12-.45-.18-.67-.08-.3,.2-.91-.33-.79-.35,.07-1.35-.17-1.02,.88,.07,.22,.04,.48,.06,.72-1.21,.21-.72-1.05-1.37-1.63-.08,.71-.09,1.32-.6,1.71-.15,.12-.47,.27-.21,.55,.22,.24,.5,.1,.62-.07,.36-.46,.6-.12,.87,.08Zm11.1,3.79c-.6-.51-1.22-.83-1.9-.12-.1-.03-.26-.02-.3-.08-.13-.22-.03-.65-.44-.58-.4,.06-.24,.45-.25,.7-.02,.92-.01,1.85,0,2.77,0,.22-.09,.52,.18,.63,.33,.13,.32-.21,.46-.38,.46-.55,2.29-.41,2.71,.19,.1,.14,.17,.27,.35,.24,.31-.05,.33-.31,.33-.55,0-.96,0-1.93,0-2.89,0-.3,.09-.74-.4-.7-.48,.04-.22,.51-.33,.78h-.42Zm-36.34,70.94c.29-.2,.59-.37,.67,.16,.06,.35,.04,.71,.04,1.07,0,.23,.08,.4,.3,.44,.21,.04,.45-.02,.46-.25,.03-.59,.22-1.25-.12-1.76-.34-.52-.92-.3-1.42-.14-.15-.03-.38-.14-.44-.08-.6,.58-.17,1.32-.24,1.98-.03,.23,.29,.31,.45,.21,.51-.31,.16-.85,.28-1.28,.03-.11,.01-.24,.02-.35Zm64.97-19.66c-.82,.68-.56,1.47-.22,2.26,.2,.46,.61,.58,1.09,.55,.52-.03,.75-.29,.89-.79,.21-.72,.27-1.4-.23-2.03-.51-.59-1.03-.68-1.54,0Zm-.73,19.54c-.41-.46,.19-1.6-.6-1.54-.66,.05-.29,1.08-.33,1.67-.03,.43-.27,1.15,.33,1.24,.72,.11,.26-.78,.6-1.08,.25,.91,.86,1.19,1.72,.93,.25-.08,.59-.24,.46-.57-.1-.26-.39-.18-.6-.02-.25,.19-.55,.29-.7-.05-.1-.23-.1-.57,0-.8,.14-.35,.45-.2,.71-.08,.19,.09,.38,.09,.56-.04-.66-1.1-1.42-.98-2.15,.35Zm-33.19-69.14c-.4-.8-1.11-.42-1.72-.45-.03-.02-.08-.04-.1-.07-.02-.02-.02-.07-.01-.1,.08-.5,.75-.1,.88-.56-.3-.25-.63-.08-.93-.14-.27-.05-.63,.15-.79-.27,.37-.28,.78-.12,1.16-.16,.26-.03,.66,.06,.63-.33-.02-.38-.42-.27-.68-.28-.6-.02-1.2-.01-1.79-.02l-.48-.03c-1-.34-.26,.81-.79,.9-.39-.13,.07-.76-.43-.88-.46,.52,.15,1.31-.5,1.73-.66-.05-1.26-.14-1.07-1.06,.05-.25-.08-.47-.4-.44-.27,.03-.25,.25-.27,.44-.12,.91-.06,1.69,1.15,1.71-.18,.46-.63,.93-.18,1.42,.44,.49,1.06,.5,1.67,.34,.27-.07,.51-.21,.77-.31h.5c.26,.11,.5,.25,.77,.31,.59,.15,1.21,.2,1.65-.33,.51-.62-.21-.96-.39-1.43h1.37c-.02,.23-.45,.4-.12,.71,.27,.26,.41-.01,.59-.14,.26-.19,.5-.4,.77-.57,.71-.43,.54-1.14,.45-1.72-.11-.7-.78-.29-1.2-.35-.27-.04-.73-.14-.72,.35,.01,.4,.42,.29,.67,.28,.87-.02,.68,.46,.42,.91-.18,.3-.46,.55-.87,.55Zm24.32,16.15c.56-.03,1.11-.07,1.67-.07,.53,0,.61-.33,.54-.71-.11-.53,.39-1.27-.35-1.58-1.15-.48-1.82,.05-1.83,1.3,0,.36,0,.72,0,1.08-.73-.18-1.47-.15-2.2-.02-.01-.6-.02-1.2-.03-1.8,0-.29-.05-.51-.41-.62-1.37-.4-1.97,.07-1.97,1.47,0,.67,.19,.95,.88,.9,.51-.04,1.04,0,1.56,.02-.28,2.23-.23,2.27,1.4,2.25,.61,0,.88-.16,.81-.8-.05-.47-.03-.95-.05-1.43Zm-8.67,40.99c-.02,.06-.03,.11-.02,.17-.19,1.8-.14,2.05,1.52,1.71,1.53-.32,3.03-.46,4.57-.46,2.27,0,4.55,0,6.82-.01,.29,0,.73,.22,.89-.41-1.48-.28-2.94,.05-4.37-.13l-.07-.53c-.49-.97-1.34-.27-2-.43-.02-.08-.07-.19-.04-.22,.39-.39,.89-.14,1.34-.18,.38-.03,.63-.12,.59-.55-.03-.32,.17-.85-.36-.86-.78-.01-1.62-.27-2.48,.24,.76,.53,1.64-.07,2.41,.58l-1.82,.15c-.6-.1-.42,.36-.52,.68-.3,.97,.87,.5,1.09,1.15-1.55,0-3.01,0-4.47,0-.51,0-.42-.35-.44-.65v-.33c0-.55,.01-1.11,0-1.66,0-.19-.14-.51-.31-.32-.62,.72-1.23-.14-1.89,.05-.52,.16-1.21,.03-1.37,.65-.16,.66,.24,1.17,.93,1.36Zm-56.88,13.69c.39,.03,.8,.13,1.18,.07,.41-.06,1.16,.35,1.18-.33,.02-.56-.74-.13-1.1-.33-.06-.03-.11-.09-.19-.16,.19-.52,.51-.91,.91-1.25,.29-.25,.5-.58,.39-.95-.15-.49-.62-.27-.93-.24-.46,.05-1.25-.36-1.33,.3-.08,.64,.85,.04,1.15,.51-.23,.67-.77,1.16-1.25,1.67-.45,.25-.94,.11-1.41,.13-.23,0-.49,.02-.52-.33-.03-.35,.22-.37,.46-.39,.24-.01,.48-.01,.72-.02,.19,0,.29-.14,.31-.3,.03-.25-.13-.35-.36-.35-.12,0-.25,.02-.36,0-.26-.07-.76,.21-.73-.31,.03-.46,.5-.22,.78-.28,.19-.04,.41,0,.58-.07,.22-.09,.29-.38,.09-.46-.68-.29-1.41-.18-2.11-.09-.5,.07-.28,.59-.29,.91q-.07,2.6,2.59,2.31c.08,0,.16-.03,.23-.05Zm67.71-47.95q2.36-.15,2.36-2.54c0-.44,0-.88,0-1.32,0-1.08-.82-.59-1.31-.66-.5-.07-1.05-.14-1.02,.71,.04,1.28,0,2.55-.01,3.83q-2.15-.22-2.15,1.87v.72q0,2.03,2.15,1.72c0,.43,.07,.88,.01,1.3-.13,.93,.27,1.15,1.13,1.1,1.14-.06,2.29,0,3.44,.02,.01,.32,0,.64,.04,.96,.16,1.01-.15,1.48-1.27,1.33-.71-.1-1.44,.04-2.16-.03-.95-.1-1.31,.24-1.19,1.19,.06,.49,.16,1.15-.7,1-1.39-.25-1.63,.47-1.47,1.61,.03,.23,0,.48-.01,.72h-2.19c-.02-1.24-.09-2.48-.05-3.72,.03-1.05-.7-.75-1.23-.77-.54-.02-1.15-.18-1.11,.77,.06,1.24,0,2.48,0,3.73-.12-.02-.24-.06-.36-.05-1.26,.18-2.13-.03-1.81-1.63,.11-.55-.24-.66-.72-.65-.92,.02-1.85-.06-2.76,.02-.95,.09-1.12-.3-1.11-1.16,.04-4.45,.05-8.9,0-13.35-.01-1.01,.27-1.4,1.26-1.23,.83,.14,1.19-.19,1.06-1.04-.06-.39,.1-.8-.14-1.17,.44-.02,.89-.09,1.32-.03,.89,.11,1.16-.2,1.16-1.12,0-.96-.19-1.34-1.24-1.29-.85,.03-1.28,.17-1.17,1.12,.05,.43-.05,.87-.09,1.31-.32-.02-.64-.1-.95-.06-.92,.12-1.37-.18-1.2-1.17,.15-.83-.1-1.17-1.07-1.19-1.05-.02-1.14,.41-1.13,1.27,.03,4.53,.02,9.07,.02,13.6,0,5.3,.02,10.59-.02,15.89,0,.78,.19,1.08,1,1.02,1-.06,2.01-.02,3.01-.02,8.83,0,17.66-.02,26.48,.02,1,0,1.1-.39,1.08-1.2-.03-.73,.03-1.42-1.03-1.2-1.13,.23-1.42-.32-1.28-1.32,.04-.26-.06-.55-.1-.82,.4-.02,.81-.1,1.2-.05,.94,.12,1.21-.22,1.23-1.18,.02-1.04-.48-1.1-1.25-1.03-.4,.04-.81-.07-1.18,.13,.17-.8,.2-1.61-.01-2.41l-.03,.03c.4-.03,.8-.1,1.19-.07,.83,.07,1.31-.05,1.28-1.12-.03-.96-.29-1.28-1.23-1.19-.36,.04-.9,.26-1.08-.41-.31-1.17,.05-1.68,1.24-1.74,.38-.02,.89,.24,1.03-.48,.28-1.47,0-1.84-1.47-1.84-.68,0-1.37-.04-2.04,.01-.72,.06-1.09-.18-.95-.93,.23-1.26-.41-1.52-1.48-1.38-.47,.06-.87,.02-.83-.65,.06-1.24,.07-2.48,.09-3.72,.66-.17,1.43-.27,1.97,0,.56,.28,.17,1.08,.23,1.65,.04,.39,.19,.58,.58,.56,.51-.03,1.02-.05,1.53-.08,.01,.56,.03,1.12,.04,1.68,0,.3,.04,.51,.4,.62,1.35,.41,1.99-.09,1.96-1.47-.01-.66-.28-.82-.87-.79-.52,.03-1.04,0-1.56-.02,.04-.35,.14-.71,.1-1.06-.11-.94,.24-1.34,1.19-1.17,.92,.16,1.13-.24,1.13-1.13,0-.92-.22-1.36-1.19-1.18-.89,.16-1.13-.2-1.15-1.1-.02-.99,.39-1.13,1.2-1.08,.36,.03,.83,.22,1.08-.25,.52-1-.12-2.03-1.25-2.02-.28,0-.56,.04-.83,.06-.04-.43-.16-.87-.11-1.3,.11-.93-.28-1.12-1.15-1.12-.88,0-1.26,.21-1.14,1.13,.06,.43-.01,.87-.03,1.31-.31-.03-.64-.12-.94-.07-1.06,.17-1.47-.25-1.29-1.3,.02-.12,0-.24,0-.36,.05-.89-.62-.68-1.07-.64-.46,.04-1.35-.37-1.21,.59,.23,1.61-.54,1.9-1.87,1.71-.14-.02-.3,.08-.45,.12,.24-.62,.08-1.26,.11-1.9,.01-.24-.04-.43-.34-.54-1.23-.42-1.91,.08-1.97,1.34-.04,.85,.3,1.04,1.04,.98,.39-.03,.78,.06,1.18,.09,.03,1.19,.08,2.39,.08,3.58,0,.54,.13,.81,.73,.79,1.27-.05,2.55-.06,3.83-.09-.1,.83-.17,1.66,.05,2.49-.74-.25-1.5-.11-2.24-.11-2.28-.02-2.28,0-2.39,2.23-.47,.02-.95,.07-1.42,.04-.6-.04-.95,.16-.82,.79,.27,1.35-.47,1.54-1.53,1.4-.27-.04-.55-.04-.83-.06,.11-1.45,.1-2.9,0-4.35Zm-19.3,35.37l-.07-1.19c.69,1.14,1.55,1.33,2.67,.68-.28-.26-.61-.09-.91-.13-.25-.03-.6,.14-.65-.31-.06-.52,.33-.47,.64-.44,.65,.06,.7-.32,.69-.82-.02-.93-.66-1.11-2.06-.55,.1,.08,.18,.16,.27,.2,.34,.16,1.08-.21,.96,.48-.08,.45-.77,.16-1.18,.23-.47,.07-.33-.33-.35-.58-.02-.32,.02-.7-.46-.66-.79,.06-1.59-.2-2.36,.17l-.02,.6c.15,.47-.81,.75-.36,1.07,.61,.44,.38,.93,.39,1.43,0,.23-.06,.61,.2,.6,.88-.01,1.82,.47,2.63-.25l-.03-.54Zm-17.39-53.19c.02,.52,.07,1.04,.07,1.56,0,19.11,0,38.22,0,57.32v1.19h.24v-1.31c0-19.07,0-38.13,0-57.2,0-.52,.05-1.04,.07-1.56,.28,.02,.56,.05,.84,.05,21.73,0,43.45,0,65.18,0,.33,0,.71,.14,1.05-.23h-113.95c.56,.35,1.01,.23,1.44,.23,14.62,0,29.24,0,43.86,0,.4,0,.8-.04,1.2-.05Zm-40.16,50.08v.55c0,.56,.03,1.12,0,1.69-.03,.5,.13,.72,.67,.71,1.93-.02,3.85-.01,5.78,0,.46,0,.82-.13,.83-.64,.02-.66-.5-.49-.87-.49-1.55-.01-3.1,0-4.65,0v-.32c1.34,0,2.69-.07,4.03,.02,1.1,.08,1.43-.26,1.41-1.37-.02-.99-.27-1.39-1.28-1.26-.41,.05-.88,.14-1.35-.18,.92-.27,1.79-.09,2.64-.13,.61-.03,.83-.41,.93-.92,.06-.32-.15-.46-.42-.42-1.16,.17-.98-.44-.77-1.19,.13-.45,.06-.96,.09-1.44,.02-.42-.09-.68-.59-.68-1.89,.01-3.77,0-5.66,0-.36,0-.61,.07-.63,.52-.02,.52,.27,.59,.68,.58,1.16,0,2.33-.02,3.49,0,.36,0,.79-.16,1.26,.45-1.54,0-2.88-.03-4.21,.02-.43,.01-1.14-.34-1.18,.56-.04,.94,.69,.56,1.12,.59,1.24,.09,2.5-.1,3.88,.15-.4,.53-.83,.4-1.19,.41-1.36,.01-2.73,.02-4.09,0-.46,0-.76,.07-.77,.64-.02,.6,.24,.73,.79,.73,.93,0,1.88-.13,2.8,.2-.55,.11-1.1,.17-1.64,.1-.91-.12-1.27,.23-1.11,1.13Zm14.21-11.73c1.64-.35,3.01-1.22,4.35-2.18,3.23-2.32,6.04-5.12,8.81-7.95,.63-.65,1.51-1.21,1.74-2.22,.29-.27,.59-.53,.86-.83,.28-.31,.26-.49-.23-.63-3.53-1.02-7.04-2.09-10.56-3.14-.27-.08-.51-.12-.8,0-1.72,.74-3.39,1.58-5.11,2.33-1.02,.44-2.16,.58-3.08,1.26l-4.69,1.46h-.42c.2-3.25,1.37-6.19,2.94-9.01,.96-1.72,2.3-3.12,3.71-4.46,.65-.62,.89-1.33,.36-2.14-.57-.87-1.28-1.15-2.35-.76-3.33,1.18-6.05,3.1-8.09,6.03-2.35,3.37-3.28,7.04-2.82,11.1,.16,1.19,.36,2.39,.92,3.45,2.22,4.24,5.59,6.99,10.41,7.78,1.36,.47,2.72,.5,4.06-.09Zm-2.4,12.52c.68,0,1.36,0,2.04,0,.55,0,.67-.41,.69-.8,.04-.49-.39-.41-.69-.41-.76,0-1.52-.02-2.28,0-.51,.02-.83-.05-.82-.69,0-.58,.21-.78,.78-.75,.68,.04,1.36-.01,2.04,.01,1.02,.03,.73-.79,.62-1.18-.24-.84,.86-2.17-.62-2.49-1.19-.25-2.47-.04-3.71-.06-.44,0-.67,.14-.66,.62,0,.49,.27,.6,.69,.6,.72-.01,1.44,.02,2.16,0,.49-.02,.71,.13,.71,.67,0,.59-.3,.64-.75,.63-.52-.02-1.05,.05-1.56-.01-.98-.12-1.3,.23-1.28,1.24,.06,2.64,0,2.64,2.62,2.63Zm58.3-33.1c.44,0,.89-.05,1.32,.01,.92,.13,1.04-.35,1.03-1.12,0-.77-.03-1.39-1.06-1.2-.95,.17-1.45-.15-1.26-1.2,.17-.95-.37-.99-1.11-1.01-.8-.02-1.18,.15-1.1,1.04,.08,.84-.03,1.69,.03,2.52,.05,.73-.17,1.07-.92,.93-1.24-.24-1.42,.37-1.41,1.46,.01,1,.57,.87,1.16,.85,.54-.02,1.34,.26,1.16-.79-.23-1.3,.34-1.71,1.55-1.51,.2,.03,.4,0,.6,0Zm-3.72,46.63c.25,.28,.12,.91,.64,.89,.47-.03,.48-.58,.64-.93,.1-.22,.18-.44,.25-.67,.05-.17,.26-.37,.03-.53-.22-.15-.46-.1-.62,.13-.07,.1-.1,.22-.18,.31-.13,.16-.26,.14-.35-.05-.35-.75-.69-.63-1.02,.01-.09,.17-.18,.26-.31,.05-.85-1.31-1.34-.41-1.8,.38q-.75-1.18-1.42,.02c-.78-1.22-1.36-1.29-2.12-.24-.57-.87-.66-.92-1.11-.37-.64,.76-.61-.93-1.16-.28-.05,.05-.12,.14-.11,.19,.25,.66,.27,1.49,.87,1.92,.55,.4,.4-.7,.97-.6,.19,.19,.17,.68,.55,.66,.44-.03,.45-.49,.6-.8,.16-.33,.1-.82,.63-.95,.07,.28,.15,.55,.22,.81,.26,1.01,.27,1.03,1.16,.5,.28-.17,.29,.01,.42,.15,.58,.65,.83,.32,1.05-.33,.11-.35-.04-.81,.38-1.06,.42,.35,.33,.92,.63,1.28,.87,1.04,.72-.33,1.17-.5Zm-49.36-15.9c0-1.24-.02-2.48,0-3.71,.02-.78-.43-1.13-1.1-1.1-.69,.03-.42,.65-.42,1.02-.02,2.44,0,4.87-.02,7.31,0,.56-.01,.99,.79,.99,.84,0,.75-.5,.75-1.02,0-1.16,0-2.32,0-3.47Zm6.1,.91c-.92,0-1.85,.02-2.77,0-.52-.02-.71,.16-.71,.69,0,.55,.33,.54,.72,.54,.92,0,1.85,0,2.77,0,1.78,0,1.8,0,1.95,1.72,.05,.55,.27,.69,.75,.66,.39-.03,.75,.06,.85-.55,.41-2.67,.14-3.04-2.47-3.04-.36,0-.72,0-1.08,0Zm-1.72-.84c.6,0,1.2-.01,1.8,0,.62,.02,1.06-.25,1.07-.87,.02-.77-.64-.35-.99-.45-.19-.05-.4,0-.6,0q-2.09,0-2.22-2.03c0-.16,.02-.33-.04-.47-.19-.46-.59-.65-1.05-.63-.6,.02-.36,.51-.39,.82-.04,.4,0,.8,0,1.2q0,2.44,2.43,2.44Zm-5.53-37.44c.43-.06,.87-.1,1.29-.2,.44-.1,.83-.32,.91-.83,.07-.52-.36-.67-.7-.85-1.28-.7-2.6-.65-3.94-.2-.31,.1-.65,.21-.69,.58-.04,.41,.27,.62,.59,.81,.78,.45,1.63,.65,2.53,.71Zm9.23,34.96c0,.72,.01,1.44,0,2.16-.01,.49,.26,.63,.68,.59,.33-.03,.84,.15,.86-.38,.04-1.4,.03-2.8-.04-4.2-.02-.51-.44-.7-.95-.69-.64,0-.54,.45-.54,.84,0,.56,0,1.12,0,1.68Zm-22.02,19.62c-.3-.63-1.35-1.12-.3-2.06,.39-.35-.28-1.09-.9-1.02-.56,.06-1.54-.69-1.65,.59-.06,.71-.01,1.43-.01,2.15,0,.25,.01,.5,.37,.46,.26-.02,.27-.22,.31-.42,.05-.28-.2-.72,.25-.79,.39-.06,.65,.28,.79,.62,.21,.51,.47,.82,1.13,.48Zm.33-1.57c0,.32,.03,.64,0,.96-.11,1.07,.7,.77,1.2,.74,.45-.03,1.26,.39,1.27-.34,0-.51-.8-.16-1.23-.27-.04,0-.08,0-.12,0-.21,0-.4-.04-.42-.3-.03-.29,.11-.44,.4-.45,.28,0,.56,0,.84-.03,.22-.01,.37-.12,.36-.37-.01-.23-.2-.22-.35-.23-.2-.02-.4,0-.6-.02-.24-.03-.64,.13-.63-.31,0-.43,.4-.28,.64-.3,.2-.02,.4,0,.6,0,.21,0,.43-.02,.46-.27,.04-.34-.23-.33-.47-.37-1.72-.26-1.95-.08-1.95,1.57Zm89.27,.33c.05,.11-.37,.81,.3,.79,.53-.01,.17-.65,.27-1,.02-.07,0-.16,.02-.24,.03-.22,.15-.39,.38-.37,.28,.01,.25,.26,.26,.45,.01,.2,0,.4,0,.6,.02,.26-.09,.6,.35,.62,.41,.01,.41-.28,.41-.57,0-.2,0-.4,0-.6,.01-.26,.1-.5,.4-.48,.25,.02,.25,.27,.25,.47,0,.28,0,.56,.02,.84,.04,.42,.41,.47,.57,.24,.31-.44,.17-1.01,.1-1.51-.05-.38-.4-.81-.71-.64-.61,.33-1.14-.02-1.69-.01-.86,0-1.23,.31-.95,1.42Zm-14.8-14.62c-.29,.96-.49,1.67-1.33,1.87-.25,.06-.37,.33-.22,.58,.2,.34,.46,.08,.58-.05,.7-.74,1.3-.51,2.03,0,.7,.5,1.66,.13,1.95-.67,.13-.36,.25-.9-.05-1.12-.25-.2-.75-.07-1.14-.09-.02,.52-.6,.81-.48,1.33-.87-.2-1.03-.92-1.35-1.85Zm-16.72-2.52c1.07,0,1.4-.51,.9-1.43-.11-.2-.19-.32-.05-.51,.33-.42,.32-.78-.17-1.09-.46-.29-.9-.27-1.35-.03-.51,.27-.5,.71-.25,1.11,.17,.27,.02,.4-.06,.62-.33,.92-.01,1.32,.98,1.33Zm29.17,0c.85-.01,1.19-.4,.93-1.21-.11-.35-.22-.62-.04-.99,.18-.37,.01-.69-.35-.89-.52-.29-1-.15-1.44,.18-.36,.27-.36,.59-.09,.92,.15,.19,.21,.3,.05,.59-.51,.88-.12,1.42,.94,1.4Zm-20.21-23.86c.1-.78,.07-1.34-.99-1.27-.76,.06-1.31,.02-1.21,1.06,.07,.76-.05,1.39,1.09,1.3,.83-.06,1.35-.14,1.11-1.09Zm-58.13,40.76c0,1.67,0,1.68,1.52,1.62,.31-.01,.87,.23,.86-.31,0-.53-.56-.23-.87-.31-.28-.07-.71,.14-.73-.37-.02-.52,.41-.35,.7-.4,.29-.04,.76,.14,.79-.31,.03-.52-.46-.25-.73-.33-.27-.07-.76,.19-.73-.32,.02-.46,.49-.25,.78-.3,.12-.02,.24,0,.36,0,.2-.01,.42-.04,.43-.3,.02-.27-.21-.28-.4-.32-1.6-.35-1.97-.04-1.97,1.66Zm71.39-18.14c.04-1.12-.05-1.95-1.07-1.97-.88-.01-1.36,.63-1.34,1.5,.01,.83,.19,1.65,1.26,1.7,1.11,.06,1.12-.77,1.15-1.23Zm-6.62-.28c-.09-.79-.18-1.65-1.16-1.69-.86-.04-1.26,.63-1.28,1.42-.02,.81,.1,1.68,1.16,1.78,1.1,.11,1.07-.83,1.28-1.51Zm-79.2,18.29c0,.4,0,.8,0,1.19,0,.22-.08,.54,.29,.52,.26-.01,.25-.28,.23-.47-.08-.61,.13-.9,.78-.82,.26,.03,.63,.05,.59-.38-.04-.42-.42-.24-.66-.3-.24-.05-.65,.14-.66-.28-.01-.5,.44-.32,.72-.36,.12-.02,.24,0,.36,0,.2-.01,.43-.02,.45-.28,.02-.35-.26-.32-.49-.35-1.47-.22-1.61-.08-1.61,1.53Zm72.84-13.74c-.7-.07-1.48-.15-1.41,.87,.05,.81,.61,1.31,1.46,1.25,.77-.06,1.42-.43,1.41-1.31,0-1.02-.74-.95-1.46-.81Zm23.34-5.94c-.23-.5-.69-.24-1.04-.29-.53-.07-.94,.02-.91,.73,.02,.55-.05,1.05,.77,.93,.31-.04,.69,.11,.68,.51-.01,.44-.4,.53-.77,.58-.23,.03-.54-.31-.67,.16,.94,.42,1.69,.34,1.94-.27,.34-.82-.06-1.29-.84-1.51-.21-.06-.39-.14-.37-.38,.02-.26,.25-.24,.45-.27,.26-.03,.56,.11,.77-.2Zm-30.08,2.25c.31-.73,1.74-1.12,.73-2.23-.52-.57-1.09-.45-1.81,.04,.66,.31,1.37-.23,1.55,.51,.11,.44-.17,.83-.61,1.06-.42,.22-1.03,.44-.83,.99,.19,.54,.84,.2,1.28,.25,.27,.04,.6,.08,.8-.23-.32-.41-.83-.04-1.11-.4Zm22.8-2.13c.63,.24,1.29-.2,1.56,.36,.19,.41-.22,.72-.48,.99-.37,.39-1.25,.65-.99,1.17,.28,.56,1.15,.19,1.76,.22,.1,0,.2-.1,.32-.17-.27-.5-.87-.08-1.2-.49,.56-.6,1.77-1.04,.96-2.14-.43-.59-1.15-.53-1.92,.06Zm-18.73,1.12c-.08-.87-.46-1.56-1.36-1.54-.91,.02-1.14,.81-1.09,1.57,.05,.72,.03,1.64,1.13,1.63,1.08,0,1.19-.87,1.32-1.66Zm11.7,1.68c1.27-.05,1.14-1.01,1.18-1.69,.04-.7-.13-1.51-1.12-1.55-.74-.03-1.36,.8-1.28,1.71,.07,.82,.33,1.51,1.22,1.52Zm-12.37-53.13c-.08-.58,.07-1.42-.93-1.45-.94-.02-1.17,.68-1.18,1.47,0,.75,.22,1.4,1.07,1.46,1,.07,.97-.72,1.03-1.48Zm7.18,70.03c-.14-.65-.44-1.21-1.19-1.23-.76-.02-1.16,.51-1.21,1.2-.05,.7,.43,1.11,1.09,1.16,.74,.05,1.15-.39,1.31-1.13Zm2.69,.06c-.07-.68-.39-1.21-1.14-1.28-.73-.08-1.14,.44-1.23,1.07-.11,.74,.31,1.25,1.09,1.29,.69,.04,1.11-.35,1.28-1.07Zm12.89,0c-.05,.67,.32,1.08,1.04,1.07,.69,0,1.27-.31,1.3-1.1,.03-.77-.5-1.18-1.19-1.24-.77-.06-1.15,.42-1.14,1.27Zm-68.66,.32c-.04,.53,.15,.93,.63,1.19,.39,.21,.78,.18,1.13-.04,.22-.14,.53-.32,.39-.64-.11-.26-.41-.21-.62-.08-.26,.16-.49,.31-.68-.05-.13-.26-.13-.54,.03-.79,.24-.38,.44-.11,.67,.05,.18,.12,.41,.09,.55-.04,.12-.11,.08-.29-.08-.4-.47-.33-.98-.29-1.49-.14-.46,.14-.55,.53-.53,.95Zm68.32-.94c-.51-.71-1.07-.83-1.7-.45-.59,.36-.78,.97-.45,1.56,.32,.57,.92,.75,1.57,.5,.24-.09,.63-.23,.51-.55-.13-.34-.46-.19-.69-.02-.24,.18-.46,.15-.61-.08-.14-.2-.15-.45-.04-.69,.12-.26,.33-.36,.58-.23,.23,.11,.44,.17,.84-.04Zm-18.07,.07c-.19-.67-.61-.83-1.2-.69-.62,.14-.8,.6-.81,1.16-.02,.53,.13,.96,.69,1.11,.64,.18,1.16,.03,1.42-.64-.36-.24-.55,.06-.8,.12-.52,.12-.86-.45-.59-.92,.34-.58,.79,.03,1.29-.14Zm2.25-17.96c.26-.99,.03-1.45-.6-1.63-.65-.19-1.12,.23-1.36,.72-.37,.77-.26,1.57,.35,2.21,.37,.39,.87,.32,1.34,.14,.07-.03,.14-.22,.12-.3-.1-.28-.3-.13-.48-.09-.76,.2-.76-.41-.8-.84-.04-.49-.2-1.13,.44-1.34,.6-.19,.75,.37,.99,1.12Zm-55.54,18.43c0-.36,0-.71,0-1.07,0-.29,.01-.59-.41-.56-.32,.03-.34,.27-.34,.52,0,.75,0,1.51,0,2.26,0,.26,.05,.48,.36,.5,.33,.02,.38-.21,.38-.47,0-.4,0-.79,0-1.19Zm63.6,1.17c.3-.39,.2-.75,.21-1.09,0-1.21-.6-1.6-1.74-1.18-.45,.17-.28,.53-.27,.8,.02,.45-.22,.98,.18,1.34,.19,.17,.34-.05,.35-.28,.01-.28,.01-.56,.02-.83,0-.32,.13-.53,.49-.52,.38,0,.42,.26,.46,.56,.04,.37-.16,.79,.3,1.2Zm-11.21-74.06h.53c0-1.31,0-2.63-.01-3.94,0-.07-.16-.19-.25-.19-.09,0-.25,.12-.25,.19-.02,1.32-.01,2.63-.01,3.95Zm-9.35,60.69h.01c0-.52,0-1.04,0-1.56,0-.25-.05-.49-.39-.47-.27,.02-.29,.23-.29,.43,0,1.04,0,2.08,0,3.13,0,.25,.03,.49,.38,.46,.26-.02,.29-.22,.3-.43,0-.52,0-1.04,0-1.56Zm6.57-7.59q1.87,.37,1.06,1.81c-.08,.14-.16,.28-.22,.42-.09,.21-.3,.47,0,.62,.24,.11,.45-.05,.56-.31,.31-.78,.63-1.55,.92-2.33,.11-.28-.03-.48-.33-.47-.57,.01-1.16-.14-2,.27Zm15.59,9.4c-1.05-.73-2.44,.34-3.05-1.09,.21,.46-.57,1.2,.45,1.27,.77,.05,1.57,.14,2.59-.18Zm-4.05,10.38c-.21-.31,.28-1.01-.35-1.01-.46,0-.24,.66-.22,1.01,.02,.36-.31,1.04,.31,1.04,.46,0,.12-.66,.26-1.04Zm-1.42,1.09c.15-1.03,.4-2.06-.12-3.06-.17,1.03-.34,2.05,.12,3.06Zm12.05-14.65c.09-.12,.19-.2,.19-.28,0-.07-.12-.14-.19-.21-.07,.07-.18,.14-.19,.21,0,.07,.1,.15,.19,.27Z"/><path class="i" d="M214.83,131.49c.23,.37,.08,.78,.14,1.17,.14,.85-.23,1.18-1.06,1.04-.99-.17-1.27,.22-1.26,1.23,.06,4.45,.05,8.9,0,13.35,0,.86,.16,1.25,1.11,1.16,.91-.09,1.84,0,2.76-.02,.47-.01,.83,.1,.72,.65-.32,1.59,.55,1.81,1.81,1.63,.11-.02,.24,.03,.36,.05l-.02-.02q.07,2.21,2.32,2.41s.08,.01,.12,.02l-.02-.02c-.02,.2-.03,.4-.06,.59-.2,1.17,.18,1.64,1.46,1.53,1.47-.13,2.96-.03,4.44-.03,.45,0,.99-.03,.86,.64-.32,1.66,.65,1.71,1.85,1.59,.48-.05,.96-.04,1.44,0,.79,.07,1.24-.03,1.21-1.05-.02-.92-.23-1.33-1.19-1.17-.75,.12-.99-.16-1.06-.97-.1-1.21,.48-1.33,1.41-1.23,1.15,.12,.75-.75,.8-1.3,.05-.55,.14-1.12-.79-1.06-1.19,.08-2.4,.04-3.6,.05-.01-.4-.07-.8-.02-1.19,.12-.91-.26-1.13-1.14-1.15-1-.03-1.38,.28-1.23,1.27,.05,.35,0,.72,0,1.07h-2.16c0-.23,.04-.47,.01-.71-.16-1.14,.08-1.86,1.47-1.61,.86,.15,.76-.51,.7-1-.12-.95,.23-1.29,1.19-1.19,.71,.08,1.45-.06,2.16,.03,1.11,.16,1.43-.32,1.27-1.33-.05-.31-.03-.64-.04-.96l-.03,.02q2.24-.19,2.24-1.93,0-2.4-2.24-2.67l.03,.02c.1-2.24,.1-2.25,2.39-2.23,.75,0,1.51-.14,2.24,.11l-.03-.03c-.03,1.24-.03,2.48-.09,3.71-.03,.68,.36,.72,.83,.65,1.07-.15,1.71,.12,1.48,1.38-.14,.75,.23,.99,.95,.93,.68-.05,1.36-.01,2.04-.01,1.48,0,1.75,.37,1.47,1.84-.14,.71-.65,.46-1.03,.48-1.19,.07-1.55,.57-1.24,1.74,.18,.67,.71,.44,1.08,.41,.94-.09,1.2,.23,1.23,1.19,.03,1.07-.44,1.18-1.28,1.12-.39-.03-.8,.05-1.19,.07,.25-.58,.09-1.18,.13-1.77,.04-.53-.33-.61-.7-.53-.48,.1-1.18-.4-1.44,.39-.41,1.23,.03,1.81,1.32,1.83,.24,0,.47,.04,.71,.06,.22,.8,.18,1.6,.01,2.41l.03-.03c-.4-.02-.79-.08-1.19-.07-1.03,.04-2.35-.44-3,.19-.65,.63-.14,1.97-.21,2.99-.05,.72-.07,1.29,1,1.24,.89-.04,1.49-.09,1.29-1.2-.15-.82,.19-1.2,1.04-1.07,.35,.05,.71,.07,1.06,.11l-.02-.02c.04,.27,.13,.56,.1,.82-.14,1.01,.15,1.55,1.28,1.32,1.06-.21,1,.47,1.03,1.2,.03,.81-.08,1.21-1.08,1.2-8.83-.04-17.66-.02-26.48-.02-1,0-2.01-.05-3.01,.02-.81,.05-1-.24-1-1.02,.03-5.3,.02-10.59,.02-15.89,0-4.53,.02-9.07-.02-13.6,0-.85,.09-1.28,1.13-1.27,.97,.01,1.21,.35,1.07,1.19-.17,.99,.28,1.29,1.2,1.17,.31-.04,.63,.04,.95,.06h.01Zm2.38,24.85c.02,.52,.06,1.04,.04,1.55-.02,.52,.29,.64,.68,.55,.49-.11,1.18,.38,1.46-.35,.46-1.18-.04-1.87-1.27-1.84-.31,0-.62,.08-.94,.12,.02-.24,.03-.48,.06-.72,.18-1.14-.06-1.86-1.45-1.61-.99,.18-.88-.59-.82-1.16,.1-.93-.2-1.25-1.17-1.22-.85,.02-1.25,.16-1.15,1.12,.09,.87,.05,1.76,0,2.64-.03,.65,.23,.81,.84,.81,1.24,.01,2.48-.15,3.71,.1Zm19.09-6.93c.78,.1,1.32,.06,1.28-.99-.04-.84-.15-1.25-1.12-1.18-.74,.06-1.31-.01-1.24,1.05,.05,.81,.1,1.37,1.08,1.13Z"/><path class="g" d="M148.12,147.62c-.47-4.06,.47-7.73,2.82-11.1,2.04-2.93,4.76-4.84,8.09-6.03,1.08-.38,1.78-.11,2.35,.76,.53,.81,.29,1.51-.36,2.14-1.41,1.35-2.76,2.74-3.71,4.46-1.57,2.81-2.74,5.76-2.94,9.02l-.07,.24c-2.05,.27-4.09,.67-6.18,.51Z"/><path class="g" d="M159.48,145.4c.91-.68,2.06-.82,3.08-1.26,1.72-.75,3.39-1.59,5.11-2.33,.29-.13,.53-.09,.8,0,3.52,1.05,7.03,2.12,10.56,3.14,.49,.14,.51,.32,.23,.63-.26,.3-.57,.55-.86,.83-.56-.02-.95,.32-1.38,.6-2.19,1.42-4.45,2.73-6.98,3.47-.24-1.9-2.23-3.86-4.3-4.29-2.07-.43-4.14-.8-6.25-.79Z"/><path class="p" d="M154.3,147.11l.07-.24h.42c.83,1.03,2,1.58,3.13,2.23,1.57,.89,3.07,1.92,4.6,2.89,.93,1.19,1.38,2.5,1.27,4.06-.07,.91-.29,1.8-.28,2.71-1.34,.59-2.69,.56-4.06,.09-.03-.29-.21-.49-.41-.7-1.4-1.49-2.63-3.15-3.42-5.01-.81-1.89-1.36-3.92-1.32-6.03Z"/><path class="j" d="M162.51,151.99c-1.53-.97-3.02-1.99-4.6-2.89-1.13-.64-2.3-1.2-3.13-2.24l4.69-1.46c2.12,0,4.19,.36,6.25,.79,2.06,.43,4.05,2.38,4.3,4.29-2.41,.97-4.94,1.35-7.52,1.51Z"/><path class="i" d="M162.51,151.99c2.58-.15,5.1-.53,7.52-1.51,2.54-.74,4.79-2.05,6.98-3.47,.44-.28,.82-.62,1.38-.6-.22,1.01-1.11,1.57-1.74,2.22-2.76,2.83-5.57,5.63-8.81,7.95-1.34,.96-2.71,1.83-4.35,2.18-.02-.91,.21-1.8,.28-2.71,.11-1.56-.34-2.86-1.27-4.06Z"/><path class="i" d="M154.3,147.11c-.04,2.12,.51,4.14,1.32,6.03,.79,1.86,2.02,3.52,3.42,5.01,.2,.21,.37,.4,.41,.7-4.81-.79-8.18-3.55-10.41-7.78-.56-1.06-.76-2.26-.92-3.45,2.09,.16,4.13-.24,6.18-.51Z"/><path class="p" d="M149.29,170.49c-.16-.9,.2-1.25,1.11-1.13,.54,.07,1.1,.01,1.64-.1-.92-.33-1.87-.2-2.8-.2-.55,0-.81-.13-.79-.73,.01-.57,.31-.64,.77-.64,1.36,.02,2.73,.01,4.09,0,.36,0,.79,.12,1.19-.41-1.39-.25-2.65-.05-3.88-.15-.43-.03-1.16,.35-1.12-.59,.04-.9,.74-.54,1.18-.56,1.33-.04,2.67-.02,4.21-.02-.47-.62-.9-.45-1.26-.45-1.16-.02-2.33-.02-3.49,0-.41,0-.7-.07-.68-.58,.02-.45,.27-.52,.63-.52,1.89,0,3.77,.01,5.66,0,.5,0,.62,.26,.59,.68-.03,.48,.04,.98-.09,1.44-.21,.75-.39,1.35,.77,1.19,.27-.04,.48,.1,.42,.42-.1,.51-.32,.89-.93,.92-.86,.04-1.73-.13-2.64,.13,.47,.32,.94,.23,1.35,.18,1.02-.12,1.26,.27,1.28,1.26,.03,1.12-.31,1.45-1.41,1.37-1.34-.1-2.69-.02-4.03-.02v.32c1.55,0,3.1,0,4.65,0,.36,0,.89-.17,.87,.49-.02,.52-.38,.65-.83,.64-1.93,0-3.85-.02-5.78,0-.54,0-.7-.21-.67-.71,.03-.56,0-1.12,0-1.69,1.78,0,3.57,0,5.35,0v-.37c-1.78-.22-3.58,.11-5.36-.17Z"/><path class="h" d="M165.42,111.49c-.05-.64-.09-1.29,.52-1.74,.7-.18,.37-.75,.45-1.17l-.02,.02,1.62-.2,.56-.05c-.02,2.13-.11,4.27-.03,6.4,.04,1.13-.31,1.51-1.38,1.29l-.07-3.37c0-.67,.3-1.33,.07-2.23-.5,.74-.86,1.28-.77,2l-.21,.2,.2,.58c-.81,.57-.94,1.49-1.17,2.35-.83,.61-1.11-.09-1.35-.64-.25-.57-.38-1.2-.56-1.8,.26-.77-.17-1.93-1.01-2.51,.3,1.84,.33,3.62,.24,5.41-.47-.15-1.35,.5-1.34-.58,.01-2.35-.14-4.71,.08-7.06,.68-.02,1.36,.16,2.03-.06h0c-.33,.37-.02,.54,.23,.73,.25,.76,.89,1.34,.96,2.18-.16,.04-.55-.2-.33,.29,.23,.53,.44,1.07,.72,1.75,.25-.7,.61-1.19,.59-1.81Z"/><path class="h" d="M153.63,108.35l.56,.05c1.4,.06,2.79,.12,4.19,.18,1.56,1.3,1.71,2.5,.55,4.19-.15,.22-.21,.5-.32,.76-.16-.03-.43-.2-.37,.16,.03,.17,.15,.49,.46,.2h0c-.1,.61,.14,1.02,.73,1.22l-.02-.02c.16,1.47,.14,1.48-1.6,1.25-.63-.19-.37-.81-.57-1.2-.04-.39-.08-.79-.5-.99v.02c.14-.74-.24-.99-.91-.97-.72,.03-.5,.57-.51,.96-.02,.63,0,1.26,0,1.89-1.61,.08-1.6,.08-1.61-1.5-.01-2.06-.04-4.12-.06-6.18Zm1.91,1.68c0,.44,0,.88,0,1.31,0,.39,.26,.73,.57,.52,.63-.42,1.64-.57,1.56-1.67-.86-.67-1.68-.73-2.13-.16Z"/><path class="i" d="M235.37,138.29c-.22-.83-.15-1.66-.05-2.49l-.03,.03c2.53-.02,2.33,.63,2.19-2.19l-.02,.02q2.17,.08,2.29-2.07s.02-.08,.03-.12l.07,.03,.06-.04c.28-.02,.56-.05,.83-.06,1.13-.01,1.77,1.02,1.25,2.02-.24,.47-.72,.28-1.08,.25-.81-.06-1.22,.09-1.2,1.08,.02,.9,.25,1.26,1.15,1.1,.97-.17,1.2,.26,1.19,1.18,0,.88-.21,1.29-1.13,1.13-.95-.17-1.3,.24-1.19,1.17,.04,.34-.06,.7-.1,1.06l.02-.02c-.51,.03-1.02,.05-1.53,.08-.39,.02-.54-.17-.58-.56-.06-.57,.33-1.37-.23-1.65-.54-.27-1.31-.17-1.97,0l.03,.03Z"/><path class="i" d="M230.66,131.55c.15-.04,.31-.14,.45-.12,1.32,.19,2.1-.1,1.87-1.71-.14-.97,.75-.55,1.21-.59,.45-.04,1.13-.25,1.07,.64,0,.12,.02,.24,0,.36-.19,1.05,.22,1.47,1.29,1.3,.3-.05,.63,.04,.94,.07h-.02c.16,.71,.16,1.44,0,2.17l.02-.02q-2.28,.19-2.19,2.19l.03-.03c-1.28,.03-2.55,.04-3.83,.09-.6,.03-.73-.25-.73-.79,0-1.19-.05-2.39-.08-3.58l-.03,.03Z"/><path class="h" d="M170.61,109.31c.26-1.33,1.49-1.25,2.37-1.4,.89-.15,1.65,.7,2.54,.91,.32,.08,.39,.48,.15,.68-.44,.36-.83,.93-1.53,.73-.3-.08-.56-.32-.86-.39-.33-.07-.74-.15-.84,.38-.08,.45,.11,.64,.54,.71,.9,.14,1.57,.73,2.22,1.31,.99,.87,1.05,1.87,.28,3.09-.37-.26-.59,.06-.81,.24-.85,.68-1.79,.7-2.79,.51-.5-.1-.87-.54-1.42-.48h.02c.03-.19-.11-.28-.25-.38v.03c.16-.34,.31-.68,.47-1.03,.08-.88,.61-.29,.79-.16,.51,.35,.99,.65,1.63,.57,.42,.05,.84,.05,.95-.47,.09-.43-.21-.67-.53-.85-.59-.32-1.11-.84-1.88-.62-.36,.03-.71,.03-.69-.49,.04-.21-.19-.14-.26-.24l.03,.03c-.36-.88-.4-1.77-.12-2.68Z"/><path class="p" d="M189.46,120.41c-.4,.02-.8,.05-1.2,.05-14.62,0-29.24,0-43.86,0-.43,0-.88,.13-1.44-.23h113.95c-.35,.36-.72,.23-1.05,.23-21.73,0-43.45,0-65.18,0-.28,0-.56-.04-.84-.05h-.38Z"/><path class="p" d="M161.1,171.28c-2.61,0-2.56,0-2.62-2.63-.02-1.01,.29-1.36,1.28-1.24,.51,.06,1.04,0,1.56,.01,.45,.01,.76-.04,.75-.63,0-.54-.22-.69-.71-.67-.72,.02-1.44,0-2.16,0-.42,0-.68-.11-.69-.6,0-.48,.22-.62,.66-.62,1.24,.01,2.53-.2,3.71,.06,1.48,.32,.38,1.65,.62,2.49,.11,.39,.4,1.21-.62,1.18-.68-.02-1.36,.02-2.04-.01-.57-.03-.77,.17-.78,.75-.01,.64,.31,.71,.82,.69,.76-.02,1.52-.01,2.28,0,.31,0,.73-.08,.69,.41-.03,.39-.14,.81-.69,.8-.68,0-1.36,0-2.04,0Z"/><path class="i" d="M219.41,138.18c-.2,0-.41,.03-.6,0-1.21-.2-1.78,.21-1.55,1.51,.18,1.05-.62,.77-1.16,.79-.59,.02-1.15,.16-1.16-.85-.01-1.09,.17-1.7,1.41-1.46,.75,.14,.98-.2,.92-.93-.06-.84,.05-1.69-.03-2.52-.08-.89,.3-1.06,1.1-1.04,.74,.02,1.29,.06,1.11,1.01-.19,1.04,.31,1.37,1.26,1.2,1.03-.19,1.05,.43,1.06,1.2,0,.77-.11,1.24-1.03,1.12-.43-.06-.88-.01-1.32-.01Z"/><path class="i" d="M215.69,184.81c-.46,.17-.3,1.54-1.17,.5-.3-.36-.21-.93-.63-1.28-.42,.25-.27,.71-.38,1.06-.21,.64-.47,.98-1.05,.33-.12-.14-.14-.32-.42-.15-.88,.53-.89,.51-1.16-.5-.07-.27-.14-.53-.22-.81-.53,.13-.47,.61-.63,.95-.15,.31-.16,.78-.6,.8-.38,.02-.37-.47-.55-.66-.57-.1-.42,1-.97,.6-.59-.43-.62-1.26-.87-1.92-.02-.04,.06-.13,.11-.19,.56-.65,.53,1.04,1.16,.28,.46-.55,.54-.5,1.11,.37,.76-1.05,1.34-.99,2.12,.24q.67-1.2,1.42-.02c.47-.8,.95-1.69,1.8-.38,.13,.21,.23,.12,.31-.05,.33-.64,.67-.76,1.02-.01,.09,.19,.22,.21,.35,.05,.08-.09,.11-.21,.18-.31,.16-.23,.4-.29,.62-.13,.23,.16,.01,.36-.03,.53-.06,.23-.15,.46-.25,.67-.16,.35-.17,.9-.64,.93-.52,.03-.39-.61-.64-.89Z"/><path class="i" d="M230.74,144.97c-1.15-.01-2.29-.08-3.44-.02-.86,.05-1.26-.17-1.13-1.1,.06-.42,0-.87-.01-1.3l-.02,.02c.28,.02,.55,.03,.83,.06,1.07,.14,1.81-.05,1.53-1.4-.13-.63,.22-.83,.82-.79,.47,.03,.95-.03,1.42-.04l-.03-.02c.12,1.54,.12,3.07,0,4.61l.03-.02Z"/><path class="p" d="M166.33,168.91c0,1.16,0,2.32,0,3.47,0,.53,.09,1.02-.75,1.02-.8,0-.79-.43-.79-.99,.01-2.44,0-4.87,.02-7.31,0-.37-.26-.99,.42-1.02,.67-.03,1.12,.32,1.1,1.1-.03,1.24,0,2.48,0,3.71Z"/><path class="i" d="M206.87,174.14c-.81,.72-1.75,.24-2.63,.25-.26,0-.2-.38-.2-.6-.01-.5,.22-.99-.39-1.43-.45-.33,.51-.61,.36-1.07,.68-.31,1.49,.09,2.3-.42l-2.28-.18c.76-.37,1.57-.11,2.36-.17,.48-.04,.44,.34,.46,.66,.02,.24-.12,.65,.35,.58,.41-.07,1.1,.22,1.18-.23,.12-.69-.62-.32-.96-.48-.09-.04-.17-.12-.27-.2,1.41-.56,2.04-.38,2.06,.55,.01,.5-.04,.88-.69,.82-.31-.03-.69-.08-.64,.44,.05,.44,.4,.28,.65,.31,.3,.04,.64-.13,.91,.13-1.12,.65-1.98,.45-2.67-.68l.07,1.19c-.63,.32-1.38-.04-2.36,.39l2.39,.14Z"/><path class="g" d="M189.46,120.41h.38c-.03,.52-.07,1.04-.07,1.56,0,19.07,0,38.13,0,57.2v1.31h-.24v-1.19c0-19.11,0-38.22,0-57.32,0-.52-.05-1.04-.07-1.56Z"/><path class="p" d="M172.42,169.82c.36,0,.72,0,1.08,0,2.61,0,2.88,.37,2.47,3.04-.1,.62-.46,.53-.85,.55-.48,.03-.7-.11-.75-.66-.15-1.72-.17-1.72-1.95-1.72-.92,0-1.85,0-2.77,0-.38,0-.71,0-.72-.54,0-.52,.19-.7,.71-.69,.92,.03,1.85,0,2.77,0Z"/><path class="j" d="M224.72,173.35c1.44,.18,2.9-.15,4.37,.13-.16,.63-.6,.41-.89,.41-2.27,.02-4.55,.01-6.82,.01-1.54,0-3.04,.15-4.57,.46-1.66,.34-1.71,.09-1.52-1.71,.87,.53,1.74,.82,2.64,.07,.02,.3-.07,.66,.44,.65,1.46-.01,2.91,0,4.47,0-.21-.66-1.39-.18-1.09-1.15,.1-.31-.08-.77,.52-.68,.12,.28-.24,.77,.36,.84,.66,.17,1.51-.53,2,.43-.35,.2-.85-.05-1.27,.42,.52,.22,.93,.18,1.35,.11Z"/><path class="p" d="M170.7,168.98q-2.43,0-2.43-2.44c0-.4-.03-.8,0-1.2,.03-.31-.21-.8,.39-.82,.47-.02,.86,.17,1.05,.63,.06,.14,.03,.32,.04,.47q.13,2.03,2.22,2.03c.2,0,.41-.04,.6,0,.36,.09,1.01-.32,.99,.45-.02,.61-.46,.88-1.07,.87-.6-.02-1.2,0-1.8,0Z"/><path class="i" d="M219.41,151.74c0-1.24,.05-2.49,0-3.73-.04-.95,.57-.79,1.11-.77,.54,.02,1.27-.28,1.23,.77-.04,1.24,.03,2.48,.05,3.72l.02-.02h-2.43l.02,.02Z"/><path class="i" d="M226.16,138.25c0-1.28,.06-2.56,.01-3.83-.03-.85,.52-.78,1.02-.71,.49,.07,1.31-.42,1.31,.66,0,.44,0,.88,0,1.32q0,2.39-2.36,2.54l.02,.02Z"/><path class="g" d="M165.17,131.55c-.9-.06-1.75-.26-2.53-.71-.33-.19-.64-.39-.59-.81,.04-.37,.38-.48,.69-.58,1.34-.44,2.66-.5,3.94,.2,.34,.18,.77,.33,.7,.85-.07,.52-.46,.73-.91,.83-.42,.1-.86,.14-1.29,.2Z"/><path class="i" d="M243.53,171.01c.25-.23,.55-.4,.85-.19,.23,.16-.02,.35-.1,.51-.23,.45,.03,.72,.4,.83,.45,.14,.95,.06,1.13-.41,.17-.43-.18-.64-.58-.72-.13-.02-.2-.08-.19-.22,1.28-.09,1.57,.2,1.13,1.36-.32,.83-.05,1.22,.8,1.49-1.47,.47-3.02-.07-4.36,.68-.01-1.27-.02-2.54-.03-3.81,.69-.5,.57,.15,.68,.48-.03,.55-.07,1.1-.07,1.66,0,.25-.11,.6,.27,.69,.13,.03,.37-.02,.42-.11,.14-.25,.16-.57-.03-.78-.39-.44-.4-.92-.31-1.45Z"/><path class="i" d="M226.14,138.23c.1,1.45,.1,2.9,0,4.35l.02-.02q-2.15,.31-2.15-1.72v-.72q0-2.09,2.15-1.87l-.02-.02Z"/><path class="p" d="M174.4,166.5c0-.56,0-1.12,0-1.68,0-.39-.1-.83,.54-.84,.52,0,.93,.19,.95,.69,.06,1.4,.07,2.8,.04,4.2-.01,.54-.53,.35-.86,.38-.42,.04-.69-.1-.68-.59,.02-.72,0-1.44,0-2.16Z"/><path class="i" d="M205.37,113.66c.11-.27-.15-.74,.33-.78,.49-.04,.4,.4,.4,.7,0,.96,0,1.93,0,2.89,0,.24-.01,.5-.33,.55-.18,.03-.25-.1-.35-.24-.42-.6-2.25-.74-2.71-.19-.14,.17-.13,.51-.46,.38-.28-.11-.18-.41-.18-.63-.01-.92-.01-1.85,0-2.77,0-.25-.15-.63,.25-.7,.42-.07,.32,.36,.44,.58,.04,.06,.2,.06,.3,.08-.19,.4-.3,.81-.27,1.26-.18,.34-.32,.76,.19,.82,.74,.08,1.57,.18,2.23-.07,.51-.2,.13-1,.21-1.53,.02-.11-.03-.23-.04-.35Z"/><path class="i" d="M158.43,186.18c-.08,.02-.16,.04-.23,.05q-2.65,.3-2.59-2.31c0-.32-.21-.84,.29-.91,.7-.09,1.43-.2,2.11,.09,.2,.08,.13,.37-.09,.46-.18,.07-.39,.03-.58,.07-.28,.06-.75-.18-.78,.28-.04,.53,.46,.24,.73,.31,.11,.03,.24,0,.36,0,.23,0,.39,.09,.36,.35-.02,.16-.11,.3-.31,.3-.24,0-.48,0-.72,.02-.25,.01-.49,.04-.46,.39,.03,.34,.29,.34,.52,.33,.47-.02,.96,.12,1.41-.13v.69Z"/><path class="j" d="M152.38,186.12c-.67,.34-.92,.03-1.13-.48-.14-.34-.4-.68-.79-.62-.46,.07-.2,.51-.25,.79-.04,.21-.06,.4-.31,.42-.36,.03-.36-.21-.37-.46,0-.72-.05-1.44,.01-2.15,.11-1.28,1.09-.53,1.65-.59,.61-.07,1.28,.68,.9,1.02-1.05,.94,0,1.42,.3,2.06Z"/><path class="j" d="M152.71,184.55c0-1.66,.23-1.84,1.95-1.57,.25,.04,.51,.03,.47,.37-.03,.25-.25,.27-.46,.27-.2,0-.4-.02-.6,0-.25,.03-.64-.13-.64,.3,0,.45,.39,.28,.63,.31,.2,.03,.4,0,.6,.02,.15,.02,.33,0,.35,.23,.01,.25-.14,.35-.36,.37-.28,.02-.56,.02-.84,.03-.29,0-.43,.15-.4,.45,.02,.26,.21,.3,.42,.3,.04,0,.08,0,.12,0,.43,.11,1.24-.24,1.23,.27-.01,.72-.82,.31-1.27,.34-.51,.03-1.31,.33-1.2-.74,.03-.32,0-.64,0-.96Z"/><path class="i" d="M196.31,112.96c.6,0,1.2,0,1.79,.02,.26,0,.66-.1,.68,.28,.03,.4-.37,.3-.63,.33-.38,.05-.79-.12-1.16,.16,.16,.42,.52,.22,.79,.27,.3,.06,.63-.11,.93,.14-.13,.46-.8,.06-.88,.56,0,.03,0,.08,.01,.1,.02,.03,.06,.05,.1,.07-.15,.36-.13,.6,.36,.44,.18,.46,.9,.8,.39,1.43-.44,.53-1.05,.48-1.65,.33-.27-.07-.51-.2-.77-.31-.33-.88,.39-1.09,.91-1.42,.31-.2,.03-.39,0-.59-.82-.35-1.42-.81-.87-1.82Zm2.07,3.42c-.42-.48-.88-.46-1.36-.17-.05,.03-.06,.27-.01,.3,.47,.3,.93,.3,1.37-.13Z"/><path class="i" d="M237.92,112.92c.84-.22,.51,.45,.6,.79,.04,.16,.06,.31,.27,.33,.19,.02,.28-.05,.28-.25-.03-1.16,.85-.49,1.29-.58,.54-.11,.45,.4,.47,.74,.03,.55,.06,1.07-.76,.97-.23-.03-.53,.03-.48,.35,.03,.22,.29,.23,.49,.22,.24-.02,.48-.04,.72-.05,.25-.01,.5,.01,.48,.35-.01,.27-.26,.24-.44,.28-1.32,.28-1.69,.03-2.02-1.4-.47,.18-.25,.59-.3,.89-.04,.26-.09,.46-.41,.47-.33,.01-.4-.18-.41-.45l.15-.25,.08-.52v-1.89Zm1.12,1.05q.61,.42,1.38,.06c-.51-.27-.91-.26-1.38-.06Z"/><path class="j" d="M215.82,109.81l-.84,1.09c-.64-.19,.06-.67-.38-.95-.44,.19-.86,.49-1.08,1.01-.11,.25,.12,.77-.37,.7-.43-.05-.24-.52-.24-.8-.01-1.03,.02-2.06,.04-3.1l2.89,.23v1.81Zm-2.27,.08c.39-.41,.47-.89,.45-1.39,0-.03-.35-.13-.41-.07-.42,.44-.21,.95-.04,1.46Zm1.39-1.4c-.15,.53-.35,.93-.1,1.44,.42-.47,.4-.88,.1-1.44Z"/><path class="i" d="M210.25,116.54c-1.2,.06-2.4,.12-3.81-.05,.49-.57,.9-.41,1.26-.45,.21-.02,.4-.04,.44-.3,.05-.31-.11-.44-.4-.45-1.31-.08-.59-1.08-.66-1.64-.1-.74,.59-.42,.96-.47,.35-.05,.72,0,1.08-.01,.38,0,.8,0,.7,.53-.1,.53,.41,1.23-.37,1.56-.27,.12-.71,0-.6,.5,.1,.47,.52,.22,.8,.28,.19,.04,.4,.04,.59,.06v.44Zm-1.71-1.73c.28-.04,.71,.16,.76-.42,.05-.53-.27-.59-.66-.54-.34,.04-.85-.2-.87,.46-.02,.55,.37,.5,.76,.5Z"/><path class="j" d="M202.81,107.89c.28,0,.56-.04,.83,0,.35,.06,.95-.25,1,.24,.05,.5-.54,.19-.84,.29-.19,.06-.42,.08-.37,.33,.02,.1,.21,.2,.34,.24,.22,.07,.45,.1,.67,.14v.31c-.29,.33-1.08-.16-1.05,.41,.03,.59,.7,.27,1.09,.28,.48,0,.71,.11,.42,.61-.82-.05-1.64,.15-2.48-.2-.51-.21-1.16-.17-1.05,.75,.02,.19-.03,.43-.31,.4-.09,0-.24-.14-.23-.21,.11-1.41-.93-.91-1.62-.98,.07-.91,.77-.46,1.16-.47,2.26-.06,2.26-.03,2.44-2.14Z"/><path class="i" d="M195.77,116.78c-.26,.11-.51,.24-.77,.31-.6,.16-1.22,.15-1.67-.34-.45-.49,0-.96,.18-1.42h-.04c.23-.04,.65,.29,.62-.29l.02-.37c.65-.42,.04-1.21,.5-1.73,.49,.12,.03,.75,.43,.88,.53-.09-.21-1.24,.79-.9,.1,.65-.19,1.34,.19,1.96v.4l-.74,.17c.66,.31,.59,.81,.49,1.32Zm-.54-.4c-.04-.35-.32-.47-.59-.51-.37-.05-.78,0-.88,.43-.07,.31,.28,.34,.5,.38,.36,.06,.72,.04,.97-.3Z"/><path class="i" d="M232.63,173.01q-.83,.31-1.17-1.01c-.35,.1-.16,.38-.21,.58-.04,.18-.04,.38-.21,.57-.36-.81-.28-1.68-.17-2.51,.02-.14,.76-.41,.92-.28,.69,.53,1.55,.02,2.21,.47,.09,.26,.22,.47-.17,.66-.48,.24-1.06,.45-1.13,1.12l-.08,.4Z"/><path class="p" d="M242.82,115.84c-.1-.37-.18-.76-.53-1.09-.41,.73,.04,1.57-.31,2.26h-.38c0-1.29,0-2.59,0-3.88,0-.08,.14-.16,.21-.24,.56,.5,1.06,.39,1.54-.11,.23,.52,.78,.43,1.19,.62-.27,.88-.76,1.65-1.25,2.41l-.48,.04Zm-.58-1.4c.22,.04,.26-.1,.25-.2,0-.09-.07-.22-.15-.25-.15-.06-.2,.09-.2,.19,0,.09,.07,.18,.1,.25Z"/><path class="i" d="M215.31,172.49c-.69-.19-1.1-.7-.93-1.36,.16-.62,.85-.5,1.37-.65,.66-.2,1.27,.67,1.89-.05,.16-.19,.3,.13,.31,.32,0,.55,0,1.11,0,1.66-.37,.15-.73-1.07-1.14-.02,0,.02-.35-.1-.54-.13-.34-.05-.7-.13-.94,.23Z"/><path class="i" d="M241.98,184.88c-.28-1.11,.09-1.41,.95-1.42,.56,0,1.08,.34,1.69,.01,.31-.17,.66,.26,.71,.64,.07,.51,.21,1.07-.1,1.51-.16,.23-.53,.18-.57-.24-.03-.28-.01-.56-.02-.84,0-.2,0-.45-.25-.47-.3-.02-.39,.22-.4,.48,0,.2,0,.4,0,.6,0,.29,0,.59-.41,.57-.44-.02-.33-.36-.35-.62-.01-.2,0-.4,0-.6-.01-.19,.02-.43-.26-.45-.23-.01-.35,.15-.38,.37-.01,.08,0,.16-.02,.24-.1,.35,.26,.98-.27,1-.67,.02-.25-.68-.3-.79Z"/><path class="i" d="M227.18,170.26c.32,.93,.48,1.65,1.35,1.85-.11-.52,.47-.81,.48-1.33,.39,.02,.89-.1,1.14,.09,.29,.23,.18,.76,.05,1.12-.3,.8-1.25,1.17-1.95,.67-.73-.52-1.33-.74-2.03,0-.12,.13-.38,.39-.58,.05-.15-.25-.04-.52,.22-.58,.84-.2,1.04-.91,1.33-1.87Z"/><path class="i" d="M234.29,170.75c1.33-.7,1.54-.6,1.55,.74,0,.32,.02,.63,.03,.95v.76c-.06,.66,.18,1.55-1.09,1.17-.75-.23-.31-.8-.48-1.18v-2.43Z"/><path class="p" d="M210.46,167.74c-1,0-1.31-.41-.98-1.33,.08-.22,.23-.35,.06-.62-.25-.41-.26-.84,.25-1.11,.45-.24,.9-.26,1.35,.03,.5,.31,.5,.66,.17,1.09-.15,.19-.06,.31,.05,.51,.5,.93,.16,1.44-.9,1.43Zm.04-.41c.34-.02,.54-.21,.5-.54-.04-.34-.32-.42-.63-.38-.24,.03-.53,.11-.54,.38,0,.4,.35,.48,.66,.54Z"/><path class="p" d="M239.91,131.47l-.06,.04-.07-.03h-2.3c.01-.42,.08-.87,.03-1.3-.12-.92,.26-1.13,1.14-1.13,.87,0,1.26,.19,1.15,1.12-.05,.42,.07,.86,.11,1.3Z"/><path class="j" d="M158.43,186.18v-.69c.49-.52,1.03-1,1.26-1.67-.3-.47-1.23,.12-1.15-.51,.08-.66,.87-.25,1.33-.3,.3-.03,.78-.25,.93,.24,.11,.37-.1,.7-.39,.95-.4,.34-.73,.73-.91,1.25,.08,.07,.13,.12,.19,.16,.36,.2,1.11-.23,1.1,.33-.02,.68-.76,.27-1.18,.33-.38,.06-.79-.04-1.18-.07Z"/><path class="p" d="M239.64,140.41c.52,0,1.04,.04,1.56,.02,.59-.03,.85,.13,.87,.79,.03,1.39-.61,1.89-1.96,1.47-.36-.11-.4-.33-.4-.62,0-.56-.03-1.12-.04-1.68l-.02,.02Z"/><path class="p" d="M214.82,131.48c.03-.44,.14-.88,.09-1.31-.12-.95,.32-1.09,1.17-1.12,1.05-.04,1.24,.33,1.24,1.29,0,.92-.27,1.23-1.16,1.12-.43-.05-.88,.02-1.32,.03h-.01Z"/><path class="p" d="M221.82,131.47c-.52,0-1.04-.06-1.56-.02-.69,.06-.88-.23-.88-.9,0-1.41,.6-1.87,1.97-1.47,.36,.1,.41,.32,.41,.62,.01,.6,.02,1.2,.03,1.8l.02-.02Z"/><path class="j" d="M196.3,109.99l-.8,.04-.06,.02c-.33-.24,.11-.81-.37-.98-.39,.11,.03,.69-.48,.69l-.05-.53c-.02-.24,.01-.49-.06-.72-.33-1.05,.67-.81,1.02-.88,.53-.11,.26,.5,.33,.79,.06,.22-.08,.49,.18,.67,.58-.14,.48-.63,.54-1.04,.04-.24,.2-.33,.43-.31,.2,.02,.27,.19,.25,.35-.1,.71,.36,1.16,.92,1.64-.72,.3-1.46-.88-1.86,.27h0Zm-1.19-1.83s-.05,.06-.04,.08c.04,.11,.09,.12,.15,.01,0-.02-.01-.06-.03-.08-.01-.01-.05,0-.08,0Z"/><path class="p" d="M244.6,113.39c.08-.25,.05-.61,.46-.57,.63,.07,.2,.69,.48,.96,.39,.01,.15-.66,.56-.57,.37,.09,.27,.45,.25,.7-.09,.95,.01,1.68,1.28,1.39,.18-.04,.42,0,.44,.27,.02,.25-.18,.33-.38,.36-.55,.1-1.16,.25-1.65,0-.58-.28,.02-1.07-.44-1.5-.3,.34-.12,.77-.24,1.14h-.62l-.14-2.21Z"/><path class="p" d="M239.63,167.74c-1.06,.02-1.45-.52-.94-1.4,.16-.29,.1-.4-.05-.59-.27-.33-.27-.65,.09-.92,.44-.33,.92-.46,1.44-.18,.36,.2,.53,.52,.35,.89-.18,.36-.07,.63,.04,.99,.25,.81-.08,1.19-.93,1.21Zm-.02-1.33c-.29,0-.59,.08-.59,.42,0,.32,.26,.49,.56,.49,.29,0,.57-.12,.6-.45,.03-.37-.3-.4-.57-.46Z"/><path class="i" d="M239.63,154.16c.38-.2,.79-.09,1.18-.13,.76-.07,1.26,0,1.25,1.03-.01,.96-.29,1.3-1.23,1.18-.39-.05-.8,.03-1.2,.05l.02,.02c.1-.73,.12-1.46,0-2.19l-.03,.03Z"/><path class="i" d="M221.8,151.74c.73,0,1.46,0,2.19,0l-.02-.02q.15,2.24-1.94,2.35c-.08,0-.15,.04-.23,.06l.02,.02v-2.43l-.02,.02Z"/><path class="i" d="M230.69,131.52c-.39-.03-.79-.12-1.18-.09-.74,.06-1.08-.13-1.04-.98,.06-1.26,.74-1.76,1.97-1.34,.3,.1,.35,.29,.34,.54-.03,.63,.12,1.28-.12,1.9l.03-.02Z"/><path class="i" d="M198.47,109.04c0-.29-.11-.74,.4-.55,.76,.28,.92-.1,.8-.94,.86,.73,1.56,1.28,2.29,.22,.13-.19,.44-.11,.62,.1,0,.2-.04,.4,0,.59,.15,.96-.2,1.26-1.21,1.32-.93,.06-1.56-.46-2.34-.67l-.55-.07Z"/><path class="i" d="M219.42,143.88c.24,.95-.28,1.03-1.11,1.09-1.14,.08-1.02-.54-1.09-1.3-.09-1.04,.46-1,1.21-1.06,1.05-.08,1.09,.49,.99,1.27Z"/><path class="i" d="M224,131.52c0-.36,0-.72,0-1.08,0-1.26,.68-1.78,1.83-1.3,.74,.31,.25,1.05,.35,1.58,.08,.38-.01,.71-.54,.71-.56,0-1.11,.04-1.67,.07l.02,.02Z"/><path class="p" d="M213.71,172.67c.15,.6,.28,1.21-.2,2.16-.06-2.2-1.7-1.04-2.58-1.64,.71-.68,1.71,.08,2.31-.62-.33-.48-.75-.2-1.11-.18-1.64,.09-1.79-.13-1.14-2.1,.16,1.89,1.29,1.59,2.38,1.4,.14,.32-.13,.78,.35,.97Z"/><path class="i" d="M239.88,172.45c.72-.43,.26-1.25,.59-1.82,.63,.2,.22,.76,.41,1.1-.05,.66,.8,.85,.79,1.49-.86-.41-1.74,.14-2.61-.03-.64-.12-.73,.27-.69,.77,.01,.21-.04,.42-.28,.45-.17,.03-.32-.12-.3-.29,.16-1.36-.88-.83-1.49-.96-.1-.71,.44-.49,.78-.53,.93-.12,1.89,.23,2.8-.19Z"/><path class="j" d="M161.3,184.64c0-1.7,.37-2.01,1.97-1.66,.19,.04,.42,.05,.4,.32-.02,.26-.23,.29-.43,.3-.12,0-.24-.01-.36,0-.28,.05-.75-.16-.78,.3-.02,.51,.47,.25,.73,.32,.27,.07,.76-.19,.73,.33-.03,.45-.49,.26-.79,.31-.29,.04-.72-.12-.7,.4,.02,.51,.45,.3,.73,.37,.31,.08,.86-.23,.87,.31,0,.54-.56,.3-.86,.31-1.52,.06-1.52,.05-1.52-1.62Z"/><path class="i" d="M209,110.84c-.52-.51-1.13-.06-1.69-.16-.42-.08-.87-.02-.52-.67,.07-.13,.06-.31,.06-.47,0-.49-.22-1.24,0-1.43,.43-.35,1.14-.14,1.73-.11l-.03,.61,.02-.03c-.3,.52-.47,1.03,.12,1.47,.7,.03,.26,.5,.31,.78Z"/><path class="i" d="M221.8,131.5c.74-.13,1.47-.16,2.21,.02l-.02-.02c.01,.48,0,.96,.05,1.43,.07,.64-.19,.79-.81,.8-1.63,.02-1.68-.02-1.4-2.25l-.02,.02Z"/><path class="p" d="M251.62,116.15c-.84-.35-1.71,.04-2.57-.09-.04-.95-.12-1.89,.05-2.83,.56,0,1.11-.01,1.67,0,.21,0,.39,.11,.39,.35,0,.18-.12,.31-.29,.3-.71-.03-1.28,.1-1.06,1.01,.23,.93,.99,.22,1.47,.43,.09,.04,.23-.04,.34-.06,.11,.3,.11,.6,0,.9Z"/><path class="p" d="M232.68,166.5c-.03,.47-.04,1.3-1.15,1.23-1.07-.06-1.24-.88-1.26-1.7-.01-.87,.46-1.51,1.34-1.5,1.02,.02,1.11,.85,1.07,1.97Zm-1.75-.45c.09,.44-.11,1.16,.57,1.21,.63,.05,.76-.6,.76-1.12,0-.51-.03-1.11-.75-1.1-.65,0-.48,.59-.58,1.01Z"/><path class="p" d="M226.06,166.22c-.22,.68-.19,1.62-1.28,1.51-1.06-.1-1.17-.96-1.16-1.78,.02-.79,.42-1.46,1.28-1.42,.98,.04,1.07,.9,1.16,1.69Zm-.56-.14c-.11-.37,.13-1.01-.61-1.05-.75-.03-.64,.59-.64,1.04,0,.49-.1,1.19,.63,1.19,.64,0,.56-.66,.62-1.18Z"/><path class="j" d="M217.96,115.35c-.7,.14-.28,.7-.38,1.06-.06,.22,.04,.53-.28,.57-.37,.05-.32-.28-.32-.5,0-1.04,0-2.08,0-3.12,0-.19,.04-.54,.23-.45,.71,.36,1.61-.2,2.23,.49-.06,.54-.03,1.13-.88,1-.3-.05-.4,.15-.34,.44l-.03,.42c-.08,0-.15,.04-.22,.08Zm.19-1.9c-.27,.01-.61-.03-.59,.38,.03,.4,.39,.31,.65,.32,.27,.01,.64,.04,.61-.35-.03-.32-.39-.33-.67-.35Z"/><path class="j" d="M146.85,184.51c0-1.61,.14-1.75,1.61-1.53,.23,.03,.52,0,.49,.35-.02,.26-.25,.27-.45,.28-.12,0-.24-.01-.36,0-.28,.04-.73-.14-.72,.36,0,.42,.41,.23,.66,.28,.24,.05,.62-.12,.66,.3,.04,.42-.32,.41-.59,.38-.65-.07-.86,.21-.78,.82,.02,.18,.03,.45-.23,.47-.37,.02-.29-.3-.29-.52-.01-.4,0-.8,0-1.19Z"/><path class="i" d="M219.69,170.77c.71-.14,1.45-.21,1.46,.81,0,.88-.64,1.25-1.41,1.31-.85,.07-1.4-.43-1.46-1.25-.07-1.02,.72-.94,1.41-.87Zm.73,.88c-.04-.42-.26-.62-.69-.62-.43,0-.82,.05-.85,.58-.03,.46,.3,.6,.69,.62,.43,.02,.79-.06,.86-.58Z"/><path class="p" d="M243.03,164.83c-.2,.31-.51,.17-.77,.2-.2,.02-.43,0-.45,.27-.02,.23,.16,.32,.37,.38,.79,.21,1.18,.69,.84,1.51-.25,.61-1,.69-1.94,.27,.13-.47,.45-.12,.67-.16,.37-.05,.75-.14,.77-.58,.01-.4-.37-.55-.68-.51-.82,.12-.76-.38-.77-.93-.02-.71,.38-.8,.91-.73,.35,.05,.81-.22,1.04,.29Z"/><path class="p" d="M212.96,167.08c.27,.36,.78-.01,1.11,.4-.2,.31-.52,.26-.8,.23-.44-.06-1.09,.28-1.28-.25-.2-.55,.42-.77,.83-.99,.44-.23,.72-.62,.61-1.06-.18-.74-.89-.2-1.55-.51,.71-.49,1.29-.61,1.81-.04,1.01,1.11-.42,1.5-.73,2.23Z"/><path class="p" d="M235.76,164.95c.77-.59,1.48-.64,1.92-.06,.81,1.1-.4,1.54-.96,2.14,.34,.42,.93-.01,1.2,.49-.12,.06-.22,.17-.32,.17-.61-.04-1.47,.34-1.76-.22-.26-.52,.62-.78,.99-1.17,.26-.28,.68-.59,.48-.99-.26-.56-.93-.12-1.56-.36Z"/><path class="p" d="M217.02,166.07c-.13,.79-.24,1.65-1.32,1.66-1.1,.01-1.08-.91-1.13-1.63-.05-.76,.17-1.55,1.09-1.57,.9-.02,1.28,.67,1.36,1.54Zm-.7,.08c-.12-.42,.14-1.08-.6-1.11-.7-.03-.67,.54-.67,1.03,0,.53,0,1.18,.67,1.2,.66,.01,.49-.68,.6-1.12Z"/><path class="p" d="M228.72,167.75c-.89-.01-1.15-.7-1.22-1.52-.08-.91,.54-1.74,1.28-1.71,.99,.04,1.16,.84,1.12,1.55-.04,.67,.1,1.64-1.18,1.69Zm.78-1.55c-.01-.55-.04-1.1-.66-1.15-.69-.05-.7,.56-.7,1.02,0,.5,.01,1.18,.67,1.18,.54,0,.65-.6,.69-1.05Z"/><path class="i" d="M216.35,114.61c-.06,.76-.03,1.55-1.03,1.48-.85-.06-1.07-.71-1.07-1.46,0-.79,.24-1.49,1.18-1.47,.99,.03,.84,.87,.93,1.45Zm-1.5,.05c.05,.3-.07,.81,.51,.81,.44,0,.52-.39,.53-.77,0-.41,0-.85-.54-.86-.51-.02-.47,.41-.5,.83Z"/><path class="i" d="M222.49,114.63c-.31-.35-1.05-.29-.95-1.02,.05-.4,.28-.65,.68-.71,.68-.1,1.37-.16,1.88,.41,.27,.31,.22,.63-.17,.89-.26,.17-.64,.09-.8,.43-.21-.11-.42-.14-.63,0Z"/><path class="j" d="M225.66,115.16c-.93-.96,.47-.69,.56-1.2-.16-.23-.74,.17-.76-.28-.03-.52,.52-.2,.71-.37,.91-.82,1.52,.2,2.27,.33-.25,.47-.85,.06-1.21,.41l1.09,.58-.35,.35c-.81-.41-1.6-.64-2.31,.17Z"/><path class="i" d="M217.28,107.9c.61,.1,1.25-.12,1.99,.2-.99,.67-.92,1.34-.08,1.99,.14,.11,.18,.26,.06,.41-.1,.13-.27,.25-.37,.08-.71-1.22-1.14-.15-1.65,.19-.65-.56,.49-.75,.25-1.23l-.02,.03c.47-.34,.49-.79,.08-1.1-.25-.19-.44-.25-.26-.57Z"/><path class="i" d="M223.53,184.65c-.16,.74-.57,1.18-1.31,1.13-.66-.05-1.14-.45-1.09-1.16,.05-.69,.45-1.22,1.21-1.2,.75,.02,1.06,.57,1.19,1.23Zm-.72,.1c0-.41-.05-.71-.5-.71-.44,0-.52,.28-.52,.64,0,.32,.09,.55,.45,.58,.41,.03,.59-.18,.57-.51Z"/><path class="i" d="M226.22,184.7c-.17,.72-.59,1.11-1.28,1.07-.77-.04-1.19-.55-1.09-1.29,.09-.62,.49-1.14,1.23-1.07,.75,.08,1.07,.6,1.14,1.28Zm-.72-.24c0-.1-.02-.42-.49-.41-.42,0-.54,.25-.54,.62,0,.32,.08,.55,.45,.59,.42,.04,.59-.17,.59-.79Z"/><path class="i" d="M239.11,184.69c0-.85,.37-1.33,1.14-1.27,.69,.06,1.22,.47,1.19,1.24-.03,.79-.61,1.09-1.3,1.1-.72,0-1.09-.4-1.04-1.07Zm1.1,.58c.45-.03,.45-.37,.45-.69,0-.3-.09-.56-.46-.55-.4,.01-.55,.25-.55,.62,0,.38,.18,.59,.57,.61Z"/><path class="i" d="M210.53,114.54c.02-1.45,1.05-2.09,2.46-1.55,.16,.06,.3,.15,.3,.32,0,.24-.2,.31-.41,.33-.6,.05-1.23-.11-2.04,.21,.64,.4,1.16,.2,1.63,.27,.34,.05,.86-.23,.89,.45-.94,.13-1.88,.17-2.82-.03Z"/><path class="i" d="M170.45,185.01c-.02-.43,.07-.82,.53-.95,.5-.15,1.02-.2,1.49,.14,.16,.11,.2,.29,.08,.4-.14,.14-.38,.17-.55,.04-.23-.16-.43-.43-.67-.05-.16,.25-.16,.53-.03,.79,.19,.37,.42,.21,.68,.05,.21-.13,.51-.18,.62,.08,.14,.32-.17,.5-.39,.64-.36,.23-.74,.25-1.13,.04-.48-.25-.66-.66-.63-1.18Z"/><path class="i" d="M204.46,109.45v-.31c.65,0,1.03-.26,.93-1-.03-.26-.08-.62,.36-.59,.39,.03,.34,.37,.34,.64,0,.87,.02,1.75,0,2.62,0,.32,.19,.86-.32,.88-.65,.03-.26-.6-.41-.91,.16-.75,.09-1.35-.9-1.33Z"/><path class="p" d="M227.97,114.99l.35-.35,.26,.11c.07,.33,.18,.64,.6,.47,.38-.15,.75-.17,1.13-.07l.54,.33c-.65,.3-1.44-.17-2.06,.37-.67,.11-1.79-.58-1.71,.93,0,.07-.12,.2-.21,.23-.19,.06-.33-.08-.31-.24,.1-.82-.31-1.03-1.03-.95-.21,.02-.55,.07-.58-.24-.03-.47,.43-.33,.68-.44,.79,.12,1.58,.37,2.33-.13Z"/><path class="i" d="M195.44,110.05l.06-.02c.16,.48,.69,.97,.13,1.46-.6,.53-1.41,.56-2.01,.17-.88-.57-.48-1.19,.22-1.67l1.59,.05Zm-.98,1.23c.25-.07,.65,.09,.69-.28,.04-.34-.31-.41-.6-.43-.29-.01-.64,.04-.69,.34-.07,.43,.36,.29,.6,.37Z"/><path class="i" d="M238.77,184.07c-.4,.21-.61,.15-.84,.04-.25-.12-.47-.03-.58,.23-.11,.23-.09,.48,.04,.69,.15,.23,.37,.26,.61,.08,.23-.17,.56-.32,.69,.02,.12,.32-.27,.46-.51,.55-.64,.25-1.25,.07-1.57-.5-.33-.59-.14-1.2,.45-1.56,.63-.38,1.19-.26,1.7,.45Z"/><path class="j" d="M224.27,116.78c-.78,.61-1.68,.24-2.5,.21-.43-.01-.22-.58-.18-.91l1.89-.3-.02-.18h-1.89l.03-.24,2.58,.02,.03,.95c-.33,.21-.33,.37,.06,.47Z"/><path class="i" d="M199.66,115.34c.4,0,.69-.25,.87-.55,.26-.44,.46-.93-.42-.91-.25,0-.65,.12-.67-.28-.02-.5,.45-.4,.72-.35,.41,.07,1.08-.35,1.2,.35,.09,.58,.26,1.29-.45,1.72-.27,.16-.51,.38-.77,.57-.17,.13-.31,.4-.59,.14-.32-.31,.11-.48,.12-.72l-.02,.02Z"/><path class="i" d="M220.7,184.14c-.5,.17-.95-.44-1.29,.14-.27,.47,.07,1.04,.59,.92,.25-.06,.44-.37,.8-.12-.26,.68-.78,.82-1.42,.64-.56-.15-.71-.59-.69-1.11,.02-.56,.19-1.02,.81-1.16,.59-.14,1.01,.02,1.2,.69Z"/><path class="p" d="M222.96,166.18c-.25-.75-.39-1.32-.99-1.12-.64,.2-.49,.85-.44,1.34,.04,.43,.04,1.03,.8,.84,.18-.05,.39-.19,.48,.09,.03,.08-.04,.27-.12,.3-.46,.19-.97,.25-1.34-.14-.61-.64-.72-1.44-.35-2.21,.24-.49,.71-.92,1.36-.72,.63,.19,.85,.65,.6,1.63Z"/><path class="i" d="M232.85,184.48c.74-1.33,1.49-1.45,2.15-.35-.18,.13-.37,.13-.56,.04-.26-.13-.56-.27-.71,.08-.1,.23-.1,.57,0,.8,.15,.33,.45,.24,.7,.05,.21-.16,.49-.23,.6,.02,.14,.34-.21,.5-.46,.57-.87,.26-1.47-.01-1.72-.93v-.28Z"/><path class="i" d="M210.01,107.62c.34,.22,.69,.32,1.1,.32,.35,0,.91-.24,1,.34,.09,.58,.2,1.25-.33,1.69-.47,.4-1.04,.69-1.56,1.03-.28-.27-.25-.51,.06-.73,.66-.32,1.47-.66,1.26-1.51-.16-.63-.84-.33-1.33-.17-.29-.28-.17-.64-.21-.98Z"/><path class="i" d="M162.5,116.04c.09-1.78,.06-3.56-.24-5.41,.84,.58,1.28,1.74,1.01,2.51-.56-.22-.25,.26-.27,.38-.14,.92,.25,1.88-.23,2.77l-.27-.25Z"/><path class="i" d="M167.42,184.61c0,.4,0,.79,0,1.19,0,.26-.05,.48-.38,.47-.31-.02-.36-.24-.36-.5,0-.75,0-1.51,0-2.26,0-.25,.02-.5,.34-.52,.42-.04,.41,.27,.41,.56,0,.36,0,.71,0,1.07Z"/><path class="j" d="M231.02,185.78c-.47-.41-.26-.83-.3-1.2-.03-.3-.08-.55-.46-.56-.36,0-.49,.2-.49,.52,0,.28,0,.56-.02,.83-.01,.22-.16,.45-.35,.28-.4-.36-.16-.89-.18-1.34-.01-.27-.19-.63,.27-.8,1.15-.42,1.75-.04,1.74,1.18,0,.33,.1,.7-.21,1.09Z"/><path class="i" d="M219.81,111.72c0-1.32,0-2.63,.01-3.95,0-.07,.17-.19,.25-.19,.09,0,.25,.12,.25,.19,.02,1.32,.01,2.63,.01,3.95h-.53Z"/><path class="g" d="M210.46,172.41c0,.52,0,1.04,0,1.56,0,.21-.03,.41-.3,.43-.35,.03-.38-.21-.38-.46,0-1.04,0-2.08,0-3.13,0-.2,.02-.41,.29-.43,.34-.03,.38,.22,.39,.47,0,.52,0,1.04,0,1.56h-.01Z"/><path class="i" d="M198.7,110.62c-.41,.42,.64,.74,.17,.95-.72,.32-1.58,.23-2.33,.04-.44-.11-.19-.69-.23-1.07-.02-.18,.18-.37-.01-.55h0c.19,.36,.8,.21,.83,.9,.02,.46,.74,.22,1.15,.22,.35,0,.65-.13,.4-.58h-.06l.02,.08h.08Z"/><path class="p" d="M217.03,164.82c.84-.41,1.43-.26,2-.27,.31,0,.44,.19,.33,.47-.3,.78-.61,1.55-.92,2.33-.1,.26-.32,.43-.56,.31-.3-.15-.1-.41,0-.62,.06-.15,.14-.29,.22-.42q.8-1.44-1.06-1.81Z"/><path class="j" d="M230.31,115.14c-.38-.1-.75-.08-1.13,.07-.42,.17-.54-.14-.6-.47,.33-.21,.79-.4,.71-.85-.07-.42-.54-.15-.81-.24,.49-.74,1.73-.76,2.24-.03-.29,.09-.72-.11-.86,.2-.16,.35,.26,.52,.48,.73,.22,.22,.74,.42-.02,.6Z"/><path class="h" d="M199.02,109.11c.78,.21,1.41,.73,2.34,.67,1.01-.06,1.36-.36,1.21-1.32-.03-.19,0-.4,0-.59,.08-.01,.16,0,.23,.03-.18,2.11-.18,2.08-2.44,2.14-.38,0-1.09-.44-1.16,.47l-.5,.12s-.08,0-.08,0l-.02-.07c.64-.33,.07-1.01,.41-1.42Z"/><path class="p" d="M235.12,164.93c.5,.63,.44,1.3,.23,2.03-.14,.49-.37,.76-.89,.79-.48,.03-.89-.08-1.09-.55-.34-.78-.61-1.58,.22-2.26l.21,.21c-.2,.74-.37,1.49,.24,2.11,.18,.18,.47,.09,.64-.1,.56-.6,.49-1.29,.2-1.98l.24-.25Z"/><path class="h" d="M239.88,172.45c-.91,.42-1.87,.07-2.8,.19-.35,.04-.88-.18-.78,.53l-.42,.03v-.76c.23,0,.47,.02,.63-.19,.88-.23,1.76-.55,2.69-.27,.37-.05,.46,.32,.69,.47Z"/><path class="h" d="M149.29,170.49c1.77,.28,3.57-.04,5.35,.17v.37c-1.78,0-3.56,0-5.35,0v-.55Z"/><path class="p" d="M222.64,172.39c-.6-.07-.24-.56-.36-.84l1.82-.15c-.77-.66-1.66-.06-2.41-.58,.86-.5,1.69-.25,2.48-.24,.53,0,.32,.54,.36,.86,.05,.43-.2,.52-.59,.55-.45,.04-.94-.21-1.34,.18-.03,.03,.03,.14,.04,.22Z"/><path class="p" d="M224.18,115.36l-2.58-.02c-.24-.21-.5-.21-.77-.05l.05-.71c.54,.02,1.07,.04,1.61,.05,.21-.14,.43-.11,.64,0,.31,0,.61-.02,.92,0,.21,0,.5-.08,.6,.2,.13,.4-.41,.26-.46,.53Z"/><path class="i" d="M168.55,184.12c.5-.16,1.08-.37,1.42,.14,.34,.51,.15,1.16,.12,1.76-.01,.24-.25,.29-.46,.25-.23-.04-.3-.21-.3-.44,0-.36,.02-.72-.04-1.07-.09-.53-.39-.36-.67-.16l-.06-.48Z"/><path class="j" d="M202.78,114.8c-.03-.44,.08-.86,.27-1.26,.68-.71,1.29-.39,1.9,.12,.15,.49,.21,1.01-.26,1.3-.63,.39-1.3,.28-1.91-.17Zm1.11-1.08c-.26,.1-.57,.17-.56,.51,.01,.31,.27,.48,.56,.49,.3,0,.53-.2,.54-.5,.01-.33-.27-.43-.54-.5Z"/><path class="h" d="M241.67,173.21c.01-.64-.84-.83-.79-1.49h.38c.19,.31,.63,.49,.84,.42,.38-.12,.16-.6,.2-.92,.03-.23,0-.47,0-.7h.26c.01,1.28,.02,2.56,.03,3.83h-.37c.04-.23,.13-.48-.07-.65-.13-.11-.28,0-.37,.14l-.13-.62Z"/><path class="i" d="M194.54,109.23l.05,.53-.74,.11c-.27-.2-.5-.54-.87-.08-.13,.16-.41,.31-.62,.07-.26-.29,.06-.44,.21-.55,.51-.38,.52-.99,.6-1.71,.66,.59,.17,1.84,1.37,1.63Z"/><path class="i" d="M228.79,115.84c.61-.53,1.4-.07,2.06-.37l.11-.02,.11,.03c.21,.04,.41,.07,.62,.11,.03,.23,.1,.47,.07,.7-.03,.27,.21,.73-.3,.76-.45,.03-.28-.39-.32-.63-.07-.49-.46-.32-.74-.38-.53-.09-1.11,.21-1.6-.2Z"/><path class="i" d="M170.46,115.59c.55-.06,.92,.39,1.42,.48,1,.19,1.95,.17,2.79-.51,.22-.18,.44-.5,.81-.24-1.43,1.43-3.08,1.68-4.77,.7-.16-.09-.38-.17-.26-.44Z"/><path class="j" d="M193.48,115.35h.04c-1.2-.04-1.26-.82-1.15-1.73,.02-.19,0-.42,.27-.44,.32-.03,.45,.19,.4,.44-.19,.92,.41,1.01,1.07,1.06l-.02,.37c-.17,.17-.54-.06-.62,.3Z"/><path class="j" d="M244.74,115.6h.62c-.16,.49,.62,1.42-.64,1.4-.44-.92-1.28-.26-1.9-.46v-.7l.48-.04c.48-.05,1,.21,1.44-.2Z"/><path class="g" d="M162.5,116.04l.27,.25c-.11,.03-.22,.09-.34,.1-1.6,.09-1.6,.09-1.6-1.54,.01-2.16,.03-4.32,.05-6.49l.36,.04c-.22,2.35-.07,4.71-.08,7.06,0,1.08,.87,.43,1.34,.58Z"/><path class="g" d="M167.14,116.04c1.07,.22,1.42-.16,1.38-1.29-.08-2.13,0-4.27,.03-6.4,.49,.26,.24,.71,.24,1.06,.03,1.89-.06,3.78,.04,5.66,.07,1.14-.33,1.51-1.39,1.33-.2-.03-.4-.05-.59-.07l.29-.29Z"/><path class="j" d="M251.62,116.15c.11-.3,.11-.6,0-.9-.01-.56-.04-1.12-.03-1.68,0-.25-.13-.62,.28-.67,.45-.06,.26,.38,.39,.57,.62,.92-.03,1.82-.02,2.72,0,.28,.17,.77-.29,.77-.58,0-.3-.51-.33-.82Z"/><path class="j" d="M216.81,110.78c-.15,.29,.2,.88-.31,.88-.51,0-.24-.56-.29-.88-.05-.31-.03-.64-.05-.96,.1-.66,.1-1.31,0-1.97,.22-.4,.44-.44,.65,0-.35,.78,.33,1.18,.65,1.71l.02-.03c-.94,.02-.7,.68-.67,1.23Z"/><path class="h" d="M232.85,184.48v.28c-.34,.3,.12,1.19-.6,1.08-.59-.09-.36-.81-.33-1.24,.04-.59-.34-1.61,.33-1.67,.8-.06,.19,1.07,.6,1.54Z"/><path class="g" d="M153.63,108.35c.02,2.06,.04,4.12,.06,6.18,0,1.58,0,1.58,1.61,1.5l.03,.32q-1.97,.16-1.97-1.7c0-1.75-.02-3.5,.01-5.25,0-.35-.26-.8,.25-1.04Z"/><path class="h" d="M202.78,114.8c.6,.45,1.27,.56,1.91,.17,.47-.29,.41-.82,.26-1.3h.42c.02,.12,.06,.24,.04,.35-.08,.53,.3,1.34-.21,1.53-.66,.25-1.49,.15-2.23,.07-.52-.06-.37-.48-.19-.82Z"/><path class="i" d="M239.19,171.97c-.93-.28-1.81,.04-2.69,.27-.08-.45,.25-.47,.55-.55,.33-.09,.68-.19,.66-.65-.29-.38-.61-.33-.95-.08l-.18-.12c.25-.32,2.03-.33,1.96-.21-.4,.8,.53,.86,.65,1.34Z"/><path class="j" d="M220.88,114.58l-.05,.71,.03,.07c-.88-.34-1.21-1.02-1.17-1.91,.33-.15,.55-.75,.95-.46,.55,.39,.13,1.07,.24,1.6Z"/><path class="h" d="M219.69,113.44c-.04,.9,.29,1.57,1.17,1.91,.01,.08,.01,.16,0,.24h-2.68l-.22-.24c.07-.05,.14-.07,.22-.08,.58,.04,1.2,.29,1.73-.3-.6-.27-1.16-.04-1.7-.12-.06-.28,.04-.49,.34-.44,.85,.14,.82-.46,.88-1l.25,.03Z"/><path class="p" d="M248.92,116.09c-.08,.31,.09,.7-.44,1.08-.2-1.47-.16-2.79-.02-4.1,.03-.33,.34-.15,.47,.08v2.94Z"/><path class="p" d="M167.14,116.04l-.29,.29c-.53-.9-.11-1.88-.24-2.81-.05-.34,.2-.83-.44-.87l.21-.2c.35-.28,.52,0,.7,.22l.07,3.37Z"/><path class="h" d="M244.74,115.6c-.43,.41-.96,.15-1.44,.2,.5-.76,.98-1.53,1.25-2.41h.04l.14,2.21Z"/><path class="p" d="M209.27,107.68l.5-.03,.02,4-.52-.21c0-.07-.01-.14-.02-.21l.02-3.55Z"/><path class="h" d="M215.31,172.49c.24-.36,.6-.28,.94-.23,.19,.03,.53,.15,.54,.13,.41-1.05,.77,.18,1.14,.02v.33c-.9,.75-1.77,.46-2.64-.07-.01-.06,0-.12,.02-.17Z"/><path class="p" d="M237.93,114.81c-.03,.17-.05,.35-.08,.52l-.38,.06-.94,.02h-1c-.36-.11-.56-.3-.05-.45,.45-.14,.36-.44,.36-.74,.19-.07,.51-.16,.54,.01,.19,1.13,.95,.61,1.55,.58Z"/><path class="p" d="M210.25,116.54v-.44l.26-.24,.52-.05c-.02,.44,.04,.78,.63,.73,.57-.05,1.14,0,1.7,.19-1.05,.21-2.12,.71-3.1-.19Z"/><path class="h" d="M237.93,114.81c-.59,.03-1.35,.55-1.55-.58-.03-.17-.35-.08-.54-.01l-.06-.52c.39,0,.87-.3,1.1,.27,.08,.21-.2,.62,.28,.6,.5-.02,.3-.47,.34-.74,.04-.23,0-.48-.02-.72l.43-.19v1.89Z"/><path class="p" d="M236.47,116.14c.03,.62,.51,.33,.81,.39,.44,.09,.94-.17,1.36,.21-1.57,.8-2.87,.37-2.87-.92,.32-.07,.47,.22,.7,.32Z"/><path class="h" d="M234.29,170.75v2.43l-.29-.07c.09-.39,.28-.81-.19-1.19-.32,.38-.08,1.68-1.1,.69,.08-.67,.65-.88,1.13-1.12,.39-.2,.26-.41,.17-.66l.27-.07Z"/><path class="j" d="M232.62,174.22c-1.02,.32-1.82,.22-2.59,.18-1.03-.06-.24-.81-.45-1.27,.6,1.43,2,.35,3.05,1.09Z"/><path class="j" d="M218.17,115.58h2.68c0,.4,.02,.8,0,1.19,0,.09-.1,.22-.18,.25-.15,.05-.35,.02-.35-.19,0-.91-.68-.61-1.18-.71-.36-.07-1.08,.39-.96-.54Z"/><path class="j" d="M237.49,113.11c0,.24,.05,.48,.02,.72-.04,.27,.16,.72-.34,.74-.49,.02-.2-.39-.28-.6-.22-.56-.71-.27-1.1-.27-.18-.06-.43-.06-.41-.33,.01-.26,.24-.29,.44-.29,.56,0,1.12,.02,1.68,.03Z"/><path class="h" d="M231.07,115.48l-.11-.03-.11,.02c-.18-.11-.36-.22-.54-.33,.76-.18,.24-.38,.02-.6-.22-.21-.63-.38-.48-.73,.14-.31,.57-.1,.86-.2l.03,.55c.37,.19,.5,.52,.49,.91l-.17,.39Z"/><path class="g" d="M209.79,111.65l-.02-4,.24-.03c.04,.33-.08,.7,.21,.98l.06,1.68c-.31,.22-.34,.46-.06,.73-.03,.29,.23,.78-.43,.65Z"/><path class="j" d="M228.57,184.59c-.14,.38,.2,1.03-.26,1.04-.61,0-.29-.67-.31-1.04-.02-.35-.24-1.01,.22-1.01,.63,0,.14,.69,.35,1.01Z"/><path class="j" d="M168.55,184.12l.06,.48c0,.12,.01,.24-.02,.35-.12,.42,.23,.97-.28,1.28-.16,.1-.47,.02-.45-.21,.07-.66-.35-1.4,.24-1.98,.06-.06,.29,.05,.44,.08Z"/><path class="p" d="M158.37,108.58c-1.4-.06-2.79-.12-4.19-.18,1.27,.06,2.54-.56,3.81-.04,.13,.05,.25,.15,.38,.23Z"/><path class="i" d="M227.16,185.68c-.46-1-.28-2.03-.12-3.06,.52,.99,.27,2.03,.12,3.06Z"/><path class="h" d="M227.97,114.99c-.75,.5-1.55,.25-2.33,.13l.02,.04c.71-.82,1.51-.58,2.31-.17Z"/><path class="i" d="M171.66,112.69c.76-.22,1.29,.3,1.88,.62,.33,.18,.63,.42,.53,.85-.11,.52-.53,.52-.95,.47,.54-.41,.71-.74-.05-1.16-.47-.26-1.07-.3-1.41-.77Z"/><path class="p" d="M155.33,116.34l-.03-.32c0-.63-.02-1.26,0-1.89,.01-.39-.21-.93,.51-.96,.68-.02,1.06,.23,.93,.97-.36-.08-.55-.7-1-.43-.4,.24-.11,.72-.19,1.07-.12,.51,.27,1.09-.22,1.54Z"/><path class="h" d="M204.46,109.45c.98-.02,1.05,.58,.9,1.33l-.46-.04c.29-.5,.07-.6-.42-.61-.39,0-1.06,.31-1.09-.28-.03-.57,.76-.07,1.06-.41Z"/><path class="h" d="M196.02,114.89c-.39-.62-.09-1.31-.19-1.96l.48,.03c-.55,1.01,.05,1.46,.87,1.82-.4-.06-.79-.06-1.16,.11Z"/><path class="h" d="M210.53,114.54c.94,.2,1.88,.16,2.82,.03l.04,.49h-2.91l.05-.51Z"/><path class="h" d="M228.47,113.65c.27,.09,.74-.18,.81,.24,.08,.45-.38,.64-.71,.85l-.26-.11-1.09-.58c.36-.35,.96,.07,1.21-.41h.04Z"/><path class="j" d="M209.27,107.68c0,1.18-.01,2.37-.02,3.55-.08,.01-.16,.02-.23,.02l-.02-.41c-.04-.28,.4-.76-.31-.78-.12-.48,.21-1-.12-1.47l-.02,.03c.46-.09,.48-.39,.36-.76,.09-.12,.18-.23,.35-.17Z"/><path class="j" d="M165.42,111.49c.02,.63-.34,1.12-.59,1.81-.28-.68-.48-1.22-.72-1.75-.22-.49,.17-.25,.33-.29l.34,.89c.23-.21,.28-.59,.63-.67Z"/><path class="i" d="M165.18,115.58c.23-.86,.36-1.78,1.17-2.35-.29,.84-.33,1.79-1.17,2.35Z"/><path class="g" d="M231.23,115.09c0-.4-.12-.72-.49-.91,.22-.11,.36-.29,.42-.54,.07-.26-.17-.78,.35-.69,.41,.07,.19,.54,.21,.83,.03,.44-.02,.88-.04,1.32h-.45Z"/><path class="h" d="M195.77,116.78c.1-.51,.17-1.01-.49-1.32l.73-.17,1.17,.08c-.52,.34-1.24,.54-.91,1.42h-.5Z"/><path class="i" d="M157.8,116.33c1.74,.23,1.76,.22,1.6-1.25,.37,.35,.61,1.08,.36,1.22-.56,.32-1.3,.23-1.96,.03Z"/><path class="p" d="M232.71,172.61c1.02,.99,.78-.31,1.1-.69,.46,.38,.28,.79,.19,1.19-.48,.32-.97,.69-1.37-.09l.08-.4Z"/><path class="h" d="M243.53,171.01c-.09,.52-.08,1.01,.31,1.45,.19,.21,.17,.54,.03,.78-.05,.09-.29,.14-.42,.11-.38-.09-.27-.43-.27-.69,0-.55,.04-1.1,.07-1.66h.29Z"/><path class="p" d="M170.61,109.31c-.28,.91-.24,1.8,.12,2.68-.92-.85-.96-1.77-.12-2.68Z"/><path class="h" d="M204.03,170.69l2.28,.18c-.81,.5-1.62,.11-2.3,.42l.02-.6Z"/><path class="i" d="M213.71,172.67c-.48-.19-.21-.65-.35-.97l.03-1.17h.36c.09,.73,.17,1.44-.04,2.14Z"/><path class="h" d="M217.46,109.57c-.32-.53-1-.93-.65-1.71l.47,.04c-.19,.32,0,.38,.26,.57,.41,.31,.4,.76-.08,1.1Z"/><path class="h" d="M206.87,174.14l-2.39-.14c.98-.43,1.72-.07,2.36-.39l.03,.54Z"/><path class="p" d="M242.82,116.54c.62,.2,1.45-.45,1.9,.46-.64-.13-1.49,.61-1.9-.46Z"/><path class="h" d="M216.16,107.86c.1,.66,.1,1.31,0,1.97h-.34v-1.83l.34-.14Z"/><path class="j" d="M210.48,115.06h2.91c.39,.31,.07,.34-.16,.35-.67,.03-1.33,.04-2,.06-.26-.11-.51-.11-.77,0-.14-.1-.45,.03-.4-.27,.01-.07,.27-.1,.41-.15Z"/><path class="p" d="M198.31,115.33c-.49,.16-.51-.07-.36-.44,.6,.03,1.31-.35,1.72,.45l.02-.02c-.46,0-.91,0-1.37,.01Z"/><path class="j" d="M242.3,170.52c0,.23,.02,.47,0,.7-.04,.32,.18,.8-.2,.92-.21,.07-.65-.11-.84-.44,.39-.06,.62-.23,.57-.68-.03-.32-.02-.65,.47-.51Z"/><path class="p" d="M221.57,115.59h1.89l.02,.18-1.89,.3-.02-.49Z"/><path class="h" d="M193.84,109.87l.74-.11c.51,0,.09-.59,.48-.69,.48,.16,.04,.74,.37,.98l-1.59-.05s-.02-.08,0-.12Z"/><path class="h" d="M248.92,116.09v-2.94c.08,0,.14,.02,.19,.07-.17,.94-.09,1.89-.05,2.83l-.06,.04h-.07Z"/><path class="j" d="M199.02,109.11c-.35,.41,.23,1.09-.41,1.42h.06c-.47-.45-.15-1-.2-1.5l.55,.07Z"/><path class="i" d="M159.42,115.1c-.59-.2-.83-.61-.73-1.22,.46,.27,.69,.69,.73,1.22Z"/><path class="p" d="M233.58,164.94c.51-.69,1.02-.59,1.54,0l-.24,.25c-.35-.22-.71-.28-1.08-.04l-.21-.21Z"/><path class="i" d="M161.24,108.4l-.36-.04c.79-.42,1.59-.37,2.39-.02-.67,.22-1.35,.04-2.03,.06Z"/><path class="h" d="M216.81,110.78c-.03-.55-.28-1.21,.67-1.23,.24,.47-.9,.67-.25,1.23h-.42Z"/><path class="h" d="M236.47,116.14c-.24-.1-.39-.39-.7-.32l-.23-.4h1l-.06,.72Z"/><path class="h" d="M224.72,173.35c-.41,.07-.82,.11-1.35-.11,.42-.47,.92-.22,1.27-.42l.07,.53Z"/><path class="i" d="M170.7,114.21c-.15,.34-.3,.68-.46,1.03-.21-.5-.14-.88,.46-1.03Z"/><path class="p" d="M166.39,108.58c-.07,.42,.25,.99-.45,1.17,0-.44,.06-.87,.45-1.17Z"/><path class="p" d="M167.99,108.4l-1.62,.2c.5-.4,1.09-.03,1.62-.2Z"/><path class="p" d="M156.73,114.14c.43,.2,.46,.6,.5,.99-.51-.16-.5-.58-.5-.99Z"/><path class="h" d="M210.46,115.48c.26-.11,.51-.11,.77,0l-.2,.34-.52,.05-.04-.38Z"/><path class="h" d="M208.92,107.85c.12,.37,.09,.67-.36,.76l.03-.61,.33-.15Z"/><path class="h" d="M224.27,116.78c-.39-.11-.39-.27-.06-.47,.21,.13,.32,.28,.06,.47Z"/><path class="j" d="M241.79,173.83c.09-.15,.24-.25,.37-.14,.2,.17,.11,.42,.07,.64-.35,.01-.4-.24-.43-.5Z"/><path class="i" d="M158.69,113.89c-.3,.29-.43-.03-.46-.2-.06-.37,.2-.19,.37-.16l.09,.36Z"/><path class="p" d="M236.75,170.96c.34-.25,.66-.31,.95,.08l-.95-.08Z"/><path class="p" d="M231.23,115.09h.45v.5c-.21-.04-.41-.07-.62-.11,.06-.13,.11-.26,.17-.39Z"/><path class="i" d="M163.49,109.08c-.25-.19-.55-.37-.23-.73,.38,.15,.26,.45,.23,.73Z"/><path class="p" d="M213.75,170.54h-.36c.13-.35,.25-.28,.36,0Z"/><path class="p" d="M170.71,111.96c.07,.1,.3,.03,.26,.24l-.26-.24Z"/><path class="p" d="M239.2,171.04c-.09-.12-.2-.2-.19-.27,0-.07,.12-.14,.19-.21,.07,.07,.19,.13,.19,.21,0,.07-.1,.16-.19,.28Z"/><path class="i" d="M209.02,111.25c.08,0,.16-.01,.23-.02,0,.07,.02,.14,.02,.21-.17,.05-.27,0-.26-.18Z"/><path class="h" d="M237.47,115.4l.38-.06c-.05,.08-.1,.17-.15,.25l-.22-.19Z"/><path class="i" d="M170.23,115.21c.13,.1,.28,.19,.25,.39-.31,.01-.39-.12-.25-.39Z"/><path class="i" d="M198.68,107.62c.17,.02,.24,.12,.21,.29-.02,.16-.14,.11-.23,.11,0-.13,.01-.26,.02-.4Z"/><path class="j" d="M198.68,107.62c0,.13-.01,.26-.02,.4-.34-.15-.3-.28,.02-.4Z"/><path class="m" d="M221.8,154.13c.08-.02,.15-.05,.23-.06q2.09-.11,1.94-2.35h2.17c.02,.36,.09,.73,.04,1.08-.14,.98,.21,1.28,1.23,1.3,1.09,.02,1.17-.48,1.11-1.3-.03-.35,.04-.71,.06-1.07h-.02c1.2,0,2.4,.04,3.6-.04,.93-.07,.83,.51,.79,1.06-.05,.55,.35,1.42-.8,1.3-.93-.1-1.51,.02-1.41,1.23,.07,.81,.31,1.09,1.06,.97,.96-.16,1.17,.25,1.19,1.17,.02,1.01-.43,1.12-1.21,1.05-.48-.04-.96-.05-1.44,0-1.19,.12-2.17,.07-1.85-1.59,.13-.67-.4-.64-.86-.64-1.48,0-2.97-.1-4.44,.03-1.28,.11-1.66-.36-1.46-1.53,.03-.2,.04-.4,.06-.59Z"/><path class="m" d="M217.21,156.33c-1.23-.24-2.47-.08-3.71-.1-.61,0-.87-.16-.84-.81,.05-.88,.08-1.77,0-2.64-.1-.96,.3-1.09,1.15-1.12,.97-.03,1.28,.29,1.17,1.22-.06,.57-.18,1.33,.82,1.16,1.39-.25,1.63,.47,1.45,1.61-.04,.24-.04,.48-.06,.72l.03-.03Z"/><path class="m" d="M239.66,154.13c.11,.73,.09,1.46,0,2.19-.35-.03-.71-.05-1.06-.11-.85-.13-1.19,.25-1.04,1.07,.2,1.1-.4,1.15-1.29,1.2-1.07,.05-1.05-.51-1-1.24,.07-1.02-.44-2.36,.21-2.99,.64-.63,1.97-.15,3-.19,.39-.02,.79,.04,1.19,.07Z"/><path class="m" d="M230.72,145c.12-1.54,.12-3.07,0-4.61q2.24,.27,2.24,2.67,0,1.74-2.24,1.93Z"/><path class="h" d="M221.83,151.72v2.43s-.08-.02-.12-.02q-2.25-.2-2.32-2.41h2.43Z"/><path class="h" d="M226.16,151.73c0-.36,.06-.72,0-1.07-.15-.99,.23-1.3,1.23-1.27,.88,.02,1.26,.24,1.14,1.15-.05,.39,.01,.79,.02,1.19h-2.4Z"/><path class="m" d="M239.62,151.75c-.24-.02-.47-.06-.71-.06-1.29-.02-1.73-.6-1.32-1.83,.26-.79,.95-.29,1.44-.39,.37-.08,.73,0,.7,.53-.04,.59,.12,1.2-.13,1.77l.03-.03Z"/><path class="m" d="M217.19,156.36c.31-.04,.62-.11,.94-.12,1.23-.03,1.73,.66,1.27,1.84-.28,.73-.97,.24-1.46,.35-.39,.08-.7-.03-.68-.55,.02-.52-.02-1.03-.04-1.55l-.03,.03Z"/><path class="m" d="M236.31,149.4c-.98,.24-1.03-.32-1.08-1.13-.07-1.06,.5-.99,1.24-1.05,.97-.07,1.08,.34,1.12,1.18,.04,1.05-.5,1.09-1.28,.99Z"/><path class="j" d="M167.07,112.67c-.19-.22-.36-.51-.7-.22-.09-.72,.27-1.27,.77-2,.23,.89-.08,1.56-.07,2.23Z"/><path class="m" d="M157.67,110.19c.08,1.1-.92,1.25-1.56,1.67-.31,.21-.57-.13-.57-.52,0-.44,0-.88,0-1.31,.72-.06,1.43,0,2.13,.16Z"/><path class="p" d="M157.67,110.19c-.7-.15-1.41-.22-2.13-.16,.45-.57,1.27-.51,2.13,.16Z"/><path class="m" d="M235.3,135.84q-.09-2,2.19-2.19c.14,2.82,.34,2.18-2.19,2.19Z"/><path class="m" d="M237.46,131.48h2.32s-.02,.08-.03,.12q-.13,2.14-2.29,2.07c.15-.73,.15-1.46,0-2.18Z"/><path class="h" d="M198.38,116.38c-.44,.43-.9,.43-1.37,.13-.04-.03-.04-.26,.01-.3,.48-.29,.93-.31,1.36,.17Z"/><path class="p" d="M197.18,115.36l-1.17-.08v-.4c.38-.18,.77-.17,1.16-.11,.03,.2,.31,.39,0,.59Z"/><path class="h" d="M239.04,113.96c.47-.2,.88-.21,1.38,.06q-.77,.36-1.38-.06Z"/><path class="p" d="M213.55,109.88c-.17-.51-.37-1.03,.04-1.46,.06-.06,.41,.04,.41,.07,.02,.5-.06,.99-.45,1.39Z"/><path class="m" d="M214.94,108.49c.3,.56,.32,.97-.1,1.44-.25-.51-.05-.91,.1-1.44Z"/><path class="m" d="M208.53,114.81c-.39,0-.78,.05-.76-.5,.02-.66,.53-.42,.87-.46,.39-.04,.71,.01,.66,.54-.05,.58-.48,.37-.76,.42Z"/><path class="h" d="M195.24,116.38c-.25,.34-.6,.36-.97,.3-.22-.04-.57-.07-.5-.38,.1-.42,.51-.48,.88-.43,.27,.04,.55,.15,.59,.51Z"/><path class="m" d="M193.48,115.35c.08-.36,.45-.13,.62-.3,.03,.58-.39,.25-.62,.3Z"/><path class="m" d="M242.25,114.43c-.03-.07-.1-.16-.1-.25,0-.11,.05-.26,.2-.19,.07,.03,.15,.16,.15,.25,0,.1-.04,.24-.25,.2Z"/><path class="h" d="M210.5,167.33c-.32-.07-.67-.14-.66-.54,0-.26,.29-.34,.54-.38,.31-.04,.59,.04,.63,.38,.04,.32-.16,.51-.5,.54Z"/><path class="m" d="M195.11,108.17s.06,0,.08,0c.02,.02,.04,.06,.03,.08-.05,.11-.11,.1-.15-.01,0-.02,.03-.05,.04-.08Z"/><path class="h" d="M239.61,166.41c.27,.06,.59,.09,.57,.46-.03,.33-.31,.45-.6,.45-.3,0-.56-.18-.56-.49,0-.34,.3-.41,.59-.42Z"/><path class="h" d="M208.57,108.58c.33,.47,0,.99,.12,1.47-.59-.44-.42-.95-.12-1.47Z"/><path class="m" d="M230.93,166.05c.09-.42-.07-1,.58-1.01,.73,0,.75,.59,.75,1.1,0,.52-.13,1.17-.76,1.12-.68-.05-.48-.77-.57-1.21Z"/><path class="m" d="M225.5,166.08c-.06,.53,.03,1.18-.62,1.18-.73,0-.63-.7-.63-1.19,0-.45-.11-1.07,.64-1.04,.74,.03,.5,.68,.61,1.05Z"/><path class="p" d="M218.15,113.45c.28,.02,.64,.03,.67,.35,.03,.39-.34,.36-.61,.35-.25-.01-.62,.08-.65-.32-.03-.41,.32-.36,.59-.38Z"/><path class="p" d="M218.21,114.85c.54,.08,1.09-.15,1.7,.12-.53,.59-1.15,.34-1.73,.3l.03-.42Z"/><path class="m" d="M220.43,171.64c-.06,.52-.43,.6-.86,.57-.39-.02-.72-.16-.69-.62,.03-.53,.42-.58,.85-.58,.43,0,.65,.2,.7,.62Z"/><path class="m" d="M216.32,166.15c-.11,.43,.06,1.13-.6,1.12-.67-.01-.68-.66-.67-1.2,0-.49-.02-1.05,.67-1.03,.73,.03,.48,.68,.6,1.11Z"/><path class="m" d="M229.5,166.2c-.04,.45-.15,1.05-.69,1.05-.66,0-.68-.68-.67-1.18,0-.46,.01-1.07,.7-1.02,.62,.05,.65,.6,.66,1.15Z"/><path class="h" d="M214.84,114.66c.03-.42-.01-.85,.5-.83,.54,.02,.54,.46,.54,.86,0,.38-.09,.77-.53,.77-.58,0-.46-.51-.51-.81Z"/><path class="m" d="M222.81,184.75c.01,.33-.16,.54-.57,.51-.37-.03-.45-.26-.45-.58,0-.36,.08-.63,.52-.64,.45,0,.51,.29,.5,.71Z"/><path class="m" d="M225.5,184.46c0,.63-.17,.84-.59,.79-.36-.04-.45-.27-.45-.59,0-.38,.12-.62,.54-.62,.47,0,.49,.31,.49,.41Z"/><path class="h" d="M240.21,185.27c-.39-.02-.57-.23-.57-.61,0-.37,.16-.61,.55-.62,.38-.01,.46,.25,.46,.55,0,.32,0,.66-.45,.69Z"/><path class="h" d="M194.46,111.28c-.23-.08-.66,.07-.6-.37,.05-.3,.4-.36,.69-.34,.28,.01,.63,.09,.6,.43-.04,.37-.44,.22-.69,.28Z"/><path class="h" d="M210.29,110.27l-.06-1.68c.48-.17,1.17-.46,1.33,.17,.21,.85-.6,1.19-1.26,1.51Z"/><path class="h" d="M233.79,165.15c.37-.25,.73-.18,1.08,.04,.3,.7,.37,1.38-.2,1.98-.17,.18-.47,.28-.64,.1-.61-.63-.44-1.38-.24-2.11Z"/><path class="h" d="M203.89,113.72c.27,.06,.55,.17,.54,.5-.01,.3-.23,.51-.54,.5-.29,0-.55-.19-.56-.49-.01-.33,.3-.41,.56-.51Z"/><path class="i" d="M226.14,151.72h2.44c-.02,.36-.09,.72-.06,1.07,.06,.82-.03,1.32-1.11,1.3-1.02-.02-1.36-.32-1.23-1.3,.05-.35-.02-.72-.04-1.08Z"/></g><g><path d="M181.14,60.77c.97,.15,1.17,1.02,1.37,1.83,1.13,4.46,2.24,8.93,3.37,13.39,.17,.69,.82,1.6-.13,1.95-1.15,.43-1.22-.9-1.4-1.6-1.12-4.18-2.15-8.38-3.22-12.57-.16-.64-.43-1.24-.57-1.88-.11-.49,.02-.94,.58-1.13Z"/><path d="M246.17,86.52c-.17-.11-.5-.21-.56-.4-.18-.58,.06-1.08,.42-1.54,1.79-2.21,3.56-4.44,5.34-6.66,1.43-1.79,2.85-3.59,4.3-5.37,.28-.34,.62-.8,1.12-.49,.46,.28,.47,.86,.18,1.23-3.4,4.34-6.82,8.65-10.25,12.96-.1,.13-.31,.16-.54,.27Z"/><path d="M217.24,78.64c-1.43-3.58,.57-6.41,.92-9.45,.27-2.31,.99-4.57,1.55-6.84,.11-.43,.32-.98,.88-.87,.51,.1,.74,.65,.62,1.09-1.47,5.22-1.78,10.79-3.96,16.07Z"/><path d="M143.44,72.6c.75-.04,1.05,.39,1.41,.84,2.9,3.68,5.82,7.34,8.75,11,.45,.57,1.18,1.28,.55,1.9-.71,.7-1.19-.25-1.64-.81-3.01-3.71-6.03-7.41-9.02-11.13-.32-.4-.86-.8-.55-1.46,.09-.2,.4-.28,.51-.35Z"/></g></g><g class="l"><g><path class="f" d="M425.59,314.5c.76,.1,1.66,.09,1.61,1.19-.35,7.79-1.22,15.48-3.93,22.89-4.25,11.62-11.48,20.88-21.51,28.07-3.21,2.3-6.66,3.98-10.41,5.09,.06-.78-.43-1.23-.95-1.68-2.5-2.16-5.01-4.32-7.48-6.51-4.95-4.39-10.3-8.31-15.04-12.96-2.85-2.79-3.22-6.11-2.61-9.8,1.13-6.82,3.62-13.14,6.71-19.3,4.21-8.38,9.66-15.72,17.16-21.43,2.15-1.64,4.32-2.2,7.02-.64,7.67,4.43,15.49,8.58,23.23,12.87,2,1.11,4.16,1.73,6.32,2.38,.02,0,.23,.5-.24,.31-.02,0,.08-.31,.13-.47Z"/><path d="M425.59,314.5c-.05,.16-.15,.46-.13,.47,.46,.19,.25-.3,.24-.31-2.16-.65-4.32-1.27-6.32-2.38-7.74-4.29-15.57-8.45-23.23-12.87-2.7-1.56-4.87-.99-7.02,.64-7.5,5.71-12.95,13.05-17.16,21.43-3.09,6.15-5.58,12.47-6.71,19.3-.61,3.7-.24,7.01,2.61,9.8,4.74,4.64,10.09,8.57,15.04,12.96,2.48,2.19,4.98,4.35,7.48,6.51,.52,.45,1.02,.9,.95,1.68-.5,.5-.95,.22-1.33-.14-7.76-7.38-16.61-13.5-24.13-21.17-1.57-1.6-2.51-3.34-2.27-5.57,.17-1.52-.41-2.49-1.58-3.46-1.78-1.47-3.8-2.54-5.67-3.85-1.68-1.17-3.34-2.31-3.45-4.7-.06-1.3-1.33-1.45-2.24-1.73-1.29-.39-2.65-.57-3.98-.83l-1.02-.27c-1.86-.7-3.62-1.73-5.38-2.48-6.74-2.85-11.58-8.2-17.38-12.26-1.39-.97-2.32-1.22-3.67,.07-1.4,1.34-3.08,2.41-5.2,2.27,.55-.89,1.36-1.43,2.25-2,5.05-3.21,8.92-7.51,11.45-12.96,.69-1.49,.48-3-.31-4.41-.38-.68-.98-1.19-1.43-.21-1.6,3.47-4.76,5.47-7.34,8.01-3.52,3.46-7.8,4.25-12.51,3.42-2.08-.37-4.15-.81-6.23-1.12-.49-.07-1.24-.49-1.56,.32-.12,.31-.49,.56-.15,1.1,1.87,2.95,4.24,5.13,7.73,6.14,2.69,.78,5.46,1.03,8.16,1.68-2.51,1.92-5.28,.84-7.71,.2-4.78-1.26-8.49-4.02-9.61-9.28-.19-.92-.5-1.79-1.54-2.17-6.21-2.22-7.68-7.1-6.7-13.45,.09-.59,.18-1.18,.27-1.77,.6-.19,1.58,.28,1.58-.92,1.38-.27,2.57,.1,3.86,.71,2.59,1.22,5.32,2.16,8.2,2.48,6.63,.75,12.58-1.59,18.48-4.16,1.15-.5,1.35-1.24,1.36-2.55,.03-2.31-1.97-3.65-2.2-5.77-.19-1.75-1.12-2.27-2.99-1.81-5.07,1.23-10.22,1.9-15.42,.74-4.35-.97-8.3-2.91-12.14-5.12-.84-.48-1.78-1.12-1.93,.59-.41,4.83-1.12,9.72,2.67,13.74,.34,.36,.29,.77,.16,1.19-.63,.1-1.03-.36-1.53-.6-4-3.84-3.32-8.76-2.88-13.5,.19-2.03,.2-3.51-1.29-5.26-4.58-5.39-2.83-14.39,3.32-17.73,3.6-1.95,7.52-3.07,11.55-3.95,5.31-1.16,10.64-2.14,16.03-2.59,3.27-.27,3.21-2.8,3.92-4.78,.57-1.61,.66-3.38,1.55-4.9,.48-.4,.54-.93,.48-1.51,.08-.34,.16-.68,.25-1.02,.95-3.04,.89-6.14,.63-9.26l-.18-2.03c-.4-2.25,.13-4.62-.86-6.79-.1-5.23,.33-10.36,2.87-15.1,1.26-2.35,2.78-4.44,5.04-5.96,2.27-1.53,4.78-2.17,7.22-.96,2.55,1.26,1.94,4.15,2.21,6.36,.3,2.5-.11,5.09-.22,7.64-.13,.71-.37,1.42,.12,2.09,.2,5.01,.92,9.94,1.89,14.86,1.01,5.16,1.7,10.39,2.63,15.57,1.29,7.18,4.67,13.56,8.13,19.85,3.6,6.55,7.45,12.97,11.25,19.41,1.97,3.34,4.51,6.21,7.75,8.36,1.62,1.08,3.13,2.6,5.52,1.46,1.26-.6,2.45,.48,3.48,1.2,2.99,2.09,5.91,4.26,9.12,6.04,.99,.55,1.68,.83,2.78,.25,1.52-.81,3.13-.6,4.64,.27,9.35,5.36,19.06,10.1,28.11,15.99,.52,.34,1.37,.04,1.62,.87Zm-101.44-83.89c-.1,.57-.29,1.57-.47,2.58-.94,5.21-3.13,10.08-4.04,15.3-1.25,7.1-1.57,14.19-.58,21.36,1.02,7.35,3,14.55,5.98,21.18,2.82,6.28,6.6,12.38,12,17.09,.44,.38,1.19,.79,.63,1.4-.63,.68-1.2-.02-1.7-.48-1.92-1.71-3.64-3.59-5.1-5.72-.7-1.01-1.26-1.43-1.78,.18-.59,1.79-1.78,3.25-2.84,4.8-1.14,1.68-3.89,2.96-3.54,4.62,.33,1.54,2.84,2.68,4.48,3.87,6.89,5.01,13.02,11.31,22.15,12.48,3.41,.44,3.37,.76,3.83-2.61,.05-.34,.09-.68,.12-1.02,1.4-13.37,7.93-24.03,17.54-33.02,1.19-1.11,1.14-1.49-.21-2.3-4.33-2.62-7.49-6.4-10.04-10.71-3.12-5.27-6.28-10.52-9.23-15.89-3.65-6.63-7.28-13.27-9.09-20.73-1.23-5.05-1.82-10.2-2.77-15.3-1.53-8.29-3.14-16.59-2.18-25.11,.19-1.7,.09-3.4-.23-5.1-.29-1.53-1.1-2.15-2.62-2.22-3.64-.16-5.93,2.01-7.67,4.71-3.37,5.22-4.33,11.02-3.53,17.16,.56,4.31,.98,8.64,.9,13.46Zm-14.45,25.98c.51,1.2,.08,1.81-.26,2.52-.59,1.21-1.23,2.41-1.46,3.79-.25,1.46,.06,2.29,1.73,2.31,1.87,.02,3.75,.13,5.62,.27,1.35,.1,1.81-.44,1.69-1.78-.44-4.79-.13-9.55,.98-14.23,.29-1.23,.06-1.74-1.34-1.53-3.19,.49-6.42,.78-9.6,1.33-6.19,1.08-12.38,2.24-18.09,5.03-6.07,2.97-7.1,13.35-1.57,17.31,9.13,6.53,19.12,9.31,30.26,5.99,1.03-.31,1.38-.81,1.09-1.86-.61-2.21-1.18-4.43-1.23-6.75-.03-1.52-.82-1.98-2.32-1.94-2.64,.06-5.28-.13-7.9-.58-4.82-.84-7.74-4.75-11.64-7.08-.51-.31-1.5-.69-.91-1.5,.54-.74,1.21-.05,1.75,.34,2.48,1.78,5,3.52,7.43,5.38,1.66,1.26,2.45,1.19,2.68-1.11,.22-2.23,1.27-4.13,3.08-5.9Zm44.93,71.17c-1.47,4.46,.21,8.1,5.15,10.26,.84,.37,1.59,.98,2.3,1.57,1.14,.95,1.83,1.2,2.04-.72,.5-4.44,2.15-8.49,3.99-12.56,4.59-10.14,10.27-19.41,19.12-26.42,1.11-.88,.97-1.24-.24-1.92-2.14-1.21-4.19-2.59-6.19-4.03-4.8-3.46-5.78-3.43-10.19,.62-.31,.29-.62,.59-.91,.9-8.26,8.99-14.26,19.06-15.09,32.29Zm-47.32-19.7c3.02,.27,6.01,.38,8.56-1.64,2.74-2.17,5.42-4.41,7.67-7.1,2.43-2.91,2.5-5,.38-8.18-.65-.97-1.2-1.4-2.46-.73-8.8,4.7-17.84,6.32-27.39,2.15-1.15-.5-2.24-2.35-3.67-1.15-1.18,.99-.52,2.74-.6,4.13-.24,4.06,1.15,7.18,5.14,9.04,3.97,1.85,8.09,2.92,12.38,3.49Z"/></g><g><path class="f" d="M-20.85,322.77c-.76,.1-1.66,.09-1.61,1.19,.35,7.79,1.22,15.48,3.93,22.89,4.25,11.62,11.48,20.88,21.51,28.07,3.21,2.3,6.66,3.98,10.41,5.09-.06-.78,.43-1.23,.95-1.68,2.5-2.16,5.01-4.32,7.48-6.51,4.95-4.39,10.3-8.31,15.04-12.96,2.85-2.79,3.22-6.11,2.61-9.8-1.13-6.82-3.62-13.14-6.71-19.3-4.21-8.38-9.66-15.72-17.16-21.43-2.15-1.64-4.32-2.2-7.02-.64-7.67,4.43-15.49,8.58-23.23,12.87-2,1.11-4.16,1.73-6.32,2.38-.02,0-.23,.5,.24,.31,.02,0-.08-.31-.13-.47Z"/><path d="M-19.23,321.9c9.05-5.89,18.75-10.63,28.11-15.99,1.51-.87,3.12-1.08,4.64-.27,1.1,.58,1.78,.3,2.78-.25,3.21-1.77,6.13-3.95,9.12-6.04,1.03-.72,2.22-1.81,3.48-1.2,2.38,1.15,3.9-.37,5.52-1.46,3.23-2.16,5.78-5.03,7.75-8.36,3.8-6.44,7.65-12.86,11.25-19.41,3.46-6.29,6.83-12.66,8.13-19.85,.93-5.18,1.62-10.41,2.63-15.57,.97-4.92,1.68-9.86,1.89-14.86,.49-.67,.25-1.38,.12-2.09-.1-2.55-.52-5.14-.22-7.64,.26-2.21-.34-5.1,2.21-6.36,2.45-1.21,4.95-.57,7.22,.96,2.26,1.52,3.78,3.61,5.04,5.96,2.54,4.74,2.97,9.87,2.87,15.1-.99,2.17-.46,4.54-.86,6.79l-.18,2.03c-.26,3.12-.32,6.22,.63,9.26,.08,.34,.16,.68,.25,1.02-.07,.57,0,1.11,.48,1.51,.89,1.52,.98,3.3,1.55,4.9,.7,1.98,.65,4.51,3.92,4.78,5.39,.45,10.73,1.43,16.03,2.59,4.03,.88,7.95,2,11.55,3.95,6.15,3.34,7.9,12.33,3.32,17.73-1.48,1.75-1.48,3.23-1.29,5.26,.44,4.75,1.13,9.66-2.88,13.5-.49,.24-.9,.71-1.53,.6-.13-.42-.18-.84,.16-1.19,3.79-4.02,3.09-8.91,2.67-13.74-.15-1.71-1.09-1.07-1.93-.59-3.84,2.2-7.79,4.14-12.14,5.12-5.2,1.16-10.35,.5-15.42-.74-1.88-.46-2.8,.06-2.99,1.81-.23,2.12-2.23,3.46-2.2,5.77,.01,1.31,.21,2.05,1.36,2.55,5.89,2.57,11.84,4.91,18.48,4.16,2.88-.33,5.61-1.26,8.2-2.48,1.29-.61,2.48-.99,3.86-.71,0,1.2,.98,.74,1.58,.92,.09,.59,.18,1.18,.27,1.77,.98,6.35-.5,11.23-6.7,13.45-1.05,.37-1.35,1.25-1.54,2.17-1.12,5.26-4.83,8.02-9.61,9.28-2.43,.64-5.2,1.72-7.71-.2,2.7-.65,5.47-.9,8.16-1.68,3.49-1.01,5.86-3.19,7.73-6.14,.34-.54-.03-.79-.15-1.1-.32-.81-1.06-.4-1.56-.32-2.09,.31-4.15,.75-6.23,1.12-4.71,.83-8.99,.05-12.51-3.42-2.58-2.54-5.75-4.54-7.34-8.01-.45-.99-1.06-.47-1.43,.21-.79,1.42-1.01,2.92-.31,4.41,2.53,5.45,6.4,9.75,11.45,12.96,.89,.56,1.7,1.1,2.25,2-2.12,.14-3.8-.93-5.2-2.27-1.35-1.29-2.28-1.04-3.67-.07-5.8,4.06-10.64,9.41-17.38,12.26-1.76,.75-3.52,1.77-5.38,2.48l-1.02,.27c-1.33,.27-2.69,.44-3.98,.83-.92,.28-2.19,.43-2.24,1.73-.1,2.38-1.77,3.53-3.45,4.7-1.87,1.3-3.89,2.38-5.67,3.85-1.17,.96-1.75,1.94-1.58,3.46,.25,2.24-.7,3.97-2.27,5.57-7.51,7.67-16.37,13.79-24.13,21.17-.38,.36-.83,.64-1.33,.14-.06-.78,.43-1.23,.95-1.68,2.5-2.16,5.01-4.32,7.48-6.51,4.95-4.39,10.3-8.31,15.04-12.96,2.85-2.79,3.22-6.11,2.61-9.8-1.13-6.82-3.62-13.14-6.71-19.3-4.21-8.38-9.66-15.72-17.16-21.43-2.15-1.64-4.32-2.2-7.02-.64-7.67,4.43-15.49,8.58-23.23,12.87-2,1.11-4.16,1.73-6.32,2.38-.02,0-.23,.5,.24,.31,.02,0-.08-.31-.13-.47,.24-.82,1.09-.53,1.62-.87Zm100.73-96.48c.8-6.14-.15-11.94-3.53-17.16-1.74-2.7-4.03-4.87-7.67-4.71-1.51,.07-2.33,.69-2.62,2.22-.32,1.7-.42,3.4-.23,5.1,.95,8.52-.65,16.82-2.18,25.11-.94,5.1-1.54,10.25-2.77,15.3-1.81,7.46-5.44,14.1-9.09,20.73-2.95,5.36-6.11,10.62-9.23,15.89-2.55,4.31-5.71,8.09-10.04,10.71-1.35,.82-1.4,1.19-.21,2.3,9.61,8.99,16.14,19.65,17.54,33.02,.04,.34,.08,.68,.12,1.02,.46,3.37,.42,3.05,3.83,2.61,9.12-1.18,15.26-7.47,22.15-12.48,1.64-1.19,4.15-2.33,4.48-3.87,.36-1.67-2.39-2.95-3.54-4.62-1.06-1.55-2.25-3.01-2.84-4.8-.53-1.61-1.09-1.19-1.78-.18-1.46,2.12-3.18,4.01-5.1,5.72-.51,.45-1.07,1.16-1.7,.48-.56-.6,.19-1.02,.63-1.4,5.4-4.71,9.18-10.81,12-17.09,2.98-6.63,4.96-13.83,5.98-21.18,.99-7.17,.67-14.26-.58-21.36-.92-5.22-3.11-10.09-4.04-15.3-.18-1.01-.37-2.01-.47-2.58-.07-4.81,.34-9.15,.9-13.46Zm16.63,45.34c.23,2.29,1.02,2.37,2.68,1.11,2.43-1.85,4.95-3.59,7.43-5.38,.54-.39,1.2-1.09,1.75-.34,.59,.81-.4,1.19-.91,1.5-3.89,2.33-6.81,6.24-11.64,7.08-2.62,.45-5.26,.64-7.9,.58-1.5-.04-2.29,.42-2.32,1.94-.05,2.32-.61,4.54-1.23,6.75-.29,1.05,.06,1.55,1.09,1.86,11.14,3.32,21.13,.55,30.26-5.99,5.53-3.96,4.5-14.34-1.57-17.31-5.71-2.79-11.9-3.95-18.09-5.03-3.18-.56-6.41-.84-9.6-1.33-1.41-.22-1.64,.29-1.34,1.53,1.12,4.69,1.43,9.44,.98,14.23-.12,1.34,.33,1.88,1.69,1.78,1.87-.14,3.75-.25,5.62-.27,1.67-.02,1.98-.85,1.73-2.31-.23-1.38-.88-2.58-1.46-3.79-.35-.71-.77-1.32-.26-2.52,1.82,1.77,2.86,3.68,3.08,5.9Zm-63.1,32.97c-.29-.31-.6-.61-.91-.9-4.41-4.05-5.38-4.08-10.19-.62-2,1.44-4.05,2.82-6.19,4.03-1.2,.68-1.35,1.04-.24,1.92,8.86,7,14.53,16.28,19.12,26.42,1.84,4.07,3.49,8.12,3.99,12.56,.22,1.91,.9,1.67,2.04,.72,.71-.59,1.46-1.21,2.3-1.57,4.94-2.16,6.62-5.8,5.15-10.26-.83-13.23-6.83-23.3-15.09-32.29Zm74.79,9.11c3.99-1.86,5.37-4.98,5.14-9.04-.08-1.39,.59-3.14-.6-4.13-1.44-1.2-2.52,.65-3.67,1.15-9.55,4.18-18.59,2.56-27.39-2.15-1.27-.68-1.81-.25-2.46,.73-2.12,3.18-2.06,5.27,.38,8.18,2.25,2.7,4.94,4.93,7.67,7.1,2.55,2.02,5.54,1.91,8.56,1.64,4.29-.57,8.41-1.64,12.38-3.49Z"/></g></g></g></svg>