<?xml version="1.0" encoding="UTF-8"?><svg xmlns="http://www.w3.org/2000/svg" xmlns:xlink="http://www.w3.org/1999/xlink" viewBox="0 0 400 356"><defs><style>.d{fill:#fff;}.e{fill:#557cbd;}.f{clip-path:url(#c);}.g{fill:none;}.h{fill:#093974;}</style><clipPath id="c"><rect class="g" x="0" y="0" width="400" height="356"/></clipPath></defs><g id="a"/><g id="b"><g class="f"><rect class="d" x="0" y="0" width="400" height="356"/><g><path class="d" d="M263.28,339.4l-.54,.05,.1,.38c.14-.13,.28-.27,.43-.43Z"/><rect class="e" x="243.61" y="294.27" width="4.83" height="5.53"/><path class="e" d="M245.36,296.8c.17-.62,.44-1.24,.56-1.87-.14-9.03-.99-20.18-.8-28.35,.22-9.7,.49-19.4,.78-29.1,.02-.77,.33-1.53,.5-2.29,.29,.03,.58,.07,.86,.1,0,.69,.07,1.38,0,2.06-1.36,12-.94,24.01-.6,36.05,.2,7-.38,14.03-.67,21.04,0,.17-.04,.33-.07,.5,.02,1.06,.02,2.09,.02,3.09,3.43-1.04,7.18-1.03,11.12-.38,3.21,.53,6.32,1.35,8.6,3.89,.58,.64,.92,1.5,1.09,2.59-4.44-5.41-10.48-5.43-16.53-5.55-1.61-.03-3.01,.25-4.3,.73,0,.04-.02,.04-.04,.01-4.29,1.63-7.13,5.6-10.71,8.65,8.98-1.56,16.31,1.44,22.21,7.85,5.61,6.09,10.54,12.64,9.73,21.68,6.34-1.25,12.02-8.3,12.04-15.2,.01-5.83-.4-11.67-.08-17.48,.59-10.58,1.63-21.14,2.42-31.71,1.27-16.98,1.4-33.9-2.94-50.55-.45-1.73-1.05-3.43-1.65-5.11-2.84-7.97-7.9-13.57-16.42-15.66-8.34-2.04-16.63-4.24-25.19-6.44-.94,2.34-1.75,4.64-2.79,6.84-5.7,12.07-14.08,21.94-24.77,29.87-3.41,2.53-3.93,2.6-7.17-.27-4.8-4.26-9.35-8.79-13.99-13.23-.97-.93-1.84-1.95-3.29-3.49-1.61,2.33-3.26,4.25-4.4,6.45-4.11,7.96-6.43,16.53-8.4,25.22-3.7,16.31-7.43,32.62-11.23,48.91-.36,1.53-.1,2.16,1.32,2.92,1.61,.86,3.08,2.14,4.3,3.51,3.67,4.12,6.23,8.68,11.14,11.53,.08,.05,2.63,1.96,4.27,2.87,11.26-1.19,22.91-3.22,34.15-4.54,5.11-.6,10.18-1.58,15.21-2.66,1.58-.34,3.07-1.4,4.42-2.39,1.38-1,2.64-2.22,3.77-3.51,2.26-2.58,4.79-4.22,7.53-5.15"/><path d="M183.29,215.05c-1.61,2.33-3.26,4.25-4.4,6.45-4.11,7.96-6.43,16.53-8.4,25.22-3.7,16.31-7.43,32.62-11.23,48.91-.36,1.53-.1,2.16,1.32,2.92,1.61,.86,3.08,2.14,4.3,3.51,3.67,4.12,6.88,8.68,11.79,11.53,.13,.07,.11,.39,.35,1.31-1.35-.7-2.43-.99-3.12-1.67-2.98-2.92-5.9-5.91-8.74-8.96-1.92-2.06-3.62-4.36-6.74-5.29-1.2,4.35-2.34,8.57-3.55,12.78-.62,2.15-1.22,4.32-2.08,6.38-.74,1.77-.39,3.06,.83,4.42,4.39,4.93,9.68,8.63,15.48,11.66,.57,.3,1.08,.69,1.36,1.43-7.38-2.77-13.54-7.32-18.88-13.45-1.93,3.95-5.4,5.91-8.98,7.79-.61,.32-1.17,1.34-1.2,2.07-.62,12.91-1.15,25.82-1.71,38.73-.04,.81-.21,1.61-.32,2.41l-.8-.07c.59-13.93,1.18-27.87,1.78-42.32-1.57,.68-2.65,1.09-3.67,1.6-4.12,2.09-6.49,1.92-9.61-1.47-2.62-2.85-4.82-6.07-7.2-9.13-.23-.29-.42-.63-.68-.89-7.73-7.85-7.79-17.11-4.35-26.64,1.67-4.63,2.05-9.25,2.21-14.01,.46-14.34,.83-28.68,1.43-43.01,.33-7.88,4.17-14.35,8.96-20.35,6.35-7.96,15.1-11.92,24.45-14.96,4.12-1.34,8.24-2.66,12.3-4.16,3.35-1.24,5.73-3.64,8.09-6.39,4.92-5.72,3.63-12.08,2.97-18.48-.4-3.94-.95-7.84-2.81-11.44-.4-.77-.44-1.73-.28-2.76,2.49,6.23,5.64,11.95,10.9,16.47,.41-.5,.86-.89,1.12-1.38,1.68-3.27,4.43-4.46,7.96-4.26,.89,.05,1.79,.02,2.69,.02,6.21-.03,12.55-.58,17.42,4.92,5.63-8.18,6.69-17.19,7.55-25.51,1.31-.8,2.36-1.12,2.93-1.83,2.33-2.94,2.85-6.34,2.04-9.95-.39-1.74-1.63-2.39-3.37-2.18-.58,.07-1.17,.07-2.19,.13,2.25-2.14,5.45-1.33,6.47,1.13,1.65,4.01-.26,10.61-3.7,13.24-.66,.5-1.26,1.46-1.35,2.27-.81,7.25-2.31,14.28-5.67,20.84-.44,.87-.18,2.17-.04,3.25,.91,7.3,4.68,12.7,11.59,15.19,6.57,2.37,13.41,4.02,20.13,5.96,6.3,1.81,12.67,3.41,18.91,5.43,4.8,1.55,7.86,5.27,10.18,9.6,3.95,7.37,5.57,15.4,6.54,23.6,1.99,16.73,.81,33.36-.89,50.06-1.15,11.26-1.34,22.7-.88,34.01,.5,12.27-8.22,17.96-15.82,20.21-1.78,.53-3.94-.24-5.93-.45-1.67-.18-3.37-.76-5-.61-17.36,1.59-34.75,2.35-52.16,1.25-9.16-.58-18.28-1.76-27.41-2.69-.41-.04-.8-.27-1.21-.97,.68-.04,1.37-.18,2.03-.09,13.56,1.9,27.17,2.93,40.87,2.99,16.16,.07,32.25-.93,48.3-2.84,1.48-.18,2.01-.87,1.87-2.17-.12-1.18-.27-2.39-.67-3.5-2.75-7.68-7.43-13.91-14.18-18.55-4.87-3.34-10.26-3.72-15.9-2.85-14.67,2.26-29.35,4.53-44.04,6.71-2.95,.44-5.95,.5-8.94,.65-.79,.04-1.6-.26-3.06-.52,.89-.5,1.11-.72,1.35-.74,11.28-1.19,22.57-2.26,33.84-3.59,5.11-.6,10.18-1.58,15.21-2.66,1.58-.34,3.07-1.4,4.42-2.39,1.38-1,2.64-2.22,3.77-3.51,5.22-5.96,11.89-6.92,19.21-5.71,3.21,.53,6.32,1.35,8.6,3.89,.58,.64,.92,1.5,1.09,2.59-4.44-5.41-10.48-5.43-16.53-5.55-7-.13-10.39,5.43-15.05,9.4,8.98-1.56,16.31,1.44,22.21,7.85,5.61,6.09,10.54,12.64,9.73,21.68,6.34-1.25,12.02-8.3,12.04-15.2,.01-5.83-.4-11.67-.08-17.48,.59-10.58,1.63-21.14,2.42-31.71,1.27-16.98,1.4-33.9-2.94-50.55-.45-1.73-1.05-3.43-1.65-5.11-2.84-7.97-7.9-13.57-16.42-15.66-8.34-2.04-16.63-4.24-25.19-6.44-.94,2.34-1.75,4.64-2.79,6.84-5.7,12.07-14.08,21.94-24.77,29.87-3.41,2.53-3.93,2.6-7.17-.27-4.8-4.26-9.35-8.79-13.99-13.23-.97-.93-1.84-1.95-3.29-3.49Zm2.76-30.63l-.47-.9c4.86,.58,4.89-3.34,6.31-5.96,.18-.33,.3-.71,.56-.96,.3-.29,.72-.66,1.08-.65,4.6,.13,9.2,.31,13.79,.51,1.11,.05,2.22,.42,3.3,.31,.97-.09,1.92-1.07,.78-1.78-2.62-1.62-5.36-3.54-8.28-4.08-3.91-.73-8.05-.47-12.06-.22-1.63,.1-3.79,.86-4.67,2.08-4.86,6.71-9.82,13.39-13.96,20.54-16.48,28.5-32.66,57.16-48.95,85.77-3.51,6.16-7.32,12.18-8.69,19.29-1.2,6.18-1.93,12.29,2.28,17.81,2.54,3.32,4.91,6.77,7.47,10.08,1.32,1.71,2.78,3.33,4.36,4.8,1.94,1.8,4.16,2.1,6.59,.72,1.48-.85,3.07-1.56,4.67-2.14,6.36-2.29,10.16-6.53,12.16-13.17,6.1-20.25,10.36-40.94,15.07-61.52,2.33-10.19,4.4-20.44,8.52-30.11,1.77-4.16,4.12-7.84,7.32-11.13,2.4-2.46,4.03-5.66,6.01-8.53,.32-.47,.56-1.27,.97-1.38,3.65-.92,7.33-1.72,10.36-2.41,.69,1.65,1.06,2.95,1.75,4.05,.35,.56,1.63,1.21,1.86,1.03,.66-.52,1.36-1.45,1.37-2.22,0-1.31-.45-2.63-.82-3.92-1.2-4.27-2.84-5.37-7.16-4.77-2.81,.39-5.6,.89-8.41,1.31-.56,.08-1.15,.01-1.73,.01l-.05-.88c4.86-.47,9.58-2.59,14.57-1.2,1.27,.36,2.46,1.88,3.15,3.16,.79,1.47,.86,3.32,1.5,4.89,.29,.71,1.19,1.18,1.82,1.76,.44-.72,1.32-1.5,1.24-2.16-.28-2.44-.75-4.88-1.39-7.25-1.01-3.69-3.97-6-7.73-5.87-3.87,.13-7.73,.58-11.59,.87-.58,.04-1.16,0-1.74,0l-.08-.67c.74-.2,1.47-.51,2.22-.58,3.57-.32,7.14-.73,10.71-.82,5.08-.12,8.41,2.64,9.56,7.64,.42,1.83,.76,3.69,1.14,5.53,.73-.88,1.3-1.83,1.14-2.65-.6-3.04-1.15-6.14-2.25-9.01-1.26-3.28-4.05-4.82-7.61-4.92-2.24-.06-4.47-.29-6.71-.34-3.08-.06-6.17-.02-9.25-.02Zm-67.95,100.62l.43,.11c.2-.29,.43-.57,.6-.88,13.23-23.14,26.45-46.28,39.66-69.43,2.74-4.8,5.43-9.62,8.1-14.46,.28-.5,.18-1.21,.25-1.83-.48-.03-1-.2-1.42-.06-6.42,2.21-12.86,4.4-19.24,6.71-5.31,1.92-10.23,4.57-14.31,8.56-7.7,7.52-12.84,16.16-12.69,27.4,.08,6.19-.48,12.39-.68,18.58-.27,8.43-.47,16.86-.7,25.3Zm66.47-69.9c5.67,5.27,11.62,10.79,17.55,16.34,1.38,1.29,2.57,1.21,4.11,.14,9.6-6.71,16.99-15.41,22.86-25.42,2.01-3.43,3.36-7.24,5.14-11.16-10.85-2.89-19.42-7.61-20.56-19.96-.75,1.08-1.09,2.04-1.76,2.45-2.46,1.51-5.05,2.8-7.55,4.25-.55,.32-.91,.98-1.7,1.87,6.44,.9,8.5,5.15,9.77,10.08,.22,.86,.37,1.75,.53,2.63,.46,2.64-.11,5.01-1.78,7.13-.81,1.02-1.21,2.38-2.96,2.32-.72-.02-1.6,.44-2.16,.95-1.64,1.48-3.18,1.45-4.56-.37-.58-.77-.93-1.71-1.54-2.46-.35-.43-1.04-.94-1.48-.86-2.35,.42-4.67,.97-6.97,1.6-.53,.15-1.03,.76-1.35,1.27-1.76,2.83-3.47,5.69-5.58,9.18Zm-2.24-38.64c-2.15-2.48-4.11-4.75-6.25-7.22,.4,4.89,.78,9.47,1.2,14.48,1.85-2.66,3.45-4.95,5.06-7.26Zm26.39,1.79c-4.31-2.16-8.37-1.25-12.36-1.25q-3.4,0-4.24,3.45c1.79,.95,3.27,1.13,4.74-.83,1.93-2.58,5.17-3.42,6.45,.83,.03,.1,.23,.15,.58,.35,1.43-.75,2.97-1.57,4.83-2.55Zm-13.4,4.82c2.2,.17,3.74,.36,5.27,.35,.5,0,1.45-.61,1.42-.86-.12-1.2-.41-2.42-.89-3.52-.11-.24-1.5-.29-1.9,.05-1.27,1.07-2.35,2.36-3.9,3.98Zm69.73,154.54c-1.75,.18-3.19,.32-5.21,.53,3.04,1.16,3.67,1.09,5.21-.53Z"/><path d="M247.26,235.29c0,.69,.07,1.38,0,2.06-1.36,12-.94,24.01-.6,36.05,.2,7-.38,14.03-.67,21.04-.03,.8-.41,1.58-.63,2.36l-.67-.06c-.05-.51-.14-1.01-.14-1.52,.18-9.55,.34-19.1,.56-28.65,.22-9.7,.49-19.4,.78-29.1,.02-.77,.33-1.53,.5-2.29l.86,.1Z"/><path d="M165.1,112.21c.11-5.41,2.43-9.6,7.01-12.5,3.82-2.42,7.89-4.14,12.45-4.68,4.22-.5,8.4-1.22,13.38-1.95-1.81,.92-3.05,1.92-4.44,2.18-3.37,.62-6.81,.8-10.2,1.34-4.9,.79-9.21,2.92-12.92,6.23-2.21,1.97-3.32,4.51-3.83,7.4-.12,.7-1,1.27-1.52,1.9l.07,.08Z"/><path d="M220.38,133.12c0-.68-.09-1.37,.01-2.03,.56-3.75,1.09-7.52,1.77-11.25,1.07-5.81-.92-10.53-4.94-14.58-1.17-1.18-2.44-2.27-3.66-3.41l.33-.59c.5,.18,1.09,.24,1.49,.55,5.87,4.62,9.43,10.29,8.15,18.14-.65,3.97-1.26,7.94-1.92,11.9-.08,.48-.38,.92-.57,1.37l-.65-.11Z"/><path d="M169.63,140.16c.24-.47,.42-.98,.73-1.39,2.48-3.22,3.72-6.86,4.27-10.88,.56-4.07,1.42-8.12,4.25-11.35,.64-.73,1.63-1.16,2.46-1.73l.51,.67c-.88,1.05-1.82,2.05-2.61,3.16-2.53,3.53-2.68,7.8-3.77,11.8-.85,3.16-2.61,6.08-4.03,9.07-.21,.45-.81,.72-1.22,1.07l-.59-.44Z"/><path d="M260.52,344.37v29.27h-.6v-29.28h.6Z"/><path d="M216.57,126.38c-.33,.23-.68,.68-.98,.65-2.93-.27-5.99-.65-7.72-3.32-1.86-2.87-4.46-4.25-7.58-5.07-1.74-.45-3.45-1.02-5.17-1.54l.07-.59c.36-.12,.77-.42,1.06-.33,4.82,1.39,9.9,2.04,13.09,6.89,.94,1.42,3.59,1.74,5.48,2.5,.5,.2,1.09,.15,1.64,.22l.11,.58Z"/><path d="M163.54,116.35c-2.89,8.03,.97,14.84,2.89,22.45-4.7-3.69-6.85-20.26-2.89-22.45Z"/><path d="M170.74,154.72c-2.68,.48-4.76-.5-6.44-2.26-2.39-2.51-3.29-5.66-3.12-9.03,.16-3.2,3.34-4.89,6.26-3.15-.69,.16-1.12,.33-1.56,.35-2.77,.11-3.87,1.34-3.62,4.11,.45,5.12,2.62,7.77,7.68,9.42,.3,.1,.53,.37,.8,.56Z"/><path d="M214.39,98.25c-1.46,1.78-2.91,2.21-4.32,1.14-3.89-2.95-8-4.18-12.71-2.23-.21,.09-.53-.11-1.08-.74,.72-.41,1.38-1.02,2.15-1.21,3.89-.93,7.53-.23,10.85,2,2.3,1.54,2.28,1.57,5.11,1.03Z"/><path d="M198.92,143.4c-.23,.81-.47,1.63-.69,2.44-.68,2.45-.64,4.71,.83,7.02,.8,1.26,.92,3.04,1.02,4.61,.04,.62-.8,1.3-1.55,1.72,.17-1.32,.66-2.7,.41-3.93-.27-1.32-1.31-2.47-1.87-3.76-1.05-2.42-.34-6.42,1.85-8.11Z"/><path d="M195.4,113.39c-4.64,.91-8.84,2.52-11.57,7.36,.08-5,6.77-9.15,11.57-7.36Z"/><path d="M192.2,138.92c-1.33,.43-2.67,1.22-3.99,1.21-2.88-.02-5.77-.45-8.65-.71l-.1-.58c1.42-.16,2.91-.68,4.25-.42,2.73,.55,5.35,1.14,7.93-.44,.05-.03,.23,.15,.35,.23l.22,.71Z"/><path d="M202.03,137.21c4.13,2.29,7.63-1.7,11.85-1.1-3.2,2.68-9.35,3.35-11.85,1.1Z"/><path d="M204.97,166.62c-3.45-1.27-6.82-.89-10.16,.5,2.02-2.84,7.34-3.12,10.16-.5Z"/><path d="M186.9,147.39l.93-1.52c-.31-.82-.87-1.37-1.51-1.37-1.54,0-1.77,1.64-1.77,3.23,0,1.52,.78,2.54,1.77,2.54,.77,0,1.42-.8,1.67-1.9l-1.09-.98Z"/><path d="M215.64,127.58c2.35,2.29,3.29,5.22,2.18,7.33-.97-2.46-1.88-4.77-2.8-7.08l.61-.24Z"/><path d="M172.88,119.46c-1.87,.6-5.31-1.62-5.39-3.22-.01-.24,.17-.6,.36-.71,.2-.1,.61-.05,.79,.1,1.37,1.2,2.71,2.43,4.24,3.82Z"/><path d="M220.82,144.32c-1.24-2.58-.51-5.01,1.46-5.44-.47,1.73-.94,3.5-1.46,5.44Z"/><path d="M165.61,146c2.31-.02,3.88,1.63,3.85,3.33-1.03-.89-2.37-2.05-3.85-3.33Z"/><path d="M208.88,145.36l.93-1.52c-.31-.82-.87-1.37-1.51-1.37-1.54,0-1.77,1.64-1.77,3.23s.78,2.54,1.77,2.54c.77,0,1.42-.8,1.67-1.9l-1.09-.98Z"/><g><path d="M127.07,120.96c-.44-.3-1.06-.5-1.3-.92-1.13-2.04,.04-5.74,2.03-6.67,2.28-1.07,5.67,.23,6.52,2.68,.43,1.24,.58,2.63,.57,3.95,0,2.44,.29,4.64,2.77,5.88,.16,.08,.26,.35,.33,.55,.04,.12-.02,.28-.04,.43-1.8,.32-3.82-1.21-4.22-3.45-.29-1.61-.2-3.27-.4-4.9-.11-.87-.2-2.13-.76-2.46-1.17-.71-2.83-1.52-3.91-1.16-.88,.29-1.36,2.19-1.73,3.46-.17,.59,.32,1.39,.51,2.09l-.38,.52Z"/><path d="M139.6,127.15l-.7,1.37s1.31,0,1.51,0,0-1.37,0-1.37h-.8Z"/></g><g><path d="M251.36,114.62c1.52-1.09,4.43-1.17,6.01-.07,1.93,1.35,2.03,3.3,1.64,5.4-.41,2.2-1.87,3.08-3.94,3.24-.52,.04-1.05,.14-1.56,.09-2.92-.29-5.38,.63-7.21,3.22l-.54-.52c.09-.47,.01-1.21,.29-1.38,1.6-.98,3.2-2.01,4.95-2.65,1.13-.41,2.5-.16,3.77-.21,2.21-.1,2.93-1.55,2.93-3.45,0-2-1.21-2.94-3.14-3.01-1.04-.04-2.09,0-3.14,0l-.06-.67Z"/><path d="M245.76,127.8s.25-.69-.56-.69-1.01,.34-1.01,.34v1.19s.49,.17,.8,.37,.76-1.22,.76-1.22Z"/></g><g><path d="M170.72,65.35c-1.02-2.39-.16-4.22,1.12-5.86,1.01-1.29,2.25-2.39,3.28-3.67,1.4-1.74,1.26-3.22-.23-4.79-1.48-1.56-2.95-1.1-4.38,0-.76,.59-1.36,1.39-2.11,1.99-.25,.2-.76,.07-1.15,.1,.02-.34-.09-.77,.08-.99,1.43-1.88,3.06-3.52,5.65-3.54,2.08-.02,3.27,1.32,4.12,2.98,1.11,2.18,.32,4.07-1.16,5.74-2.13,2.39-4.78,4.43-5.22,8.06Z"/><path d="M171.5,68.13s.25-.69-.56-.69-1.01,.34-1.01,.34v1.19s.49,.17,.8,.37,.76-1.22,.76-1.22Z"/></g><path class="e" d="M119.13,284.26c13.23-23.14,26.45-46.28,39.66-69.43,2.74-4.8,5.43-9.62,8.1-14.46,.28-.5,.18-1.21,.25-1.83-.48-.03-1-.2-1.42-.06-6.42,2.21-12.86,4.4-19.24,6.71-5.31,1.92-10.23,4.57-14.31,8.56-7.7,7.52-12.84,16.16-12.69,27.4,.08,6.19-.48,12.39-.68,18.58-.27,8.43-.47,16.86-.7,25.3l.43,.11c.2-.29,.43-.57,.6-.88Z"/><path class="g" d="M260.06,363.49c.14-6.38,.34-13.28,.42-19.22-.04-.26-.01-1.04,.02-1.9,0-.92,.01-1.81,.01-2.67l-.64,23.78h.18Z"/><path class="e" d="M260.49,344.28c0-.65,.02-1.28,.02-1.9-.04,.86-.06,1.64-.02,1.9Z"/><path class="e" d="M259.88,363.49l-.05,1.78,.69-1.78v-19.12s-.03-.04-.04-.09c-.08,5.94-.29,12.83-.42,19.22h-.18Z"/><path class="e" d="M260.52,339.71c0,.85,0,1.75-.01,2.67,.05-1.27,.12-2.67,.01-2.67Z"/><path class="e" d="M170,334.87c.19,.21,.35,.45,.47,.76-7.38-2.77-13.54-7.32-18.88-13.45-1.93,3.95-5.4,5.91-8.98,7.79-.61,.32-1.17,1.34-1.2,2.07-.5,10.48-.95,20.97-1.4,31.46h119.86l.64-23.78c1.15-.77,.56-.55-1.42-.77-1.67-.18-3.71-.27-5.34-.12-17.36,1.59-34.75,2.35-52.16,1.25-9.16-.58-18.28-1.76-27.41-2.69-.41-.04-.8-.27-1.21-.97,.12,0,.23-.02,.35-.03l-3.32-1.5Z"/></g><g><path class="h" d="M239.51,150.49c0-.2,.04-.33,.12-.4,.08-.07,.21-.1,.4-.1h2.13v-1.41c0-.2,.04-.33,.12-.4s.21-.1,.4-.1h2.79c.19,0,.32,.03,.4,.1,.08,.07,.12,.2,.12,.4v1.41h2.15c.19,0,.32,.03,.4,.1,.08,.07,.12,.2,.12,.4v2.35c0,.2-.04,.34-.12,.4s-.21,.1-.4,.1h-2.15v5.89c0,.39,.03,.77,.1,1.14,.07,.37,.18,.71,.34,1.02,.16,.31,.38,.6,.65,.84s.62,.44,1.04,.57c.05,.01,.12,.03,.19,.05,.07,.02,.14,.05,.21,.09,.07,.04,.12,.1,.17,.19,.05,.09,.07,.21,.07,.37v2.23c0,.24-.06,.38-.19,.43-.13,.05-.24,.06-.33,.05-.31-.04-.65-.11-1.01-.2s-.74-.23-1.11-.4c-.37-.17-.73-.39-1.08-.65-.35-.26-.68-.58-.97-.95-.29,.38-.62,.69-.97,.95-.35,.26-.72,.48-1.08,.65-.37,.17-.73,.31-1.09,.4-.36,.09-.7,.16-1,.2-.09,.01-.2,0-.33-.05-.13-.05-.19-.19-.19-.43v-2.23c0-.16,.02-.28,.07-.37,.05-.09,.1-.15,.17-.19,.07-.04,.14-.07,.21-.09,.07-.02,.14-.04,.19-.05,.42-.13,.76-.32,1.04-.57s.49-.53,.65-.84c.16-.31,.27-.66,.34-1.02,.07-.37,.1-.75,.1-1.14v-5.89h-2.13c-.19,0-.32-.03-.4-.1s-.12-.2-.12-.4v-2.35Zm7.56,6.03c0-.2,.04-.33,.12-.4,.08-.07,.21-.1,.4-.1h2.05v-6.93c0-.2,.04-.33,.12-.4,.08-.07,.21-.1,.4-.1h2.51c.19,0,.32,.03,.4,.1,.08,.07,.12,.2,.12,.4v17.68c0,.2-.04,.33-.12,.4-.08,.07-.21,.1-.4,.1h-2.51c-.19,0-.32-.03-.4-.1-.08-.07-.12-.2-.12-.4v-7.42h-2.05c-.19,0-.32-.03-.4-.1-.08-.07-.12-.2-.12-.4v-2.33Zm7.44,10.75c-.19,0-.32-.03-.4-.1-.08-.07-.12-.2-.12-.4v-17.68c0-.2,.04-.33,.12-.4s.21-.1,.4-.1h2.51c.19,0,.32,.03,.4,.1,.08,.07,.12,.2,.12,.4v17.68c0,.2-.04,.33-.12,.4-.08,.07-.21,.1-.4,.1h-2.51Z"/><path class="h" d="M260.03,149.08c0-.2,.04-.33,.12-.4s.21-.1,.4-.1h5.12c.51,0,.94,.06,1.31,.18s.66,.32,.89,.59c.23,.27,.4,.63,.5,1.06,.1,.44,.14,.97,.13,1.6v.18h1.23v-3.11c0-.2,.04-.33,.12-.4,.08-.07,.21-.1,.4-.1h2.51c.19,0,.32,.03,.4,.1,.08,.07,.12,.2,.12,.4v17.68c0,.2-.04,.33-.12,.4-.08,.07-.21,.1-.4,.1h-2.51c-.19,0-.32-.03-.4-.1-.08-.07-.12-.2-.12-.4v-4.6h-2.27c-.11,.71-.22,1.41-.35,2.09-.13,.68-.26,1.35-.41,2.01-.04,.2-.09,.34-.15,.43-.06,.09-.18,.11-.37,.07l-2.59-.54c-.19-.04-.33-.09-.44-.16-.11-.07-.12-.26-.04-.58,.25-1.02,.49-2.09,.69-3.23,.21-1.13,.39-2.25,.54-3.35,.15-1.1,.27-2.15,.36-3.15,.09-1,.13-1.87,.13-2.62,0-.51-.07-.84-.22-.98-.15-.15-.4-.22-.74-.22h-3.32c-.19,0-.32-.03-.4-.1s-.12-.2-.12-.4v-2.35Zm8.28,6.45c-.05,.52-.11,1.06-.17,1.62-.06,.56-.12,1.12-.19,1.68h1.79v-3.3h-1.43Zm6.29,11.74c-.19,0-.32-.03-.4-.1-.08-.07-.12-.2-.12-.4v-17.68c0-.2,.04-.33,.12-.4s.21-.1,.4-.1h2.51c.19,0,.32,.03,.4,.1,.08,.07,.12,.2,.12,.4v17.68c0,.2-.04,.33-.12,.4-.08,.07-.21,.1-.4,.1h-2.51Z"/><path class="h" d="M291.43,158.43c-1.18,0-2.15-.15-2.9-.46s-1.36-.7-1.8-1.19c-.44-.48-.75-1.02-.92-1.61-.17-.59-.26-1.17-.26-1.73s.09-1.14,.26-1.72c.17-.58,.49-1.12,.93-1.6,.45-.48,1.05-.88,1.81-1.19s1.72-.46,2.88-.46c.87,0,1.63,.09,2.27,.26,.64,.17,1.19,.41,1.64,.71,.45,.3,.81,.65,1.08,1.04s.49,.8,.63,1.23h2.07v-2.63c0-.2,.04-.33,.12-.4s.21-.1,.4-.1h2.81c.19,0,.32,.03,.4,.1s.12,.2,.12,.4v8.84c0,.2-.04,.33-.12,.4-.08,.07-.21,.1-.4,.1h-2.81c-.19,0-.32-.03-.4-.1-.08-.07-.12-.2-.12-.4v-2.87h-2.05c-.13,.44-.33,.87-.6,1.28-.27,.41-.63,.77-1.08,1.07-.45,.31-1,.56-1.65,.74-.65,.19-1.42,.28-2.32,.28Zm3.66,6.85c0,.84-.18,1.45-.54,1.83-.36,.37-.9,.56-1.63,.56h-4.08c-.72,0-1.27-.19-1.63-.56-.36-.38-.54-.98-.54-1.83v-5.55c0-.2,.04-.33,.12-.4,.08-.07,.21-.1,.4-.1h2.31c.19,0,.32,.03,.4,.1,.08,.07,.12,.2,.12,.4v1h1.71v-1c0-.2,.04-.33,.12-.4,.08-.07,.21-.1,.4-.1h2.31c.19,0,.32,.03,.4,.1,.08,.07,.12,.2,.12,.4v5.55Zm-3.66-10.13c.24,0,.49-.02,.74-.07,.25-.05,.49-.14,.7-.27,.21-.13,.39-.31,.52-.53s.2-.51,.2-.85-.07-.61-.2-.83-.31-.4-.52-.53c-.21-.13-.45-.22-.7-.27s-.5-.07-.74-.07-.49,.02-.74,.07c-.25,.05-.49,.14-.7,.27s-.39,.31-.52,.53-.2,.5-.2,.83,.07,.63,.2,.85,.31,.4,.52,.53,.45,.22,.7,.27c.25,.05,.5,.07,.74,.07Zm-.28,9.77c.23,0,.38-.04,.46-.13s.12-.26,.12-.51v-.88h-1.71v.88c0,.25,.04,.43,.12,.51s.23,.13,.46,.13h.54Zm10.17-5.69c.2,0,.33,.05,.39,.14,.06,.09,.09,.21,.09,.36,0,.82,.04,1.51,.12,2.07s.2,1.02,.36,1.39c.16,.36,.37,.64,.63,.82,.26,.19,.59,.31,.97,.38,.04,.01,.09,.02,.16,.03,.07,0,.13,.03,.19,.07,.06,.04,.11,.1,.15,.18s.06,.19,.06,.34v2.07c0,.15-.02,.26-.07,.34s-.11,.14-.18,.18c-.07,.04-.15,.06-.22,.06h-.19c-.42-.03-.82-.1-1.21-.23-.39-.13-.75-.29-1.08-.49-.33-.2-.62-.44-.87-.7-.25-.27-.45-.56-.58-.86-.15,.31-.34,.6-.59,.86-.25,.27-.54,.5-.86,.7-.33,.2-.69,.37-1.07,.49-.39,.13-.79,.2-1.21,.23h-.19c-.07,0-.15-.02-.22-.06-.07-.04-.13-.1-.18-.18s-.07-.19-.07-.34v-2.07c0-.15,.02-.26,.06-.34,.04-.08,.09-.14,.15-.18,.06-.04,.12-.06,.19-.07,.07,0,.12-.02,.16-.03,.38-.07,.7-.19,.96-.38,.27-.19,.48-.46,.64-.82,.16-.36,.28-.82,.36-1.39,.08-.56,.12-1.25,.12-2.07,0-.15,.03-.27,.09-.36,.06-.09,.19-.14,.39-.14h2.53Z"/><path class="h" d="M305.6,158.33c0-.2,.04-.33,.12-.4,.08-.07,.21-.1,.4-.1h16.96c.19,0,.32,.03,.4,.1,.08,.07,.12,.2,.12,.4v2.35c0,.2-.04,.34-.12,.4-.08,.07-.21,.1-.4,.1h-12.28v1.77c0,.48,.1,.84,.3,1.06,.2,.23,.57,.33,1.1,.32,.72-.01,1.49-.04,2.31-.07,.82-.03,1.65-.07,2.5-.12,.85-.05,1.7-.11,2.54-.18,.84-.07,1.66-.15,2.45-.23,.19-.03,.31,0,.38,.08,.07,.08,.11,.22,.14,.42l.2,2.33c.03,.2,0,.33-.1,.38s-.23,.09-.42,.12c-.92,.09-1.89,.18-2.9,.25-1.01,.07-2.02,.14-3.03,.19-1.01,.05-2.01,.09-2.98,.12-.98,.03-1.9,.04-2.75,.04-1.29,0-2.21-.35-2.76-1.04s-.83-1.79-.83-3.31v-2.15h-.82c-.19,0-.32-.03-.4-.1-.08-.07-.12-.2-.12-.4v-2.35Zm16.78-2.95c.03,.2,0,.33-.1,.38s-.23,.09-.42,.12c-.92,.09-1.88,.17-2.86,.24s-1.96,.12-2.93,.17c-.97,.05-1.93,.08-2.88,.1s-1.86,.03-2.71,.03c-1.29,0-2.21-.34-2.76-1.04-.56-.69-.83-1.79-.83-3.31v-2.99c0-.2,.04-.33,.12-.4,.08-.07,.21-.1,.4-.1h2.81c.19,0,.32,.03,.4,.1,.08,.07,.12,.2,.12,.4v2.61c0,.48,.1,.84,.3,1.06,.2,.23,.57,.33,1.11,.32,1.46-.03,3.02-.08,4.67-.16s3.27-.21,4.85-.38c.19-.03,.32,0,.38,.08,.07,.08,.11,.22,.14,.42l.2,2.33Z"/><path class="h" d="M272.39,188.33h-5.81l-.52,2.51c-.07,.27-.15,.44-.24,.51-.09,.07-.29,.11-.58,.11h-2.39c-.28,0-.47-.05-.55-.15-.09-.1-.1-.29-.03-.57l3.56-16.34c.03-.12,.06-.24,.1-.35s.1-.22,.18-.31c.08-.09,.2-.17,.35-.22,.15-.05,.35-.08,.59-.08h4.88c.24,0,.44,.03,.59,.08,.15,.05,.27,.13,.35,.22,.08,.09,.14,.2,.18,.31s.07,.23,.1,.35l3.56,16.34c.07,.28,.06,.47-.03,.57-.09,.1-.27,.15-.55,.15h-2.39c-.29,0-.49-.04-.58-.11-.09-.07-.17-.25-.24-.51l-.52-2.51Zm-5.1-3.36h4.4l-1.71-8.22h-.99l-1.71,8.22Z"/><path class="h" d="M278.72,191.46c-.19,0-.32-.04-.4-.11-.08-.07-.09-.21-.02-.39l5.02-17.02c.07-.19,.14-.32,.22-.39,.08-.07,.21-.11,.4-.11h2.55c.19,0,.32,.04,.4,.11s.09,.2,.02,.39l-5.02,17.02c-.07,.19-.14,.32-.22,.39-.08,.07-.21,.11-.4,.11h-2.55Z"/><path class="h" d="M300.31,176.57c-.03,.24-.08,.4-.17,.46-.09,.07-.26,.09-.53,.06-.27-.03-.6-.06-.99-.1-.4-.04-.81-.08-1.25-.11-.44-.03-.86-.06-1.27-.09-.41-.03-.75-.04-1.04-.04-.96,0-1.67,.14-2.1,.42-.44,.28-.65,.65-.65,1.1,0,.32,.05,.59,.14,.8,.09,.21,.27,.41,.53,.57,.26,.17,.62,.33,1.09,.5,.46,.17,1.07,.37,1.82,.61,.96,.31,1.77,.62,2.41,.92,.64,.31,1.16,.67,1.55,1.08,.39,.41,.66,.89,.82,1.45s.24,1.22,.24,2c0,1.85-.54,3.23-1.62,4.13-1.08,.9-2.65,1.36-4.71,1.36-.39,0-.83-.03-1.32-.08-.49-.05-.97-.11-1.44-.18s-.9-.14-1.31-.21c-.4-.07-.7-.13-.9-.17s-.33-.09-.4-.16c-.07-.07-.09-.21-.06-.42l.28-2.33c.03-.15,.07-.25,.12-.3s.17-.07,.36-.04c.23,.03,.53,.06,.9,.1,.38,.04,.78,.08,1.21,.12s.87,.08,1.32,.11c.45,.03,.85,.05,1.22,.05,.96,0,1.65-.15,2.06-.44,.41-.29,.61-.78,.61-1.45,0-.27-.04-.5-.12-.71s-.23-.4-.46-.58c-.23-.18-.54-.35-.94-.52-.4-.17-.92-.34-1.57-.53-1-.29-1.86-.6-2.55-.9-.7-.31-1.26-.67-1.7-1.08-.44-.41-.75-.89-.96-1.44-.2-.55-.3-1.21-.3-1.99,0-.86,.15-1.62,.44-2.28s.72-1.22,1.28-1.67c.56-.45,1.23-.79,2.03-1.01s1.69-.34,2.68-.34c.38,0,.79,.02,1.24,.07,.45,.05,.9,.1,1.35,.16,.45,.06,.87,.12,1.28,.19,.4,.07,.74,.13,1.02,.18,.21,.04,.37,.1,.46,.18,.09,.08,.13,.23,.1,.46l-.2,2.09Z"/></g></g></g></svg>