<?xml version="1.0" encoding="utf-8"?>
<!-- Generator: Adobe Illustrator 22.1.0, SVG Export Plug-In . SVG Version: 6.00 Build 0)  -->
<svg version="1.1" id="_x35_d246505-ca37-4db1-9c80-c1ad9e3c7b19"
	 xmlns="http://www.w3.org/2000/svg" xmlns:xlink="http://www.w3.org/1999/xlink" x="0px" y="0px" viewBox="0 0 1130.1 813.1"
	 style="enable-background:new 0 0 1130.1 813.1;" xml:space="preserve">
<style type="text/css">
	.st0{opacity:0.1;fill:#2D478A;enable-background:new    ;}
	.st1{fill:#29292E;}
	.st2{fill:#DFE6F5;}
	.st3{fill:#2D478A;}
	.st4{fill:#FFFFFF;}
	.st5{fill:none;stroke:#565661;stroke-miterlimit:10;}
	.st6{fill:url(#SVGID_1_);}
	.st7{fill:url(#SVGID_2_);}
	.st8{opacity:0.1;enable-background:new    ;}
	.st9{fill:#BCBEC9;}
	.st10{fill:#EFEFF0;}
	.st11{fill:url(#SVGID_3_);}
	.st12{fill:#222433;}
	.st13{opacity:5.000000e-02;enable-background:new    ;}
	.st14{fill:#E01831;}
	.st15{opacity:0.1;}
	.st16{fill:#D1D9EC;}
	.st17{fill:#2D2D33;}
	.st18{fill:#34353D;}
	.st19{fill:#9D9CB5;}
	.st20{fill:none;stroke:#535461;stroke-width:2;stroke-miterlimit:10;}
	.st21{opacity:0.87;}
	.st22{fill:#070708;}
	.st23{opacity:0.2;fill:#FFFFFF;enable-background:new    ;}
	.st24{fill:none;stroke:#1B1B1F;stroke-width:9;stroke-miterlimit:10;}
</style>
<title>winter designer</title>
<path class="st0" d="M584.5,132.8c-71.4,12.1-142.6,6.9-211.2-0.6s-137-17.3-208.4-14.4c-45.9,1.9-97.1,11-129.1,37.4
	C4.9,180.6,0.1,215,0,246c0,23.3,2,47.4,18.5,66C30,324.8,47.7,334.1,61,346c46.3,41.3,32.2,106.3,1.8,161.6
	c-14.3,25.9-31.7,51.5-41.4,78s-11,55,6.4,76.7C45,683.6,78.3,695.7,113,702c70.5,12.7,149.1,4.8,225.2-5.9
	c168.3-23.7,334.8-60.8,501-97.9c61.5-13.7,123.2-27.5,182.5-47.2c32.9-11,66.4-24.7,87.7-46c27-27,27.7-63.9,1.7-86
	c-43.7-37-142.5-28.8-176.3-71.1c-18.6-23.3-10.5-54.9,4.3-82.9c31.7-59.9,93-119.1,85.1-178.9c-5.5-41-47.3-74.9-103.3-83.8
	c-58.7-9.3-134.2,8.3-168,49.6C718,94.5,647.5,122.1,584.5,132.8z"/>
<rect x="87.1" y="105" class="st1" width="415.7" height="195.8"/>
<rect x="96.7" y="119.4" class="st2" width="398" height="167"/>
<path class="st3" d="M124.7,200c-5.7,0.7-11.3,2.2-16.6,4.4l11-10.5c0.8-0.9,1.8-1.5,2.8-2c1.8-0.7,3.8-0.2,5.6-0.8
	c2.9-1,4.4-4.5,7.3-5.5c2-0.7,4.2,0,6.3-0.1c4.2-0.3,7.5-3.7,9.6-7.3s3.6-7.7,6.3-10.9c3.9-4.5,9.9-6.8,14.2-10.9
	c1.9-1.8,3.5-4,5.3-5.9c7.4-7.4,18.5-9.9,28.3-6.2c1.3,0.7,2.7,1,4.2,1.1c1.1-0.1,2.3-0.5,3.3-1.1l13.5-6.5
	c7.6,2.4,14.7,6,21.2,10.7c1,0.9,2.2,1.5,3.5,1.7c3.6,0.3,5.2-4.4,7.5-7.2c3.2-3.8,9.1-4.4,13.7-2.7c4.6,1.8,8.3,5.4,11.6,9.1
	c1.5,1.7,3.1,3.5,5.3,4.1c1.8,0.4,3.7,0.4,5.4-0.1c10.5-2.4,19.6-8.6,25.8-17.4c0.9-1.4,2.1-2.9,3.7-2.9c0.8,0.1,1.6,0.4,2.2,0.8
	c5.8,3.4,11.3,7.4,16.2,12.1c3.7,3.5,7.2,7.4,11.7,9.9s10.4,3.3,14.6,0.5c-0.7,2.8,2,5.5,4.8,6.1s5.7-0.2,8.6-0.6
	c8-1,16,1.4,22.2,6.6c13,1.4,24.3,9.7,29.7,21.6c2.1,4.9,4.9,11.4,10.2,10.6c1.8-0.3,3.5-1.5,5.2-1c1.2,0.4,2.2,1.2,3,2.1
	c4.5,4.4,10.7,6.5,16.4,9.2c5.7,2.7,11.4,6.6,13.4,12.5c-4.9,0.7-9.8-1.3-14.7-2.1s-10.9,0-13.2,4.5c-0.9,1.8-1.2,4-2.9,5.2
	c-1.1,0.6-2.4,0.9-3.7,0.8c-11.2,0.1-22.3-2.5-32.3-7.6c-6.8,9.8-16.8,17-28.3,20.1c-0.3-4.3-4.8-7.5-9.2-7.6s-8.4,2.3-11.8,5
	c-3.3,2.7-6.1,5.9-8.4,9.5c-1.9,3-3.5,6.2-6.1,8.6s-6.7,3.6-9.7,1.8c-1.7-1-2.7-2.9-4.4-4c-3.7-2.5-9.4-0.7-12.7-3.7
	c-2.4-2.2-2.4-6.1-4.7-8.5c-2.9-2.9-8-2-11.2,0.6s-5.4,6.2-8.3,9c-7.6,7.4-19.4,8-30,8.2c0-2.4,1.5-4.4,2.5-6.5
	c3-6,2.1-13.2-0.6-19.3s-7.1-11.2-11.4-16.2c-4.9,5.2-2.6,14.2-7,19.8c-1.8,2.3-4.5,3.7-6.3,6c-2.3,2.8-4.1,7.1-7.7,6.9
	c-1.8-0.1-3.2-1.5-4.4-2.8c-4.6-5-8.8-11.3-15.5-12.6c-2.6-0.5-5.3-0.2-8-0.4c-8.9-1.1-15.8-8.3-16.3-17.2
	c-5.6,1.5-11.7,2.8-17.3,4.4c-1.6,0.4-3.3,0.9-4.8,0.3c-2-0.8-3-3-4.6-4.4c-2.4-2-6-1.9-9.1-1.3s-6.2,1.8-9.3,1.4
	c-0.6-2.9-0.8-5.8-0.5-8.7l-11.2-1c-1.5,0-2.9-0.3-4.3-0.8c-1-0.5-2-1.1-2.9-1.9C128.8,206.5,126.4,203.4,124.7,200z"/>
<path class="st4" d="M152.3,192.9c1.4-1.4,2.6-3.1,4.2-4.2c1.5-0.9,3-1.5,4.7-2c12-4.2,21.4-13.5,31-21.8
	c8.4-7.4,17.3-14.2,26.2-21.1l3.4,2.5l-8.1,3.3c-0.8,0.3-1.7,0.8-1.7,1.6c0,0.5,0.3,1,0.6,1.4c2.1,2.7,4.4,5.5,7.7,6.3
	c1.6,0.4,3.5,0.3,4.5,1.6c0.4,0.6,0.7,1.3,0.8,2.1c1.3,4.4,5.2,7.4,9.1,9.7c7.7,4.7,16,8.2,24.7,10.4c-6.6-0.2-13.1-1.5-19.2-3.9
	c-1.8-0.7-3.6-1.5-5.2-2.6c-3.5-2.3-6.1-5.7-9.5-8.1c-3.4-2.4-8.2-3.7-11.6-1.3c-0.9,0.7-1.8,1.6-3,1.5s-2-1.2-3-1.9
	c-2.5-1.8-6.1-0.6-8.8,0.9c-8.2,4.6-14.7,11.7-18.7,20.2c12.2,0.8,24.3-2.7,34.2-9.9c5.9,8.3,14.5,14.2,24.3,16.9
	c-1.4,1.8-3.8,2.3-5.9,3.1c-5.8,2.3-10.4,7-12.5,12.9c-1.6-2.2-2.8-4.7-3.5-7.4c-3.2,1.8-6.4,3.8-9.4,6c2.9-1.8,5.2-4.4,6.9-7.4
	c-5.2-1.3-10.7-0.7-15.5,1.7c-3.5,1.7-6.7,4.4-10.6,4.6c0.5-4.3-2.1-8.4-6.3-9.7c-2.8-0.8-6.3-0.5-7.8-2.9c-0.3-0.7-0.6-1.4-0.9-2.2
	c-1.1-2.6-4.2-3.8-6.9-3.8c-2.8,0.1-5.4,1.2-8,2.4c-3.7,1.6-7.3,3.4-11.1,4.9C148.8,195.5,150.7,194.5,152.3,192.9z"/>
<path class="st4" d="M216.5,228c5,0.6,10-0.2,14.5-2.3c2.5-1.1,4.9-2.7,7.5-3.1s5.9,0.6,6.8,3.2c3.2-2.3,3.8-6.9,6.4-10
	c3.8-4.5,11.2-4.2,16-0.8c4.8,3.4,7.5,9,9.5,14.5c1.5,4.2,2.9,8.6,6,11.7s8.9,4.1,11.8,0.8c-4-5.3-4.6-12.4-1.6-18.3
	c0.7-1.3,1.5-2.6,1.5-4c-0.1-3.1-4-4.4-6.5-6.3c-5.4-4.1-4.7-12.8-9.1-18c-2.3-2.8-6.2-5.2-5.6-8.8c13.3,2.6,25.9,8,37.1,15.8
	c1.8,1.4,3.8,2.6,5.8,3.5c2.8,1.1,5.8,1.2,8.6,2.2c9.4,3.2,14.8,14.9,24.6,15.7c4.9,0.4,9.5-2.1,14.1-3.9
	c19.5-7.7,41.4-2.8,61.6,2.9c-7-3.9-16.9-3.3-21.3-9.9c-1.5-2.3-2.2-5.2-4.3-6.9c-4.1-3.4-10.2-0.1-15.5,0.4
	c-5.2,0.4-10.2-1.9-13.2-6.2c-1.4-2.1-2.4-4.6-4.2-6.3c-2.8-2.5-6.9-2.6-10.6-2.5l-17.5,0.2c-2.9,0-6.2-0.1-8.2-2.3
	c-0.6-0.9-1.4-1.8-2.1-2.7c-1.1-1-2.8-1.1-4.2-1.3c-4.9-0.7-9.6-2.2-13.9-4.6c-0.8-0.4-1.6-1-2-1.8c-1.1-2.6,2.9-4.1,5.2-5.9
	c3.7-2.9,2.9-8.6,1.7-13.1c3.1-0.7,5.9-2.2,8.1-4.3c-4.2-3.9-8.8-9.1-7-14.6c0.4-1.2,0.6-3.1-0.6-3.1c-1.7,3.7-4.5,6.7-8,8.6
	c-1.1,0.5-2.1,1.2-2.9,2.1c-1.3,2,0,5.1-1.5,6.8c-0.6,0.6-1.3,1-2,1.2c-5.3,1.9-11.8,2.3-14.9,6.9c-1.1,1.9-1.9,3.9-2.4,6
	c-3.7,10.6-12.6,18.7-23.5,21.3c-1.8,0.4-3.8,0.8-5.1,2.1c-1,1-1.3,2.4-2.2,3.6c-1.7,2.2-4.7,2.9-7.3,3.9
	c-7.5,2.9-12.1,9.4-16.2,15.8c-1.8,2.7-3,3.5-5.9,4.8c-1.8,0.7-3.4,1.7-4.8,2.9C219,224,216.3,228,216.5,228z"/>
<path class="st4" d="M348.6,172.3c-3.3,1.7-6.8,3.1-10.4,4c1.7,0.5,3.4,1.2,4.9,2.1c-0.5,2.1-1.7,3.9-3.4,5.2
	c4,0.1,7.8,1.6,11.6,2.6c6.4,1.7,13,2.3,19.6,2.9l-9-6.6c-1.3-1-2.7-2.1-3.1-3.7c-0.1-1.5,0.2-3,1.1-4.2c2.3-4.3,5-8.2,7.7-12.3
	c-3.2,1.1-7.5,0.2-10.4,1.5c-1.8,0.8-2.1,2.6-3.2,4.1C352.6,169.8,350.7,171.3,348.6,172.3z"/>
<path class="st4" d="M403,182.3c-0.9,2.3-2.3,4.4-4,6.3c1.6,1.5,3.6,2.4,5.8,2.8c1.1,0.1,2.2,0.2,3.3,0.5c1.3,0.4,2.4,1.1,3.5,1.9
	c7,4.9,14.5,10.4,16.5,18.7c2.6-1.5,5.9-0.7,7.7,1.7c0.9,1.3,1.3,3.1,2.7,3.7s3-0.2,4.1-1.2s2.2-2.2,3.7-2.5
	c0.9-0.1,1.9-0.1,2.8,0.1l13.3,2.1c-3.7-3.8-9-5.7-14.3-5.1c-3.2,0.4-6.6,1.6-9.6,0.4s-4.5-4.4-6.9-6.6c-3-2.8-7.3-3.8-10.3-6.6
	c-2.5-2.4-3.8-5.7-6.1-8.3c-2.5-2.8-5.9-4.6-8.1-7.7c-0.9-1.2-1.6-2.7-2.8-3.5c-2.2-1.4-6.9-1.2-9.4-1.5
	C395.5,180.5,400.2,182.9,403,182.3z"/>
<path class="st4" d="M171.8,156.6c2.3,0.2,4.5,0.2,6.8,0.1c0.2,0,0.4,0,0.6-0.1c0.2-0.2,0.3-0.4,0.4-0.7l0.8-3.6
	c0-0.3,0.2-0.6,0.4-0.8c0.4-0.2,0.9-0.2,1.4,0c2.3,0.9,4.5,2.1,6.5,3.6c-0.9-2.6-1.6-5.2-2.3-7.8l6.1-1.1c-4.6-1.1-7-0.6-10,2.7
	C180.7,150.8,174.5,156.7,171.8,156.6z"/>
<circle class="st1" cx="294.9" cy="82.9" r="5.6"/>
<polyline class="st5" points="259.2,110.4 294.9,82.9 331,110.4 "/>
<linearGradient id="SVGID_1_" gradientUnits="userSpaceOnUse" x1="335.59" y1="1411.78" x2="336.95" y2="1411.78" gradientTransform="matrix(1 0 0 1 -34.96 -1227.4299)">
	<stop  offset="0" style="stop-color:#808080;stop-opacity:0.25"/>
	<stop  offset="0.54" style="stop-color:#808080;stop-opacity:0.12"/>
	<stop  offset="1" style="stop-color:#808080;stop-opacity:0.1"/>
</linearGradient>
<path class="st6" d="M300.6,184.2l0.4,0.3l0.9-0.1L300.6,184.2z"/>
<linearGradient id="SVGID_2_" gradientUnits="userSpaceOnUse" x1="336.95" y1="1412.2808" x2="344.66" y2="1412.2808" gradientTransform="matrix(1 0 0 1 -34.96 -1227.4299)">
	<stop  offset="0" style="stop-color:#808080;stop-opacity:0.25"/>
	<stop  offset="0.54" style="stop-color:#808080;stop-opacity:0.12"/>
	<stop  offset="1" style="stop-color:#808080;stop-opacity:0.1"/>
</linearGradient>
<path class="st7" d="M302,184.4l7.7,1C307.3,184.5,304.7,184.1,302,184.4z"/>
<rect x="322" y="461.2" class="st1" width="283.4" height="65.6"/>
<rect x="322" y="461.2" class="st8" width="283.4" height="65.6"/>
<polygon class="st9" points="355.9,529 357.9,704.2 330.6,773.1 328.5,529 "/>
<polygon class="st1" points="325,473.8 600.9,475.5 600.9,524.4 325,524.4 "/>
<polygon class="st9" points="577.3,529 600.9,532.4 600.9,770.4 577.3,697.6 "/>
<rect x="609.9" y="463.9" class="st10" width="133" height="282.6"/>
<rect x="620.5" y="471.7" class="st1" width="111.7" height="217.2"/>
<rect x="620.5" y="471.7" class="st8" width="111.7" height="217.2"/>
<rect x="620.5" y="476.2" class="st1" width="111.7" height="48.2"/>
<rect x="620.5" y="529" class="st1" width="111.7" height="102.4"/>
<rect x="620.5" y="637.8" class="st1" width="111.7" height="102.4"/>
<ellipse class="st1" cx="625.2" cy="755.7" rx="7.2" ry="9.2"/>
<ellipse class="st1" cx="725.1" cy="756.1" rx="7.2" ry="9.2"/>
<polygon class="st10" points="321,773.1 330.6,773.1 328,466.3 313.4,466.3 "/>
<polygon class="st10" points="600.9,463.9 600.9,770.4 609.9,770.4 609.9,466.3 "/>
<polygon class="st10" points="328.5,521.4 328.5,532.4 600.9,532.4 600.9,524.4 "/>
<polygon class="st10" points="346.9,443.3 692.4,443.3 742.6,459.9 742.6,469.5 311.7,466.2 311.7,456.4 "/>
<polygon class="st9" points="311.7,456.4 742.6,459.9 742.6,469.5 311.7,466.2 "/>
<linearGradient id="SVGID_3_" gradientUnits="userSpaceOnUse" x1="458.41" y1="1772.23" x2="460.73" y2="1772.23" gradientTransform="matrix(1 0 0 1 -34.96 -1227.4299)">
	<stop  offset="0" style="stop-color:#808080;stop-opacity:0.25"/>
	<stop  offset="0.54" style="stop-color:#808080;stop-opacity:0.12"/>
	<stop  offset="1" style="stop-color:#808080;stop-opacity:0.1"/>
</linearGradient>
<path class="st11" d="M425.7,545.7l-2-0.3c0-0.1,0-0.2,0-0.2c-0.1-0.5-0.1-0.9-0.2-1.4C424.3,544.5,425.1,545.1,425.7,545.7
	L425.7,545.7L425.7,545.7z"/>
<path class="st3" d="M382.3,700.1c1.3-0.3,2.6-0.5,3.9-0.7c9.1-1.3,18.3,0.1,26.6,3.9c-0.8,6.2-1.7,12.6,0.1,18.5
	c1.2,4.2,3.7,8,4.3,12.4c2.7,0.5,4.9,2.4,5.8,5.1c0.4,1.1,0.6,2.4,0.6,3.6c0,1.5-0.2,3-0.6,4.4c-0.3,2.4-2.4,4.2-4.8,4
	c-7.7,0.9-15.3-2.2-22.5-5.2l-14-5.8c-1.6-0.7-3.3-1.4-4.9-2.2c-3-1.6-5.6-3.8-7.8-6.4c-0.4-0.5-0.8-1-0.9-1.7
	c-0.3-1.8,1.8-2.8,3.1-4c0.4-0.4,0.7-0.8,1-1.2c1.5-2.3,1.7-5.6,2.6-8.3c2.2-6.5,9-10.8,11.4-17.2c0.1-0.3,0.2-0.7,0.4-1.1"/>
<path class="st8" d="M423.5,742.9c0,1.5-0.2,3-0.6,4.4c-0.3,2.4-2.4,4.2-4.8,4c-7.7,0.9-15.3-2.2-22.5-5.2l-14-5.8
	c-1.6-0.7-3.3-1.4-4.9-2.2c-3-1.6-5.6-3.8-7.8-6.4c-0.4-0.5-0.8-1-0.9-1.7c-0.3-1.8,1.8-2.8,3.1-4c0.4-0.4,0.7-0.8,1-1.2
	c3.9,0.8,8.6,3.3,11.6,4.2c3,0.8,5.8,2,8.4,3.5c3.7,2.4,6.3,6,9.5,9s7.1,5.7,11.5,5.4c2.3-0.3,4.5-1.1,6.5-2.3L423.5,742.9z"/>
<path class="st12" d="M407.1,600.8c0.5,1.9-0.1,3.9-1.7,5c-1.3,0.8-3,0.7-4.3,1.6c-1.6,1.1-1.8,3.4-2.1,5.3
	c-1,6.7-4.3,12.7-7.1,18.8s-5.2,12.8-4.2,19.5c0.7,4.5,2.9,9.3,0.9,13.4c-0.5,1-1.3,1.9-1.9,2.9c-2.9,4.8-1.2,10.8-1.3,16.3
	c0,0.6-0.1,1.2-0.4,1.8c-0.4,0.5-1,0.9-1.6,1.2c-2.1,1.5-3.3,3.9-3.4,6.4s0.2,5,0.9,7.5c0.1,1,0.5,1.9,1.2,2.6
	c0.8,0.5,1.7,0.8,2.7,0.8c6.3,0.5,12.4,2,18.3,4.4c3.8,1.6,7.5,3.6,11.5,4.3c0.8,0.2,1.6,0.2,2.4-0.2c0.5-0.5,0.9-1.1,1-1.7
	c1.5-5.1,3.1-10.4,2.6-15.7c-0.2-2.3-0.8-4.5-1-6.8c-0.7-9,5.4-17.1,7.3-26c0.9-4,0.9-8.1,1.5-12.2c1.7-11.1,7.8-21,10.1-32
	c0.3-2,0.8-4,1.5-6c1.8-4.2,5.8-7.7,5.9-12.3c0.1-1-0.2-2-0.8-2.9c-0.9-1-2.2-1.7-3.6-2c-5.5-1.5-11-2.6-16.6-3.3
	c-2.6-0.5-5.2-0.7-7.8-0.5c-3.4,0.4-6.6,1.5-9.5,3.4C403.8,596.8,406.3,597.3,407.1,600.8z"/>
<path class="st13" d="M407.1,600.8c0.5,1.9-0.1,3.9-1.7,5c-1.3,0.8-3,0.7-4.3,1.6c-1.6,1.1-1.8,3.4-2.1,5.3
	c-1,6.7-4.3,12.7-7.1,18.8s-5.2,12.8-4.2,19.5c0.7,4.5,2.9,9.3,0.9,13.4c-0.5,1-1.3,1.9-1.9,2.9c-2.9,4.8-1.2,10.8-1.3,16.3
	c0,0.6-0.1,1.2-0.4,1.8c-0.4,0.5-1,0.9-1.6,1.2c-2.1,1.5-3.3,3.9-3.4,6.4s0.2,5,0.9,7.5c0.1,1,0.5,1.9,1.2,2.6
	c0.8,0.5,1.7,0.8,2.7,0.8c6.3,0.5,12.4,2,18.3,4.4c3.8,1.6,7.5,3.6,11.5,4.3c0.8,0.2,1.6,0.2,2.4-0.2c0.5-0.5,0.9-1.1,1-1.7
	c1.5-5.1,3.1-10.4,2.6-15.7c-0.2-2.3-0.8-4.5-1-6.8c-0.7-9,5.4-17.1,7.3-26c0.9-4,0.9-8.1,1.5-12.2c1.7-11.1,7.8-21,10.1-32
	c0.3-2,0.8-4,1.5-6c1.8-4.2,5.8-7.7,5.9-12.3c0.1-1-0.2-2-0.8-2.9c-0.9-1-2.2-1.7-3.6-2c-5.5-1.5-11-2.6-16.6-3.3
	c-2.6-0.5-5.2-0.7-7.8-0.5c-3.4,0.4-6.6,1.5-9.5,3.4C403.8,596.8,406.3,597.3,407.1,600.8z"/>
<polygon class="st1" points="387.5,751.5 379,751.5 373.4,636.8 373,630.3 380.3,627.8 380.8,634.7 "/>
<polygon class="st8" points="380.8,634.7 373.4,636.8 373,630.3 380.3,627.8 "/>
<polygon class="st1" points="494.6,775.7 480.5,777.4 415.7,630.3 398.2,629 367.5,638 361.5,813.1 347.5,813.1 353,631.6 
	319.3,632.5 259.2,782.1 246.4,782.1 309.6,607.2 312.1,600.5 406.3,597.2 429.8,610.4 430.1,611.2 "/>
<path class="st8" d="M430.1,611.2c-20.2,6.1-41.3,12.8-41.3,12.8s-19.2,6.7-27.3,0c-1-0.8-2.2-1.4-3.4-1.9c1.1,0.8,2.2,1.4,3.4,1.9
	l-51.9-16.7l2.4-6.7l94.2-3.2l23.5,13.2L430.1,611.2z"/>
<path class="st4" d="M334.2,582.1l38.4-8.6c0,0,91.7,17.1,98.5,23.9c0,0-73.3,14.9-81.4,20S333.4,628.2,334.2,582.1z"/>
<path class="st3" d="M317.8,486.2c-3,9.5-11.2,18.1-21.2,18.5c-0.7,0.1-1.5,0-2.1-0.4c-1.2-0.8-1.3-2.6-0.8-4s1.4-2.6,1.5-4.1
	c0-0.3,0-0.6-0.1-0.9c-0.3-1.2-1.2-2.2-2.4-2c1.6-1.3,2-3.6,0.9-5.3c-0.5-0.5-0.9-1.1-1.2-1.6c-0.8-1.7,0.5-3.6,1-5.4
	c1.1-4-1.7-8-1.9-12.2c-0.2-3.7,1.7-7.2,2.2-10.9c0.8-6-2.2-11.8-2.6-17.7c-0.2-4.2,0.8-8.3,1.9-12.4c1-3.6,2.1-7.2,2.2-11
	c0-2.7-0.5-5.4-0.6-8.1c-0.2-2.5,0.2-5,1.3-7.2c0.7-1.3,1.9-2.3,3.3-2.8c3.3-1.1,5.4,0.6,5.9,3.7c0.8,5.3,0.3,10.7,1.4,16
	c1,5,2.4,9.8,4.4,14.5c1.8,4.2,3.9,8.3,5.3,12.7c1,3.6,1.8,7.3,2.2,11C319.7,466.5,320.8,476.7,317.8,486.2z"/>
<path class="st3" d="M545.5,728.3c-2.6,3.6-6.5,5.9-10.9,6.4c-4.3,0.5-8.8-0.5-13.1,0.6c-1.3,0.2-2.5,1.1-3,2.3
	c-0.1,0.8-0.2,1.6-0.2,2.5c-0.5,2.7-4,3.3-6.7,3.2l-11.3-0.1c-2.3,0-4.9-0.1-6.6-1.8c-1.7-1.8-1.7-4.6-0.1-6.5
	c1.2-0.4,1.8-1.7,1.4-2.8s-1.7-1.8-2.8-1.4c-0.2-1.5-0.1-3,0.2-4.4c0-4.2,1-11.2,3.9-14.5c3.6-4.1,9.9-9.3,15.3-10.4
	c3.7-0.7,7.6,0.4,10.4,3c2.6,2.4,4.5,6.2,8,6.6c1.9,0.2,3.8-0.7,5.7-1c4.4-0.6,8.8,1.7,10.8,5.7c0.5,1,0.8,2,1,3.1
	C548.1,722.2,547.3,725.6,545.5,728.3z"/>
<path class="st8" d="M545.5,728.3c-2.6,3.6-6.5,5.9-10.9,6.4c-4.3,0.5-8.8-0.5-13.1,0.6c-1.3,0.2-2.5,1.1-3,2.3
	c-0.1,0.8-0.2,1.6-0.2,2.5c-0.5,2.7-4,3.3-6.7,3.2l-11.3-0.1c-2.3,0-4.9-0.1-6.6-1.8c-1.7-1.8-1.7-4.6-0.1-6.5
	c6.5-0.3,12.9,0,19.4-1.3c2.6-0.5,5.2-1.2,7.9-1.6c5.8-0.8,11.9-0.1,17.2-2.6c4.4-2,7.6-6.1,9.4-10.6
	C548,722.2,547.3,725.5,545.5,728.3z"/>
<path class="st12" d="M515.8,712.5c-4,3.1-8.7,5.5-13.7,5.8s-10.4-2-12.9-6.4c-3.6-6.4-0.4-15.4-4.8-21.3c-1.4-1.8-3.4-3.2-4.8-5
	s-2.3-4.5-1-6.4c-1.6,0.6-3.2-0.9-3.7-2.5s-0.2-3.4-0.5-5c-0.7-4.3-5-7.1-7-11s-1.8-8.9-2-13.4c-0.5-11.1-4.7-21.8-11.8-30.3
	c-1.4-1.6-3.1-3.3-5.2-3.2c0.4-3.7-2.1-7.2-5.2-9s-6.9-2.5-10.6-2.8c-36.9-3.6-75.4,10.1-110.7-1.5c-9.8-3.2-19.3-8.6-25.3-17
	c-4.7-6.5-6.6-14.6-5.3-22.5v-0.1c1.4-7.1,5.1-8.8,11.4-12.1c7.2-3.8,14.7-6.9,22.4-9.4c15-4.7,31.1-6.4,46.6-2.9
	c7.2,1.6,14.2,4.3,21.4,5.9c2.9,0.6,5.7,1.1,8.6,1.4c4.5,0.6,9,0.9,13.5,1.5c14.5,1.7,28.7,4.9,42.5,9.5c5.1,1.7,10.3,3.7,14.7,6.9
	c7.1,5.1,11.8,12.9,13.1,21.5c0.4,2.9,0.4,6,1.1,8.8c0.6,2.4,1.4,4.7,2.4,7c8.5,21.1,15.5,42.9,20.9,65c0.3,1.6,0.9,3.2,1.7,4.7
	c1.3,2.1,3.5,3.5,4.8,5.5c3,4.9,0.1,11.7,2.8,16.8c0.9,1.8,2.5,3.2,3.4,4.9C525.3,701.6,520.9,708.5,515.8,712.5z"/>
<path class="st8" d="M464.7,597.6c1.4-1.1,2.6-2.5,3.6-4s1.4-3.4,1.1-5.2c0.8,4.6-0.7,9.3-3.9,12.7c-2.5,2.6-7.2,5.1-10.9,4.2
	C455.2,602.4,462.4,599.6,464.7,597.6z"/>
<path class="st8" d="M402.2,547.7c-0.6,2.2-2.3,3.9-4.4,4.6c-2.1,0.7-4.4,0.9-6.6,0.8h-2c-26.2-0.6-52.8-6.4-78.4-0.8
	c-3.1,0.6-6.1,1.5-9.1,2.7c-3.7,1.5-7.3,3.5-10.4,6v-0.1c1.4-7.1,5.1-8.8,11.4-12.1c7.2-3.8,14.6-6.9,22.4-9.3
	c15-4.7,31.1-6.4,46.6-2.9c7.2,1.6,14.2,4.3,21.4,5.9c2.9,0.6,5.7,1.1,8.6,1.4C402.3,545,402.5,546.4,402.2,547.7z"/>
<path class="st14" d="M402.2,546.3c-0.6,2.2-2.3,3.9-4.4,4.6c-2.1,0.7-4.4,0.9-6.6,0.8h-2c-26.2-0.6-52.8-6.4-78.4-0.8
	c-3.1,0.6-6.1,1.5-9.1,2.7c-3.9,1.6-7.6,3.7-10.9,6.4c-0.8-2.1-1.5-4.2-2.3-6.3c-0.9-2.5,2-3.1,2.6-5.3c0.4-1.5-0.3-3.3-0.6-4.9
	c-0.1-0.4-0.1-0.8-0.2-1.2c-0.2-3.6,1.1-5.7,4.1-7.6c8.8-5.8,19.5-9.8,29.5-12.8c5.3-1.7,10.8-2.8,16.4-3.2c7.9-0.5,15.8,1,23.4,2.8
	c9.4,2.3,18.8,5.4,27.1,10.3c4.1,2.4,8.1,5.4,10.3,9.7C402.1,542.8,402.5,544.6,402.2,546.3z"/>
<path class="st8" d="M317.8,486.2c-3,9.5-11.2,18.1-21.2,18.5c-0.7,0.1-1.5,0-2.1-0.4c-1.2-0.8-1.3-2.6-0.8-4s1.4-2.6,1.5-4.1
	c0-0.3,0-0.6-0.1-0.9c5.3-7.5,10.4-15,12.5-23.8c0.4-1.5,0.5-3.1,0.4-4.7c-0.3-1.8-1.2-3.4-1.7-5.2c-0.9-3.1-0.5-6.3-0.2-9.5
	c1-14.1-1.3-28.2-6.8-41.1c-1.4-3.1-2.9-6.3-3.4-9.6c0.7-1.3,1.9-2.3,3.3-2.8c3.3-1.1,5.4,0.6,5.9,3.7c0.8,5.3,0.3,10.7,1.4,16
	c1,5,2.4,9.8,4.4,14.5c1.8,4.2,3.9,8.3,5.3,12.7c1,3.6,1.8,7.3,2.2,11C319.7,466.5,320.8,476.7,317.8,486.2z"/>
<path class="st8" d="M402.2,546.3c-0.6,2.2-2.3,3.9-4.4,4.6c-2.1,0.7-4.4,0.9-6.6,0.8h-2c-8.5-5.7-18.8-8.2-29-7
	c-3.3,0.4-6.5,1.2-9.8,0.8c-6.6-0.6-11.9-5.3-17.8-8.4c-13.7-6.7-30.1-4.5-41.4,5.6l-0.6,0.5c-0.1-0.4-0.1-0.8-0.2-1.2
	c-0.2-3.6,1.1-5.7,4.1-7.6c8.8-5.8,19.5-9.8,29.5-12.8c5.3-1.7,10.8-2.8,16.4-3.2c7.9-0.5,15.8,1,23.4,2.8
	c9.4,2.3,18.8,5.4,27.1,10.3c4.1,2.4,8.1,5.4,10.3,9.7C402.1,542.8,402.5,544.6,402.2,546.3z"/>
<path class="st3" d="M424.6,436.8l-0.1,0.4c-2.2,5.8-6.4,10.7-9,16.4c-3.3,7.2-4.1,15.2-4.9,23.1c-0.6,6.8-1.3,13.5-0.8,20.3
	c1.3,16.7,9.4,32.5,11.6,48.9c0.5,3.8,0.7,7.6,0.4,11.4c-0.2,2.4-0.6,5-2.2,6.8s-4.7,2.5-6.4,0.8c0.8-1.5,1.5-2.9,2.3-4.4
	c-4.6-3.5-11.5-1-16.8-3.2c-2.4-1-4.2-2.8-6.2-4.4c-9.1-7.4-20.8-10.8-32.4-9.5c-3.3,0.4-6.5,1.2-9.8,0.9
	c-6.6-0.6-11.9-5.3-17.8-8.4c-13.7-6.7-30.1-4.5-41.4,5.6c-1.4,1.3-3.3,2.8-5,2c-0.7-0.4-1.2-1-1.5-1.7c-6.5-11.2-1.7-25.6,5.3-36.5
	s16.3-21,19.2-33.5c0.4-1.5,0.5-3.1,0.4-4.7c-0.3-1.8-1.2-3.4-1.7-5.2c-0.9-3.1-0.5-6.3-0.2-9.5c1-14.1-1.3-28.2-6.8-41.1
	c-1.6-3.7-3.5-7.5-3.5-11.6c0-6.4,4.6-11.7,8.4-16.8c4.4-5.9,8-12.4,13.5-17.3c5.2-4.6,12.8-7.4,19.2-5.1c11-2.7,22.3-3.7,33.6-3.2
	c3.9,0.2,7.9,0.6,11.4,2.5c3.7,2,6.3,5.6,9.9,7.7c2.6,1.6,5.7,2.3,8.5,3.4c7.9,3.1,14.4,8.9,18.4,16.5c4,7.8,5,16.7,5.9,25.3
	C426.7,420.6,427.5,429.1,424.6,436.8z"/>
<path class="st8" d="M409.9,496.9c1.3,16.7,9.4,32.5,11.6,48.9c-4.4-3.7-10.4-7.4-11.2-11.7c-0.9-4.6-3.8-10.7-4.3-15.4
	s2.8-10.4-0.6-13.6c-1.7-1.6,2.8-1.1,1.1-2.7c-3.7-3.6-4.6-9.1-4.8-14.2c-0.4-9.1,0.8-18.3-0.9-27.2c-1-5.5-3.1-10.8-4.8-16.1
	c-1.9-6.2-3.3-12.6-4.7-19c-1.4-5.7-2.4-11.4-3-17.3c-0.4-5-0.2-10.3,2-14.9s6.7-8.3,11.8-8.2c16.9,0.2,14,23.2,17.7,33.8
	c1.5,4.2,3.5,8.3,4.3,12.7c0.3,1.7,0.5,3.5,0.5,5.2c-2.2,5.8-6.4,10.7-9,16.4c-3.3,7.2-4.1,15.2-4.9,23.1
	C410,483.3,409.4,490.1,409.9,496.9z"/>
<path class="st3" d="M420.9,418.9c1.5,4.2,3.5,8.3,4.3,12.7c1.4,7.4-0.7,15.2,1.5,22.3c0.6,1.5,1.1,3.1,1.5,4.7
	c0.4,2.3-0.1,4.6-0.1,6.9c0,3.7,1.2,7.3,2.2,10.9c3.5,12.1,5.8,24.6,6.9,37.1c0.2,3.4,0.7,6.7,1.6,10c0.4,1.1,0.8,2.2,1.1,3.4
	c0.3,1.5,0.3,3.1,0.2,4.6c-0.3,4.9-0.8,9.8-0.3,14.7s2.3,9.8,6,13.1c-3.3,0.7-6.8,1.4-10,0.4c-4.5-1.5-7.2-6-9.5-10.1
	c-2.9-5.3-13.9-10-15.1-15.9c-0.9-4.6-3.8-10.7-4.2-15.4s2.8-10.4-0.6-13.6c-1.7-1.6,2.8-1.1,1.1-2.7c-3.7-3.6-4.6-9.1-4.8-14.3
	c-0.4-9.1,0.8-18.2-0.9-27.2c-1-5.5-3.1-10.8-4.8-16.1c-1.9-6.2-3.3-12.6-4.7-19c-1.4-5.7-2.4-11.4-3-17.3c-0.4-5-0.2-10.3,2-14.9
	s6.8-8.2,11.8-8.2C420,385.4,417.1,408.3,420.9,418.9z"/>
<path class="st8" d="M372.6,422.8c1.6,1.9,3.6,3.9,6,3.5c-0.4,0.6-1.2,0.8-1.8,0.4c-0.6-0.4-1-0.9-1.3-1.5l-3.4-5.8
	c-0.5-0.8-3.5-5.1-4.3-2.6C367.5,417.9,371.9,421.9,372.6,422.8z"/>
<path class="st8" d="M370.8,437.2c-0.1-1.9-0.9-3.7-2.2-5c-1.2-1.1-2.6-1.9-4.1-2.5c-3.8-1.5-8.2-2.8-12.3-2.6
	c1.5,2.2,6.2,3.5,8.6,4.7C364.2,433.6,367.5,435.4,370.8,437.2z"/>
<path class="st8" d="M381.5,478.2c-0.7,5.1-4.9,9-9.1,12s-9,5.6-11.8,9.9c-1.9,3-2.8,6.5-4.4,9.6c-1.8,3.5-4.5,6.3-6.6,9.6
	s-3.8,7.1-3.2,11c0,0.4,0.2,0.7,0.5,0.9c0.4,0.2,0.9,0.1,1.3-0.1c4.4-2.3,6.1-7.5,7.9-12c1.9-4.6,4.1-9,6.5-13.3
	c1.1-2,2.3-4.2,4.3-5.3c1.4-0.6,2.8-1.1,4.2-1.5c2-0.9,3.8-2.3,5.2-4.1c5.5-6.5,8.3-14.8,8-23.3c-0.1-1.8-0.2-10.4-2.9-7.8
	S381.9,474.7,381.5,478.2z"/>
<path class="st14" d="M388,281.8c8.6,3.8,16,12,15.7,21.4c-0.2,9.8-8.5,19.1-5.6,28.5c1.6,5.5,6.6,9.1,10.5,13.3
	c14.9,15.8,14.9,43.3-0.1,59c-5.7,6-13.1,10.3-19.1,16c-21.3,20.1-22.2,54.9-10.8,81.9c-8.7,1.9-17.7,2.9-26.6,3
	c-4.2,0-9.3-0.7-10.8-4.6c-1.4-3.6,1-8.5-1.8-11.2c-1.3-1.2-3.2-1.4-5-1.7c-11.3-1.8-20.5-10.8-24.7-21.4s-4-22.5-1.6-33.6
	c1.7-8,4.4-16.9,0.4-24.1c-5-9.1-19.4-12.9-19.2-23.2c0.2-8.5,10.2-12.6,15.9-18.9c10.5-11.6,5.5-29.6,5.5-45.3
	c0-13.8,4.8-28,15.1-37.2C341,269.7,370.4,274.2,388,281.8z"/>
<g class="st15">
	<path d="M310.2,397.9c-4.4-7.9-15.9-11.8-18.6-19.6c-1.3,1.8-2.1,4-2.2,6.3c-0.2,10.4,14.1,14.2,19.2,23.2c1.6,3.2,2.3,6.8,2,10.4
		C312.1,411.2,313.5,403.9,310.2,397.9z"/>
	<path d="M399.3,318.8c1.8-5.2,4.4-10.5,4.5-16c0-0.6,0-1.2,0-1.8C401.8,307,398.7,312.9,399.3,318.8z"/>
	<path d="M311.9,346.8c3.4-10.9,0.5-24.4,0.5-36.4c0-1.5,0.1-2.9,0.2-4.4c-1.2,4.7-1.8,9.5-1.8,14.3
		C310.8,328.9,312.3,338.2,311.9,346.8z"/>
	<path d="M410.2,393.7c-5.7,6-13.1,10.3-19.1,16c-10.8,10.2-16.4,24.1-17.7,38.9c2.6-11,7.8-21.1,16.1-29c6-5.7,13.4-10,19.1-16
		c6.8-7.4,10.8-17,11.1-27.1C418.1,382.9,414.8,388.8,410.2,393.7z"/>
	<path d="M353.7,494.5c-4.2,0-9.3-0.7-10.8-4.6c-1.4-3.6,1-8.5-1.8-11.2c-1.3-1.2-3.3-1.4-5-1.7c-11.2-1.8-20.5-10.8-24.7-21.4
		c-3.1-7.8-3.8-16.4-3-24.8c-0.1,0.3-0.1,0.7-0.2,1c-2.4,11.1-2.6,23.1,1.6,33.7s13.5,19.6,24.7,21.4c1.8,0.3,3.7,0.5,5,1.7
		c2.8,2.7,0.4,7.6,1.8,11.2c1.5,3.9,6.6,4.7,10.8,4.6c9-0.1,17.9-1.1,26.6-3c-1.2-2.9-2.3-5.9-3.2-8.9
		C368.2,493.7,361,494.4,353.7,494.5z"/>
</g>
<path class="st8" d="M386.4,450.9c2.5,1.9,5.1-5.2,3.6-7C389.6,444.4,386,450.6,386.4,450.9z"/>
<path class="st8" d="M397,579.2c2.9-1,6-2,7.9-4.4c1.6-1.9,2.9-9.6-0.5-5.9C401.6,572,400.2,576.2,397,579.2z"/>
<path class="st8" d="M426.6,571.2c-0.4,2.4-1,4.8-2.7,6.5c-0.3,0.3-1,0.5-1.1,0.1c1.9-1,3.6-2.2,5.2-3.6c3.4-3.3,3.8-11.6-1.3-13.8
	C426.6,564,427.1,567.6,426.6,571.2z"/>
<path class="st12" d="M462.1,556.3c0,0-28.4-11.2-38.6-10s11.6,17.3,11.6,17.3l13.1,8.8c0,0,8-3,8.5-3.2S462.1,556.3,462.1,556.3z"
	/>
<path class="st1" d="M266.9,436.7c0,0,21.3-12.4,49.5,3s32.8,105.8,32.8,105.8s-11.5,92.1,32.9,71.6c0,0,81-25.2,89.1-19.6
	c0,0,7.7,0-7.7,3.4s-74.6,22.2-74.6,22.2s-19.2,6.7-27.3,0s-31.1,0.9-34.1-45.2c-2-29-5.5-57.9-10.7-86.6l-7.9-23.5L266.9,436.7z"/>
<path class="st4" d="M264.3,579.1c0,0,9.4-93.4-6-127.1c-13.4-29.4,38.4-15.6,51.9-11.6c2.1,0.6,3.9,1.9,5.2,3.7
	c8,11.2,36.7,56.3,28.2,116.7c0,0-3.4,53.7,17.9,62.2l-65.7-21.2c-5.3-1.7-10.7-3.2-16.2-4.4C272.7,595.9,261.3,591.4,264.3,579.1z"
	/>
<path class="st3" d="M666.9,412.1c0,0-4.6,21.4,15.8,23.9l1.3-2.4C684,433.6,668.2,418.7,666.9,412.1z"/>
<path class="st3" d="M690.5,433.5l-4.8,1l-0.5,0.1c0,0-12.7-10.3-12.5-33.3c1.7,3.4,3.7,6.6,6,9.6
	C683.8,417.6,689.5,426.4,690.5,433.5z"/>
<path class="st3" d="M692.1,435.7c-0.8,0.5-1.7,0.6-2.6,0.3c-12.2-2.9-8.1-42.6-8.1-42.6c0.7,0.3,1.4,5.4,4.2,11.9
	C690.6,416.8,696,432.8,692.1,435.7z"/>
<path class="st3" d="M719.2,412.1c0,0,0.8,21.4-19.6,23.9l-1.3-2.4C698.3,433.6,717.9,418.7,719.2,412.1z"/>
<path class="st3" d="M713.3,401.3c0.2,23-16.3,33.3-16.3,33.3l-0.5-0.1l-4.8-1c0.9-7,6.7-15.9,11.7-22.6
	C706.3,407.3,709.6,404.1,713.3,401.3z"/>
<path class="st3" d="M696.4,433.6c-0.7,0.9-1.7,1.6-2.7,2.1l0,0c-0.3,0.1-0.7,0.3-1,0.3c-3,0.7-4-1.5-3.9-5.1
	c0.3-6.5,4.4-17.9,8.1-26.4c2.7-6.1,7-10.8,7.7-11.1C704.6,393.4,704.4,424.3,696.4,433.6z"/>
<path class="st3" d="M693,379.5c0,0-13.6,48.3-1.9,55.6S696,383.7,693,379.5z"/>
<path class="st8" d="M666.9,412.1c0,0-4.6,21.4,15.8,23.9l1.3-2.4C684,433.6,668.2,418.7,666.9,412.1z"/>
<path class="st8" d="M690.5,433.5l-4.8,1l-0.5,0.1c0,0-12.7-10.3-12.5-33.3c1.7,3.4,3.7,6.6,6,9.6
	C683.8,417.6,689.5,426.4,690.5,433.5z"/>
<path class="st8" d="M692.1,435.7c-0.8,0.5-1.7,0.6-2.6,0.3c-12.2-2.9-8.1-42.6-8.1-42.6c0.7,0.3,1.4,5.4,4.2,11.9
	C690.6,416.8,696,432.8,692.1,435.7z"/>
<path class="st8" d="M719.2,412.1c0,0,0.8,21.4-19.6,23.9l-1.3-2.4C698.3,433.6,717.9,418.7,719.2,412.1z"/>
<path class="st8" d="M713.3,401.3c0.2,23-16.3,33.3-16.3,33.3l-0.5-0.1l-4.8-1c0.9-7,6.7-15.9,11.7-22.6
	C706.3,407.3,709.6,404.1,713.3,401.3z"/>
<path class="st8" d="M696.4,433.6c-0.7,0.9-1.7,1.6-2.7,2.1l0,0c-0.3,0.1-0.7,0.3-1,0.3c-3,0.7-4-1.5-3.9-5.1
	c0.3-6.5,4.4-17.9,8.1-26.4c2.7-6.1,7-10.8,7.7-11.1C704.6,393.4,704.4,424.3,696.4,433.6z"/>
<path class="st8" d="M693,379.5c0,0-13.6,48.3-1.9,55.6S696,383.7,693,379.5z"/>
<path class="st3" d="M666.9,412.1c0,0-2.7,21.4,17.7,23.9l1.3-2.4C685.9,433.6,668.2,418.7,666.9,412.1z"/>
<path class="st3" d="M692.4,433.5l-4.8,1l-0.5,0.1c0,0-14.6-10.3-14.4-33.3c0,0,3.7,4,8,9.6C685.7,417.6,691.4,426.4,692.4,433.5z"
	/>
<path class="st8" d="M692.4,433.5l-4.8,1c-4.5-4-6.3-14.3-6.9-23.6C685.7,417.6,691.4,426.4,692.4,433.5z"/>
<path class="st3" d="M694,435.7c-0.8,0.5-1.7,0.6-2.6,0.3c-12.2-2.9-10-42.6-10-42.6c0.7,0.3,3.3,5.4,6.1,11.9
	C692.5,416.8,697.9,432.8,694,435.7z"/>
<path class="st3" d="M719.2,412.1c0,0,2.7,21.4-17.7,23.9l-1.3-2.4C700.2,433.6,717.9,418.7,719.2,412.1z"/>
<path class="st3" d="M713.3,401.3c0.2,23-14.4,33.3-14.4,33.3l-0.5-0.1l-4.8-1c0.9-7,6.7-15.9,11.7-22.6
	C709.6,405.3,713.3,401.3,713.3,401.3z"/>
<path class="st8" d="M705.3,410.9c-0.6,8.7-2.2,18.2-6,22.7c-0.3,0.3-0.6,0.6-0.9,0.9l-4.8-1C694.6,426.4,700.3,417.6,705.3,410.9z"
	/>
<path class="st3" d="M698.3,433.6c-0.7,0.9-1.7,1.6-2.7,2.1l0,0c-0.3,0.1-0.7,0.3-1,0.3c-3,0.7-4-1.5-3.9-5.1
	c0.3-6.5,4.4-17.9,8.1-26.4c2.7-6.1,5.1-10.8,5.8-11.1C704.6,393.4,706.3,424.3,698.3,433.6z"/>
<path class="st8" d="M694,435.7c-0.7,0-1.4-0.2-1.9-0.6c-5.7-3.6-5.8-17-4.5-29.8C692.5,416.8,697.9,432.8,694,435.7z"/>
<path class="st8" d="M698.3,433.6c-0.7,1.4-1.5,2.2-2.7,2.1l0,0c-0.6-0.1-1.1-0.3-1.6-0.6c-1.5-1-2.6-2.5-3.2-4.2
	c0.3-6.5,4.4-17.9,8.1-26.4C700.1,416.2,700.6,428.7,698.3,433.6z"/>
<path class="st3" d="M693,379.5c0,0-11.7,48.3,0,55.6S696,383.7,693,379.5z"/>
<polygon class="st1" points="711.4,437.4 710.6,441.7 707.6,457.4 679.2,457.4 676.3,441.7 675.5,437.4 "/>
<polygon class="st8" points="711.4,437.4 710.6,441.7 676.3,441.7 675.5,437.4 "/>
<rect x="668.7" y="432.7" class="st1" width="48.8" height="8.1"/>
<path class="st16" d="M552.8,448.2l-26.7,2.2l-38.1-2.5l0.7-0.1l35.3-3.4c8.1-3,2.5-20.5,2.5-20.5l27,1.4l2.2,0.1
	C565.1,447.9,552.8,448.2,552.8,448.2z"/>
<path class="st8" d="M552.8,448.2l-26.7,2.2l-38.1-2.5l0.7-0.1l38.5,1.4l25.8-2.8c7.3-1.9,3.1-14.6,0.5-21l2.2,0.1
	C565.1,447.9,552.8,448.2,552.8,448.2z"/>
<path class="st17" d="M599.5,289.4l-8.2,117.2l-1.1,15.4c-0.2,3.5-3.2,6.2-6.7,6.2H581l-123-0.8c-1.9,0-3.4-1.6-3.4-3.5
	c0-0.1,0-0.2,0-0.3l1.1-10.4l8.6-85.1c0.3-2.7,2.1-5.1,4.7-6l117.2-40.6c4-1.4,8-0.9,10.6,1.2C598.9,284.4,599.8,286.9,599.5,289.4z
	"/>
<path class="st2" d="M591.4,406.6l-1.1,15.4c-0.2,3.5-3.2,6.2-6.7,6.2h-2.5l-123-0.8c-1.9,0-3.4-1.6-3.4-3.5c0-0.1,0-0.2,0-0.3
	l1.1-10.4L591.4,406.6z"/>
<ellipse class="st4" cx="508.9" cy="419.3" rx="1.6" ry="3.3"/>
<path class="st16" d="M569.1,452c0,0,33.6-12.7,42.7-3.5c0,0,1.5,2.8-4.6,3.5l-24.7,2C582.6,454,572.4,455,569.1,452z"/>
<path class="st2" d="M570,448.7c6.6-2.7,26.5-9.7,39.2-2c0,0-14.1-1.6-21.8,2.9s-18.3,2.4-18.3,2.4l-0.2-0.3c-0.6-1-0.2-2.3,0.9-2.9
	C569.9,448.8,570,448.8,570,448.7z"/>
<path class="st2" d="M599.5,289.4L590.3,422c-0.2,3.5-3.2,6.2-6.7,6.2h-2.5c1.7-1.6,3.2-3.5,4.3-5.6c0,0,9.1-133.2,9.7-136.5
	c0.3-1.2,0.9-2.4,1.8-3.3C598.9,284.5,599.8,286.9,599.5,289.4z"/>
<path class="st8" d="M599.5,289.4L590.3,422c-0.2,3.5-3.2,6.2-6.7,6.2h-2.5c1.7-1.6,3.2-3.5,4.3-5.6c0,0,9.1-133.2,9.7-136.5
	c0.3-1.2,0.9-2.4,1.8-3.3C598.9,284.5,599.8,286.9,599.5,289.4z"/>
<ellipse class="st0" cx="149" cy="730.1" rx="97.4" ry="15.7"/>
<rect x="145.8" y="430.3" class="st18" width="6.3" height="141.2"/>
<path class="st1" d="M191.5,571l-0.4,6.4l-0.6,9l-0.2,3.7l-0.6,9l-0.2,3.7l-0.6,9l-6.3,102.1c-0.6,9.1-8.1,16.2-17.3,16.2h-32.9
	c-9.1,0-16.7-7.1-17.2-16.2L109,611.8l-0.6-9l-0.2-3.7l-0.6-9l-0.2-3.7l-0.6-9l-0.4-6.4c-0.3-5,3.5-9.2,8.5-9.5c0.2,0,0.3,0,0.5,0
	h67.2c5,0,9,4.1,8.9,9.1C191.5,570.6,191.5,570.8,191.5,571z"/>
<polygon class="st19" points="191.1,577.4 190.6,586.3 107.4,586.3 106.8,577.4 "/>
<polygon class="st19" points="190.3,590.1 189.8,599.1 108.2,599.1 107.6,590.1 "/>
<polygon class="st19" points="189.5,602.8 189,611.8 108.9,611.8 108.4,602.8 "/>
<path class="st3" d="M97.2,483.2c36.5,26.4,51.7,67.7,51.7,67.7s-44-1.5-80.5-27.9s-51.7-67.7-51.7-67.7S60.7,456.8,97.2,483.2z"/>
<path class="st20" d="M16.7,455.2c0,0,45.7,25.3,60.3,46.3s71.9,49.3,71.9,49.3"/>
<path class="st3" d="M120.8,430c19.9,14.4,28.2,36.9,28.2,36.9s-24-0.8-43.8-15.2S77,414.8,77,414.8S100.9,415.6,120.8,430z"/>
<path class="st20" d="M77,414.8c0,0,24.9,13.8,32.8,25.2s39.2,26.9,39.2,26.9"/>
<path class="st3" d="M177.9,465.7c-22.8,25.1-27.7,57.9-27.7,57.9s32.2-7.9,55-33s27.7-57.9,27.7-57.9S200.7,440.6,177.9,465.7z"/>
<path class="st20" d="M232.9,432.7c0,0-29.7,25.7-37.3,43.4c-7.6,17.7-45.4,47.5-45.4,47.5"/>
<g class="st21">
	<path class="st12" d="M818.9,157c-3.8-3.9-7.9-8.3-8.7-13.9c-0.6-4.4,1-8.8,3.2-12.6c2.2-3.7,5-7,7.4-10.6c3-4.6,5.3-9.8,8.7-14.2
		C834.7,99,842.4,95,850.3,93s16-2.3,24.1-2.5c6.5-0.2,13.1-0.4,19.3,1.4c4.6,1.3,8.8,3.7,13.1,6c5.9,3.3,11.9,6.7,16.7,11.7
		c4.7,5,8,11.2,9.5,17.9c1.7,7.4,1.2,15.5-2.3,22.1c-1.6,2.7-3.4,5.3-5.4,7.7L919,165c-1.3,1.7-2.8,3.3-4.5,4.6
		c-2.2,1.3-4.6,2.2-7.2,2.6c-17.3,3.7-34.8,5.5-52.5,5.6c-6.4,0-11.5-3.5-17.4-6C830.2,168.6,824.4,162.7,818.9,157z"/>
	<path class="st22" d="M824.8,157c-3.6-3.9-7.5-8.3-8.2-13.9c-0.5-4.4,0.9-8.8,3-12.6c2.1-3.7,4.8-7,7-10.6c2.9-4.6,5-9.8,8.2-14.2
		C839.8,99,847,95,854.5,93s15.2-2.3,22.8-2.5c6.2-0.2,12.4-0.4,18.3,1.4c4.3,1.3,8.4,3.7,12.4,6c5.6,3.3,11.3,6.7,15.8,11.7
		c4.5,5.1,7.6,11.2,9,17.8c1.6,7.4,1.1,15.5-2.2,22.1c-1.5,2.7-3.2,5.3-5.2,7.7l-5.8,7.6c-1.2,1.7-2.7,3.3-4.3,4.6
		c-2.1,1.3-4.4,2.2-6.8,2.6c-16.3,3.7-33,5.5-49.8,5.6c-6,0-10.9-3.5-16.5-6C835.6,168.6,830.1,162.7,824.8,157z"/>
	<path class="st12" d="M825.2,95.1c4.5-4.7,9.2-9.2,14.1-13.5c7.3-6.3,16.1-12.4,26.6-12.8c6.3-0.1,12.5,1.5,18,4.6
		c5.4,2.9,10,6.7,14.6,10.4l18.2,14.9c1.5,1.2,3.1,2.6,3.5,4.3c0.3,1.7-0.8,3.4-2.5,3.7c-0.2,0-0.4,0.1-0.6,0.1
		c-0.9-0.1-1.8-0.5-2.6-1c-24.5-13.2-53.7-14-78.9-2.2c-3.1,1.5-9,6.7-12.1,4.6C819,105.2,822.4,98,825.2,95.1z"/>
	<path class="st8" d="M898.8,153.2c-12-2.9-24.9-2.8-37.6-2.7c-8.6,0.1-17.5,0.2-25.1,2.9c-5.2,1.9-9.9,5.6-8.9,9.6
		s6.7,6.3,11.8,8.1c11,3.9,22.8,7.9,35,6.8C886.7,176.8,927.9,160.2,898.8,153.2z"/>
	<path class="st22" d="M834.4,156c-4.9,0-6.2,6.9-5.4,11.7c0.8,4.9,1.3,11.3-3.2,13.2c-1.6,0.5-3.2,0.6-4.8,0.5
		c-11,0-20.8,6.6-29.8,12.9c-1.5,1.1-3.2,2.3-3.9,4c-0.5,1.3-0.6,2.8-1.5,3.8c-0.9,0.9-2.1,1.4-3.4,1.6c-10.7,3.4-18,13.3-18,24.5
		c-11.4,3.9-19.2,16.3-17.7,28.3c-8.4,2.7-13.8,10.9-13,19.6c-9.8,4.5-14.2,17.8-9,27.2c1.8,3.3,4.5,7.7,1.6,10.2
		c3.5,4.7,7.2,9.6,12.7,11.6s13-0.7,13.9-6.4c7.9,4.3,17.9,1.4,22.2-6.6c1.6-2.9,2.2-6.2,1.9-9.6c8.4-1.3,14-11.4,10.8-19.2l8.3-3.7
		c-4.6,5.6-5.2,13.5-1.5,19.8c0.9,1.1,1.5,2.4,1.8,3.8c0.3,2.4-1.6,4.5-3,6.5c-3.6,5.5-3.7,12.7-0.3,18.3c1,1.6,2.4,3.2,2.5,5.1
		c0.1,2.3-1.6,4.2-2.7,6.2c-5,9,1.9,19.6,8.4,27.5c-8.2,8.1-4.7,23.2,4.4,30.4s21.6,8.1,33.1,7.3s23.2-3,34.6-1.2
		c6,1,11.7,3.1,17.7,3.9c10.3,1.4,20.7-1.2,30.5-4.7c5.3-1.9,11-4.5,13.2-9.7c2.5-5.8-0.2-12.4-0.3-18.7c-0.2-9.5,5.6-18.1,6.8-27.5
		c0.7-5.8-0.2-11.6-1-17.3c-2.1-16.3-2.3-32.8-0.5-49.1l3,4.6c1.3,0.2,2.5-0.7,2.7-2c0-0.1,0-0.3,0-0.4c0.6,6.2-3.9,14.4,1.5,17.6
		c1.6,1,3.5,1,5.3,1.4c3.4,1,6.3,3.2,8.2,6.2c2.8,4.2,4,9.3,7.3,13.2s9.9,5.8,13.1,1.8c9.7,0.2,19.2-3.4,26.5-9.8
		c-1.7-2-2.4-4.6-2.1-7.2c6.1,0.1,8.7-8.4,6.4-14.1s-7.2-10-9.4-15.7c-2-5.1-1.8-11.2-5.2-15.5c-1.6-2-4-3.5-5.5-5.6
		c-1.9-2.6-2.4-5.9-3.3-9c-2.5-8.3-8.1-15.4-15.7-19.7c2.2-10.3-5-20.7-15.3-23.3c-1.2-0.2-2.3-0.5-3.4-1c-3.7-1.9-4.4-6.8-6.7-10.3
		c-3.6-5.6-10.9-7.3-17.4-8.5l-19.8-3.7c-1.2-0.1-2.3-0.5-3.2-1.2c-0.8-0.8-1.3-1.9-1.3-3.1c-0.8-5.7,2-11.5,1.6-17.2
		c-0.2-1.7-0.9-3.8-2.6-4.1c-0.9-0.1-1.8,0.2-2.7,0.6c-6.9,2.9-14.1,5.3-21.4,7c-5.4,1.5-10.9,2.5-16.4,2.9
		C853.4,164.7,843,162.3,834.4,156z"/>
	<path class="st3" d="M911.8,103.6c2.9-2,5.8-4.2,7.8-7.5s2.8-8.1,1-11.6c2.4,4.1,4.5,8.8,4.4,13.8s-3.2,10.3-7.2,10.2
		c3-0.2,6.2-0.6,8.5-3.1s2.7-7.9,0-9.6c2.5,2.8,3.6,6.6,3.1,10.4s-2.8,7.1-5.8,8.4c2.6-6.7,10-9.5,15.1-5.6
		c-4.8,2.1-8.6,5.9-10.9,10.5c3.1-2.3,7.4-4.5,9.9-1.2c-4.9,1-9.4,4.6-12,9.9c5-0.6,10.1-0.8,15.2-0.4c-5.6,1.4-10.5,4.7-13.9,9.4
		c3.7,1.1,7.3,2.3,10.8,3.9c-2.9,1.5-6.1,2.2-9.3,2c6,4.3,10.3,12.2,11.3,20.8c-2.1-2-4.4-3.8-6.9-5.3c-2-1.1-4.3-2-6.2-0.7
		s-2,5.7,0.1,6.3l-8.7-0.6c3,2.1,4.9,5.4,5.4,9c-1.7-0.1-3.3-0.7-4.7-1.5c3.7,3.4,6.6,7.6,8.3,12.4c-3.6-2.8-7.4-5.7-11.6-5.6
		c-3.1,0.1-6,1.8-9,2.3c-5.4,0.9-11.1-2.2-14.3-7.8c3.7-0.6,7.4-0.4,11,0.5c-0.6-4-1.6-7.9-3.1-11.6c2.1,1.3,3.8,3.1,5.3,5.1
		c0.6-5.3,0.5-10.6-0.3-15.8l4.6,4.7c-0.4-3.5-1.2-7-2.4-10.3c2.2,4.3,5.2,8.1,8.9,11.2l-6.7-11.6l11.1,8c1.2-0.9,0.3-3.2-0.7-4.4
		c-3-3.7-6.5-7-10.3-9.8c3.1,0.5,6,1.4,8.8,2.6c-1.2-6.3-6.5-10.9-11.6-10.1c3.8-2.2,7.9-3.7,12.3-4.2c-4.3-3.4-10-6.8-14.2-3.1
		c4.1-1,8-2.4,11.7-4.4c-2.2-2.7-6-3.6-9.2-2.1c-3,1.5-5.3,5.3-5.5,9.4c-0.2-5.9,3.4-11.6,8-12.9c-1.8-0.9-3.7-1.8-5.6-1.7
		c-2.2,0.2-3.9,2-4.2,4.1c0.5-3.7,1.8-7.2,3.6-10.4c-2.5-1.3-5.6,0.6-7,3.6s-1.4,6.6-1,10.1c0.4-7.3,0.1-14.7-1-22
		c-1.2,5.7-1.5,11.6-1.1,17.4"/>
	<rect x="864" y="164.2" class="st23" width="6.8" height="238.8"/>
	<ellipse class="st0" cx="927.8" cy="740.2" rx="159" ry="34.9"/>
	<rect x="944" y="91.5" class="st1" width="11.7" height="676.8"/>
	<ellipse class="st24" cx="949.8" cy="132.4" rx="52.7" ry="8.5"/>
	<path class="st24" d="M880.4,87.9c-11.7,2.9-18.8,14.7-15.9,26.4c0.9,3.7,2.8,7.2,5.5,10c6.1,6.3,15.3,8.3,23.8,10.3
		c16.4,3.8,34,9.9,42.9,24.2c5.7,9.3,6.8,20.7,3.1,31c-0.8,2.5-2.2,4.8-4,6.8c-2.3,2-5,3.5-8,4.3c-13.3,4.4-27.6,4.8-41.1,1.1"/>
	<path class="st24" d="M1017.4,87.9c11.7,2.9,18.8,14.7,15.9,26.4c-0.9,3.7-2.8,7.2-5.5,9.9c-6.1,6.3-15.3,8.3-23.9,10.3
		c-16.4,3.8-34,9.9-42.9,24.2c-5.7,9.3-6.8,20.7-3.1,31c0.8,2.5,2.2,4.8,4,6.8c2.3,2,5,3.5,8,4.3c13.3,4.4,27.6,4.8,41.1,1.1"/>
	<ellipse class="st24" cx="949.8" cy="527.2" rx="49" ry="13.8"/>
	<ellipse class="st24" cx="949.8" cy="701" rx="49" ry="13.8"/>
	<path class="st24" d="M902.4,531.5c19.1,18.1,32.4,41.6,38.1,67.3c1.1,4.7,1.8,9.5,2,14.3c0.4,11-2.4,21.9-6,32.3
		c-6.8,19.7-16.8,38.9-32.6,52.6c-14.2,12.2-32,19.3-49.8,25.2"/>
	<path class="st24" d="M997.3,531.5c-19.1,18.1-32.4,41.6-38.1,67.3c-1.1,4.7-1.8,9.5-2,14.3c-0.4,11,2.4,21.9,6,32.3
		c6.8,19.7,16.8,38.9,32.6,52.6c14.2,12.2,32,19.3,49.7,25.2"/>
	<rect x="840.8" y="82.5" class="st12" width="25.9" height="10.6"/>
	<path class="st3" d="M897.3,114.8l-5.2-14.7c-0.5-1.7-1.3-3.3-2.5-4.6c-1.2-1.1-3.2-1.4-4.3-0.1c1.8,2.4,3.2,5.1,4.3,8
		c0.9,3,0.9,6.5-0.7,9c-0.8-8.4-4.4-16.3-10.2-22.4c2.1,4.3,3.8,8.7,5.1,13.3l-7.2-8.4c-1.5,6.4-1.5,13,0.1,19.4
		c-3.9-4.9-6.1-10.9-6.2-17.1c-0.1,2.7-0.6,5.3-1.6,7.7c-2-2.3-3-5.2-3-8.3c-3.7,5.7-4.8,12.7-2.9,19.2c-3.4-5.6-5.3-12-5.4-18.6
		c-2.2,6.6-2.8,13.6-1.8,20.4c-4.1-4.5-6.6-10.3-7.2-16.4c0.1,6.2,1.1,12.4,3,18.4c-3.3-0.9-5.2-4.9-6.9-8.2s-4.5-6.9-7.9-6.3
		c3.1,3.4,5,7.8,5.4,12.4c-1.6-0.2-2.9-1.9-4.5-2.3c-2.3-0.5-4.5,2.2-4.2,4.8s3,4.4,5.2,3.6c-3.2-1.3-6.8-0.6-9.2,1.9
		c-2.6,2.7-3.7,6.5-3.1,10.2c1.3-3.8,5.2-6.1,8.6-5c-5.2,0.8-9.6,6.2-10,12.3c1.3-0.9,1.9-2.6,2.9-3.8s3.2-1.7,3.8-0.1
		c0.2,0.8,0.2,1.6-0.1,2.3l-2.7,11.7l13.6-5.9c-0.9,5.5-2.6,10.9-5.1,15.9l7.7-2.5c-3.2,3.4-5.4,7.6-6.2,12.2
		c0.8-4.1,6.1-7.4,9.4-7.2c0.6,6.4-2.6,11.1-8,11.4c-7.7,0.5-14.6-0.8-22.2,1.9c3.1-4.4,8.3-6.7,13.6-6c-3.9-5.4-10.8-7.6-16.5-5.2
		c2.2-3.2,5.8-5,9.6-4.9c-2.6-4.4-8.2-5.9-12.2-3.4c1.6-3,4.2-5.4,7.3-6.8c-2.9-2.6-7-2.8-10.5-1.6s-6.6,3.6-9.6,6
		c-1-3-0.4-6.4,1.6-8.8c1.9-2.2,5.1-2.8,7.7-1.5c-1.2-3.7-4.8-6.2-8.2-5.7c2.1-3,5.9-4.2,9.4-3c0.1-4.7-1.9-9.2-5.5-12.3
		c2.6,0.7,4.8,2.3,6.5,4.4c0.8-3.5,0.1-7.1-1.9-10c-1.9-2.7-4.2-5-6.9-7c5.3-1.6,10.9-1.6,16.1,0.1L814,96.8l9.3,11.7
		c-1-5.9-1.4-12-0.9-18c1.2,4.3,3,8.3,5.4,12.1c-0.7-5.5-1.1-11-1.2-16.5c0-1.4,0.1-3.1,1.2-3.8s2.3,0,3,1c0.6,1.1,1.1,2.3,1.3,3.5
		c1.1,3.9,3.2,7.4,6.2,10.1c0.1-5.8,2.6-11.2,7-15.1c0.1,4.5,0.7,8.9,1.8,13.2c-3-0.2-4.7-4.5-3.8-7.8s3.5-5.6,6-7.3
		s5.3-3.4,7.1-6.1c-0.6,6.4-0.2,12.9,1.3,19.1c0.9-4.3,0.9-8.9,2.1-13.1s4.3-8.3,8.1-8.2c-1.6,2.3-2.8,4.7-3.7,7.4
		c-0.8,2.7-0.6,5.9,0.9,8.1c0.5-4,1.1-8.1,2.7-11.8s4.2-6.9,7.7-7.8c-2,6.8-1.4,14.1,1.5,20.6c0-5.8,1.6-12.4,6.1-15
		c-2.1,3.4-2.6,7.6-1.2,11.5c-0.1-5.4,1.3-10.7,4-15.4c0,6.7,1.1,13.5,3.3,19.8c2.6-5.6,6.2-10.7,10.7-15c-1,6.4-0.4,13,1.9,19.1
		c-0.3-2.8-0.2-5.6,0.3-8.4c0.6-2.7,2.2-5.3,4.5-6.3l0.4,18.9c4.8-2.7,6.5-11,3.2-15.9c3.9,2.3,8,4.9,10.2,9.3s1.1,11.2-3,12.8"/>
	<path class="st3" d="M857.5,84.6h6c5.5,0,10,4.5,10,10l0,0c0,5.5-4.5,10-10,10h-6c-5.5,0-10-4.5-10-10l0,0
		C847.5,89.1,852,84.6,857.5,84.6z"/>
</g>
</svg>
